  0
SECTION
  2
HEADER
  9
$ANGBASE
  50
0.0
  9
$ANGDIR
  70
1
  9
$MEASUREMENT
  70
0
  0
ENDSEC
  0
SECTION
  2
TABLES
  0
TABLE
  2
LTYPE
  70
4
  0
LTYPE
  5
40F
  2
CONTINUOUS
  70
0
  3
Solid line
  72
65
  73
0
  40
0.0
  0
LTYPE
  5
410
  2
DASHDOT
 70
0
  3
Dash Dot ____ _ ____ _
 72
65
 73
4
 40
2.0
 49
1.25
 49
-0.25
 49
0.25
 49
-0.25
  0
LTYPE
  5
411
  2
DASHED
 70
0
  3
Dashed __ __ __ __ __
 72
65
 73
2
 40
0.75
 49
0.5
 49
-0.25
  0
LTYPE
  5
43B
  2
DOTTED
 70
0
  3
Dotted .  .  .  .
 72
65
 73
2
 40
0.2
 49
0.0
 49
-0.2
  0
ENDTAB
  0
TABLE
  2
STYLE
  70
4
  0
STYLE
  2
KICAD
  70
0
  40
0
  41
1
  42
1
  50
0
  71
0
  3
isocp.shx
  0
STYLE
  2
KICADB
  70
0
  40
0
  41
1
  42
1
  50
0
  71
0
  3
isocp.shx
  0
STYLE
  2
KICADI
  70
0
  40
0
  41
1
  42
1
  50
15
  71
0
  3
isocp.shx
  0
STYLE
  2
KICADBI
  70
0
  40
0
  41
1
  42
1
  50
15
  71
0
  3
isocp.shx
  0
ENDTAB
  0
TABLE
  2
LAYER
  70
1
  0
LAYER
  2
BLACK
  70
0
  62
7
  6
CONTINUOUS
  0
ENDTAB
  0
ENDSEC
  0
SECTION
  2
ENTITIES
0
LINE
8
BLACK
6
CONTINUOUS
10
5.86396
20
-3.05
11
5.86388
21
-3.05077
0
LINE
8
BLACK
6
CONTINUOUS
10
5.86388
20
-3.05077
11
5.86365
21
-3.05151
0
LINE
8
BLACK
6
CONTINUOUS
10
5.86365
20
-3.05151
11
5.86329
21
-3.0522
0
LINE
8
BLACK
6
CONTINUOUS
10
5.86329
20
-3.0522
11
5.8628
21
-3.0528
0
LINE
8
BLACK
6
CONTINUOUS
10
5.8628
20
-3.0528
11
5.8622
21
-3.05329
0
LINE
8
BLACK
6
CONTINUOUS
10
5.8622
20
-3.05329
11
5.86151
21
-3.05365
0
LINE
8
BLACK
6
CONTINUOUS
10
5.86151
20
-3.05365
11
5.86077
21
-3.05388
0
LINE
8
BLACK
6
CONTINUOUS
10
5.86077
20
-3.05388
11
5.86019
21
-3.05394
0
LINE
8
BLACK
6
CONTINUOUS
10
5.86019
20
-3.05394
11
5.86
21
-3.05396
0
LINE
8
BLACK
6
CONTINUOUS
10
5.86
20
-3.05396
11
5.85981
21
-3.05394
0
LINE
8
BLACK
6
CONTINUOUS
10
5.85981
20
-3.05394
11
5.48394
21
-3.05394
0
LINE
8
BLACK
6
CONTINUOUS
10
5.48394
20
-3.05394
11
5.48394
21
-3.77606
0
LINE
8
BLACK
6
CONTINUOUS
10
5.48394
20
-3.77606
11
5.66981
21
-3.77606
0
LINE
8
BLACK
6
CONTINUOUS
10
5.66981
20
-3.77606
11
5.67
21
-3.77604
0
LINE
8
BLACK
6
CONTINUOUS
10
5.67
20
-3.77604
11
5.67019
21
-3.77606
0
LINE
8
BLACK
6
CONTINUOUS
10
5.67019
20
-3.77606
11
5.67077
21
-3.77612
0
LINE
8
BLACK
6
CONTINUOUS
10
5.67077
20
-3.77612
11
5.67151
21
-3.77635
0
LINE
8
BLACK
6
CONTINUOUS
10
5.67151
20
-3.77635
11
5.6722
21
-3.77671
0
LINE
8
BLACK
6
CONTINUOUS
10
5.6722
20
-3.77671
11
5.6728
21
-3.7772
0
LINE
8
BLACK
6
CONTINUOUS
10
5.6728
20
-3.7772
11
5.67329
21
-3.7778
0
LINE
8
BLACK
6
CONTINUOUS
10
5.67329
20
-3.7778
11
5.67365
21
-3.77849
0
LINE
8
BLACK
6
CONTINUOUS
10
5.67365
20
-3.77849
11
5.67388
21
-3.77923
0
LINE
8
BLACK
6
CONTINUOUS
10
5.67388
20
-3.77923
11
5.67396
21
-3.78
0
LINE
8
BLACK
6
CONTINUOUS
10
5.67396
20
-3.78
11
5.67394
21
-3.78019
0
LINE
8
BLACK
6
CONTINUOUS
10
5.67394
20
-3.78019
11
5.67394
21
-4.65532
0
LINE
8
BLACK
6
CONTINUOUS
10
5.67394
20
-4.65532
11
5.67396
21
-4.65551
0
LINE
8
BLACK
6
CONTINUOUS
10
5.67396
20
-4.65551
11
5.67388
21
-4.65628
0
LINE
8
BLACK
6
CONTINUOUS
10
5.67388
20
-4.65628
11
5.67365
21
-4.65703
0
LINE
8
BLACK
6
CONTINUOUS
10
5.67365
20
-4.65703
11
5.67329
21
-4.65771
0
LINE
8
BLACK
6
CONTINUOUS
10
5.67329
20
-4.65771
11
5.6728
21
-4.65831
0
LINE
8
BLACK
6
CONTINUOUS
10
5.6728
20
-4.65831
11
5.6722
21
-4.6588
0
LINE
8
BLACK
6
CONTINUOUS
10
5.6722
20
-4.6588
11
5.67151
21
-4.65917
0
LINE
8
BLACK
6
CONTINUOUS
10
5.67151
20
-4.65917
11
5.67077
21
-4.65939
0
LINE
8
BLACK
6
CONTINUOUS
10
5.67077
20
-4.65939
11
5.67019
21
-4.65945
0
LINE
8
BLACK
6
CONTINUOUS
10
5.67019
20
-4.65945
11
5.67
21
-4.65947
0
LINE
8
BLACK
6
CONTINUOUS
10
5.67
20
-4.65947
11
5.66981
21
-4.65945
0
LINE
8
BLACK
6
CONTINUOUS
10
5.66981
20
-4.65945
11
0.669484
21
-4.65945
0
LINE
8
BLACK
6
CONTINUOUS
10
0.669484
20
-4.65945
11
0.669291
21
-4.65947
0
LINE
8
BLACK
6
CONTINUOUS
10
0.669291
20
-4.65947
11
0.66852
21
-4.65939
0
LINE
8
BLACK
6
CONTINUOUS
10
0.66852
20
-4.65939
11
0.667777
21
-4.65917
0
LINE
8
BLACK
6
CONTINUOUS
10
0.667777
20
-4.65917
11
0.667094
21
-4.6588
0
LINE
8
BLACK
6
CONTINUOUS
10
0.667094
20
-4.6588
11
0.666494
21
-4.65831
0
LINE
8
BLACK
6
CONTINUOUS
10
0.666494
20
-4.65831
11
0.666459
21
-4.65827
0
LINE
8
BLACK
6
CONTINUOUS
10
0.666459
20
-4.65827
11
0.666002
21
-4.65771
0
LINE
8
BLACK
6
CONTINUOUS
10
0.666002
20
-4.65771
11
0.665636
21
-4.65703
0
LINE
8
BLACK
6
CONTINUOUS
10
0.665636
20
-4.65703
11
0.665411
21
-4.65628
0
LINE
8
BLACK
6
CONTINUOUS
10
0.665411
20
-4.65628
11
0.665335
21
-4.65551
0
LINE
8
BLACK
6
CONTINUOUS
10
0.665335
20
-4.65551
11
0.665354
21
-4.65532
0
LINE
8
BLACK
6
CONTINUOUS
10
0.665354
20
-4.65532
11
0.665354
21
-0.669485
0
LINE
8
BLACK
6
CONTINUOUS
10
0.665354
20
-0.669485
11
0.665335
21
-0.669291
0
LINE
8
BLACK
6
CONTINUOUS
10
0.665335
20
-0.669291
11
0.665411
21
-0.66852
0
LINE
8
BLACK
6
CONTINUOUS
10
0.665411
20
-0.66852
11
0.665636
21
-0.667777
0
LINE
8
BLACK
6
CONTINUOUS
10
0.665636
20
-0.667777
11
0.666002
21
-0.667094
0
LINE
8
BLACK
6
CONTINUOUS
10
0.666002
20
-0.667094
11
0.666494
21
-0.666494
0
LINE
8
BLACK
6
CONTINUOUS
10
0.666494
20
-0.666494
11
0.667094
21
-0.666002
0
LINE
8
BLACK
6
CONTINUOUS
10
0.667094
20
-0.666002
11
0.667777
21
-0.665636
0
LINE
8
BLACK
6
CONTINUOUS
10
0.667777
20
-0.665636
11
0.66852
21
-0.665411
0
LINE
8
BLACK
6
CONTINUOUS
10
0.66852
20
-0.665411
11
0.669098
21
-0.665354
0
LINE
8
BLACK
6
CONTINUOUS
10
0.669098
20
-0.665354
11
0.669291
21
-0.665335
0
LINE
8
BLACK
6
CONTINUOUS
10
0.669291
20
-0.665335
11
0.669484
21
-0.665354
0
LINE
8
BLACK
6
CONTINUOUS
10
0.669484
20
-0.665354
11
6.03981
21
-0.665354
0
LINE
8
BLACK
6
CONTINUOUS
10
6.03981
20
-0.665354
11
6.04
21
-0.665335
0
LINE
8
BLACK
6
CONTINUOUS
10
6.04
20
-0.665335
11
6.04019
21
-0.665354
0
LINE
8
BLACK
6
CONTINUOUS
10
6.04019
20
-0.665354
11
6.04077
21
-0.665411
0
LINE
8
BLACK
6
CONTINUOUS
10
6.04077
20
-0.665411
11
6.04151
21
-0.665636
0
LINE
8
BLACK
6
CONTINUOUS
10
6.04151
20
-0.665636
11
6.0422
21
-0.666002
0
LINE
8
BLACK
6
CONTINUOUS
10
6.0422
20
-0.666002
11
6.0428
21
-0.666494
0
LINE
8
BLACK
6
CONTINUOUS
10
6.0428
20
-0.666494
11
6.04329
21
-0.667094
0
LINE
8
BLACK
6
CONTINUOUS
10
6.04329
20
-0.667094
11
6.04365
21
-0.667777
0
LINE
8
BLACK
6
CONTINUOUS
10
6.04365
20
-0.667777
11
6.04388
21
-0.66852
0
LINE
8
BLACK
6
CONTINUOUS
10
6.04388
20
-0.66852
11
6.04396
21
-0.669291
0
LINE
8
BLACK
6
CONTINUOUS
10
6.04396
20
-0.669291
11
6.04394
21
-0.669484
0
LINE
8
BLACK
6
CONTINUOUS
10
6.04394
20
-0.669484
11
6.04394
21
-1.53981
0
LINE
8
BLACK
6
CONTINUOUS
10
6.04394
20
-1.53981
11
6.04396
21
-1.54
0
LINE
8
BLACK
6
CONTINUOUS
10
6.04396
20
-1.54
11
6.04388
21
-1.54077
0
LINE
8
BLACK
6
CONTINUOUS
10
6.04388
20
-1.54077
11
6.04365
21
-1.54151
0
LINE
8
BLACK
6
CONTINUOUS
10
6.04365
20
-1.54151
11
6.04329
21
-1.5422
0
LINE
8
BLACK
6
CONTINUOUS
10
6.04329
20
-1.5422
11
6.0428
21
-1.5428
0
LINE
8
BLACK
6
CONTINUOUS
10
6.0428
20
-1.5428
11
6.0422
21
-1.54329
0
LINE
8
BLACK
6
CONTINUOUS
10
6.0422
20
-1.54329
11
6.04151
21
-1.54365
0
LINE
8
BLACK
6
CONTINUOUS
10
6.04151
20
-1.54365
11
6.04077
21
-1.54388
0
LINE
8
BLACK
6
CONTINUOUS
10
6.04077
20
-1.54388
11
6.04019
21
-1.54394
0
LINE
8
BLACK
6
CONTINUOUS
10
6.04019
20
-1.54394
11
6.04
21
-1.54396
0
LINE
8
BLACK
6
CONTINUOUS
10
6.04
20
-1.54396
11
6.03981
21
-1.54394
0
LINE
8
BLACK
6
CONTINUOUS
10
6.03981
20
-1.54394
11
5.67394
21
-1.54394
0
LINE
8
BLACK
6
CONTINUOUS
10
5.67394
20
-1.54394
11
5.67394
21
-2.27606
0
LINE
8
BLACK
6
CONTINUOUS
10
5.67394
20
-2.27606
11
5.85981
21
-2.27606
0
LINE
8
BLACK
6
CONTINUOUS
10
5.85981
20
-2.27606
11
5.86
21
-2.27604
0
LINE
8
BLACK
6
CONTINUOUS
10
5.86
20
-2.27604
11
5.86019
21
-2.27606
0
LINE
8
BLACK
6
CONTINUOUS
10
5.86019
20
-2.27606
11
5.86077
21
-2.27612
0
LINE
8
BLACK
6
CONTINUOUS
10
5.86077
20
-2.27612
11
5.86151
21
-2.27635
0
LINE
8
BLACK
6
CONTINUOUS
10
5.86151
20
-2.27635
11
5.8622
21
-2.27671
0
LINE
8
BLACK
6
CONTINUOUS
10
5.8622
20
-2.27671
11
5.8628
21
-2.2772
0
LINE
8
BLACK
6
CONTINUOUS
10
5.8628
20
-2.2772
11
5.86329
21
-2.2778
0
LINE
8
BLACK
6
CONTINUOUS
10
5.86329
20
-2.2778
11
5.86365
21
-2.27849
0
LINE
8
BLACK
6
CONTINUOUS
10
5.86365
20
-2.27849
11
5.86388
21
-2.27923
0
LINE
8
BLACK
6
CONTINUOUS
10
5.86388
20
-2.27923
11
5.86396
21
-2.28
0
LINE
8
BLACK
6
CONTINUOUS
10
5.86396
20
-2.28
11
5.86394
21
-2.28019
0
LINE
8
BLACK
6
CONTINUOUS
10
5.86394
20
-2.28019
11
5.86394
21
-3.04981
0
LINE
8
BLACK
6
CONTINUOUS
10
5.86394
20
-3.04981
11
5.86396
21
-3.05
0
LINE
8
BLACK
6
CONTINUOUS
10
5.85606
20
-3.03981
11
5.85606
21
-3.03981
0
LINE
8
BLACK
6
CONTINUOUS
10
5.85606
20
-3.03981
11
5.85606
21
-2.28394
0
LINE
8
BLACK
6
CONTINUOUS
10
5.85606
20
-2.28394
11
5.67019
21
-2.28394
0
LINE
8
BLACK
6
CONTINUOUS
10
5.67019
20
-2.28394
11
5.67
21
-2.28396
0
LINE
8
BLACK
6
CONTINUOUS
10
5.67
20
-2.28396
11
5.66981
21
-2.28394
0
LINE
8
BLACK
6
CONTINUOUS
10
5.66981
20
-2.28394
11
5.66923
21
-2.28388
0
LINE
8
BLACK
6
CONTINUOUS
10
5.66923
20
-2.28388
11
5.66849
21
-2.28365
0
LINE
8
BLACK
6
CONTINUOUS
10
5.66849
20
-2.28365
11
5.6678
21
-2.28329
0
LINE
8
BLACK
6
CONTINUOUS
10
5.6678
20
-2.28329
11
5.6672
21
-2.2828
0
LINE
8
BLACK
6
CONTINUOUS
10
5.6672
20
-2.2828
11
5.66671
21
-2.2822
0
LINE
8
BLACK
6
CONTINUOUS
10
5.66671
20
-2.2822
11
5.66635
21
-2.28151
0
LINE
8
BLACK
6
CONTINUOUS
10
5.66635
20
-2.28151
11
5.66612
21
-2.28077
0
LINE
8
BLACK
6
CONTINUOUS
10
5.66612
20
-2.28077
11
5.66604
21
-2.28
0
LINE
8
BLACK
6
CONTINUOUS
10
5.66604
20
-2.28
11
5.66606
21
-2.27981
0
LINE
8
BLACK
6
CONTINUOUS
10
5.66606
20
-2.27981
11
5.66606
21
-1.54019
0
LINE
8
BLACK
6
CONTINUOUS
10
5.66606
20
-1.54019
11
5.66604
21
-1.54
0
LINE
8
BLACK
6
CONTINUOUS
10
5.66604
20
-1.54
11
5.66612
21
-1.53923
0
LINE
8
BLACK
6
CONTINUOUS
10
5.66612
20
-1.53923
11
5.66635
21
-1.53849
0
LINE
8
BLACK
6
CONTINUOUS
10
5.66635
20
-1.53849
11
5.66671
21
-1.5378
0
LINE
8
BLACK
6
CONTINUOUS
10
5.66671
20
-1.5378
11
5.6672
21
-1.5372
0
LINE
8
BLACK
6
CONTINUOUS
10
5.6672
20
-1.5372
11
5.6678
21
-1.53671
0
LINE
8
BLACK
6
CONTINUOUS
10
5.6678
20
-1.53671
11
5.66849
21
-1.53635
0
LINE
8
BLACK
6
CONTINUOUS
10
5.66849
20
-1.53635
11
5.66923
21
-1.53612
0
LINE
8
BLACK
6
CONTINUOUS
10
5.66923
20
-1.53612
11
5.66981
21
-1.53606
0
LINE
8
BLACK
6
CONTINUOUS
10
5.66981
20
-1.53606
11
5.67
21
-1.53604
0
LINE
8
BLACK
6
CONTINUOUS
10
5.67
20
-1.53604
11
5.67019
21
-1.53606
0
LINE
8
BLACK
6
CONTINUOUS
10
5.67019
20
-1.53606
11
6.03606
21
-1.53606
0
LINE
8
BLACK
6
CONTINUOUS
10
6.03606
20
-1.53606
11
6.03606
21
-0.673228
0
LINE
8
BLACK
6
CONTINUOUS
10
6.03606
20
-0.673228
11
0.673228
21
-0.673228
0
LINE
8
BLACK
6
CONTINUOUS
10
0.673228
20
-0.673228
11
0.673228
21
-4.65157
0
LINE
8
BLACK
6
CONTINUOUS
10
0.673228
20
-4.65157
11
5.66606
21
-4.65157
0
LINE
8
BLACK
6
CONTINUOUS
10
5.66606
20
-4.65157
11
5.66606
21
-4.54981
0
LINE
8
BLACK
6
CONTINUOUS
10
5.66606
20
-4.54981
11
5.66606
21
-4.54981
0
LINE
8
BLACK
6
CONTINUOUS
10
5.66606
20
-4.54981
11
5.66606
21
-3.78394
0
LINE
8
BLACK
6
CONTINUOUS
10
5.66606
20
-3.78394
11
5.48019
21
-3.78394
0
LINE
8
BLACK
6
CONTINUOUS
10
5.48019
20
-3.78394
11
5.48
21
-3.78396
0
LINE
8
BLACK
6
CONTINUOUS
10
5.48
20
-3.78396
11
5.47981
21
-3.78394
0
LINE
8
BLACK
6
CONTINUOUS
10
5.47981
20
-3.78394
11
5.47923
21
-3.78388
0
LINE
8
BLACK
6
CONTINUOUS
10
5.47923
20
-3.78388
11
5.47849
21
-3.78365
0
LINE
8
BLACK
6
CONTINUOUS
10
5.47849
20
-3.78365
11
5.4778
21
-3.78329
0
LINE
8
BLACK
6
CONTINUOUS
10
5.4778
20
-3.78329
11
5.4772
21
-3.7828
0
LINE
8
BLACK
6
CONTINUOUS
10
5.4772
20
-3.7828
11
5.47671
21
-3.7822
0
LINE
8
BLACK
6
CONTINUOUS
10
5.47671
20
-3.7822
11
5.47635
21
-3.78151
0
LINE
8
BLACK
6
CONTINUOUS
10
5.47635
20
-3.78151
11
5.47612
21
-3.78077
0
LINE
8
BLACK
6
CONTINUOUS
10
5.47612
20
-3.78077
11
5.47604
21
-3.78
0
LINE
8
BLACK
6
CONTINUOUS
10
5.47604
20
-3.78
11
5.47606
21
-3.77981
0
LINE
8
BLACK
6
CONTINUOUS
10
5.47606
20
-3.77981
11
5.47606
21
-3.05019
0
LINE
8
BLACK
6
CONTINUOUS
10
5.47606
20
-3.05019
11
5.47604
21
-3.05
0
LINE
8
BLACK
6
CONTINUOUS
10
5.47604
20
-3.05
11
5.47612
21
-3.04923
0
LINE
8
BLACK
6
CONTINUOUS
10
5.47612
20
-3.04923
11
5.47635
21
-3.04849
0
LINE
8
BLACK
6
CONTINUOUS
10
5.47635
20
-3.04849
11
5.47671
21
-3.0478
0
LINE
8
BLACK
6
CONTINUOUS
10
5.47671
20
-3.0478
11
5.4772
21
-3.0472
0
LINE
8
BLACK
6
CONTINUOUS
10
5.4772
20
-3.0472
11
5.4778
21
-3.04671
0
LINE
8
BLACK
6
CONTINUOUS
10
5.4778
20
-3.04671
11
5.47849
21
-3.04635
0
LINE
8
BLACK
6
CONTINUOUS
10
5.47849
20
-3.04635
11
5.47923
21
-3.04612
0
LINE
8
BLACK
6
CONTINUOUS
10
5.47923
20
-3.04612
11
5.47981
21
-3.04606
0
LINE
8
BLACK
6
CONTINUOUS
10
5.47981
20
-3.04606
11
5.48
21
-3.04604
0
LINE
8
BLACK
6
CONTINUOUS
10
5.48
20
-3.04604
11
5.48019
21
-3.04606
0
LINE
8
BLACK
6
CONTINUOUS
10
5.48019
20
-3.04606
11
5.85606
21
-3.04606
0
LINE
8
BLACK
6
CONTINUOUS
10
5.85606
20
-3.04606
11
5.85606
21
-3.03981
  0
ENDSEC
  0
EOF
