  0
SECTION
  2
HEADER
  9
$ANGBASE
  50
0.0
  9
$ANGDIR
  70
1
  9
$MEASUREMENT
  70
1
  0
ENDSEC
  0
SECTION
  2
TABLES
  0
TABLE
  2
LTYPE
  70
4
  0
LTYPE
  5
40F
  2
CONTINUOUS
  70
0
  3
Solid line
  72
65
  73
0
  40
0.0
  0
LTYPE
  5
410
  2
DASHDOT
 70
0
  3
Dash Dot ____ _ ____ _
 72
65
 73
4
 40
2.0
 49
1.25
 49
-0.25
 49
0.25
 49
-0.25
  0
LTYPE
  5
411
  2
DASHED
 70
0
  3
Dashed __ __ __ __ __
 72
65
 73
2
 40
0.75
 49
0.5
 49
-0.25
  0
LTYPE
  5
43B
  2
DOTTED
 70
0
  3
Dotted .  .  .  .
 72
65
 73
2
 40
0.2
 49
0.0
 49
-0.2
  0
ENDTAB
  0
TABLE
  2
STYLE
  70
4
  0
STYLE
  2
KICAD
  70
0
  40
0
  41
1
  42
1
  50
0
  71
0
  3
isocp.shx
  0
STYLE
  2
KICADB
  70
0
  40
0
  41
1
  42
1
  50
0
  71
0
  3
isocp.shx
  0
STYLE
  2
KICADI
  70
0
  40
0
  41
1
  42
1
  50
15
  71
0
  3
isocp.shx
  0
STYLE
  2
KICADBI
  70
0
  40
0
  41
1
  42
1
  50
15
  71
0
  3
isocp.shx
  0
ENDTAB
  0
TABLE
  2
LAYER
  70
1
  0
LAYER
  2
BLACK
  70
0
  62
7
  6
CONTINUOUS
  0
ENDTAB
  0
ENDSEC
  0
SECTION
  2
ENTITIES
0
LINE
8
BLACK
6
CONTINUOUS
10
60.0569
20
-59.6181
11
60.0569
21
-45.77
0
LINE
8
BLACK
6
CONTINUOUS
10
47.7125
20
-59.6181
11
33.8619
21
-59.6181
0
LINE
8
BLACK
6
CONTINUOUS
10
136.257
20
-45.77
11
150.108
21
-45.77
0
LINE
8
BLACK
6
CONTINUOUS
10
150.108
20
-59.6181
11
136.257
21
-59.6181
0
LINE
8
BLACK
6
CONTINUOUS
10
117.207
20
-45.77
11
131.058
21
-45.77
0
LINE
8
BLACK
6
CONTINUOUS
10
21.52
20
-59.6181
11
7.6694
21
-59.6181
0
LINE
8
BLACK
6
CONTINUOUS
10
88.195
20
-26.72
11
88.195
21
-40.5681
0
LINE
8
BLACK
6
CONTINUOUS
10
126.295
20
-26.72
11
126.295
21
-40.5681
0
LINE
8
BLACK
6
CONTINUOUS
10
73.9075
20
-45.77
11
73.9075
21
-59.6181
0
LINE
8
BLACK
6
CONTINUOUS
10
7.6694
20
-59.6181
11
7.6694
21
-45.77
0
LINE
8
BLACK
6
CONTINUOUS
10
21.52
20
-45.77
11
21.52
21
-59.6181
0
LINE
8
BLACK
6
CONTINUOUS
10
55.2944
20
-26.72
11
69.145
21
-26.72
0
LINE
8
BLACK
6
CONTINUOUS
10
21.52
20
-78.6681
11
7.6694
21
-78.6681
0
LINE
8
BLACK
6
CONTINUOUS
10
21.52
20
-64.82
11
21.52
21
-78.6681
0
LINE
8
BLACK
6
CONTINUOUS
10
117.207
20
-59.6181
11
117.207
21
-45.77
0
LINE
8
BLACK
6
CONTINUOUS
10
55.2944
20
-40.5681
11
55.2944
21
-26.72
0
LINE
8
BLACK
6
CONTINUOUS
10
79.1069
20
-45.77
11
92.9575
21
-45.77
0
LINE
8
BLACK
6
CONTINUOUS
10
60.0569
20
-45.77
11
73.9075
21
-45.77
0
LINE
8
BLACK
6
CONTINUOUS
10
33.8619
20
-45.77
11
47.7125
21
-45.77
0
LINE
8
BLACK
6
CONTINUOUS
10
112.444
20
-40.5681
11
112.444
21
-26.72
0
LINE
8
BLACK
6
CONTINUOUS
10
107.245
20
-26.72
11
107.245
21
-40.5681
0
LINE
8
BLACK
6
CONTINUOUS
10
74.3444
20
-26.72
11
88.195
21
-26.72
0
LINE
8
BLACK
6
CONTINUOUS
10
98.1569
20
-59.6181
11
98.1569
21
-45.77
0
LINE
8
BLACK
6
CONTINUOUS
10
69.145
20
-26.72
11
69.145
21
-40.5681
0
LINE
8
BLACK
6
CONTINUOUS
10
131.494
20
-26.72
11
145.345
21
-26.72
0
LINE
8
BLACK
6
CONTINUOUS
10
74.3444
20
-40.5681
11
74.3444
21
-26.72
0
LINE
8
BLACK
6
CONTINUOUS
10
7.6694
20
-45.77
11
21.52
21
-45.77
0
LINE
8
BLACK
6
CONTINUOUS
10
136.257
20
-59.6181
11
136.257
21
-45.77
0
LINE
8
BLACK
6
CONTINUOUS
10
112.008
20
-45.77
11
112.008
21
-59.6181
0
LINE
8
BLACK
6
CONTINUOUS
10
107.245
20
-40.5681
11
93.3944
21
-40.5681
0
LINE
8
BLACK
6
CONTINUOUS
10
112.444
20
-26.72
11
126.295
21
-26.72
0
LINE
8
BLACK
6
CONTINUOUS
10
7.6694
20
-40.5681
11
7.6694
21
-26.72
0
LINE
8
BLACK
6
CONTINUOUS
10
92.9575
20
-59.6181
11
79.1069
21
-59.6181
0
LINE
8
BLACK
6
CONTINUOUS
10
112.008
20
-59.6181
11
98.1569
21
-59.6181
0
LINE
8
BLACK
6
CONTINUOUS
10
145.345
20
-40.5681
11
131.494
21
-40.5681
0
LINE
8
BLACK
6
CONTINUOUS
10
7.6694
20
-26.72
11
21.52
21
-26.72
0
LINE
8
BLACK
6
CONTINUOUS
10
31.4819
20
-26.72
11
45.3325
21
-26.72
0
LINE
8
BLACK
6
CONTINUOUS
10
47.7125
20
-45.77
11
47.7125
21
-59.6181
0
LINE
8
BLACK
6
CONTINUOUS
10
33.8619
20
-59.6181
11
33.8619
21
-45.77
0
LINE
8
BLACK
6
CONTINUOUS
10
21.52
20
-26.72
11
21.52
21
-40.5681
0
LINE
8
BLACK
6
CONTINUOUS
10
93.3944
20
-26.72
11
107.245
21
-26.72
0
LINE
8
BLACK
6
CONTINUOUS
10
45.3325
20
-40.5681
11
31.4819
21
-40.5681
0
LINE
8
BLACK
6
CONTINUOUS
10
131.058
20
-59.6181
11
117.207
21
-59.6181
0
LINE
8
BLACK
6
CONTINUOUS
10
45.3325
20
-26.72
11
45.3325
21
-40.5681
0
LINE
8
BLACK
6
CONTINUOUS
10
145.345
20
-26.72
11
145.345
21
-40.5681
0
LINE
8
BLACK
6
CONTINUOUS
10
93.3944
20
-40.5681
11
93.3944
21
-26.72
0
LINE
8
BLACK
6
CONTINUOUS
10
21.52
20
-40.5681
11
7.6694
21
-40.5681
0
LINE
8
BLACK
6
CONTINUOUS
10
154.87
20
-7.67
11
154.87
21
-21.5181
0
LINE
8
BLACK
6
CONTINUOUS
10
131.058
20
-45.77
11
131.058
21
-59.6181
0
LINE
8
BLACK
6
CONTINUOUS
10
69.145
20
-40.5681
11
55.2944
21
-40.5681
0
LINE
8
BLACK
6
CONTINUOUS
10
79.1069
20
-59.6181
11
79.1069
21
-45.77
0
LINE
8
BLACK
6
CONTINUOUS
10
131.494
20
-40.5681
11
131.494
21
-26.72
0
LINE
8
BLACK
6
CONTINUOUS
10
135.82
20
-21.5181
11
121.969
21
-21.5181
0
LINE
8
BLACK
6
CONTINUOUS
10
126.295
20
-40.5681
11
112.444
21
-40.5681
0
LINE
8
BLACK
6
CONTINUOUS
10
88.195
20
-40.5681
11
74.3444
21
-40.5681
0
LINE
8
BLACK
6
CONTINUOUS
10
31.4819
20
-40.5681
11
31.4819
21
-26.72
0
LINE
8
BLACK
6
CONTINUOUS
10
83.8694
20
-21.5181
11
83.8694
21
-7.67
0
LINE
8
BLACK
6
CONTINUOUS
10
97.72
20
-21.5181
11
83.8694
21
-21.5181
0
LINE
8
BLACK
6
CONTINUOUS
10
135.82
20
-7.67
11
135.82
21
-21.5181
0
LINE
8
BLACK
6
CONTINUOUS
10
101.901
20
-97.4895
11
103.626
21
-97.4895
0
LINE
8
BLACK
6
CONTINUOUS
10
59.62
20
-21.5181
11
45.7694
21
-21.5181
0
LINE
8
BLACK
6
CONTINUOUS
10
78.67
20
-7.67
11
78.67
21
-21.5181
0
LINE
8
BLACK
6
CONTINUOUS
10
21.52
20
-21.5181
11
7.6694
21
-21.5181
0
LINE
8
BLACK
6
CONTINUOUS
10
26.7194
20
-7.67
11
40.57
21
-7.67
0
LINE
8
BLACK
6
CONTINUOUS
10
121.969
20
-21.5181
11
121.969
21
-7.67
0
LINE
8
BLACK
6
CONTINUOUS
10
97.0266
20
-91.2182
11
97.0266
21
-97.4895
0
LINE
8
BLACK
6
CONTINUOUS
10
103.626
20
-93.0191
11
105.302
21
-93.0191
0
LINE
8
BLACK
6
CONTINUOUS
10
120.826
20
-85.3381
11
120.826
21
-88.569
0
LINE
8
BLACK
6
CONTINUOUS
10
45.7694
20
-7.67
11
59.62
21
-7.67
0
LINE
8
BLACK
6
CONTINUOUS
10
59.62
20
-7.67
11
59.62
21
-21.5181
0
LINE
8
BLACK
6
CONTINUOUS
10
116.77
20
-7.67
11
116.77
21
-21.5181
0
LINE
8
BLACK
6
CONTINUOUS
10
102.919
20
-7.67
11
116.77
21
-7.67
0
LINE
8
BLACK
6
CONTINUOUS
10
40.57
20
-21.5181
11
26.7194
21
-21.5181
0
LINE
8
BLACK
6
CONTINUOUS
10
141.019
20
-21.5181
11
141.019
21
-7.67
0
LINE
8
BLACK
6
CONTINUOUS
10
116.77
20
-21.5181
11
102.919
21
-21.5181
0
LINE
8
BLACK
6
CONTINUOUS
10
45.7694
20
-21.5181
11
45.7694
21
-7.67
0
LINE
8
BLACK
6
CONTINUOUS
10
78.67
20
-21.5181
11
64.8194
21
-21.5181
0
LINE
8
BLACK
6
CONTINUOUS
10
102.919
20
-21.5181
11
102.919
21
-7.67
0
LINE
8
BLACK
6
CONTINUOUS
10
7.6694
20
-21.5181
11
7.6694
21
-7.67
0
LINE
8
BLACK
6
CONTINUOUS
10
64.8194
20
-7.67
11
78.67
21
-7.67
0
LINE
8
BLACK
6
CONTINUOUS
10
97.72
20
-7.67
11
97.72
21
-21.5181
0
LINE
8
BLACK
6
CONTINUOUS
10
154.87
20
-21.5181
11
141.019
21
-21.5181
0
LINE
8
BLACK
6
CONTINUOUS
10
141.019
20
-7.67
11
154.87
21
-7.67
0
LINE
8
BLACK
6
CONTINUOUS
10
121.969
20
-7.67
11
135.82
21
-7.67
0
LINE
8
BLACK
6
CONTINUOUS
10
83.8694
20
-7.67
11
97.72
21
-7.67
0
LINE
8
BLACK
6
CONTINUOUS
10
40.57
20
-7.67
11
40.57
21
-21.5181
0
LINE
8
BLACK
6
CONTINUOUS
10
21.52
20
-7.67
11
21.52
21
-21.5181
0
LINE
8
BLACK
6
CONTINUOUS
10
26.7194
20
-21.5181
11
26.7194
21
-7.67
0
LINE
8
BLACK
6
CONTINUOUS
10
64.8194
20
-21.5181
11
64.8194
21
-7.67
0
LINE
8
BLACK
6
CONTINUOUS
10
7.6694
20
-7.67
11
21.52
21
-7.67
0
LINE
8
BLACK
6
CONTINUOUS
10
120.826
20
-93.0191
11
120.826
21
-97.4895
0
LINE
8
BLACK
6
CONTINUOUS
10
122.551
20
-85.3381
11
120.826
21
-85.3381
0
LINE
8
BLACK
6
CONTINUOUS
10
128.251
20
-88.569
11
127.425
21
-88.569
0
LINE
8
BLACK
6
CONTINUOUS
10
98.7487
20
-98.4699
11
101.901
21
-98.4699
0
LINE
8
BLACK
6
CONTINUOUS
10
125.701
20
-97.4895
11
127.425
21
-97.4895
0
LINE
8
BLACK
6
CONTINUOUS
10
127.425
20
-91.2182
11
128.251
21
-91.2182
0
LINE
8
BLACK
6
CONTINUOUS
10
96.2011
20
-88.569
11
96.2011
21
-91.2182
0
LINE
8
BLACK
6
CONTINUOUS
10
98.7487
20
-97.4895
11
98.7487
21
-98.4699
0
LINE
8
BLACK
6
CONTINUOUS
10
101.901
20
-98.4699
11
101.901
21
-97.4895
0
LINE
8
BLACK
6
CONTINUOUS
10
105.302
20
-88.569
11
103.626
21
-88.569
0
LINE
8
BLACK
6
CONTINUOUS
10
125.701
20
-85.3381
11
125.701
21
-84.4186
0
LINE
8
BLACK
6
CONTINUOUS
10
98.7487
20
-85.3381
11
97.0266
21
-85.3381
0
LINE
8
BLACK
6
CONTINUOUS
10
122.551
20
-98.4699
11
125.701
21
-98.4699
0
LINE
8
BLACK
6
CONTINUOUS
10
119.15
20
-93.0191
11
120.826
21
-93.0191
0
LINE
8
BLACK
6
CONTINUOUS
10
119.15
20
-97.7181
11
119.15
21
-93.0191
0
LINE
8
BLACK
6
CONTINUOUS
10
103.626
20
-97.4895
11
103.626
21
-93.0191
0
LINE
8
BLACK
6
CONTINUOUS
10
98.7487
20
-84.4186
11
98.7487
21
-85.3381
0
LINE
8
BLACK
6
CONTINUOUS
10
122.551
20
-97.4895
11
122.551
21
-98.4699
0
LINE
8
BLACK
6
CONTINUOUS
10
105.302
20
-97.7181
11
119.15
21
-97.7181
0
LINE
8
BLACK
6
CONTINUOUS
10
35.8075
20
-83.87
11
35.8075
21
-97.7181
0
LINE
8
BLACK
6
CONTINUOUS
10
52.475
20
-78.6681
11
52.475
21
-73.9691
0
LINE
8
BLACK
6
CONTINUOUS
10
36.9505
20
-78.4395
11
36.9505
21
-73.9691
0
LINE
8
BLACK
6
CONTINUOUS
10
119.15
20
-88.569
11
119.15
21
-83.87
0
LINE
8
BLACK
6
CONTINUOUS
10
32.0737
20
-79.4199
11
35.2259
21
-79.4199
0
LINE
8
BLACK
6
CONTINUOUS
10
97.0266
20
-88.569
11
96.2011
21
-88.569
0
LINE
8
BLACK
6
CONTINUOUS
10
96.2011
20
-91.2182
11
97.0266
21
-91.2182
0
LINE
8
BLACK
6
CONTINUOUS
10
38.6269
20
-64.82
11
38.6269
21
-69.519
0
LINE
8
BLACK
6
CONTINUOUS
10
105.302
20
-83.87
11
105.302
21
-88.569
0
LINE
8
BLACK
6
CONTINUOUS
10
38.6269
20
-78.6681
11
52.475
21
-78.6681
0
LINE
8
BLACK
6
CONTINUOUS
10
125.701
20
-98.4699
11
125.701
21
-97.4895
0
LINE
8
BLACK
6
CONTINUOUS
10
120.826
20
-97.4895
11
122.551
21
-97.4895
0
LINE
8
BLACK
6
CONTINUOUS
10
35.2259
20
-78.4395
11
36.9505
21
-78.4395
0
LINE
8
BLACK
6
CONTINUOUS
10
36.9505
20
-69.519
11
36.9505
21
-66.2881
0
LINE
8
BLACK
6
CONTINUOUS
10
97.0266
20
-85.3381
11
97.0266
21
-88.569
0
LINE
8
BLACK
6
CONTINUOUS
10
21.9569
20
-83.87
11
35.8075
21
-83.87
0
LINE
8
BLACK
6
CONTINUOUS
10
52.475
20
-73.9691
11
54.1514
21
-73.9691
0
LINE
8
BLACK
6
CONTINUOUS
10
29.5261
20
-69.519
11
29.5261
21
-72.1682
0
LINE
8
BLACK
6
CONTINUOUS
10
105.302
20
-93.0191
11
105.302
21
-97.7181
0
LINE
8
BLACK
6
CONTINUOUS
10
43.3869
20
-97.7181
11
43.3869
21
-83.87
0
LINE
8
BLACK
6
CONTINUOUS
10
29.5261
20
-72.1682
11
30.3516
21
-72.1682
0
LINE
8
BLACK
6
CONTINUOUS
10
127.425
20
-88.569
11
127.425
21
-85.3381
0
LINE
8
BLACK
6
CONTINUOUS
10
43.3869
20
-83.87
11
57.2375
21
-83.87
0
LINE
8
BLACK
6
CONTINUOUS
10
81.05
20
-83.87
11
81.05
21
-97.7181
0
LINE
8
BLACK
6
CONTINUOUS
10
120.826
20
-88.569
11
119.15
21
-88.569
0
LINE
8
BLACK
6
CONTINUOUS
10
127.425
20
-85.3381
11
125.701
21
-85.3381
0
LINE
8
BLACK
6
CONTINUOUS
10
30.3516
20
-78.4395
11
32.0737
21
-78.4395
0
LINE
8
BLACK
6
CONTINUOUS
10
122.551
20
-84.4186
11
122.551
21
-85.3381
0
LINE
8
BLACK
6
CONTINUOUS
10
101.901
20
-85.3381
11
101.901
21
-84.4186
0
LINE
8
BLACK
6
CONTINUOUS
10
30.3516
20
-66.2881
11
30.3516
21
-69.519
0
LINE
8
BLACK
6
CONTINUOUS
10
32.0737
20
-66.2881
11
30.3516
21
-66.2881
0
LINE
8
BLACK
6
CONTINUOUS
10
103.626
20
-85.3381
11
101.901
21
-85.3381
0
LINE
8
BLACK
6
CONTINUOUS
10
97.0266
20
-97.4895
11
98.7487
21
-97.4895
0
LINE
8
BLACK
6
CONTINUOUS
10
35.2259
20
-79.4199
11
35.2259
21
-78.4395
0
LINE
8
BLACK
6
CONTINUOUS
10
119.15
20
-83.87
11
105.302
21
-83.87
0
LINE
8
BLACK
6
CONTINUOUS
10
101.901
20
-84.4186
11
98.7487
21
-84.4186
0
LINE
8
BLACK
6
CONTINUOUS
10
30.3516
20
-72.1682
11
30.3516
21
-78.4395
0
LINE
8
BLACK
6
CONTINUOUS
10
103.626
20
-88.569
11
103.626
21
-85.3381
0
LINE
8
BLACK
6
CONTINUOUS
10
125.701
20
-84.4186
11
122.551
21
-84.4186
0
LINE
8
BLACK
6
CONTINUOUS
10
54.1514
20
-73.9691
11
54.1514
21
-78.4395
0
LINE
8
BLACK
6
CONTINUOUS
10
54.1514
20
-78.4395
11
55.8761
21
-78.4395
0
LINE
8
BLACK
6
CONTINUOUS
10
128.251
20
-91.2182
11
128.251
21
-88.569
0
LINE
8
BLACK
6
CONTINUOUS
10
127.425
20
-97.4895
11
127.425
21
-91.2182
0
LINE
8
BLACK
6
CONTINUOUS
10
38.6269
20
-73.9691
11
38.6269
21
-78.6681
0
LINE
8
BLACK
6
CONTINUOUS
10
132.071
20
-97.086
11
132.006
21
-97.0466
0
LINE
8
BLACK
6
CONTINUOUS
10
132.006
20
-97.0466
11
131.945
21
-97.0065
0
LINE
8
BLACK
6
CONTINUOUS
10
131.945
20
-97.0065
11
131.884
21
-96.9635
0
LINE
8
BLACK
6
CONTINUOUS
10
131.884
20
-96.9635
11
131.821
21
-96.9141
0
LINE
8
BLACK
6
CONTINUOUS
10
131.821
20
-96.9141
11
131.766
21
-96.8681
0
LINE
8
BLACK
6
CONTINUOUS
10
131.766
20
-96.8681
11
131.713
21
-96.8206
0
LINE
8
BLACK
6
CONTINUOUS
10
131.713
20
-96.8206
11
131.662
21
-96.7711
0
LINE
8
BLACK
6
CONTINUOUS
10
131.662
20
-96.7711
11
131.61
21
-96.7165
0
LINE
8
BLACK
6
CONTINUOUS
10
131.61
20
-96.7165
11
131.563
21
-96.6631
0
LINE
8
BLACK
6
CONTINUOUS
10
131.563
20
-96.6631
11
131.517
21
-96.6081
0
LINE
8
BLACK
6
CONTINUOUS
10
131.517
20
-96.6081
11
131.474
21
-96.5511
0
LINE
8
BLACK
6
CONTINUOUS
10
131.474
20
-96.5511
11
131.432
21
-96.4918
0
LINE
8
BLACK
6
CONTINUOUS
10
131.432
20
-96.4918
11
131.392
21
-96.4306
0
LINE
8
BLACK
6
CONTINUOUS
10
131.392
20
-96.4306
11
131.355
21
-96.3676
0
LINE
8
BLACK
6
CONTINUOUS
10
131.355
20
-96.3676
11
131.319
21
-96.3023
0
LINE
8
BLACK
6
CONTINUOUS
10
131.319
20
-96.3023
11
131.285
21
-96.2352
0
LINE
8
BLACK
6
CONTINUOUS
10
131.285
20
-96.2352
11
131.251
21
-96.1596
0
LINE
8
BLACK
6
CONTINUOUS
10
131.251
20
-96.1596
11
131.222
21
-96.088
0
LINE
8
BLACK
6
CONTINUOUS
10
131.222
20
-96.088
11
131.196
21
-96.0134
0
LINE
8
BLACK
6
CONTINUOUS
10
131.196
20
-96.0134
11
131.172
21
-95.9357
0
LINE
8
BLACK
6
CONTINUOUS
10
131.172
20
-95.9357
11
131.151
21
-95.855
0
LINE
8
BLACK
6
CONTINUOUS
10
131.151
20
-95.855
11
131.132
21
-95.771
0
LINE
8
BLACK
6
CONTINUOUS
10
131.132
20
-95.771
11
131.117
21
-95.6844
0
LINE
8
BLACK
6
CONTINUOUS
10
131.117
20
-95.6844
11
131.106
21
-95.5946
0
LINE
8
BLACK
6
CONTINUOUS
10
131.106
20
-95.5946
11
131.099
21
-95.5004
0
LINE
8
BLACK
6
CONTINUOUS
10
131.099
20
-95.5004
11
131.096
21
-95.4024
0
LINE
8
BLACK
6
CONTINUOUS
10
131.096
20
-95.4024
11
131.096
21
-95.3973
0
LINE
8
BLACK
6
CONTINUOUS
10
132.071
20
-93.7085
11
132.136
21
-93.6728
0
LINE
8
BLACK
6
CONTINUOUS
10
132.136
20
-93.6728
11
132.203
21
-93.6391
0
LINE
8
BLACK
6
CONTINUOUS
10
132.203
20
-93.6391
11
132.273
21
-93.6071
0
LINE
8
BLACK
6
CONTINUOUS
10
132.273
20
-93.6071
11
132.347
21
-93.5768
0
LINE
8
BLACK
6
CONTINUOUS
10
132.347
20
-93.5768
11
132.422
21
-93.5496
0
LINE
8
BLACK
6
CONTINUOUS
10
132.422
20
-93.5496
11
132.499
21
-93.5257
0
LINE
8
BLACK
6
CONTINUOUS
10
132.499
20
-93.5257
11
132.579
21
-93.504
0
LINE
8
BLACK
6
CONTINUOUS
10
132.579
20
-93.504
11
132.662
21
-93.4855
0
LINE
8
BLACK
6
CONTINUOUS
10
132.662
20
-93.4855
11
132.752
21
-93.4696
0
LINE
8
BLACK
6
CONTINUOUS
10
132.752
20
-93.4696
11
132.842
21
-93.458
0
LINE
8
BLACK
6
CONTINUOUS
10
132.842
20
-93.458
11
132.937
21
-93.4503
0
LINE
8
BLACK
6
CONTINUOUS
10
132.937
20
-93.4503
11
133.037
21
-93.4473
0
LINE
8
BLACK
6
CONTINUOUS
10
133.037
20
-93.4473
11
133.136
21
-93.4493
0
LINE
8
BLACK
6
CONTINUOUS
10
133.136
20
-93.4493
11
133.23
21
-93.4559
0
LINE
8
BLACK
6
CONTINUOUS
10
133.23
20
-93.4559
11
133.325
21
-93.4673
0
LINE
8
BLACK
6
CONTINUOUS
10
133.325
20
-93.4673
11
133.412
21
-93.4819
0
LINE
8
BLACK
6
CONTINUOUS
10
133.412
20
-93.4819
11
133.496
21
-93.4998
0
LINE
8
BLACK
6
CONTINUOUS
10
133.496
20
-93.4998
11
133.576
21
-93.5207
0
LINE
8
BLACK
6
CONTINUOUS
10
133.576
20
-93.5207
11
133.656
21
-93.5452
0
LINE
8
BLACK
6
CONTINUOUS
10
133.656
20
-93.5452
11
133.73
21
-93.5713
0
LINE
8
BLACK
6
CONTINUOUS
10
133.73
20
-93.5713
11
133.803
21
-93.6
0
LINE
8
BLACK
6
CONTINUOUS
10
133.803
20
-93.6
11
133.873
21
-93.6311
0
LINE
8
BLACK
6
CONTINUOUS
10
133.873
20
-93.6311
11
133.94
21
-93.6644
0
LINE
8
BLACK
6
CONTINUOUS
10
133.94
20
-93.6644
11
134.012
21
-93.7031
0
LINE
8
BLACK
6
CONTINUOUS
10
134.012
20
-93.7031
11
134.021
21
-93.7085
0
LINE
8
BLACK
6
CONTINUOUS
10
134.996
20
-95.3973
11
134.994
21
-95.4954
0
LINE
8
BLACK
6
CONTINUOUS
10
134.994
20
-95.4954
11
134.986
21
-95.5926
0
LINE
8
BLACK
6
CONTINUOUS
10
134.986
20
-95.5926
11
134.975
21
-95.6824
0
LINE
8
BLACK
6
CONTINUOUS
10
134.975
20
-95.6824
11
134.96
21
-95.7712
0
LINE
8
BLACK
6
CONTINUOUS
10
134.96
20
-95.7712
11
134.942
21
-95.8545
0
LINE
8
BLACK
6
CONTINUOUS
10
134.942
20
-95.8545
11
134.921
21
-95.9338
0
LINE
8
BLACK
6
CONTINUOUS
10
134.921
20
-95.9338
11
134.897
21
-96.0111
0
LINE
8
BLACK
6
CONTINUOUS
10
134.897
20
-96.0111
11
134.871
21
-96.0855
0
LINE
8
BLACK
6
CONTINUOUS
10
134.871
20
-96.0855
11
134.842
21
-96.1578
0
LINE
8
BLACK
6
CONTINUOUS
10
134.842
20
-96.1578
11
134.809
21
-96.2316
0
LINE
8
BLACK
6
CONTINUOUS
10
134.809
20
-96.2316
11
134.775
21
-96.2988
0
LINE
8
BLACK
6
CONTINUOUS
10
134.775
20
-96.2988
11
134.739
21
-96.3642
0
LINE
8
BLACK
6
CONTINUOUS
10
134.739
20
-96.3642
11
134.7
21
-96.43
0
LINE
8
BLACK
6
CONTINUOUS
10
134.7
20
-96.43
11
134.66
21
-96.4918
0
LINE
8
BLACK
6
CONTINUOUS
10
134.66
20
-96.4918
11
134.618
21
-96.5515
0
LINE
8
BLACK
6
CONTINUOUS
10
134.618
20
-96.5515
11
134.573
21
-96.6096
0
LINE
8
BLACK
6
CONTINUOUS
10
134.573
20
-96.6096
11
134.528
21
-96.6646
0
LINE
8
BLACK
6
CONTINUOUS
10
134.528
20
-96.6646
11
134.481
21
-96.718
0
LINE
8
BLACK
6
CONTINUOUS
10
134.481
20
-96.718
11
134.43
21
-96.7711
0
LINE
8
BLACK
6
CONTINUOUS
10
134.43
20
-96.7711
11
134.379
21
-96.821
0
LINE
8
BLACK
6
CONTINUOUS
10
134.379
20
-96.821
11
134.325
21
-96.8691
0
LINE
8
BLACK
6
CONTINUOUS
10
134.325
20
-96.8691
11
134.27
21
-96.9153
0
LINE
8
BLACK
6
CONTINUOUS
10
134.27
20
-96.9153
11
134.213
21
-96.9593
0
LINE
8
BLACK
6
CONTINUOUS
10
134.213
20
-96.9593
11
134.154
21
-97.0017
0
LINE
8
BLACK
6
CONTINUOUS
10
134.154
20
-97.0017
11
134.092
21
-97.0433
0
LINE
8
BLACK
6
CONTINUOUS
10
134.092
20
-97.0433
11
134.026
21
-97.0832
0
LINE
8
BLACK
6
CONTINUOUS
10
134.026
20
-97.0832
11
134.021
21
-97.086
0
LINE
8
BLACK
6
CONTINUOUS
10
131.096
20
-95.3973
11
131.099
21
-95.2987
0
LINE
8
BLACK
6
CONTINUOUS
10
131.099
20
-95.2987
11
131.106
21
-95.2019
0
LINE
8
BLACK
6
CONTINUOUS
10
131.106
20
-95.2019
11
131.117
21
-95.1121
0
LINE
8
BLACK
6
CONTINUOUS
10
131.117
20
-95.1121
11
131.132
21
-95.0234
0
LINE
8
BLACK
6
CONTINUOUS
10
131.132
20
-95.0234
11
131.151
21
-94.9376
0
LINE
8
BLACK
6
CONTINUOUS
10
131.151
20
-94.9376
11
131.172
21
-94.8569
0
LINE
8
BLACK
6
CONTINUOUS
10
131.172
20
-94.8569
11
131.197
21
-94.7774
0
LINE
8
BLACK
6
CONTINUOUS
10
131.197
20
-94.7774
11
131.224
21
-94.7028
0
LINE
8
BLACK
6
CONTINUOUS
10
131.224
20
-94.7028
11
131.253
21
-94.6313
0
LINE
8
BLACK
6
CONTINUOUS
10
131.253
20
-94.6313
11
131.284
21
-94.5611
0
LINE
8
BLACK
6
CONTINUOUS
10
131.284
20
-94.5611
11
131.318
21
-94.494
0
LINE
8
BLACK
6
CONTINUOUS
10
131.318
20
-94.494
11
131.354
21
-94.4283
0
LINE
8
BLACK
6
CONTINUOUS
10
131.354
20
-94.4283
11
131.393
21
-94.3623
0
LINE
8
BLACK
6
CONTINUOUS
10
131.393
20
-94.3623
11
131.433
21
-94.3017
0
LINE
8
BLACK
6
CONTINUOUS
10
131.433
20
-94.3017
11
131.474
21
-94.2431
0
LINE
8
BLACK
6
CONTINUOUS
10
131.474
20
-94.2431
11
131.519
21
-94.185
0
LINE
8
BLACK
6
CONTINUOUS
10
131.519
20
-94.185
11
131.564
21
-94.13
0
LINE
8
BLACK
6
CONTINUOUS
10
131.564
20
-94.13
11
131.611
21
-94.0766
0
LINE
8
BLACK
6
CONTINUOUS
10
131.611
20
-94.0766
11
131.66
21
-94.0253
0
LINE
8
BLACK
6
CONTINUOUS
10
131.66
20
-94.0253
11
131.712
21
-93.9753
0
LINE
8
BLACK
6
CONTINUOUS
10
131.712
20
-93.9753
11
131.767
21
-93.9255
0
LINE
8
BLACK
6
CONTINUOUS
10
131.767
20
-93.9255
11
131.822
21
-93.8792
0
LINE
8
BLACK
6
CONTINUOUS
10
131.822
20
-93.8792
11
131.879
21
-93.8352
0
LINE
8
BLACK
6
CONTINUOUS
10
131.879
20
-93.8352
11
131.938
21
-93.7926
0
LINE
8
BLACK
6
CONTINUOUS
10
131.938
20
-93.7926
11
131.999
21
-93.7522
0
LINE
8
BLACK
6
CONTINUOUS
10
131.999
20
-93.7522
11
132.061
21
-93.7142
0
LINE
8
BLACK
6
CONTINUOUS
10
132.061
20
-93.7142
11
132.071
21
-93.7085
0
LINE
8
BLACK
6
CONTINUOUS
10
94.8461
20
-42.4108
11
94.9113
21
-42.3751
0
LINE
8
BLACK
6
CONTINUOUS
10
94.9113
20
-42.3751
11
94.9799
21
-42.3417
0
LINE
8
BLACK
6
CONTINUOUS
10
94.9799
20
-42.3417
11
95.0512
21
-42.3111
0
LINE
8
BLACK
6
CONTINUOUS
10
95.0512
20
-42.3111
11
95.1266
21
-42.2831
0
LINE
8
BLACK
6
CONTINUOUS
10
95.1266
20
-42.2831
11
95.2029
21
-42.259
0
LINE
8
BLACK
6
CONTINUOUS
10
95.2029
20
-42.259
11
95.2863
21
-42.2374
0
LINE
8
BLACK
6
CONTINUOUS
10
95.2863
20
-42.2374
11
95.3706
21
-42.2203
0
LINE
8
BLACK
6
CONTINUOUS
10
95.3706
20
-42.2203
11
95.4661
21
-42.2066
0
LINE
8
BLACK
6
CONTINUOUS
10
95.4661
20
-42.2066
11
95.5595
21
-42.1988
0
LINE
8
BLACK
6
CONTINUOUS
10
95.5595
20
-42.1988
11
95.6582
21
-42.1965
0
LINE
8
BLACK
6
CONTINUOUS
10
95.6582
20
-42.1965
11
95.7618
21
-42.2006
0
LINE
8
BLACK
6
CONTINUOUS
10
95.7618
20
-42.2006
11
95.853
21
-42.2098
0
LINE
8
BLACK
6
CONTINUOUS
10
95.853
20
-42.2098
11
95.9402
21
-42.2237
0
LINE
8
BLACK
6
CONTINUOUS
10
95.9402
20
-42.2237
11
96.0245
21
-42.2418
0
LINE
8
BLACK
6
CONTINUOUS
10
96.0245
20
-42.2418
11
96.1173
21
-42.2673
0
LINE
8
BLACK
6
CONTINUOUS
10
96.1173
20
-42.2673
11
96.1934
21
-42.2929
0
LINE
8
BLACK
6
CONTINUOUS
10
96.1934
20
-42.2929
11
96.2654
21
-42.3211
0
LINE
8
BLACK
6
CONTINUOUS
10
96.2654
20
-42.3211
11
96.3352
21
-42.3524
0
LINE
8
BLACK
6
CONTINUOUS
10
96.3352
20
-42.3524
11
96.4027
21
-42.3866
0
LINE
8
BLACK
6
CONTINUOUS
10
96.4027
20
-42.3866
11
96.4461
21
-42.4108
0
LINE
8
BLACK
6
CONTINUOUS
10
134.021
20
-93.7085
11
134.085
21
-93.7469
0
LINE
8
BLACK
6
CONTINUOUS
10
134.085
20
-93.7469
11
134.146
21
-93.7869
0
LINE
8
BLACK
6
CONTINUOUS
10
134.146
20
-93.7869
11
134.204
21
-93.8286
0
LINE
8
BLACK
6
CONTINUOUS
10
134.204
20
-93.8286
11
134.262
21
-93.873
0
LINE
8
BLACK
6
CONTINUOUS
10
134.262
20
-93.873
11
134.318
21
-93.9189
0
LINE
8
BLACK
6
CONTINUOUS
10
134.318
20
-93.9189
11
134.374
21
-93.9695
0
LINE
8
BLACK
6
CONTINUOUS
10
134.374
20
-93.9695
11
134.426
21
-94.0193
0
LINE
8
BLACK
6
CONTINUOUS
10
134.426
20
-94.0193
11
134.475
21
-94.0704
0
LINE
8
BLACK
6
CONTINUOUS
10
134.475
20
-94.0704
11
134.525
21
-94.1266
0
LINE
8
BLACK
6
CONTINUOUS
10
134.525
20
-94.1266
11
134.571
21
-94.1815
0
LINE
8
BLACK
6
CONTINUOUS
10
134.571
20
-94.1815
11
134.614
21
-94.2383
0
LINE
8
BLACK
6
CONTINUOUS
10
134.614
20
-94.2383
11
134.657
21
-94.2979
0
LINE
8
BLACK
6
CONTINUOUS
10
134.657
20
-94.2979
11
134.697
21
-94.3589
0
LINE
8
BLACK
6
CONTINUOUS
10
134.697
20
-94.3589
11
134.739
21
-94.4295
0
LINE
8
BLACK
6
CONTINUOUS
10
134.739
20
-94.4295
11
134.776
21
-94.4975
0
LINE
8
BLACK
6
CONTINUOUS
10
134.776
20
-94.4975
11
134.81
21
-94.566
0
LINE
8
BLACK
6
CONTINUOUS
10
134.81
20
-94.566
11
134.842
21
-94.6368
0
LINE
8
BLACK
6
CONTINUOUS
10
134.842
20
-94.6368
11
134.871
21
-94.7102
0
LINE
8
BLACK
6
CONTINUOUS
10
134.871
20
-94.7102
11
134.897
21
-94.7849
0
LINE
8
BLACK
6
CONTINUOUS
10
134.897
20
-94.7849
11
134.921
21
-94.8622
0
LINE
8
BLACK
6
CONTINUOUS
10
134.921
20
-94.8622
11
134.942
21
-94.9415
0
LINE
8
BLACK
6
CONTINUOUS
10
134.942
20
-94.9415
11
134.961
21
-95.0273
0
LINE
8
BLACK
6
CONTINUOUS
10
134.961
20
-95.0273
11
134.975
21
-95.1141
0
LINE
8
BLACK
6
CONTINUOUS
10
134.975
20
-95.1141
11
134.987
21
-95.21
0
LINE
8
BLACK
6
CONTINUOUS
10
134.987
20
-95.21
11
134.994
21
-95.3047
0
LINE
8
BLACK
6
CONTINUOUS
10
134.994
20
-95.3047
11
134.996
21
-95.3973
0
LINE
8
BLACK
6
CONTINUOUS
10
96.4461
20
-45.1821
11
96.3809
21
-45.2177
0
LINE
8
BLACK
6
CONTINUOUS
10
96.3809
20
-45.2177
11
96.3123
21
-45.2511
0
LINE
8
BLACK
6
CONTINUOUS
10
96.3123
20
-45.2511
11
96.241
21
-45.2817
0
LINE
8
BLACK
6
CONTINUOUS
10
96.241
20
-45.2817
11
96.1671
21
-45.3092
0
LINE
8
BLACK
6
CONTINUOUS
10
96.1671
20
-45.3092
11
96.0844
21
-45.3352
0
LINE
8
BLACK
6
CONTINUOUS
10
96.0844
20
-45.3352
11
96.0039
21
-45.3559
0
LINE
8
BLACK
6
CONTINUOUS
10
96.0039
20
-45.3559
11
95.9192
21
-45.373
0
LINE
8
BLACK
6
CONTINUOUS
10
95.9192
20
-45.373
11
95.8315
21
-45.3856
0
LINE
8
BLACK
6
CONTINUOUS
10
95.8315
20
-45.3856
11
95.7391
21
-45.3937
0
LINE
8
BLACK
6
CONTINUOUS
10
95.7391
20
-45.3937
11
95.6404
21
-45.3964
0
LINE
8
BLACK
6
CONTINUOUS
10
95.6404
20
-45.3964
11
95.5418
21
-45.393
0
LINE
8
BLACK
6
CONTINUOUS
10
95.5418
20
-45.393
11
95.4482
21
-45.3841
0
LINE
8
BLACK
6
CONTINUOUS
10
95.4482
20
-45.3841
11
95.3584
21
-45.3704
0
LINE
8
BLACK
6
CONTINUOUS
10
95.3584
20
-45.3704
11
95.2756
21
-45.353
0
LINE
8
BLACK
6
CONTINUOUS
10
95.2756
20
-45.353
11
95.1956
21
-45.3317
0
LINE
8
BLACK
6
CONTINUOUS
10
95.1956
20
-45.3317
11
95.1189
21
-45.3071
0
LINE
8
BLACK
6
CONTINUOUS
10
95.1189
20
-45.3071
11
95.0451
21
-45.2793
0
LINE
8
BLACK
6
CONTINUOUS
10
95.0451
20
-45.2793
11
94.9724
21
-45.2477
0
LINE
8
BLACK
6
CONTINUOUS
10
94.9724
20
-45.2477
11
94.905
21
-45.2144
0
LINE
8
BLACK
6
CONTINUOUS
10
94.905
20
-45.2144
11
94.8461
21
-45.1821
0
LINE
8
BLACK
6
CONTINUOUS
10
94.8461
20
-45.1821
11
94.7816
21
-45.1428
0
LINE
8
BLACK
6
CONTINUOUS
10
94.7816
20
-45.1428
11
94.718
21
-45.0998
0
LINE
8
BLACK
6
CONTINUOUS
10
94.718
20
-45.0998
11
94.6585
21
-45.0553
0
LINE
8
BLACK
6
CONTINUOUS
10
94.6585
20
-45.0553
11
94.6014
21
-45.0083
0
LINE
8
BLACK
6
CONTINUOUS
10
94.6014
20
-45.0083
11
94.5479
21
-44.9601
0
LINE
8
BLACK
6
CONTINUOUS
10
94.5479
20
-44.9601
11
94.4957
21
-44.9085
0
LINE
8
BLACK
6
CONTINUOUS
10
94.4957
20
-44.9085
11
94.4471
21
-44.8559
0
LINE
8
BLACK
6
CONTINUOUS
10
94.4471
20
-44.8559
11
94.4009
21
-44.8011
0
LINE
8
BLACK
6
CONTINUOUS
10
94.4009
20
-44.8011
11
94.3572
21
-44.7444
0
LINE
8
BLACK
6
CONTINUOUS
10
94.3572
20
-44.7444
11
94.3158
21
-44.6854
0
LINE
8
BLACK
6
CONTINUOUS
10
94.3158
20
-44.6854
11
94.2757
21
-44.6222
0
LINE
8
BLACK
6
CONTINUOUS
10
94.2757
20
-44.6222
11
94.2387
21
-44.5576
0
LINE
8
BLACK
6
CONTINUOUS
10
94.2387
20
-44.5576
11
94.2048
21
-44.4913
0
LINE
8
BLACK
6
CONTINUOUS
10
94.2048
20
-44.4913
11
94.1734
21
-44.4219
0
LINE
8
BLACK
6
CONTINUOUS
10
94.1734
20
-44.4219
11
94.1449
21
-44.3499
0
LINE
8
BLACK
6
CONTINUOUS
10
94.1449
20
-44.3499
11
94.119
21
-44.2741
0
LINE
8
BLACK
6
CONTINUOUS
10
94.119
20
-44.2741
11
94.0968
21
-44.1961
0
LINE
8
BLACK
6
CONTINUOUS
10
94.0968
20
-44.1961
11
94.0779
21
-44.1141
0
LINE
8
BLACK
6
CONTINUOUS
10
94.0779
20
-44.1141
11
94.063
21
-44.0283
0
LINE
8
BLACK
6
CONTINUOUS
10
94.063
20
-44.0283
11
94.0524
21
-43.9386
0
LINE
8
BLACK
6
CONTINUOUS
10
94.0524
20
-43.9386
11
94.0468
21
-43.844
0
LINE
8
BLACK
6
CONTINUOUS
10
94.0468
20
-43.844
11
94.0461
21
-43.7964
0
LINE
8
BLACK
6
CONTINUOUS
10
94.0461
20
-43.7964
11
94.0491
21
-43.6989
0
LINE
8
BLACK
6
CONTINUOUS
10
94.0491
20
-43.6989
11
94.0574
21
-43.6066
0
LINE
8
BLACK
6
CONTINUOUS
10
94.0574
20
-43.6066
11
94.0704
21
-43.5186
0
LINE
8
BLACK
6
CONTINUOUS
10
94.0704
20
-43.5186
11
94.0874
21
-43.4352
0
LINE
8
BLACK
6
CONTINUOUS
10
94.0874
20
-43.4352
11
94.1083
21
-43.3546
0
LINE
8
BLACK
6
CONTINUOUS
10
94.1083
20
-43.3546
11
94.1327
21
-43.277
0
LINE
8
BLACK
6
CONTINUOUS
10
94.1327
20
-43.277
11
94.16
21
-43.2036
0
LINE
8
BLACK
6
CONTINUOUS
10
94.16
20
-43.2036
11
94.1904
21
-43.1324
0
LINE
8
BLACK
6
CONTINUOUS
10
94.1904
20
-43.1324
11
94.2236
21
-43.0639
0
LINE
8
BLACK
6
CONTINUOUS
10
94.2236
20
-43.0639
11
94.2593
21
-42.9985
0
LINE
8
BLACK
6
CONTINUOUS
10
94.2593
20
-42.9985
11
94.297
21
-42.9362
0
LINE
8
BLACK
6
CONTINUOUS
10
94.297
20
-42.9362
11
94.3376
21
-42.8757
0
LINE
8
BLACK
6
CONTINUOUS
10
94.3376
20
-42.8757
11
94.3809
21
-42.817
0
LINE
8
BLACK
6
CONTINUOUS
10
94.3809
20
-42.817
11
94.4269
21
-42.7603
0
LINE
8
BLACK
6
CONTINUOUS
10
94.4269
20
-42.7603
11
94.4741
21
-42.7071
0
LINE
8
BLACK
6
CONTINUOUS
10
94.4741
20
-42.7071
11
94.5244
21
-42.6554
0
LINE
8
BLACK
6
CONTINUOUS
10
94.5244
20
-42.6554
11
94.579
21
-42.6042
0
LINE
8
BLACK
6
CONTINUOUS
10
94.579
20
-42.6042
11
94.6332
21
-42.5578
0
LINE
8
BLACK
6
CONTINUOUS
10
94.6332
20
-42.5578
11
94.6895
21
-42.5139
0
LINE
8
BLACK
6
CONTINUOUS
10
94.6895
20
-42.5139
11
94.7549
21
-42.4676
0
LINE
8
BLACK
6
CONTINUOUS
10
94.7549
20
-42.4676
11
94.818
21
-42.4274
0
LINE
8
BLACK
6
CONTINUOUS
10
94.818
20
-42.4274
11
94.8461
21
-42.4108
0
LINE
8
BLACK
6
CONTINUOUS
10
96.4461
20
-42.4108
11
96.5096
21
-42.4494
0
LINE
8
BLACK
6
CONTINUOUS
10
96.5096
20
-42.4494
11
96.5715
21
-42.4911
0
LINE
8
BLACK
6
CONTINUOUS
10
96.5715
20
-42.4911
11
96.6311
21
-42.5355
0
LINE
8
BLACK
6
CONTINUOUS
10
96.6311
20
-42.5355
11
96.6871
21
-42.5813
0
LINE
8
BLACK
6
CONTINUOUS
10
96.6871
20
-42.5813
11
96.7407
21
-42.6294
0
LINE
8
BLACK
6
CONTINUOUS
10
96.7407
20
-42.6294
11
96.7931
21
-42.6808
0
LINE
8
BLACK
6
CONTINUOUS
10
96.7931
20
-42.6808
11
96.8416
21
-42.733
0
LINE
8
BLACK
6
CONTINUOUS
10
96.8416
20
-42.733
11
96.8882
21
-42.7878
0
LINE
8
BLACK
6
CONTINUOUS
10
96.8882
20
-42.7878
11
96.9319
21
-42.8442
0
LINE
8
BLACK
6
CONTINUOUS
10
96.9319
20
-42.8442
11
96.9748
21
-42.9051
0
LINE
8
BLACK
6
CONTINUOUS
10
96.9748
20
-42.9051
11
97.0139
21
-42.9663
0
LINE
8
BLACK
6
CONTINUOUS
10
97.0139
20
-42.9663
11
97.0527
21
-43.0338
0
LINE
8
BLACK
6
CONTINUOUS
10
97.0527
20
-43.0338
11
97.0867
21
-43.1001
0
LINE
8
BLACK
6
CONTINUOUS
10
97.0867
20
-43.1001
11
97.118
21
-43.1691
0
LINE
8
BLACK
6
CONTINUOUS
10
97.118
20
-43.1691
11
97.1474
21
-43.2429
0
LINE
8
BLACK
6
CONTINUOUS
10
97.1474
20
-43.2429
11
97.1736
21
-43.3203
0
LINE
8
BLACK
6
CONTINUOUS
10
97.1736
20
-43.3203
11
97.1963
21
-43.4003
0
LINE
8
BLACK
6
CONTINUOUS
10
97.1963
20
-43.4003
11
97.2168
21
-43.4912
0
LINE
8
BLACK
6
CONTINUOUS
10
97.2168
20
-43.4912
11
97.231
21
-43.5771
0
LINE
8
BLACK
6
CONTINUOUS
10
97.231
20
-43.5771
11
97.2409
21
-43.6677
0
LINE
8
BLACK
6
CONTINUOUS
10
97.2409
20
-43.6677
11
97.2459
21
-43.7722
0
LINE
8
BLACK
6
CONTINUOUS
10
97.2459
20
-43.7722
11
97.2461
21
-43.7964
0
LINE
8
BLACK
6
CONTINUOUS
10
97.2461
20
-43.7964
11
97.2431
21
-43.8941
0
LINE
8
BLACK
6
CONTINUOUS
10
97.2431
20
-43.8941
11
97.2348
21
-43.9863
0
LINE
8
BLACK
6
CONTINUOUS
10
97.2348
20
-43.9863
11
97.2218
21
-44.0744
0
LINE
8
BLACK
6
CONTINUOUS
10
97.2218
20
-44.0744
11
97.2048
21
-44.1579
0
LINE
8
BLACK
6
CONTINUOUS
10
97.2048
20
-44.1579
11
97.1835
21
-44.2398
0
LINE
8
BLACK
6
CONTINUOUS
10
97.1835
20
-44.2398
11
97.1595
21
-44.3158
0
LINE
8
BLACK
6
CONTINUOUS
10
97.1595
20
-44.3158
11
97.1322
21
-44.3893
0
LINE
8
BLACK
6
CONTINUOUS
10
97.1322
20
-44.3893
11
97.1018
21
-44.4605
0
LINE
8
BLACK
6
CONTINUOUS
10
97.1018
20
-44.4605
11
97.0686
21
-44.5289
0
LINE
8
BLACK
6
CONTINUOUS
10
97.0686
20
-44.5289
11
97.033
21
-44.5943
0
LINE
8
BLACK
6
CONTINUOUS
10
97.033
20
-44.5943
11
96.9952
21
-44.6566
0
LINE
8
BLACK
6
CONTINUOUS
10
96.9952
20
-44.6566
11
96.9537
21
-44.7185
0
LINE
8
BLACK
6
CONTINUOUS
10
96.9537
20
-44.7185
11
96.9103
21
-44.7771
0
LINE
8
BLACK
6
CONTINUOUS
10
96.9103
20
-44.7771
11
96.8653
21
-44.8325
0
LINE
8
BLACK
6
CONTINUOUS
10
96.8653
20
-44.8325
11
96.8181
21
-44.8857
0
LINE
8
BLACK
6
CONTINUOUS
10
96.8181
20
-44.8857
11
96.7678
21
-44.9374
0
LINE
8
BLACK
6
CONTINUOUS
10
96.7678
20
-44.9374
11
96.7154
21
-44.9867
0
LINE
8
BLACK
6
CONTINUOUS
10
96.7154
20
-44.9867
11
96.6571
21
-45.0366
0
LINE
8
BLACK
6
CONTINUOUS
10
96.6571
20
-45.0366
11
96.5974
21
-45.0829
0
LINE
8
BLACK
6
CONTINUOUS
10
96.5974
20
-45.0829
11
96.5374
21
-45.1252
0
LINE
8
BLACK
6
CONTINUOUS
10
96.5374
20
-45.1252
11
96.4756
21
-45.1646
0
LINE
8
BLACK
6
CONTINUOUS
10
96.4756
20
-45.1646
11
96.4461
21
-45.1821
0
LINE
8
BLACK
6
CONTINUOUS
10
8.04617
20
-95.3973
11
8.04865
21
-95.2987
0
LINE
8
BLACK
6
CONTINUOUS
10
8.04865
20
-95.2987
11
8.05595
21
-95.2019
0
LINE
8
BLACK
6
CONTINUOUS
10
8.05595
20
-95.2019
11
8.06709
21
-95.1121
0
LINE
8
BLACK
6
CONTINUOUS
10
8.06709
20
-95.1121
11
8.0823
21
-95.0234
0
LINE
8
BLACK
6
CONTINUOUS
10
8.0823
20
-95.0234
11
8.10106
21
-94.9376
0
LINE
8
BLACK
6
CONTINUOUS
10
8.10106
20
-94.9376
11
8.12248
21
-94.8569
0
LINE
8
BLACK
6
CONTINUOUS
10
8.12248
20
-94.8569
11
8.14728
21
-94.7774
0
LINE
8
BLACK
6
CONTINUOUS
10
8.14728
20
-94.7774
11
8.17398
21
-94.7028
0
LINE
8
BLACK
6
CONTINUOUS
10
8.17398
20
-94.7028
11
8.20287
21
-94.6313
0
LINE
8
BLACK
6
CONTINUOUS
10
8.20287
20
-94.6313
11
8.23452
21
-94.5611
0
LINE
8
BLACK
6
CONTINUOUS
10
8.23452
20
-94.5611
11
8.26797
21
-94.494
0
LINE
8
BLACK
6
CONTINUOUS
10
8.26797
20
-94.494
11
8.30397
21
-94.4283
0
LINE
8
BLACK
6
CONTINUOUS
10
8.30397
20
-94.4283
11
8.34351
21
-94.3623
0
LINE
8
BLACK
6
CONTINUOUS
10
8.34351
20
-94.3623
11
8.38299
21
-94.3017
0
LINE
8
BLACK
6
CONTINUOUS
10
8.38299
20
-94.3017
11
8.42442
21
-94.2431
0
LINE
8
BLACK
6
CONTINUOUS
10
8.42442
20
-94.2431
11
8.46879
21
-94.185
0
LINE
8
BLACK
6
CONTINUOUS
10
8.46879
20
-94.185
11
8.51408
21
-94.13
0
LINE
8
BLACK
6
CONTINUOUS
10
8.51408
20
-94.13
11
8.56143
21
-94.0766
0
LINE
8
BLACK
6
CONTINUOUS
10
8.56143
20
-94.0766
11
8.61044
21
-94.0253
0
LINE
8
BLACK
6
CONTINUOUS
10
8.61044
20
-94.0253
11
8.66176
21
-93.9753
0
LINE
8
BLACK
6
CONTINUOUS
10
8.66176
20
-93.9753
11
8.71692
21
-93.9255
0
LINE
8
BLACK
6
CONTINUOUS
10
8.71692
20
-93.9255
11
8.77216
21
-93.8792
0
LINE
8
BLACK
6
CONTINUOUS
10
8.77216
20
-93.8792
11
8.82887
21
-93.8352
0
LINE
8
BLACK
6
CONTINUOUS
10
8.82887
20
-93.8352
11
8.88822
21
-93.7926
0
LINE
8
BLACK
6
CONTINUOUS
10
8.88822
20
-93.7926
11
8.94917
21
-93.7522
0
LINE
8
BLACK
6
CONTINUOUS
10
8.94917
20
-93.7522
11
9.01146
21
-93.7142
0
LINE
8
BLACK
6
CONTINUOUS
10
9.01146
20
-93.7142
11
9.02117
21
-93.7085
0
LINE
8
BLACK
6
CONTINUOUS
10
32.0737
20
-78.4395
11
32.0737
21
-79.4199
0
LINE
8
BLACK
6
CONTINUOUS
10
57.2375
20
-97.7181
11
43.3869
21
-97.7181
0
LINE
8
BLACK
6
CONTINUOUS
10
134.021
20
-97.086
11
133.956
21
-97.122
0
LINE
8
BLACK
6
CONTINUOUS
10
133.956
20
-97.122
11
133.889
21
-97.1557
0
LINE
8
BLACK
6
CONTINUOUS
10
133.889
20
-97.1557
11
133.819
21
-97.1874
0
LINE
8
BLACK
6
CONTINUOUS
10
133.819
20
-97.1874
11
133.747
21
-97.217
0
LINE
8
BLACK
6
CONTINUOUS
10
133.747
20
-97.217
11
133.67
21
-97.2449
0
LINE
8
BLACK
6
CONTINUOUS
10
133.67
20
-97.2449
11
133.593
21
-97.269
0
LINE
8
BLACK
6
CONTINUOUS
10
133.593
20
-97.269
11
133.513
21
-97.2905
0
LINE
8
BLACK
6
CONTINUOUS
10
133.513
20
-97.2905
11
133.43
21
-97.3092
0
LINE
8
BLACK
6
CONTINUOUS
10
133.43
20
-97.3092
11
133.344
21
-97.3244
0
LINE
8
BLACK
6
CONTINUOUS
10
133.344
20
-97.3244
11
133.25
21
-97.3366
0
LINE
8
BLACK
6
CONTINUOUS
10
133.25
20
-97.3366
11
133.156
21
-97.3442
0
LINE
8
BLACK
6
CONTINUOUS
10
133.156
20
-97.3442
11
133.057
21
-97.3473
0
LINE
8
BLACK
6
CONTINUOUS
10
133.057
20
-97.3473
11
132.952
21
-97.345
0
LINE
8
BLACK
6
CONTINUOUS
10
132.952
20
-97.345
11
132.856
21
-97.338
0
LINE
8
BLACK
6
CONTINUOUS
10
132.856
20
-97.338
11
132.766
21
-97.327
0
LINE
8
BLACK
6
CONTINUOUS
10
132.766
20
-97.327
11
132.68
21
-97.3126
0
LINE
8
BLACK
6
CONTINUOUS
10
132.68
20
-97.3126
11
132.597
21
-97.2948
0
LINE
8
BLACK
6
CONTINUOUS
10
132.597
20
-97.2948
11
132.514
21
-97.2734
0
LINE
8
BLACK
6
CONTINUOUS
10
132.514
20
-97.2734
11
132.438
21
-97.25
0
LINE
8
BLACK
6
CONTINUOUS
10
132.438
20
-97.25
11
132.363
21
-97.2236
0
LINE
8
BLACK
6
CONTINUOUS
10
132.363
20
-97.2236
11
132.289
21
-97.1945
0
LINE
8
BLACK
6
CONTINUOUS
10
132.289
20
-97.1945
11
132.219
21
-97.1634
0
LINE
8
BLACK
6
CONTINUOUS
10
132.219
20
-97.1634
11
132.151
21
-97.1298
0
LINE
8
BLACK
6
CONTINUOUS
10
132.151
20
-97.1298
11
132.083
21
-97.0926
0
LINE
8
BLACK
6
CONTINUOUS
10
132.083
20
-97.0926
11
132.071
21
-97.086
0
LINE
8
BLACK
6
CONTINUOUS
10
81.05
20
-97.7181
11
67.2019
21
-97.7181
0
LINE
8
BLACK
6
CONTINUOUS
10
36.9505
20
-66.2881
11
35.2259
21
-66.2881
0
LINE
8
BLACK
6
CONTINUOUS
10
35.2259
20
-66.2881
11
35.2259
21
-65.3686
0
LINE
8
BLACK
6
CONTINUOUS
10
30.3516
20
-69.519
11
29.5261
21
-69.519
0
LINE
8
BLACK
6
CONTINUOUS
10
67.2019
20
-97.7181
11
67.2019
21
-83.87
0
LINE
8
BLACK
6
CONTINUOUS
10
9.02117
20
-97.086
11
8.95582
21
-97.0466
0
LINE
8
BLACK
6
CONTINUOUS
10
8.95582
20
-97.0466
11
8.89488
21
-97.0065
0
LINE
8
BLACK
6
CONTINUOUS
10
8.89488
20
-97.0065
11
8.83452
21
-96.9635
0
LINE
8
BLACK
6
CONTINUOUS
10
8.83452
20
-96.9635
11
8.7706
21
-96.9141
0
LINE
8
BLACK
6
CONTINUOUS
10
8.7706
20
-96.9141
11
8.71579
21
-96.8681
0
LINE
8
BLACK
6
CONTINUOUS
10
8.71579
20
-96.8681
11
8.66322
21
-96.8206
0
LINE
8
BLACK
6
CONTINUOUS
10
8.66322
20
-96.8206
11
8.61219
21
-96.7711
0
LINE
8
BLACK
6
CONTINUOUS
10
8.61219
20
-96.7711
11
8.56008
21
-96.7165
0
LINE
8
BLACK
6
CONTINUOUS
10
8.56008
20
-96.7165
11
8.5128
21
-96.6631
0
LINE
8
BLACK
6
CONTINUOUS
10
8.5128
20
-96.6631
11
8.46757
21
-96.6081
0
LINE
8
BLACK
6
CONTINUOUS
10
8.46757
20
-96.6081
11
8.42413
21
-96.5511
0
LINE
8
BLACK
6
CONTINUOUS
10
8.42413
20
-96.5511
11
8.3823
21
-96.4918
0
LINE
8
BLACK
6
CONTINUOUS
10
8.3823
20
-96.4918
11
8.34246
21
-96.4306
0
LINE
8
BLACK
6
CONTINUOUS
10
8.34246
20
-96.4306
11
8.30471
21
-96.3676
0
LINE
8
BLACK
6
CONTINUOUS
10
8.30471
20
-96.3676
11
8.26889
21
-96.3023
0
LINE
8
BLACK
6
CONTINUOUS
10
8.26889
20
-96.3023
11
8.23537
21
-96.2352
0
LINE
8
BLACK
6
CONTINUOUS
10
8.23537
20
-96.2352
11
8.20132
21
-96.1596
0
LINE
8
BLACK
6
CONTINUOUS
10
8.20132
20
-96.1596
11
8.17258
21
-96.088
0
LINE
8
BLACK
6
CONTINUOUS
10
8.17258
20
-96.088
11
8.14603
21
-96.0134
0
LINE
8
BLACK
6
CONTINUOUS
10
8.14603
20
-96.0134
11
8.12193
21
-95.9357
0
LINE
8
BLACK
6
CONTINUOUS
10
8.12193
20
-95.9357
11
8.10059
21
-95.855
0
LINE
8
BLACK
6
CONTINUOUS
10
8.10059
20
-95.855
11
8.08225
21
-95.771
0
LINE
8
BLACK
6
CONTINUOUS
10
8.08225
20
-95.771
11
8.06738
21
-95.6844
0
LINE
8
BLACK
6
CONTINUOUS
10
8.06738
20
-95.6844
11
8.05615
21
-95.5946
0
LINE
8
BLACK
6
CONTINUOUS
10
8.05615
20
-95.5946
11
8.04888
21
-95.5004
0
LINE
8
BLACK
6
CONTINUOUS
10
8.04888
20
-95.5004
11
8.04617
21
-95.4024
0
LINE
8
BLACK
6
CONTINUOUS
10
8.04617
20
-95.4024
11
8.04617
21
-95.3973
0
LINE
8
BLACK
6
CONTINUOUS
10
57.2375
20
-83.87
11
57.2375
21
-97.7181
0
LINE
8
BLACK
6
CONTINUOUS
10
55.8761
20
-78.4395
11
55.8761
21
-79.4199
0
LINE
8
BLACK
6
CONTINUOUS
10
10.9712
20
-93.7085
11
11.0348
21
-93.7469
0
LINE
8
BLACK
6
CONTINUOUS
10
11.0348
20
-93.7469
11
11.0958
21
-93.7869
0
LINE
8
BLACK
6
CONTINUOUS
10
11.0958
20
-93.7869
11
11.1546
21
-93.8286
0
LINE
8
BLACK
6
CONTINUOUS
10
11.1546
20
-93.8286
11
11.2123
21
-93.873
0
LINE
8
BLACK
6
CONTINUOUS
10
11.2123
20
-93.873
11
11.2679
21
-93.9189
0
LINE
8
BLACK
6
CONTINUOUS
10
11.2679
20
-93.9189
11
11.3244
21
-93.9695
0
LINE
8
BLACK
6
CONTINUOUS
10
11.3244
20
-93.9695
11
11.3759
21
-94.0193
0
LINE
8
BLACK
6
CONTINUOUS
10
11.3759
20
-94.0193
11
11.4252
21
-94.0704
0
LINE
8
BLACK
6
CONTINUOUS
10
11.4252
20
-94.0704
11
11.4753
21
-94.1266
0
LINE
8
BLACK
6
CONTINUOUS
10
11.4753
20
-94.1266
11
11.5208
21
-94.1815
0
LINE
8
BLACK
6
CONTINUOUS
10
11.5208
20
-94.1815
11
11.5644
21
-94.2383
0
LINE
8
BLACK
6
CONTINUOUS
10
11.5644
20
-94.2383
11
11.6067
21
-94.2979
0
LINE
8
BLACK
6
CONTINUOUS
10
11.6067
20
-94.2979
11
11.6467
21
-94.3589
0
LINE
8
BLACK
6
CONTINUOUS
10
11.6467
20
-94.3589
11
11.6891
21
-94.4295
0
LINE
8
BLACK
6
CONTINUOUS
10
11.6891
20
-94.4295
11
11.7262
21
-94.4975
0
LINE
8
BLACK
6
CONTINUOUS
10
11.7262
20
-94.4975
11
11.7601
21
-94.566
0
LINE
8
BLACK
6
CONTINUOUS
10
11.7601
20
-94.566
11
11.7918
21
-94.6368
0
LINE
8
BLACK
6
CONTINUOUS
10
11.7918
20
-94.6368
11
11.8211
21
-94.7102
0
LINE
8
BLACK
6
CONTINUOUS
10
11.8211
20
-94.7102
11
11.8475
21
-94.7849
0
LINE
8
BLACK
6
CONTINUOUS
10
11.8475
20
-94.7849
11
11.8713
21
-94.8622
0
LINE
8
BLACK
6
CONTINUOUS
10
11.8713
20
-94.8622
11
11.8922
21
-94.9415
0
LINE
8
BLACK
6
CONTINUOUS
10
11.8922
20
-94.9415
11
11.9108
21
-95.0273
0
LINE
8
BLACK
6
CONTINUOUS
10
11.9108
20
-95.0273
11
11.9255
21
-95.1141
0
LINE
8
BLACK
6
CONTINUOUS
10
11.9255
20
-95.1141
11
11.9372
21
-95.21
0
LINE
8
BLACK
6
CONTINUOUS
10
11.9372
20
-95.21
11
11.944
21
-95.3047
0
LINE
8
BLACK
6
CONTINUOUS
10
11.944
20
-95.3047
11
11.9462
21
-95.3973
0
LINE
8
BLACK
6
CONTINUOUS
10
36.9505
20
-73.9691
11
38.6269
21
-73.9691
0
LINE
8
BLACK
6
CONTINUOUS
10
9.02117
20
-93.7085
11
9.08575
21
-93.6728
0
LINE
8
BLACK
6
CONTINUOUS
10
9.08575
20
-93.6728
11
9.15268
21
-93.6391
0
LINE
8
BLACK
6
CONTINUOUS
10
9.15268
20
-93.6391
11
9.22287
21
-93.6071
0
LINE
8
BLACK
6
CONTINUOUS
10
9.22287
20
-93.6071
11
9.29724
21
-93.5768
0
LINE
8
BLACK
6
CONTINUOUS
10
9.29724
20
-93.5768
11
9.37251
21
-93.5496
0
LINE
8
BLACK
6
CONTINUOUS
10
9.37251
20
-93.5496
11
9.44859
21
-93.5257
0
LINE
8
BLACK
6
CONTINUOUS
10
9.44859
20
-93.5257
11
9.52922
21
-93.504
0
LINE
8
BLACK
6
CONTINUOUS
10
9.52922
20
-93.504
11
9.61173
21
-93.4855
0
LINE
8
BLACK
6
CONTINUOUS
10
9.61173
20
-93.4855
11
9.70163
21
-93.4696
0
LINE
8
BLACK
6
CONTINUOUS
10
9.70163
20
-93.4696
11
9.79228
21
-93.458
0
LINE
8
BLACK
6
CONTINUOUS
10
9.79228
20
-93.458
11
9.88672
21
-93.4503
0
LINE
8
BLACK
6
CONTINUOUS
10
9.88672
20
-93.4503
11
9.98729
21
-93.4473
0
LINE
8
BLACK
6
CONTINUOUS
10
9.98729
20
-93.4473
11
10.0859
21
-93.4493
0
LINE
8
BLACK
6
CONTINUOUS
10
10.0859
20
-93.4493
11
10.1799
21
-93.4559
0
LINE
8
BLACK
6
CONTINUOUS
10
10.1799
20
-93.4559
11
10.2748
21
-93.4673
0
LINE
8
BLACK
6
CONTINUOUS
10
10.2748
20
-93.4673
11
10.3624
21
-93.4819
0
LINE
8
BLACK
6
CONTINUOUS
10
10.3624
20
-93.4819
11
10.4457
21
-93.4998
0
LINE
8
BLACK
6
CONTINUOUS
10
10.4457
20
-93.4998
11
10.5265
21
-93.5207
0
LINE
8
BLACK
6
CONTINUOUS
10
10.5265
20
-93.5207
11
10.6066
21
-93.5452
0
LINE
8
BLACK
6
CONTINUOUS
10
10.6066
20
-93.5452
11
10.6806
21
-93.5713
0
LINE
8
BLACK
6
CONTINUOUS
10
10.6806
20
-93.5713
11
10.7528
21
-93.6
0
LINE
8
BLACK
6
CONTINUOUS
10
10.7528
20
-93.6
11
10.8228
21
-93.6311
0
LINE
8
BLACK
6
CONTINUOUS
10
10.8228
20
-93.6311
11
10.8904
21
-93.6644
0
LINE
8
BLACK
6
CONTINUOUS
10
10.8904
20
-93.6644
11
10.9617
21
-93.7031
0
LINE
8
BLACK
6
CONTINUOUS
10
10.9617
20
-93.7031
11
10.9712
21
-93.7085
0
LINE
8
BLACK
6
CONTINUOUS
10
38.6269
20
-69.519
11
36.9505
21
-69.519
0
LINE
8
BLACK
6
CONTINUOUS
10
35.2259
20
-65.3686
11
32.0737
21
-65.3686
0
LINE
8
BLACK
6
CONTINUOUS
10
59.0257
20
-79.4199
11
59.0257
21
-78.4395
0
LINE
8
BLACK
6
CONTINUOUS
10
11.9462
20
-95.3973
11
11.9437
21
-95.4954
0
LINE
8
BLACK
6
CONTINUOUS
10
11.9437
20
-95.4954
11
11.9364
21
-95.5926
0
LINE
8
BLACK
6
CONTINUOUS
10
11.9364
20
-95.5926
11
11.9252
21
-95.6824
0
LINE
8
BLACK
6
CONTINUOUS
10
11.9252
20
-95.6824
11
11.91
21
-95.7712
0
LINE
8
BLACK
6
CONTINUOUS
10
11.91
20
-95.7712
11
11.8918
21
-95.8545
0
LINE
8
BLACK
6
CONTINUOUS
10
11.8918
20
-95.8545
11
11.8709
21
-95.9338
0
LINE
8
BLACK
6
CONTINUOUS
10
11.8709
20
-95.9338
11
11.8471
21
-96.0111
0
LINE
8
BLACK
6
CONTINUOUS
10
11.8471
20
-96.0111
11
11.8207
21
-96.0855
0
LINE
8
BLACK
6
CONTINUOUS
10
11.8207
20
-96.0855
11
11.7918
21
-96.1578
0
LINE
8
BLACK
6
CONTINUOUS
10
11.7918
20
-96.1578
11
11.7587
21
-96.2316
0
LINE
8
BLACK
6
CONTINUOUS
10
11.7587
20
-96.2316
11
11.7253
21
-96.2988
0
LINE
8
BLACK
6
CONTINUOUS
10
11.7253
20
-96.2988
11
11.6896
21
-96.3642
0
LINE
8
BLACK
6
CONTINUOUS
10
11.6896
20
-96.3642
11
11.6503
21
-96.43
0
LINE
8
BLACK
6
CONTINUOUS
10
11.6503
20
-96.43
11
11.61
21
-96.4918
0
LINE
8
BLACK
6
CONTINUOUS
10
11.61
20
-96.4918
11
11.5679
21
-96.5515
0
LINE
8
BLACK
6
CONTINUOUS
10
11.5679
20
-96.5515
11
11.5235
21
-96.6096
0
LINE
8
BLACK
6
CONTINUOUS
10
11.5235
20
-96.6096
11
11.4782
21
-96.6646
0
LINE
8
BLACK
6
CONTINUOUS
10
11.4782
20
-96.6646
11
11.4309
21
-96.718
0
LINE
8
BLACK
6
CONTINUOUS
10
11.4309
20
-96.718
11
11.3801
21
-96.7711
0
LINE
8
BLACK
6
CONTINUOUS
10
11.3801
20
-96.7711
11
11.3287
21
-96.821
0
LINE
8
BLACK
6
CONTINUOUS
10
11.3287
20
-96.821
11
11.2754
21
-96.8691
0
LINE
8
BLACK
6
CONTINUOUS
10
11.2754
20
-96.8691
11
11.2202
21
-96.9153
0
LINE
8
BLACK
6
CONTINUOUS
10
11.2202
20
-96.9153
11
11.1635
21
-96.9593
0
LINE
8
BLACK
6
CONTINUOUS
10
11.1635
20
-96.9593
11
11.1045
21
-97.0017
0
LINE
8
BLACK
6
CONTINUOUS
10
11.1045
20
-97.0017
11
11.0417
21
-97.0433
0
LINE
8
BLACK
6
CONTINUOUS
10
11.0417
20
-97.0433
11
10.976
21
-97.0832
0
LINE
8
BLACK
6
CONTINUOUS
10
10.976
20
-97.0832
11
10.9712
21
-97.086
0
LINE
8
BLACK
6
CONTINUOUS
10
55.8761
20
-79.4199
11
59.0257
21
-79.4199
0
LINE
8
BLACK
6
CONTINUOUS
10
21.9569
20
-97.7181
11
21.9569
21
-83.87
0
LINE
8
BLACK
6
CONTINUOUS
10
5.19036
20
-7.7589
11
5.29958
21
-7.46426
0
LINE
8
BLACK
6
CONTINUOUS
10
5.19036
20
-97.6317
11
5.104
21
-97.3295
0
LINE
8
BLACK
6
CONTINUOUS
10
5.104
20
-8.06116
11
5.19036
21
-7.7589
0
LINE
8
BLACK
6
CONTINUOUS
10
10.9712
20
-97.086
11
10.9061
21
-97.122
0
LINE
8
BLACK
6
CONTINUOUS
10
10.9061
20
-97.122
11
10.8392
21
-97.1557
0
LINE
8
BLACK
6
CONTINUOUS
10
10.8392
20
-97.1557
11
10.7695
21
-97.1874
0
LINE
8
BLACK
6
CONTINUOUS
10
10.7695
20
-97.1874
11
10.697
21
-97.217
0
LINE
8
BLACK
6
CONTINUOUS
10
10.697
20
-97.217
11
10.6198
21
-97.2449
0
LINE
8
BLACK
6
CONTINUOUS
10
10.6198
20
-97.2449
11
10.5433
21
-97.269
0
LINE
8
BLACK
6
CONTINUOUS
10
10.5433
20
-97.269
11
10.4636
21
-97.2905
0
LINE
8
BLACK
6
CONTINUOUS
10
10.4636
20
-97.2905
11
10.3799
21
-97.3092
0
LINE
8
BLACK
6
CONTINUOUS
10
10.3799
20
-97.3092
11
10.2941
21
-97.3244
0
LINE
8
BLACK
6
CONTINUOUS
10
10.2941
20
-97.3244
11
10.2
21
-97.3366
0
LINE
8
BLACK
6
CONTINUOUS
10
10.2
20
-97.3366
11
10.1056
21
-97.3442
0
LINE
8
BLACK
6
CONTINUOUS
10
10.1056
20
-97.3442
11
10.007
21
-97.3473
0
LINE
8
BLACK
6
CONTINUOUS
10
10.007
20
-97.3473
11
9.90249
21
-97.345
0
LINE
8
BLACK
6
CONTINUOUS
10
9.90249
20
-97.345
11
9.80653
21
-97.338
0
LINE
8
BLACK
6
CONTINUOUS
10
9.80653
20
-97.338
11
9.71581
21
-97.327
0
LINE
8
BLACK
6
CONTINUOUS
10
9.71581
20
-97.327
11
9.62995
21
-97.3126
0
LINE
8
BLACK
6
CONTINUOUS
10
9.62995
20
-97.3126
11
9.54659
21
-97.2948
0
LINE
8
BLACK
6
CONTINUOUS
10
9.54659
20
-97.2948
11
9.46437
21
-97.2734
0
LINE
8
BLACK
6
CONTINUOUS
10
9.46437
20
-97.2734
11
9.38767
21
-97.25
0
LINE
8
BLACK
6
CONTINUOUS
10
9.38767
20
-97.25
11
9.31269
21
-97.2236
0
LINE
8
BLACK
6
CONTINUOUS
10
9.31269
20
-97.2236
11
9.23951
21
-97.1945
0
LINE
8
BLACK
6
CONTINUOUS
10
9.23951
20
-97.1945
11
9.16957
21
-97.1634
0
LINE
8
BLACK
6
CONTINUOUS
10
9.16957
20
-97.1634
11
9.10126
21
-97.1298
0
LINE
8
BLACK
6
CONTINUOUS
10
9.10126
20
-97.1298
11
9.03267
21
-97.0926
0
LINE
8
BLACK
6
CONTINUOUS
10
9.03267
20
-97.0926
11
9.02117
21
-97.086
0
LINE
8
BLACK
6
CONTINUOUS
10
4.99478
20
-8.99588
11
5.00748
21
-8.68092
0
LINE
8
BLACK
6
CONTINUOUS
10
35.8075
20
-97.7181
11
21.9569
21
-97.7181
0
LINE
8
BLACK
6
CONTINUOUS
10
32.0737
20
-65.3686
11
32.0737
21
-66.2881
0
LINE
8
BLACK
6
CONTINUOUS
10
67.2019
20
-83.87
11
81.05
21
-83.87
0
LINE
8
BLACK
6
CONTINUOUS
10
5.04304
20
-97.0221
11
5.00748
21
-96.7097
0
LINE
8
BLACK
6
CONTINUOUS
10
8.68032
20
-5.00808
11
8.99528
21
-4.99538
0
LINE
8
BLACK
6
CONTINUOUS
10
6.90486
20
-5.58466
11
7.17918
21
-5.42972
0
LINE
8
BLACK
6
CONTINUOUS
10
5.04304
20
-8.3685
11
5.104
21
-8.06116
0
LINE
8
BLACK
6
CONTINUOUS
10
6.39686
20
-99.4377
11
6.16572
21
-99.2243
0
LINE
8
BLACK
6
CONTINUOUS
10
5.75678
20
-98.7468
11
5.58406
21
-98.4852
0
LINE
8
BLACK
6
CONTINUOUS
10
7.7583
20
-5.19096
11
8.06056
21
-5.1046
0
LINE
8
BLACK
6
CONTINUOUS
10
5.104
20
-97.3295
11
5.04304
21
-97.0221
0
LINE
8
BLACK
6
CONTINUOUS
10
8.37044
20
-5.04364
11
8.68032
21
-5.00808
0
LINE
8
BLACK
6
CONTINUOUS
10
6.64324
20
-5.75738
11
6.90486
21
-5.58466
0
LINE
8
BLACK
6
CONTINUOUS
10
8.06056
20
-5.1046
11
8.37044
21
-5.04364
0
LINE
8
BLACK
6
CONTINUOUS
10
7.46366
20
-5.30018
11
7.7583
21
-5.19096
0
LINE
8
BLACK
6
CONTINUOUS
10
5.58406
20
-98.4852
11
5.42912
21
-98.2108
0
LINE
8
BLACK
6
CONTINUOUS
10
6.16572
20
-6.16632
11
6.39686
21
-5.95296
0
LINE
8
BLACK
6
CONTINUOUS
10
5.95236
20
-6.39746
11
6.16572
21
-6.16632
0
LINE
8
BLACK
6
CONTINUOUS
10
5.00748
20
-96.7097
11
4.99478
21
-96.3947
0
LINE
8
BLACK
6
CONTINUOUS
10
5.75678
20
-6.64384
11
5.95236
21
-6.39746
0
LINE
8
BLACK
6
CONTINUOUS
10
5.42912
20
-98.2108
11
5.29958
21
-97.9264
0
LINE
8
BLACK
6
CONTINUOUS
10
5.29958
20
-7.46426
11
5.42912
21
-7.17978
0
LINE
8
BLACK
6
CONTINUOUS
10
5.95236
20
-98.9932
11
5.75678
21
-98.7468
0
LINE
8
BLACK
6
CONTINUOUS
10
5.42912
20
-7.17978
11
5.58406
21
-6.90546
0
LINE
8
BLACK
6
CONTINUOUS
10
5.00748
20
-8.68092
11
5.04304
21
-8.3685
0
LINE
8
BLACK
6
CONTINUOUS
10
6.64324
20
-99.6307
11
6.39686
21
-99.4377
0
LINE
8
BLACK
6
CONTINUOUS
10
27.1921
20
-28.0563
11
27.127
21
-28.0922
0
LINE
8
BLACK
6
CONTINUOUS
10
27.127
20
-28.0922
11
27.0601
21
-28.1259
0
LINE
8
BLACK
6
CONTINUOUS
10
27.0601
20
-28.1259
11
26.9904
21
-28.1577
0
LINE
8
BLACK
6
CONTINUOUS
10
26.9904
20
-28.1577
11
26.9179
21
-28.1873
0
LINE
8
BLACK
6
CONTINUOUS
10
26.9179
20
-28.1873
11
26.8407
21
-28.2152
0
LINE
8
BLACK
6
CONTINUOUS
10
26.8407
20
-28.2152
11
26.7642
21
-28.2393
0
LINE
8
BLACK
6
CONTINUOUS
10
26.7642
20
-28.2393
11
26.6845
21
-28.2607
0
LINE
8
BLACK
6
CONTINUOUS
10
26.6845
20
-28.2607
11
26.6008
21
-28.2794
0
LINE
8
BLACK
6
CONTINUOUS
10
26.6008
20
-28.2794
11
26.515
21
-28.2946
0
LINE
8
BLACK
6
CONTINUOUS
10
26.515
20
-28.2946
11
26.4209
21
-28.3068
0
LINE
8
BLACK
6
CONTINUOUS
10
26.4209
20
-28.3068
11
26.3265
21
-28.3145
0
LINE
8
BLACK
6
CONTINUOUS
10
26.3265
20
-28.3145
11
26.2279
21
-28.3175
0
LINE
8
BLACK
6
CONTINUOUS
10
26.2279
20
-28.3175
11
26.1234
21
-28.3153
0
LINE
8
BLACK
6
CONTINUOUS
10
26.1234
20
-28.3153
11
26.0274
21
-28.3083
0
LINE
8
BLACK
6
CONTINUOUS
10
26.0274
20
-28.3083
11
25.9367
21
-28.2973
0
LINE
8
BLACK
6
CONTINUOUS
10
25.9367
20
-28.2973
11
25.8509
21
-28.2829
0
LINE
8
BLACK
6
CONTINUOUS
10
25.8509
20
-28.2829
11
25.7675
21
-28.265
0
LINE
8
BLACK
6
CONTINUOUS
10
25.7675
20
-28.265
11
25.6853
21
-28.2437
0
LINE
8
BLACK
6
CONTINUOUS
10
25.6853
20
-28.2437
11
25.6086
21
-28.2202
0
LINE
8
BLACK
6
CONTINUOUS
10
25.6086
20
-28.2202
11
25.5336
21
-28.1939
0
LINE
8
BLACK
6
CONTINUOUS
10
25.5336
20
-28.1939
11
25.4604
21
-28.1648
0
LINE
8
BLACK
6
CONTINUOUS
10
25.4604
20
-28.1648
11
25.3905
21
-28.1337
0
LINE
8
BLACK
6
CONTINUOUS
10
25.3905
20
-28.1337
11
25.3222
21
-28.1001
0
LINE
8
BLACK
6
CONTINUOUS
10
25.3222
20
-28.1001
11
25.2536
21
-28.0629
0
LINE
8
BLACK
6
CONTINUOUS
10
25.2536
20
-28.0629
11
25.2421
21
-28.0563
0
LINE
8
BLACK
6
CONTINUOUS
10
4.99478
20
-96.3947
11
4.99478
21
-8.99588
0
LINE
8
BLACK
6
CONTINUOUS
10
6.39686
20
-5.95296
11
6.64324
21
-5.75738
0
LINE
8
BLACK
6
CONTINUOUS
10
7.17918
20
-5.42972
11
7.46366
21
-5.30018
0
LINE
8
BLACK
6
CONTINUOUS
10
5.29958
20
-97.9264
11
5.19036
21
-97.6317
0
LINE
8
BLACK
6
CONTINUOUS
10
5.58406
20
-6.90546
11
5.75678
21
-6.64384
0
LINE
8
BLACK
6
CONTINUOUS
10
6.90486
20
-99.806
11
6.64324
21
-99.6307
0
LINE
8
BLACK
6
CONTINUOUS
10
27.1921
20
-24.6788
11
27.2557
21
-24.7171
0
LINE
8
BLACK
6
CONTINUOUS
10
27.2557
20
-24.7171
11
27.3167
21
-24.7571
0
LINE
8
BLACK
6
CONTINUOUS
10
27.3167
20
-24.7571
11
27.3755
21
-24.7989
0
LINE
8
BLACK
6
CONTINUOUS
10
27.3755
20
-24.7989
11
27.4332
21
-24.8432
0
LINE
8
BLACK
6
CONTINUOUS
10
27.4332
20
-24.8432
11
27.4887
21
-24.8892
0
LINE
8
BLACK
6
CONTINUOUS
10
27.4887
20
-24.8892
11
27.5453
21
-24.9397
0
LINE
8
BLACK
6
CONTINUOUS
10
27.5453
20
-24.9397
11
27.5968
21
-24.9895
0
LINE
8
BLACK
6
CONTINUOUS
10
27.5968
20
-24.9895
11
27.6461
21
-25.0407
0
LINE
8
BLACK
6
CONTINUOUS
10
27.6461
20
-25.0407
11
27.6962
21
-25.0968
0
LINE
8
BLACK
6
CONTINUOUS
10
27.6962
20
-25.0968
11
27.7417
21
-25.1517
0
LINE
8
BLACK
6
CONTINUOUS
10
27.7417
20
-25.1517
11
27.7853
21
-25.2085
0
LINE
8
BLACK
6
CONTINUOUS
10
27.7853
20
-25.2085
11
27.8276
21
-25.2681
0
LINE
8
BLACK
6
CONTINUOUS
10
27.8276
20
-25.2681
11
27.8676
21
-25.3292
0
LINE
8
BLACK
6
CONTINUOUS
10
27.8676
20
-25.3292
11
27.91
21
-25.3998
0
LINE
8
BLACK
6
CONTINUOUS
10
27.91
20
-25.3998
11
27.9471
21
-25.4678
0
LINE
8
BLACK
6
CONTINUOUS
10
27.9471
20
-25.4678
11
27.981
21
-25.5363
0
LINE
8
BLACK
6
CONTINUOUS
10
27.981
20
-25.5363
11
28.0127
21
-25.607
0
LINE
8
BLACK
6
CONTINUOUS
10
28.0127
20
-25.607
11
28.042
21
-25.6805
0
LINE
8
BLACK
6
CONTINUOUS
10
28.042
20
-25.6805
11
28.0684
21
-25.7551
0
LINE
8
BLACK
6
CONTINUOUS
10
28.0684
20
-25.7551
11
28.0922
21
-25.8324
0
LINE
8
BLACK
6
CONTINUOUS
10
28.0922
20
-25.8324
11
28.1131
21
-25.9117
0
LINE
8
BLACK
6
CONTINUOUS
10
28.1131
20
-25.9117
11
28.1317
21
-25.9975
0
LINE
8
BLACK
6
CONTINUOUS
10
28.1317
20
-25.9975
11
28.1464
21
-26.0844
0
LINE
8
BLACK
6
CONTINUOUS
10
28.1464
20
-26.0844
11
28.1581
21
-26.1802
0
LINE
8
BLACK
6
CONTINUOUS
10
28.1581
20
-26.1802
11
28.1649
21
-26.275
0
LINE
8
BLACK
6
CONTINUOUS
10
28.1649
20
-26.275
11
28.1671
21
-26.3675
0
LINE
8
BLACK
6
CONTINUOUS
10
139.417
20
-24.732
11
139.352
21
-24.7676
0
LINE
8
BLACK
6
CONTINUOUS
10
139.352
20
-24.7676
11
139.283
21
-24.801
0
LINE
8
BLACK
6
CONTINUOUS
10
139.283
20
-24.801
11
139.212
21
-24.8316
0
LINE
8
BLACK
6
CONTINUOUS
10
139.212
20
-24.8316
11
139.138
21
-24.8591
0
LINE
8
BLACK
6
CONTINUOUS
10
139.138
20
-24.8591
11
139.055
21
-24.8851
0
LINE
8
BLACK
6
CONTINUOUS
10
139.055
20
-24.8851
11
138.975
21
-24.9058
0
LINE
8
BLACK
6
CONTINUOUS
10
138.975
20
-24.9058
11
138.89
21
-24.9229
0
LINE
8
BLACK
6
CONTINUOUS
10
138.89
20
-24.9229
11
138.802
21
-24.9355
0
LINE
8
BLACK
6
CONTINUOUS
10
138.802
20
-24.9355
11
138.71
21
-24.9436
0
LINE
8
BLACK
6
CONTINUOUS
10
138.71
20
-24.9436
11
138.611
21
-24.9463
0
LINE
8
BLACK
6
CONTINUOUS
10
138.611
20
-24.9463
11
138.513
21
-24.9429
0
LINE
8
BLACK
6
CONTINUOUS
10
138.513
20
-24.9429
11
138.419
21
-24.934
0
LINE
8
BLACK
6
CONTINUOUS
10
138.419
20
-24.934
11
138.329
21
-24.9203
0
LINE
8
BLACK
6
CONTINUOUS
10
138.329
20
-24.9203
11
138.247
21
-24.9029
0
LINE
8
BLACK
6
CONTINUOUS
10
138.247
20
-24.9029
11
138.167
21
-24.8816
0
LINE
8
BLACK
6
CONTINUOUS
10
138.167
20
-24.8816
11
138.09
21
-24.857
0
LINE
8
BLACK
6
CONTINUOUS
10
138.09
20
-24.857
11
138.016
21
-24.8292
0
LINE
8
BLACK
6
CONTINUOUS
10
138.016
20
-24.8292
11
137.943
21
-24.7976
0
LINE
8
BLACK
6
CONTINUOUS
10
137.943
20
-24.7976
11
137.876
21
-24.7643
0
LINE
8
BLACK
6
CONTINUOUS
10
137.876
20
-24.7643
11
137.817
21
-24.732
0
LINE
8
BLACK
6
CONTINUOUS
10
8.37044
20
-100.347
11
8.06056
21
-100.286
0
LINE
8
BLACK
6
CONTINUOUS
10
139.417
20
-21.9607
11
139.481
21
-21.9993
0
LINE
8
BLACK
6
CONTINUOUS
10
139.481
20
-21.9993
11
139.542
21
-22.041
0
LINE
8
BLACK
6
CONTINUOUS
10
139.542
20
-22.041
11
139.602
21
-22.0854
0
LINE
8
BLACK
6
CONTINUOUS
10
139.602
20
-22.0854
11
139.658
21
-22.1312
0
LINE
8
BLACK
6
CONTINUOUS
10
139.658
20
-22.1312
11
139.712
21
-22.1793
0
LINE
8
BLACK
6
CONTINUOUS
10
139.712
20
-22.1793
11
139.764
21
-22.2307
0
LINE
8
BLACK
6
CONTINUOUS
10
139.764
20
-22.2307
11
139.813
21
-22.2829
0
LINE
8
BLACK
6
CONTINUOUS
10
139.813
20
-22.2829
11
139.859
21
-22.3377
0
LINE
8
BLACK
6
CONTINUOUS
10
139.859
20
-22.3377
11
139.903
21
-22.3941
0
LINE
8
BLACK
6
CONTINUOUS
10
139.903
20
-22.3941
11
139.946
21
-22.455
0
LINE
8
BLACK
6
CONTINUOUS
10
139.946
20
-22.455
11
139.985
21
-22.5162
0
LINE
8
BLACK
6
CONTINUOUS
10
139.985
20
-22.5162
11
140.024
21
-22.5837
0
LINE
8
BLACK
6
CONTINUOUS
10
140.024
20
-22.5837
11
140.058
21
-22.65
0
LINE
8
BLACK
6
CONTINUOUS
10
140.058
20
-22.65
11
140.089
21
-22.719
0
LINE
8
BLACK
6
CONTINUOUS
10
140.089
20
-22.719
11
140.118
21
-22.7928
0
LINE
8
BLACK
6
CONTINUOUS
10
140.118
20
-22.7928
11
140.145
21
-22.8702
0
LINE
8
BLACK
6
CONTINUOUS
10
140.145
20
-22.8702
11
140.167
21
-22.9502
0
LINE
8
BLACK
6
CONTINUOUS
10
140.167
20
-22.9502
11
140.188
21
-23.0411
0
LINE
8
BLACK
6
CONTINUOUS
10
140.188
20
-23.0411
11
140.202
21
-23.127
0
LINE
8
BLACK
6
CONTINUOUS
10
140.202
20
-23.127
11
140.212
21
-23.2176
0
LINE
8
BLACK
6
CONTINUOUS
10
140.212
20
-23.2176
11
140.217
21
-23.3221
0
LINE
8
BLACK
6
CONTINUOUS
10
140.217
20
-23.3221
11
140.217
21
-23.3463
0
LINE
8
BLACK
6
CONTINUOUS
10
8.06056
20
-100.286
11
7.7583
21
-100.2
0
LINE
8
BLACK
6
CONTINUOUS
10
28.1671
20
-26.3675
11
28.1646
21
-26.4656
0
LINE
8
BLACK
6
CONTINUOUS
10
28.1646
20
-26.4656
11
28.1573
21
-26.5629
0
LINE
8
BLACK
6
CONTINUOUS
10
28.1573
20
-26.5629
11
28.1461
21
-26.6527
0
LINE
8
BLACK
6
CONTINUOUS
10
28.1461
20
-26.6527
11
28.1309
21
-26.7414
0
LINE
8
BLACK
6
CONTINUOUS
10
28.1309
20
-26.7414
11
28.1127
21
-26.8247
0
LINE
8
BLACK
6
CONTINUOUS
10
28.1127
20
-26.8247
11
28.0918
21
-26.9041
0
LINE
8
BLACK
6
CONTINUOUS
10
28.0918
20
-26.9041
11
28.068
21
-26.9813
0
LINE
8
BLACK
6
CONTINUOUS
10
28.068
20
-26.9813
11
28.0416
21
-27.0557
0
LINE
8
BLACK
6
CONTINUOUS
10
28.0416
20
-27.0557
11
28.0127
21
-27.128
0
LINE
8
BLACK
6
CONTINUOUS
10
28.0127
20
-27.128
11
27.9795
21
-27.2019
0
LINE
8
BLACK
6
CONTINUOUS
10
27.9795
20
-27.2019
11
27.9462
21
-27.269
0
LINE
8
BLACK
6
CONTINUOUS
10
27.9462
20
-27.269
11
27.9105
21
-27.3344
0
LINE
8
BLACK
6
CONTINUOUS
10
27.9105
20
-27.3344
11
27.8712
21
-27.4002
0
LINE
8
BLACK
6
CONTINUOUS
10
27.8712
20
-27.4002
11
27.8309
21
-27.462
0
LINE
8
BLACK
6
CONTINUOUS
10
27.8309
20
-27.462
11
27.7888
21
-27.5217
0
LINE
8
BLACK
6
CONTINUOUS
10
27.7888
20
-27.5217
11
27.7444
21
-27.5798
0
LINE
8
BLACK
6
CONTINUOUS
10
27.7444
20
-27.5798
11
27.6991
21
-27.6348
0
LINE
8
BLACK
6
CONTINUOUS
10
27.6991
20
-27.6348
11
27.6518
21
-27.6882
0
LINE
8
BLACK
6
CONTINUOUS
10
27.6518
20
-27.6882
11
27.601
21
-27.7413
0
LINE
8
BLACK
6
CONTINUOUS
10
27.601
20
-27.7413
11
27.5496
21
-27.7912
0
LINE
8
BLACK
6
CONTINUOUS
10
27.5496
20
-27.7912
11
27.4963
21
-27.8393
0
LINE
8
BLACK
6
CONTINUOUS
10
27.4963
20
-27.8393
11
27.4411
21
-27.8856
0
LINE
8
BLACK
6
CONTINUOUS
10
27.4411
20
-27.8856
11
27.3844
21
-27.9296
0
LINE
8
BLACK
6
CONTINUOUS
10
27.3844
20
-27.9296
11
27.3254
21
-27.9719
0
LINE
8
BLACK
6
CONTINUOUS
10
27.3254
20
-27.9719
11
27.2626
21
-28.0136
0
LINE
8
BLACK
6
CONTINUOUS
10
27.2626
20
-28.0136
11
27.1969
21
-28.0535
0
LINE
8
BLACK
6
CONTINUOUS
10
27.1969
20
-28.0535
11
27.1921
21
-28.0563
0
LINE
8
BLACK
6
CONTINUOUS
10
7.7583
20
-100.2
11
7.46366
21
-100.093
0
LINE
8
BLACK
6
CONTINUOUS
10
137.017
20
-23.3463
11
137.02
21
-23.2488
0
LINE
8
BLACK
6
CONTINUOUS
10
137.02
20
-23.2488
11
137.028
21
-23.1565
0
LINE
8
BLACK
6
CONTINUOUS
10
137.028
20
-23.1565
11
137.041
21
-23.0685
0
LINE
8
BLACK
6
CONTINUOUS
10
137.041
20
-23.0685
11
137.059
21
-22.9819
0
LINE
8
BLACK
6
CONTINUOUS
10
137.059
20
-22.9819
11
137.08
21
-22.9002
0
LINE
8
BLACK
6
CONTINUOUS
10
137.08
20
-22.9002
11
137.105
21
-22.8238
0
LINE
8
BLACK
6
CONTINUOUS
10
137.105
20
-22.8238
11
137.132
21
-22.7504
0
LINE
8
BLACK
6
CONTINUOUS
10
137.132
20
-22.7504
11
137.163
21
-22.6793
0
LINE
8
BLACK
6
CONTINUOUS
10
137.163
20
-22.6793
11
137.196
21
-22.612
0
LINE
8
BLACK
6
CONTINUOUS
10
137.196
20
-22.612
11
137.232
21
-22.546
0
LINE
8
BLACK
6
CONTINUOUS
10
137.232
20
-22.546
11
137.27
21
-22.4834
0
LINE
8
BLACK
6
CONTINUOUS
10
137.27
20
-22.4834
11
137.31
21
-22.4229
0
LINE
8
BLACK
6
CONTINUOUS
10
137.31
20
-22.4229
11
137.353
21
-22.3653
0
LINE
8
BLACK
6
CONTINUOUS
10
137.353
20
-22.3653
11
137.399
21
-22.3089
0
LINE
8
BLACK
6
CONTINUOUS
10
137.399
20
-22.3089
11
137.446
21
-22.2558
0
LINE
8
BLACK
6
CONTINUOUS
10
137.446
20
-22.2558
11
137.497
21
-22.2042
0
LINE
8
BLACK
6
CONTINUOUS
10
137.497
20
-22.2042
11
137.55
21
-22.1541
0
LINE
8
BLACK
6
CONTINUOUS
10
137.55
20
-22.1541
11
137.604
21
-22.1077
0
LINE
8
BLACK
6
CONTINUOUS
10
137.604
20
-22.1077
11
137.66
21
-22.0638
0
LINE
8
BLACK
6
CONTINUOUS
10
137.66
20
-22.0638
11
137.726
21
-22.0175
0
LINE
8
BLACK
6
CONTINUOUS
10
137.726
20
-22.0175
11
137.789
21
-21.9773
0
LINE
8
BLACK
6
CONTINUOUS
10
137.789
20
-21.9773
11
137.817
21
-21.9607
0
LINE
8
BLACK
6
CONTINUOUS
10
137.817
20
-24.732
11
137.753
21
-24.6927
0
LINE
8
BLACK
6
CONTINUOUS
10
137.753
20
-24.6927
11
137.689
21
-24.6497
0
LINE
8
BLACK
6
CONTINUOUS
10
137.689
20
-24.6497
11
137.629
21
-24.6052
0
LINE
8
BLACK
6
CONTINUOUS
10
137.629
20
-24.6052
11
137.572
21
-24.5582
0
LINE
8
BLACK
6
CONTINUOUS
10
137.572
20
-24.5582
11
137.519
21
-24.51
0
LINE
8
BLACK
6
CONTINUOUS
10
137.519
20
-24.51
11
137.467
21
-24.4584
0
LINE
8
BLACK
6
CONTINUOUS
10
137.467
20
-24.4584
11
137.418
21
-24.4058
0
LINE
8
BLACK
6
CONTINUOUS
10
137.418
20
-24.4058
11
137.372
21
-24.351
0
LINE
8
BLACK
6
CONTINUOUS
10
137.372
20
-24.351
11
137.328
21
-24.2943
0
LINE
8
BLACK
6
CONTINUOUS
10
137.328
20
-24.2943
11
137.287
21
-24.2353
0
LINE
8
BLACK
6
CONTINUOUS
10
137.287
20
-24.2353
11
137.247
21
-24.1721
0
LINE
8
BLACK
6
CONTINUOUS
10
137.247
20
-24.1721
11
137.21
21
-24.1075
0
LINE
8
BLACK
6
CONTINUOUS
10
137.21
20
-24.1075
11
137.176
21
-24.0412
0
LINE
8
BLACK
6
CONTINUOUS
10
137.176
20
-24.0412
11
137.144
21
-23.9718
0
LINE
8
BLACK
6
CONTINUOUS
10
137.144
20
-23.9718
11
137.116
21
-23.8998
0
LINE
8
BLACK
6
CONTINUOUS
10
137.116
20
-23.8998
11
137.09
21
-23.824
0
LINE
8
BLACK
6
CONTINUOUS
10
137.09
20
-23.824
11
137.068
21
-23.746
0
LINE
8
BLACK
6
CONTINUOUS
10
137.068
20
-23.746
11
137.049
21
-23.664
0
LINE
8
BLACK
6
CONTINUOUS
10
137.049
20
-23.664
11
137.034
21
-23.5782
0
LINE
8
BLACK
6
CONTINUOUS
10
137.034
20
-23.5782
11
137.023
21
-23.4885
0
LINE
8
BLACK
6
CONTINUOUS
10
137.023
20
-23.4885
11
137.018
21
-23.3939
0
LINE
8
BLACK
6
CONTINUOUS
10
137.018
20
-23.3939
11
137.017
21
-23.3463
0
LINE
8
BLACK
6
CONTINUOUS
10
140.217
20
-23.3463
11
140.214
21
-23.444
0
LINE
8
BLACK
6
CONTINUOUS
10
140.214
20
-23.444
11
140.206
21
-23.5362
0
LINE
8
BLACK
6
CONTINUOUS
10
140.206
20
-23.5362
11
140.193
21
-23.6243
0
LINE
8
BLACK
6
CONTINUOUS
10
140.193
20
-23.6243
11
140.176
21
-23.7078
0
LINE
8
BLACK
6
CONTINUOUS
10
140.176
20
-23.7078
11
140.154
21
-23.7897
0
LINE
8
BLACK
6
CONTINUOUS
10
140.154
20
-23.7897
11
140.13
21
-23.8657
0
LINE
8
BLACK
6
CONTINUOUS
10
140.13
20
-23.8657
11
140.103
21
-23.9392
0
LINE
8
BLACK
6
CONTINUOUS
10
140.103
20
-23.9392
11
140.073
21
-24.0104
0
LINE
8
BLACK
6
CONTINUOUS
10
140.073
20
-24.0104
11
140.04
21
-24.0788
0
LINE
8
BLACK
6
CONTINUOUS
10
140.04
20
-24.0788
11
140.004
21
-24.1442
0
LINE
8
BLACK
6
CONTINUOUS
10
140.004
20
-24.1442
11
139.966
21
-24.2065
0
LINE
8
BLACK
6
CONTINUOUS
10
139.966
20
-24.2065
11
139.925
21
-24.2684
0
LINE
8
BLACK
6
CONTINUOUS
10
139.925
20
-24.2684
11
139.881
21
-24.327
0
LINE
8
BLACK
6
CONTINUOUS
10
139.881
20
-24.327
11
139.836
21
-24.3824
0
LINE
8
BLACK
6
CONTINUOUS
10
139.836
20
-24.3824
11
139.789
21
-24.4356
0
LINE
8
BLACK
6
CONTINUOUS
10
139.789
20
-24.4356
11
139.739
21
-24.4873
0
LINE
8
BLACK
6
CONTINUOUS
10
139.739
20
-24.4873
11
139.686
21
-24.5366
0
LINE
8
BLACK
6
CONTINUOUS
10
139.686
20
-24.5366
11
139.628
21
-24.5865
0
LINE
8
BLACK
6
CONTINUOUS
10
139.628
20
-24.5865
11
139.568
21
-24.6328
0
LINE
8
BLACK
6
CONTINUOUS
10
139.568
20
-24.6328
11
139.508
21
-24.6751
0
LINE
8
BLACK
6
CONTINUOUS
10
139.508
20
-24.6751
11
139.447
21
-24.7145
0
LINE
8
BLACK
6
CONTINUOUS
10
139.447
20
-24.7145
11
139.417
21
-24.732
0
LINE
8
BLACK
6
CONTINUOUS
10
25.2421
20
-28.0563
11
25.1767
21
-28.0168
0
LINE
8
BLACK
6
CONTINUOUS
10
25.1767
20
-28.0168
11
25.1158
21
-27.9768
0
LINE
8
BLACK
6
CONTINUOUS
10
25.1158
20
-27.9768
11
25.0554
21
-27.9338
0
LINE
8
BLACK
6
CONTINUOUS
10
25.0554
20
-27.9338
11
24.9915
21
-27.8843
0
LINE
8
BLACK
6
CONTINUOUS
10
24.9915
20
-27.8843
11
24.9367
21
-27.8383
0
LINE
8
BLACK
6
CONTINUOUS
10
24.9367
20
-27.8383
11
24.8841
21
-27.7909
0
LINE
8
BLACK
6
CONTINUOUS
10
24.8841
20
-27.7909
11
24.8331
21
-27.7413
0
LINE
8
BLACK
6
CONTINUOUS
10
24.8331
20
-27.7413
11
24.781
21
-27.6867
0
LINE
8
BLACK
6
CONTINUOUS
10
24.781
20
-27.6867
11
24.7337
21
-27.6333
0
LINE
8
BLACK
6
CONTINUOUS
10
24.7337
20
-27.6333
11
24.6885
21
-27.5783
0
LINE
8
BLACK
6
CONTINUOUS
10
24.6885
20
-27.5783
11
24.645
21
-27.5213
0
LINE
8
BLACK
6
CONTINUOUS
10
24.645
20
-27.5213
11
24.6032
21
-27.462
0
LINE
8
BLACK
6
CONTINUOUS
10
24.6032
20
-27.462
11
24.5634
21
-27.4009
0
LINE
8
BLACK
6
CONTINUOUS
10
24.5634
20
-27.4009
11
24.5256
21
-27.3378
0
LINE
8
BLACK
6
CONTINUOUS
10
24.5256
20
-27.3378
11
24.4898
21
-27.2725
0
LINE
8
BLACK
6
CONTINUOUS
10
24.4898
20
-27.2725
11
24.4563
21
-27.2055
0
LINE
8
BLACK
6
CONTINUOUS
10
24.4563
20
-27.2055
11
24.4222
21
-27.1298
0
LINE
8
BLACK
6
CONTINUOUS
10
24.4222
20
-27.1298
11
24.3935
21
-27.0583
0
LINE
8
BLACK
6
CONTINUOUS
10
24.3935
20
-27.0583
11
24.3669
21
-26.9837
0
LINE
8
BLACK
6
CONTINUOUS
10
24.3669
20
-26.9837
11
24.3428
21
-26.906
0
LINE
8
BLACK
6
CONTINUOUS
10
24.3428
20
-26.906
11
24.3215
21
-26.8252
0
LINE
8
BLACK
6
CONTINUOUS
10
24.3215
20
-26.8252
11
24.3032
21
-26.7412
0
LINE
8
BLACK
6
CONTINUOUS
10
24.3032
20
-26.7412
11
24.2883
21
-26.6546
0
LINE
8
BLACK
6
CONTINUOUS
10
24.2883
20
-26.6546
11
24.277
21
-26.5649
0
LINE
8
BLACK
6
CONTINUOUS
10
24.277
20
-26.5649
11
24.2698
21
-26.4707
0
LINE
8
BLACK
6
CONTINUOUS
10
24.2698
20
-26.4707
11
24.2671
21
-26.3726
0
LINE
8
BLACK
6
CONTINUOUS
10
24.2671
20
-26.3726
11
24.2671
21
-26.3675
0
LINE
8
BLACK
6
CONTINUOUS
10
8.68032
20
-100.383
11
8.37044
21
-100.347
0
LINE
8
BLACK
6
CONTINUOUS
10
6.16572
20
-99.2243
11
5.95236
21
-98.9932
0
LINE
8
BLACK
6
CONTINUOUS
10
7.46366
20
-100.093
11
7.17918
21
-99.9584
0
LINE
8
BLACK
6
CONTINUOUS
10
8.99528
20
-100.395
11
8.68032
21
-100.383
0
LINE
8
BLACK
6
CONTINUOUS
10
60.7503
20
-78.4395
11
60.7503
21
-72.1682
0
LINE
8
BLACK
6
CONTINUOUS
10
54.1514
20
-69.519
11
52.475
21
-69.519
0
LINE
8
BLACK
6
CONTINUOUS
10
69.5819
20
-78.6681
11
69.5819
21
-64.82
0
LINE
8
BLACK
6
CONTINUOUS
10
52.475
20
-69.519
11
52.475
21
-64.82
0
LINE
8
BLACK
6
CONTINUOUS
10
55.8761
20
-65.3686
11
55.8761
21
-66.2881
0
LINE
8
BLACK
6
CONTINUOUS
10
126.732
20
-78.6681
11
126.732
21
-64.82
0
LINE
8
BLACK
6
CONTINUOUS
10
121.533
20
-64.82
11
121.533
21
-78.6681
0
LINE
8
BLACK
6
CONTINUOUS
10
61.5758
20
-69.519
11
60.7503
21
-69.519
0
LINE
8
BLACK
6
CONTINUOUS
10
140.583
20
-78.6681
11
126.732
21
-78.6681
0
LINE
8
BLACK
6
CONTINUOUS
10
24.2671
20
-26.3675
11
24.2695
21
-26.2689
0
LINE
8
BLACK
6
CONTINUOUS
10
24.2695
20
-26.2689
11
24.2768
21
-26.1722
0
LINE
8
BLACK
6
CONTINUOUS
10
24.2768
20
-26.1722
11
24.288
21
-26.0824
0
LINE
8
BLACK
6
CONTINUOUS
10
24.288
20
-26.0824
11
24.3032
21
-25.9936
0
LINE
8
BLACK
6
CONTINUOUS
10
24.3032
20
-25.9936
11
24.322
21
-25.9079
0
LINE
8
BLACK
6
CONTINUOUS
10
24.322
20
-25.9079
11
24.3434
21
-25.8272
0
LINE
8
BLACK
6
CONTINUOUS
10
24.3434
20
-25.8272
11
24.3682
21
-25.7476
0
LINE
8
BLACK
6
CONTINUOUS
10
24.3682
20
-25.7476
11
24.3949
21
-25.6731
0
LINE
8
BLACK
6
CONTINUOUS
10
24.3949
20
-25.6731
11
24.4238
21
-25.6016
0
LINE
8
BLACK
6
CONTINUOUS
10
24.4238
20
-25.6016
11
24.4554
21
-25.5314
0
LINE
8
BLACK
6
CONTINUOUS
10
24.4554
20
-25.5314
11
24.4889
21
-25.4643
0
LINE
8
BLACK
6
CONTINUOUS
10
24.4889
20
-25.4643
11
24.5249
21
-25.3985
0
LINE
8
BLACK
6
CONTINUOUS
10
24.5249
20
-25.3985
11
24.5644
21
-25.3325
0
LINE
8
BLACK
6
CONTINUOUS
10
24.5644
20
-25.3325
11
24.6039
21
-25.272
0
LINE
8
BLACK
6
CONTINUOUS
10
24.6039
20
-25.272
11
24.6453
21
-25.2133
0
LINE
8
BLACK
6
CONTINUOUS
10
24.6453
20
-25.2133
11
24.6897
21
-25.1552
0
LINE
8
BLACK
6
CONTINUOUS
10
24.6897
20
-25.1552
11
24.735
21
-25.1002
0
LINE
8
BLACK
6
CONTINUOUS
10
24.735
20
-25.1002
11
24.7823
21
-25.0468
0
LINE
8
BLACK
6
CONTINUOUS
10
24.7823
20
-25.0468
11
24.8313
21
-24.9955
0
LINE
8
BLACK
6
CONTINUOUS
10
24.8313
20
-24.9955
11
24.8827
21
-24.9455
0
LINE
8
BLACK
6
CONTINUOUS
10
24.8827
20
-24.9455
11
24.9378
21
-24.8957
0
LINE
8
BLACK
6
CONTINUOUS
10
24.9378
20
-24.8957
11
24.9931
21
-24.8495
0
LINE
8
BLACK
6
CONTINUOUS
10
24.9931
20
-24.8495
11
25.0498
21
-24.8055
0
LINE
8
BLACK
6
CONTINUOUS
10
25.0498
20
-24.8055
11
25.1091
21
-24.7628
0
LINE
8
BLACK
6
CONTINUOUS
10
25.1091
20
-24.7628
11
25.1701
21
-24.7224
0
LINE
8
BLACK
6
CONTINUOUS
10
25.1701
20
-24.7224
11
25.2324
21
-24.6844
0
LINE
8
BLACK
6
CONTINUOUS
10
25.2324
20
-24.6844
11
25.2421
21
-24.6788
0
LINE
8
BLACK
6
CONTINUOUS
10
60.7503
20
-69.519
11
60.7503
21
-66.2881
0
LINE
8
BLACK
6
CONTINUOUS
10
25.2421
20
-24.6788
11
25.3066
21
-24.6431
0
LINE
8
BLACK
6
CONTINUOUS
10
25.3066
20
-24.6431
11
25.3736
21
-24.6094
0
LINE
8
BLACK
6
CONTINUOUS
10
25.3736
20
-24.6094
11
25.4438
21
-24.5774
0
LINE
8
BLACK
6
CONTINUOUS
10
25.4438
20
-24.5774
11
25.5181
21
-24.547
0
LINE
8
BLACK
6
CONTINUOUS
10
25.5181
20
-24.547
11
25.5934
21
-24.5199
0
LINE
8
BLACK
6
CONTINUOUS
10
25.5934
20
-24.5199
11
25.6695
21
-24.4959
0
LINE
8
BLACK
6
CONTINUOUS
10
25.6695
20
-24.4959
11
25.7501
21
-24.4742
0
LINE
8
BLACK
6
CONTINUOUS
10
25.7501
20
-24.4742
11
25.8326
21
-24.4558
0
LINE
8
BLACK
6
CONTINUOUS
10
25.8326
20
-24.4558
11
25.9225
21
-24.4399
0
LINE
8
BLACK
6
CONTINUOUS
10
25.9225
20
-24.4399
11
26.0132
21
-24.4282
0
LINE
8
BLACK
6
CONTINUOUS
10
26.0132
20
-24.4282
11
26.1076
21
-24.4206
0
LINE
8
BLACK
6
CONTINUOUS
10
26.1076
20
-24.4206
11
26.2082
21
-24.4175
0
LINE
8
BLACK
6
CONTINUOUS
10
26.2082
20
-24.4175
11
26.3068
21
-24.4196
0
LINE
8
BLACK
6
CONTINUOUS
10
26.3068
20
-24.4196
11
26.4008
21
-24.4262
0
LINE
8
BLACK
6
CONTINUOUS
10
26.4008
20
-24.4262
11
26.4957
21
-24.4375
0
LINE
8
BLACK
6
CONTINUOUS
10
26.4957
20
-24.4375
11
26.5833
21
-24.4522
0
LINE
8
BLACK
6
CONTINUOUS
10
26.5833
20
-24.4522
11
26.6666
21
-24.47
0
LINE
8
BLACK
6
CONTINUOUS
10
26.6666
20
-24.47
11
26.7474
21
-24.491
0
LINE
8
BLACK
6
CONTINUOUS
10
26.7474
20
-24.491
11
26.8275
21
-24.5155
0
LINE
8
BLACK
6
CONTINUOUS
10
26.8275
20
-24.5155
11
26.9015
21
-24.5415
0
LINE
8
BLACK
6
CONTINUOUS
10
26.9015
20
-24.5415
11
26.9737
21
-24.5703
0
LINE
8
BLACK
6
CONTINUOUS
10
26.9737
20
-24.5703
11
27.0437
21
-24.6014
0
LINE
8
BLACK
6
CONTINUOUS
10
27.0437
20
-24.6014
11
27.1113
21
-24.6346
0
LINE
8
BLACK
6
CONTINUOUS
10
27.1113
20
-24.6346
11
27.1825
21
-24.6733
0
LINE
8
BLACK
6
CONTINUOUS
10
27.1825
20
-24.6733
11
27.1921
21
-24.6788
0
LINE
8
BLACK
6
CONTINUOUS
10
88.6319
20
-78.6681
11
88.6319
21
-64.82
0
LINE
8
BLACK
6
CONTINUOUS
10
55.8761
20
-66.2881
11
54.1514
21
-66.2881
0
LINE
8
BLACK
6
CONTINUOUS
10
7.17918
20
-99.9584
11
6.90486
21
-99.806
0
LINE
8
BLACK
6
CONTINUOUS
10
140.583
20
-64.82
11
140.583
21
-78.6681
0
LINE
8
BLACK
6
CONTINUOUS
10
102.483
20
-78.6681
11
88.6319
21
-78.6681
0
LINE
8
BLACK
6
CONTINUOUS
10
126.732
20
-64.82
11
140.583
21
-64.82
0
LINE
8
BLACK
6
CONTINUOUS
10
88.6319
20
-64.82
11
102.483
21
-64.82
0
LINE
8
BLACK
6
CONTINUOUS
10
137.817
20
-21.9607
11
137.882
21
-21.925
0
LINE
8
BLACK
6
CONTINUOUS
10
137.882
20
-21.925
11
137.951
21
-21.8916
0
LINE
8
BLACK
6
CONTINUOUS
10
137.951
20
-21.8916
11
138.022
21
-21.861
0
LINE
8
BLACK
6
CONTINUOUS
10
138.022
20
-21.861
11
138.098
21
-21.833
0
LINE
8
BLACK
6
CONTINUOUS
10
138.098
20
-21.833
11
138.174
21
-21.8089
0
LINE
8
BLACK
6
CONTINUOUS
10
138.174
20
-21.8089
11
138.257
21
-21.7873
0
LINE
8
BLACK
6
CONTINUOUS
10
138.257
20
-21.7873
11
138.342
21
-21.7702
0
LINE
8
BLACK
6
CONTINUOUS
10
138.342
20
-21.7702
11
138.437
21
-21.7565
0
LINE
8
BLACK
6
CONTINUOUS
10
138.437
20
-21.7565
11
138.53
21
-21.7487
0
LINE
8
BLACK
6
CONTINUOUS
10
138.53
20
-21.7487
11
138.629
21
-21.7464
0
LINE
8
BLACK
6
CONTINUOUS
10
138.629
20
-21.7464
11
138.733
21
-21.7505
0
LINE
8
BLACK
6
CONTINUOUS
10
138.733
20
-21.7505
11
138.824
21
-21.7597
0
LINE
8
BLACK
6
CONTINUOUS
10
138.824
20
-21.7597
11
138.911
21
-21.7736
0
LINE
8
BLACK
6
CONTINUOUS
10
138.911
20
-21.7736
11
138.995
21
-21.7917
0
LINE
8
BLACK
6
CONTINUOUS
10
138.995
20
-21.7917
11
139.088
21
-21.8172
0
LINE
8
BLACK
6
CONTINUOUS
10
139.088
20
-21.8172
11
139.164
21
-21.8428
0
LINE
8
BLACK
6
CONTINUOUS
10
139.164
20
-21.8428
11
139.236
21
-21.871
0
LINE
8
BLACK
6
CONTINUOUS
10
139.236
20
-21.871
11
139.306
21
-21.9023
0
LINE
8
BLACK
6
CONTINUOUS
10
139.306
20
-21.9023
11
139.374
21
-21.9365
0
LINE
8
BLACK
6
CONTINUOUS
10
139.374
20
-21.9365
11
139.417
21
-21.9607
0
LINE
8
BLACK
6
CONTINUOUS
10
83.4325
20
-64.82
11
83.4325
21
-78.6681
0
LINE
8
BLACK
6
CONTINUOUS
10
59.0257
20
-65.3686
11
55.8761
21
-65.3686
0
LINE
8
BLACK
6
CONTINUOUS
10
59.0257
20
-66.2881
11
59.0257
21
-65.3686
0
LINE
8
BLACK
6
CONTINUOUS
10
52.475
20
-64.82
11
38.6269
21
-64.82
0
LINE
8
BLACK
6
CONTINUOUS
10
7.6694
20
-78.6681
11
7.6694
21
-64.82
0
LINE
8
BLACK
6
CONTINUOUS
10
98.1569
20
-45.77
11
112.008
21
-45.77
0
LINE
8
BLACK
6
CONTINUOUS
10
121.533
20
-78.6681
11
107.682
21
-78.6681
0
LINE
8
BLACK
6
CONTINUOUS
10
61.5758
20
-72.1682
11
61.5758
21
-69.519
0
LINE
8
BLACK
6
CONTINUOUS
10
69.5819
20
-64.82
11
83.4325
21
-64.82
0
LINE
8
BLACK
6
CONTINUOUS
10
92.9575
20
-45.77
11
92.9575
21
-59.6181
0
LINE
8
BLACK
6
CONTINUOUS
10
60.7503
20
-66.2881
11
59.0257
21
-66.2881
0
LINE
8
BLACK
6
CONTINUOUS
10
83.4325
20
-78.6681
11
69.5819
21
-78.6681
0
LINE
8
BLACK
6
CONTINUOUS
10
73.9075
20
-59.6181
11
60.0569
21
-59.6181
0
LINE
8
BLACK
6
CONTINUOUS
10
107.682
20
-78.6681
11
107.682
21
-64.82
0
LINE
8
BLACK
6
CONTINUOUS
10
7.6694
20
-64.82
11
21.52
21
-64.82
0
LINE
8
BLACK
6
CONTINUOUS
10
59.0257
20
-78.4395
11
60.7503
21
-78.4395
0
LINE
8
BLACK
6
CONTINUOUS
10
102.483
20
-64.82
11
102.483
21
-78.6681
0
LINE
8
BLACK
6
CONTINUOUS
10
107.682
20
-64.82
11
121.533
21
-64.82
0
LINE
8
BLACK
6
CONTINUOUS
10
60.7503
20
-72.1682
11
61.5758
21
-72.1682
0
LINE
8
BLACK
6
CONTINUOUS
10
54.1514
20
-66.2881
11
54.1514
21
-69.519
0
LINE
8
BLACK
6
CONTINUOUS
10
8.99528
20
-4.99538
11
157.448
21
-4.99538
0
LINE
8
BLACK
6
CONTINUOUS
10
138.398
20
-100.395
11
8.99528
21
-100.395
0
LINE
8
BLACK
6
CONTINUOUS
10
150.108
20
-45.77
11
150.108
21
-59.6181
0
LINE
8
BLACK
6
CONTINUOUS
10
188.208
20
-59.6181
11
174.357
21
-59.6181
0
LINE
8
BLACK
6
CONTINUOUS
10
278.113
20
-47.2381
11
278.113
21
-46.3186
0
LINE
8
BLACK
6
CONTINUOUS
10
264.408
20
-59.6181
11
250.557
21
-59.6181
0
LINE
8
BLACK
6
CONTINUOUS
10
278.113
20
-60.3699
11
278.113
21
-59.3895
0
LINE
8
BLACK
6
CONTINUOUS
10
278.113
20
-46.3186
11
274.961
21
-46.3186
0
LINE
8
BLACK
6
CONTINUOUS
10
281.512
20
-45.77
11
281.512
21
-50.469
0
LINE
8
BLACK
6
CONTINUOUS
10
274.961
20
-59.3895
11
274.961
21
-60.3699
0
LINE
8
BLACK
6
CONTINUOUS
10
202.495
20
-40.5681
11
188.644
21
-40.5681
0
LINE
8
BLACK
6
CONTINUOUS
10
298.761
20
-60.3699
11
301.913
21
-60.3699
0
LINE
8
BLACK
6
CONTINUOUS
10
279.838
20
-47.2381
11
278.113
21
-47.2381
0
LINE
8
BLACK
6
CONTINUOUS
10
155.307
20
-45.77
11
169.158
21
-45.77
0
LINE
8
BLACK
6
CONTINUOUS
10
272.414
20
-53.1182
11
273.237
21
-53.1182
0
LINE
8
BLACK
6
CONTINUOUS
10
169.158
20
-59.6181
11
155.307
21
-59.6181
0
LINE
8
BLACK
6
CONTINUOUS
10
301.913
20
-47.2381
11
301.913
21
-46.3186
0
LINE
8
BLACK
6
CONTINUOUS
10
273.237
20
-53.1182
11
273.237
21
-59.3895
0
LINE
8
BLACK
6
CONTINUOUS
10
250.557
20
-59.6181
11
250.557
21
-45.77
0
LINE
8
BLACK
6
CONTINUOUS
10
212.457
20
-45.77
11
226.308
21
-45.77
0
LINE
8
BLACK
6
CONTINUOUS
10
295.363
20
-54.9191
11
297.036
21
-54.9191
0
LINE
8
BLACK
6
CONTINUOUS
10
245.358
20
-45.77
11
245.358
21
-59.6181
0
LINE
8
BLACK
6
CONTINUOUS
10
301.913
20
-60.3699
11
301.913
21
-59.3895
0
LINE
8
BLACK
6
CONTINUOUS
10
174.357
20
-59.6181
11
174.357
21
-45.77
0
LINE
8
BLACK
6
CONTINUOUS
10
169.594
20
-40.5681
11
169.594
21
-26.72
0
LINE
8
BLACK
6
CONTINUOUS
10
303.638
20
-53.1182
11
304.461
21
-53.1182
0
LINE
8
BLACK
6
CONTINUOUS
10
264.844
20
-40.5681
11
264.844
21
-26.72
0
LINE
8
BLACK
6
CONTINUOUS
10
273.237
20
-50.469
11
272.414
21
-50.469
0
LINE
8
BLACK
6
CONTINUOUS
10
155.307
20
-59.6181
11
155.307
21
-45.77
0
LINE
8
BLACK
6
CONTINUOUS
10
245.794
20
-26.72
11
259.645
21
-26.72
0
LINE
8
BLACK
6
CONTINUOUS
10
279.838
20
-50.469
11
279.838
21
-47.2381
0
LINE
8
BLACK
6
CONTINUOUS
10
264.408
20
-45.77
11
264.408
21
-59.6181
0
LINE
8
BLACK
6
CONTINUOUS
10
304.461
20
-50.469
11
303.638
21
-50.469
0
LINE
8
BLACK
6
CONTINUOUS
10
280.493
20
-8.21864
11
277.344
21
-8.21864
0
LINE
8
BLACK
6
CONTINUOUS
10
298.761
20
-46.3186
11
298.761
21
-47.2381
0
LINE
8
BLACK
6
CONTINUOUS
10
272.414
20
-50.469
11
272.414
21
-53.1182
0
LINE
8
BLACK
6
CONTINUOUS
10
250.557
20
-45.77
11
264.408
21
-45.77
0
LINE
8
BLACK
6
CONTINUOUS
10
301.913
20
-46.3186
11
298.761
21
-46.3186
0
LINE
8
BLACK
6
CONTINUOUS
10
303.638
20
-59.3895
11
303.638
21
-53.1182
0
LINE
8
BLACK
6
CONTINUOUS
10
304.461
20
-53.1182
11
304.461
21
-50.469
0
LINE
8
BLACK
6
CONTINUOUS
10
273.237
20
-59.3895
11
274.961
21
-59.3895
0
LINE
8
BLACK
6
CONTINUOUS
10
297.036
20
-59.3895
11
298.761
21
-59.3895
0
LINE
8
BLACK
6
CONTINUOUS
10
279.838
20
-54.9191
11
281.512
21
-54.9191
0
LINE
8
BLACK
6
CONTINUOUS
10
279.838
20
-59.3895
11
279.838
21
-54.9191
0
LINE
8
BLACK
6
CONTINUOUS
10
288.657
20
-40.5681
11
288.657
21
-26.72
0
LINE
8
BLACK
6
CONTINUOUS
10
301.913
20
-59.3895
11
303.638
21
-59.3895
0
LINE
8
BLACK
6
CONTINUOUS
10
298.761
20
-59.3895
11
298.761
21
-60.3699
0
LINE
8
BLACK
6
CONTINUOUS
10
277.344
20
-8.21864
11
277.344
21
-9.13812
0
LINE
8
BLACK
6
CONTINUOUS
10
281.512
20
-50.469
11
279.838
21
-50.469
0
LINE
8
BLACK
6
CONTINUOUS
10
212.457
20
-59.6181
11
212.457
21
-45.77
0
LINE
8
BLACK
6
CONTINUOUS
10
295.363
20
-45.77
11
281.512
21
-45.77
0
LINE
8
BLACK
6
CONTINUOUS
10
183.445
20
-26.72
11
183.445
21
-40.5681
0
LINE
8
BLACK
6
CONTINUOUS
10
298.761
20
-47.2381
11
297.036
21
-47.2381
0
LINE
8
BLACK
6
CONTINUOUS
10
259.645
20
-26.72
11
259.645
21
-40.5681
0
LINE
8
BLACK
6
CONTINUOUS
10
303.638
20
-47.2381
11
301.913
21
-47.2381
0
LINE
8
BLACK
6
CONTINUOUS
10
226.744
20
-40.5681
11
226.744
21
-26.72
0
LINE
8
BLACK
6
CONTINUOUS
10
169.594
20
-26.72
11
183.445
21
-26.72
0
LINE
8
BLACK
6
CONTINUOUS
10
207.694
20
-26.72
11
221.545
21
-26.72
0
LINE
8
BLACK
6
CONTINUOUS
10
188.644
20
-40.5681
11
188.644
21
-26.72
0
LINE
8
BLACK
6
CONTINUOUS
10
295.363
20
-50.469
11
295.363
21
-45.77
0
LINE
8
BLACK
6
CONTINUOUS
10
221.545
20
-40.5681
11
207.694
21
-40.5681
0
LINE
8
BLACK
6
CONTINUOUS
10
226.308
20
-45.77
11
226.308
21
-59.6181
0
LINE
8
BLACK
6
CONTINUOUS
10
188.644
20
-26.72
11
202.495
21
-26.72
0
LINE
8
BLACK
6
CONTINUOUS
10
245.358
20
-59.6181
11
231.507
21
-59.6181
0
LINE
8
BLACK
6
CONTINUOUS
10
231.507
20
-45.77
11
245.358
21
-45.77
0
LINE
8
BLACK
6
CONTINUOUS
10
231.507
20
-59.6181
11
231.507
21
-45.77
0
LINE
8
BLACK
6
CONTINUOUS
10
174.357
20
-45.77
11
188.208
21
-45.77
0
LINE
8
BLACK
6
CONTINUOUS
10
302.508
20
-40.5681
11
288.657
21
-40.5681
0
LINE
8
BLACK
6
CONTINUOUS
10
179.119
20
-21.5181
11
179.119
21
-7.67
0
LINE
8
BLACK
6
CONTINUOUS
10
275.619
20
-9.13812
11
275.619
21
-12.369
0
LINE
8
BLACK
6
CONTINUOUS
10
275.619
20
-12.369
11
274.794
21
-12.369
0
LINE
8
BLACK
6
CONTINUOUS
10
275.619
20
-21.2895
11
277.344
21
-21.2895
0
LINE
8
BLACK
6
CONTINUOUS
10
212.02
20
-7.67
11
212.02
21
-21.5181
0
LINE
8
BLACK
6
CONTINUOUS
10
160.069
20
-21.5181
11
160.069
21
-7.67
0
LINE
8
BLACK
6
CONTINUOUS
10
173.92
20
-7.67
11
173.92
21
-21.5181
0
LINE
8
BLACK
6
CONTINUOUS
10
283.894
20
-7.67
11
283.894
21
-12.369
0
LINE
8
BLACK
6
CONTINUOUS
10
202.495
20
-26.72
11
202.495
21
-40.5681
0
LINE
8
BLACK
6
CONTINUOUS
10
250.12
20
-7.67
11
250.12
21
-21.5181
0
LINE
8
BLACK
6
CONTINUOUS
10
259.645
20
-40.5681
11
245.794
21
-40.5681
0
LINE
8
BLACK
6
CONTINUOUS
10
150.544
20
-26.72
11
164.395
21
-26.72
0
LINE
8
BLACK
6
CONTINUOUS
10
297.745
20
-7.67
11
283.894
21
-7.67
0
LINE
8
BLACK
6
CONTINUOUS
10
192.97
20
-21.5181
11
179.119
21
-21.5181
0
LINE
8
BLACK
6
CONTINUOUS
10
226.308
20
-59.6181
11
212.457
21
-59.6181
0
LINE
8
BLACK
6
CONTINUOUS
10
193.407
20
-45.77
11
207.258
21
-45.77
0
LINE
8
BLACK
6
CONTINUOUS
10
236.269
20
-7.67
11
250.12
21
-7.67
0
LINE
8
BLACK
6
CONTINUOUS
10
188.208
20
-45.77
11
188.208
21
-59.6181
0
LINE
8
BLACK
6
CONTINUOUS
10
282.218
20
-12.369
11
282.218
21
-9.13812
0
LINE
8
BLACK
6
CONTINUOUS
10
282.218
20
-16.8191
11
283.894
21
-16.8191
0
LINE
8
BLACK
6
CONTINUOUS
10
164.395
20
-40.5681
11
150.544
21
-40.5681
0
LINE
8
BLACK
6
CONTINUOUS
10
264.844
20
-26.72
11
278.695
21
-26.72
0
LINE
8
BLACK
6
CONTINUOUS
10
280.493
20
-9.13812
11
280.493
21
-8.21864
0
LINE
8
BLACK
6
CONTINUOUS
10
283.894
20
-12.369
11
282.218
21
-12.369
0
LINE
8
BLACK
6
CONTINUOUS
10
226.744
20
-26.72
11
240.595
21
-26.72
0
LINE
8
BLACK
6
CONTINUOUS
10
283.894
20
-21.5181
11
297.745
21
-21.5181
0
LINE
8
BLACK
6
CONTINUOUS
10
198.169
20
-21.5181
11
198.169
21
-7.67
0
LINE
8
BLACK
6
CONTINUOUS
10
231.07
20
-21.5181
11
217.219
21
-21.5181
0
LINE
8
BLACK
6
CONTINUOUS
10
306.018
20
-9.13812
11
304.293
21
-9.13812
0
LINE
8
BLACK
6
CONTINUOUS
10
304.293
20
-9.13812
11
304.293
21
-8.21864
0
LINE
8
BLACK
6
CONTINUOUS
10
304.293
20
-8.21864
11
301.146
21
-8.21864
0
LINE
8
BLACK
6
CONTINUOUS
10
164.395
20
-26.72
11
164.395
21
-40.5681
0
LINE
8
BLACK
6
CONTINUOUS
10
278.695
20
-26.72
11
278.695
21
-40.5681
0
LINE
8
BLACK
6
CONTINUOUS
10
183.445
20
-40.5681
11
169.594
21
-40.5681
0
LINE
8
BLACK
6
CONTINUOUS
10
282.218
20
-9.13812
11
280.493
21
-9.13812
0
LINE
8
BLACK
6
CONTINUOUS
10
297.036
20
-50.469
11
295.363
21
-50.469
0
LINE
8
BLACK
6
CONTINUOUS
10
250.12
20
-21.5181
11
236.269
21
-21.5181
0
LINE
8
BLACK
6
CONTINUOUS
10
297.036
20
-47.2381
11
297.036
21
-50.469
0
LINE
8
BLACK
6
CONTINUOUS
10
179.119
20
-7.67
11
192.97
21
-7.67
0
LINE
8
BLACK
6
CONTINUOUS
10
212.02
20
-21.5181
11
198.169
21
-21.5181
0
LINE
8
BLACK
6
CONTINUOUS
10
306.018
20
-15.0182
11
306.846
21
-15.0182
0
LINE
8
BLACK
6
CONTINUOUS
10
150.544
20
-40.5681
11
150.544
21
-26.72
0
LINE
8
BLACK
6
CONTINUOUS
10
301.146
20
-21.2895
11
301.146
21
-22.2699
0
LINE
8
BLACK
6
CONTINUOUS
10
245.794
20
-40.5681
11
245.794
21
-26.72
0
LINE
8
BLACK
6
CONTINUOUS
10
236.269
20
-21.5181
11
236.269
21
-7.67
0
LINE
8
BLACK
6
CONTINUOUS
10
217.219
20
-21.5181
11
217.219
21
-7.67
0
LINE
8
BLACK
6
CONTINUOUS
10
269.17
20
-7.67
11
269.17
21
-21.5181
0
LINE
8
BLACK
6
CONTINUOUS
10
207.694
20
-40.5681
11
207.694
21
-26.72
0
LINE
8
BLACK
6
CONTINUOUS
10
299.419
20
-9.13812
11
299.419
21
-12.369
0
LINE
8
BLACK
6
CONTINUOUS
10
221.545
20
-26.72
11
221.545
21
-40.5681
0
LINE
8
BLACK
6
CONTINUOUS
10
301.146
20
-9.13812
11
299.419
21
-9.13812
0
LINE
8
BLACK
6
CONTINUOUS
10
160.069
20
-7.67
11
173.92
21
-7.67
0
LINE
8
BLACK
6
CONTINUOUS
10
278.695
20
-40.5681
11
264.844
21
-40.5681
0
LINE
8
BLACK
6
CONTINUOUS
10
304.293
20
-22.2699
11
304.293
21
-21.2895
0
LINE
8
BLACK
6
CONTINUOUS
10
301.146
20
-8.21864
11
301.146
21
-9.13812
0
LINE
8
BLACK
6
CONTINUOUS
10
299.419
20
-12.369
11
297.745
21
-12.369
0
LINE
8
BLACK
6
CONTINUOUS
10
240.595
20
-40.5681
11
226.744
21
-40.5681
0
LINE
8
BLACK
6
CONTINUOUS
10
240.595
20
-26.72
11
240.595
21
-40.5681
0
LINE
8
BLACK
6
CONTINUOUS
10
297.745
20
-12.369
11
297.745
21
-7.67
0
LINE
8
BLACK
6
CONTINUOUS
10
274.794
20
-15.0182
11
275.619
21
-15.0182
0
LINE
8
BLACK
6
CONTINUOUS
10
157.687
20
-88.569
11
156.013
21
-88.569
0
LINE
8
BLACK
6
CONTINUOUS
10
299.419
20
-16.8191
11
299.419
21
-21.2895
0
LINE
8
BLACK
6
CONTINUOUS
10
198.169
20
-7.67
11
212.02
21
-7.67
0
LINE
8
BLACK
6
CONTINUOUS
10
280.493
20
-22.2699
11
280.493
21
-21.2895
0
LINE
8
BLACK
6
CONTINUOUS
10
149.412
20
-91.2182
11
149.412
21
-97.4895
0
LINE
8
BLACK
6
CONTINUOUS
10
148.589
20
-88.569
11
148.589
21
-91.2182
0
LINE
8
BLACK
6
CONTINUOUS
10
154.288
20
-97.4895
11
156.013
21
-97.4895
0
LINE
8
BLACK
6
CONTINUOUS
10
255.319
20
-21.5181
11
255.319
21
-7.67
0
LINE
8
BLACK
6
CONTINUOUS
10
306.846
20
-12.369
11
306.018
21
-12.369
0
LINE
8
BLACK
6
CONTINUOUS
10
255.319
20
-7.67
11
269.17
21
-7.67
0
LINE
8
BLACK
6
CONTINUOUS
10
282.218
20
-21.2895
11
282.218
21
-16.8191
0
LINE
8
BLACK
6
CONTINUOUS
10
306.018
20
-12.369
11
306.018
21
-9.13812
0
LINE
8
BLACK
6
CONTINUOUS
10
173.92
20
-21.5181
11
160.069
21
-21.5181
0
LINE
8
BLACK
6
CONTINUOUS
10
275.619
20
-15.0182
11
275.619
21
-21.2895
0
LINE
8
BLACK
6
CONTINUOUS
10
277.344
20
-9.13812
11
275.619
21
-9.13812
0
LINE
8
BLACK
6
CONTINUOUS
10
274.794
20
-12.369
11
274.794
21
-15.0182
0
LINE
8
BLACK
6
CONTINUOUS
10
297.745
20
-16.8191
11
299.419
21
-16.8191
0
LINE
8
BLACK
6
CONTINUOUS
10
297.745
20
-21.5181
11
297.745
21
-16.8191
0
LINE
8
BLACK
6
CONTINUOUS
10
306.018
20
-21.2895
11
306.018
21
-15.0182
0
LINE
8
BLACK
6
CONTINUOUS
10
277.344
20
-21.2895
11
277.344
21
-22.2699
0
LINE
8
BLACK
6
CONTINUOUS
10
299.419
20
-21.2895
11
301.146
21
-21.2895
0
LINE
8
BLACK
6
CONTINUOUS
10
269.17
20
-21.5181
11
255.319
21
-21.5181
0
LINE
8
BLACK
6
CONTINUOUS
10
306.846
20
-15.0182
11
306.846
21
-12.369
0
LINE
8
BLACK
6
CONTINUOUS
10
217.219
20
-7.67
11
231.07
21
-7.67
0
LINE
8
BLACK
6
CONTINUOUS
10
231.07
20
-7.67
11
231.07
21
-21.5181
0
LINE
8
BLACK
6
CONTINUOUS
10
277.344
20
-22.2699
11
280.493
21
-22.2699
0
LINE
8
BLACK
6
CONTINUOUS
10
304.293
20
-21.2895
11
306.018
21
-21.2895
0
LINE
8
BLACK
6
CONTINUOUS
10
301.146
20
-22.2699
11
304.293
21
-22.2699
0
LINE
8
BLACK
6
CONTINUOUS
10
283.894
20
-16.8191
11
283.894
21
-21.5181
0
LINE
8
BLACK
6
CONTINUOUS
10
192.97
20
-7.67
11
192.97
21
-21.5181
0
LINE
8
BLACK
6
CONTINUOUS
10
173.211
20
-97.4895
11
174.936
21
-97.4895
0
LINE
8
BLACK
6
CONTINUOUS
10
280.493
20
-21.2895
11
282.218
21
-21.2895
0
LINE
8
BLACK
6
CONTINUOUS
10
178.088
20
-97.4895
11
179.813
21
-97.4895
0
LINE
8
BLACK
6
CONTINUOUS
10
180.636
20
-88.569
11
179.813
21
-88.569
0
LINE
8
BLACK
6
CONTINUOUS
10
171.537
20
-83.87
11
157.687
21
-83.87
0
LINE
8
BLACK
6
CONTINUOUS
10
149.412
20
-85.3381
11
149.412
21
-88.569
0
LINE
8
BLACK
6
CONTINUOUS
10
273.933
20
-97.7181
11
260.082
21
-97.7181
0
LINE
8
BLACK
6
CONTINUOUS
10
179.813
20
-88.569
11
179.813
21
-85.3381
0
LINE
8
BLACK
6
CONTINUOUS
10
154.288
20
-98.4699
11
154.288
21
-97.4895
0
LINE
8
BLACK
6
CONTINUOUS
10
148.589
20
-91.2182
11
149.412
21
-91.2182
0
LINE
8
BLACK
6
CONTINUOUS
10
149.412
20
-88.569
11
148.589
21
-88.569
0
LINE
8
BLACK
6
CONTINUOUS
10
241.032
20
-83.87
11
254.883
21
-83.87
0
LINE
8
BLACK
6
CONTINUOUS
10
174.936
20
-85.3381
11
173.211
21
-85.3381
0
LINE
8
BLACK
6
CONTINUOUS
10
180.636
20
-91.2182
11
180.636
21
-88.569
0
LINE
8
BLACK
6
CONTINUOUS
10
157.687
20
-93.0191
11
157.687
21
-97.7181
0
LINE
8
BLACK
6
CONTINUOUS
10
178.088
20
-85.3381
11
178.088
21
-84.4186
0
LINE
8
BLACK
6
CONTINUOUS
10
151.136
20
-84.4186
11
151.136
21
-85.3381
0
LINE
8
BLACK
6
CONTINUOUS
10
156.013
20
-93.0191
11
157.687
21
-93.0191
0
LINE
8
BLACK
6
CONTINUOUS
10
178.088
20
-98.4699
11
178.088
21
-97.4895
0
LINE
8
BLACK
6
CONTINUOUS
10
260.082
20
-97.7181
11
260.082
21
-83.87
0
LINE
8
BLACK
6
CONTINUOUS
10
173.211
20
-88.569
11
171.537
21
-88.569
0
LINE
8
BLACK
6
CONTINUOUS
10
157.687
20
-97.7181
11
171.537
21
-97.7181
0
LINE
8
BLACK
6
CONTINUOUS
10
179.813
20
-97.4895
11
179.813
21
-91.2182
0
LINE
8
BLACK
6
CONTINUOUS
10
154.288
20
-85.3381
11
154.288
21
-84.4186
0
LINE
8
BLACK
6
CONTINUOUS
10
173.211
20
-93.0191
11
173.211
21
-97.4895
0
LINE
8
BLACK
6
CONTINUOUS
10
156.013
20
-88.569
11
156.013
21
-85.3381
0
LINE
8
BLACK
6
CONTINUOUS
10
171.537
20
-88.569
11
171.537
21
-83.87
0
LINE
8
BLACK
6
CONTINUOUS
10
151.136
20
-97.4895
11
151.136
21
-98.4699
0
LINE
8
BLACK
6
CONTINUOUS
10
173.211
20
-85.3381
11
173.211
21
-88.569
0
LINE
8
BLACK
6
CONTINUOUS
10
156.013
20
-97.4895
11
156.013
21
-93.0191
0
LINE
8
BLACK
6
CONTINUOUS
10
219.602
20
-83.87
11
233.45
21
-83.87
0
LINE
8
BLACK
6
CONTINUOUS
10
179.813
20
-91.2182
11
180.636
21
-91.2182
0
LINE
8
BLACK
6
CONTINUOUS
10
273.933
20
-83.87
11
273.933
21
-97.7181
0
LINE
8
BLACK
6
CONTINUOUS
10
279.132
20
-97.7181
11
279.132
21
-83.87
0
LINE
8
BLACK
6
CONTINUOUS
10
209.637
20
-83.87
11
209.637
21
-97.7181
0
LINE
8
BLACK
6
CONTINUOUS
10
254.883
20
-83.87
11
254.883
21
-97.7181
0
LINE
8
BLACK
6
CONTINUOUS
10
149.412
20
-97.4895
11
151.136
21
-97.4895
0
LINE
8
BLACK
6
CONTINUOUS
10
154.288
20
-84.4186
11
151.136
21
-84.4186
0
LINE
8
BLACK
6
CONTINUOUS
10
174.936
20
-84.4186
11
174.936
21
-85.3381
0
LINE
8
BLACK
6
CONTINUOUS
10
260.082
20
-83.87
11
273.933
21
-83.87
0
LINE
8
BLACK
6
CONTINUOUS
10
292.983
20
-97.7181
11
279.132
21
-97.7181
0
LINE
8
BLACK
6
CONTINUOUS
10
241.032
20
-97.7181
11
241.032
21
-83.87
0
LINE
8
BLACK
6
CONTINUOUS
10
151.136
20
-85.3381
11
149.412
21
-85.3381
0
LINE
8
BLACK
6
CONTINUOUS
10
171.537
20
-93.0191
11
173.211
21
-93.0191
0
LINE
8
BLACK
6
CONTINUOUS
10
178.088
20
-84.4186
11
174.936
21
-84.4186
0
LINE
8
BLACK
6
CONTINUOUS
10
209.637
20
-97.7181
11
195.787
21
-97.7181
0
LINE
8
BLACK
6
CONTINUOUS
10
157.687
20
-83.87
11
157.687
21
-88.569
0
LINE
8
BLACK
6
CONTINUOUS
10
151.136
20
-98.4699
11
154.288
21
-98.4699
0
LINE
8
BLACK
6
CONTINUOUS
10
171.537
20
-97.7181
11
171.537
21
-93.0191
0
LINE
8
BLACK
6
CONTINUOUS
10
292.983
20
-83.87
11
292.983
21
-97.7181
0
LINE
8
BLACK
6
CONTINUOUS
10
195.787
20
-83.87
11
209.637
21
-83.87
0
LINE
8
BLACK
6
CONTINUOUS
10
156.013
20
-85.3381
11
154.288
21
-85.3381
0
LINE
8
BLACK
6
CONTINUOUS
10
174.936
20
-97.4895
11
174.936
21
-98.4699
0
LINE
8
BLACK
6
CONTINUOUS
10
174.936
20
-98.4699
11
178.088
21
-98.4699
0
LINE
8
BLACK
6
CONTINUOUS
10
254.883
20
-97.7181
11
241.032
21
-97.7181
0
LINE
8
BLACK
6
CONTINUOUS
10
233.45
20
-83.87
11
233.45
21
-97.7181
0
LINE
8
BLACK
6
CONTINUOUS
10
179.813
20
-85.3381
11
178.088
21
-85.3381
0
LINE
8
BLACK
6
CONTINUOUS
10
279.132
20
-83.87
11
292.983
21
-83.87
0
LINE
8
BLACK
6
CONTINUOUS
10
141.196
20
-95.3973
11
141.199
21
-95.2987
0
LINE
8
BLACK
6
CONTINUOUS
10
141.199
20
-95.2987
11
141.206
21
-95.2019
0
LINE
8
BLACK
6
CONTINUOUS
10
141.206
20
-95.2019
11
141.217
21
-95.1121
0
LINE
8
BLACK
6
CONTINUOUS
10
141.217
20
-95.1121
11
141.232
21
-95.0234
0
LINE
8
BLACK
6
CONTINUOUS
10
141.232
20
-95.0234
11
141.251
21
-94.9376
0
LINE
8
BLACK
6
CONTINUOUS
10
141.251
20
-94.9376
11
141.272
21
-94.8569
0
LINE
8
BLACK
6
CONTINUOUS
10
141.272
20
-94.8569
11
141.297
21
-94.7774
0
LINE
8
BLACK
6
CONTINUOUS
10
141.297
20
-94.7774
11
141.324
21
-94.7028
0
LINE
8
BLACK
6
CONTINUOUS
10
141.324
20
-94.7028
11
141.353
21
-94.6313
0
LINE
8
BLACK
6
CONTINUOUS
10
141.353
20
-94.6313
11
141.384
21
-94.5611
0
LINE
8
BLACK
6
CONTINUOUS
10
141.384
20
-94.5611
11
141.418
21
-94.494
0
LINE
8
BLACK
6
CONTINUOUS
10
141.418
20
-94.494
11
141.454
21
-94.4283
0
LINE
8
BLACK
6
CONTINUOUS
10
141.454
20
-94.4283
11
141.493
21
-94.3623
0
LINE
8
BLACK
6
CONTINUOUS
10
141.493
20
-94.3623
11
141.533
21
-94.3017
0
LINE
8
BLACK
6
CONTINUOUS
10
141.533
20
-94.3017
11
141.574
21
-94.2431
0
LINE
8
BLACK
6
CONTINUOUS
10
141.574
20
-94.2431
11
141.619
21
-94.185
0
LINE
8
BLACK
6
CONTINUOUS
10
141.619
20
-94.185
11
141.664
21
-94.13
0
LINE
8
BLACK
6
CONTINUOUS
10
141.664
20
-94.13
11
141.711
21
-94.0766
0
LINE
8
BLACK
6
CONTINUOUS
10
141.711
20
-94.0766
11
141.76
21
-94.0253
0
LINE
8
BLACK
6
CONTINUOUS
10
141.76
20
-94.0253
11
141.812
21
-93.9753
0
LINE
8
BLACK
6
CONTINUOUS
10
141.812
20
-93.9753
11
141.867
21
-93.9255
0
LINE
8
BLACK
6
CONTINUOUS
10
141.867
20
-93.9255
11
141.922
21
-93.8792
0
LINE
8
BLACK
6
CONTINUOUS
10
141.922
20
-93.8792
11
141.979
21
-93.8352
0
LINE
8
BLACK
6
CONTINUOUS
10
141.979
20
-93.8352
11
142.038
21
-93.7926
0
LINE
8
BLACK
6
CONTINUOUS
10
142.038
20
-93.7926
11
142.099
21
-93.7522
0
LINE
8
BLACK
6
CONTINUOUS
10
142.099
20
-93.7522
11
142.161
21
-93.7142
0
LINE
8
BLACK
6
CONTINUOUS
10
142.161
20
-93.7142
11
142.171
21
-93.7085
0
LINE
8
BLACK
6
CONTINUOUS
10
145.096
20
-95.3973
11
145.094
21
-95.4954
0
LINE
8
BLACK
6
CONTINUOUS
10
145.094
20
-95.4954
11
145.086
21
-95.5926
0
LINE
8
BLACK
6
CONTINUOUS
10
145.086
20
-95.5926
11
145.075
21
-95.6824
0
LINE
8
BLACK
6
CONTINUOUS
10
145.075
20
-95.6824
11
145.06
21
-95.7712
0
LINE
8
BLACK
6
CONTINUOUS
10
145.06
20
-95.7712
11
145.042
21
-95.8545
0
LINE
8
BLACK
6
CONTINUOUS
10
145.042
20
-95.8545
11
145.021
21
-95.9338
0
LINE
8
BLACK
6
CONTINUOUS
10
145.021
20
-95.9338
11
144.997
21
-96.0111
0
LINE
8
BLACK
6
CONTINUOUS
10
144.997
20
-96.0111
11
144.971
21
-96.0855
0
LINE
8
BLACK
6
CONTINUOUS
10
144.971
20
-96.0855
11
144.942
21
-96.1578
0
LINE
8
BLACK
6
CONTINUOUS
10
144.942
20
-96.1578
11
144.909
21
-96.2316
0
LINE
8
BLACK
6
CONTINUOUS
10
144.909
20
-96.2316
11
144.875
21
-96.2988
0
LINE
8
BLACK
6
CONTINUOUS
10
144.875
20
-96.2988
11
144.84
21
-96.3642
0
LINE
8
BLACK
6
CONTINUOUS
10
144.84
20
-96.3642
11
144.8
21
-96.43
0
LINE
8
BLACK
6
CONTINUOUS
10
144.8
20
-96.43
11
144.76
21
-96.4918
0
LINE
8
BLACK
6
CONTINUOUS
10
144.76
20
-96.4918
11
144.718
21
-96.5515
0
LINE
8
BLACK
6
CONTINUOUS
10
144.718
20
-96.5515
11
144.674
21
-96.6096
0
LINE
8
BLACK
6
CONTINUOUS
10
144.674
20
-96.6096
11
144.628
21
-96.6646
0
LINE
8
BLACK
6
CONTINUOUS
10
144.628
20
-96.6646
11
144.581
21
-96.718
0
LINE
8
BLACK
6
CONTINUOUS
10
144.581
20
-96.718
11
144.53
21
-96.7711
0
LINE
8
BLACK
6
CONTINUOUS
10
144.53
20
-96.7711
11
144.479
21
-96.821
0
LINE
8
BLACK
6
CONTINUOUS
10
144.479
20
-96.821
11
144.425
21
-96.8691
0
LINE
8
BLACK
6
CONTINUOUS
10
144.425
20
-96.8691
11
144.37
21
-96.9153
0
LINE
8
BLACK
6
CONTINUOUS
10
144.37
20
-96.9153
11
144.313
21
-96.9593
0
LINE
8
BLACK
6
CONTINUOUS
10
144.313
20
-96.9593
11
144.255
21
-97.0017
0
LINE
8
BLACK
6
CONTINUOUS
10
144.255
20
-97.0017
11
144.192
21
-97.0433
0
LINE
8
BLACK
6
CONTINUOUS
10
144.192
20
-97.0433
11
144.126
21
-97.0832
0
LINE
8
BLACK
6
CONTINUOUS
10
144.126
20
-97.0832
11
144.121
21
-97.086
0
LINE
8
BLACK
6
CONTINUOUS
10
209.896
20
-42.1964
11
209.994
21
-42.1994
0
LINE
8
BLACK
6
CONTINUOUS
10
209.994
20
-42.1994
11
210.086
21
-42.2076
0
LINE
8
BLACK
6
CONTINUOUS
10
210.086
20
-42.2076
11
210.175
21
-42.2206
0
LINE
8
BLACK
6
CONTINUOUS
10
210.175
20
-42.2206
11
210.259
21
-42.2378
0
LINE
8
BLACK
6
CONTINUOUS
10
210.259
20
-42.2378
11
210.339
21
-42.2586
0
LINE
8
BLACK
6
CONTINUOUS
10
210.339
20
-42.2586
11
210.417
21
-42.2833
0
LINE
8
BLACK
6
CONTINUOUS
10
210.417
20
-42.2833
11
210.491
21
-42.3108
0
LINE
8
BLACK
6
CONTINUOUS
10
210.491
20
-42.3108
11
210.562
21
-42.341
0
LINE
8
BLACK
6
CONTINUOUS
10
210.562
20
-42.341
11
210.63
21
-42.3742
0
LINE
8
BLACK
6
CONTINUOUS
10
210.63
20
-42.3742
11
210.698
21
-42.4114
0
LINE
8
BLACK
6
CONTINUOUS
10
210.698
20
-42.4114
11
210.763
21
-42.4514
0
LINE
8
BLACK
6
CONTINUOUS
10
210.763
20
-42.4514
11
210.825
21
-42.4939
0
LINE
8
BLACK
6
CONTINUOUS
10
210.825
20
-42.4939
11
210.885
21
-42.5386
0
LINE
8
BLACK
6
CONTINUOUS
10
210.885
20
-42.5386
11
210.94
21
-42.5838
0
LINE
8
BLACK
6
CONTINUOUS
10
210.94
20
-42.5838
11
210.993
21
-42.632
0
LINE
8
BLACK
6
CONTINUOUS
10
210.993
20
-42.632
11
211.045
21
-42.6832
0
LINE
8
BLACK
6
CONTINUOUS
10
211.045
20
-42.6832
11
211.095
21
-42.7369
0
LINE
8
BLACK
6
CONTINUOUS
10
211.095
20
-42.7369
11
211.141
21
-42.7912
0
LINE
8
BLACK
6
CONTINUOUS
10
211.141
20
-42.7912
11
211.185
21
-42.8483
0
LINE
8
BLACK
6
CONTINUOUS
10
211.185
20
-42.8483
11
211.227
21
-42.9083
0
LINE
8
BLACK
6
CONTINUOUS
10
211.227
20
-42.9083
11
211.268
21
-42.9722
0
LINE
8
BLACK
6
CONTINUOUS
10
211.268
20
-42.9722
11
211.304
21
-43.0362
0
LINE
8
BLACK
6
CONTINUOUS
10
211.304
20
-43.0362
11
211.339
21
-43.1044
0
LINE
8
BLACK
6
CONTINUOUS
10
211.339
20
-43.1044
11
211.372
21
-43.1773
0
LINE
8
BLACK
6
CONTINUOUS
10
211.372
20
-43.1773
11
211.401
21
-43.252
0
LINE
8
BLACK
6
CONTINUOUS
10
211.401
20
-43.252
11
211.427
21
-43.3289
0
LINE
8
BLACK
6
CONTINUOUS
10
211.427
20
-43.3289
11
211.449
21
-43.4079
0
LINE
8
BLACK
6
CONTINUOUS
10
211.449
20
-43.4079
11
211.467
21
-43.4902
0
LINE
8
BLACK
6
CONTINUOUS
10
211.467
20
-43.4902
11
211.481
21
-43.577
0
LINE
8
BLACK
6
CONTINUOUS
10
211.481
20
-43.577
11
211.491
21
-43.6695
0
LINE
8
BLACK
6
CONTINUOUS
10
211.491
20
-43.6695
11
211.496
21
-43.7667
0
LINE
8
BLACK
6
CONTINUOUS
10
211.496
20
-43.7667
11
211.496
21
-43.7964
0
LINE
8
BLACK
6
CONTINUOUS
10
142.171
20
-97.086
11
142.106
21
-97.0466
0
LINE
8
BLACK
6
CONTINUOUS
10
142.106
20
-97.0466
11
142.045
21
-97.0065
0
LINE
8
BLACK
6
CONTINUOUS
10
142.045
20
-97.0065
11
141.984
21
-96.9635
0
LINE
8
BLACK
6
CONTINUOUS
10
141.984
20
-96.9635
11
141.921
21
-96.9141
0
LINE
8
BLACK
6
CONTINUOUS
10
141.921
20
-96.9141
11
141.866
21
-96.8681
0
LINE
8
BLACK
6
CONTINUOUS
10
141.866
20
-96.8681
11
141.813
21
-96.8206
0
LINE
8
BLACK
6
CONTINUOUS
10
141.813
20
-96.8206
11
141.762
21
-96.7711
0
LINE
8
BLACK
6
CONTINUOUS
10
141.762
20
-96.7711
11
141.71
21
-96.7165
0
LINE
8
BLACK
6
CONTINUOUS
10
141.71
20
-96.7165
11
141.663
21
-96.6631
0
LINE
8
BLACK
6
CONTINUOUS
10
141.663
20
-96.6631
11
141.618
21
-96.6081
0
LINE
8
BLACK
6
CONTINUOUS
10
141.618
20
-96.6081
11
141.574
21
-96.5511
0
LINE
8
BLACK
6
CONTINUOUS
10
141.574
20
-96.5511
11
141.532
21
-96.4918
0
LINE
8
BLACK
6
CONTINUOUS
10
141.532
20
-96.4918
11
141.492
21
-96.4306
0
LINE
8
BLACK
6
CONTINUOUS
10
141.492
20
-96.4306
11
141.455
21
-96.3676
0
LINE
8
BLACK
6
CONTINUOUS
10
141.455
20
-96.3676
11
141.419
21
-96.3023
0
LINE
8
BLACK
6
CONTINUOUS
10
141.419
20
-96.3023
11
141.385
21
-96.2352
0
LINE
8
BLACK
6
CONTINUOUS
10
141.385
20
-96.2352
11
141.351
21
-96.1596
0
LINE
8
BLACK
6
CONTINUOUS
10
141.351
20
-96.1596
11
141.323
21
-96.088
0
LINE
8
BLACK
6
CONTINUOUS
10
141.323
20
-96.088
11
141.296
21
-96.0134
0
LINE
8
BLACK
6
CONTINUOUS
10
141.296
20
-96.0134
11
141.272
21
-95.9357
0
LINE
8
BLACK
6
CONTINUOUS
10
141.272
20
-95.9357
11
141.251
21
-95.855
0
LINE
8
BLACK
6
CONTINUOUS
10
141.251
20
-95.855
11
141.232
21
-95.771
0
LINE
8
BLACK
6
CONTINUOUS
10
141.232
20
-95.771
11
141.217
21
-95.6844
0
LINE
8
BLACK
6
CONTINUOUS
10
141.217
20
-95.6844
11
141.206
21
-95.5946
0
LINE
8
BLACK
6
CONTINUOUS
10
141.206
20
-95.5946
11
141.199
21
-95.5004
0
LINE
8
BLACK
6
CONTINUOUS
10
141.199
20
-95.5004
11
141.196
21
-95.4024
0
LINE
8
BLACK
6
CONTINUOUS
10
141.196
20
-95.4024
11
141.196
21
-95.3973
0
LINE
8
BLACK
6
CONTINUOUS
10
144.121
20
-97.086
11
144.056
21
-97.122
0
LINE
8
BLACK
6
CONTINUOUS
10
144.056
20
-97.122
11
143.989
21
-97.1557
0
LINE
8
BLACK
6
CONTINUOUS
10
143.989
20
-97.1557
11
143.919
21
-97.1874
0
LINE
8
BLACK
6
CONTINUOUS
10
143.919
20
-97.1874
11
143.847
21
-97.217
0
LINE
8
BLACK
6
CONTINUOUS
10
143.847
20
-97.217
11
143.77
21
-97.2449
0
LINE
8
BLACK
6
CONTINUOUS
10
143.77
20
-97.2449
11
143.693
21
-97.269
0
LINE
8
BLACK
6
CONTINUOUS
10
143.693
20
-97.269
11
143.614
21
-97.2905
0
LINE
8
BLACK
6
CONTINUOUS
10
143.614
20
-97.2905
11
143.53
21
-97.3092
0
LINE
8
BLACK
6
CONTINUOUS
10
143.53
20
-97.3092
11
143.444
21
-97.3244
0
LINE
8
BLACK
6
CONTINUOUS
10
143.444
20
-97.3244
11
143.35
21
-97.3366
0
LINE
8
BLACK
6
CONTINUOUS
10
143.35
20
-97.3366
11
143.256
21
-97.3442
0
LINE
8
BLACK
6
CONTINUOUS
10
143.256
20
-97.3442
11
143.157
21
-97.3473
0
LINE
8
BLACK
6
CONTINUOUS
10
143.157
20
-97.3473
11
143.052
21
-97.345
0
LINE
8
BLACK
6
CONTINUOUS
10
143.052
20
-97.345
11
142.957
21
-97.338
0
LINE
8
BLACK
6
CONTINUOUS
10
142.957
20
-97.338
11
142.866
21
-97.327
0
LINE
8
BLACK
6
CONTINUOUS
10
142.866
20
-97.327
11
142.78
21
-97.3126
0
LINE
8
BLACK
6
CONTINUOUS
10
142.78
20
-97.3126
11
142.697
21
-97.2948
0
LINE
8
BLACK
6
CONTINUOUS
10
142.697
20
-97.2948
11
142.614
21
-97.2734
0
LINE
8
BLACK
6
CONTINUOUS
10
142.614
20
-97.2734
11
142.538
21
-97.25
0
LINE
8
BLACK
6
CONTINUOUS
10
142.538
20
-97.25
11
142.463
21
-97.2236
0
LINE
8
BLACK
6
CONTINUOUS
10
142.463
20
-97.2236
11
142.389
21
-97.1945
0
LINE
8
BLACK
6
CONTINUOUS
10
142.389
20
-97.1945
11
142.32
21
-97.1634
0
LINE
8
BLACK
6
CONTINUOUS
10
142.32
20
-97.1634
11
142.251
21
-97.1298
0
LINE
8
BLACK
6
CONTINUOUS
10
142.251
20
-97.1298
11
142.183
21
-97.0926
0
LINE
8
BLACK
6
CONTINUOUS
10
142.183
20
-97.0926
11
142.171
21
-97.086
0
LINE
8
BLACK
6
CONTINUOUS
10
144.121
20
-93.7085
11
144.185
21
-93.7469
0
LINE
8
BLACK
6
CONTINUOUS
10
144.185
20
-93.7469
11
144.246
21
-93.7869
0
LINE
8
BLACK
6
CONTINUOUS
10
144.246
20
-93.7869
11
144.305
21
-93.8286
0
LINE
8
BLACK
6
CONTINUOUS
10
144.305
20
-93.8286
11
144.362
21
-93.873
0
LINE
8
BLACK
6
CONTINUOUS
10
144.362
20
-93.873
11
144.418
21
-93.9189
0
LINE
8
BLACK
6
CONTINUOUS
10
144.418
20
-93.9189
11
144.474
21
-93.9695
0
LINE
8
BLACK
6
CONTINUOUS
10
144.474
20
-93.9695
11
144.526
21
-94.0193
0
LINE
8
BLACK
6
CONTINUOUS
10
144.526
20
-94.0193
11
144.575
21
-94.0704
0
LINE
8
BLACK
6
CONTINUOUS
10
144.575
20
-94.0704
11
144.625
21
-94.1266
0
LINE
8
BLACK
6
CONTINUOUS
10
144.625
20
-94.1266
11
144.671
21
-94.1815
0
LINE
8
BLACK
6
CONTINUOUS
10
144.671
20
-94.1815
11
144.714
21
-94.2383
0
LINE
8
BLACK
6
CONTINUOUS
10
144.714
20
-94.2383
11
144.757
21
-94.2979
0
LINE
8
BLACK
6
CONTINUOUS
10
144.757
20
-94.2979
11
144.797
21
-94.3589
0
LINE
8
BLACK
6
CONTINUOUS
10
144.797
20
-94.3589
11
144.839
21
-94.4295
0
LINE
8
BLACK
6
CONTINUOUS
10
144.839
20
-94.4295
11
144.876
21
-94.4975
0
LINE
8
BLACK
6
CONTINUOUS
10
144.876
20
-94.4975
11
144.91
21
-94.566
0
LINE
8
BLACK
6
CONTINUOUS
10
144.91
20
-94.566
11
144.942
21
-94.6368
0
LINE
8
BLACK
6
CONTINUOUS
10
144.942
20
-94.6368
11
144.971
21
-94.7102
0
LINE
8
BLACK
6
CONTINUOUS
10
144.971
20
-94.7102
11
144.998
21
-94.7849
0
LINE
8
BLACK
6
CONTINUOUS
10
144.998
20
-94.7849
11
145.021
21
-94.8622
0
LINE
8
BLACK
6
CONTINUOUS
10
145.021
20
-94.8622
11
145.042
21
-94.9415
0
LINE
8
BLACK
6
CONTINUOUS
10
145.042
20
-94.9415
11
145.061
21
-95.0273
0
LINE
8
BLACK
6
CONTINUOUS
10
145.061
20
-95.0273
11
145.076
21
-95.1141
0
LINE
8
BLACK
6
CONTINUOUS
10
145.076
20
-95.1141
11
145.087
21
-95.21
0
LINE
8
BLACK
6
CONTINUOUS
10
145.087
20
-95.21
11
145.094
21
-95.3047
0
LINE
8
BLACK
6
CONTINUOUS
10
145.094
20
-95.3047
11
145.096
21
-95.3973
0
LINE
8
BLACK
6
CONTINUOUS
10
142.171
20
-93.7085
11
142.236
21
-93.6728
0
LINE
8
BLACK
6
CONTINUOUS
10
142.236
20
-93.6728
11
142.303
21
-93.6391
0
LINE
8
BLACK
6
CONTINUOUS
10
142.303
20
-93.6391
11
142.373
21
-93.6071
0
LINE
8
BLACK
6
CONTINUOUS
10
142.373
20
-93.6071
11
142.447
21
-93.5768
0
LINE
8
BLACK
6
CONTINUOUS
10
142.447
20
-93.5768
11
142.522
21
-93.5496
0
LINE
8
BLACK
6
CONTINUOUS
10
142.522
20
-93.5496
11
142.599
21
-93.5257
0
LINE
8
BLACK
6
CONTINUOUS
10
142.599
20
-93.5257
11
142.679
21
-93.504
0
LINE
8
BLACK
6
CONTINUOUS
10
142.679
20
-93.504
11
142.762
21
-93.4855
0
LINE
8
BLACK
6
CONTINUOUS
10
142.762
20
-93.4855
11
142.852
21
-93.4696
0
LINE
8
BLACK
6
CONTINUOUS
10
142.852
20
-93.4696
11
142.942
21
-93.458
0
LINE
8
BLACK
6
CONTINUOUS
10
142.942
20
-93.458
11
143.037
21
-93.4503
0
LINE
8
BLACK
6
CONTINUOUS
10
143.037
20
-93.4503
11
143.137
21
-93.4473
0
LINE
8
BLACK
6
CONTINUOUS
10
143.137
20
-93.4473
11
143.236
21
-93.4493
0
LINE
8
BLACK
6
CONTINUOUS
10
143.236
20
-93.4493
11
143.33
21
-93.4559
0
LINE
8
BLACK
6
CONTINUOUS
10
143.33
20
-93.4559
11
143.425
21
-93.4673
0
LINE
8
BLACK
6
CONTINUOUS
10
143.425
20
-93.4673
11
143.512
21
-93.4819
0
LINE
8
BLACK
6
CONTINUOUS
10
143.512
20
-93.4819
11
143.596
21
-93.4998
0
LINE
8
BLACK
6
CONTINUOUS
10
143.596
20
-93.4998
11
143.676
21
-93.5207
0
LINE
8
BLACK
6
CONTINUOUS
10
143.676
20
-93.5207
11
143.757
21
-93.5452
0
LINE
8
BLACK
6
CONTINUOUS
10
143.757
20
-93.5452
11
143.831
21
-93.5713
0
LINE
8
BLACK
6
CONTINUOUS
10
143.831
20
-93.5713
11
143.903
21
-93.6
0
LINE
8
BLACK
6
CONTINUOUS
10
143.903
20
-93.6
11
143.973
21
-93.6311
0
LINE
8
BLACK
6
CONTINUOUS
10
143.973
20
-93.6311
11
144.04
21
-93.6644
0
LINE
8
BLACK
6
CONTINUOUS
10
144.04
20
-93.6644
11
144.112
21
-93.7031
0
LINE
8
BLACK
6
CONTINUOUS
10
144.112
20
-93.7031
11
144.121
21
-93.7085
0
LINE
8
BLACK
6
CONTINUOUS
10
177.396
20
-21.9607
11
177.46
21
-21.9993
0
LINE
8
BLACK
6
CONTINUOUS
10
177.46
20
-21.9993
11
177.522
21
-22.041
0
LINE
8
BLACK
6
CONTINUOUS
10
177.522
20
-22.041
11
177.581
21
-22.0854
0
LINE
8
BLACK
6
CONTINUOUS
10
177.581
20
-22.0854
11
177.637
21
-22.1312
0
LINE
8
BLACK
6
CONTINUOUS
10
177.637
20
-22.1312
11
177.691
21
-22.1793
0
LINE
8
BLACK
6
CONTINUOUS
10
177.691
20
-22.1793
11
177.743
21
-22.2307
0
LINE
8
BLACK
6
CONTINUOUS
10
177.743
20
-22.2307
11
177.792
21
-22.2829
0
LINE
8
BLACK
6
CONTINUOUS
10
177.792
20
-22.2829
11
177.838
21
-22.3377
0
LINE
8
BLACK
6
CONTINUOUS
10
177.838
20
-22.3377
11
177.882
21
-22.3941
0
LINE
8
BLACK
6
CONTINUOUS
10
177.882
20
-22.3941
11
177.925
21
-22.455
0
LINE
8
BLACK
6
CONTINUOUS
10
177.925
20
-22.455
11
177.964
21
-22.5162
0
LINE
8
BLACK
6
CONTINUOUS
10
177.964
20
-22.5162
11
178.003
21
-22.5837
0
LINE
8
BLACK
6
CONTINUOUS
10
178.003
20
-22.5837
11
178.037
21
-22.65
0
LINE
8
BLACK
6
CONTINUOUS
10
178.037
20
-22.65
11
178.068
21
-22.719
0
LINE
8
BLACK
6
CONTINUOUS
10
178.068
20
-22.719
11
178.097
21
-22.7928
0
LINE
8
BLACK
6
CONTINUOUS
10
178.097
20
-22.7928
11
178.124
21
-22.8702
0
LINE
8
BLACK
6
CONTINUOUS
10
178.124
20
-22.8702
11
178.146
21
-22.9502
0
LINE
8
BLACK
6
CONTINUOUS
10
178.146
20
-22.9502
11
178.167
21
-23.0411
0
LINE
8
BLACK
6
CONTINUOUS
10
178.167
20
-23.0411
11
178.181
21
-23.127
0
LINE
8
BLACK
6
CONTINUOUS
10
178.181
20
-23.127
11
178.191
21
-23.2176
0
LINE
8
BLACK
6
CONTINUOUS
10
178.191
20
-23.2176
11
178.196
21
-23.3221
0
LINE
8
BLACK
6
CONTINUOUS
10
178.196
20
-23.3221
11
178.196
21
-23.3463
0
LINE
8
BLACK
6
CONTINUOUS
10
281.746
20
-27.3463
11
281.749
21
-27.2477
0
LINE
8
BLACK
6
CONTINUOUS
10
281.749
20
-27.2477
11
281.756
21
-27.151
0
LINE
8
BLACK
6
CONTINUOUS
10
281.756
20
-27.151
11
281.767
21
-27.0612
0
LINE
8
BLACK
6
CONTINUOUS
10
281.767
20
-27.0612
11
281.782
21
-26.9724
0
LINE
8
BLACK
6
CONTINUOUS
10
281.782
20
-26.9724
11
281.801
21
-26.8867
0
LINE
8
BLACK
6
CONTINUOUS
10
281.801
20
-26.8867
11
281.823
21
-26.8059
0
LINE
8
BLACK
6
CONTINUOUS
10
281.823
20
-26.8059
11
281.847
21
-26.7264
0
LINE
8
BLACK
6
CONTINUOUS
10
281.847
20
-26.7264
11
281.874
21
-26.6519
0
LINE
8
BLACK
6
CONTINUOUS
10
281.874
20
-26.6519
11
281.903
21
-26.5804
0
LINE
8
BLACK
6
CONTINUOUS
10
281.903
20
-26.5804
11
281.935
21
-26.5102
0
LINE
8
BLACK
6
CONTINUOUS
10
281.935
20
-26.5102
11
281.968
21
-26.443
0
LINE
8
BLACK
6
CONTINUOUS
10
281.968
20
-26.443
11
282.004
21
-26.3773
0
LINE
8
BLACK
6
CONTINUOUS
10
282.004
20
-26.3773
11
282.044
21
-26.3113
0
LINE
8
BLACK
6
CONTINUOUS
10
282.044
20
-26.3113
11
282.083
21
-26.2508
0
LINE
8
BLACK
6
CONTINUOUS
10
282.083
20
-26.2508
11
282.125
21
-26.1921
0
LINE
8
BLACK
6
CONTINUOUS
10
282.125
20
-26.1921
11
282.169
21
-26.134
0
LINE
8
BLACK
6
CONTINUOUS
10
282.169
20
-26.134
11
282.214
21
-26.079
0
LINE
8
BLACK
6
CONTINUOUS
10
282.214
20
-26.079
11
282.262
21
-26.0256
0
LINE
8
BLACK
6
CONTINUOUS
10
282.262
20
-26.0256
11
282.311
21
-25.9743
0
LINE
8
BLACK
6
CONTINUOUS
10
282.311
20
-25.9743
11
282.362
21
-25.9243
0
LINE
8
BLACK
6
CONTINUOUS
10
282.362
20
-25.9243
11
282.417
21
-25.8745
0
LINE
8
BLACK
6
CONTINUOUS
10
282.417
20
-25.8745
11
282.472
21
-25.8283
0
LINE
8
BLACK
6
CONTINUOUS
10
282.472
20
-25.8283
11
282.529
21
-25.7842
0
LINE
8
BLACK
6
CONTINUOUS
10
282.529
20
-25.7842
11
282.588
21
-25.7416
0
LINE
8
BLACK
6
CONTINUOUS
10
282.588
20
-25.7416
11
282.649
21
-25.7012
0
LINE
8
BLACK
6
CONTINUOUS
10
282.649
20
-25.7012
11
282.712
21
-25.6632
0
LINE
8
BLACK
6
CONTINUOUS
10
282.712
20
-25.6632
11
282.721
21
-25.6576
0
LINE
8
BLACK
6
CONTINUOUS
10
303.971
20
-93.7085
11
304.036
21
-93.6728
0
LINE
8
BLACK
6
CONTINUOUS
10
304.036
20
-93.6728
11
304.102
21
-93.6391
0
LINE
8
BLACK
6
CONTINUOUS
10
304.102
20
-93.6391
11
304.173
21
-93.6071
0
LINE
8
BLACK
6
CONTINUOUS
10
304.173
20
-93.6071
11
304.247
21
-93.5768
0
LINE
8
BLACK
6
CONTINUOUS
10
304.247
20
-93.5768
11
304.322
21
-93.5496
0
LINE
8
BLACK
6
CONTINUOUS
10
304.322
20
-93.5496
11
304.398
21
-93.5257
0
LINE
8
BLACK
6
CONTINUOUS
10
304.398
20
-93.5257
11
304.479
21
-93.504
0
LINE
8
BLACK
6
CONTINUOUS
10
304.479
20
-93.504
11
304.561
21
-93.4855
0
LINE
8
BLACK
6
CONTINUOUS
10
304.561
20
-93.4855
11
304.651
21
-93.4696
0
LINE
8
BLACK
6
CONTINUOUS
10
304.651
20
-93.4696
11
304.742
21
-93.458
0
LINE
8
BLACK
6
CONTINUOUS
10
304.742
20
-93.458
11
304.836
21
-93.4503
0
LINE
8
BLACK
6
CONTINUOUS
10
304.836
20
-93.4503
11
304.937
21
-93.4473
0
LINE
8
BLACK
6
CONTINUOUS
10
304.937
20
-93.4473
11
305.036
21
-93.4493
0
LINE
8
BLACK
6
CONTINUOUS
10
305.036
20
-93.4493
11
305.13
21
-93.4559
0
LINE
8
BLACK
6
CONTINUOUS
10
305.13
20
-93.4559
11
305.225
21
-93.4673
0
LINE
8
BLACK
6
CONTINUOUS
10
305.225
20
-93.4673
11
305.312
21
-93.4819
0
LINE
8
BLACK
6
CONTINUOUS
10
305.312
20
-93.4819
11
305.395
21
-93.4998
0
LINE
8
BLACK
6
CONTINUOUS
10
305.395
20
-93.4998
11
305.476
21
-93.5207
0
LINE
8
BLACK
6
CONTINUOUS
10
305.476
20
-93.5207
11
305.556
21
-93.5452
0
LINE
8
BLACK
6
CONTINUOUS
10
305.556
20
-93.5452
11
305.63
21
-93.5713
0
LINE
8
BLACK
6
CONTINUOUS
10
305.63
20
-93.5713
11
305.703
21
-93.6
0
LINE
8
BLACK
6
CONTINUOUS
10
305.703
20
-93.6
11
305.773
21
-93.6311
0
LINE
8
BLACK
6
CONTINUOUS
10
305.773
20
-93.6311
11
305.84
21
-93.6644
0
LINE
8
BLACK
6
CONTINUOUS
10
305.84
20
-93.6644
11
305.911
21
-93.7031
0
LINE
8
BLACK
6
CONTINUOUS
10
305.911
20
-93.7031
11
305.921
21
-93.7085
0
LINE
8
BLACK
6
CONTINUOUS
10
284.671
20
-25.6576
11
284.735
21
-25.6959
0
LINE
8
BLACK
6
CONTINUOUS
10
284.735
20
-25.6959
11
284.796
21
-25.7359
0
LINE
8
BLACK
6
CONTINUOUS
10
284.796
20
-25.7359
11
284.855
21
-25.7776
0
LINE
8
BLACK
6
CONTINUOUS
10
284.855
20
-25.7776
11
284.912
21
-25.822
0
LINE
8
BLACK
6
CONTINUOUS
10
284.912
20
-25.822
11
284.968
21
-25.868
0
LINE
8
BLACK
6
CONTINUOUS
10
284.968
20
-25.868
11
285.024
21
-25.9185
0
LINE
8
BLACK
6
CONTINUOUS
10
285.024
20
-25.9185
11
285.076
21
-25.9683
0
LINE
8
BLACK
6
CONTINUOUS
10
285.076
20
-25.9683
11
285.125
21
-26.0194
0
LINE
8
BLACK
6
CONTINUOUS
10
285.125
20
-26.0194
11
285.175
21
-26.0756
0
LINE
8
BLACK
6
CONTINUOUS
10
285.175
20
-26.0756
11
285.221
21
-26.1305
0
LINE
8
BLACK
6
CONTINUOUS
10
285.221
20
-26.1305
11
285.265
21
-26.1873
0
LINE
8
BLACK
6
CONTINUOUS
10
285.265
20
-26.1873
11
285.307
21
-26.2469
0
LINE
8
BLACK
6
CONTINUOUS
10
285.307
20
-26.2469
11
285.347
21
-26.308
0
LINE
8
BLACK
6
CONTINUOUS
10
285.347
20
-26.308
11
285.389
21
-26.3786
0
LINE
8
BLACK
6
CONTINUOUS
10
285.389
20
-26.3786
11
285.426
21
-26.4465
0
LINE
8
BLACK
6
CONTINUOUS
10
285.426
20
-26.4465
11
285.46
21
-26.5151
0
LINE
8
BLACK
6
CONTINUOUS
10
285.46
20
-26.5151
11
285.492
21
-26.5858
0
LINE
8
BLACK
6
CONTINUOUS
10
285.492
20
-26.5858
11
285.521
21
-26.6593
0
LINE
8
BLACK
6
CONTINUOUS
10
285.521
20
-26.6593
11
285.548
21
-26.7339
0
LINE
8
BLACK
6
CONTINUOUS
10
285.548
20
-26.7339
11
285.571
21
-26.8112
0
LINE
8
BLACK
6
CONTINUOUS
10
285.571
20
-26.8112
11
285.592
21
-26.8905
0
LINE
8
BLACK
6
CONTINUOUS
10
285.592
20
-26.8905
11
285.611
21
-26.9763
0
LINE
8
BLACK
6
CONTINUOUS
10
285.611
20
-26.9763
11
285.626
21
-27.0632
0
LINE
8
BLACK
6
CONTINUOUS
10
285.626
20
-27.0632
11
285.637
21
-27.159
0
LINE
8
BLACK
6
CONTINUOUS
10
285.637
20
-27.159
11
285.644
21
-27.2538
0
LINE
8
BLACK
6
CONTINUOUS
10
285.644
20
-27.2538
11
285.646
21
-27.3463
0
LINE
8
BLACK
6
CONTINUOUS
10
195.787
20
-97.7181
11
195.787
21
-83.87
0
LINE
8
BLACK
6
CONTINUOUS
10
302.996
20
-95.3973
11
302.998
21
-95.2987
0
LINE
8
BLACK
6
CONTINUOUS
10
302.998
20
-95.2987
11
303.006
21
-95.2019
0
LINE
8
BLACK
6
CONTINUOUS
10
303.006
20
-95.2019
11
303.017
21
-95.1121
0
LINE
8
BLACK
6
CONTINUOUS
10
303.017
20
-95.1121
11
303.032
21
-95.0234
0
LINE
8
BLACK
6
CONTINUOUS
10
303.032
20
-95.0234
11
303.051
21
-94.9376
0
LINE
8
BLACK
6
CONTINUOUS
10
303.051
20
-94.9376
11
303.072
21
-94.8569
0
LINE
8
BLACK
6
CONTINUOUS
10
303.072
20
-94.8569
11
303.097
21
-94.7774
0
LINE
8
BLACK
6
CONTINUOUS
10
303.097
20
-94.7774
11
303.124
21
-94.7028
0
LINE
8
BLACK
6
CONTINUOUS
10
303.124
20
-94.7028
11
303.153
21
-94.6313
0
LINE
8
BLACK
6
CONTINUOUS
10
303.153
20
-94.6313
11
303.184
21
-94.5611
0
LINE
8
BLACK
6
CONTINUOUS
10
303.184
20
-94.5611
11
303.218
21
-94.494
0
LINE
8
BLACK
6
CONTINUOUS
10
303.218
20
-94.494
11
303.254
21
-94.4283
0
LINE
8
BLACK
6
CONTINUOUS
10
303.254
20
-94.4283
11
303.293
21
-94.3623
0
LINE
8
BLACK
6
CONTINUOUS
10
303.293
20
-94.3623
11
303.333
21
-94.3017
0
LINE
8
BLACK
6
CONTINUOUS
10
303.333
20
-94.3017
11
303.374
21
-94.2431
0
LINE
8
BLACK
6
CONTINUOUS
10
303.374
20
-94.2431
11
303.419
21
-94.185
0
LINE
8
BLACK
6
CONTINUOUS
10
303.419
20
-94.185
11
303.464
21
-94.13
0
LINE
8
BLACK
6
CONTINUOUS
10
303.464
20
-94.13
11
303.511
21
-94.0766
0
LINE
8
BLACK
6
CONTINUOUS
10
303.511
20
-94.0766
11
303.56
21
-94.0253
0
LINE
8
BLACK
6
CONTINUOUS
10
303.56
20
-94.0253
11
303.612
21
-93.9753
0
LINE
8
BLACK
6
CONTINUOUS
10
303.612
20
-93.9753
11
303.667
21
-93.9255
0
LINE
8
BLACK
6
CONTINUOUS
10
303.667
20
-93.9255
11
303.722
21
-93.8792
0
LINE
8
BLACK
6
CONTINUOUS
10
303.722
20
-93.8792
11
303.779
21
-93.8352
0
LINE
8
BLACK
6
CONTINUOUS
10
303.779
20
-93.8352
11
303.838
21
-93.7926
0
LINE
8
BLACK
6
CONTINUOUS
10
303.838
20
-93.7926
11
303.899
21
-93.7522
0
LINE
8
BLACK
6
CONTINUOUS
10
303.899
20
-93.7522
11
303.961
21
-93.7142
0
LINE
8
BLACK
6
CONTINUOUS
10
303.961
20
-93.7142
11
303.971
21
-93.7085
0
LINE
8
BLACK
6
CONTINUOUS
10
177.396
20
-24.732
11
177.331
21
-24.7676
0
LINE
8
BLACK
6
CONTINUOUS
10
177.331
20
-24.7676
11
177.262
21
-24.801
0
LINE
8
BLACK
6
CONTINUOUS
10
177.262
20
-24.801
11
177.191
21
-24.8316
0
LINE
8
BLACK
6
CONTINUOUS
10
177.191
20
-24.8316
11
177.117
21
-24.8591
0
LINE
8
BLACK
6
CONTINUOUS
10
177.117
20
-24.8591
11
177.034
21
-24.8851
0
LINE
8
BLACK
6
CONTINUOUS
10
177.034
20
-24.8851
11
176.954
21
-24.9058
0
LINE
8
BLACK
6
CONTINUOUS
10
176.954
20
-24.9058
11
176.869
21
-24.9229
0
LINE
8
BLACK
6
CONTINUOUS
10
176.869
20
-24.9229
11
176.782
21
-24.9355
0
LINE
8
BLACK
6
CONTINUOUS
10
176.782
20
-24.9355
11
176.689
21
-24.9436
0
LINE
8
BLACK
6
CONTINUOUS
10
176.689
20
-24.9436
11
176.59
21
-24.9463
0
LINE
8
BLACK
6
CONTINUOUS
10
176.59
20
-24.9463
11
176.492
21
-24.9429
0
LINE
8
BLACK
6
CONTINUOUS
10
176.492
20
-24.9429
11
176.398
21
-24.934
0
LINE
8
BLACK
6
CONTINUOUS
10
176.398
20
-24.934
11
176.308
21
-24.9203
0
LINE
8
BLACK
6
CONTINUOUS
10
176.308
20
-24.9203
11
176.226
21
-24.9029
0
LINE
8
BLACK
6
CONTINUOUS
10
176.226
20
-24.9029
11
176.146
21
-24.8816
0
LINE
8
BLACK
6
CONTINUOUS
10
176.146
20
-24.8816
11
176.069
21
-24.857
0
LINE
8
BLACK
6
CONTINUOUS
10
176.069
20
-24.857
11
175.995
21
-24.8292
0
LINE
8
BLACK
6
CONTINUOUS
10
175.995
20
-24.8292
11
175.922
21
-24.7976
0
LINE
8
BLACK
6
CONTINUOUS
10
175.922
20
-24.7976
11
175.855
21
-24.7643
0
LINE
8
BLACK
6
CONTINUOUS
10
175.855
20
-24.7643
11
175.796
21
-24.732
0
LINE
8
BLACK
6
CONTINUOUS
10
305.921
20
-93.7085
11
305.985
21
-93.7469
0
LINE
8
BLACK
6
CONTINUOUS
10
305.985
20
-93.7469
11
306.046
21
-93.7869
0
LINE
8
BLACK
6
CONTINUOUS
10
306.046
20
-93.7869
11
306.104
21
-93.8286
0
LINE
8
BLACK
6
CONTINUOUS
10
306.104
20
-93.8286
11
306.162
21
-93.873
0
LINE
8
BLACK
6
CONTINUOUS
10
306.162
20
-93.873
11
306.218
21
-93.9189
0
LINE
8
BLACK
6
CONTINUOUS
10
306.218
20
-93.9189
11
306.274
21
-93.9695
0
LINE
8
BLACK
6
CONTINUOUS
10
306.274
20
-93.9695
11
306.326
21
-94.0193
0
LINE
8
BLACK
6
CONTINUOUS
10
306.326
20
-94.0193
11
306.375
21
-94.0704
0
LINE
8
BLACK
6
CONTINUOUS
10
306.375
20
-94.0704
11
306.425
21
-94.1266
0
LINE
8
BLACK
6
CONTINUOUS
10
306.425
20
-94.1266
11
306.471
21
-94.1815
0
LINE
8
BLACK
6
CONTINUOUS
10
306.471
20
-94.1815
11
306.514
21
-94.2383
0
LINE
8
BLACK
6
CONTINUOUS
10
306.514
20
-94.2383
11
306.556
21
-94.2979
0
LINE
8
BLACK
6
CONTINUOUS
10
306.556
20
-94.2979
11
306.596
21
-94.3589
0
LINE
8
BLACK
6
CONTINUOUS
10
306.596
20
-94.3589
11
306.639
21
-94.4295
0
LINE
8
BLACK
6
CONTINUOUS
10
306.639
20
-94.4295
11
306.676
21
-94.4975
0
LINE
8
BLACK
6
CONTINUOUS
10
306.676
20
-94.4975
11
306.71
21
-94.566
0
LINE
8
BLACK
6
CONTINUOUS
10
306.71
20
-94.566
11
306.742
21
-94.6368
0
LINE
8
BLACK
6
CONTINUOUS
10
306.742
20
-94.6368
11
306.771
21
-94.7102
0
LINE
8
BLACK
6
CONTINUOUS
10
306.771
20
-94.7102
11
306.797
21
-94.7849
0
LINE
8
BLACK
6
CONTINUOUS
10
306.797
20
-94.7849
11
306.821
21
-94.8622
0
LINE
8
BLACK
6
CONTINUOUS
10
306.821
20
-94.8622
11
306.842
21
-94.9415
0
LINE
8
BLACK
6
CONTINUOUS
10
306.842
20
-94.9415
11
306.861
21
-95.0273
0
LINE
8
BLACK
6
CONTINUOUS
10
306.861
20
-95.0273
11
306.875
21
-95.1141
0
LINE
8
BLACK
6
CONTINUOUS
10
306.875
20
-95.1141
11
306.887
21
-95.21
0
LINE
8
BLACK
6
CONTINUOUS
10
306.887
20
-95.21
11
306.894
21
-95.3047
0
LINE
8
BLACK
6
CONTINUOUS
10
306.894
20
-95.3047
11
306.896
21
-95.3973
0
LINE
8
BLACK
6
CONTINUOUS
10
219.602
20
-97.7181
11
219.602
21
-83.87
0
LINE
8
BLACK
6
CONTINUOUS
10
175.796
20
-24.732
11
175.732
21
-24.6927
0
LINE
8
BLACK
6
CONTINUOUS
10
175.732
20
-24.6927
11
175.668
21
-24.6497
0
LINE
8
BLACK
6
CONTINUOUS
10
175.668
20
-24.6497
11
175.609
21
-24.6052
0
LINE
8
BLACK
6
CONTINUOUS
10
175.609
20
-24.6052
11
175.551
21
-24.5582
0
LINE
8
BLACK
6
CONTINUOUS
10
175.551
20
-24.5582
11
175.498
21
-24.51
0
LINE
8
BLACK
6
CONTINUOUS
10
175.498
20
-24.51
11
175.446
21
-24.4584
0
LINE
8
BLACK
6
CONTINUOUS
10
175.446
20
-24.4584
11
175.397
21
-24.4058
0
LINE
8
BLACK
6
CONTINUOUS
10
175.397
20
-24.4058
11
175.351
21
-24.351
0
LINE
8
BLACK
6
CONTINUOUS
10
175.351
20
-24.351
11
175.307
21
-24.2943
0
LINE
8
BLACK
6
CONTINUOUS
10
175.307
20
-24.2943
11
175.266
21
-24.2353
0
LINE
8
BLACK
6
CONTINUOUS
10
175.266
20
-24.2353
11
175.226
21
-24.1721
0
LINE
8
BLACK
6
CONTINUOUS
10
175.226
20
-24.1721
11
175.189
21
-24.1075
0
LINE
8
BLACK
6
CONTINUOUS
10
175.189
20
-24.1075
11
175.155
21
-24.0412
0
LINE
8
BLACK
6
CONTINUOUS
10
175.155
20
-24.0412
11
175.123
21
-23.9718
0
LINE
8
BLACK
6
CONTINUOUS
10
175.123
20
-23.9718
11
175.095
21
-23.8998
0
LINE
8
BLACK
6
CONTINUOUS
10
175.095
20
-23.8998
11
175.069
21
-23.824
0
LINE
8
BLACK
6
CONTINUOUS
10
175.069
20
-23.824
11
175.047
21
-23.746
0
LINE
8
BLACK
6
CONTINUOUS
10
175.047
20
-23.746
11
175.028
21
-23.664
0
LINE
8
BLACK
6
CONTINUOUS
10
175.028
20
-23.664
11
175.013
21
-23.5782
0
LINE
8
BLACK
6
CONTINUOUS
10
175.013
20
-23.5782
11
175.002
21
-23.4885
0
LINE
8
BLACK
6
CONTINUOUS
10
175.002
20
-23.4885
11
174.997
21
-23.3939
0
LINE
8
BLACK
6
CONTINUOUS
10
174.997
20
-23.3939
11
174.996
21
-23.3463
0
LINE
8
BLACK
6
CONTINUOUS
10
282.721
20
-29.0351
11
282.656
21
-28.9956
0
LINE
8
BLACK
6
CONTINUOUS
10
282.656
20
-28.9956
11
282.595
21
-28.9556
0
LINE
8
BLACK
6
CONTINUOUS
10
282.595
20
-28.9556
11
282.535
21
-28.9126
0
LINE
8
BLACK
6
CONTINUOUS
10
282.535
20
-28.9126
11
282.471
21
-28.8631
0
LINE
8
BLACK
6
CONTINUOUS
10
282.471
20
-28.8631
11
282.416
21
-28.8171
0
LINE
8
BLACK
6
CONTINUOUS
10
282.416
20
-28.8171
11
282.363
21
-28.7697
0
LINE
8
BLACK
6
CONTINUOUS
10
282.363
20
-28.7697
11
282.312
21
-28.7201
0
LINE
8
BLACK
6
CONTINUOUS
10
282.312
20
-28.7201
11
282.26
21
-28.6655
0
LINE
8
BLACK
6
CONTINUOUS
10
282.26
20
-28.6655
11
282.213
21
-28.6121
0
LINE
8
BLACK
6
CONTINUOUS
10
282.213
20
-28.6121
11
282.168
21
-28.5571
0
LINE
8
BLACK
6
CONTINUOUS
10
282.168
20
-28.5571
11
282.124
21
-28.5001
0
LINE
8
BLACK
6
CONTINUOUS
10
282.124
20
-28.5001
11
282.082
21
-28.4408
0
LINE
8
BLACK
6
CONTINUOUS
10
282.082
20
-28.4408
11
282.043
21
-28.3796
0
LINE
8
BLACK
6
CONTINUOUS
10
282.043
20
-28.3796
11
282.005
21
-28.3166
0
LINE
8
BLACK
6
CONTINUOUS
10
282.005
20
-28.3166
11
281.969
21
-28.2513
0
LINE
8
BLACK
6
CONTINUOUS
10
281.969
20
-28.2513
11
281.935
21
-28.1842
0
LINE
8
BLACK
6
CONTINUOUS
10
281.935
20
-28.1842
11
281.901
21
-28.1086
0
LINE
8
BLACK
6
CONTINUOUS
10
281.901
20
-28.1086
11
281.873
21
-28.0371
0
LINE
8
BLACK
6
CONTINUOUS
10
281.873
20
-28.0371
11
281.846
21
-27.9625
0
LINE
8
BLACK
6
CONTINUOUS
10
281.846
20
-27.9625
11
281.822
21
-27.8848
0
LINE
8
BLACK
6
CONTINUOUS
10
281.822
20
-27.8848
11
281.801
21
-27.804
0
LINE
8
BLACK
6
CONTINUOUS
10
281.801
20
-27.804
11
281.782
21
-27.72
0
LINE
8
BLACK
6
CONTINUOUS
10
281.782
20
-27.72
11
281.767
21
-27.6334
0
LINE
8
BLACK
6
CONTINUOUS
10
281.767
20
-27.6334
11
281.756
21
-27.5437
0
LINE
8
BLACK
6
CONTINUOUS
10
281.756
20
-27.5437
11
281.749
21
-27.4495
0
LINE
8
BLACK
6
CONTINUOUS
10
281.749
20
-27.4495
11
281.746
21
-27.3514
0
LINE
8
BLACK
6
CONTINUOUS
10
281.746
20
-27.3514
11
281.746
21
-27.3463
0
LINE
8
BLACK
6
CONTINUOUS
10
284.671
20
-29.0351
11
284.606
21
-29.071
0
LINE
8
BLACK
6
CONTINUOUS
10
284.606
20
-29.071
11
284.539
21
-29.1047
0
LINE
8
BLACK
6
CONTINUOUS
10
284.539
20
-29.1047
11
284.47
21
-29.1365
0
LINE
8
BLACK
6
CONTINUOUS
10
284.47
20
-29.1365
11
284.397
21
-29.1661
0
LINE
8
BLACK
6
CONTINUOUS
10
284.397
20
-29.1661
11
284.32
21
-29.1939
0
LINE
8
BLACK
6
CONTINUOUS
10
284.32
20
-29.1939
11
284.243
21
-29.218
0
LINE
8
BLACK
6
CONTINUOUS
10
284.243
20
-29.218
11
284.164
21
-29.2395
0
LINE
8
BLACK
6
CONTINUOUS
10
284.164
20
-29.2395
11
284.08
21
-29.2582
0
LINE
8
BLACK
6
CONTINUOUS
10
284.08
20
-29.2582
11
283.994
21
-29.2734
0
LINE
8
BLACK
6
CONTINUOUS
10
283.994
20
-29.2734
11
283.9
21
-29.2856
0
LINE
8
BLACK
6
CONTINUOUS
10
283.9
20
-29.2856
11
283.806
21
-29.2932
0
LINE
8
BLACK
6
CONTINUOUS
10
283.806
20
-29.2932
11
283.707
21
-29.2963
0
LINE
8
BLACK
6
CONTINUOUS
10
283.707
20
-29.2963
11
283.603
21
-29.2941
0
LINE
8
BLACK
6
CONTINUOUS
10
283.603
20
-29.2941
11
283.507
21
-29.2871
0
LINE
8
BLACK
6
CONTINUOUS
10
283.507
20
-29.2871
11
283.416
21
-29.2761
0
LINE
8
BLACK
6
CONTINUOUS
10
283.416
20
-29.2761
11
283.33
21
-29.2616
0
LINE
8
BLACK
6
CONTINUOUS
10
283.33
20
-29.2616
11
283.247
21
-29.2438
0
LINE
8
BLACK
6
CONTINUOUS
10
283.247
20
-29.2438
11
283.164
21
-29.2224
0
LINE
8
BLACK
6
CONTINUOUS
10
283.164
20
-29.2224
11
283.088
21
-29.199
0
LINE
8
BLACK
6
CONTINUOUS
10
283.088
20
-29.199
11
283.013
21
-29.1727
0
LINE
8
BLACK
6
CONTINUOUS
10
283.013
20
-29.1727
11
282.94
21
-29.1436
0
LINE
8
BLACK
6
CONTINUOUS
10
282.94
20
-29.1436
11
282.87
21
-29.1125
0
LINE
8
BLACK
6
CONTINUOUS
10
282.87
20
-29.1125
11
282.801
21
-29.0788
0
LINE
8
BLACK
6
CONTINUOUS
10
282.801
20
-29.0788
11
282.733
21
-29.0417
0
LINE
8
BLACK
6
CONTINUOUS
10
282.733
20
-29.0417
11
282.721
21
-29.0351
0
LINE
8
BLACK
6
CONTINUOUS
10
306.896
20
-95.3973
11
306.893
21
-95.4953
0
LINE
8
BLACK
6
CONTINUOUS
10
306.893
20
-95.4953
11
306.886
21
-95.592
0
LINE
8
BLACK
6
CONTINUOUS
10
306.886
20
-95.592
11
306.875
21
-95.6814
0
LINE
8
BLACK
6
CONTINUOUS
10
306.875
20
-95.6814
11
306.861
21
-95.7672
0
LINE
8
BLACK
6
CONTINUOUS
10
306.861
20
-95.7672
11
306.842
21
-95.8528
0
LINE
8
BLACK
6
CONTINUOUS
10
306.842
20
-95.8528
11
306.822
21
-95.9322
0
LINE
8
BLACK
6
CONTINUOUS
10
306.822
20
-95.9322
11
306.798
21
-96.0099
0
LINE
8
BLACK
6
CONTINUOUS
10
306.798
20
-96.0099
11
306.771
21
-96.0852
0
LINE
8
BLACK
6
CONTINUOUS
10
306.771
20
-96.0852
11
306.742
21
-96.157
0
LINE
8
BLACK
6
CONTINUOUS
10
306.742
20
-96.157
11
306.711
21
-96.2273
0
LINE
8
BLACK
6
CONTINUOUS
10
306.711
20
-96.2273
11
306.677
21
-96.2962
0
LINE
8
BLACK
6
CONTINUOUS
10
306.677
20
-96.2962
11
306.641
21
-96.3618
0
LINE
8
BLACK
6
CONTINUOUS
10
306.641
20
-96.3618
11
306.603
21
-96.4253
0
LINE
8
BLACK
6
CONTINUOUS
10
306.603
20
-96.4253
11
306.563
21
-96.4878
0
LINE
8
BLACK
6
CONTINUOUS
10
306.563
20
-96.4878
11
306.521
21
-96.5469
0
LINE
8
BLACK
6
CONTINUOUS
10
306.521
20
-96.5469
11
306.478
21
-96.6041
0
LINE
8
BLACK
6
CONTINUOUS
10
306.478
20
-96.6041
11
306.432
21
-96.6595
0
LINE
8
BLACK
6
CONTINUOUS
10
306.432
20
-96.6595
11
306.385
21
-96.7133
0
LINE
8
BLACK
6
CONTINUOUS
10
306.385
20
-96.7133
11
306.336
21
-96.765
0
LINE
8
BLACK
6
CONTINUOUS
10
306.336
20
-96.765
11
306.285
21
-96.8151
0
LINE
8
BLACK
6
CONTINUOUS
10
306.285
20
-96.8151
11
306.23
21
-96.8646
0
LINE
8
BLACK
6
CONTINUOUS
10
306.23
20
-96.8646
11
306.17
21
-96.9154
0
LINE
8
BLACK
6
CONTINUOUS
10
306.17
20
-96.9154
11
306.113
21
-96.9594
0
LINE
8
BLACK
6
CONTINUOUS
10
306.113
20
-96.9594
11
306.055
21
-97.0014
0
LINE
8
BLACK
6
CONTINUOUS
10
306.055
20
-97.0014
11
305.988
21
-97.0456
0
LINE
8
BLACK
6
CONTINUOUS
10
305.988
20
-97.0456
11
305.926
21
-97.0836
0
LINE
8
BLACK
6
CONTINUOUS
10
305.926
20
-97.0836
11
305.861
21
-97.1198
0
LINE
8
BLACK
6
CONTINUOUS
10
305.861
20
-97.1198
11
305.793
21
-97.154
0
LINE
8
BLACK
6
CONTINUOUS
10
305.793
20
-97.154
11
305.723
21
-97.1861
0
LINE
8
BLACK
6
CONTINUOUS
10
305.723
20
-97.1861
11
305.648
21
-97.2169
0
LINE
8
BLACK
6
CONTINUOUS
10
305.648
20
-97.2169
11
305.573
21
-97.2443
0
LINE
8
BLACK
6
CONTINUOUS
10
305.573
20
-97.2443
11
305.497
21
-97.2684
0
LINE
8
BLACK
6
CONTINUOUS
10
305.497
20
-97.2684
11
305.418
21
-97.2898
0
LINE
8
BLACK
6
CONTINUOUS
10
305.418
20
-97.2898
11
305.335
21
-97.3084
0
LINE
8
BLACK
6
CONTINUOUS
10
305.335
20
-97.3084
11
305.247
21
-97.3241
0
LINE
8
BLACK
6
CONTINUOUS
10
305.247
20
-97.3241
11
305.158
21
-97.3358
0
LINE
8
BLACK
6
CONTINUOUS
10
305.158
20
-97.3358
11
305.066
21
-97.3436
0
LINE
8
BLACK
6
CONTINUOUS
10
305.066
20
-97.3436
11
304.967
21
-97.3472
0
LINE
8
BLACK
6
CONTINUOUS
10
304.967
20
-97.3472
11
304.946
21
-97.3473
0
LINE
8
BLACK
6
CONTINUOUS
10
178.196
20
-23.3463
11
178.193
21
-23.444
0
LINE
8
BLACK
6
CONTINUOUS
10
178.193
20
-23.444
11
178.185
21
-23.5362
0
LINE
8
BLACK
6
CONTINUOUS
10
178.185
20
-23.5362
11
178.172
21
-23.6243
0
LINE
8
BLACK
6
CONTINUOUS
10
178.172
20
-23.6243
11
178.155
21
-23.7078
0
LINE
8
BLACK
6
CONTINUOUS
10
178.155
20
-23.7078
11
178.134
21
-23.7897
0
LINE
8
BLACK
6
CONTINUOUS
10
178.134
20
-23.7897
11
178.11
21
-23.8657
0
LINE
8
BLACK
6
CONTINUOUS
10
178.11
20
-23.8657
11
178.082
21
-23.9392
0
LINE
8
BLACK
6
CONTINUOUS
10
178.082
20
-23.9392
11
178.052
21
-24.0104
0
LINE
8
BLACK
6
CONTINUOUS
10
178.052
20
-24.0104
11
178.019
21
-24.0788
0
LINE
8
BLACK
6
CONTINUOUS
10
178.019
20
-24.0788
11
177.983
21
-24.1442
0
LINE
8
BLACK
6
CONTINUOUS
10
177.983
20
-24.1442
11
177.945
21
-24.2065
0
LINE
8
BLACK
6
CONTINUOUS
10
177.945
20
-24.2065
11
177.904
21
-24.2684
0
LINE
8
BLACK
6
CONTINUOUS
10
177.904
20
-24.2684
11
177.86
21
-24.327
0
LINE
8
BLACK
6
CONTINUOUS
10
177.86
20
-24.327
11
177.815
21
-24.3824
0
LINE
8
BLACK
6
CONTINUOUS
10
177.815
20
-24.3824
11
177.768
21
-24.4356
0
LINE
8
BLACK
6
CONTINUOUS
10
177.768
20
-24.4356
11
177.718
21
-24.4873
0
LINE
8
BLACK
6
CONTINUOUS
10
177.718
20
-24.4873
11
177.665
21
-24.5366
0
LINE
8
BLACK
6
CONTINUOUS
10
177.665
20
-24.5366
11
177.607
21
-24.5865
0
LINE
8
BLACK
6
CONTINUOUS
10
177.607
20
-24.5865
11
177.547
21
-24.6328
0
LINE
8
BLACK
6
CONTINUOUS
10
177.547
20
-24.6328
11
177.487
21
-24.6751
0
LINE
8
BLACK
6
CONTINUOUS
10
177.487
20
-24.6751
11
177.426
21
-24.7145
0
LINE
8
BLACK
6
CONTINUOUS
10
177.426
20
-24.7145
11
177.396
21
-24.732
0
LINE
8
BLACK
6
CONTINUOUS
10
174.996
20
-23.3463
11
174.999
21
-23.2488
0
LINE
8
BLACK
6
CONTINUOUS
10
174.999
20
-23.2488
11
175.007
21
-23.1565
0
LINE
8
BLACK
6
CONTINUOUS
10
175.007
20
-23.1565
11
175.02
21
-23.0685
0
LINE
8
BLACK
6
CONTINUOUS
10
175.02
20
-23.0685
11
175.037
21
-22.9851
0
LINE
8
BLACK
6
CONTINUOUS
10
175.037
20
-22.9851
11
175.058
21
-22.9045
0
LINE
8
BLACK
6
CONTINUOUS
10
175.058
20
-22.9045
11
175.083
21
-22.8269
0
LINE
8
BLACK
6
CONTINUOUS
10
175.083
20
-22.8269
11
175.11
21
-22.7535
0
LINE
8
BLACK
6
CONTINUOUS
10
175.11
20
-22.7535
11
175.14
21
-22.6823
0
LINE
8
BLACK
6
CONTINUOUS
10
175.14
20
-22.6823
11
175.174
21
-22.6138
0
LINE
8
BLACK
6
CONTINUOUS
10
175.174
20
-22.6138
11
175.209
21
-22.5484
0
LINE
8
BLACK
6
CONTINUOUS
10
175.209
20
-22.5484
11
175.247
21
-22.4861
0
LINE
8
BLACK
6
CONTINUOUS
10
175.247
20
-22.4861
11
175.288
21
-22.4256
0
LINE
8
BLACK
6
CONTINUOUS
10
175.288
20
-22.4256
11
175.331
21
-22.3669
0
LINE
8
BLACK
6
CONTINUOUS
10
175.331
20
-22.3669
11
175.377
21
-22.3102
0
LINE
8
BLACK
6
CONTINUOUS
10
175.377
20
-22.3102
11
175.424
21
-22.257
0
LINE
8
BLACK
6
CONTINUOUS
10
175.424
20
-22.257
11
175.474
21
-22.2053
0
LINE
8
BLACK
6
CONTINUOUS
10
175.474
20
-22.2053
11
175.529
21
-22.1541
0
LINE
8
BLACK
6
CONTINUOUS
10
175.529
20
-22.1541
11
175.583
21
-22.1077
0
LINE
8
BLACK
6
CONTINUOUS
10
175.583
20
-22.1077
11
175.64
21
-22.0638
0
LINE
8
BLACK
6
CONTINUOUS
10
175.64
20
-22.0638
11
175.705
21
-22.0175
0
LINE
8
BLACK
6
CONTINUOUS
10
175.705
20
-22.0175
11
175.768
21
-21.9773
0
LINE
8
BLACK
6
CONTINUOUS
10
175.768
20
-21.9773
11
175.796
21
-21.9607
0
LINE
8
BLACK
6
CONTINUOUS
10
175.796
20
-21.9607
11
175.861
21
-21.925
0
LINE
8
BLACK
6
CONTINUOUS
10
175.861
20
-21.925
11
175.93
21
-21.8916
0
LINE
8
BLACK
6
CONTINUOUS
10
175.93
20
-21.8916
11
176.001
21
-21.861
0
LINE
8
BLACK
6
CONTINUOUS
10
176.001
20
-21.861
11
176.077
21
-21.833
0
LINE
8
BLACK
6
CONTINUOUS
10
176.077
20
-21.833
11
176.153
21
-21.8089
0
LINE
8
BLACK
6
CONTINUOUS
10
176.153
20
-21.8089
11
176.236
21
-21.7873
0
LINE
8
BLACK
6
CONTINUOUS
10
176.236
20
-21.7873
11
176.321
21
-21.7702
0
LINE
8
BLACK
6
CONTINUOUS
10
176.321
20
-21.7702
11
176.416
21
-21.7565
0
LINE
8
BLACK
6
CONTINUOUS
10
176.416
20
-21.7565
11
176.51
21
-21.7487
0
LINE
8
BLACK
6
CONTINUOUS
10
176.51
20
-21.7487
11
176.608
21
-21.7464
0
LINE
8
BLACK
6
CONTINUOUS
10
176.608
20
-21.7464
11
176.712
21
-21.7505
0
LINE
8
BLACK
6
CONTINUOUS
10
176.712
20
-21.7505
11
176.803
21
-21.7597
0
LINE
8
BLACK
6
CONTINUOUS
10
176.803
20
-21.7597
11
176.89
21
-21.7736
0
LINE
8
BLACK
6
CONTINUOUS
10
176.89
20
-21.7736
11
176.975
21
-21.7917
0
LINE
8
BLACK
6
CONTINUOUS
10
176.975
20
-21.7917
11
177.067
21
-21.8172
0
LINE
8
BLACK
6
CONTINUOUS
10
177.067
20
-21.8172
11
177.143
21
-21.8428
0
LINE
8
BLACK
6
CONTINUOUS
10
177.143
20
-21.8428
11
177.215
21
-21.871
0
LINE
8
BLACK
6
CONTINUOUS
10
177.215
20
-21.871
11
177.285
21
-21.9023
0
LINE
8
BLACK
6
CONTINUOUS
10
177.285
20
-21.9023
11
177.353
21
-21.9365
0
LINE
8
BLACK
6
CONTINUOUS
10
177.353
20
-21.9365
11
177.396
21
-21.9607
0
LINE
8
BLACK
6
CONTINUOUS
10
309.18
20
-6.64384
11
309.355
21
-6.90546
0
LINE
8
BLACK
6
CONTINUOUS
10
304.946
20
-97.3473
11
304.848
21
-97.3449
0
LINE
8
BLACK
6
CONTINUOUS
10
304.848
20
-97.3449
11
304.753
21
-97.3379
0
LINE
8
BLACK
6
CONTINUOUS
10
304.753
20
-97.3379
11
304.662
21
-97.3267
0
LINE
8
BLACK
6
CONTINUOUS
10
304.662
20
-97.3267
11
304.573
21
-97.3117
0
LINE
8
BLACK
6
CONTINUOUS
10
304.573
20
-97.3117
11
304.49
21
-97.2937
0
LINE
8
BLACK
6
CONTINUOUS
10
304.49
20
-97.2937
11
304.41
21
-97.2727
0
LINE
8
BLACK
6
CONTINUOUS
10
304.41
20
-97.2727
11
304.327
21
-97.2471
0
LINE
8
BLACK
6
CONTINUOUS
10
304.327
20
-97.2471
11
304.252
21
-97.2201
0
LINE
8
BLACK
6
CONTINUOUS
10
304.252
20
-97.2201
11
304.178
21
-97.1903
0
LINE
8
BLACK
6
CONTINUOUS
10
304.178
20
-97.1903
11
304.108
21
-97.1585
0
LINE
8
BLACK
6
CONTINUOUS
10
304.108
20
-97.1585
11
304.04
21
-97.1248
0
LINE
8
BLACK
6
CONTINUOUS
10
304.04
20
-97.1248
11
303.972
21
-97.0871
0
LINE
8
BLACK
6
CONTINUOUS
10
303.972
20
-97.0871
11
303.909
21
-97.0487
0
LINE
8
BLACK
6
CONTINUOUS
10
303.909
20
-97.0487
11
303.845
21
-97.0068
0
LINE
8
BLACK
6
CONTINUOUS
10
303.845
20
-97.0068
11
303.786
21
-96.9647
0
LINE
8
BLACK
6
CONTINUOUS
10
303.786
20
-96.9647
11
303.729
21
-96.9209
0
LINE
8
BLACK
6
CONTINUOUS
10
303.729
20
-96.9209
11
303.674
21
-96.8754
0
LINE
8
BLACK
6
CONTINUOUS
10
303.674
20
-96.8754
11
303.62
21
-96.8274
0
LINE
8
BLACK
6
CONTINUOUS
10
303.62
20
-96.8274
11
303.569
21
-96.7777
0
LINE
8
BLACK
6
CONTINUOUS
10
303.569
20
-96.7777
11
303.518
21
-96.7254
0
LINE
8
BLACK
6
CONTINUOUS
10
303.518
20
-96.7254
11
303.47
21
-96.6723
0
LINE
8
BLACK
6
CONTINUOUS
10
303.47
20
-96.6723
11
303.424
21
-96.6167
0
LINE
8
BLACK
6
CONTINUOUS
10
303.424
20
-96.6167
11
303.38
21
-96.559
0
LINE
8
BLACK
6
CONTINUOUS
10
303.38
20
-96.559
11
303.338
21
-96.5003
0
LINE
8
BLACK
6
CONTINUOUS
10
303.338
20
-96.5003
11
303.297
21
-96.439
0
LINE
8
BLACK
6
CONTINUOUS
10
303.297
20
-96.439
11
303.259
21
-96.3762
0
LINE
8
BLACK
6
CONTINUOUS
10
303.259
20
-96.3762
11
303.223
21
-96.3115
0
LINE
8
BLACK
6
CONTINUOUS
10
303.223
20
-96.3115
11
303.189
21
-96.2447
0
LINE
8
BLACK
6
CONTINUOUS
10
303.189
20
-96.2447
11
303.158
21
-96.1761
0
LINE
8
BLACK
6
CONTINUOUS
10
303.158
20
-96.1761
11
303.128
21
-96.1036
0
LINE
8
BLACK
6
CONTINUOUS
10
303.128
20
-96.1036
11
303.1
21
-96.0269
0
LINE
8
BLACK
6
CONTINUOUS
10
303.1
20
-96.0269
11
303.075
21
-95.9481
0
LINE
8
BLACK
6
CONTINUOUS
10
303.075
20
-95.9481
11
303.053
21
-95.8689
0
LINE
8
BLACK
6
CONTINUOUS
10
303.053
20
-95.8689
11
303.034
21
-95.7825
0
LINE
8
BLACK
6
CONTINUOUS
10
303.034
20
-95.7825
11
303.019
21
-95.6958
0
LINE
8
BLACK
6
CONTINUOUS
10
303.019
20
-95.6958
11
303.007
21
-95.6066
0
LINE
8
BLACK
6
CONTINUOUS
10
303.007
20
-95.6066
11
302.999
21
-95.514
0
LINE
8
BLACK
6
CONTINUOUS
10
302.999
20
-95.514
11
302.996
21
-95.4146
0
LINE
8
BLACK
6
CONTINUOUS
10
302.996
20
-95.4146
11
302.996
21
-95.3973
0
LINE
8
BLACK
6
CONTINUOUS
10
233.45
20
-97.7181
11
219.602
21
-97.7181
0
LINE
8
BLACK
6
CONTINUOUS
10
285.646
20
-27.3463
11
285.644
21
-27.4444
0
LINE
8
BLACK
6
CONTINUOUS
10
285.644
20
-27.4444
11
285.636
21
-27.5417
0
LINE
8
BLACK
6
CONTINUOUS
10
285.636
20
-27.5417
11
285.625
21
-27.6314
0
LINE
8
BLACK
6
CONTINUOUS
10
285.625
20
-27.6314
11
285.61
21
-27.7202
0
LINE
8
BLACK
6
CONTINUOUS
10
285.61
20
-27.7202
11
285.592
21
-27.8035
0
LINE
8
BLACK
6
CONTINUOUS
10
285.592
20
-27.8035
11
285.571
21
-27.8829
0
LINE
8
BLACK
6
CONTINUOUS
10
285.571
20
-27.8829
11
285.547
21
-27.9601
0
LINE
8
BLACK
6
CONTINUOUS
10
285.547
20
-27.9601
11
285.521
21
-28.0345
0
LINE
8
BLACK
6
CONTINUOUS
10
285.521
20
-28.0345
11
285.492
21
-28.1068
0
LINE
8
BLACK
6
CONTINUOUS
10
285.492
20
-28.1068
11
285.459
21
-28.1807
0
LINE
8
BLACK
6
CONTINUOUS
10
285.459
20
-28.1807
11
285.425
21
-28.2478
0
LINE
8
BLACK
6
CONTINUOUS
10
285.425
20
-28.2478
11
285.39
21
-28.3132
0
LINE
8
BLACK
6
CONTINUOUS
10
285.39
20
-28.3132
11
285.35
21
-28.379
0
LINE
8
BLACK
6
CONTINUOUS
10
285.35
20
-28.379
11
285.31
21
-28.4408
0
LINE
8
BLACK
6
CONTINUOUS
10
285.31
20
-28.4408
11
285.268
21
-28.5005
0
LINE
8
BLACK
6
CONTINUOUS
10
285.268
20
-28.5005
11
285.224
21
-28.5586
0
LINE
8
BLACK
6
CONTINUOUS
10
285.224
20
-28.5586
11
285.178
21
-28.6136
0
LINE
8
BLACK
6
CONTINUOUS
10
285.178
20
-28.6136
11
285.131
21
-28.667
0
LINE
8
BLACK
6
CONTINUOUS
10
285.131
20
-28.667
11
285.08
21
-28.7201
0
LINE
8
BLACK
6
CONTINUOUS
10
285.08
20
-28.7201
11
285.029
21
-28.77
0
LINE
8
BLACK
6
CONTINUOUS
10
285.029
20
-28.77
11
284.976
21
-28.8181
0
LINE
8
BLACK
6
CONTINUOUS
10
284.976
20
-28.8181
11
284.92
21
-28.8644
0
LINE
8
BLACK
6
CONTINUOUS
10
284.92
20
-28.8644
11
284.864
21
-28.9084
0
LINE
8
BLACK
6
CONTINUOUS
10
284.864
20
-28.9084
11
284.805
21
-28.9507
0
LINE
8
BLACK
6
CONTINUOUS
10
284.805
20
-28.9507
11
284.742
21
-28.9924
0
LINE
8
BLACK
6
CONTINUOUS
10
284.742
20
-28.9924
11
284.676
21
-29.0322
0
LINE
8
BLACK
6
CONTINUOUS
10
284.676
20
-29.0322
11
284.671
21
-29.0351
0
LINE
8
BLACK
6
CONTINUOUS
10
282.721
20
-25.6576
11
282.786
21
-25.6219
0
LINE
8
BLACK
6
CONTINUOUS
10
282.786
20
-25.6219
11
282.853
21
-25.5882
0
LINE
8
BLACK
6
CONTINUOUS
10
282.853
20
-25.5882
11
282.923
21
-25.5562
0
LINE
8
BLACK
6
CONTINUOUS
10
282.923
20
-25.5562
11
282.997
21
-25.5258
0
LINE
8
BLACK
6
CONTINUOUS
10
282.997
20
-25.5258
11
283.073
21
-25.4987
0
LINE
8
BLACK
6
CONTINUOUS
10
283.073
20
-25.4987
11
283.149
21
-25.4747
0
LINE
8
BLACK
6
CONTINUOUS
10
283.149
20
-25.4747
11
283.229
21
-25.453
0
LINE
8
BLACK
6
CONTINUOUS
10
283.229
20
-25.453
11
283.312
21
-25.4345
0
LINE
8
BLACK
6
CONTINUOUS
10
283.312
20
-25.4345
11
283.402
21
-25.4187
0
LINE
8
BLACK
6
CONTINUOUS
10
283.402
20
-25.4187
11
283.492
21
-25.407
0
LINE
8
BLACK
6
CONTINUOUS
10
283.492
20
-25.407
11
283.587
21
-25.3994
0
LINE
8
BLACK
6
CONTINUOUS
10
283.587
20
-25.3994
11
283.687
21
-25.3963
0
LINE
8
BLACK
6
CONTINUOUS
10
283.687
20
-25.3963
11
283.786
21
-25.3984
0
LINE
8
BLACK
6
CONTINUOUS
10
283.786
20
-25.3984
11
283.88
21
-25.405
0
LINE
8
BLACK
6
CONTINUOUS
10
283.88
20
-25.405
11
283.975
21
-25.4163
0
LINE
8
BLACK
6
CONTINUOUS
10
283.975
20
-25.4163
11
284.062
21
-25.431
0
LINE
8
BLACK
6
CONTINUOUS
10
284.062
20
-25.431
11
284.146
21
-25.4488
0
LINE
8
BLACK
6
CONTINUOUS
10
284.146
20
-25.4488
11
284.227
21
-25.4698
0
LINE
8
BLACK
6
CONTINUOUS
10
284.227
20
-25.4698
11
284.307
21
-25.4943
0
LINE
8
BLACK
6
CONTINUOUS
10
284.307
20
-25.4943
11
284.381
21
-25.5203
0
LINE
8
BLACK
6
CONTINUOUS
10
284.381
20
-25.5203
11
284.453
21
-25.5491
0
LINE
8
BLACK
6
CONTINUOUS
10
284.453
20
-25.5491
11
284.523
21
-25.5801
0
LINE
8
BLACK
6
CONTINUOUS
10
284.523
20
-25.5801
11
284.59
21
-25.6134
0
LINE
8
BLACK
6
CONTINUOUS
10
284.59
20
-25.6134
11
284.662
21
-25.6521
0
LINE
8
BLACK
6
CONTINUOUS
10
284.662
20
-25.6521
11
284.671
21
-25.6576
0
LINE
8
BLACK
6
CONTINUOUS
10
308.774
20
-6.16632
11
308.987
21
-6.39746
0
LINE
8
BLACK
6
CONTINUOUS
10
309.752
20
-97.6317
11
309.642
21
-97.9264
0
LINE
8
BLACK
6
CONTINUOUS
10
309.932
20
-8.68092
11
309.947
21
-8.99588
0
LINE
8
BLACK
6
CONTINUOUS
10
309.752
20
-7.7589
11
309.835
21
-8.06116
0
LINE
8
BLACK
6
CONTINUOUS
10
208.296
20
-43.7964
11
208.299
21
-43.6981
0
LINE
8
BLACK
6
CONTINUOUS
10
208.299
20
-43.6981
11
208.307
21
-43.6058
0
LINE
8
BLACK
6
CONTINUOUS
10
208.307
20
-43.6058
11
208.32
21
-43.5166
0
LINE
8
BLACK
6
CONTINUOUS
10
208.32
20
-43.5166
11
208.337
21
-43.4333
0
LINE
8
BLACK
6
CONTINUOUS
10
208.337
20
-43.4333
11
208.358
21
-43.3525
0
LINE
8
BLACK
6
CONTINUOUS
10
208.358
20
-43.3525
11
208.383
21
-43.2757
0
LINE
8
BLACK
6
CONTINUOUS
10
208.383
20
-43.2757
11
208.41
21
-43.2024
0
LINE
8
BLACK
6
CONTINUOUS
10
208.41
20
-43.2024
11
208.441
21
-43.1302
0
LINE
8
BLACK
6
CONTINUOUS
10
208.441
20
-43.1302
11
208.475
21
-43.061
0
LINE
8
BLACK
6
CONTINUOUS
10
208.475
20
-43.061
11
208.512
21
-42.9932
0
LINE
8
BLACK
6
CONTINUOUS
10
208.512
20
-42.9932
11
208.55
21
-42.931
0
LINE
8
BLACK
6
CONTINUOUS
10
208.55
20
-42.931
11
208.591
21
-42.8709
0
LINE
8
BLACK
6
CONTINUOUS
10
208.591
20
-42.8709
11
208.639
21
-42.8062
0
LINE
8
BLACK
6
CONTINUOUS
10
208.639
20
-42.8062
11
208.685
21
-42.7502
0
LINE
8
BLACK
6
CONTINUOUS
10
208.685
20
-42.7502
11
208.733
21
-42.6975
0
LINE
8
BLACK
6
CONTINUOUS
10
208.733
20
-42.6975
11
208.783
21
-42.647
0
LINE
8
BLACK
6
CONTINUOUS
10
208.783
20
-42.647
11
208.835
21
-42.5984
0
LINE
8
BLACK
6
CONTINUOUS
10
208.835
20
-42.5984
11
208.891
21
-42.5517
0
LINE
8
BLACK
6
CONTINUOUS
10
208.891
20
-42.5517
11
208.947
21
-42.5078
0
LINE
8
BLACK
6
CONTINUOUS
10
208.947
20
-42.5078
11
209.007
21
-42.4661
0
LINE
8
BLACK
6
CONTINUOUS
10
209.007
20
-42.4661
11
209.068
21
-42.4271
0
LINE
8
BLACK
6
CONTINUOUS
10
209.068
20
-42.4271
11
209.132
21
-42.3904
0
LINE
8
BLACK
6
CONTINUOUS
10
209.132
20
-42.3904
11
209.204
21
-42.3534
0
LINE
8
BLACK
6
CONTINUOUS
10
209.204
20
-42.3534
11
209.276
21
-42.321
0
LINE
8
BLACK
6
CONTINUOUS
10
209.276
20
-42.321
11
209.349
21
-42.2925
0
LINE
8
BLACK
6
CONTINUOUS
10
209.349
20
-42.2925
11
209.424
21
-42.2671
0
LINE
8
BLACK
6
CONTINUOUS
10
209.424
20
-42.2671
11
209.505
21
-42.2445
0
LINE
8
BLACK
6
CONTINUOUS
10
209.505
20
-42.2445
11
209.587
21
-42.2262
0
LINE
8
BLACK
6
CONTINUOUS
10
209.587
20
-42.2262
11
209.673
21
-42.2119
0
LINE
8
BLACK
6
CONTINUOUS
10
209.673
20
-42.2119
11
209.764
21
-42.2018
0
LINE
8
BLACK
6
CONTINUOUS
10
209.764
20
-42.2018
11
209.861
21
-42.1968
0
LINE
8
BLACK
6
CONTINUOUS
10
209.861
20
-42.1968
11
209.896
21
-42.1964
0
LINE
8
BLACK
6
CONTINUOUS
10
307.181
20
-100.2
11
306.879
21
-100.286
0
LINE
8
BLACK
6
CONTINUOUS
10
309.51
20
-7.17978
11
309.642
21
-7.46426
0
LINE
8
BLACK
6
CONTINUOUS
10
157.448
20
-4.99538
11
305.944
21
-4.99538
0
LINE
8
BLACK
6
CONTINUOUS
10
307.181
20
-5.19096
11
307.476
21
-5.30018
0
LINE
8
BLACK
6
CONTINUOUS
10
309.947
20
-96.3947
11
309.932
21
-96.7097
0
LINE
8
BLACK
6
CONTINUOUS
10
306.879
20
-100.286
11
306.572
21
-100.347
0
LINE
8
BLACK
6
CONTINUOUS
10
308.774
20
-99.2243
11
308.543
21
-99.4377
0
LINE
8
BLACK
6
CONTINUOUS
10
210.696
20
-45.1821
11
210.631
21
-45.2177
0
LINE
8
BLACK
6
CONTINUOUS
10
210.631
20
-45.2177
11
210.562
21
-45.2511
0
LINE
8
BLACK
6
CONTINUOUS
10
210.562
20
-45.2511
11
210.491
21
-45.2817
0
LINE
8
BLACK
6
CONTINUOUS
10
210.491
20
-45.2817
11
210.417
21
-45.3092
0
LINE
8
BLACK
6
CONTINUOUS
10
210.417
20
-45.3092
11
210.334
21
-45.3352
0
LINE
8
BLACK
6
CONTINUOUS
10
210.334
20
-45.3352
11
210.254
21
-45.3559
0
LINE
8
BLACK
6
CONTINUOUS
10
210.254
20
-45.3559
11
210.169
21
-45.373
0
LINE
8
BLACK
6
CONTINUOUS
10
210.169
20
-45.373
11
210.081
21
-45.3856
0
LINE
8
BLACK
6
CONTINUOUS
10
210.081
20
-45.3856
11
209.989
21
-45.3937
0
LINE
8
BLACK
6
CONTINUOUS
10
209.989
20
-45.3937
11
209.89
21
-45.3964
0
LINE
8
BLACK
6
CONTINUOUS
10
209.89
20
-45.3964
11
209.792
21
-45.393
0
LINE
8
BLACK
6
CONTINUOUS
10
209.792
20
-45.393
11
209.698
21
-45.3841
0
LINE
8
BLACK
6
CONTINUOUS
10
209.698
20
-45.3841
11
209.608
21
-45.3704
0
LINE
8
BLACK
6
CONTINUOUS
10
209.608
20
-45.3704
11
209.526
21
-45.353
0
LINE
8
BLACK
6
CONTINUOUS
10
209.526
20
-45.353
11
209.446
21
-45.3317
0
LINE
8
BLACK
6
CONTINUOUS
10
209.446
20
-45.3317
11
209.369
21
-45.3071
0
LINE
8
BLACK
6
CONTINUOUS
10
209.369
20
-45.3071
11
209.295
21
-45.2793
0
LINE
8
BLACK
6
CONTINUOUS
10
209.295
20
-45.2793
11
209.222
21
-45.2477
0
LINE
8
BLACK
6
CONTINUOUS
10
209.222
20
-45.2477
11
209.155
21
-45.2144
0
LINE
8
BLACK
6
CONTINUOUS
10
209.155
20
-45.2144
11
209.096
21
-45.1821
0
LINE
8
BLACK
6
CONTINUOUS
10
211.496
20
-43.7964
11
211.493
21
-43.8941
0
LINE
8
BLACK
6
CONTINUOUS
10
211.493
20
-43.8941
11
211.485
21
-43.9863
0
LINE
8
BLACK
6
CONTINUOUS
10
211.485
20
-43.9863
11
211.472
21
-44.0744
0
LINE
8
BLACK
6
CONTINUOUS
10
211.472
20
-44.0744
11
211.455
21
-44.1579
0
LINE
8
BLACK
6
CONTINUOUS
10
211.455
20
-44.1579
11
211.433
21
-44.2398
0
LINE
8
BLACK
6
CONTINUOUS
10
211.433
20
-44.2398
11
211.409
21
-44.3158
0
LINE
8
BLACK
6
CONTINUOUS
10
211.409
20
-44.3158
11
211.382
21
-44.3893
0
LINE
8
BLACK
6
CONTINUOUS
10
211.382
20
-44.3893
11
211.352
21
-44.4605
0
LINE
8
BLACK
6
CONTINUOUS
10
211.352
20
-44.4605
11
211.319
21
-44.5289
0
LINE
8
BLACK
6
CONTINUOUS
10
211.319
20
-44.5289
11
211.283
21
-44.5943
0
LINE
8
BLACK
6
CONTINUOUS
10
211.283
20
-44.5943
11
211.245
21
-44.6566
0
LINE
8
BLACK
6
CONTINUOUS
10
211.245
20
-44.6566
11
211.204
21
-44.7185
0
LINE
8
BLACK
6
CONTINUOUS
10
211.204
20
-44.7185
11
211.16
21
-44.7771
0
LINE
8
BLACK
6
CONTINUOUS
10
211.16
20
-44.7771
11
211.115
21
-44.8325
0
LINE
8
BLACK
6
CONTINUOUS
10
211.115
20
-44.8325
11
211.068
21
-44.8857
0
LINE
8
BLACK
6
CONTINUOUS
10
211.068
20
-44.8857
11
211.018
21
-44.9374
0
LINE
8
BLACK
6
CONTINUOUS
10
211.018
20
-44.9374
11
210.965
21
-44.9867
0
LINE
8
BLACK
6
CONTINUOUS
10
210.965
20
-44.9867
11
210.907
21
-45.0366
0
LINE
8
BLACK
6
CONTINUOUS
10
210.907
20
-45.0366
11
210.847
21
-45.0829
0
LINE
8
BLACK
6
CONTINUOUS
10
210.847
20
-45.0829
11
210.787
21
-45.1252
0
LINE
8
BLACK
6
CONTINUOUS
10
210.787
20
-45.1252
11
210.726
21
-45.1646
0
LINE
8
BLACK
6
CONTINUOUS
10
210.726
20
-45.1646
11
210.696
21
-45.1821
0
LINE
8
BLACK
6
CONTINUOUS
10
309.642
20
-97.9264
11
309.51
21
-98.2108
0
LINE
8
BLACK
6
CONTINUOUS
10
308.035
20
-99.806
11
307.76
21
-99.9584
0
LINE
8
BLACK
6
CONTINUOUS
10
306.572
20
-5.04364
11
306.879
21
-5.1046
0
LINE
8
BLACK
6
CONTINUOUS
10
308.987
20
-6.39746
11
309.18
21
-6.64384
0
LINE
8
BLACK
6
CONTINUOUS
10
209.096
20
-45.1821
11
209.032
21
-45.1428
0
LINE
8
BLACK
6
CONTINUOUS
10
209.032
20
-45.1428
11
208.968
21
-45.0998
0
LINE
8
BLACK
6
CONTINUOUS
10
208.968
20
-45.0998
11
208.908
21
-45.0553
0
LINE
8
BLACK
6
CONTINUOUS
10
208.908
20
-45.0553
11
208.851
21
-45.0083
0
LINE
8
BLACK
6
CONTINUOUS
10
208.851
20
-45.0083
11
208.798
21
-44.9601
0
LINE
8
BLACK
6
CONTINUOUS
10
208.798
20
-44.9601
11
208.746
21
-44.9085
0
LINE
8
BLACK
6
CONTINUOUS
10
208.746
20
-44.9085
11
208.697
21
-44.8559
0
LINE
8
BLACK
6
CONTINUOUS
10
208.697
20
-44.8559
11
208.651
21
-44.8011
0
LINE
8
BLACK
6
CONTINUOUS
10
208.651
20
-44.8011
11
208.607
21
-44.7444
0
LINE
8
BLACK
6
CONTINUOUS
10
208.607
20
-44.7444
11
208.566
21
-44.6854
0
LINE
8
BLACK
6
CONTINUOUS
10
208.566
20
-44.6854
11
208.526
21
-44.6222
0
LINE
8
BLACK
6
CONTINUOUS
10
208.526
20
-44.6222
11
208.489
21
-44.5576
0
LINE
8
BLACK
6
CONTINUOUS
10
208.489
20
-44.5576
11
208.455
21
-44.4913
0
LINE
8
BLACK
6
CONTINUOUS
10
208.455
20
-44.4913
11
208.423
21
-44.4219
0
LINE
8
BLACK
6
CONTINUOUS
10
208.423
20
-44.4219
11
208.395
21
-44.3499
0
LINE
8
BLACK
6
CONTINUOUS
10
208.395
20
-44.3499
11
208.369
21
-44.2741
0
LINE
8
BLACK
6
CONTINUOUS
10
208.369
20
-44.2741
11
208.347
21
-44.1961
0
LINE
8
BLACK
6
CONTINUOUS
10
208.347
20
-44.1961
11
208.328
21
-44.1141
0
LINE
8
BLACK
6
CONTINUOUS
10
208.328
20
-44.1141
11
208.313
21
-44.0283
0
LINE
8
BLACK
6
CONTINUOUS
10
208.313
20
-44.0283
11
208.302
21
-43.9386
0
LINE
8
BLACK
6
CONTINUOUS
10
208.302
20
-43.9386
11
208.297
21
-43.844
0
LINE
8
BLACK
6
CONTINUOUS
10
208.297
20
-43.844
11
208.296
21
-43.7964
0
LINE
8
BLACK
6
CONTINUOUS
10
308.543
20
-5.95296
11
308.774
21
-6.16632
0
LINE
8
BLACK
6
CONTINUOUS
10
307.76
20
-99.9584
11
307.476
21
-100.093
0
LINE
8
BLACK
6
CONTINUOUS
10
309.896
20
-8.3685
11
309.932
21
-8.68092
0
LINE
8
BLACK
6
CONTINUOUS
10
309.355
20
-98.4852
11
309.18
21
-98.7468
0
LINE
8
BLACK
6
CONTINUOUS
10
309.642
20
-7.46426
11
309.752
21
-7.7589
0
LINE
8
BLACK
6
CONTINUOUS
10
306.879
20
-5.1046
11
307.181
21
-5.19096
0
LINE
8
BLACK
6
CONTINUOUS
10
308.035
20
-5.58466
11
308.296
21
-5.75738
0
LINE
8
BLACK
6
CONTINUOUS
10
309.51
20
-98.2108
11
309.355
21
-98.4852
0
LINE
8
BLACK
6
CONTINUOUS
10
308.296
20
-5.75738
11
308.543
21
-5.95296
0
LINE
8
BLACK
6
CONTINUOUS
10
309.835
20
-8.06116
11
309.896
21
-8.3685
0
LINE
8
BLACK
6
CONTINUOUS
10
307.476
20
-100.093
11
307.181
21
-100.2
0
LINE
8
BLACK
6
CONTINUOUS
10
307.76
20
-5.42972
11
308.035
21
-5.58466
0
LINE
8
BLACK
6
CONTINUOUS
10
306.572
20
-100.347
11
306.259
21
-100.383
0
LINE
8
BLACK
6
CONTINUOUS
10
309.932
20
-96.7097
11
309.896
21
-97.0221
0
LINE
8
BLACK
6
CONTINUOUS
10
309.896
20
-97.0221
11
309.835
21
-97.3295
0
LINE
8
BLACK
6
CONTINUOUS
10
309.355
20
-6.90546
11
309.51
21
-7.17978
0
LINE
8
BLACK
6
CONTINUOUS
10
307.476
20
-5.30018
11
307.76
21
-5.42972
0
LINE
8
BLACK
6
CONTINUOUS
10
305.944
20
-100.395
11
138.398
21
-100.395
0
LINE
8
BLACK
6
CONTINUOUS
10
309.18
20
-98.7468
11
308.987
21
-98.9932
0
LINE
8
BLACK
6
CONTINUOUS
10
309.947
20
-8.99588
11
309.947
21
-96.3947
0
LINE
8
BLACK
6
CONTINUOUS
10
306.259
20
-100.383
11
305.944
21
-100.395
0
LINE
8
BLACK
6
CONTINUOUS
10
306.259
20
-5.00808
11
306.572
21
-5.04364
0
LINE
8
BLACK
6
CONTINUOUS
10
309.835
20
-97.3295
11
309.752
21
-97.6317
0
LINE
8
BLACK
6
CONTINUOUS
10
308.296
20
-99.6307
11
308.035
21
-99.806
0
LINE
8
BLACK
6
CONTINUOUS
10
241.032
20
-64.82
11
254.883
21
-64.82
0
LINE
8
BLACK
6
CONTINUOUS
10
308.543
20
-99.4377
11
308.296
21
-99.6307
0
LINE
8
BLACK
6
CONTINUOUS
10
164.832
20
-64.82
11
178.683
21
-64.82
0
LINE
8
BLACK
6
CONTINUOUS
10
260.082
20
-64.82
11
273.933
21
-64.82
0
LINE
8
BLACK
6
CONTINUOUS
10
274.961
20
-46.3186
11
274.961
21
-47.2381
0
LINE
8
BLACK
6
CONTINUOUS
10
254.883
20
-78.6681
11
241.032
21
-78.6681
0
LINE
8
BLACK
6
CONTINUOUS
10
164.832
20
-78.6681
11
164.832
21
-64.82
0
LINE
8
BLACK
6
CONTINUOUS
10
216.783
20
-78.6681
11
202.932
21
-78.6681
0
LINE
8
BLACK
6
CONTINUOUS
10
305.944
20
-4.99538
11
306.259
21
-5.00808
0
LINE
8
BLACK
6
CONTINUOUS
10
286.277
20
-78.6681
11
286.277
21
-64.82
0
LINE
8
BLACK
6
CONTINUOUS
10
281.512
20
-54.9191
11
281.512
21
-59.6181
0
LINE
8
BLACK
6
CONTINUOUS
10
178.683
20
-78.6681
11
164.832
21
-78.6681
0
LINE
8
BLACK
6
CONTINUOUS
10
308.987
20
-98.9932
11
308.774
21
-99.2243
0
LINE
8
BLACK
6
CONTINUOUS
10
300.125
20
-64.82
11
300.125
21
-78.6681
0
LINE
8
BLACK
6
CONTINUOUS
10
221.982
20
-64.82
11
235.833
21
-64.82
0
LINE
8
BLACK
6
CONTINUOUS
10
235.833
20
-64.82
11
235.833
21
-78.6681
0
LINE
8
BLACK
6
CONTINUOUS
10
183.882
20
-78.6681
11
183.882
21
-64.82
0
LINE
8
BLACK
6
CONTINUOUS
10
273.933
20
-64.82
11
273.933
21
-78.6681
0
LINE
8
BLACK
6
CONTINUOUS
10
216.783
20
-64.82
11
216.783
21
-78.6681
0
LINE
8
BLACK
6
CONTINUOUS
10
197.733
20
-78.6681
11
183.882
21
-78.6681
0
LINE
8
BLACK
6
CONTINUOUS
10
235.833
20
-78.6681
11
221.982
21
-78.6681
0
LINE
8
BLACK
6
CONTINUOUS
10
183.882
20
-64.82
11
197.733
21
-64.82
0
LINE
8
BLACK
6
CONTINUOUS
10
260.082
20
-78.6681
11
260.082
21
-64.82
0
LINE
8
BLACK
6
CONTINUOUS
10
159.633
20
-64.82
11
159.633
21
-78.6681
0
LINE
8
BLACK
6
CONTINUOUS
10
286.277
20
-64.82
11
300.125
21
-64.82
0
LINE
8
BLACK
6
CONTINUOUS
10
281.512
20
-59.6181
11
295.363
21
-59.6181
0
LINE
8
BLACK
6
CONTINUOUS
10
145.782
20
-64.82
11
159.633
21
-64.82
0
LINE
8
BLACK
6
CONTINUOUS
10
169.158
20
-45.77
11
169.158
21
-59.6181
0
LINE
8
BLACK
6
CONTINUOUS
10
145.782
20
-78.6681
11
145.782
21
-64.82
0
LINE
8
BLACK
6
CONTINUOUS
10
273.237
20
-47.2381
11
273.237
21
-50.469
0
LINE
8
BLACK
6
CONTINUOUS
10
241.032
20
-78.6681
11
241.032
21
-64.82
0
LINE
8
BLACK
6
CONTINUOUS
10
202.932
20
-64.82
11
216.783
21
-64.82
0
LINE
8
BLACK
6
CONTINUOUS
10
273.933
20
-78.6681
11
260.082
21
-78.6681
0
LINE
8
BLACK
6
CONTINUOUS
10
193.407
20
-59.6181
11
193.407
21
-45.77
0
LINE
8
BLACK
6
CONTINUOUS
10
254.883
20
-64.82
11
254.883
21
-78.6681
0
LINE
8
BLACK
6
CONTINUOUS
10
274.961
20
-60.3699
11
278.113
21
-60.3699
0
LINE
8
BLACK
6
CONTINUOUS
10
274.961
20
-47.2381
11
273.237
21
-47.2381
0
LINE
8
BLACK
6
CONTINUOUS
10
178.683
20
-64.82
11
178.683
21
-78.6681
0
LINE
8
BLACK
6
CONTINUOUS
10
297.036
20
-54.9191
11
297.036
21
-59.3895
0
LINE
8
BLACK
6
CONTINUOUS
10
302.508
20
-26.72
11
302.508
21
-40.5681
0
LINE
8
BLACK
6
CONTINUOUS
10
207.258
20
-45.77
11
207.258
21
-59.6181
0
LINE
8
BLACK
6
CONTINUOUS
10
288.657
20
-26.72
11
302.508
21
-26.72
0
LINE
8
BLACK
6
CONTINUOUS
10
207.258
20
-59.6181
11
193.407
21
-59.6181
0
LINE
8
BLACK
6
CONTINUOUS
10
295.363
20
-59.6181
11
295.363
21
-54.9191
0
LINE
8
BLACK
6
CONTINUOUS
10
159.633
20
-78.6681
11
145.782
21
-78.6681
0
LINE
8
BLACK
6
CONTINUOUS
10
300.125
20
-78.6681
11
286.277
21
-78.6681
0
LINE
8
BLACK
6
CONTINUOUS
10
278.113
20
-59.3895
11
279.838
21
-59.3895
0
LINE
8
BLACK
6
CONTINUOUS
10
303.638
20
-50.469
11
303.638
21
-47.2381
0
LINE
8
BLACK
6
CONTINUOUS
10
202.932
20
-78.6681
11
202.932
21
-64.82
0
LINE
8
BLACK
6
CONTINUOUS
10
221.982
20
-78.6681
11
221.982
21
-64.82
0
LINE
8
BLACK
6
CONTINUOUS
10
197.733
20
-64.82
11
197.733
21
-78.6681
0
LINE
8
BLACK
6
CONTINUOUS
10
157.448
20
-23.0497
11
157.448
21
-4.99538
0
LINE
8
BLACK
6
CONTINUOUS
10
139.399
20
-81.2005
11
142.16
21
-81.2005
0
LINE
8
BLACK
6
CONTINUOUS
10
138.398
20
-100.395
11
138.398
21
-82.1987
0
LINE
8
BLACK
6
CONTINUOUS
10
151.685
20
-43.0954
11
148.924
21
-43.0954
0
LINE
8
BLACK
6
CONTINUOUS
10
144.159
20
-62.1505
11
151.685
21
-62.1505
0
LINE
8
BLACK
6
CONTINUOUS
10
148.924
20
-24.0505
11
156.45
21
-24.0505
0
LINE
8
BLACK
6
CONTINUOUS
10
152.686
20
-61.1497
11
152.686
21
-44.0961
0
LINE
8
BLACK
6
CONTINUOUS
10
147.923
20
-42.0972
11
147.923
21
-25.0487
0
LINE
8
BLACK
6
CONTINUOUS
10
143.161
20
-80.1997
11
143.161
21
-63.1487
0
LINE
8
BLACK
6
CONTINUOUS
10
147.925
20
-42.0979
11
147.93
21
-42.1942
0
LINE
8
BLACK
6
CONTINUOUS
10
147.93
20
-42.1942
11
147.942
21
-42.2822
0
LINE
8
BLACK
6
CONTINUOUS
10
147.942
20
-42.2822
11
147.961
21
-42.365
0
LINE
8
BLACK
6
CONTINUOUS
10
147.961
20
-42.365
11
147.986
21
-42.4425
0
LINE
8
BLACK
6
CONTINUOUS
10
147.986
20
-42.4425
11
148.016
21
-42.5139
0
LINE
8
BLACK
6
CONTINUOUS
10
148.016
20
-42.5139
11
148.049
21
-42.5805
0
LINE
8
BLACK
6
CONTINUOUS
10
148.049
20
-42.5805
11
148.088
21
-42.644
0
LINE
8
BLACK
6
CONTINUOUS
10
148.088
20
-42.644
11
148.129
21
-42.7031
0
LINE
8
BLACK
6
CONTINUOUS
10
148.129
20
-42.7031
11
148.174
21
-42.7583
0
LINE
8
BLACK
6
CONTINUOUS
10
148.174
20
-42.7583
11
148.223
21
-42.81
0
LINE
8
BLACK
6
CONTINUOUS
10
148.223
20
-42.81
11
148.276
21
-42.8585
0
LINE
8
BLACK
6
CONTINUOUS
10
148.276
20
-42.8585
11
148.333
21
-42.9033
0
LINE
8
BLACK
6
CONTINUOUS
10
148.333
20
-42.9033
11
148.392
21
-42.9442
0
LINE
8
BLACK
6
CONTINUOUS
10
148.392
20
-42.9442
11
148.457
21
-42.9817
0
LINE
8
BLACK
6
CONTINUOUS
10
148.457
20
-42.9817
11
148.526
21
-43.0149
0
LINE
8
BLACK
6
CONTINUOUS
10
148.526
20
-43.0149
11
148.598
21
-43.0431
0
LINE
8
BLACK
6
CONTINUOUS
10
148.598
20
-43.0431
11
148.676
21
-43.0666
0
LINE
8
BLACK
6
CONTINUOUS
10
148.676
20
-43.0666
11
148.76
21
-43.0843
0
LINE
8
BLACK
6
CONTINUOUS
10
148.76
20
-43.0843
11
148.849
21
-43.0951
0
LINE
8
BLACK
6
CONTINUOUS
10
148.849
20
-43.0951
11
148.925
21
-43.0979
0
LINE
8
BLACK
6
CONTINUOUS
10
139.4
20
-81.2007
11
139.304
21
-81.2053
0
LINE
8
BLACK
6
CONTINUOUS
10
139.304
20
-81.2053
11
139.215
21
-81.2179
0
LINE
8
BLACK
6
CONTINUOUS
10
139.215
20
-81.2179
11
139.134
21
-81.2367
0
LINE
8
BLACK
6
CONTINUOUS
10
139.134
20
-81.2367
11
139.058
21
-81.2609
0
LINE
8
BLACK
6
CONTINUOUS
10
139.058
20
-81.2609
11
138.987
21
-81.29
0
LINE
8
BLACK
6
CONTINUOUS
10
138.987
20
-81.29
11
138.918
21
-81.3247
0
LINE
8
BLACK
6
CONTINUOUS
10
138.918
20
-81.3247
11
138.854
21
-81.3627
0
LINE
8
BLACK
6
CONTINUOUS
10
138.854
20
-81.3627
11
138.796
21
-81.4042
0
LINE
8
BLACK
6
CONTINUOUS
10
138.796
20
-81.4042
11
138.74
21
-81.45
0
LINE
8
BLACK
6
CONTINUOUS
10
138.74
20
-81.45
11
138.688
21
-81.4987
0
LINE
8
BLACK
6
CONTINUOUS
10
138.688
20
-81.4987
11
138.64
21
-81.5514
0
LINE
8
BLACK
6
CONTINUOUS
10
138.64
20
-81.5514
11
138.595
21
-81.6078
0
LINE
8
BLACK
6
CONTINUOUS
10
138.595
20
-81.6078
11
138.554
21
-81.6678
0
LINE
8
BLACK
6
CONTINUOUS
10
138.554
20
-81.6678
11
138.517
21
-81.7322
0
LINE
8
BLACK
6
CONTINUOUS
10
138.517
20
-81.7322
11
138.482
21
-81.8034
0
LINE
8
BLACK
6
CONTINUOUS
10
138.482
20
-81.8034
11
138.454
21
-81.876
0
LINE
8
BLACK
6
CONTINUOUS
10
138.454
20
-81.876
11
138.431
21
-81.9534
0
LINE
8
BLACK
6
CONTINUOUS
10
138.431
20
-81.9534
11
138.414
21
-82.0368
0
LINE
8
BLACK
6
CONTINUOUS
10
138.414
20
-82.0368
11
138.403
21
-82.1327
0
LINE
8
BLACK
6
CONTINUOUS
10
138.403
20
-82.1327
11
138.4
21
-82.2007
0
LINE
8
BLACK
6
CONTINUOUS
10
144.161
20
-62.1507
11
144.065
21
-62.1553
0
LINE
8
BLACK
6
CONTINUOUS
10
144.065
20
-62.1553
11
143.976
21
-62.1679
0
LINE
8
BLACK
6
CONTINUOUS
10
143.976
20
-62.1679
11
143.895
21
-62.1867
0
LINE
8
BLACK
6
CONTINUOUS
10
143.895
20
-62.1867
11
143.819
21
-62.2109
0
LINE
8
BLACK
6
CONTINUOUS
10
143.819
20
-62.2109
11
143.748
21
-62.24
0
LINE
8
BLACK
6
CONTINUOUS
10
143.748
20
-62.24
11
143.679
21
-62.2747
0
LINE
8
BLACK
6
CONTINUOUS
10
143.679
20
-62.2747
11
143.615
21
-62.3127
0
LINE
8
BLACK
6
CONTINUOUS
10
143.615
20
-62.3127
11
143.557
21
-62.3542
0
LINE
8
BLACK
6
CONTINUOUS
10
143.557
20
-62.3542
11
143.501
21
-62.4
0
LINE
8
BLACK
6
CONTINUOUS
10
143.501
20
-62.4
11
143.449
21
-62.4487
0
LINE
8
BLACK
6
CONTINUOUS
10
143.449
20
-62.4487
11
143.401
21
-62.5014
0
LINE
8
BLACK
6
CONTINUOUS
10
143.401
20
-62.5014
11
143.356
21
-62.5578
0
LINE
8
BLACK
6
CONTINUOUS
10
143.356
20
-62.5578
11
143.315
21
-62.6178
0
LINE
8
BLACK
6
CONTINUOUS
10
143.315
20
-62.6178
11
143.278
21
-62.6822
0
LINE
8
BLACK
6
CONTINUOUS
10
143.278
20
-62.6822
11
143.243
21
-62.7534
0
LINE
8
BLACK
6
CONTINUOUS
10
143.243
20
-62.7534
11
143.215
21
-62.826
0
LINE
8
BLACK
6
CONTINUOUS
10
143.215
20
-62.826
11
143.192
21
-62.9034
0
LINE
8
BLACK
6
CONTINUOUS
10
143.192
20
-62.9034
11
143.175
21
-62.9868
0
LINE
8
BLACK
6
CONTINUOUS
10
143.175
20
-62.9868
11
143.164
21
-63.0827
0
LINE
8
BLACK
6
CONTINUOUS
10
143.164
20
-63.0827
11
143.161
21
-63.1507
0
LINE
8
BLACK
6
CONTINUOUS
10
151.686
20
-62.1507
11
151.786
21
-62.1458
0
LINE
8
BLACK
6
CONTINUOUS
10
151.786
20
-62.1458
11
151.873
21
-62.1333
0
LINE
8
BLACK
6
CONTINUOUS
10
151.873
20
-62.1333
11
151.956
21
-62.114
0
LINE
8
BLACK
6
CONTINUOUS
10
151.956
20
-62.114
11
152.032
21
-62.0894
0
LINE
8
BLACK
6
CONTINUOUS
10
152.032
20
-62.0894
11
152.103
21
-62.06
0
LINE
8
BLACK
6
CONTINUOUS
10
152.103
20
-62.06
11
152.172
21
-62.0253
0
LINE
8
BLACK
6
CONTINUOUS
10
152.172
20
-62.0253
11
152.236
21
-61.9864
0
LINE
8
BLACK
6
CONTINUOUS
10
152.236
20
-61.9864
11
152.295
21
-61.9442
0
LINE
8
BLACK
6
CONTINUOUS
10
152.295
20
-61.9442
11
152.35
21
-61.8988
0
LINE
8
BLACK
6
CONTINUOUS
10
152.35
20
-61.8988
11
152.402
21
-61.849
0
LINE
8
BLACK
6
CONTINUOUS
10
152.402
20
-61.849
11
152.45
21
-61.7963
0
LINE
8
BLACK
6
CONTINUOUS
10
152.45
20
-61.7963
11
152.497
21
-61.7363
0
LINE
8
BLACK
6
CONTINUOUS
10
152.497
20
-61.7363
11
152.539
21
-61.6741
0
LINE
8
BLACK
6
CONTINUOUS
10
152.539
20
-61.6741
11
152.576
21
-61.608
0
LINE
8
BLACK
6
CONTINUOUS
10
152.576
20
-61.608
11
152.608
21
-61.5393
0
LINE
8
BLACK
6
CONTINUOUS
10
152.608
20
-61.5393
11
152.636
21
-61.4664
0
LINE
8
BLACK
6
CONTINUOUS
10
152.636
20
-61.4664
11
152.658
21
-61.3864
0
LINE
8
BLACK
6
CONTINUOUS
10
152.658
20
-61.3864
11
152.675
21
-61.3022
0
LINE
8
BLACK
6
CONTINUOUS
10
152.675
20
-61.3022
11
152.685
21
-61.2113
0
LINE
8
BLACK
6
CONTINUOUS
10
152.685
20
-61.2113
11
152.686
21
-61.1507
0
LINE
8
BLACK
6
CONTINUOUS
10
156.45
20
-24.0506
11
156.55
21
-24.0457
0
LINE
8
BLACK
6
CONTINUOUS
10
156.55
20
-24.0457
11
156.637
21
-24.0332
0
LINE
8
BLACK
6
CONTINUOUS
10
156.637
20
-24.0332
11
156.72
21
-24.0139
0
LINE
8
BLACK
6
CONTINUOUS
10
156.72
20
-24.0139
11
156.796
21
-23.9893
0
LINE
8
BLACK
6
CONTINUOUS
10
156.796
20
-23.9893
11
156.867
21
-23.9599
0
LINE
8
BLACK
6
CONTINUOUS
10
156.867
20
-23.9599
11
156.936
21
-23.9252
0
LINE
8
BLACK
6
CONTINUOUS
10
156.936
20
-23.9252
11
157
21
-23.8863
0
LINE
8
BLACK
6
CONTINUOUS
10
157
20
-23.8863
11
157.059
21
-23.8441
0
LINE
8
BLACK
6
CONTINUOUS
10
157.059
20
-23.8441
11
157.114
21
-23.7987
0
LINE
8
BLACK
6
CONTINUOUS
10
157.114
20
-23.7987
11
157.166
21
-23.7489
0
LINE
8
BLACK
6
CONTINUOUS
10
157.166
20
-23.7489
11
157.214
21
-23.6962
0
LINE
8
BLACK
6
CONTINUOUS
10
157.214
20
-23.6962
11
157.261
21
-23.6362
0
LINE
8
BLACK
6
CONTINUOUS
10
157.261
20
-23.6362
11
157.303
21
-23.574
0
LINE
8
BLACK
6
CONTINUOUS
10
157.303
20
-23.574
11
157.34
21
-23.5079
0
LINE
8
BLACK
6
CONTINUOUS
10
157.34
20
-23.5079
11
157.372
21
-23.4392
0
LINE
8
BLACK
6
CONTINUOUS
10
157.372
20
-23.4392
11
157.4
21
-23.3662
0
LINE
8
BLACK
6
CONTINUOUS
10
157.4
20
-23.3662
11
157.422
21
-23.2863
0
LINE
8
BLACK
6
CONTINUOUS
10
157.422
20
-23.2863
11
157.439
21
-23.2021
0
LINE
8
BLACK
6
CONTINUOUS
10
157.439
20
-23.2021
11
157.449
21
-23.1112
0
LINE
8
BLACK
6
CONTINUOUS
10
157.449
20
-23.1112
11
157.45
21
-23.0506
0
LINE
8
BLACK
6
CONTINUOUS
10
148.925
20
-24.0506
11
148.829
21
-24.0552
0
LINE
8
BLACK
6
CONTINUOUS
10
148.829
20
-24.0552
11
148.74
21
-24.0678
0
LINE
8
BLACK
6
CONTINUOUS
10
148.74
20
-24.0678
11
148.659
21
-24.0866
0
LINE
8
BLACK
6
CONTINUOUS
10
148.659
20
-24.0866
11
148.583
21
-24.1108
0
LINE
8
BLACK
6
CONTINUOUS
10
148.583
20
-24.1108
11
148.512
21
-24.1399
0
LINE
8
BLACK
6
CONTINUOUS
10
148.512
20
-24.1399
11
148.443
21
-24.1746
0
LINE
8
BLACK
6
CONTINUOUS
10
148.443
20
-24.1746
11
148.379
21
-24.2126
0
LINE
8
BLACK
6
CONTINUOUS
10
148.379
20
-24.2126
11
148.321
21
-24.2541
0
LINE
8
BLACK
6
CONTINUOUS
10
148.321
20
-24.2541
11
148.265
21
-24.2999
0
LINE
8
BLACK
6
CONTINUOUS
10
148.265
20
-24.2999
11
148.213
21
-24.3486
0
LINE
8
BLACK
6
CONTINUOUS
10
148.213
20
-24.3486
11
148.165
21
-24.4013
0
LINE
8
BLACK
6
CONTINUOUS
10
148.165
20
-24.4013
11
148.12
21
-24.4577
0
LINE
8
BLACK
6
CONTINUOUS
10
148.12
20
-24.4577
11
148.079
21
-24.5177
0
LINE
8
BLACK
6
CONTINUOUS
10
148.079
20
-24.5177
11
148.042
21
-24.5821
0
LINE
8
BLACK
6
CONTINUOUS
10
148.042
20
-24.5821
11
148.007
21
-24.6533
0
LINE
8
BLACK
6
CONTINUOUS
10
148.007
20
-24.6533
11
147.979
21
-24.7259
0
LINE
8
BLACK
6
CONTINUOUS
10
147.979
20
-24.7259
11
147.956
21
-24.8033
0
LINE
8
BLACK
6
CONTINUOUS
10
147.956
20
-24.8033
11
147.939
21
-24.8867
0
LINE
8
BLACK
6
CONTINUOUS
10
147.939
20
-24.8867
11
147.928
21
-24.9826
0
LINE
8
BLACK
6
CONTINUOUS
10
147.928
20
-24.9826
11
147.925
21
-25.0506
0
LINE
8
BLACK
6
CONTINUOUS
10
152.686
20
-44.0979
11
152.682
21
-44.0012
0
LINE
8
BLACK
6
CONTINUOUS
10
152.682
20
-44.0012
11
152.669
21
-43.9109
0
LINE
8
BLACK
6
CONTINUOUS
10
152.669
20
-43.9109
11
152.65
21
-43.8293
0
LINE
8
BLACK
6
CONTINUOUS
10
152.65
20
-43.8293
11
152.625
21
-43.7519
0
LINE
8
BLACK
6
CONTINUOUS
10
152.625
20
-43.7519
11
152.595
21
-43.6791
0
LINE
8
BLACK
6
CONTINUOUS
10
152.595
20
-43.6791
11
152.561
21
-43.6126
0
LINE
8
BLACK
6
CONTINUOUS
10
152.561
20
-43.6126
11
152.522
21
-43.5485
0
LINE
8
BLACK
6
CONTINUOUS
10
152.522
20
-43.5485
11
152.479
21
-43.4885
0
LINE
8
BLACK
6
CONTINUOUS
10
152.479
20
-43.4885
11
152.433
21
-43.4328
0
LINE
8
BLACK
6
CONTINUOUS
10
152.433
20
-43.4328
11
152.384
21
-43.3816
0
LINE
8
BLACK
6
CONTINUOUS
10
152.384
20
-43.3816
11
152.331
21
-43.3335
0
LINE
8
BLACK
6
CONTINUOUS
10
152.331
20
-43.3335
11
152.274
21
-43.2889
0
LINE
8
BLACK
6
CONTINUOUS
10
152.274
20
-43.2889
11
152.213
21
-43.2478
0
LINE
8
BLACK
6
CONTINUOUS
10
152.213
20
-43.2478
11
152.149
21
-43.2111
0
LINE
8
BLACK
6
CONTINUOUS
10
152.149
20
-43.2111
11
152.081
21
-43.1788
0
LINE
8
BLACK
6
CONTINUOUS
10
152.081
20
-43.1788
11
152.006
21
-43.1502
0
LINE
8
BLACK
6
CONTINUOUS
10
152.006
20
-43.1502
11
151.926
21
-43.1269
0
LINE
8
BLACK
6
CONTINUOUS
10
151.926
20
-43.1269
11
151.843
21
-43.11
0
LINE
8
BLACK
6
CONTINUOUS
10
151.843
20
-43.11
11
151.751
21
-43.1
0
LINE
8
BLACK
6
CONTINUOUS
10
151.751
20
-43.1
11
151.686
21
-43.0979
0
LINE
8
BLACK
6
CONTINUOUS
10
142.161
20
-81.2007
11
142.261
21
-81.1958
0
LINE
8
BLACK
6
CONTINUOUS
10
142.261
20
-81.1958
11
142.348
21
-81.1833
0
LINE
8
BLACK
6
CONTINUOUS
10
142.348
20
-81.1833
11
142.431
21
-81.164
0
LINE
8
BLACK
6
CONTINUOUS
10
142.431
20
-81.164
11
142.507
21
-81.1394
0
LINE
8
BLACK
6
CONTINUOUS
10
142.507
20
-81.1394
11
142.578
21
-81.11
0
LINE
8
BLACK
6
CONTINUOUS
10
142.578
20
-81.11
11
142.647
21
-81.0753
0
LINE
8
BLACK
6
CONTINUOUS
10
142.647
20
-81.0753
11
142.711
21
-81.0364
0
LINE
8
BLACK
6
CONTINUOUS
10
142.711
20
-81.0364
11
142.77
21
-80.9942
0
LINE
8
BLACK
6
CONTINUOUS
10
142.77
20
-80.9942
11
142.825
21
-80.9488
0
LINE
8
BLACK
6
CONTINUOUS
10
142.825
20
-80.9488
11
142.877
21
-80.899
0
LINE
8
BLACK
6
CONTINUOUS
10
142.877
20
-80.899
11
142.925
21
-80.8463
0
LINE
8
BLACK
6
CONTINUOUS
10
142.925
20
-80.8463
11
142.972
21
-80.7863
0
LINE
8
BLACK
6
CONTINUOUS
10
142.972
20
-80.7863
11
143.014
21
-80.7241
0
LINE
8
BLACK
6
CONTINUOUS
10
143.014
20
-80.7241
11
143.051
21
-80.658
0
LINE
8
BLACK
6
CONTINUOUS
10
143.051
20
-80.658
11
143.083
21
-80.5893
0
LINE
8
BLACK
6
CONTINUOUS
10
143.083
20
-80.5893
11
143.111
21
-80.5164
0
LINE
8
BLACK
6
CONTINUOUS
10
143.111
20
-80.5164
11
143.133
21
-80.4364
0
LINE
8
BLACK
6
CONTINUOUS
10
143.133
20
-80.4364
11
143.15
21
-80.3522
0
LINE
8
BLACK
6
CONTINUOUS
10
143.15
20
-80.3522
11
143.16
21
-80.2613
0
LINE
8
BLACK
6
CONTINUOUS
10
143.16
20
-80.2613
11
143.161
21
-80.2007
  0
ENDSEC
  0
EOF
