  0
SECTION
  2
HEADER
  9
$ANGBASE
  50
0.0
  9
$ANGDIR
  70
1
  9
$MEASUREMENT
  70
1
  0
ENDSEC
  0
SECTION
  2
TABLES
  0
TABLE
  2
LTYPE
  70
4
  0
LTYPE
  5
40F
  2
CONTINUOUS
  70
0
  3
Solid line
  72
65
  73
0
  40
0.0
  0
LTYPE
  5
410
  2
DASHDOT
 70
0
  3
Dash Dot ____ _ ____ _
 72
65
 73
4
 40
2.0
 49
1.25
 49
-0.25
 49
0.25
 49
-0.25
  0
LTYPE
  5
411
  2
DASHED
 70
0
  3
Dashed __ __ __ __ __
 72
65
 73
2
 40
0.75
 49
0.5
 49
-0.25
  0
LTYPE
  5
43B
  2
DOTTED
 70
0
  3
Dotted .  .  .  .
 72
65
 73
2
 40
0.2
 49
0.0
 49
-0.2
  0
ENDTAB
  0
TABLE
  2
STYLE
  70
4
  0
STYLE
  2
KICAD
  70
0
  40
0
  41
1
  42
1
  50
0
  71
0
  3
isocp.shx
  0
STYLE
  2
KICADB
  70
0
  40
0
  41
1
  42
1
  50
0
  71
0
  3
isocp.shx
  0
STYLE
  2
KICADI
  70
0
  40
0
  41
1
  42
1
  50
15
  71
0
  3
isocp.shx
  0
STYLE
  2
KICADBI
  70
0
  40
0
  41
1
  42
1
  50
15
  71
0
  3
isocp.shx
  0
ENDTAB
  0
TABLE
  2
LAYER
  70
1
  0
LAYER
  2
BLACK
  70
0
  62
7
  6
CONTINUOUS
  0
ENDTAB
  0
ENDSEC
  0
SECTION
  2
ENTITIES
0
LINE
8
BLACK
6
CONTINUOUS
10
154.172
20
-62.674
11
154.219
21
-62.614
0
LINE
8
BLACK
6
CONTINUOUS
10
144.071
20
-82.061
11
144.153
21
-82.042
0
LINE
8
BLACK
6
CONTINUOUS
10
154.017
20
-62.822
11
154.072
21
-62.776
0
LINE
8
BLACK
6
CONTINUOUS
10
144.647
20
-81.724
11
144.694
21
-81.664
0
LINE
8
BLACK
6
CONTINUOUS
10
144.492
20
-81.872
11
144.547
21
-81.826
0
LINE
8
BLACK
6
CONTINUOUS
10
6.617
20
-106.273
11
140.12
21
-106.273
0
ARC
8
BLACK
10
311.719
20
-101.373
40
4.9
50
-90
51
-0
0
LINE
8
BLACK
6
CONTINUOUS
10
154.072
20
-62.776
11
154.124
21
-62.727
0
LINE
8
BLACK
6
CONTINUOUS
10
144.872
20
-81.23
11
144.882
21
-81.139
0
ARC
8
BLACK
10
6.617
20
-101.373
40
4.9
50
180
51
270
0
LINE
8
BLACK
6
CONTINUOUS
10
144.3
20
-81.988
11
144.369
21
-81.953
0
LINE
8
BLACK
6
CONTINUOUS
10
154.407
20
-62.089
11
154.409
21
-62.028
0
LINE
8
BLACK
6
CONTINUOUS
10
154.381
20
-62.264
11
154.397
21
-62.18
0
LINE
8
BLACK
6
CONTINUOUS
10
150.646
20
-24.928
11
158.172
21
-24.928
0
LINE
8
BLACK
6
CONTINUOUS
10
144.882
20
-81.139
11
144.884
21
-81.078
0
LINE
8
BLACK
6
CONTINUOUS
10
154.261
20
-62.552
11
154.298
21
-62.486
0
LINE
8
BLACK
6
CONTINUOUS
10
140.12
20
-106.273
11
311.719
21
-106.273
0
LINE
8
BLACK
6
CONTINUOUS
10
153.754
20
-62.967
11
153.825
21
-62.938
0
LINE
8
BLACK
6
CONTINUOUS
10
144.153
20
-82.042
11
144.229
21
-82.017
0
LINE
8
BLACK
6
CONTINUOUS
10
144.599
20
-81.777
11
144.647
21
-81.724
0
LINE
8
BLACK
6
CONTINUOUS
10
154.358
20
-62.344
11
154.381
21
-62.264
0
LINE
8
BLACK
6
CONTINUOUS
10
154.298
20
-62.486
11
154.33
21
-62.417
0
LINE
8
BLACK
6
CONTINUOUS
10
153.678
20
-62.992
11
153.754
21
-62.967
0
ARC
8
BLACK
10
6.617
20
-5.773
40
4.9
50
90
51
180
0
LINE
8
BLACK
6
CONTINUOUS
10
153.508
20
-63.023
11
153.596
21
-63.011
0
LINE
8
BLACK
6
CONTINUOUS
10
144.736
20
-81.602
11
144.773
21
-81.536
0
LINE
8
BLACK
6
CONTINUOUS
10
144.369
20
-81.953
11
144.433
21
-81.914
0
LINE
8
BLACK
6
CONTINUOUS
10
144.547
20
-81.826
11
144.599
21
-81.777
0
LINE
8
BLACK
6
CONTINUOUS
10
154.33
20
-62.417
11
154.358
21
-62.344
0
LINE
8
BLACK
6
CONTINUOUS
10
154.124
20
-62.727
11
154.172
21
-62.674
0
LINE
8
BLACK
6
CONTINUOUS
10
159.17
20
-0.873
11
173.717
21
-0.873
0
LINE
8
BLACK
6
CONTINUOUS
10
153.958
20
-62.864
11
154.017
21
-62.822
0
LINE
8
BLACK
6
CONTINUOUS
10
153.894
20
-62.903
11
153.958
21
-62.864
0
LINE
8
BLACK
6
CONTINUOUS
10
144.805
20
-81.467
11
144.833
21
-81.394
0
LINE
8
BLACK
6
CONTINUOUS
10
144.833
20
-81.394
11
144.856
21
-81.314
0
LINE
8
BLACK
6
CONTINUOUS
10
316.619
20
-101.373
11
316.619
21
-5.773
0
LINE
8
BLACK
6
CONTINUOUS
10
144.229
20
-82.017
11
144.3
21
-81.988
0
LINE
8
BLACK
6
CONTINUOUS
10
154.397
20
-62.18
11
154.407
21
-62.089
0
LINE
8
BLACK
6
CONTINUOUS
10
153.596
20
-63.011
11
153.678
21
-62.992
0
LINE
8
BLACK
6
CONTINUOUS
10
1.717
20
-5.773
11
1.717
21
-101.373
0
LINE
8
BLACK
6
CONTINUOUS
10
144.773
20
-81.536
11
144.805
21
-81.467
0
LINE
8
BLACK
6
CONTINUOUS
10
144.433
20
-81.914
11
144.492
21
-81.872
0
ARC
8
BLACK
10
311.719
20
-5.773
40
4.9
50
-0
51
90
0
LINE
8
BLACK
6
CONTINUOUS
10
153.409
20
-63.028
11
153.508
21
-63.023
0
LINE
8
BLACK
6
CONTINUOUS
10
144.694
20
-81.664
11
144.736
21
-81.602
0
LINE
8
BLACK
6
CONTINUOUS
10
154.408
20
-62.027
11
154.408
21
-44.974
0
LINE
8
BLACK
6
CONTINUOUS
10
144.856
20
-81.314
11
144.872
21
-81.23
0
LINE
8
BLACK
6
CONTINUOUS
10
153.825
20
-62.938
11
153.894
21
-62.903
0
LINE
8
BLACK
6
CONTINUOUS
10
154.219
20
-62.614
11
154.261
21
-62.552
0
LINE
8
BLACK
6
CONTINUOUS
10
149.73
20
-25.531
11
149.702
21
-25.604
0
LINE
8
BLACK
6
CONTINUOUS
10
140.125
20
-83.01
11
140.123
21
-83.078
0
LINE
8
BLACK
6
CONTINUOUS
10
145.881
20
-63.028
11
153.407
21
-63.028
0
LINE
8
BLACK
6
CONTINUOUS
10
140.937
20
-82.095
11
140.856
21
-82.114
0
LINE
8
BLACK
6
CONTINUOUS
10
145.223
20
-63.278
11
145.171
21
-63.326
0
LINE
8
BLACK
6
CONTINUOUS
10
140.709
20
-82.168
11
140.64
21
-82.202
0
LINE
8
BLACK
6
CONTINUOUS
10
150.102
20
-25.09
11
150.043
21
-25.132
0
LINE
8
BLACK
6
CONTINUOUS
10
149.645
20
-42.975
11
149.645
21
-25.926
0
LINE
8
BLACK
6
CONTINUOUS
10
144.886
20
-63.96
11
144.884
21
-64.028
0
LINE
8
BLACK
6
CONTINUOUS
10
140.856
20
-82.114
11
140.78
21
-82.139
0
LINE
8
BLACK
6
CONTINUOUS
10
140.78
20
-82.139
11
140.709
21
-82.168
0
LINE
8
BLACK
6
CONTINUOUS
10
145.037
20
-63.495
11
145
21
-63.56
0
LINE
8
BLACK
6
CONTINUOUS
10
145.078
20
-63.435
11
145.037
21
-63.495
0
LINE
8
BLACK
6
CONTINUOUS
10
145.123
20
-63.379
11
145.078
21
-63.435
0
LINE
8
BLACK
6
CONTINUOUS
10
145.401
20
-63.152
11
145.338
21
-63.19
0
LINE
8
BLACK
6
CONTINUOUS
10
140.136
20
-82.914
11
140.125
21
-83.01
0
LINE
8
BLACK
6
CONTINUOUS
10
140.41
20
-82.376
11
140.362
21
-82.429
0
LINE
8
BLACK
6
CONTINUOUS
10
140.64
20
-82.202
11
140.577
21
-82.24
0
LINE
8
BLACK
6
CONTINUOUS
10
140.239
20
-82.61
11
140.205
21
-82.681
0
LINE
8
BLACK
6
CONTINUOUS
10
140.362
20
-82.429
11
140.317
21
-82.485
0
LINE
8
BLACK
6
CONTINUOUS
10
149.801
20
-25.395
11
149.764
21
-25.46
0
LINE
8
BLACK
6
CONTINUOUS
10
150.043
20
-25.132
11
149.987
21
-25.178
0
LINE
8
BLACK
6
CONTINUOUS
10
150.234
20
-25.018
11
150.165
21
-25.052
0
LINE
8
BLACK
6
CONTINUOUS
10
140.518
20
-82.282
11
140.462
21
-82.328
0
LINE
8
BLACK
6
CONTINUOUS
10
150.165
20
-25.052
11
150.102
21
-25.09
0
LINE
8
BLACK
6
CONTINUOUS
10
145.279
20
-63.232
11
145.223
21
-63.278
0
LINE
8
BLACK
6
CONTINUOUS
10
145.541
20
-63.089
11
145.47
21
-63.118
0
LINE
8
BLACK
6
CONTINUOUS
10
149.65
20
-25.86
11
149.648
21
-25.928
0
LINE
8
BLACK
6
CONTINUOUS
10
149.935
20
-25.226
11
149.887
21
-25.279
0
LINE
8
BLACK
6
CONTINUOUS
10
149.661
20
-25.764
11
149.65
21
-25.86
0
LINE
8
BLACK
6
CONTINUOUS
10
144.897
20
-63.864
11
144.886
21
-63.96
0
LINE
8
BLACK
6
CONTINUOUS
10
140.462
20
-82.328
11
140.41
21
-82.376
0
LINE
8
BLACK
6
CONTINUOUS
10
149.887
20
-25.279
11
149.842
21
-25.335
0
LINE
8
BLACK
6
CONTINUOUS
10
145.47
20
-63.118
11
145.401
21
-63.152
0
LINE
8
BLACK
6
CONTINUOUS
10
145.884
20
-63.028
11
145.787
21
-63.033
0
LINE
8
BLACK
6
CONTINUOUS
10
149.702
20
-25.604
11
149.678
21
-25.681
0
LINE
8
BLACK
6
CONTINUOUS
10
143.884
20
-82.078
11
143.983
21
-82.073
0
LINE
8
BLACK
6
CONTINUOUS
10
159.17
20
-23.927
11
159.17
21
-0.873
0
LINE
8
BLACK
6
CONTINUOUS
10
145.171
20
-63.326
11
145.123
21
-63.379
0
LINE
8
BLACK
6
CONTINUOUS
10
141.026
20
-82.083
11
140.937
21
-82.095
0
LINE
8
BLACK
6
CONTINUOUS
10
144.914
20
-63.781
11
144.897
21
-63.864
0
LINE
8
BLACK
6
CONTINUOUS
10
145.338
20
-63.19
11
145.279
21
-63.232
0
LINE
8
BLACK
6
CONTINUOUS
10
140.177
20
-82.754
11
140.153
21
-82.831
0
LINE
8
BLACK
6
CONTINUOUS
10
140.276
20
-82.545
11
140.239
21
-82.61
0
LINE
8
BLACK
6
CONTINUOUS
10
145.787
20
-63.033
11
145.698
21
-63.045
0
LINE
8
BLACK
6
CONTINUOUS
10
140.317
20
-82.485
11
140.276
21
-82.545
0
LINE
8
BLACK
6
CONTINUOUS
10
150.462
20
-24.945
11
150.381
21
-24.964
0
LINE
8
BLACK
6
CONTINUOUS
10
144.937
20
-63.704
11
144.914
21
-63.781
0
LINE
8
BLACK
6
CONTINUOUS
10
143.983
20
-82.073
11
144.071
21
-82.061
0
LINE
8
BLACK
6
CONTINUOUS
10
141.121
20
-82.078
11
143.882
21
-82.078
0
LINE
8
BLACK
6
CONTINUOUS
10
149.987
20
-25.178
11
149.935
21
-25.226
0
LINE
8
BLACK
6
CONTINUOUS
10
144.966
20
-63.631
11
144.937
21
-63.704
0
LINE
8
BLACK
6
CONTINUOUS
10
150.305
20
-24.988
11
150.234
21
-25.018
0
LINE
8
BLACK
6
CONTINUOUS
10
150.381
20
-24.964
11
150.305
21
-24.988
0
LINE
8
BLACK
6
CONTINUOUS
10
145
20
-63.56
11
144.966
21
-63.631
0
LINE
8
BLACK
6
CONTINUOUS
10
149.842
20
-25.335
11
149.801
21
-25.395
0
LINE
8
BLACK
6
CONTINUOUS
10
145.698
20
-63.045
11
145.617
21
-63.064
0
LINE
8
BLACK
6
CONTINUOUS
10
149.764
20
-25.46
11
149.73
21
-25.531
0
LINE
8
BLACK
6
CONTINUOUS
10
149.678
20
-25.681
11
149.661
21
-25.764
0
LINE
8
BLACK
6
CONTINUOUS
10
145.617
20
-63.064
11
145.541
21
-63.089
0
LINE
8
BLACK
6
CONTINUOUS
10
140.205
20
-82.681
11
140.177
21
-82.754
0
LINE
8
BLACK
6
CONTINUOUS
10
140.153
20
-82.831
11
140.136
21
-82.914
0
LINE
8
BLACK
6
CONTINUOUS
10
140.577
20
-82.24
11
140.518
21
-82.282
0
LINE
8
BLACK
6
CONTINUOUS
10
141.123
20
-82.078
11
141.026
21
-82.083
0
LINE
8
BLACK
6
CONTINUOUS
10
154.053
20
-44.211
11
153.996
21
-44.167
0
LINE
8
BLACK
6
CONTINUOUS
10
158.272
20
-24.923
11
158.36
21
-24.911
0
LINE
8
BLACK
6
CONTINUOUS
10
143.717
20
-0.873
11
159.17
21
-0.873
0
LINE
8
BLACK
6
CONTINUOUS
10
153.565
20
-43.988
11
153.474
21
-43.978
0
LINE
8
BLACK
6
CONTINUOUS
10
154.372
20
-44.707
11
154.347
21
-44.63
0
LINE
8
BLACK
6
CONTINUOUS
10
141.717
20
-14.873
11
141.717
21
-2.873
0
LINE
8
BLACK
6
CONTINUOUS
10
189.717
20
-14.873
11
189.717
21
-2.873
0
LINE
8
BLACK
6
CONTINUOUS
10
158.888
20
-24.627
11
158.936
21
-24.574
0
LINE
8
BLACK
6
CONTINUOUS
10
153.474
20
-43.978
11
153.409
21
-43.976
0
ARC
8
BLACK
10
125.717
20
-2.873
40
2
50
-0
51
90
0
LINE
8
BLACK
6
CONTINUOUS
10
158.173
20
-24.928
11
158.272
21
-24.923
0
LINE
8
BLACK
6
CONTINUOUS
10
158.836
20
-24.676
11
158.888
21
-24.627
0
LINE
8
BLACK
6
CONTINUOUS
10
158.518
20
-24.867
11
158.589
21
-24.838
0
LINE
8
BLACK
6
CONTINUOUS
10
158.36
20
-24.911
11
158.442
21
-24.891
0
LINE
8
BLACK
6
CONTINUOUS
10
154.155
20
-44.31
11
154.106
21
-44.259
0
LINE
8
BLACK
6
CONTINUOUS
10
175.717
20
-2.873
11
175.717
21
-14.873
0
LINE
8
BLACK
6
CONTINUOUS
10
283.717
20
-2.873
11
283.717
21
-14.873
0
LINE
8
BLACK
6
CONTINUOUS
10
299.717
20
-0.873
11
311.719
21
-0.873
0
ARC
8
BLACK
10
191.717
20
-2.873
40
2
50
90
51
180
0
LINE
8
BLACK
6
CONTINUOUS
10
191.717
20
-0.873
11
281.717
21
-0.873
0
LINE
8
BLACK
6
CONTINUOUS
10
154.347
20
-44.63
11
154.317
21
-44.557
0
LINE
8
BLACK
6
CONTINUOUS
10
154.404
20
-44.879
11
154.391
21
-44.789
0
ARC
8
BLACK
10
281.717
20
-2.873
40
2
50
-0
51
90
0
LINE
8
BLACK
6
CONTINUOUS
10
154.391
20
-44.789
11
154.372
21
-44.707
0
ARC
8
BLACK
10
299.717
20
-2.873
40
2
50
90
51
180
0
LINE
8
BLACK
6
CONTINUOUS
10
150.551
20
-24.933
11
150.462
21
-24.945
0
LINE
8
BLACK
6
CONTINUOUS
10
150.648
20
-24.928
11
150.551
21
-24.933
0
LINE
8
BLACK
6
CONTINUOUS
10
153.803
20
-44.056
11
153.729
21
-44.028
0
LINE
8
BLACK
6
CONTINUOUS
10
154.283
20
-44.49
11
154.244
21
-44.426
0
LINE
8
BLACK
6
CONTINUOUS
10
153.871
20
-44.089
11
153.803
21
-44.056
0
LINE
8
BLACK
6
CONTINUOUS
10
144.883
20
-81.077
11
144.883
21
-64.026
0
LINE
8
BLACK
6
CONTINUOUS
10
159.025
20
-24.452
11
159.062
21
-24.385
0
LINE
8
BLACK
6
CONTINUOUS
10
154.244
20
-44.426
11
154.202
21
-44.366
0
LINE
8
BLACK
6
CONTINUOUS
10
297.717
20
-14.873
11
297.717
21
-2.873
0
LINE
8
BLACK
6
CONTINUOUS
10
140.12
20
-106.273
11
140.12
21
-83.076
0
LINE
8
BLACK
6
CONTINUOUS
10
153.996
20
-44.167
11
153.935
21
-44.125
0
LINE
8
BLACK
6
CONTINUOUS
10
159.171
20
-23.989
11
159.173
21
-23.928
0
LINE
8
BLACK
6
CONTINUOUS
10
159.161
20
-24.08
11
159.171
21
-23.989
0
LINE
8
BLACK
6
CONTINUOUS
10
159.145
20
-24.164
11
159.161
21
-24.08
0
LINE
8
BLACK
6
CONTINUOUS
10
153.649
20
-44.005
11
153.565
21
-43.988
0
LINE
8
BLACK
6
CONTINUOUS
10
159.122
20
-24.244
11
159.145
21
-24.164
0
LINE
8
BLACK
6
CONTINUOUS
10
159.094
20
-24.317
11
159.122
21
-24.244
0
LINE
8
BLACK
6
CONTINUOUS
10
159.062
20
-24.385
11
159.094
21
-24.317
0
LINE
8
BLACK
6
CONTINUOUS
10
158.722
20
-24.764
11
158.781
21
-24.722
0
ARC
8
BLACK
10
150.645
20
-42.975
40
1
50
180
51
270
0
ARC
8
BLACK
10
173.717
20
-2.873
40
2
50
-0
51
90
0
LINE
8
BLACK
6
CONTINUOUS
10
6.617
20
-0.873
11
17.717
21
-0.873
0
LINE
8
BLACK
6
CONTINUOUS
10
158.983
20
-24.514
11
159.025
21
-24.452
0
LINE
8
BLACK
6
CONTINUOUS
10
158.936
20
-24.574
11
158.983
21
-24.514
0
LINE
8
BLACK
6
CONTINUOUS
10
158.781
20
-24.722
11
158.836
21
-24.676
0
LINE
8
BLACK
6
CONTINUOUS
10
154.317
20
-44.557
11
154.283
21
-44.49
0
LINE
8
BLACK
6
CONTINUOUS
10
154.409
20
-44.976
11
154.404
21
-44.879
0
ARC
8
BLACK
10
143.717
20
-2.873
40
2
50
90
51
180
0
LINE
8
BLACK
6
CONTINUOUS
10
153.407
20
-43.975
11
150.645
21
-43.975
0
LINE
8
BLACK
6
CONTINUOUS
10
158.658
20
-24.803
11
158.722
21
-24.764
0
LINE
8
BLACK
6
CONTINUOUS
10
154.202
20
-44.366
11
154.155
21
-44.31
0
LINE
8
BLACK
6
CONTINUOUS
10
158.589
20
-24.838
11
158.658
21
-24.803
0
LINE
8
BLACK
6
CONTINUOUS
10
154.106
20
-44.259
11
154.053
21
-44.211
0
LINE
8
BLACK
6
CONTINUOUS
10
153.935
20
-44.125
11
153.871
21
-44.089
0
LINE
8
BLACK
6
CONTINUOUS
10
35.717
20
-0.873
11
125.717
21
-0.873
0
LINE
8
BLACK
6
CONTINUOUS
10
158.442
20
-24.891
11
158.518
21
-24.867
0
LINE
8
BLACK
6
CONTINUOUS
10
153.729
20
-44.028
11
153.649
21
-44.005
0
LINE
8
BLACK
6
CONTINUOUS
10
128.717
20
-15.873
11
140.717
21
-15.873
0
LINE
8
BLACK
6
CONTINUOUS
10
20.717
20
-15.873
11
32.717
21
-15.873
0
LINE
8
BLACK
6
CONTINUOUS
10
176.717
20
-15.873
11
188.717
21
-15.873
0
ARC
8
BLACK
10
20.717
20
-14.873
40
1
50
180
51
270
0
ARC
8
BLACK
10
188.717
20
-14.873
40
1
50
-90
51
-0
0
ARC
8
BLACK
10
296.717
20
-14.873
40
1
50
-90
51
-0
0
ARC
8
BLACK
10
140.717
20
-14.873
40
1
50
-90
51
-0
0
ARC
8
BLACK
10
176.717
20
-14.873
40
1
50
180
51
270
0
ARC
8
BLACK
10
32.717
20
-14.873
40
1
50
-90
51
-0
0
ARC
8
BLACK
10
35.717
20
-2.873
40
2
50
90
51
180
0
ARC
8
BLACK
10
17.717
20
-2.873
40
2
50
-0
51
90
0
LINE
8
BLACK
6
CONTINUOUS
10
19.717
20
-2.873
11
19.717
21
-14.873
0
LINE
8
BLACK
6
CONTINUOUS
10
33.717
20
-14.873
11
33.717
21
-2.873
0
LINE
8
BLACK
6
CONTINUOUS
10
127.717
20
-2.873
11
127.717
21
-14.873
0
LINE
8
BLACK
6
CONTINUOUS
10
284.717
20
-15.873
11
296.717
21
-15.873
0
ARC
8
BLACK
10
128.717
20
-14.873
40
1
50
180
51
270
0
ARC
8
BLACK
10
284.717
20
-14.873
40
1
50
180
51
270
0
LINE
8
BLACK
6
CONTINUOUS
10
277.094
20
-135.169
11
265.094
21
-135.169
0
ARC
8
BLACK
10
265.094
20
-241.169
40
2
50
180
51
270
0
LINE
8
BLACK
6
CONTINUOUS
10
263.094
20
-241.169
11
263.094
21
-151.169
0
LINE
8
BLACK
6
CONTINUOUS
10
263.094
20
-133.169
11
263.094
21
-121.167
0
ARC
8
BLACK
10
265.094
20
-259.169
40
2
50
90
51
180
0
ARC
8
BLACK
10
277.094
20
-148.169
40
1
50
-90
51
-0
0
ARC
8
BLACK
10
265.094
20
-151.169
40
2
50
90
51
180
0
LINE
8
BLACK
6
CONTINUOUS
10
286.21
20
-273.715
11
286.149
21
-273.713
0
LINE
8
BLACK
6
CONTINUOUS
10
286.148
20
-273.716
11
263.094
21
-273.716
0
LINE
8
BLACK
6
CONTINUOUS
10
278.094
20
-256.169
11
278.094
21
-244.169
0
ARC
8
BLACK
10
277.094
20
-256.169
40
1
50
-90
51
-0
0
ARC
8
BLACK
10
277.094
20
-136.169
40
1
50
-0
51
90
0
LINE
8
BLACK
6
CONTINUOUS
10
277.094
20
-243.169
11
265.094
21
-243.169
0
LINE
8
BLACK
6
CONTINUOUS
10
278.094
20
-148.169
11
278.094
21
-136.169
0
ARC
8
BLACK
10
265.094
20
-133.169
40
2
50
180
51
270
0
LINE
8
BLACK
6
CONTINUOUS
10
265.094
20
-149.169
11
277.094
21
-149.169
0
LINE
8
BLACK
6
CONTINUOUS
10
265.094
20
-257.169
11
277.094
21
-257.169
0
ARC
8
BLACK
10
277.094
20
-244.169
40
1
50
-0
51
90
0
ARC
8
BLACK
10
267.994
20
-121.167
40
4.9
50
90
51
180
0
LINE
8
BLACK
6
CONTINUOUS
10
263.094
20
-273.716
11
263.094
21
-259.169
0
LINE
8
BLACK
6
CONTINUOUS
10
281.248
20
-116.267
11
267.994
21
-116.267
0
ARC
8
BLACK
10
281.248
20
-121.167
40
4.9
50
-0
51
90
0
LINE
8
BLACK
6
CONTINUOUS
10
286.148
20
-273.716
11
286.148
21
-121.167
0
LINE
8
BLACK
6
CONTINUOUS
10
258.895
20
-274.435
11
258.87
21
-274.359
0
ARC
8
BLACK
10
236.876
20
-241.16
40
2
50
180
51
270
0
LINE
8
BLACK
6
CONTINUOUS
10
249.876
20
-148.16
11
249.876
21
-136.16
0
LINE
8
BLACK
6
CONTINUOUS
10
258.455
20
-273.852
11
258.389
21
-273.815
0
LINE
8
BLACK
6
CONTINUOUS
10
234.876
20
-133.16
11
234.876
21
-121.158
0
LINE
8
BLACK
6
CONTINUOUS
10
258.577
20
-273.941
11
258.517
21
-273.894
0
ARC
8
BLACK
10
248.876
20
-148.16
40
1
50
-90
51
-0
0
LINE
8
BLACK
6
CONTINUOUS
10
248.876
20
-135.16
11
236.876
21
-135.16
0
LINE
8
BLACK
6
CONTINUOUS
10
258.914
20
-274.517
11
258.895
21
-274.435
0
LINE
8
BLACK
6
CONTINUOUS
10
257.992
20
-273.706
11
257.931
21
-273.704
0
ARC
8
BLACK
10
248.876
20
-136.16
40
1
50
-0
51
90
0
LINE
8
BLACK
6
CONTINUOUS
10
258.517
20
-273.894
11
258.455
21
-273.852
0
LINE
8
BLACK
6
CONTINUOUS
10
234.876
20
-241.16
11
234.876
21
-151.16
0
ARC
8
BLACK
10
236.876
20
-259.16
40
2
50
90
51
180
0
ARC
8
BLACK
10
248.876
20
-244.16
40
1
50
-0
51
90
0
LINE
8
BLACK
6
CONTINUOUS
10
258.679
20
-274.041
11
258.629
21
-273.989
0
LINE
8
BLACK
6
CONTINUOUS
10
258.926
20
-274.605
11
258.914
21
-274.517
0
LINE
8
BLACK
6
CONTINUOUS
10
258.767
20
-274.155
11
258.725
21
-274.096
0
LINE
8
BLACK
6
CONTINUOUS
10
258.167
20
-273.732
11
258.083
21
-273.716
0
LINE
8
BLACK
6
CONTINUOUS
10
258.247
20
-273.755
11
258.167
21
-273.732
0
LINE
8
BLACK
6
CONTINUOUS
10
249.876
20
-256.16
11
249.876
21
-244.16
0
LINE
8
BLACK
6
CONTINUOUS
10
236.876
20
-257.16
11
248.876
21
-257.16
0
LINE
8
BLACK
6
CONTINUOUS
10
258.991
20
-282.572
11
259.02
21
-282.643
0
LINE
8
BLACK
6
CONTINUOUS
10
258.725
20
-274.096
11
258.679
21
-274.041
0
ARC
8
BLACK
10
236.876
20
-133.16
40
2
50
180
51
270
0
LINE
8
BLACK
6
CONTINUOUS
10
258.931
20
-274.704
11
258.926
21
-274.605
0
LINE
8
BLACK
6
CONTINUOUS
10
258.87
20
-274.359
11
258.84
21
-274.288
0
LINE
8
BLACK
6
CONTINUOUS
10
258.84
20
-274.288
11
258.806
21
-274.219
0
LINE
8
BLACK
6
CONTINUOUS
10
258.389
20
-273.815
11
258.32
21
-273.783
0
ARC
8
BLACK
10
236.876
20
-151.16
40
2
50
90
51
180
0
LINE
8
BLACK
6
CONTINUOUS
10
259.02
20
-282.643
11
259.055
21
-282.712
0
LINE
8
BLACK
6
CONTINUOUS
10
248.876
20
-243.16
11
236.876
21
-243.16
0
LINE
8
BLACK
6
CONTINUOUS
10
236.876
20
-149.16
11
248.876
21
-149.16
0
ARC
8
BLACK
10
248.876
20
-256.16
40
1
50
-90
51
-0
0
LINE
8
BLACK
6
CONTINUOUS
10
258.806
20
-274.219
11
258.767
21
-274.155
0
LINE
8
BLACK
6
CONTINUOUS
10
261.978
20
-283.232
11
261.978
21
-121.158
0
LINE
8
BLACK
6
CONTINUOUS
10
259.181
20
-282.89
11
259.229
21
-282.942
0
LINE
8
BLACK
6
CONTINUOUS
10
259.055
20
-282.712
11
259.093
21
-282.775
0
LINE
8
BLACK
6
CONTINUOUS
10
258.083
20
-273.716
11
257.992
21
-273.706
0
LINE
8
BLACK
6
CONTINUOUS
10
258.931
20
-282.229
11
258.936
21
-282.326
0
LINE
8
BLACK
6
CONTINUOUS
10
258.936
20
-282.326
11
258.948
21
-282.415
0
LINE
8
BLACK
6
CONTINUOUS
10
259.398
20
-283.076
11
259.463
21
-283.113
0
LINE
8
BLACK
6
CONTINUOUS
10
257.93
20
-273.707
11
234.876
21
-273.707
0
LINE
8
BLACK
6
CONTINUOUS
10
259.229
20
-282.942
11
259.282
21
-282.99
0
LINE
8
BLACK
6
CONTINUOUS
10
258.948
20
-282.415
11
258.967
21
-282.496
0
LINE
8
BLACK
6
CONTINUOUS
10
259.282
20
-282.99
11
259.338
21
-283.035
0
LINE
8
BLACK
6
CONTINUOUS
10
259.863
20
-283.227
11
259.931
21
-283.229
0
LINE
8
BLACK
6
CONTINUOUS
10
257.078
20
-116.258
11
239.776
21
-116.258
0
LINE
8
BLACK
6
CONTINUOUS
10
259.093
20
-282.775
11
259.135
21
-282.834
0
LINE
8
BLACK
6
CONTINUOUS
10
259.338
20
-283.035
11
259.398
21
-283.076
0
LINE
8
BLACK
6
CONTINUOUS
10
259.135
20
-282.834
11
259.181
21
-282.89
0
LINE
8
BLACK
6
CONTINUOUS
10
259.463
20
-283.113
11
259.534
21
-283.147
0
LINE
8
BLACK
6
CONTINUOUS
10
259.684
20
-283.199
11
259.767
21
-283.216
0
LINE
8
BLACK
6
CONTINUOUS
10
258.931
20
-282.231
11
258.931
21
-274.705
0
LINE
8
BLACK
6
CONTINUOUS
10
234.876
20
-273.707
11
234.876
21
-259.16
0
ARC
8
BLACK
10
257.078
20
-121.158
40
4.9
50
-0
51
90
0
LINE
8
BLACK
6
CONTINUOUS
10
259.767
20
-283.216
11
259.863
21
-283.227
0
LINE
8
BLACK
6
CONTINUOUS
10
259.606
20
-283.175
11
259.684
21
-283.199
0
LINE
8
BLACK
6
CONTINUOUS
10
261.978
20
-283.232
11
259.929
21
-283.232
0
ARC
8
BLACK
10
239.776
20
-121.158
40
4.9
50
90
51
180
0
LINE
8
BLACK
6
CONTINUOUS
10
258.32
20
-273.783
11
258.247
21
-273.755
0
LINE
8
BLACK
6
CONTINUOUS
10
258.629
20
-273.989
11
258.577
21
-273.941
0
LINE
8
BLACK
6
CONTINUOUS
10
258.967
20
-282.496
11
258.991
21
-282.572
0
LINE
8
BLACK
6
CONTINUOUS
10
259.534
20
-283.147
11
259.606
21
-283.175
0
LINE
8
BLACK
6
CONTINUOUS
10
492.575
20
-133.465
11
492.55
21
-133.389
0
ARC
8
BLACK
10
482.556
20
-151.19
40
1
50
-0
51
90
0
LINE
8
BLACK
6
CONTINUOUS
10
492.135
20
-132.882
11
492.069
21
-132.845
0
ARC
8
BLACK
10
482.556
20
-259.19
40
1
50
-0
51
90
0
LINE
8
BLACK
6
CONTINUOUS
10
470.556
20
-272.19
11
482.556
21
-272.19
0
LINE
8
BLACK
6
CONTINUOUS
10
482.556
20
-258.19
11
470.556
21
-258.19
0
LINE
8
BLACK
6
CONTINUOUS
10
492.257
20
-132.971
11
492.197
21
-132.924
0
LINE
8
BLACK
6
CONTINUOUS
10
492.594
20
-133.547
11
492.575
21
-133.465
0
LINE
8
BLACK
6
CONTINUOUS
10
491.672
20
-132.736
11
491.611
21
-132.734
0
ARC
8
BLACK
10
482.556
20
-163.19
40
1
50
-90
51
-0
0
LINE
8
BLACK
6
CONTINUOUS
10
492.197
20
-132.924
11
492.135
21
-132.882
0
ARC
8
BLACK
10
482.556
20
-271.19
40
1
50
-90
51
-0
0
LINE
8
BLACK
6
CONTINUOUS
10
468.556
20
-285.29
11
468.556
21
-274.19
0
LINE
8
BLACK
6
CONTINUOUS
10
482.556
20
-150.19
11
470.556
21
-150.19
0
LINE
8
BLACK
6
CONTINUOUS
10
470.556
20
-164.19
11
482.556
21
-164.19
0
ARC
8
BLACK
10
470.556
20
-256.19
40
2
50
180
51
270
0
LINE
8
BLACK
6
CONTINUOUS
10
483.556
20
-271.19
11
483.556
21
-259.19
0
LINE
8
BLACK
6
CONTINUOUS
10
492.359
20
-133.071
11
492.309
21
-133.019
0
LINE
8
BLACK
6
CONTINUOUS
10
492.606
20
-133.635
11
492.594
21
-133.547
0
LINE
8
BLACK
6
CONTINUOUS
10
492.447
20
-133.185
11
492.405
21
-133.126
0
LINE
8
BLACK
6
CONTINUOUS
10
491.847
20
-132.762
11
491.763
21
-132.746
0
LINE
8
BLACK
6
CONTINUOUS
10
491.927
20
-132.785
11
491.847
21
-132.762
0
LINE
8
BLACK
6
CONTINUOUS
10
492.671
20
-141.602
11
492.7
21
-141.673
0
ARC
8
BLACK
10
470.556
20
-274.19
40
2
50
90
51
180
0
LINE
8
BLACK
6
CONTINUOUS
10
492.405
20
-133.126
11
492.359
21
-133.071
0
LINE
8
BLACK
6
CONTINUOUS
10
492.611
20
-133.734
11
492.606
21
-133.635
0
LINE
8
BLACK
6
CONTINUOUS
10
492.55
20
-133.389
11
492.52
21
-133.318
0
LINE
8
BLACK
6
CONTINUOUS
10
492.52
20
-133.318
11
492.486
21
-133.249
0
LINE
8
BLACK
6
CONTINUOUS
10
492.069
20
-132.845
11
492
21
-132.813
0
LINE
8
BLACK
6
CONTINUOUS
10
492.7
20
-141.673
11
492.735
21
-141.742
0
LINE
8
BLACK
6
CONTINUOUS
10
468.556
20
-256.19
11
468.556
21
-166.19
0
LINE
8
BLACK
6
CONTINUOUS
10
483.556
20
-163.19
11
483.556
21
-151.19
0
ARC
8
BLACK
10
470.556
20
-166.19
40
2
50
90
51
180
0
ARC
8
BLACK
10
470.556
20
-148.19
40
2
50
180
51
270
0
LINE
8
BLACK
6
CONTINUOUS
10
468.556
20
-148.19
11
468.556
21
-132.737
0
LINE
8
BLACK
6
CONTINUOUS
10
492.486
20
-133.249
11
492.447
21
-133.185
0
LINE
8
BLACK
6
CONTINUOUS
10
492.861
20
-141.92
11
492.909
21
-141.972
0
LINE
8
BLACK
6
CONTINUOUS
10
492.735
20
-141.742
11
492.773
21
-141.805
0
LINE
8
BLACK
6
CONTINUOUS
10
491.763
20
-132.746
11
491.672
21
-132.736
0
LINE
8
BLACK
6
CONTINUOUS
10
492.611
20
-141.259
11
492.616
21
-141.356
0
LINE
8
BLACK
6
CONTINUOUS
10
492.616
20
-141.356
11
492.628
21
-141.445
0
LINE
8
BLACK
6
CONTINUOUS
10
493.078
20
-142.106
11
493.143
21
-142.143
0
LINE
8
BLACK
6
CONTINUOUS
10
491.61
20
-132.737
11
468.556
21
-132.737
0
LINE
8
BLACK
6
CONTINUOUS
10
492.909
20
-141.972
11
492.962
21
-142.02
0
LINE
8
BLACK
6
CONTINUOUS
10
492.628
20
-141.445
11
492.647
21
-141.526
0
LINE
8
BLACK
6
CONTINUOUS
10
492.962
20
-142.02
11
493.018
21
-142.065
0
ARC
8
BLACK
10
473.456
20
-285.29
40
4.9
50
180
51
270
0
ARC
8
BLACK
10
490.758
20
-285.29
40
4.9
50
-90
51
-0
0
LINE
8
BLACK
6
CONTINUOUS
10
493.543
20
-142.257
11
493.611
21
-142.259
0
LINE
8
BLACK
6
CONTINUOUS
10
492.773
20
-141.805
11
492.815
21
-141.864
0
LINE
8
BLACK
6
CONTINUOUS
10
493.018
20
-142.065
11
493.078
21
-142.106
0
LINE
8
BLACK
6
CONTINUOUS
10
492.815
20
-141.864
11
492.861
21
-141.92
0
LINE
8
BLACK
6
CONTINUOUS
10
493.143
20
-142.143
11
493.214
21
-142.177
0
LINE
8
BLACK
6
CONTINUOUS
10
493.364
20
-142.229
11
493.447
21
-142.246
0
LINE
8
BLACK
6
CONTINUOUS
10
492.611
20
-141.261
11
492.611
21
-133.735
0
LINE
8
BLACK
6
CONTINUOUS
10
473.456
20
-290.19
11
490.758
21
-290.19
0
LINE
8
BLACK
6
CONTINUOUS
10
493.447
20
-142.246
11
493.543
21
-142.257
0
LINE
8
BLACK
6
CONTINUOUS
10
493.286
20
-142.205
11
493.364
21
-142.229
0
LINE
8
BLACK
6
CONTINUOUS
10
495.658
20
-142.262
11
493.609
21
-142.262
0
LINE
8
BLACK
6
CONTINUOUS
10
492
20
-132.813
11
491.927
21
-132.785
0
LINE
8
BLACK
6
CONTINUOUS
10
492.309
20
-133.019
11
492.257
21
-132.971
0
LINE
8
BLACK
6
CONTINUOUS
10
492.647
20
-141.526
11
492.671
21
-141.602
0
LINE
8
BLACK
6
CONTINUOUS
10
495.658
20
-285.29
11
495.658
21
-142.262
0
LINE
8
BLACK
6
CONTINUOUS
10
493.214
20
-142.177
11
493.286
21
-142.205
0
ARC
8
BLACK
10
303.51
20
-256.721
40
1
50
-90
51
-0
0
ARC
8
BLACK
10
291.51
20
-133.721
40
2
50
180
51
270
0
ARC
8
BLACK
10
303.51
20
-244.721
40
1
50
-0
51
90
0
LINE
8
BLACK
6
CONTINUOUS
10
291.51
20
-149.721
11
303.51
21
-149.721
0
LINE
8
BLACK
6
CONTINUOUS
10
289.51
20
-241.721
11
289.51
21
-151.721
0
LINE
8
BLACK
6
CONTINUOUS
10
304.51
20
-256.721
11
304.51
21
-244.721
0
LINE
8
BLACK
6
CONTINUOUS
10
312.626
20
-118.267
11
312.565
21
-118.265
0
ARC
8
BLACK
10
307.664
20
-270.821
40
4.9
50
-90
51
-0
0
LINE
8
BLACK
6
CONTINUOUS
10
303.51
20
-243.721
11
291.51
21
-243.721
0
ARC
8
BLACK
10
294.41
20
-270.821
40
4.9
50
180
51
270
0
ARC
8
BLACK
10
303.51
20
-148.721
40
1
50
-90
51
-0
0
LINE
8
BLACK
6
CONTINUOUS
10
312.564
20
-118.268
11
289.51
21
-118.268
0
LINE
8
BLACK
6
CONTINUOUS
10
289.51
20
-270.821
11
289.51
21
-259.721
0
ARC
8
BLACK
10
303.51
20
-136.721
40
1
50
-0
51
90
0
LINE
8
BLACK
6
CONTINUOUS
10
291.51
20
-257.721
11
303.51
21
-257.721
0
ARC
8
BLACK
10
291.51
20
-259.721
40
2
50
90
51
180
0
LINE
8
BLACK
6
CONTINUOUS
10
289.51
20
-133.721
11
289.51
21
-118.268
0
LINE
8
BLACK
6
CONTINUOUS
10
303.51
20
-135.721
11
291.51
21
-135.721
0
ARC
8
BLACK
10
291.51
20
-241.721
40
2
50
180
51
270
0
LINE
8
BLACK
6
CONTINUOUS
10
304.51
20
-148.721
11
304.51
21
-136.721
0
ARC
8
BLACK
10
291.51
20
-151.721
40
2
50
90
51
180
0
LINE
8
BLACK
6
CONTINUOUS
10
312.564
20
-270.821
11
312.564
21
-118.268
0
LINE
8
BLACK
6
CONTINUOUS
10
294.41
20
-275.721
11
307.664
21
-275.721
  0
ENDSEC
  0
EOF
