  0
SECTION
  2
HEADER
  9
$ANGBASE
  50
0.0
  9
$ANGDIR
  70
1
  9
$MEASUREMENT
  70
1
  0
ENDSEC
  0
SECTION
  2
TABLES
  0
TABLE
  2
LTYPE
  70
4
  0
LTYPE
  5
40F
  2
CONTINUOUS
  70
0
  3
Solid line
  72
65
  73
0
  40
0.0
  0
LTYPE
  5
410
  2
DASHDOT
 70
0
  3
Dash Dot ____ _ ____ _
 72
65
 73
4
 40
2.0
 49
1.25
 49
-0.25
 49
0.25
 49
-0.25
  0
LTYPE
  5
411
  2
DASHED
 70
0
  3
Dashed __ __ __ __ __
 72
65
 73
2
 40
0.75
 49
0.5
 49
-0.25
  0
LTYPE
  5
43B
  2
DOTTED
 70
0
  3
Dotted .  .  .  .
 72
65
 73
2
 40
0.2
 49
0.0
 49
-0.2
  0
ENDTAB
  0
TABLE
  2
STYLE
  70
4
  0
STYLE
  2
KICAD
  70
0
  40
0
  41
1
  42
1
  50
0
  71
0
  3
isocp.shx
  0
STYLE
  2
KICADB
  70
0
  40
0
  41
1
  42
1
  50
0
  71
0
  3
isocp.shx
  0
STYLE
  2
KICADI
  70
0
  40
0
  41
1
  42
1
  50
15
  71
0
  3
isocp.shx
  0
STYLE
  2
KICADBI
  70
0
  40
0
  41
1
  42
1
  50
15
  71
0
  3
isocp.shx
  0
ENDTAB
  0
TABLE
  2
LAYER
  70
1
  0
LAYER
  2
BLACK
  70
0
  62
7
  6
CONTINUOUS
  0
ENDTAB
  0
ENDSEC
  0
SECTION
  2
ENTITIES
0
LINE
8
BLACK
6
CONTINUOUS
10
203.606
20
-281.406
11
203.526
21
-281.382
0
LINE
8
BLACK
6
CONTINUOUS
10
202.38
20
-278.706
11
202.413
21
-278.638
0
LINE
8
BLACK
6
CONTINUOUS
10
202.349
20
-278.776
11
202.38
21
-278.706
0
LINE
8
BLACK
6
CONTINUOUS
10
202.413
20
-278.638
11
202.452
21
-278.567
0
LINE
8
BLACK
6
CONTINUOUS
10
203.111
20
-281.185
11
203.05
21
-281.146
0
LINE
8
BLACK
6
CONTINUOUS
10
171.532
20
-114.805
11
171.532
21
-121.526
0
LINE
8
BLACK
6
CONTINUOUS
10
202.825
20
-280.967
11
202.774
21
-280.918
0
LINE
8
BLACK
6
CONTINUOUS
10
204.047
20
-281.48
11
203.951
21
-281.473
0
LINE
8
BLACK
6
CONTINUOUS
10
203.05
20
-281.146
11
202.992
21
-281.104
0
LINE
8
BLACK
6
CONTINUOUS
10
204.146
20
-277.583
11
204.244
21
-277.585
0
LINE
8
BLACK
6
CONTINUOUS
10
204.244
20
-277.585
11
204.341
21
-277.592
0
LINE
8
BLACK
6
CONTINUOUS
10
203.861
20
-281.462
11
203.772
21
-281.446
0
LINE
8
BLACK
6
CONTINUOUS
10
203.686
20
-281.428
11
203.606
21
-281.406
0
LINE
8
BLACK
6
CONTINUOUS
10
202.992
20
-281.104
11
202.934
21
-281.06
0
LINE
8
BLACK
6
CONTINUOUS
10
204.834
20
-277.708
11
204.906
21
-277.737
0
LINE
8
BLACK
6
CONTINUOUS
10
202.584
20
-280.7
11
202.541
21
-280.641
0
LINE
8
BLACK
6
CONTINUOUS
10
203.31
20
-281.294
11
203.243
21
-281.261
0
LINE
8
BLACK
6
CONTINUOUS
10
202.501
20
-280.58
11
202.463
21
-280.517
0
LINE
8
BLACK
6
CONTINUOUS
10
202.934
20
-281.06
11
202.879
21
-281.015
0
LINE
8
BLACK
6
CONTINUOUS
10
202.463
20
-280.517
11
202.457
21
-280.508
0
LINE
8
BLACK
6
CONTINUOUS
10
204.683
20
-277.658
11
204.76
21
-277.682
0
LINE
8
BLACK
6
CONTINUOUS
10
202.628
20
-280.757
11
202.584
21
-280.7
0
LINE
8
BLACK
6
CONTINUOUS
10
202.774
20
-280.918
11
202.724
21
-280.867
0
LINE
8
BLACK
6
CONTINUOUS
10
204.341
20
-277.592
11
204.431
21
-277.604
0
LINE
8
BLACK
6
CONTINUOUS
10
204.906
20
-277.737
11
204.98
21
-277.77
0
LINE
8
BLACK
6
CONTINUOUS
10
203.38
20
-281.326
11
203.31
21
-281.294
0
LINE
8
BLACK
6
CONTINUOUS
10
202.724
20
-280.867
11
202.674
21
-280.812
0
LINE
8
BLACK
6
CONTINUOUS
10
203.177
20
-281.225
11
203.111
21
-281.185
0
LINE
8
BLACK
6
CONTINUOUS
10
202.541
20
-280.641
11
202.501
21
-280.58
0
LINE
8
BLACK
6
CONTINUOUS
10
204.52
20
-277.619
11
204.603
21
-277.637
0
LINE
8
BLACK
6
CONTINUOUS
10
204.603
20
-277.637
11
204.683
21
-277.658
0
LINE
8
BLACK
6
CONTINUOUS
10
203.526
20
-281.382
11
203.451
21
-281.355
0
LINE
8
BLACK
6
CONTINUOUS
10
202.879
20
-281.015
11
202.825
21
-280.967
0
LINE
8
BLACK
6
CONTINUOUS
10
203.951
20
-281.473
11
203.861
21
-281.462
0
LINE
8
BLACK
6
CONTINUOUS
10
202.248
20
-279.083
11
202.269
21
-279.002
0
LINE
8
BLACK
6
CONTINUOUS
10
203.451
20
-281.355
11
203.38
21
-281.326
0
LINE
8
BLACK
6
CONTINUOUS
10
203.243
20
-281.261
11
203.177
21
-281.225
0
LINE
8
BLACK
6
CONTINUOUS
10
202.269
20
-279.002
11
202.294
21
-278.922
0
LINE
8
BLACK
6
CONTINUOUS
10
202.452
20
-278.567
11
202.457
21
-278.558
0
LINE
8
BLACK
6
CONTINUOUS
10
202.196
20
-279.541
11
202.198
21
-279.443
0
LINE
8
BLACK
6
CONTINUOUS
10
202.198
20
-279.443
11
202.205
21
-279.349
0
LINE
8
BLACK
6
CONTINUOUS
10
204.76
20
-277.682
11
204.834
21
-277.708
0
LINE
8
BLACK
6
CONTINUOUS
10
202.205
20
-279.349
11
202.216
21
-279.254
0
LINE
8
BLACK
6
CONTINUOUS
10
202.216
20
-279.254
11
202.231
21
-279.166
0
LINE
8
BLACK
6
CONTINUOUS
10
202.674
20
-280.812
11
202.628
21
-280.757
0
LINE
8
BLACK
6
CONTINUOUS
10
202.231
20
-279.166
11
202.248
21
-279.083
0
LINE
8
BLACK
6
CONTINUOUS
10
202.294
20
-278.922
11
202.32
21
-278.848
0
LINE
8
BLACK
6
CONTINUOUS
10
204.98
20
-277.77
11
205.047
21
-277.804
0
LINE
8
BLACK
6
CONTINUOUS
10
202.32
20
-278.848
11
202.349
21
-278.776
0
LINE
8
BLACK
6
CONTINUOUS
10
204.431
20
-277.604
11
204.52
21
-277.619
0
LINE
8
BLACK
6
CONTINUOUS
10
203.772
20
-281.446
11
203.686
21
-281.428
0
LINE
8
BLACK
6
CONTINUOUS
10
204.146
20
-281.483
11
204.047
21
-281.48
0
LINE
8
BLACK
6
CONTINUOUS
10
202.413
20
-116.829
11
202.452
21
-116.757
0
LINE
8
BLACK
6
CONTINUOUS
10
205.467
20
-278.098
11
205.52
21
-278.149
0
LINE
8
BLACK
6
CONTINUOUS
10
205.113
20
-277.839
11
205.179
21
-277.879
0
LINE
8
BLACK
6
CONTINUOUS
10
205.179
20
-277.879
11
205.24
21
-277.919
0
LINE
8
BLACK
6
CONTINUOUS
10
205.664
20
-278.309
11
205.708
21
-278.365
0
LINE
8
BLACK
6
CONTINUOUS
10
206.096
20
-279.522
11
206.094
21
-279.626
0
LINE
8
BLACK
6
CONTINUOUS
10
202.196
20
-117.732
11
202.198
21
-117.633
0
LINE
8
BLACK
6
CONTINUOUS
10
205.904
20
-278.69
11
205.936
21
-278.759
0
LINE
8
BLACK
6
CONTINUOUS
10
206.058
20
-279.149
11
206.073
21
-279.235
0
LINE
8
BLACK
6
CONTINUOUS
10
205.792
20
-278.487
11
205.832
21
-278.553
0
LINE
8
BLACK
6
CONTINUOUS
10
202.356
20
-118.496
11
202.325
21
-118.422
0
LINE
8
BLACK
6
CONTINUOUS
10
202.452
20
-116.757
11
202.457
21
-116.748
0
LINE
8
BLACK
6
CONTINUOUS
10
205.24
20
-277.919
11
205.3
21
-277.961
0
LINE
8
BLACK
6
CONTINUOUS
10
205.413
20
-278.051
11
205.467
21
-278.098
0
LINE
8
BLACK
6
CONTINUOUS
10
173.037
20
-267.844
11
149.785
21
-267.844
0
LINE
8
BLACK
6
CONTINUOUS
10
202.457
20
-118.698
11
202.421
21
-118.633
0
LINE
8
BLACK
6
CONTINUOUS
10
202.325
20
-118.422
11
202.298
21
-118.346
0
LINE
8
BLACK
6
CONTINUOUS
10
206.094
20
-279.626
11
206.087
21
-279.722
0
LINE
8
BLACK
6
CONTINUOUS
10
202.207
20
-117.927
11
202.199
21
-117.832
0
LINE
8
BLACK
6
CONTINUOUS
10
205.52
20
-278.149
11
205.57
21
-278.2
0
LINE
8
BLACK
6
CONTINUOUS
10
207.435
20
-241.015
11
207.435
21
-128.668
0
LINE
8
BLACK
6
CONTINUOUS
10
173.037
20
-277.369
11
187.885
21
-277.369
0
ARC
8
BLACK
10
113.612
20
-112.654
40
4.9
50
90
51
180
0
LINE
8
BLACK
6
CONTINUOUS
10
205.994
20
-278.909
11
206.018
21
-278.986
0
LINE
8
BLACK
6
CONTINUOUS
10
205.3
20
-277.961
11
205.358
21
-278.005
0
LINE
8
BLACK
6
CONTINUOUS
10
205.358
20
-278.005
11
205.413
21
-278.051
0
LINE
8
BLACK
6
CONTINUOUS
10
205.57
20
-278.2
11
205.618
21
-278.253
0
LINE
8
BLACK
6
CONTINUOUS
10
205.618
20
-278.253
11
205.664
21
-278.309
0
LINE
8
BLACK
6
CONTINUOUS
10
205.708
20
-278.365
11
205.75
21
-278.424
0
LINE
8
BLACK
6
CONTINUOUS
10
202.388
20
-118.566
11
202.356
21
-118.496
0
LINE
8
BLACK
6
CONTINUOUS
10
171.532
20
-121.526
11
188.385
21
-121.526
0
LINE
8
BLACK
6
CONTINUOUS
10
202.274
20
-118.27
11
202.253
21
-118.19
0
LINE
8
BLACK
6
CONTINUOUS
10
206.018
20
-278.986
11
206.039
21
-279.065
0
LINE
8
BLACK
6
CONTINUOUS
10
202.294
20
-117.112
11
202.32
21
-117.038
0
LINE
8
BLACK
6
CONTINUOUS
10
202.205
20
-117.539
11
202.216
21
-117.444
0
LINE
8
BLACK
6
CONTINUOUS
10
202.248
20
-117.273
11
202.269
21
-117.192
0
LINE
8
BLACK
6
CONTINUOUS
10
206.073
20
-279.235
11
206.085
21
-279.329
0
LINE
8
BLACK
6
CONTINUOUS
10
206.085
20
-279.329
11
206.093
21
-279.423
0
LINE
8
BLACK
6
CONTINUOUS
10
205.75
20
-278.424
11
205.792
21
-278.487
0
LINE
8
BLACK
6
CONTINUOUS
10
202.38
20
-116.896
11
202.413
21
-116.829
0
LINE
8
BLACK
6
CONTINUOUS
10
205.832
20
-278.553
11
205.835
21
-278.558
0
LINE
8
BLACK
6
CONTINUOUS
10
209.212
20
-107.754
11
113.612
21
-107.754
0
LINE
8
BLACK
6
CONTINUOUS
10
206.076
20
-279.813
11
206.061
21
-279.899
0
LINE
8
BLACK
6
CONTINUOUS
10
202.421
20
-118.633
11
202.388
21
-118.566
0
LINE
8
BLACK
6
CONTINUOUS
10
202.32
20
-117.038
11
202.349
21
-116.966
0
LINE
8
BLACK
6
CONTINUOUS
10
202.269
20
-117.192
11
202.294
21
-117.112
0
LINE
8
BLACK
6
CONTINUOUS
10
202.298
20
-118.346
11
202.274
21
-118.27
0
LINE
8
BLACK
6
CONTINUOUS
10
202.218
20
-118.017
11
202.207
21
-117.927
0
LINE
8
BLACK
6
CONTINUOUS
10
205.936
20
-278.759
11
205.966
21
-278.832
0
LINE
8
BLACK
6
CONTINUOUS
10
202.199
20
-117.832
11
202.196
21
-117.732
0
LINE
8
BLACK
6
CONTINUOUS
10
206.093
20
-279.423
11
206.096
21
-279.522
0
LINE
8
BLACK
6
CONTINUOUS
10
202.198
20
-117.633
11
202.205
21
-117.539
0
LINE
8
BLACK
6
CONTINUOUS
10
202.216
20
-117.444
11
202.231
21
-117.357
0
LINE
8
BLACK
6
CONTINUOUS
10
206.087
20
-279.722
11
206.076
21
-279.813
0
LINE
8
BLACK
6
CONTINUOUS
10
205.871
20
-278.623
11
205.904
21
-278.69
0
LINE
8
BLACK
6
CONTINUOUS
10
205.835
20
-278.558
11
205.871
21
-278.623
0
LINE
8
BLACK
6
CONTINUOUS
10
202.253
20
-118.19
11
202.234
21
-118.107
0
LINE
8
BLACK
6
CONTINUOUS
10
202.234
20
-118.107
11
202.218
21
-118.017
0
LINE
8
BLACK
6
CONTINUOUS
10
205.047
20
-277.804
11
205.113
21
-277.839
0
LINE
8
BLACK
6
CONTINUOUS
10
115.387
20
-114.805
11
171.532
21
-114.805
0
LINE
8
BLACK
6
CONTINUOUS
10
205.966
20
-278.832
11
205.994
21
-278.909
0
LINE
8
BLACK
6
CONTINUOUS
10
202.231
20
-117.357
11
202.248
21
-117.273
0
LINE
8
BLACK
6
CONTINUOUS
10
202.349
20
-116.966
11
202.38
21
-116.896
0
LINE
8
BLACK
6
CONTINUOUS
10
206.039
20
-279.065
11
206.058
21
-279.149
0
LINE
8
BLACK
6
CONTINUOUS
10
203.178
20
-277.84
11
203.246
21
-277.803
0
LINE
8
BLACK
6
CONTINUOUS
10
202.457
20
-278.558
11
202.495
21
-278.494
0
LINE
8
BLACK
6
CONTINUOUS
10
203.686
20
-119.618
11
203.606
21
-119.597
0
LINE
8
BLACK
6
CONTINUOUS
10
202.535
20
-278.433
11
202.577
21
-278.374
0
LINE
8
BLACK
6
CONTINUOUS
10
202.577
20
-278.374
11
202.622
21
-278.316
0
LINE
8
BLACK
6
CONTINUOUS
10
203.315
20
-277.769
11
203.385
21
-277.737
0
LINE
8
BLACK
6
CONTINUOUS
10
203.611
20
-277.657
11
203.69
21
-277.637
0
LINE
8
BLACK
6
CONTINUOUS
10
203.951
20
-119.663
11
203.861
21
-119.652
0
LINE
8
BLACK
6
CONTINUOUS
10
204.053
20
-277.585
11
204.146
21
-277.583
0
LINE
8
BLACK
6
CONTINUOUS
10
204.146
20
-119.673
11
204.047
21
-119.67
0
LINE
8
BLACK
6
CONTINUOUS
10
203.526
20
-119.572
11
203.451
21
-119.545
0
LINE
8
BLACK
6
CONTINUOUS
10
202.622
20
-278.316
11
202.668
21
-278.261
0
LINE
8
BLACK
6
CONTINUOUS
10
203.177
20
-119.415
11
203.111
21
-119.375
0
LINE
8
BLACK
6
CONTINUOUS
10
202.668
20
-278.261
11
202.718
21
-278.204
0
LINE
8
BLACK
6
CONTINUOUS
10
203.108
20
-277.882
11
203.178
21
-277.84
0
LINE
8
BLACK
6
CONTINUOUS
10
202.674
20
-119.002
11
202.628
21
-118.947
0
LINE
8
BLACK
6
CONTINUOUS
10
202.819
20
-278.104
11
202.875
21
-278.053
0
LINE
8
BLACK
6
CONTINUOUS
10
202.93
20
-278.008
11
202.987
21
-277.964
0
LINE
8
BLACK
6
CONTINUOUS
10
202.987
20
-277.964
11
203.046
21
-277.922
0
LINE
8
BLACK
6
CONTINUOUS
10
203.606
20
-119.597
11
203.526
21
-119.572
0
LINE
8
BLACK
6
CONTINUOUS
10
203.246
20
-277.803
11
203.315
21
-277.769
0
LINE
8
BLACK
6
CONTINUOUS
10
203.38
20
-119.516
11
203.31
21
-119.484
0
LINE
8
BLACK
6
CONTINUOUS
10
202.628
20
-118.947
11
202.584
21
-118.89
0
LINE
8
BLACK
6
CONTINUOUS
10
203.385
20
-277.737
11
203.459
21
-277.708
0
LINE
8
BLACK
6
CONTINUOUS
10
202.825
20
-119.158
11
202.774
21
-119.109
0
LINE
8
BLACK
6
CONTINUOUS
10
203.69
20
-277.637
11
203.776
21
-277.618
0
LINE
8
BLACK
6
CONTINUOUS
10
203.776
20
-277.618
11
203.863
21
-277.603
0
LINE
8
BLACK
6
CONTINUOUS
10
203.863
20
-277.603
11
203.959
21
-277.592
0
LINE
8
BLACK
6
CONTINUOUS
10
202.584
20
-118.89
11
202.541
21
-118.831
0
LINE
8
BLACK
6
CONTINUOUS
10
202.463
20
-118.708
11
202.457
21
-118.698
0
LINE
8
BLACK
6
CONTINUOUS
10
203.772
20
-119.637
11
203.686
21
-119.618
0
LINE
8
BLACK
6
CONTINUOUS
10
202.774
20
-119.109
11
202.724
21
-119.057
0
LINE
8
BLACK
6
CONTINUOUS
10
203.31
20
-119.484
11
203.243
21
-119.451
0
LINE
8
BLACK
6
CONTINUOUS
10
203.959
20
-277.592
11
204.053
21
-277.585
0
LINE
8
BLACK
6
CONTINUOUS
10
203.243
20
-119.451
11
203.177
21
-119.415
0
LINE
8
BLACK
6
CONTINUOUS
10
203.05
20
-119.336
11
202.992
21
-119.295
0
LINE
8
BLACK
6
CONTINUOUS
10
202.501
20
-118.77
11
202.463
21
-118.708
0
LINE
8
BLACK
6
CONTINUOUS
10
204.047
20
-119.67
11
203.951
21
-119.663
0
LINE
8
BLACK
6
CONTINUOUS
10
202.934
20
-119.25
11
202.879
21
-119.205
0
LINE
8
BLACK
6
CONTINUOUS
10
202.879
20
-119.205
11
202.825
21
-119.158
0
LINE
8
BLACK
6
CONTINUOUS
10
202.724
20
-119.057
11
202.674
21
-119.002
0
LINE
8
BLACK
6
CONTINUOUS
10
206.061
20
-279.899
11
206.043
21
-279.982
0
LINE
8
BLACK
6
CONTINUOUS
10
206.043
20
-279.982
11
206.022
21
-280.064
0
LINE
8
BLACK
6
CONTINUOUS
10
206.022
20
-280.064
11
205.999
21
-280.141
0
LINE
8
BLACK
6
CONTINUOUS
10
205.999
20
-280.141
11
205.972
21
-280.216
0
LINE
8
BLACK
6
CONTINUOUS
10
203.534
20
-277.681
11
203.611
21
-277.657
0
ARC
8
BLACK
10
209.212
20
-112.654
40
4.9
50
-0
51
90
0
LINE
8
BLACK
6
CONTINUOUS
10
205.972
20
-280.216
11
205.943
21
-280.289
0
LINE
8
BLACK
6
CONTINUOUS
10
202.875
20
-278.053
11
202.93
21
-278.008
0
LINE
8
BLACK
6
CONTINUOUS
10
203.111
20
-119.375
11
203.05
21
-119.336
0
LINE
8
BLACK
6
CONTINUOUS
10
205.943
20
-280.289
11
205.912
21
-280.359
0
LINE
8
BLACK
6
CONTINUOUS
10
205.912
20
-280.359
11
205.879
21
-280.428
0
LINE
8
BLACK
6
CONTINUOUS
10
205.879
20
-280.428
11
205.841
21
-280.496
0
LINE
8
BLACK
6
CONTINUOUS
10
205.841
20
-280.496
11
205.835
21
-280.508
0
LINE
8
BLACK
6
CONTINUOUS
10
202.768
20
-278.153
11
202.819
21
-278.104
0
LINE
8
BLACK
6
CONTINUOUS
10
202.718
20
-278.204
11
202.768
21
-278.153
0
LINE
8
BLACK
6
CONTINUOUS
10
203.861
20
-119.652
11
203.772
21
-119.637
0
LINE
8
BLACK
6
CONTINUOUS
10
202.541
20
-118.831
11
202.501
21
-118.77
0
LINE
8
BLACK
6
CONTINUOUS
10
202.992
20
-119.295
11
202.934
21
-119.25
0
LINE
8
BLACK
6
CONTINUOUS
10
203.451
20
-119.545
11
203.38
21
-119.516
0
LINE
8
BLACK
6
CONTINUOUS
10
203.459
20
-277.708
11
203.534
21
-277.681
0
LINE
8
BLACK
6
CONTINUOUS
10
214.112
20
-284.253
11
214.112
21
-112.654
0
LINE
8
BLACK
6
CONTINUOUS
10
203.046
20
-277.922
11
203.108
21
-277.882
0
LINE
8
BLACK
6
CONTINUOUS
10
202.495
20
-278.494
11
202.535
21
-278.433
0
LINE
8
BLACK
6
CONTINUOUS
10
205.75
20
-116.614
11
205.794
21
-116.68
0
LINE
8
BLACK
6
CONTINUOUS
10
203.959
20
-115.782
11
204.053
21
-115.775
0
LINE
8
BLACK
6
CONTINUOUS
10
204.834
20
-115.898
11
204.906
21
-115.926
0
LINE
8
BLACK
6
CONTINUOUS
10
205.045
20
-115.992
11
205.111
21
-116.028
0
LINE
8
BLACK
6
CONTINUOUS
10
205.236
20
-116.106
11
205.296
21
-116.148
0
LINE
8
BLACK
6
CONTINUOUS
10
205.993
20
-117.096
11
206.017
21
-117.172
0
LINE
8
BLACK
6
CONTINUOUS
10
205.174
20
-116.066
11
205.236
21
-116.106
0
LINE
8
BLACK
6
CONTINUOUS
10
206.084
20
-117.51
11
206.092
21
-117.603
0
LINE
8
BLACK
6
CONTINUOUS
10
206.017
20
-117.172
11
206.038
21
-117.251
0
LINE
8
BLACK
6
CONTINUOUS
10
202.718
20
-116.395
11
202.768
21
-116.343
0
LINE
8
BLACK
6
CONTINUOUS
10
202.768
20
-116.343
11
202.819
21
-116.294
0
LINE
8
BLACK
6
CONTINUOUS
10
203.534
20
-115.871
11
203.611
21
-115.848
0
LINE
8
BLACK
6
CONTINUOUS
10
203.611
20
-115.848
11
203.69
21
-115.827
0
LINE
8
BLACK
6
CONTINUOUS
10
203.863
20
-115.793
11
203.959
21
-115.782
0
LINE
8
BLACK
6
CONTINUOUS
10
205.296
20
-116.148
11
205.353
21
-116.191
0
LINE
8
BLACK
6
CONTINUOUS
10
205.408
20
-116.236
11
205.462
21
-116.284
0
LINE
8
BLACK
6
CONTINUOUS
10
205.514
20
-116.333
11
205.564
21
-116.384
0
LINE
8
BLACK
6
CONTINUOUS
10
203.178
20
-116.03
11
203.246
21
-115.993
0
LINE
8
BLACK
6
CONTINUOUS
10
206.038
20
-117.251
11
206.057
21
-117.334
0
LINE
8
BLACK
6
CONTINUOUS
10
202.535
20
-116.623
11
202.577
21
-116.564
0
LINE
8
BLACK
6
CONTINUOUS
10
205.903
20
-116.875
11
205.935
21
-116.945
0
LINE
8
BLACK
6
CONTINUOUS
10
202.622
20
-116.507
11
202.668
21
-116.451
0
LINE
8
BLACK
6
CONTINUOUS
10
206.057
20
-117.334
11
206.073
21
-117.421
0
LINE
8
BLACK
6
CONTINUOUS
10
202.668
20
-116.451
11
202.718
21
-116.395
0
LINE
8
BLACK
6
CONTINUOUS
10
202.495
20
-116.684
11
202.535
21
-116.623
0
LINE
8
BLACK
6
CONTINUOUS
10
203.046
20
-116.112
11
203.108
21
-116.072
0
LINE
8
BLACK
6
CONTINUOUS
10
205.613
20
-116.438
11
205.664
21
-116.499
0
LINE
8
BLACK
6
CONTINUOUS
10
206.092
20
-117.603
11
206.096
21
-117.702
0
LINE
8
BLACK
6
CONTINUOUS
10
202.819
20
-116.294
11
202.875
21
-116.244
0
LINE
8
BLACK
6
CONTINUOUS
10
205.708
20
-116.556
11
205.75
21
-116.614
0
LINE
8
BLACK
6
CONTINUOUS
10
203.246
20
-115.993
11
203.315
21
-115.959
0
LINE
8
BLACK
6
CONTINUOUS
10
205.794
20
-116.68
11
205.832
21
-116.743
0
LINE
8
BLACK
6
CONTINUOUS
10
206.096
20
-117.702
11
206.096
21
-117.723
0
LINE
8
BLACK
6
CONTINUOUS
10
205.868
20
-116.808
11
205.903
21
-116.875
0
LINE
8
BLACK
6
CONTINUOUS
10
205.965
20
-117.02
11
205.993
21
-117.096
0
LINE
8
BLACK
6
CONTINUOUS
10
202.93
20
-116.198
11
202.987
21
-116.155
0
LINE
8
BLACK
6
CONTINUOUS
10
202.987
20
-116.155
11
203.046
21
-116.112
0
LINE
8
BLACK
6
CONTINUOUS
10
202.577
20
-116.564
11
202.622
21
-116.507
0
LINE
8
BLACK
6
CONTINUOUS
10
206.073
20
-117.421
11
206.084
21
-117.51
0
LINE
8
BLACK
6
CONTINUOUS
10
203.776
20
-115.808
11
203.863
21
-115.793
0
LINE
8
BLACK
6
CONTINUOUS
10
204.146
20
-115.773
11
204.244
21
-115.775
0
LINE
8
BLACK
6
CONTINUOUS
10
205.564
20
-116.384
11
205.613
21
-116.438
0
LINE
8
BLACK
6
CONTINUOUS
10
204.681
20
-115.847
11
204.759
21
-115.871
0
LINE
8
BLACK
6
CONTINUOUS
10
205.832
20
-116.743
11
205.868
21
-116.808
0
LINE
8
BLACK
6
CONTINUOUS
10
204.43
20
-115.793
11
204.516
21
-115.808
0
LINE
8
BLACK
6
CONTINUOUS
10
205.935
20
-116.945
11
205.965
21
-117.02
0
LINE
8
BLACK
6
CONTINUOUS
10
204.516
20
-115.808
11
204.601
21
-115.826
0
LINE
8
BLACK
6
CONTINUOUS
10
205.353
20
-116.191
11
205.408
21
-116.236
0
LINE
8
BLACK
6
CONTINUOUS
10
203.459
20
-115.898
11
203.534
21
-115.871
0
LINE
8
BLACK
6
CONTINUOUS
10
203.108
20
-116.072
11
203.178
21
-116.03
0
LINE
8
BLACK
6
CONTINUOUS
10
203.385
20
-115.927
11
203.459
21
-115.898
0
LINE
8
BLACK
6
CONTINUOUS
10
204.906
20
-115.926
11
204.976
21
-115.958
0
LINE
8
BLACK
6
CONTINUOUS
10
204.976
20
-115.958
11
205.045
21
-115.992
0
LINE
8
BLACK
6
CONTINUOUS
10
203.69
20
-115.827
11
203.776
21
-115.808
0
LINE
8
BLACK
6
CONTINUOUS
10
202.457
20
-116.748
11
202.495
21
-116.684
0
LINE
8
BLACK
6
CONTINUOUS
10
204.244
20
-115.775
11
204.341
21
-115.782
0
LINE
8
BLACK
6
CONTINUOUS
10
204.341
20
-115.782
11
204.43
21
-115.793
0
LINE
8
BLACK
6
CONTINUOUS
10
203.315
20
-115.959
11
203.385
21
-115.927
0
LINE
8
BLACK
6
CONTINUOUS
10
204.601
20
-115.826
11
204.681
21
-115.847
0
LINE
8
BLACK
6
CONTINUOUS
10
204.759
20
-115.871
11
204.834
21
-115.898
0
LINE
8
BLACK
6
CONTINUOUS
10
202.875
20
-116.244
11
202.93
21
-116.198
0
LINE
8
BLACK
6
CONTINUOUS
10
205.664
20
-116.499
11
205.708
21
-116.556
0
LINE
8
BLACK
6
CONTINUOUS
10
205.111
20
-116.028
11
205.174
21
-116.066
0
LINE
8
BLACK
6
CONTINUOUS
10
205.462
20
-116.284
11
205.514
21
-116.333
0
LINE
8
BLACK
6
CONTINUOUS
10
204.355
20
-119.662
11
204.263
21
-119.669
0
LINE
8
BLACK
6
CONTINUOUS
10
204.053
20
-115.775
11
204.146
21
-115.773
0
LINE
8
BLACK
6
CONTINUOUS
10
206.096
20
-117.723
11
206.093
21
-117.821
0
LINE
8
BLACK
6
CONTINUOUS
10
206.093
20
-117.821
11
206.087
21
-117.915
0
LINE
8
BLACK
6
CONTINUOUS
10
206.087
20
-117.915
11
206.075
21
-118.007
0
LINE
8
BLACK
6
CONTINUOUS
10
170.566
20
-270.249
11
170.513
21
-270.201
0
LINE
8
BLACK
6
CONTINUOUS
10
205.188
20
-119.372
11
205.125
21
-119.41
0
LINE
8
BLACK
6
CONTINUOUS
10
170.867
20
-270.964
11
170.862
21
-270.865
0
LINE
8
BLACK
6
CONTINUOUS
10
170.742
20
-270.479
11
170.703
21
-270.415
0
LINE
8
BLACK
6
CONTINUOUS
10
206.042
20
-118.179
11
206.021
21
-118.259
0
LINE
8
BLACK
6
CONTINUOUS
10
205.67
20
-118.94
11
205.624
21
-118.995
0
LINE
8
BLACK
6
CONTINUOUS
10
204.263
20
-119.669
11
204.163
21
-119.673
0
LINE
8
BLACK
6
CONTINUOUS
10
206.075
20
-118.007
11
206.06
21
-118.096
0
LINE
8
BLACK
6
CONTINUOUS
10
206.06
20
-118.096
11
206.042
21
-118.179
0
LINE
8
BLACK
6
CONTINUOUS
10
205.939
20
-118.491
11
205.907
21
-118.561
0
LINE
8
BLACK
6
CONTINUOUS
10
205.797
20
-118.76
11
205.755
21
-118.824
0
LINE
8
BLACK
6
CONTINUOUS
10
205.624
20
-118.995
11
205.576
21
-119.049
0
LINE
8
BLACK
6
CONTINUOUS
10
170.513
20
-270.201
11
170.453
21
-270.154
0
LINE
8
BLACK
6
CONTINUOUS
10
205.308
20
-119.289
11
205.249
21
-119.331
0
LINE
8
BLACK
6
CONTINUOUS
10
205.996
20
-118.342
11
205.969
21
-118.417
0
LINE
8
BLACK
6
CONTINUOUS
10
205.873
20
-118.628
11
205.836
21
-118.697
0
LINE
8
BLACK
6
CONTINUOUS
10
204.163
20
-119.673
11
204.146
21
-119.673
0
LINE
8
BLACK
6
CONTINUOUS
10
170.019
20
-269.976
11
169.928
21
-269.966
0
LINE
8
BLACK
6
CONTINUOUS
10
170.831
20
-270.695
11
170.806
21
-270.619
0
LINE
8
BLACK
6
CONTINUOUS
10
132.767
20
-273.727
11
132.767
21
-266.201
0
LINE
8
BLACK
6
CONTINUOUS
10
206.021
20
-118.259
11
205.996
21
-118.342
0
LINE
8
BLACK
6
CONTINUOUS
10
205.969
20
-118.417
11
205.939
21
-118.491
0
LINE
8
BLACK
6
CONTINUOUS
10
205.836
20
-118.697
11
205.797
21
-118.76
0
LINE
8
BLACK
6
CONTINUOUS
10
205.713
20
-118.883
11
205.67
21
-118.94
0
LINE
8
BLACK
6
CONTINUOUS
10
205.526
20
-119.1
11
205.474
21
-119.151
0
LINE
8
BLACK
6
CONTINUOUS
10
205.06
20
-119.446
11
204.993
21
-119.48
0
LINE
8
BLACK
6
CONTINUOUS
10
170.806
20
-270.619
11
170.777
21
-270.548
0
LINE
8
BLACK
6
CONTINUOUS
10
170.183
20
-270.015
11
170.103
21
-269.992
0
LINE
8
BLACK
6
CONTINUOUS
10
204.697
20
-119.594
11
204.617
21
-119.615
0
LINE
8
BLACK
6
CONTINUOUS
10
204.852
20
-119.541
11
204.776
21
-119.569
0
LINE
8
BLACK
6
CONTINUOUS
10
170.325
20
-270.075
11
170.256
21
-270.043
0
LINE
8
BLACK
6
CONTINUOUS
10
170.703
20
-270.415
11
170.661
21
-270.356
0
LINE
8
BLACK
6
CONTINUOUS
10
170.661
20
-270.356
11
170.615
21
-270.301
0
LINE
8
BLACK
6
CONTINUOUS
10
205.755
20
-118.824
11
205.713
21
-118.883
0
LINE
8
BLACK
6
CONTINUOUS
10
204.444
20
-119.65
11
204.355
21
-119.662
0
LINE
8
BLACK
6
CONTINUOUS
10
205.576
20
-119.049
11
205.526
21
-119.1
0
LINE
8
BLACK
6
CONTINUOUS
10
205.474
20
-119.151
11
205.421
21
-119.198
0
LINE
8
BLACK
6
CONTINUOUS
10
170.391
20
-270.112
11
170.325
21
-270.075
0
LINE
8
BLACK
6
CONTINUOUS
10
205.365
20
-119.245
11
205.308
21
-119.289
0
LINE
8
BLACK
6
CONTINUOUS
10
204.617
20
-119.615
11
204.531
21
-119.635
0
LINE
8
BLACK
6
CONTINUOUS
10
204.776
20
-119.569
11
204.697
21
-119.594
0
LINE
8
BLACK
6
CONTINUOUS
10
205.249
20
-119.331
11
205.188
21
-119.372
0
LINE
8
BLACK
6
CONTINUOUS
10
205.125
20
-119.41
11
205.06
21
-119.446
0
LINE
8
BLACK
6
CONTINUOUS
10
170.862
20
-270.865
11
170.85
21
-270.777
0
LINE
8
BLACK
6
CONTINUOUS
10
204.993
20
-119.48
11
204.925
21
-119.511
0
LINE
8
BLACK
6
CONTINUOUS
10
170.615
20
-270.301
11
170.566
21
-270.249
0
ARC
8
BLACK
10
150.814
20
-273.728
40
1
50
-90
51
-0
0
LINE
8
BLACK
6
CONTINUOUS
10
170.453
20
-270.154
11
170.391
21
-270.112
0
LINE
8
BLACK
6
CONTINUOUS
10
170.256
20
-270.043
11
170.183
21
-270.015
0
LINE
8
BLACK
6
CONTINUOUS
10
169.928
20
-269.966
11
169.867
21
-269.964
0
LINE
8
BLACK
6
CONTINUOUS
10
205.421
20
-119.198
11
205.365
21
-119.245
0
LINE
8
BLACK
6
CONTINUOUS
10
170.103
20
-269.992
11
170.019
21
-269.976
0
LINE
8
BLACK
6
CONTINUOUS
10
205.907
20
-118.561
11
205.873
21
-118.628
0
LINE
8
BLACK
6
CONTINUOUS
10
204.925
20
-119.511
11
204.852
21
-119.541
0
LINE
8
BLACK
6
CONTINUOUS
10
170.85
20
-270.777
11
170.831
21
-270.695
0
LINE
8
BLACK
6
CONTINUOUS
10
169.866
20
-269.965
11
152.813
21
-269.965
0
LINE
8
BLACK
6
CONTINUOUS
10
204.531
20
-119.635
11
204.444
21
-119.65
0
LINE
8
BLACK
6
CONTINUOUS
10
170.777
20
-270.548
11
170.742
21
-270.479
0
LINE
8
BLACK
6
CONTINUOUS
10
205.712
20
-280.694
11
205.663
21
-280.758
0
LINE
8
BLACK
6
CONTINUOUS
10
205.617
20
-280.813
11
205.569
21
-280.866
0
LINE
8
BLACK
6
CONTINUOUS
10
202.388
20
-280.376
11
202.356
21
-280.306
0
LINE
8
BLACK
6
CONTINUOUS
10
202.421
20
-280.443
11
202.388
21
-280.376
0
LINE
8
BLACK
6
CONTINUOUS
10
204.837
20
-281.356
11
204.762
21
-281.383
0
LINE
8
BLACK
6
CONTINUOUS
10
173.037
20
-277.369
11
173.037
21
-267.844
0
LINE
8
BLACK
6
CONTINUOUS
10
149.785
20
-267.844
11
149.785
21
-272.606
0
LINE
8
BLACK
6
CONTINUOUS
10
205.24
20
-281.146
11
205.179
21
-281.186
0
LINE
8
BLACK
6
CONTINUOUS
10
204.52
20
-281.447
11
204.433
21
-281.461
0
LINE
8
BLACK
6
CONTINUOUS
10
202.199
20
-279.642
11
202.196
21
-279.541
0
LINE
8
BLACK
6
CONTINUOUS
10
205.3
20
-281.105
11
205.24
21
-281.146
0
LINE
8
BLACK
6
CONTINUOUS
10
187.885
20
-277.369
11
187.885
21
-275.562
0
LINE
8
BLACK
6
CONTINUOUS
10
202.207
20
-279.737
11
202.199
21
-279.642
0
LINE
8
BLACK
6
CONTINUOUS
10
205.835
20
-280.508
11
205.795
21
-280.573
0
LINE
8
BLACK
6
CONTINUOUS
10
204.684
20
-281.407
11
204.604
21
-281.428
0
LINE
8
BLACK
6
CONTINUOUS
10
205.663
20
-280.758
11
205.617
21
-280.813
0
LINE
8
BLACK
6
CONTINUOUS
10
205.412
20
-281.016
11
205.357
21
-281.061
0
LINE
8
BLACK
6
CONTINUOUS
10
204.984
20
-281.293
11
204.908
21
-281.327
0
LINE
8
BLACK
6
CONTINUOUS
10
207.435
20
-241.015
11
209.212
21
-241.015
0
LINE
8
BLACK
6
CONTINUOUS
10
205.755
20
-280.634
11
205.712
21
-280.694
0
LINE
8
BLACK
6
CONTINUOUS
10
204.604
20
-281.428
11
204.52
21
-281.447
0
LINE
8
BLACK
6
CONTINUOUS
10
205.465
20
-280.969
11
205.412
21
-281.016
0
LINE
8
BLACK
6
CONTINUOUS
10
205.357
20
-281.061
11
205.3
21
-281.105
0
LINE
8
BLACK
6
CONTINUOUS
10
204.762
20
-281.383
11
204.684
21
-281.407
0
LINE
8
BLACK
6
CONTINUOUS
10
202.274
20
-280.08
11
202.253
21
-280
0
LINE
8
BLACK
6
CONTINUOUS
10
205.116
20
-281.224
11
205.051
21
-281.26
0
LINE
8
BLACK
6
CONTINUOUS
10
204.151
20
-281.483
11
204.146
21
-281.483
0
LINE
8
BLACK
6
CONTINUOUS
10
188.385
20
-121.526
11
188.385
21
-128.668
0
LINE
8
BLACK
6
CONTINUOUS
10
108.712
20
-265.203
11
108.712
21
-112.654
0
LINE
8
BLACK
6
CONTINUOUS
10
204.433
20
-281.461
11
204.343
21
-281.473
0
LINE
8
BLACK
6
CONTINUOUS
10
134.937
20
-272.606
11
134.937
21
-263.081
0
LINE
8
BLACK
6
CONTINUOUS
10
202.253
20
-280
11
202.234
21
-279.917
0
LINE
8
BLACK
6
CONTINUOUS
10
202.298
20
-280.156
11
202.274
21
-280.08
0
LINE
8
BLACK
6
CONTINUOUS
10
205.051
20
-281.26
11
204.984
21
-281.293
0
LINE
8
BLACK
6
CONTINUOUS
10
205.795
20
-280.573
11
205.755
21
-280.634
0
LINE
8
BLACK
6
CONTINUOUS
10
205.569
20
-280.866
11
205.52
21
-280.917
0
LINE
8
BLACK
6
CONTINUOUS
10
202.234
20
-279.917
11
202.218
21
-279.827
0
LINE
8
BLACK
6
CONTINUOUS
10
202.457
20
-280.508
11
202.421
21
-280.443
0
LINE
8
BLACK
6
CONTINUOUS
10
187.885
20
-275.562
11
209.212
21
-275.562
0
LINE
8
BLACK
6
CONTINUOUS
10
205.179
20
-281.186
11
205.116
21
-281.224
0
LINE
8
BLACK
6
CONTINUOUS
10
202.325
20
-280.232
11
202.298
21
-280.156
0
LINE
8
BLACK
6
CONTINUOUS
10
134.937
20
-263.081
11
115.387
21
-263.081
0
LINE
8
BLACK
6
CONTINUOUS
10
188.385
20
-128.668
11
207.435
21
-128.668
0
LINE
8
BLACK
6
CONTINUOUS
10
202.218
20
-279.827
11
202.207
21
-279.737
0
LINE
8
BLACK
6
CONTINUOUS
10
204.343
20
-281.473
11
204.249
21
-281.48
0
LINE
8
BLACK
6
CONTINUOUS
10
115.387
20
-263.081
11
115.387
21
-114.805
0
LINE
8
BLACK
6
CONTINUOUS
10
205.52
20
-280.917
11
205.465
21
-280.969
0
LINE
8
BLACK
6
CONTINUOUS
10
202.356
20
-280.306
11
202.325
21
-280.232
0
LINE
8
BLACK
6
CONTINUOUS
10
204.249
20
-281.48
11
204.151
21
-281.483
0
LINE
8
BLACK
6
CONTINUOUS
10
204.908
20
-281.327
11
204.837
21
-281.356
0
LINE
8
BLACK
6
CONTINUOUS
10
149.785
20
-272.606
11
134.937
21
-272.606
0
LINE
8
BLACK
6
CONTINUOUS
10
209.212
20
-275.562
11
209.212
21
-241.015
0
LINE
8
BLACK
6
CONTINUOUS
10
133.299
20
-274.609
11
133.37
21
-274.643
0
LINE
8
BLACK
6
CONTINUOUS
10
132.603
20
-265.651
11
132.561
21
-265.592
0
LINE
8
BLACK
6
CONTINUOUS
10
132.515
20
-265.537
11
132.465
21
-265.485
0
LINE
8
BLACK
6
CONTINUOUS
10
133.699
20
-274.723
11
133.767
21
-274.725
0
LINE
8
BLACK
6
CONTINUOUS
10
152.718
20
-269.969
11
152.627
21
-269.982
0
LINE
8
BLACK
6
CONTINUOUS
10
188.916
20
-279.49
11
171.865
21
-279.49
0
LINE
8
BLACK
6
CONTINUOUS
10
132.083
20
-265.251
11
132.003
21
-265.228
0
LINE
8
BLACK
6
CONTINUOUS
10
152.396
20
-270.056
11
152.329
21
-270.09
0
LINE
8
BLACK
6
CONTINUOUS
10
132.156
20
-265.279
11
132.083
21
-265.251
0
LINE
8
BLACK
6
CONTINUOUS
10
214.112
20
-284.253
11
190.915
21
-284.253
0
LINE
8
BLACK
6
CONTINUOUS
10
132.75
20
-266.013
11
132.731
21
-265.931
0
LINE
8
BLACK
6
CONTINUOUS
10
132.561
20
-265.592
11
132.515
21
-265.537
0
LINE
8
BLACK
6
CONTINUOUS
10
152.546
20
-270.001
11
152.469
21
-270.026
0
LINE
8
BLACK
6
CONTINUOUS
10
132.706
20
-265.855
11
132.677
21
-265.784
0
LINE
8
BLACK
6
CONTINUOUS
10
132.291
20
-265.348
11
132.225
21
-265.311
0
LINE
8
BLACK
6
CONTINUOUS
10
151.814
20
-270.966
11
151.814
21
-273.728
0
LINE
8
BLACK
6
CONTINUOUS
10
152.469
20
-270.026
11
152.396
21
-270.056
0
LINE
8
BLACK
6
CONTINUOUS
10
132.642
20
-265.715
11
132.603
21
-265.651
0
LINE
8
BLACK
6
CONTINUOUS
10
132.225
20
-265.311
11
132.156
21
-265.279
0
LINE
8
BLACK
6
CONTINUOUS
10
152.627
20
-269.982
11
152.546
21
-270.001
0
LINE
8
BLACK
6
CONTINUOUS
10
132.353
20
-265.39
11
132.291
21
-265.348
0
LINE
8
BLACK
6
CONTINUOUS
10
131.919
20
-265.212
11
131.828
21
-265.202
0
LINE
8
BLACK
6
CONTINUOUS
10
132.731
20
-265.931
11
132.706
21
-265.855
0
LINE
8
BLACK
6
CONTINUOUS
10
152.329
20
-270.09
11
152.265
21
-270.129
0
LINE
8
BLACK
6
CONTINUOUS
10
132.767
20
-273.725
11
132.772
21
-273.822
0
LINE
8
BLACK
6
CONTINUOUS
10
132.772
20
-273.822
11
132.784
21
-273.911
0
LINE
8
BLACK
6
CONTINUOUS
10
132.784
20
-273.911
11
132.803
21
-273.992
0
LINE
8
BLACK
6
CONTINUOUS
10
131.828
20
-265.202
11
131.767
21
-265.2
0
LINE
8
BLACK
6
CONTINUOUS
10
132.827
20
-274.068
11
132.856
21
-274.139
0
LINE
8
BLACK
6
CONTINUOUS
10
132.803
20
-273.992
11
132.827
21
-274.068
0
LINE
8
BLACK
6
CONTINUOUS
10
133.52
20
-274.695
11
133.603
21
-274.712
0
LINE
8
BLACK
6
CONTINUOUS
10
132.677
20
-265.784
11
132.642
21
-265.715
0
LINE
8
BLACK
6
CONTINUOUS
10
132.465
20
-265.485
11
132.413
21
-265.437
0
LINE
8
BLACK
6
CONTINUOUS
10
132.856
20
-274.139
11
132.891
21
-274.208
0
LINE
8
BLACK
6
CONTINUOUS
10
132.891
20
-274.208
11
132.929
21
-274.271
0
LINE
8
BLACK
6
CONTINUOUS
10
132.971
20
-274.33
11
133.017
21
-274.386
0
LINE
8
BLACK
6
CONTINUOUS
10
133.234
20
-274.572
11
133.299
21
-274.609
0
LINE
8
BLACK
6
CONTINUOUS
10
133.017
20
-274.386
11
133.065
21
-274.438
0
LINE
8
BLACK
6
CONTINUOUS
10
132.003
20
-265.228
11
131.919
21
-265.212
0
LINE
8
BLACK
6
CONTINUOUS
10
132.929
20
-274.271
11
132.971
21
-274.33
0
LINE
8
BLACK
6
CONTINUOUS
10
133.065
20
-274.438
11
133.118
21
-274.486
0
LINE
8
BLACK
6
CONTINUOUS
10
132.767
20
-266.2
11
132.762
21
-266.101
0
LINE
8
BLACK
6
CONTINUOUS
10
133.37
20
-274.643
11
133.442
21
-274.671
0
LINE
8
BLACK
6
CONTINUOUS
10
132.762
20
-266.101
11
132.75
21
-266.013
0
LINE
8
BLACK
6
CONTINUOUS
10
133.118
20
-274.486
11
133.174
21
-274.531
0
LINE
8
BLACK
6
CONTINUOUS
10
152.265
20
-270.129
11
152.205
21
-270.171
0
LINE
8
BLACK
6
CONTINUOUS
10
133.174
20
-274.531
11
133.234
21
-274.572
0
LINE
8
BLACK
6
CONTINUOUS
10
133.442
20
-274.671
11
133.52
21
-274.695
0
LINE
8
BLACK
6
CONTINUOUS
10
132.413
20
-265.437
11
132.353
21
-265.39
0
LINE
8
BLACK
6
CONTINUOUS
10
152.205
20
-270.171
11
152.149
21
-270.218
0
LINE
8
BLACK
6
CONTINUOUS
10
152.814
20
-269.964
11
152.718
21
-269.969
0
LINE
8
BLACK
6
CONTINUOUS
10
133.603
20
-274.712
11
133.699
21
-274.723
0
LINE
8
BLACK
6
CONTINUOUS
10
151.928
20
-270.502
11
151.895
21
-270.57
0
LINE
8
BLACK
6
CONTINUOUS
10
151.844
20
-270.724
11
151.827
21
-270.808
0
LINE
8
BLACK
6
CONTINUOUS
10
151.827
20
-270.808
11
151.817
21
-270.899
0
LINE
8
BLACK
6
CONTINUOUS
10
151.817
20
-270.899
11
151.814
21
-270.964
0
LINE
8
BLACK
6
CONTINUOUS
10
152.149
20
-270.218
11
152.098
21
-270.267
0
LINE
8
BLACK
6
CONTINUOUS
10
152.098
20
-270.267
11
152.05
21
-270.32
0
LINE
8
BLACK
6
CONTINUOUS
10
152.05
20
-270.32
11
152.005
21
-270.377
0
LINE
8
BLACK
6
CONTINUOUS
10
151.867
20
-270.644
11
151.844
21
-270.724
0
LINE
8
BLACK
6
CONTINUOUS
10
152.005
20
-270.377
11
151.964
21
-270.438
0
LINE
8
BLACK
6
CONTINUOUS
10
151.895
20
-270.57
11
151.867
21
-270.644
0
LINE
8
BLACK
6
CONTINUOUS
10
151.964
20
-270.438
11
151.928
21
-270.502
0
LINE
8
BLACK
6
CONTINUOUS
10
189.306
20
-279.568
11
189.233
21
-279.54
0
LINE
8
BLACK
6
CONTINUOUS
10
189.792
20
-280.004
11
189.753
21
-279.94
0
LINE
8
BLACK
6
CONTINUOUS
10
171.165
20
-279.202
11
171.218
21
-279.25
0
LINE
8
BLACK
6
CONTINUOUS
10
189.665
20
-279.826
11
189.616
21
-279.774
0
LINE
8
BLACK
6
CONTINUOUS
10
190.753
20
-284.237
11
190.849
21
-284.248
0
LINE
8
BLACK
6
CONTINUOUS
10
189.153
20
-279.517
11
189.069
21
-279.501
0
LINE
8
BLACK
6
CONTINUOUS
10
189.917
20
-283.252
11
189.917
21
-280.491
0
LINE
8
BLACK
6
CONTINUOUS
10
171.029
20
-279.035
11
171.071
21
-279.094
0
LINE
8
BLACK
6
CONTINUOUS
10
170.903
20
-278.756
11
170.928
21
-278.832
0
LINE
8
BLACK
6
CONTINUOUS
10
170.957
20
-278.903
11
170.991
21
-278.972
0
LINE
8
BLACK
6
CONTINUOUS
10
171.274
20
-279.295
11
171.334
21
-279.336
0
LINE
8
BLACK
6
CONTINUOUS
10
189.563
20
-279.726
11
189.503
21
-279.679
0
LINE
8
BLACK
6
CONTINUOUS
10
171.62
20
-279.459
11
171.703
21
-279.476
0
LINE
8
BLACK
6
CONTINUOUS
10
189.503
20
-279.679
11
189.441
21
-279.637
0
LINE
8
BLACK
6
CONTINUOUS
10
189.375
20
-279.6
11
189.306
21
-279.568
0
LINE
8
BLACK
6
CONTINUOUS
10
190.007
20
-283.664
11
190.041
21
-283.733
0
LINE
8
BLACK
6
CONTINUOUS
10
189.233
20
-279.54
11
189.153
21
-279.517
0
LINE
8
BLACK
6
CONTINUOUS
10
189.069
20
-279.501
11
188.978
21
-279.491
0
LINE
8
BLACK
6
CONTINUOUS
10
171.218
20
-279.25
11
171.274
21
-279.295
0
LINE
8
BLACK
6
CONTINUOUS
10
171.399
20
-279.373
11
171.47
21
-279.407
0
LINE
8
BLACK
6
CONTINUOUS
10
190.593
20
-284.196
11
190.67
21
-284.22
0
LINE
8
BLACK
6
CONTINUOUS
10
190.041
20
-283.733
11
190.079
21
-283.796
0
LINE
8
BLACK
6
CONTINUOUS
10
190.384
20
-284.097
11
190.449
21
-284.134
0
LINE
8
BLACK
6
CONTINUOUS
10
190.849
20
-284.248
11
190.917
21
-284.25
0
LINE
8
BLACK
6
CONTINUOUS
10
189.934
20
-283.436
11
189.953
21
-283.517
0
LINE
8
BLACK
6
CONTINUOUS
10
170.867
20
-278.492
11
170.867
21
-270.966
0
LINE
8
BLACK
6
CONTINUOUS
10
170.867
20
-278.489
11
170.872
21
-278.586
0
LINE
8
BLACK
6
CONTINUOUS
10
170.872
20
-278.586
11
170.885
21
-278.675
0
LINE
8
BLACK
6
CONTINUOUS
10
190.079
20
-283.796
11
190.121
21
-283.855
0
LINE
8
BLACK
6
CONTINUOUS
10
190.215
20
-283.963
11
190.268
21
-284.011
0
LINE
8
BLACK
6
CONTINUOUS
10
171.117
20
-279.15
11
171.165
21
-279.202
0
LINE
8
BLACK
6
CONTINUOUS
10
189.953
20
-283.517
11
189.977
21
-283.593
0
LINE
8
BLACK
6
CONTINUOUS
10
171.47
20
-279.407
11
171.543
21
-279.436
0
LINE
8
BLACK
6
CONTINUOUS
10
170.885
20
-278.675
11
170.903
21
-278.756
0
LINE
8
BLACK
6
CONTINUOUS
10
171.543
20
-279.436
11
171.62
21
-279.459
0
LINE
8
BLACK
6
CONTINUOUS
10
171.799
20
-279.487
11
171.867
21
-279.489
0
LINE
8
BLACK
6
CONTINUOUS
10
190.167
20
-283.911
11
190.215
21
-283.963
0
LINE
8
BLACK
6
CONTINUOUS
10
170.991
20
-278.972
11
171.029
21
-279.035
0
LINE
8
BLACK
6
CONTINUOUS
10
189.917
20
-283.25
11
189.922
21
-283.347
0
LINE
8
BLACK
6
CONTINUOUS
10
189.922
20
-283.347
11
189.934
21
-283.436
0
LINE
8
BLACK
6
CONTINUOUS
10
189.977
20
-283.593
11
190.007
21
-283.664
0
LINE
8
BLACK
6
CONTINUOUS
10
189.917
20
-280.489
11
189.912
21
-280.39
0
LINE
8
BLACK
6
CONTINUOUS
10
190.67
20
-284.22
11
190.753
21
-284.237
0
LINE
8
BLACK
6
CONTINUOUS
10
190.268
20
-284.011
11
190.324
21
-284.056
0
LINE
8
BLACK
6
CONTINUOUS
10
189.912
20
-280.39
11
189.9
21
-280.302
0
LINE
8
BLACK
6
CONTINUOUS
10
131.766
20
-265.203
11
108.712
21
-265.203
0
LINE
8
BLACK
6
CONTINUOUS
10
170.928
20
-278.832
11
170.957
21
-278.903
0
LINE
8
BLACK
6
CONTINUOUS
10
190.52
20
-284.168
11
190.593
21
-284.196
0
LINE
8
BLACK
6
CONTINUOUS
10
189.616
20
-279.774
11
189.563
21
-279.726
0
LINE
8
BLACK
6
CONTINUOUS
10
171.703
20
-279.476
11
171.799
21
-279.487
0
LINE
8
BLACK
6
CONTINUOUS
10
189.9
20
-280.302
11
189.881
21
-280.22
0
LINE
8
BLACK
6
CONTINUOUS
10
189.881
20
-280.22
11
189.856
21
-280.144
0
LINE
8
BLACK
6
CONTINUOUS
10
189.856
20
-280.144
11
189.827
21
-280.073
0
LINE
8
BLACK
6
CONTINUOUS
10
189.711
20
-279.881
11
189.665
21
-279.826
0
LINE
8
BLACK
6
CONTINUOUS
10
190.449
20
-284.134
11
190.52
21
-284.168
0
LINE
8
BLACK
6
CONTINUOUS
10
189.753
20
-279.94
11
189.711
21
-279.881
0
LINE
8
BLACK
6
CONTINUOUS
10
171.071
20
-279.094
11
171.117
21
-279.15
0
LINE
8
BLACK
6
CONTINUOUS
10
190.121
20
-283.855
11
190.167
21
-283.911
0
LINE
8
BLACK
6
CONTINUOUS
10
150.814
20
-274.728
11
133.765
21
-274.728
0
LINE
8
BLACK
6
CONTINUOUS
10
171.334
20
-279.336
11
171.399
21
-279.373
0
LINE
8
BLACK
6
CONTINUOUS
10
188.978
20
-279.491
11
188.917
21
-279.489
0
LINE
8
BLACK
6
CONTINUOUS
10
189.827
20
-280.073
11
189.792
21
-280.004
0
LINE
8
BLACK
6
CONTINUOUS
10
189.441
20
-279.637
11
189.375
21
-279.6
0
LINE
8
BLACK
6
CONTINUOUS
10
190.324
20
-284.056
11
190.384
21
-284.097
0
LINE
8
BLACK
6
CONTINUOUS
10
488.298
20
-12.1345
11
488.237
21
-12.0945
0
ARC
8
BLACK
10
322.458
20
-5.418
40
4.9
50
90
51
180
0
LINE
8
BLACK
6
CONTINUOUS
10
328.694
20
-12.0461
11
328.635
21
-12.0888
0
LINE
8
BLACK
6
CONTINUOUS
10
487.957
20
-11.8621
11
487.908
21
-11.8109
0
LINE
8
BLACK
6
CONTINUOUS
10
329.288
20
-11.3202
11
329.255
21
-11.3873
0
LINE
8
BLACK
6
CONTINUOUS
10
487.389
20
-10.5766
11
487.387
21
-10.4841
0
LINE
8
BLACK
6
CONTINUOUS
10
487.396
20
-10.6714
11
487.389
21
-10.5766
0
LINE
8
BLACK
6
CONTINUOUS
10
487.726
20
-11.5835
11
487.686
21
-11.5224
0
LINE
8
BLACK
6
CONTINUOUS
10
328.502
20
-12.1728
11
328.437
21
-12.2085
0
LINE
8
BLACK
6
CONTINUOUS
10
489.703
20
-8.5687
11
489.786
21
-8.5866
0
LINE
8
BLACK
6
CONTINUOUS
10
487.857
20
-11.7548
11
487.812
21
-11.6999
0
LINE
8
BLACK
6
CONTINUOUS
10
326.77
20
-12.2813
11
326.7
21
-12.2502
0
LINE
8
BLACK
6
CONTINUOUS
10
488.636
20
-8.6643
11
488.713
21
-8.6364
0
LINE
8
BLACK
6
CONTINUOUS
10
487.541
20
-11.2446
11
487.512
21
-11.1711
0
LINE
8
BLACK
6
CONTINUOUS
10
488.008
20
-11.9119
11
487.957
21
-11.8621
0
LINE
8
BLACK
6
CONTINUOUS
10
487.573
20
-11.3153
11
487.541
21
-11.2446
0
LINE
8
BLACK
6
CONTINUOUS
10
487.407
20
-10.7672
11
487.396
21
-10.6714
0
LINE
8
BLACK
6
CONTINUOUS
10
487.485
20
-11.0965
11
487.461
21
-11.0192
0
LINE
8
BLACK
6
CONTINUOUS
10
326.088
20
-9.1681
11
326.137
21
-9.1164
0
LINE
8
BLACK
6
CONTINUOUS
10
326.7
20
-12.2502
11
326.633
21
-12.217
0
LINE
8
BLACK
6
CONTINUOUS
10
489.617
20
-8.5543
11
489.703
21
-8.5687
0
LINE
8
BLACK
6
CONTINUOUS
10
487.422
20
-10.8541
11
487.407
21
-10.7672
0
LINE
8
BLACK
6
CONTINUOUS
10
494.057
20
-0.518
11
322.458
21
-0.518
0
LINE
8
BLACK
6
CONTINUOUS
10
326.679
20
-8.7273
11
326.749
21
-8.6952
0
LINE
8
BLACK
6
CONTINUOUS
10
326.242
20
-9.0168
11
326.303
21
-8.9659
0
LINE
8
BLACK
6
CONTINUOUS
10
488.362
20
-12.1728
11
488.298
21
-12.1345
0
LINE
8
BLACK
6
CONTINUOUS
10
329.14
20
-11.5796
11
329.099
21
-11.6383
0
LINE
8
BLACK
6
CONTINUOUS
10
490.093
20
-8.6868
11
490.163
21
-8.7179
0
LINE
8
BLACK
6
CONTINUOUS
10
327.536
20
-12.4341
11
327.437
21
-12.432
0
LINE
8
BLACK
6
CONTINUOUS
10
487.441
20
-10.9399
11
487.422
21
-10.8541
0
LINE
8
BLACK
6
CONTINUOUS
10
487.686
20
-11.5224
11
487.644
21
-11.4518
0
LINE
8
BLACK
6
CONTINUOUS
10
487.461
20
-11.0192
11
487.441
21
-10.9399
0
LINE
8
BLACK
6
CONTINUOUS
10
487.173
20
-41.5934
11
487.173
21
-26.7453
0
LINE
8
BLACK
6
CONTINUOUS
10
487.644
20
-11.4518
11
487.607
21
-11.3838
0
LINE
8
BLACK
6
CONTINUOUS
10
325.675
20
-9.8714
11
325.702
21
-9.7961
0
LINE
8
BLACK
6
CONTINUOUS
10
325.597
20
-10.2
11
325.612
21
-10.1142
0
LINE
8
BLACK
6
CONTINUOUS
10
328.3
20
-12.2742
11
328.226
21
-12.3046
0
LINE
8
BLACK
6
CONTINUOUS
10
487.768
20
-11.6431
11
487.726
21
-11.5835
0
LINE
8
BLACK
6
CONTINUOUS
10
328.861
20
-11.9061
11
328.806
21
-11.9559
0
LINE
8
BLACK
6
CONTINUOUS
10
488.178
20
-12.0527
11
488.12
21
-12.0084
0
LINE
8
BLACK
6
CONTINUOUS
10
329.179
20
-11.5191
11
329.14
21
-11.5796
0
LINE
8
BLACK
6
CONTINUOUS
10
488.237
20
-12.0945
11
488.178
21
-12.0527
0
LINE
8
BLACK
6
CONTINUOUS
10
487.607
20
-11.3838
11
487.573
21
-11.3153
0
LINE
8
BLACK
6
CONTINUOUS
10
325.87
20
-9.456
11
325.91
21
-9.3935
0
LINE
8
BLACK
6
CONTINUOUS
10
487.512
20
-11.1711
11
487.485
21
-11.0965
0
LINE
8
BLACK
6
CONTINUOUS
10
487.908
20
-11.8109
11
487.857
21
-11.7548
0
LINE
8
BLACK
6
CONTINUOUS
10
331.33
20
-43.098
11
331.33
21
-26.2453
0
LINE
8
BLACK
6
CONTINUOUS
10
329.009
20
-11.7514
11
328.962
21
-11.8048
0
LINE
8
BLACK
6
CONTINUOUS
10
317.558
20
-5.418
11
317.558
21
-101.018
0
LINE
8
BLACK
6
CONTINUOUS
10
488.12
20
-12.0084
11
488.065
21
-11.9624
0
LINE
8
BLACK
6
CONTINUOUS
10
487.812
20
-11.6999
11
487.768
21
-11.6431
0
LINE
8
BLACK
6
CONTINUOUS
10
488.065
20
-11.9624
11
488.008
21
-11.9119
0
LINE
8
BLACK
6
CONTINUOUS
10
325.702
20
-9.7961
11
325.73
21
-9.7244
0
LINE
8
BLACK
6
CONTINUOUS
10
325.832
20
-9.5195
11
325.87
21
-9.456
0
LINE
8
BLACK
6
CONTINUOUS
10
328.635
20
-12.0888
11
328.574
21
-12.1292
0
LINE
8
BLACK
6
CONTINUOUS
10
328.512
20
-12.1672
11
328.502
21
-12.1728
0
LINE
8
BLACK
6
CONTINUOUS
10
327.138
20
-8.5729
11
327.225
21
-8.5572
0
LINE
8
BLACK
6
CONTINUOUS
10
329.376
20
-11.104
11
329.349
21
-11.1785
0
LINE
8
BLACK
6
CONTINUOUS
10
328.962
20
-11.8048
11
328.913
21
-11.8561
0
LINE
8
BLACK
6
CONTINUOUS
10
326.427
20
-12.0945
11
326.368
21
-12.0527
0
LINE
8
BLACK
6
CONTINUOUS
10
329.219
20
-11.4531
11
329.179
21
-11.5191
0
LINE
8
BLACK
6
CONTINUOUS
10
326.749
20
-8.6952
11
326.824
21
-8.6645
0
LINE
8
BLACK
6
CONTINUOUS
10
328.913
20
-11.8561
11
328.861
21
-11.9061
0
LINE
8
BLACK
6
CONTINUOUS
10
325.586
20
-10.2893
11
325.597
21
-10.2
0
LINE
8
BLACK
6
CONTINUOUS
10
326.824
20
-8.6645
11
326.9
21
-8.637
0
LINE
8
BLACK
6
CONTINUOUS
10
329.467
20
-10.6794
11
329.456
21
-10.7692
0
LINE
8
BLACK
6
CONTINUOUS
10
326.04
20
-9.2218
11
326.088
21
-9.1681
0
LINE
8
BLACK
6
CONTINUOUS
10
329.422
20
-10.9437
11
329.401
21
-11.0244
0
LINE
8
BLACK
6
CONTINUOUS
10
327.314
20
-8.5455
11
327.407
21
-8.5377
0
LINE
8
BLACK
6
CONTINUOUS
10
325.702
20
-11.1711
11
325.675
21
-11.0965
0
LINE
8
BLACK
6
CONTINUOUS
10
326.418
20
-8.8799
11
326.484
21
-8.8358
0
LINE
8
BLACK
6
CONTINUOUS
10
325.91
20
-9.3935
11
325.952
21
-9.3344
0
LINE
8
BLACK
6
CONTINUOUS
10
326.36
20
-8.9219
11
326.418
21
-8.8799
0
LINE
8
BLACK
6
CONTINUOUS
10
329.456
20
-10.7692
11
329.441
21
-10.858
0
LINE
8
BLACK
6
CONTINUOUS
10
326.188
20
-9.0662
11
326.242
21
-9.0168
0
LINE
8
BLACK
6
CONTINUOUS
10
329.349
20
-11.1785
11
329.32
21
-11.25
0
LINE
8
BLACK
6
CONTINUOUS
10
329.477
20
-10.4841
11
329.474
21
-10.5827
0
LINE
8
BLACK
6
CONTINUOUS
10
326.547
20
-8.7978
11
326.612
21
-8.7616
0
LINE
8
BLACK
6
CONTINUOUS
10
327.055
20
-8.5916
11
327.138
21
-8.5729
0
LINE
8
BLACK
6
CONTINUOUS
10
329.099
20
-11.6383
11
329.054
21
-11.6964
0
LINE
8
BLACK
6
CONTINUOUS
10
325.995
20
-9.2773
11
326.04
21
-9.2218
0
LINE
8
BLACK
6
CONTINUOUS
10
325.796
20
-9.5852
11
325.832
21
-9.5195
0
LINE
8
BLACK
6
CONTINUOUS
10
327.225
20
-8.5572
11
327.314
21
-8.5455
0
LINE
8
BLACK
6
CONTINUOUS
10
325.577
20
-10.4841
11
325.579
21
-10.3861
0
LINE
8
BLACK
6
CONTINUOUS
10
325.612
20
-10.8541
11
325.597
21
-10.7672
0
LINE
8
BLACK
6
CONTINUOUS
10
325.876
20
-11.5224
11
325.834
21
-11.4518
0
LINE
8
BLACK
6
CONTINUOUS
10
326.199
20
-11.9119
11
326.147
21
-11.8621
0
LINE
8
BLACK
6
CONTINUOUS
10
325.952
20
-9.3344
11
325.995
21
-9.2773
0
LINE
8
BLACK
6
CONTINUOUS
10
329.32
20
-11.25
11
329.288
21
-11.3202
0
LINE
8
BLACK
6
CONTINUOUS
10
326.484
20
-8.8358
11
326.547
21
-8.7978
0
LINE
8
BLACK
6
CONTINUOUS
10
329.474
20
-10.5827
11
329.467
21
-10.6794
0
LINE
8
BLACK
6
CONTINUOUS
10
325.652
20
-11.0192
11
325.631
21
-10.9399
0
LINE
8
BLACK
6
CONTINUOUS
10
326.9
20
-8.637
11
326.976
21
-8.613
0
LINE
8
BLACK
6
CONTINUOUS
10
329.401
20
-11.0244
11
329.376
21
-11.104
0
LINE
8
BLACK
6
CONTINUOUS
10
326.976
20
-8.613
11
327.055
21
-8.5916
0
LINE
8
BLACK
6
CONTINUOUS
10
325.916
20
-11.5835
11
325.876
21
-11.5224
0
LINE
8
BLACK
6
CONTINUOUS
10
325.797
20
-11.3838
11
325.763
21
-11.3153
0
LINE
8
BLACK
6
CONTINUOUS
10
326.137
20
-9.1164
11
326.188
21
-9.0662
0
LINE
8
BLACK
6
CONTINUOUS
10
325.959
20
-11.6431
11
325.916
21
-11.5835
0
LINE
8
BLACK
6
CONTINUOUS
10
325.73
20
-9.7244
11
325.762
21
-9.654
0
LINE
8
BLACK
6
CONTINUOUS
10
326.612
20
-8.7616
11
326.679
21
-8.7273
0
LINE
8
BLACK
6
CONTINUOUS
10
328.751
20
-12.0021
11
328.694
21
-12.0461
0
LINE
8
BLACK
6
CONTINUOUS
10
325.612
20
-10.1142
11
325.63
21
-10.0286
0
LINE
8
BLACK
6
CONTINUOUS
10
325.579
20
-10.3861
11
325.586
21
-10.2893
0
LINE
8
BLACK
6
CONTINUOUS
10
325.762
20
-9.654
11
325.796
21
-9.5852
0
LINE
8
BLACK
6
CONTINUOUS
10
328.574
20
-12.1292
11
328.512
21
-12.1672
0
LINE
8
BLACK
6
CONTINUOUS
10
325.675
20
-11.0965
11
325.652
21
-11.0192
0
LINE
8
BLACK
6
CONTINUOUS
10
325.731
20
-11.2446
11
325.702
21
-11.1711
0
LINE
8
BLACK
6
CONTINUOUS
10
329.441
20
-10.858
11
329.422
21
-10.9437
0
LINE
8
BLACK
6
CONTINUOUS
10
329.255
20
-11.3873
11
329.219
21
-11.4531
0
LINE
8
BLACK
6
CONTINUOUS
10
325.63
20
-10.0286
11
325.651
21
-9.9492
0
LINE
8
BLACK
6
CONTINUOUS
10
329.054
20
-11.6964
11
329.009
21
-11.7514
0
LINE
8
BLACK
6
CONTINUOUS
10
326.303
20
-8.9659
11
326.36
21
-8.9219
0
LINE
8
BLACK
6
CONTINUOUS
10
325.579
20
-10.5766
11
325.577
21
-10.4841
0
LINE
8
BLACK
6
CONTINUOUS
10
325.651
20
-9.9492
11
325.675
21
-9.8714
0
LINE
8
BLACK
6
CONTINUOUS
10
328.806
20
-11.9559
11
328.751
21
-12.0021
0
LINE
8
BLACK
6
CONTINUOUS
10
328.501
20
-8.7943
11
328.564
21
-8.8326
0
LINE
8
BLACK
6
CONTINUOUS
10
329.284
20
-9.6367
11
329.315
21
-9.7053
0
LINE
8
BLACK
6
CONTINUOUS
10
325.763
20
-11.3153
11
325.731
21
-11.2446
0
LINE
8
BLACK
6
CONTINUOUS
10
329.419
20
-10.0125
11
329.439
21
-10.0989
0
LINE
8
BLACK
6
CONTINUOUS
10
325.597
20
-10.7672
11
325.586
21
-10.6714
0
LINE
8
BLACK
6
CONTINUOUS
10
479.77
20
-44.702
11
479.768
21
-44.7627
0
LINE
8
BLACK
6
CONTINUOUS
10
327.506
20
-8.5342
11
327.527
21
-8.5341
0
LINE
8
BLACK
6
CONTINUOUS
10
328.744
20
-8.9604
11
328.799
21
-9.006
0
LINE
8
BLACK
6
CONTINUOUS
10
328.365
20
-8.7229
11
328.432
21
-8.7566
0
LINE
8
BLACK
6
CONTINUOUS
10
327.527
20
-8.5341
11
327.625
21
-8.5365
0
LINE
8
BLACK
6
CONTINUOUS
10
329.473
20
-10.3674
11
329.477
21
-10.4667
0
LINE
8
BLACK
6
CONTINUOUS
10
326.002
20
-11.6999
11
325.959
21
-11.6431
0
LINE
8
BLACK
6
CONTINUOUS
10
479.769
20
-44.7637
11
479.769
21
-61.8172
0
LINE
8
BLACK
6
CONTINUOUS
10
327.625
20
-8.5365
11
327.719
21
-8.5435
0
LINE
8
BLACK
6
CONTINUOUS
10
480.005
20
-44.1171
11
479.958
21
-44.1771
0
LINE
8
BLACK
6
CONTINUOUS
10
329.454
20
-10.1856
11
329.466
21
-10.2747
0
LINE
8
BLACK
6
CONTINUOUS
10
328.221
20
-8.6613
11
328.295
21
-8.6911
0
LINE
8
BLACK
6
CONTINUOUS
10
327.719
20
-8.5435
11
327.811
21
-8.5546
0
LINE
8
BLACK
6
CONTINUOUS
10
328.799
20
-9.006
11
328.853
21
-9.054
0
LINE
8
BLACK
6
CONTINUOUS
10
328.628
20
-8.8745
11
328.687
21
-8.9167
0
LINE
8
BLACK
6
CONTINUOUS
10
490.293
20
-24.7127
11
490.194
21
-24.7175
0
LINE
8
BLACK
6
CONTINUOUS
10
326.098
20
-11.8109
11
326.048
21
-11.7548
0
LINE
8
BLACK
6
CONTINUOUS
10
479.796
20
-44.527
11
479.78
21
-44.6112
0
LINE
8
BLACK
6
CONTINUOUS
10
329.25
20
-9.5699
11
329.284
21
-9.6367
0
LINE
8
BLACK
6
CONTINUOUS
10
479.916
20
-44.2393
11
479.879
21
-44.3054
0
LINE
8
BLACK
6
CONTINUOUS
10
327.9
20
-8.5697
11
327.983
21
-8.5876
0
LINE
8
BLACK
6
CONTINUOUS
10
480.16
20
-43.9692
11
480.105
21
-44.0146
0
LINE
8
BLACK
6
CONTINUOUS
10
328.904
20
-9.1037
11
328.955
21
-9.156
0
LINE
8
BLACK
6
CONTINUOUS
10
328.564
20
-8.8326
11
328.628
21
-8.8745
0
LINE
8
BLACK
6
CONTINUOUS
10
329.135
20
-9.3811
11
329.176
21
-9.4423
0
LINE
8
BLACK
6
CONTINUOUS
10
329.002
20
-9.2091
11
329.049
21
-9.2647
0
ARC
8
BLACK
10
483.532
20
-63.8162
40
1
50
-0
51
90
0
LINE
8
BLACK
6
CONTINUOUS
10
479.958
20
-44.1771
11
479.916
21
-44.2393
0
LINE
8
BLACK
6
CONTINUOUS
10
325.586
20
-10.6714
11
325.579
21
-10.5766
0
LINE
8
BLACK
6
CONTINUOUS
10
479.819
20
-44.447
11
479.796
21
-44.527
0
LINE
8
BLACK
6
CONTINUOUS
10
326.147
20
-11.8621
11
326.098
21
-11.8109
0
LINE
8
BLACK
6
CONTINUOUS
10
325.631
20
-10.9399
11
325.612
21
-10.8541
0
LINE
8
BLACK
6
CONTINUOUS
10
329.176
20
-9.4423
11
329.214
21
-9.5052
0
LINE
8
BLACK
6
CONTINUOUS
10
479.879
20
-44.3054
11
479.847
21
-44.3741
0
LINE
8
BLACK
6
CONTINUOUS
10
327.983
20
-8.5876
11
328.063
21
-8.6087
0
LINE
8
BLACK
6
CONTINUOUS
10
325.834
20
-11.4518
11
325.797
21
-11.3838
0
LINE
8
BLACK
6
CONTINUOUS
10
326.368
20
-12.0527
11
326.311
21
-12.0084
0
LINE
8
BLACK
6
CONTINUOUS
10
326.552
20
-12.1728
11
326.488
21
-12.1345
0
LINE
8
BLACK
6
CONTINUOUS
10
326.255
20
-11.9624
11
326.199
21
-11.9119
0
LINE
8
BLACK
6
CONTINUOUS
10
480.499
20
-43.7994
11
480.423
21
-43.824
0
LINE
8
BLACK
6
CONTINUOUS
10
328.146
20
-8.6343
11
328.221
21
-8.6613
0
LINE
8
BLACK
6
CONTINUOUS
10
328.295
20
-8.6911
11
328.365
21
-8.7229
0
LINE
8
BLACK
6
CONTINUOUS
10
480.352
20
-43.8534
11
480.283
21
-43.8881
0
LINE
8
BLACK
6
CONTINUOUS
10
479.847
20
-44.3741
11
479.819
21
-44.447
0
LINE
8
BLACK
6
CONTINUOUS
10
327.407
20
-8.5377
11
327.506
21
-8.5342
0
LINE
8
BLACK
6
CONTINUOUS
10
329.398
20
-9.9333
11
329.419
21
-10.0125
0
LINE
8
BLACK
6
CONTINUOUS
10
328.432
20
-8.7566
11
328.501
21
-8.7943
0
LINE
8
BLACK
6
CONTINUOUS
10
326.048
20
-11.7548
11
326.002
21
-11.6999
0
LINE
8
BLACK
6
CONTINUOUS
10
326.488
20
-12.1345
11
326.427
21
-12.0945
0
LINE
8
BLACK
6
CONTINUOUS
10
327.811
20
-8.5546
11
327.9
21
-8.5697
0
LINE
8
BLACK
6
CONTINUOUS
10
480.219
20
-43.927
11
480.16
21
-43.9692
0
LINE
8
BLACK
6
CONTINUOUS
10
480.105
20
-44.0146
11
480.053
21
-44.0644
0
LINE
8
BLACK
6
CONTINUOUS
10
326.311
20
-12.0084
11
326.255
21
-11.9624
0
LINE
8
BLACK
6
CONTINUOUS
10
328.063
20
-8.6087
11
328.146
21
-8.6343
0
LINE
8
BLACK
6
CONTINUOUS
10
329.345
20
-9.7777
11
329.373
21
-9.8544
0
LINE
8
BLACK
6
CONTINUOUS
10
329.477
20
-10.4667
11
329.477
21
-10.4841
0
LINE
8
BLACK
6
CONTINUOUS
10
329.466
20
-10.2747
11
329.473
21
-10.3674
0
LINE
8
BLACK
6
CONTINUOUS
10
328.687
20
-8.9167
11
328.744
21
-8.9604
0
LINE
8
BLACK
6
CONTINUOUS
10
329.214
20
-9.5052
11
329.25
21
-9.5699
0
LINE
8
BLACK
6
CONTINUOUS
10
489.294
20
-25.7137
11
489.294
21
-42.7647
0
LINE
8
BLACK
6
CONTINUOUS
10
483.715
20
-81.8456
11
483.796
21
-81.8268
0
LINE
8
BLACK
6
CONTINUOUS
10
484.413
20
-81.3313
11
484.447
21
-81.2601
0
LINE
8
BLACK
6
CONTINUOUS
10
489.808
20
-24.8381
11
489.744
21
-24.877
0
LINE
8
BLACK
6
CONTINUOUS
10
490.024
20
-24.7494
11
489.948
21
-24.774
0
LINE
8
BLACK
6
CONTINUOUS
10
480.581
20
-43.7801
11
480.499
21
-43.7994
0
LINE
8
BLACK
6
CONTINUOUS
10
488.776
20
-43.6387
11
488.839
21
-43.6006
0
LINE
8
BLACK
6
CONTINUOUS
10
493.901
20
-24.2456
11
493.938
21
-24.1812
0
LINE
8
BLACK
6
CONTINUOUS
10
489.63
20
-24.9646
11
489.578
21
-25.0144
0
LINE
8
BLACK
6
CONTINUOUS
10
490.194
20
-24.7175
11
490.106
21
-24.7301
0
LINE
8
BLACK
6
CONTINUOUS
10
328.955
20
-9.156
11
329.002
21
-9.2091
0
LINE
8
BLACK
6
CONTINUOUS
10
475.519
20
-81.9882
11
475.455
21
-82.0271
0
LINE
8
BLACK
6
CONTINUOUS
10
493.468
20
-24.6234
11
493.537
21
-24.5887
0
LINE
8
BLACK
6
CONTINUOUS
10
493.815
20
-24.362
11
493.86
21
-24.3056
0
LINE
8
BLACK
6
CONTINUOUS
10
475.588
20
-81.9535
11
475.519
21
-81.9882
0
LINE
8
BLACK
6
CONTINUOUS
10
484.516
20
-81.0267
11
484.527
21
-80.9308
0
LINE
8
BLACK
6
CONTINUOUS
10
480.053
20
-44.0644
11
480.005
21
-44.1171
0
LINE
8
BLACK
6
CONTINUOUS
10
484.242
20
-81.5648
11
484.29
21
-81.5121
0
LINE
8
BLACK
6
CONTINUOUS
10
493.715
20
-24.4634
11
493.767
21
-24.4147
0
LINE
8
BLACK
6
CONTINUOUS
10
475.735
20
-81.8995
11
475.659
21
-81.9241
0
LINE
8
BLACK
6
CONTINUOUS
10
479.78
20
-44.6112
11
479.77
21
-44.702
0
LINE
8
BLACK
6
CONTINUOUS
10
489.948
20
-24.774
11
489.877
21
-24.8034
0
LINE
8
BLACK
6
CONTINUOUS
10
329.093
20
-9.3224
11
329.135
21
-9.3811
0
LINE
8
BLACK
6
CONTINUOUS
10
484.527
20
-80.9308
11
484.529
21
-80.8628
0
LINE
8
BLACK
6
CONTINUOUS
10
483.531
20
-81.8629
11
476.005
21
-81.8629
0
LINE
8
BLACK
6
CONTINUOUS
10
484.499
20
-81.1101
11
484.516
21
-81.0267
0
LINE
8
BLACK
6
CONTINUOUS
10
493.6
20
-24.5506
11
493.659
21
-24.5091
0
LINE
8
BLACK
6
CONTINUOUS
10
489.14
20
-43.2956
11
489.177
21
-43.2312
0
LINE
8
BLACK
6
CONTINUOUS
10
480.423
20
-43.824
11
480.352
21
-43.8534
0
LINE
8
BLACK
6
CONTINUOUS
10
329.315
20
-9.7053
11
329.345
21
-9.7777
0
LINE
8
BLACK
6
CONTINUOUS
10
475.659
20
-81.9241
11
475.588
21
-81.9535
0
LINE
8
BLACK
6
CONTINUOUS
10
490.106
20
-24.7301
11
490.024
21
-24.7494
0
LINE
8
BLACK
6
CONTINUOUS
10
480.768
20
-43.7627
11
480.669
21
-43.7675
0
LINE
8
BLACK
6
CONTINUOUS
10
480.669
20
-43.7675
11
480.581
21
-43.7801
0
LINE
8
BLACK
6
CONTINUOUS
10
484.29
20
-81.5121
11
484.335
21
-81.4557
0
LINE
8
BLACK
6
CONTINUOUS
10
483.943
20
-81.7735
11
484.012
21
-81.7388
0
LINE
8
BLACK
6
CONTINUOUS
10
493.938
20
-24.1812
11
493.972
21
-24.11
0
LINE
8
BLACK
6
CONTINUOUS
10
484.012
20
-81.7388
11
484.075
21
-81.7007
0
LINE
8
BLACK
6
CONTINUOUS
10
484.335
20
-81.4557
11
484.376
21
-81.3957
0
LINE
8
BLACK
6
CONTINUOUS
10
483.796
20
-81.8268
11
483.872
21
-81.8026
0
LINE
8
BLACK
6
CONTINUOUS
10
484.134
20
-81.6592
11
484.19
21
-81.6135
0
LINE
8
BLACK
6
CONTINUOUS
10
494.024
20
-23.96
11
494.041
21
-23.8766
0
LINE
8
BLACK
6
CONTINUOUS
10
484.19
20
-81.6135
11
484.242
21
-81.5648
0
LINE
8
BLACK
6
CONTINUOUS
10
484.376
20
-81.3957
11
484.413
21
-81.3313
0
LINE
8
BLACK
6
CONTINUOUS
10
483.626
20
-81.8582
11
483.715
21
-81.8456
0
LINE
8
BLACK
6
CONTINUOUS
10
483.872
20
-81.8026
11
483.943
21
-81.7735
0
LINE
8
BLACK
6
CONTINUOUS
10
475.905
20
-81.8676
11
475.817
21
-81.8802
0
LINE
8
BLACK
6
CONTINUOUS
10
484.075
20
-81.7007
11
484.134
21
-81.6592
0
LINE
8
BLACK
6
CONTINUOUS
10
489.344
20
-25.397
11
489.321
21
-25.477
0
LINE
8
BLACK
6
CONTINUOUS
10
475.817
20
-81.8802
11
475.735
21
-81.8995
0
LINE
8
BLACK
6
CONTINUOUS
10
489.291
20
-42.8307
11
489.293
21
-42.7627
0
LINE
8
BLACK
6
CONTINUOUS
10
493.397
20
-24.6525
11
493.468
21
-24.6234
0
LINE
8
BLACK
6
CONTINUOUS
10
488.839
20
-43.6006
11
488.898
21
-43.5591
0
LINE
8
BLACK
6
CONTINUOUS
10
329.049
20
-9.2647
11
329.093
21
-9.3224
0
LINE
8
BLACK
6
CONTINUOUS
10
329.439
20
-10.0989
11
329.454
21
-10.1856
0
LINE
8
BLACK
6
CONTINUOUS
10
493.321
20
-24.6767
11
493.397
21
-24.6525
0
LINE
8
BLACK
6
CONTINUOUS
10
329.373
20
-9.8544
11
329.398
21
-9.9333
0
LINE
8
BLACK
6
CONTINUOUS
10
494.057
20
-0.518
11
494.057
21
-23.7147
0
LINE
8
BLACK
6
CONTINUOUS
10
484.475
20
-81.1875
11
484.499
21
-81.1101
0
LINE
8
BLACK
6
CONTINUOUS
10
480.283
20
-43.8881
11
480.219
21
-43.927
0
LINE
8
BLACK
6
CONTINUOUS
10
476.004
20
-81.8628
11
475.905
21
-81.8676
0
LINE
8
BLACK
6
CONTINUOUS
10
328.853
20
-9.054
11
328.904
21
-9.1037
0
LINE
8
BLACK
6
CONTINUOUS
10
484.447
20
-81.2601
11
484.475
21
-81.1875
0
LINE
8
BLACK
6
CONTINUOUS
10
489.321
20
-25.477
11
489.305
21
-25.5612
0
LINE
8
BLACK
6
CONTINUOUS
10
488.954
20
-43.5134
11
489.006
21
-43.4647
0
LINE
8
BLACK
6
CONTINUOUS
10
489.483
20
-25.1271
11
489.441
21
-25.1893
0
LINE
8
BLACK
6
CONTINUOUS
10
489.53
20
-25.0671
11
489.483
21
-25.1271
0
LINE
8
BLACK
6
CONTINUOUS
10
493.24
20
-24.6955
11
493.321
21
-24.6767
0
LINE
8
BLACK
6
CONTINUOUS
10
488.56
20
-43.7267
11
488.636
21
-43.7024
0
LINE
8
BLACK
6
CONTINUOUS
10
493.972
20
-24.11
11
494
21
-24.0374
0
LINE
8
BLACK
6
CONTINUOUS
10
489.295
20
-25.652
11
489.293
21
-25.7127
0
LINE
8
BLACK
6
CONTINUOUS
10
489.441
20
-25.1893
11
489.404
21
-25.2554
0
LINE
8
BLACK
6
CONTINUOUS
10
489.404
20
-25.2554
11
489.372
21
-25.3241
0
LINE
8
BLACK
6
CONTINUOUS
10
489.305
20
-25.5612
11
489.295
21
-25.652
0
LINE
8
BLACK
6
CONTINUOUS
10
475.007
20
-82.8637
11
475.007
21
-105.918
0
LINE
8
BLACK
6
CONTINUOUS
10
489.177
20
-43.2312
11
489.211
21
-43.16
0
LINE
8
BLACK
6
CONTINUOUS
10
489.28
20
-42.9266
11
489.291
21
-42.8307
0
LINE
8
BLACK
6
CONTINUOUS
10
483.529
20
-81.8628
11
483.626
21
-81.8582
0
LINE
8
BLACK
6
CONTINUOUS
10
489.24
20
-43.0874
11
489.263
21
-43.01
0
LINE
8
BLACK
6
CONTINUOUS
10
493.537
20
-24.5887
11
493.6
21
-24.5506
0
LINE
8
BLACK
6
CONTINUOUS
10
488.898
20
-43.5591
11
488.954
21
-43.5134
0
LINE
8
BLACK
6
CONTINUOUS
10
494.052
20
-23.7807
11
494.054
21
-23.7127
0
LINE
8
BLACK
6
CONTINUOUS
10
494
20
-24.0374
11
494.024
21
-23.96
0
LINE
8
BLACK
6
CONTINUOUS
10
493.86
20
-24.3056
11
493.901
21
-24.2456
0
LINE
8
BLACK
6
CONTINUOUS
10
489.372
20
-25.3241
11
489.344
21
-25.397
0
LINE
8
BLACK
6
CONTINUOUS
10
489.685
20
-24.9192
11
489.63
21
-24.9646
0
LINE
8
BLACK
6
CONTINUOUS
10
488.296
20
-43.7629
11
480.77
21
-43.7629
0
LINE
8
BLACK
6
CONTINUOUS
10
489.054
20
-43.412
11
489.099
21
-43.3556
0
LINE
8
BLACK
6
CONTINUOUS
10
488.39
20
-43.7581
11
488.479
21
-43.7455
0
LINE
8
BLACK
6
CONTINUOUS
10
488.707
20
-43.6734
11
488.776
21
-43.6387
0
LINE
8
BLACK
6
CONTINUOUS
10
489.211
20
-43.16
11
489.24
21
-43.0874
0
LINE
8
BLACK
6
CONTINUOUS
10
494.041
20
-23.8766
11
494.052
21
-23.7807
0
LINE
8
BLACK
6
CONTINUOUS
10
489.744
20
-24.877
11
489.685
21
-24.9192
0
LINE
8
BLACK
6
CONTINUOUS
10
489.578
20
-25.0144
11
489.53
21
-25.0671
0
LINE
8
BLACK
6
CONTINUOUS
10
493.151
20
-24.7081
11
493.24
21
-24.6955
0
LINE
8
BLACK
6
CONTINUOUS
10
489.263
20
-43.01
11
489.28
21
-42.9266
0
LINE
8
BLACK
6
CONTINUOUS
10
489.877
20
-24.8034
11
489.808
21
-24.8381
0
LINE
8
BLACK
6
CONTINUOUS
10
489.006
20
-43.4647
11
489.054
21
-43.412
0
LINE
8
BLACK
6
CONTINUOUS
10
493.767
20
-24.4147
11
493.815
21
-24.362
0
LINE
8
BLACK
6
CONTINUOUS
10
488.479
20
-43.7455
11
488.56
21
-43.7267
0
LINE
8
BLACK
6
CONTINUOUS
10
488.293
20
-43.7627
11
488.39
21
-43.7581
0
LINE
8
BLACK
6
CONTINUOUS
10
489.099
20
-43.3556
11
489.14
21
-43.2956
0
LINE
8
BLACK
6
CONTINUOUS
10
493.659
20
-24.5091
11
493.715
21
-24.4634
0
LINE
8
BLACK
6
CONTINUOUS
10
493.054
20
-24.7127
11
493.151
21
-24.7081
0
LINE
8
BLACK
6
CONTINUOUS
10
488.636
20
-43.7024
11
488.707
21
-43.6734
0
LINE
8
BLACK
6
CONTINUOUS
10
493.056
20
-24.7129
11
490.295
21
-24.7129
0
LINE
8
BLACK
6
CONTINUOUS
10
484.532
20
-63.8162
11
484.532
21
-80.8647
0
LINE
8
BLACK
6
CONTINUOUS
10
489.039
20
-8.557
11
489.133
21
-8.5448
0
LINE
8
BLACK
6
CONTINUOUS
10
326.916
20
-12.3361
11
326.842
21
-12.3101
0
LINE
8
BLACK
6
CONTINUOUS
10
326.633
20
-12.217
11
326.561
21
-12.1783
0
LINE
8
BLACK
6
CONTINUOUS
10
327.161
20
-12.3994
11
327.077
21
-12.3816
0
LINE
8
BLACK
6
CONTINUOUS
10
488.057
20
-9.0123
11
488.113
21
-8.966
0
LINE
8
BLACK
6
CONTINUOUS
10
327.636
20
-12.431
11
327.536
21
-12.4341
0
LINE
8
BLACK
6
CONTINUOUS
10
327.821
20
-12.4117
11
327.731
21
-12.4234
0
LINE
8
BLACK
6
CONTINUOUS
10
488.79
20
-8.6124
11
488.869
21
-8.5909
0
LINE
8
BLACK
6
CONTINUOUS
10
490.163
20
-8.7179
11
490.232
21
-8.7515
0
LINE
8
BLACK
6
CONTINUOUS
10
488.713
20
-8.6364
11
488.79
21
-8.6124
0
LINE
8
BLACK
6
CONTINUOUS
10
489.326
20
-8.5341
11
489.43
21
-8.5363
0
LINE
8
BLACK
6
CONTINUOUS
10
488.563
20
-8.6939
11
488.636
21
-8.6643
0
LINE
8
BLACK
6
CONTINUOUS
10
324.609
20
-99.2434
11
324.609
21
-43.098
0
LINE
8
BLACK
6
CONTINUOUS
10
490.232
20
-8.7515
11
490.3
21
-8.7887
0
LINE
8
BLACK
6
CONTINUOUS
10
490.02
20
-8.6577
11
490.093
21
-8.6868
0
LINE
8
BLACK
6
CONTINUOUS
10
488.869
20
-8.5909
11
488.953
21
-8.5722
0
LINE
8
BLACK
6
CONTINUOUS
10
488.169
20
-8.922
11
488.228
21
-8.8797
0
LINE
8
BLACK
6
CONTINUOUS
10
328.437
20
-12.2085
11
328.37
21
-12.2422
0
LINE
8
BLACK
6
CONTINUOUS
10
491.065
20
-11.3873
11
491.029
21
-11.4531
0
LINE
8
BLACK
6
CONTINUOUS
10
327.911
20
-12.3958
11
327.821
21
-12.4117
0
LINE
8
BLACK
6
CONTINUOUS
10
327.343
20
-12.4254
11
327.248
21
-12.4141
0
LINE
8
BLACK
6
CONTINUOUS
10
327.994
20
-12.3774
11
327.911
21
-12.3958
0
LINE
8
BLACK
6
CONTINUOUS
10
490.3
20
-8.7887
11
490.312
21
-8.7953
0
LINE
8
BLACK
6
CONTINUOUS
10
490.989
20
-11.5191
11
490.95
21
-11.5796
0
LINE
8
BLACK
6
CONTINUOUS
10
487.809
20
-9.2718
11
487.855
21
-9.2168
0
LINE
8
BLACK
6
CONTINUOUS
10
487.574
20
-9.6497
11
487.608
21
-9.5826
0
LINE
8
BLACK
6
CONTINUOUS
10
489.868
20
-8.6079
11
489.945
21
-8.6314
0
LINE
8
BLACK
6
CONTINUOUS
10
327.731
20
-12.4234
11
327.636
21
-12.431
0
LINE
8
BLACK
6
CONTINUOUS
10
489.133
20
-8.5448
11
489.227
21
-8.5371
0
LINE
8
BLACK
6
CONTINUOUS
10
491.21
20
-11.0244
11
491.186
21
-11.104
0
LINE
8
BLACK
6
CONTINUOUS
10
328.37
20
-12.2422
11
328.3
21
-12.2742
0
LINE
8
BLACK
6
CONTINUOUS
10
489.945
20
-8.6314
11
490.02
21
-8.6577
0
LINE
8
BLACK
6
CONTINUOUS
10
488.004
20
-9.0604
11
488.057
21
-9.0123
0
LINE
8
BLACK
6
CONTINUOUS
10
324.609
20
-43.098
11
331.33
21
-43.098
0
LINE
8
BLACK
6
CONTINUOUS
10
490.321
20
-12.1672
11
490.312
21
-12.1728
0
LINE
8
BLACK
6
CONTINUOUS
10
490.445
20
-12.0888
11
490.384
21
-12.1292
0
LINE
8
BLACK
6
CONTINUOUS
10
489.786
20
-8.5866
11
489.868
21
-8.6079
0
LINE
8
BLACK
6
CONTINUOUS
10
326.561
20
-12.1783
11
326.552
21
-12.1728
0
LINE
8
BLACK
6
CONTINUOUS
10
491.029
20
-11.4531
11
490.989
21
-11.5191
0
LINE
8
BLACK
6
CONTINUOUS
10
326.996
20
-12.3606
11
326.916
21
-12.3361
0
LINE
8
BLACK
6
CONTINUOUS
10
490.864
20
-11.6964
11
490.819
21
-11.7514
0
LINE
8
BLACK
6
CONTINUOUS
10
488.357
20
-8.7981
11
488.362
21
-8.7953
0
LINE
8
BLACK
6
CONTINUOUS
10
488.494
20
-8.7257
11
488.563
21
-8.6939
0
LINE
8
BLACK
6
CONTINUOUS
10
488.427
20
-8.7594
11
488.494
21
-8.7257
0
LINE
8
BLACK
6
CONTINUOUS
10
488.113
20
-8.966
11
488.169
21
-8.922
0
LINE
8
BLACK
6
CONTINUOUS
10
490.616
20
-11.9559
11
490.561
21
-12.0021
0
LINE
8
BLACK
6
CONTINUOUS
10
488.291
20
-8.838
11
488.357
21
-8.7981
0
LINE
8
BLACK
6
CONTINUOUS
10
327.077
20
-12.3816
11
326.996
21
-12.3606
0
LINE
8
BLACK
6
CONTINUOUS
10
489.526
20
-8.5433
11
489.617
21
-8.5543
0
LINE
8
BLACK
6
CONTINUOUS
10
490.908
20
-11.6383
11
490.864
21
-11.6964
0
LINE
8
BLACK
6
CONTINUOUS
10
328.15
20
-12.3317
11
328.074
21
-12.3557
0
LINE
8
BLACK
6
CONTINUOUS
10
327.437
20
-12.432
11
327.343
21
-12.4254
0
LINE
8
BLACK
6
CONTINUOUS
10
477.648
20
-41.5934
11
477.648
21
-64.8453
0
LINE
8
BLACK
6
CONTINUOUS
10
328.074
20
-12.3557
11
327.994
21
-12.3774
0
LINE
8
BLACK
6
CONTINUOUS
10
488.953
20
-8.5722
11
489.039
21
-8.557
0
LINE
8
BLACK
6
CONTINUOUS
10
489.43
20
-8.5363
11
489.526
21
-8.5433
0
LINE
8
BLACK
6
CONTINUOUS
10
328.226
20
-12.3046
11
328.15
21
-12.3317
0
LINE
8
BLACK
6
CONTINUOUS
10
488.362
20
-8.7953
11
488.427
21
-8.7594
0
LINE
8
BLACK
6
CONTINUOUS
10
489.227
20
-8.5371
11
489.326
21
-8.5341
0
LINE
8
BLACK
6
CONTINUOUS
10
326.842
20
-12.3101
11
326.77
21
-12.2813
0
LINE
8
BLACK
6
CONTINUOUS
10
450.819
20
-7.1953
11
338.472
21
-7.1953
0
LINE
8
BLACK
6
CONTINUOUS
10
488.228
20
-8.8797
11
488.291
21
-8.838
0
LINE
8
BLACK
6
CONTINUOUS
10
327.248
20
-12.4141
11
327.161
21
-12.3994
0
ARC
8
BLACK
10
322.458
20
-101.018
40
4.9
50
180
51
270
0
LINE
8
BLACK
6
CONTINUOUS
10
489.804
20
-12.3774
11
489.721
21
-12.3958
0
LINE
8
BLACK
6
CONTINUOUS
10
491.16
20
-9.7933
11
491.187
21
-9.8679
0
LINE
8
BLACK
6
CONTINUOUS
10
331.33
20
-26.2453
11
338.472
21
-26.2453
0
LINE
8
BLACK
6
CONTINUOUS
10
491.284
20
-10.3809
11
491.287
21
-10.479
0
LINE
8
BLACK
6
CONTINUOUS
10
490.18
20
-12.2422
11
490.11
21
-12.2742
0
LINE
8
BLACK
6
CONTINUOUS
10
490.617
20
-9.0133
11
490.67
21
-9.0607
0
LINE
8
BLACK
6
CONTINUOUS
10
475.007
20
-105.918
11
322.458
21
-105.918
0
LINE
8
BLACK
6
CONTINUOUS
10
490.82
20
-9.2183
11
490.865
21
-9.2733
0
LINE
8
BLACK
6
CONTINUOUS
10
487.173
20
-26.7453
11
485.366
21
-26.7453
0
LINE
8
BLACK
6
CONTINUOUS
10
338.472
20
-26.2453
11
338.472
21
-7.1953
0
LINE
8
BLACK
6
CONTINUOUS
10
491.097
20
-9.6461
11
491.131
21
-9.7218
0
LINE
8
BLACK
6
CONTINUOUS
10
487.173
20
-41.5934
11
477.648
21
-41.5934
0
LINE
8
BLACK
6
CONTINUOUS
10
490.99
20
-9.4507
11
491.028
21
-9.5138
0
LINE
8
BLACK
6
CONTINUOUS
10
490.036
20
-12.3046
11
489.96
21
-12.3317
0
LINE
8
BLACK
6
CONTINUOUS
10
490.498
20
-8.9178
11
490.562
21
-8.9673
0
LINE
8
BLACK
6
CONTINUOUS
10
491.064
20
-9.5791
11
491.097
21
-9.6461
0
LINE
8
BLACK
6
CONTINUOUS
10
489.721
20
-12.3958
11
489.631
21
-12.4117
0
LINE
8
BLACK
6
CONTINUOUS
10
490.67
20
-9.0607
11
490.721
21
-9.1103
0
LINE
8
BLACK
6
CONTINUOUS
10
482.41
20
-79.6934
11
472.885
21
-79.6934
0
LINE
8
BLACK
6
CONTINUOUS
10
490.247
20
-12.2085
11
490.18
21
-12.2422
0
LINE
8
BLACK
6
CONTINUOUS
10
472.885
20
-79.6934
11
472.885
21
-99.2434
0
LINE
8
BLACK
6
CONTINUOUS
10
485.366
20
-26.7453
11
485.366
21
-5.41814
0
LINE
8
BLACK
6
CONTINUOUS
10
491.265
20
-10.197
11
491.277
21
-10.2867
0
LINE
8
BLACK
6
CONTINUOUS
10
472.885
20
-99.2434
11
324.609
21
-99.2434
0
LINE
8
BLACK
6
CONTINUOUS
10
490.865
20
-9.2733
11
490.909
21
-9.3303
0
LINE
8
BLACK
6
CONTINUOUS
10
490.95
20
-9.3896
11
490.99
21
-9.4507
0
LINE
8
BLACK
6
CONTINUOUS
10
491.131
20
-9.7218
11
491.16
21
-9.7933
0
LINE
8
BLACK
6
CONTINUOUS
10
482.41
20
-64.8453
11
482.41
21
-79.6934
0
LINE
8
BLACK
6
CONTINUOUS
10
491.287
20
-10.479
11
491.287
21
-10.4841
0
LINE
8
BLACK
6
CONTINUOUS
10
485.366
20
-5.41814
11
450.819
21
-5.41814
0
LINE
8
BLACK
6
CONTINUOUS
10
491.028
20
-9.5138
11
491.064
21
-9.5791
0
LINE
8
BLACK
6
CONTINUOUS
10
477.648
20
-64.8453
11
482.41
21
-64.8453
0
LINE
8
BLACK
6
CONTINUOUS
10
490.721
20
-9.1103
11
490.773
21
-9.1649
0
LINE
8
BLACK
6
CONTINUOUS
10
490.773
20
-9.1649
11
490.82
21
-9.2183
0
LINE
8
BLACK
6
CONTINUOUS
10
491.211
20
-9.9456
11
491.232
21
-10.0264
0
LINE
8
BLACK
6
CONTINUOUS
10
491.251
20
-10.1104
11
491.265
21
-10.197
0
LINE
8
BLACK
6
CONTINUOUS
10
489.96
20
-12.3317
11
489.884
21
-12.3557
0
LINE
8
BLACK
6
CONTINUOUS
10
490.312
20
-12.1728
11
490.247
21
-12.2085
0
LINE
8
BLACK
6
CONTINUOUS
10
490.771
20
-11.8048
11
490.722
21
-11.8561
0
LINE
8
BLACK
6
CONTINUOUS
10
487.486
20
-9.8703
11
487.512
21
-9.7959
0
LINE
8
BLACK
6
CONTINUOUS
10
487.441
20
-10.0269
11
487.462
21
-9.9475
0
LINE
8
BLACK
6
CONTINUOUS
10
487.387
20
-10.4841
11
487.389
21
-10.386
0
LINE
8
BLACK
6
CONTINUOUS
10
491.232
20
-10.0264
11
491.251
21
-10.1104
0
LINE
8
BLACK
6
CONTINUOUS
10
490.377
20
-8.8348
11
490.438
21
-8.8748
0
LINE
8
BLACK
6
CONTINUOUS
10
489.345
20
-12.4341
11
489.247
21
-12.432
0
LINE
8
BLACK
6
CONTINUOUS
10
491.287
20
-10.4841
11
491.284
21
-10.5827
0
LINE
8
BLACK
6
CONTINUOUS
10
487.541
20
-9.7236
11
487.574
21
-9.6497
0
LINE
8
BLACK
6
CONTINUOUS
10
491.232
20
-10.9437
11
491.21
21
-11.0244
0
LINE
8
BLACK
6
CONTINUOUS
10
487.512
20
-9.7959
11
487.541
21
-9.7236
0
LINE
8
BLACK
6
CONTINUOUS
10
487.855
20
-9.2168
11
487.902
21
-9.1634
0
LINE
8
BLACK
6
CONTINUOUS
10
487.389
20
-10.386
11
487.396
21
-10.2887
0
LINE
8
BLACK
6
CONTINUOUS
10
487.765
20
-9.3299
11
487.809
21
-9.2718
0
LINE
8
BLACK
6
CONTINUOUS
10
490.504
20
-12.0461
11
490.445
21
-12.0888
0
LINE
8
BLACK
6
CONTINUOUS
10
488.58
20
-12.2813
11
488.51
21
-12.2502
0
LINE
8
BLACK
6
CONTINUOUS
10
488.97
20
-12.3994
11
488.887
21
-12.3816
0
LINE
8
BLACK
6
CONTINUOUS
10
490.438
20
-8.8748
11
490.498
21
-8.9178
0
LINE
8
BLACK
6
CONTINUOUS
10
491.186
20
-11.104
11
491.159
21
-11.1785
0
LINE
8
BLACK
6
CONTINUOUS
10
490.384
20
-12.1292
11
490.321
21
-12.1672
0
LINE
8
BLACK
6
CONTINUOUS
10
489.446
20
-12.431
11
489.345
21
-12.4341
0
LINE
8
BLACK
6
CONTINUOUS
10
487.423
20
-10.1102
11
487.441
21
-10.0269
0
LINE
8
BLACK
6
CONTINUOUS
10
491.187
20
-9.8679
11
491.211
21
-9.9456
0
LINE
8
BLACK
6
CONTINUOUS
10
490.909
20
-9.3303
11
490.95
21
-9.3896
0
LINE
8
BLACK
6
CONTINUOUS
10
489.247
20
-12.432
11
489.153
21
-12.4254
0
LINE
8
BLACK
6
CONTINUOUS
10
491.25
20
-10.858
11
491.232
21
-10.9437
0
LINE
8
BLACK
6
CONTINUOUS
10
491.159
20
-11.1785
11
491.13
21
-11.25
0
LINE
8
BLACK
6
CONTINUOUS
10
487.953
20
-9.1103
11
488.004
21
-9.0604
0
LINE
8
BLACK
6
CONTINUOUS
10
487.462
20
-9.9475
11
487.486
21
-9.8703
0
LINE
8
BLACK
6
CONTINUOUS
10
488.726
20
-12.3361
11
488.652
21
-12.3101
0
LINE
8
BLACK
6
CONTINUOUS
10
491.277
20
-10.6794
11
491.266
21
-10.7692
0
LINE
8
BLACK
6
CONTINUOUS
10
488.652
20
-12.3101
11
488.58
21
-12.2813
0
LINE
8
BLACK
6
CONTINUOUS
10
490.722
20
-11.8561
11
490.671
21
-11.9061
0
LINE
8
BLACK
6
CONTINUOUS
10
488.442
20
-12.217
11
488.371
21
-12.1783
0
LINE
8
BLACK
6
CONTINUOUS
10
491.266
20
-10.7692
11
491.25
21
-10.858
0
LINE
8
BLACK
6
CONTINUOUS
10
487.608
20
-9.5826
11
487.643
21
-9.5172
0
LINE
8
BLACK
6
CONTINUOUS
10
487.723
20
-9.3896
11
487.765
21
-9.3299
0
LINE
8
BLACK
6
CONTINUOUS
10
490.819
20
-11.7514
11
490.771
21
-11.8048
0
LINE
8
BLACK
6
CONTINUOUS
10
489.058
20
-12.4141
11
488.97
21
-12.3994
0
LINE
8
BLACK
6
CONTINUOUS
10
489.541
20
-12.4234
11
489.446
21
-12.431
0
LINE
8
BLACK
6
CONTINUOUS
10
488.371
20
-12.1783
11
488.362
21
-12.1728
0
LINE
8
BLACK
6
CONTINUOUS
10
491.098
20
-11.3202
11
491.065
21
-11.3873
0
LINE
8
BLACK
6
CONTINUOUS
10
491.284
20
-10.5827
11
491.277
21
-10.6794
0
LINE
8
BLACK
6
CONTINUOUS
10
490.95
20
-11.5796
11
490.908
21
-11.6383
0
LINE
8
BLACK
6
CONTINUOUS
10
487.643
20
-9.5172
11
487.683
21
-9.4514
0
LINE
8
BLACK
6
CONTINUOUS
10
488.887
20
-12.3816
11
488.806
21
-12.3606
0
LINE
8
BLACK
6
CONTINUOUS
10
487.408
20
-10.1989
11
487.423
21
-10.1102
0
LINE
8
BLACK
6
CONTINUOUS
10
491.13
20
-11.25
11
491.098
21
-11.3202
0
LINE
8
BLACK
6
CONTINUOUS
10
487.396
20
-10.2887
11
487.408
21
-10.1989
0
LINE
8
BLACK
6
CONTINUOUS
10
488.51
20
-12.2502
11
488.442
21
-12.217
0
LINE
8
BLACK
6
CONTINUOUS
10
487.902
20
-9.1634
11
487.953
21
-9.1103
0
LINE
8
BLACK
6
CONTINUOUS
10
489.153
20
-12.4254
11
489.058
21
-12.4141
0
LINE
8
BLACK
6
CONTINUOUS
10
490.561
20
-12.0021
11
490.504
21
-12.0461
0
LINE
8
BLACK
6
CONTINUOUS
10
488.806
20
-12.3606
11
488.726
21
-12.3361
0
LINE
8
BLACK
6
CONTINUOUS
10
487.683
20
-9.4514
11
487.723
21
-9.3896
0
LINE
8
BLACK
6
CONTINUOUS
10
490.562
20
-8.9673
11
490.617
21
-9.0133
0
LINE
8
BLACK
6
CONTINUOUS
10
491.277
20
-10.2867
11
491.284
21
-10.3809
0
LINE
8
BLACK
6
CONTINUOUS
10
489.631
20
-12.4117
11
489.541
21
-12.4234
0
LINE
8
BLACK
6
CONTINUOUS
10
490.671
20
-11.9061
11
490.616
21
-11.9559
0
LINE
8
BLACK
6
CONTINUOUS
10
490.11
20
-12.2742
11
490.036
21
-12.3046
0
LINE
8
BLACK
6
CONTINUOUS
10
490.312
20
-8.7953
11
490.377
21
-8.8348
0
LINE
8
BLACK
6
CONTINUOUS
10
450.819
20
-7.1953
11
450.819
21
-5.41814
0
LINE
8
BLACK
6
CONTINUOUS
10
489.884
20
-12.3557
11
489.804
21
-12.3774
0
LINE
8
BLACK
6
CONTINUOUS
10
475.152
20
-82.3394
11
475.115
21
-82.4055
0
LINE
8
BLACK
6
CONTINUOUS
10
479.933
20
-62.3649
11
479.975
21
-62.4249
0
LINE
8
BLACK
6
CONTINUOUS
10
479.894
20
-62.3007
11
479.933
21
-62.3649
0
LINE
8
BLACK
6
CONTINUOUS
10
479.975
20
-62.4249
11
480.022
21
-62.4806
0
LINE
8
BLACK
6
CONTINUOUS
10
475.032
20
-82.6271
11
475.016
21
-82.7113
0
LINE
8
BLACK
6
CONTINUOUS
10
479.86
20
-62.2343
11
479.894
21
-62.3007
0
LINE
8
BLACK
6
CONTINUOUS
10
479.773
20
-61.9122
11
479.786
21
-62.0025
0
LINE
8
BLACK
6
CONTINUOUS
10
475.455
20
-82.0271
11
475.396
21
-82.0693
0
LINE
8
BLACK
6
CONTINUOUS
10
475.341
20
-82.1147
11
475.289
21
-82.1645
0
LINE
8
BLACK
6
CONTINUOUS
10
480.124
20
-62.5799
11
480.181
21
-62.6245
0
LINE
8
BLACK
6
CONTINUOUS
10
480.77
20
-62.8162
11
483.532
21
-62.8162
0
LINE
8
BLACK
6
CONTINUOUS
10
475.241
20
-82.2172
11
475.194
21
-82.2772
0
LINE
8
BLACK
6
CONTINUOUS
10
479.805
20
-62.084
11
479.83
21
-62.1615
0
LINE
8
BLACK
6
CONTINUOUS
10
475.016
20
-82.7113
11
475.006
21
-82.8021
0
LINE
8
BLACK
6
CONTINUOUS
10
475.055
20
-82.5471
11
475.032
21
-82.6271
0
LINE
8
BLACK
6
CONTINUOUS
10
475.083
20
-82.4742
11
475.055
21
-82.5471
0
LINE
8
BLACK
6
CONTINUOUS
10
475.396
20
-82.0693
11
475.341
21
-82.1147
0
LINE
8
BLACK
6
CONTINUOUS
10
475.289
20
-82.1645
11
475.241
21
-82.2172
0
LINE
8
BLACK
6
CONTINUOUS
10
480.242
20
-62.6656
11
480.306
21
-62.7022
0
LINE
8
BLACK
6
CONTINUOUS
10
479.786
20
-62.0025
11
479.805
21
-62.084
0
LINE
8
BLACK
6
CONTINUOUS
10
480.181
20
-62.6245
11
480.242
21
-62.6656
0
LINE
8
BLACK
6
CONTINUOUS
10
475.115
20
-82.4055
11
475.083
21
-82.4742
0
LINE
8
BLACK
6
CONTINUOUS
10
479.83
20
-62.1615
11
479.86
21
-62.2343
0
LINE
8
BLACK
6
CONTINUOUS
10
480.071
20
-62.5318
11
480.124
21
-62.5799
0
LINE
8
BLACK
6
CONTINUOUS
10
475.006
20
-82.8021
11
475.004
21
-82.8628
0
LINE
8
BLACK
6
CONTINUOUS
10
475.194
20
-82.2772
11
475.152
21
-82.3394
0
LINE
8
BLACK
6
CONTINUOUS
10
480.022
20
-62.4806
11
480.071
21
-62.5318
0
LINE
8
BLACK
6
CONTINUOUS
10
480.448
20
-62.7632
11
480.528
21
-62.7865
0
LINE
8
BLACK
6
CONTINUOUS
10
480.528
20
-62.7865
11
480.612
21
-62.8033
0
LINE
8
BLACK
6
CONTINUOUS
10
480.306
20
-62.7022
11
480.374
21
-62.7346
0
LINE
8
BLACK
6
CONTINUOUS
10
479.768
20
-61.8155
11
479.773
21
-61.9122
0
LINE
8
BLACK
6
CONTINUOUS
10
480.374
20
-62.7346
11
480.448
21
-62.7632
0
LINE
8
BLACK
6
CONTINUOUS
10
480.612
20
-62.8033
11
480.703
21
-62.8134
0
LINE
8
BLACK
6
CONTINUOUS
10
480.703
20
-62.8134
11
480.768
21
-62.8155
0
LINE
8
BLACK
6
CONTINUOUS
10
594.035
20
-7.18262
11
594.035
21
-155.883
0
LINE
8
BLACK
6
CONTINUOUS
10
539.239
20
-153.149
11
539.319
21
-153.172
0
LINE
8
BLACK
6
CONTINUOUS
10
539.319
20
-153.172
11
539.403
21
-153.188
0
LINE
8
BLACK
6
CONTINUOUS
10
539.556
20
-153.199
11
556.609
21
-153.199
0
LINE
8
BLACK
6
CONTINUOUS
10
538.909
20
-152.963
11
538.969
21
-153.01
0
LINE
8
BLACK
6
CONTINUOUS
10
538.591
20
-152.469
11
538.616
21
-152.545
0
LINE
8
BLACK
6
CONTINUOUS
10
538.969
20
-153.01
11
539.031
21
-153.052
0
LINE
8
BLACK
6
CONTINUOUS
10
538.719
20
-152.749
11
538.761
21
-152.808
0
LINE
8
BLACK
6
CONTINUOUS
10
539.031
20
-153.052
11
539.097
21
-153.089
0
LINE
8
BLACK
6
CONTINUOUS
10
539.166
20
-153.121
11
539.239
21
-153.149
0
LINE
8
BLACK
6
CONTINUOUS
10
539.097
20
-153.089
11
539.166
21
-153.121
0
LINE
8
BLACK
6
CONTINUOUS
10
539.494
20
-153.198
11
539.555
21
-153.2
0
LINE
8
BLACK
6
CONTINUOUS
10
600.71
20
-5.408
11
600.71
21
-157.961
0
ARC
8
BLACK
10
558.608
20
-149.436
40
1
50
90
51
180
0
LINE
8
BLACK
6
CONTINUOUS
10
538.761
20
-152.808
11
538.807
21
-152.863
0
LINE
8
BLACK
6
CONTINUOUS
10
538.807
20
-152.863
11
538.856
21
-152.915
0
LINE
8
BLACK
6
CONTINUOUS
10
519.505
20
-142.675
11
519.51
21
-142.774
0
LINE
8
BLACK
6
CONTINUOUS
10
538.645
20
-152.616
11
538.68
21
-152.685
0
LINE
8
BLACK
6
CONTINUOUS
10
538.68
20
-152.685
11
538.719
21
-152.749
0
LINE
8
BLACK
6
CONTINUOUS
10
538.856
20
-152.915
11
538.909
21
-152.963
0
LINE
8
BLACK
6
CONTINUOUS
10
539.403
20
-153.188
11
539.494
21
-153.198
0
LINE
8
BLACK
6
CONTINUOUS
10
538.616
20
-152.545
11
538.645
21
-152.616
0
LINE
8
BLACK
6
CONTINUOUS
10
538.555
20
-152.2
11
538.559
21
-152.299
0
LINE
8
BLACK
6
CONTINUOUS
10
538.572
20
-152.387
11
538.591
21
-152.469
0
LINE
8
BLACK
6
CONTINUOUS
10
576.655
20
-149.437
11
576.655
21
-156.963
0
LINE
8
BLACK
6
CONTINUOUS
10
538.559
20
-152.299
11
538.572
21
-152.387
0
LINE
8
BLACK
6
CONTINUOUS
10
576.405
20
-148.778
11
576.357
21
-148.726
0
LINE
8
BLACK
6
CONTINUOUS
10
576.357
20
-148.726
11
576.304
21
-148.678
0
LINE
8
BLACK
6
CONTINUOUS
10
576.248
20
-148.633
11
576.188
21
-148.592
0
LINE
8
BLACK
6
CONTINUOUS
10
576.745
20
-157.38
11
576.78
21
-157.449
0
LINE
8
BLACK
6
CONTINUOUS
10
576.188
20
-148.592
11
576.123
21
-148.555
0
LINE
8
BLACK
6
CONTINUOUS
10
575.98
20
-148.493
11
575.902
21
-148.469
0
LINE
8
BLACK
6
CONTINUOUS
10
575.902
20
-148.469
11
575.819
21
-148.452
0
LINE
8
BLACK
6
CONTINUOUS
10
576.692
20
-157.233
11
576.716
21
-157.309
0
LINE
8
BLACK
6
CONTINUOUS
10
576.716
20
-157.309
11
576.745
21
-157.38
0
LINE
8
BLACK
6
CONTINUOUS
10
576.78
20
-157.449
11
576.819
21
-157.513
0
LINE
8
BLACK
6
CONTINUOUS
10
495.31
20
-138.911
11
518.507
21
-138.911
0
LINE
8
BLACK
6
CONTINUOUS
10
576.123
20
-148.555
11
576.052
21
-148.521
0
LINE
8
BLACK
6
CONTINUOUS
10
575.819
20
-148.452
11
575.723
21
-148.441
0
LINE
8
BLACK
6
CONTINUOUS
10
576.65
20
-149.342
11
576.638
21
-149.253
0
LINE
8
BLACK
6
CONTINUOUS
10
576.304
20
-148.678
11
576.248
21
-148.633
0
LINE
8
BLACK
6
CONTINUOUS
10
576.638
20
-149.253
11
576.619
21
-149.172
0
LINE
8
BLACK
6
CONTINUOUS
10
576.052
20
-148.521
11
575.98
21
-148.493
0
LINE
8
BLACK
6
CONTINUOUS
10
576.655
20
-156.964
11
576.66
21
-157.063
0
LINE
8
BLACK
6
CONTINUOUS
10
576.619
20
-149.172
11
576.595
21
-149.096
0
LINE
8
BLACK
6
CONTINUOUS
10
576.595
20
-149.096
11
576.565
21
-149.025
0
LINE
8
BLACK
6
CONTINUOUS
10
576.565
20
-149.025
11
576.531
21
-148.956
0
LINE
8
BLACK
6
CONTINUOUS
10
576.66
20
-157.063
11
576.672
21
-157.151
0
LINE
8
BLACK
6
CONTINUOUS
10
576.451
20
-148.834
11
576.405
21
-148.778
0
LINE
8
BLACK
6
CONTINUOUS
10
575.723
20
-148.441
11
575.655
21
-148.439
0
LINE
8
BLACK
6
CONTINUOUS
10
576.531
20
-148.956
11
576.493
21
-148.893
0
LINE
8
BLACK
6
CONTINUOUS
10
576.493
20
-148.893
11
576.451
21
-148.834
0
LINE
8
BLACK
6
CONTINUOUS
10
576.672
20
-157.151
11
576.692
21
-157.233
0
LINE
8
BLACK
6
CONTINUOUS
10
520.506
20
-143.674
11
537.557
21
-143.674
0
LINE
8
BLACK
6
CONTINUOUS
10
537.623
20
-143.677
11
537.555
21
-143.675
0
LINE
8
BLACK
6
CONTINUOUS
10
519.415
20
-139.5
11
519.381
21
-139.431
0
LINE
8
BLACK
6
CONTINUOUS
10
519.154
20
-139.153
11
519.098
21
-139.108
0
LINE
8
BLACK
6
CONTINUOUS
10
519.038
20
-139.067
11
518.973
21
-139.03
0
LINE
8
BLACK
6
CONTINUOUS
10
518.973
20
-139.03
11
518.902
21
-138.996
0
LINE
8
BLACK
6
CONTINUOUS
10
518.752
20
-138.944
11
518.669
21
-138.927
0
LINE
8
BLACK
6
CONTINUOUS
10
519.469
20
-139.647
11
519.444
21
-139.571
0
LINE
8
BLACK
6
CONTINUOUS
10
519.255
20
-139.253
11
519.207
21
-139.201
0
LINE
8
BLACK
6
CONTINUOUS
10
519.757
20
-143.338
11
519.806
21
-143.39
0
LINE
8
BLACK
6
CONTINUOUS
10
519.444
20
-139.571
11
519.415
21
-139.5
0
LINE
8
BLACK
6
CONTINUOUS
10
519.566
20
-143.02
11
519.595
21
-143.091
0
LINE
8
BLACK
6
CONTINUOUS
10
519.343
20
-139.368
11
519.301
21
-139.309
0
LINE
8
BLACK
6
CONTINUOUS
10
519.51
20
-142.774
11
519.522
21
-142.862
0
LINE
8
BLACK
6
CONTINUOUS
10
520.189
20
-143.624
11
520.269
21
-143.647
0
LINE
8
BLACK
6
CONTINUOUS
10
538.431
20
-144.192
11
538.393
21
-144.129
0
LINE
8
BLACK
6
CONTINUOUS
10
538.088
20
-143.828
11
538.023
21
-143.791
0
LINE
8
BLACK
6
CONTINUOUS
10
519.522
20
-142.862
11
519.541
21
-142.944
0
LINE
8
BLACK
6
CONTINUOUS
10
519.541
20
-142.944
11
519.566
21
-143.02
0
LINE
8
BLACK
6
CONTINUOUS
10
519.63
20
-143.16
11
519.669
21
-143.224
0
LINE
8
BLACK
6
CONTINUOUS
10
538.393
20
-144.129
11
538.351
21
-144.07
0
LINE
8
BLACK
6
CONTINUOUS
10
519.505
20
-139.914
11
519.5
21
-139.817
0
LINE
8
BLACK
6
CONTINUOUS
10
519.505
20
-139.912
11
519.505
21
-142.673
0
LINE
8
BLACK
6
CONTINUOUS
10
558.608
20
-148.436
11
575.657
21
-148.436
0
LINE
8
BLACK
6
CONTINUOUS
10
520.269
20
-143.647
11
520.353
21
-143.663
0
LINE
8
BLACK
6
CONTINUOUS
10
519.859
20
-143.438
11
519.919
21
-143.485
0
LINE
8
BLACK
6
CONTINUOUS
10
538.519
20
-144.408
11
538.494
21
-144.332
0
LINE
8
BLACK
6
CONTINUOUS
10
519.301
20
-139.309
11
519.255
21
-139.253
0
LINE
8
BLACK
6
CONTINUOUS
10
538.55
20
-144.578
11
538.538
21
-144.489
0
LINE
8
BLACK
6
CONTINUOUS
10
518.902
20
-138.996
11
518.829
21
-138.968
0
LINE
8
BLACK
6
CONTINUOUS
10
519.981
20
-143.527
11
520.047
21
-143.564
0
LINE
8
BLACK
6
CONTINUOUS
10
537.879
20
-143.728
11
537.802
21
-143.705
0
LINE
8
BLACK
6
CONTINUOUS
10
519.487
20
-139.728
11
519.469
21
-139.647
0
LINE
8
BLACK
6
CONTINUOUS
10
538.465
20
-144.261
11
538.431
21
-144.192
0
LINE
8
BLACK
6
CONTINUOUS
10
538.494
20
-144.332
11
538.465
21
-144.261
0
LINE
8
BLACK
6
CONTINUOUS
10
537.952
20
-143.757
11
537.879
21
-143.728
0
LINE
8
BLACK
6
CONTINUOUS
10
519.381
20
-139.431
11
519.343
21
-139.368
0
LINE
8
BLACK
6
CONTINUOUS
10
518.829
20
-138.968
11
518.752
21
-138.944
0
LINE
8
BLACK
6
CONTINUOUS
10
519.919
20
-143.485
11
519.981
21
-143.527
0
LINE
8
BLACK
6
CONTINUOUS
10
518.669
20
-138.927
11
518.573
21
-138.916
0
LINE
8
BLACK
6
CONTINUOUS
10
538.351
20
-144.07
11
538.305
21
-144.014
0
LINE
8
BLACK
6
CONTINUOUS
10
519.098
20
-139.108
11
519.038
21
-139.067
0
LINE
8
BLACK
6
CONTINUOUS
10
519.595
20
-143.091
11
519.63
21
-143.16
0
LINE
8
BLACK
6
CONTINUOUS
10
519.669
20
-143.224
11
519.711
21
-143.283
0
LINE
8
BLACK
6
CONTINUOUS
10
519.711
20
-143.283
11
519.757
21
-143.338
0
LINE
8
BLACK
6
CONTINUOUS
10
519.806
20
-143.39
11
519.859
21
-143.438
0
LINE
8
BLACK
6
CONTINUOUS
10
520.047
20
-143.564
11
520.116
21
-143.596
0
LINE
8
BLACK
6
CONTINUOUS
10
520.116
20
-143.596
11
520.189
21
-143.624
0
LINE
8
BLACK
6
CONTINUOUS
10
520.353
20
-143.663
11
520.444
21
-143.673
0
LINE
8
BLACK
6
CONTINUOUS
10
520.444
20
-143.673
11
520.505
21
-143.675
0
LINE
8
BLACK
6
CONTINUOUS
10
538.204
20
-143.914
11
538.148
21
-143.869
0
LINE
8
BLACK
6
CONTINUOUS
10
577.656
20
-157.961
11
600.71
21
-157.961
0
LINE
8
BLACK
6
CONTINUOUS
10
538.148
20
-143.869
11
538.088
21
-143.828
0
LINE
8
BLACK
6
CONTINUOUS
10
538.023
20
-143.791
11
537.952
21
-143.757
0
LINE
8
BLACK
6
CONTINUOUS
10
518.573
20
-138.916
11
518.505
21
-138.914
0
LINE
8
BLACK
6
CONTINUOUS
10
538.555
20
-144.672
11
538.555
21
-152.198
0
LINE
8
BLACK
6
CONTINUOUS
10
538.538
20
-144.489
11
538.519
21
-144.408
0
LINE
8
BLACK
6
CONTINUOUS
10
576.655
20
-149.439
11
576.65
21
-149.342
0
LINE
8
BLACK
6
CONTINUOUS
10
538.305
20
-144.014
11
538.257
21
-143.962
0
LINE
8
BLACK
6
CONTINUOUS
10
519.207
20
-139.201
11
519.154
21
-139.153
0
LINE
8
BLACK
6
CONTINUOUS
10
538.555
20
-144.675
11
538.55
21
-144.578
0
LINE
8
BLACK
6
CONTINUOUS
10
538.257
20
-143.962
11
538.204
21
-143.914
0
LINE
8
BLACK
6
CONTINUOUS
10
537.802
20
-143.705
11
537.719
21
-143.688
0
LINE
8
BLACK
6
CONTINUOUS
10
519.5
20
-139.817
11
519.487
21
-139.728
0
LINE
8
BLACK
6
CONTINUOUS
10
537.719
20
-143.688
11
537.623
21
-143.677
0
LINE
8
BLACK
6
CONTINUOUS
10
507.191
20
-133.908
11
507.174
21
-133.991
0
LINE
8
BLACK
6
CONTINUOUS
10
506.794
20
-132.317
11
506.838
21
-132.374
0
LINE
8
BLACK
6
CONTINUOUS
10
506.881
20
-132.433
11
506.921
21
-132.494
0
LINE
8
BLACK
6
CONTINUOUS
10
506.838
20
-132.374
11
506.881
21
-132.433
0
LINE
8
BLACK
6
CONTINUOUS
10
507.174
20
-133.991
11
507.153
21
-134.072
0
LINE
8
BLACK
6
CONTINUOUS
10
506.965
20
-132.566
11
507
21
-132.631
0
LINE
8
BLACK
6
CONTINUOUS
10
507.226
20
-133.532
11
507.224
21
-133.631
0
LINE
8
BLACK
6
CONTINUOUS
10
507.206
20
-133.82
11
507.191
21
-133.908
0
LINE
8
BLACK
6
CONTINUOUS
10
507
20
-132.631
11
507.034
21
-132.698
0
LINE
8
BLACK
6
CONTINUOUS
10
507.097
20
-132.842
11
507.124
21
-132.918
0
LINE
8
BLACK
6
CONTINUOUS
10
507.188
20
-133.157
11
507.204
21
-133.247
0
LINE
8
BLACK
6
CONTINUOUS
10
507.223
20
-133.432
11
507.226
21
-133.532
0
LINE
8
BLACK
6
CONTINUOUS
10
507.066
20
-132.768
11
507.097
21
-132.842
0
LINE
8
BLACK
6
CONTINUOUS
10
507.217
20
-133.725
11
507.206
21
-133.82
0
LINE
8
BLACK
6
CONTINUOUS
10
507.148
20
-132.994
11
507.169
21
-133.074
0
LINE
8
BLACK
6
CONTINUOUS
10
506.921
20
-132.494
11
506.959
21
-132.557
0
LINE
8
BLACK
6
CONTINUOUS
10
507.034
20
-132.698
11
507.066
21
-132.768
0
LINE
8
BLACK
6
CONTINUOUS
10
507.204
20
-133.247
11
507.215
21
-133.337
0
LINE
8
BLACK
6
CONTINUOUS
10
507.215
20
-133.337
11
507.223
21
-133.432
0
LINE
8
BLACK
6
CONTINUOUS
10
506.959
20
-132.557
11
506.965
21
-132.566
0
LINE
8
BLACK
6
CONTINUOUS
10
507.124
20
-132.918
11
507.148
21
-132.994
0
LINE
8
BLACK
6
CONTINUOUS
10
507.169
20
-133.074
11
507.188
21
-133.157
0
LINE
8
BLACK
6
CONTINUOUS
10
507.224
20
-133.631
11
507.217
21
-133.725
0
LINE
8
BLACK
6
CONTINUOUS
10
507.073
20
-134.298
11
507.042
21
-134.368
0
LINE
8
BLACK
6
CONTINUOUS
10
521.537
20
-141.596
11
540.587
21
-141.596
0
LINE
8
BLACK
6
CONTINUOUS
10
500.21
20
-96.0589
11
500.21
21
-129.959
0
LINE
8
BLACK
6
CONTINUOUS
10
501.987
20
-21.4701
11
501.987
21
-96.0589
0
LINE
8
BLACK
6
CONTINUOUS
10
578.687
20
-146.358
11
578.687
21
-155.883
0
LINE
8
BLACK
6
CONTINUOUS
10
501.987
20
-21.4701
11
521.037
21
-21.4701
0
LINE
8
BLACK
6
CONTINUOUS
10
507.153
20
-134.072
11
507.128
21
-134.152
0
LINE
8
BLACK
6
CONTINUOUS
10
555.435
20
-151.121
11
555.435
21
-146.358
0
LINE
8
BLACK
6
CONTINUOUS
10
507.042
20
-134.368
11
507.009
21
-134.436
0
LINE
8
BLACK
6
CONTINUOUS
10
507.009
20
-134.436
11
506.97
21
-134.507
0
LINE
8
BLACK
6
CONTINUOUS
10
507.102
20
-134.226
11
507.073
21
-134.298
0
LINE
8
BLACK
6
CONTINUOUS
10
506.97
20
-134.507
11
506.965
21
-134.516
0
LINE
8
BLACK
6
CONTINUOUS
10
500.21
20
-129.959
11
521.537
21
-129.959
0
LINE
8
BLACK
6
CONTINUOUS
10
521.537
20
-129.959
11
521.537
21
-141.596
0
LINE
8
BLACK
6
CONTINUOUS
10
578.687
20
-155.883
11
594.035
21
-155.883
0
LINE
8
BLACK
6
CONTINUOUS
10
521.037
20
-21.4701
11
521.037
21
-7.18262
0
LINE
8
BLACK
6
CONTINUOUS
10
521.037
20
-7.18262
11
594.035
21
-7.18262
0
LINE
8
BLACK
6
CONTINUOUS
10
540.587
20
-141.596
11
540.587
21
-151.121
0
LINE
8
BLACK
6
CONTINUOUS
10
555.435
20
-146.358
11
578.687
21
-146.358
0
LINE
8
BLACK
6
CONTINUOUS
10
507.128
20
-134.152
11
507.102
21
-134.226
0
LINE
8
BLACK
6
CONTINUOUS
10
540.587
20
-151.121
11
555.435
21
-151.121
0
LINE
8
BLACK
6
CONTINUOUS
10
501.987
20
-96.0589
11
500.21
21
-96.0589
0
LINE
8
BLACK
6
CONTINUOUS
10
556.794
20
-153.182
11
556.876
21
-153.163
0
LINE
8
BLACK
6
CONTINUOUS
10
556.876
20
-153.163
11
556.953
21
-153.138
0
LINE
8
BLACK
6
CONTINUOUS
10
557.093
20
-153.074
11
557.157
21
-153.035
0
LINE
8
BLACK
6
CONTINUOUS
10
577.069
20
-157.774
11
577.131
21
-157.816
0
LINE
8
BLACK
6
CONTINUOUS
10
576.819
20
-157.513
11
576.861
21
-157.572
0
LINE
8
BLACK
6
CONTINUOUS
10
577.197
20
-157.853
11
577.266
21
-157.885
0
LINE
8
BLACK
6
CONTINUOUS
10
577.419
20
-157.936
11
577.503
21
-157.952
0
LINE
8
BLACK
6
CONTINUOUS
10
576.861
20
-157.572
11
576.907
21
-157.627
0
LINE
8
BLACK
6
CONTINUOUS
10
577.266
20
-157.885
11
577.339
21
-157.913
0
LINE
8
BLACK
6
CONTINUOUS
10
577.503
20
-157.952
11
577.594
21
-157.962
0
LINE
8
BLACK
6
CONTINUOUS
10
577.339
20
-157.913
11
577.419
21
-157.936
0
LINE
8
BLACK
6
CONTINUOUS
10
556.953
20
-153.138
11
557.026
21
-153.108
0
LINE
8
BLACK
6
CONTINUOUS
10
557.458
20
-152.726
11
557.494
21
-152.662
0
LINE
8
BLACK
6
CONTINUOUS
10
577.009
20
-157.727
11
577.069
21
-157.774
0
LINE
8
BLACK
6
CONTINUOUS
10
576.907
20
-157.627
11
576.957
21
-157.679
0
LINE
8
BLACK
6
CONTINUOUS
10
556.704
20
-153.195
11
556.794
21
-153.182
0
LINE
8
BLACK
6
CONTINUOUS
10
557.026
20
-153.108
11
557.093
21
-153.074
0
LINE
8
BLACK
6
CONTINUOUS
10
557.157
20
-153.035
11
557.217
21
-152.993
0
LINE
8
BLACK
6
CONTINUOUS
10
576.957
20
-157.679
11
577.009
21
-157.727
0
LINE
8
BLACK
6
CONTINUOUS
10
557.324
20
-152.897
11
557.372
21
-152.844
0
LINE
8
BLACK
6
CONTINUOUS
10
557.372
20
-152.844
11
557.416
21
-152.787
0
LINE
8
BLACK
6
CONTINUOUS
10
557.416
20
-152.787
11
557.458
21
-152.726
0
LINE
8
BLACK
6
CONTINUOUS
10
557.608
20
-152.198
11
557.608
21
-149.436
0
LINE
8
BLACK
6
CONTINUOUS
10
557.217
20
-152.993
11
557.273
21
-152.946
0
LINE
8
BLACK
6
CONTINUOUS
10
557.273
20
-152.946
11
557.324
21
-152.897
0
LINE
8
BLACK
6
CONTINUOUS
10
577.131
20
-157.816
11
577.197
21
-157.853
0
LINE
8
BLACK
6
CONTINUOUS
10
577.594
20
-157.962
11
577.655
21
-157.964
0
LINE
8
BLACK
6
CONTINUOUS
10
556.607
20
-153.2
11
556.704
21
-153.195
0
LINE
8
BLACK
6
CONTINUOUS
10
507.223
20
-10.382
11
507.226
21
-10.4825
0
LINE
8
BLACK
6
CONTINUOUS
10
507.073
20
-11.2481
11
507.042
21
-11.318
0
LINE
8
BLACK
6
CONTINUOUS
10
504.309
20
-12.1848
11
504.243
21
-12.1455
0
LINE
8
BLACK
6
CONTINUOUS
10
505.178
20
-12.4389
11
505.081
21
-12.4316
0
LINE
8
BLACK
6
CONTINUOUS
10
507.153
20
-11.0218
11
507.128
21
-11.1018
0
LINE
8
BLACK
6
CONTINUOUS
10
507.226
20
-10.4825
11
507.224
21
-10.5811
0
LINE
8
BLACK
6
CONTINUOUS
10
507.191
20
-10.8576
11
507.174
21
-10.941
0
LINE
8
BLACK
6
CONTINUOUS
10
503.955
20
-11.9261
11
503.902
21
-11.8754
0
LINE
8
BLACK
6
CONTINUOUS
10
503.63
20
-11.5369
11
503.59
21
-11.4713
0
LINE
8
BLACK
6
CONTINUOUS
10
504.819
20
-12.3871
11
504.739
21
-12.3662
0
LINE
8
BLACK
6
CONTINUOUS
10
504.516
20
-12.287
11
504.442
21
-12.2539
0
LINE
8
BLACK
6
CONTINUOUS
10
504.122
20
-12.0631
11
504.064
21
-12.0188
0
LINE
8
BLACK
6
CONTINUOUS
10
506.926
20
-11.53
11
506.886
21
-11.591
0
LINE
8
BLACK
6
CONTINUOUS
10
504.588
20
-12.3159
11
504.516
21
-12.287
0
LINE
8
BLACK
6
CONTINUOUS
10
503.902
20
-11.8754
11
503.852
21
-11.824
0
LINE
8
BLACK
6
CONTINUOUS
10
503.804
20
-11.7707
11
503.758
21
-11.7154
0
LINE
8
BLACK
6
CONTINUOUS
10
507.042
20
-11.318
11
507.009
21
-11.3856
0
LINE
8
BLACK
6
CONTINUOUS
10
505.276
20
-12.4414
11
505.178
21
-12.4389
0
LINE
8
BLACK
6
CONTINUOUS
10
504.243
20
-12.1455
11
504.182
21
-12.1053
0
LINE
8
BLACK
6
CONTINUOUS
10
505.081
20
-12.4316
11
504.991
21
-12.4205
0
LINE
8
BLACK
6
CONTINUOUS
10
507.174
20
-10.941
11
507.153
21
-11.0218
0
LINE
8
BLACK
6
CONTINUOUS
10
504.662
20
-12.3423
11
504.588
21
-12.3159
0
LINE
8
BLACK
6
CONTINUOUS
10
507.009
20
-11.3856
11
506.97
21
-11.4569
0
LINE
8
BLACK
6
CONTINUOUS
10
504.991
20
-12.4205
11
504.902
21
-12.4053
0
LINE
8
BLACK
6
CONTINUOUS
10
507.224
20
-10.5811
11
507.217
21
-10.6751
0
LINE
8
BLACK
6
CONTINUOUS
10
507.217
20
-10.6751
11
507.206
21
-10.77
0
LINE
8
BLACK
6
CONTINUOUS
10
504.064
20
-12.0188
11
504.009
21
-11.9735
0
LINE
8
BLACK
6
CONTINUOUS
10
507.102
20
-11.1758
11
507.073
21
-11.2481
0
LINE
8
BLACK
6
CONTINUOUS
10
506.97
20
-11.4569
11
506.965
21
-11.4664
0
LINE
8
BLACK
6
CONTINUOUS
10
503.714
20
-11.6587
11
503.672
21
-11.5998
0
LINE
8
BLACK
6
CONTINUOUS
10
495.31
20
-5.408
11
495.31
21
-138.911
0
LINE
8
BLACK
6
CONTINUOUS
10
507.066
20
-9.71811
11
507.097
21
-9.79248
0
LINE
8
BLACK
6
CONTINUOUS
10
507.188
20
-10.107
11
507.204
21
-10.1969
0
LINE
8
BLACK
6
CONTINUOUS
10
503.59
20
-11.4713
11
503.587
21
-11.4664
0
LINE
8
BLACK
6
CONTINUOUS
10
504.009
20
-11.9735
11
503.955
21
-11.9261
0
LINE
8
BLACK
6
CONTINUOUS
10
557.494
20
-152.662
11
557.527
21
-152.594
0
ARC
8
BLACK
10
595.81
20
-5.408
40
4.9
50
-0
51
90
0
LINE
8
BLACK
6
CONTINUOUS
10
557.527
20
-152.594
11
557.555
21
-152.52
0
LINE
8
BLACK
6
CONTINUOUS
10
557.555
20
-152.52
11
557.578
21
-152.44
0
LINE
8
BLACK
6
CONTINUOUS
10
507.169
20
-10.0245
11
507.188
21
-10.107
0
LINE
8
BLACK
6
CONTINUOUS
10
557.578
20
-152.44
11
557.595
21
-152.356
0
LINE
8
BLACK
6
CONTINUOUS
10
506.965
20
-9.51641
11
507
21
-9.58099
0
LINE
8
BLACK
6
CONTINUOUS
10
507.215
20
-10.2875
11
507.223
21
-10.382
0
LINE
8
BLACK
6
CONTINUOUS
10
503.852
20
-11.824
11
503.804
21
-11.7707
0
LINE
8
BLACK
6
CONTINUOUS
10
557.595
20
-152.356
11
557.605
21
-152.265
0
LINE
8
BLACK
6
CONTINUOUS
10
557.605
20
-152.265
11
557.607
21
-152.2
0
LINE
8
BLACK
6
CONTINUOUS
10
507.204
20
-10.1969
11
507.215
21
-10.2875
0
LINE
8
BLACK
6
CONTINUOUS
10
503.672
20
-11.5998
11
503.63
21
-11.5369
0
ARC
8
BLACK
10
500.21
20
-5.408
40
4.9
50
90
51
180
0
LINE
8
BLACK
6
CONTINUOUS
10
503.758
20
-11.7154
11
503.714
21
-11.6587
0
LINE
8
BLACK
6
CONTINUOUS
10
507.206
20
-10.77
11
507.191
21
-10.8576
0
LINE
8
BLACK
6
CONTINUOUS
10
507.128
20
-11.1018
11
507.102
21
-11.1758
0
LINE
8
BLACK
6
CONTINUOUS
10
504.902
20
-12.4053
11
504.819
21
-12.3871
0
LINE
8
BLACK
6
CONTINUOUS
10
504.739
20
-12.3662
11
504.662
21
-12.3423
0
LINE
8
BLACK
6
CONTINUOUS
10
506.965
20
-11.4664
11
506.926
21
-11.53
0
LINE
8
BLACK
6
CONTINUOUS
10
507.097
20
-9.79248
11
507.124
21
-9.86775
0
LINE
8
BLACK
6
CONTINUOUS
10
504.375
20
-12.2205
11
504.309
21
-12.1848
0
LINE
8
BLACK
6
CONTINUOUS
10
504.182
20
-12.1053
11
504.122
21
-12.0631
0
LINE
8
BLACK
6
CONTINUOUS
10
595.81
20
-0.508
11
500.21
21
-0.508
0
LINE
8
BLACK
6
CONTINUOUS
10
507
20
-9.58099
11
507.034
21
-9.64792
0
LINE
8
BLACK
6
CONTINUOUS
10
507.034
20
-9.64792
11
507.066
21
-9.71811
0
LINE
8
BLACK
6
CONTINUOUS
10
507.124
20
-9.86775
11
507.148
21
-9.94383
0
LINE
8
BLACK
6
CONTINUOUS
10
504.442
20
-12.2539
11
504.375
21
-12.2205
0
LINE
8
BLACK
6
CONTINUOUS
10
507.148
20
-9.94383
11
507.169
21
-10.0245
0
LINE
8
BLACK
6
CONTINUOUS
10
506.654
20
-11.8712
11
506.603
21
-11.9204
0
LINE
8
BLACK
6
CONTINUOUS
10
506.375
20
-12.1019
11
506.314
21
-12.142
0
LINE
8
BLACK
6
CONTINUOUS
10
506.244
20
-12.1843
11
506.176
21
-12.2214
0
LINE
8
BLACK
6
CONTINUOUS
10
505.646
20
-12.406
11
505.559
21
-12.4208
0
LINE
8
BLACK
6
CONTINUOUS
10
504.243
20
-8.8377
11
504.306
21
-8.79995
0
LINE
8
BLACK
6
CONTINUOUS
10
504.66
20
-8.64127
11
504.738
21
-8.61717
0
LINE
8
BLACK
6
CONTINUOUS
10
506.176
20
-12.2214
11
506.107
21
-12.2554
0
LINE
8
BLACK
6
CONTINUOUS
10
503.759
20
-9.26584
11
503.805
21
-9.21103
0
LINE
8
BLACK
6
CONTINUOUS
10
504.738
20
-8.61717
11
504.818
21
-8.59583
0
LINE
8
BLACK
6
CONTINUOUS
10
504.306
20
-8.79995
11
504.371
21
-8.76413
0
LINE
8
BLACK
6
CONTINUOUS
10
503.627
20
-9.45106
11
503.667
21
-9.39012
0
LINE
8
BLACK
6
CONTINUOUS
10
505.963
20
-12.3164
11
505.888
21
-12.3428
0
LINE
8
BLACK
6
CONTINUOUS
10
503.805
20
-9.21103
11
503.853
21
-9.15846
0
LINE
8
BLACK
6
CONTINUOUS
10
503.853
20
-9.15846
11
503.902
21
-9.10743
0
LINE
8
BLACK
6
CONTINUOUS
10
506.037
20
-12.287
11
505.963
21
-12.3164
0
LINE
8
BLACK
6
CONTINUOUS
10
505.463
20
-12.4324
11
505.369
21
-12.4392
0
LINE
8
BLACK
6
CONTINUOUS
10
503.957
20
-9.05532
11
504.01
21
-9.00804
0
LINE
8
BLACK
6
CONTINUOUS
10
504.065
20
-8.96281
11
504.122
21
-8.91937
0
LINE
8
BLACK
6
CONTINUOUS
10
506.8
20
-11.7076
11
506.754
21
-11.7631
0
LINE
8
BLACK
6
CONTINUOUS
10
506.435
20
-12.0596
11
506.375
21
-12.1019
0
LINE
8
BLACK
6
CONTINUOUS
10
504.818
20
-8.59583
11
504.902
21
-8.57749
0
LINE
8
BLACK
6
CONTINUOUS
10
503.902
20
-9.10743
11
503.957
21
-9.05532
0
LINE
8
BLACK
6
CONTINUOUS
10
505.888
20
-12.3428
11
505.811
21
-12.3666
0
LINE
8
BLACK
6
CONTINUOUS
10
503.587
20
-9.51641
11
503.627
21
-9.45106
0
LINE
8
BLACK
6
CONTINUOUS
10
505.811
20
-12.3666
11
505.732
21
-12.3874
0
LINE
8
BLACK
6
CONTINUOUS
10
505.369
20
-12.4392
11
505.276
21
-12.4414
0
LINE
8
BLACK
6
CONTINUOUS
10
504.122
20
-8.91937
11
504.182
21
-8.87754
0
LINE
8
BLACK
6
CONTINUOUS
10
506.314
20
-12.142
11
506.244
21
-12.1843
0
LINE
8
BLACK
6
CONTINUOUS
10
503.667
20
-9.39012
11
503.71
21
-9.32976
0
LINE
8
BLACK
6
CONTINUOUS
10
506.845
20
-11.6498
11
506.8
21
-11.7076
0
LINE
8
BLACK
6
CONTINUOUS
10
506.754
20
-11.7631
11
506.704
21
-11.8196
0
LINE
8
BLACK
6
CONTINUOUS
10
506.492
20
-12.016
11
506.435
21
-12.0596
0
LINE
8
BLACK
6
CONTINUOUS
10
504.182
20
-8.87754
11
504.243
21
-8.8377
0
LINE
8
BLACK
6
CONTINUOUS
10
504.438
20
-8.73061
11
504.514
21
-8.69656
0
LINE
8
BLACK
6
CONTINUOUS
10
504.514
20
-8.69656
11
504.585
21
-8.66782
0
LINE
8
BLACK
6
CONTINUOUS
10
504.585
20
-8.66782
11
504.66
21
-8.64127
0
LINE
8
BLACK
6
CONTINUOUS
10
506.547
20
-11.9706
11
506.492
21
-12.016
0
LINE
8
BLACK
6
CONTINUOUS
10
506.704
20
-11.8196
11
506.654
21
-11.8712
0
LINE
8
BLACK
6
CONTINUOUS
10
506.603
20
-11.9204
11
506.547
21
-11.9706
0
LINE
8
BLACK
6
CONTINUOUS
10
506.107
20
-12.2554
11
506.037
21
-12.287
0
LINE
8
BLACK
6
CONTINUOUS
10
505.732
20
-12.3874
11
505.646
21
-12.406
0
LINE
8
BLACK
6
CONTINUOUS
10
504.371
20
-8.76413
11
504.438
21
-8.73061
0
LINE
8
BLACK
6
CONTINUOUS
10
503.71
20
-9.32976
11
503.759
21
-9.26584
0
LINE
8
BLACK
6
CONTINUOUS
10
505.559
20
-12.4208
11
505.463
21
-12.4324
0
LINE
8
BLACK
6
CONTINUOUS
10
504.01
20
-9.00804
11
504.065
21
-8.96281
0
LINE
8
BLACK
6
CONTINUOUS
10
506.886
20
-11.591
11
506.845
21
-11.6498
0
LINE
8
BLACK
6
CONTINUOUS
10
506.112
20
-8.72976
11
506.179
21
-8.76321
0
LINE
8
BLACK
6
CONTINUOUS
10
503.364
20
-10.8751
11
503.349
21
-10.7894
0
LINE
8
BLACK
6
CONTINUOUS
10
506.245
20
-8.79921
11
506.311
21
-8.83875
0
LINE
8
BLACK
6
CONTINUOUS
10
503.337
20
-10.6953
11
503.329
21
-10.6008
0
LINE
8
BLACK
6
CONTINUOUS
10
506.543
20
-9.00932
11
506.597
21
-9.05667
0
LINE
8
BLACK
6
CONTINUOUS
10
504.902
20
-8.57749
11
504.989
21
-8.56262
0
LINE
8
BLACK
6
CONTINUOUS
10
504.989
20
-8.56262
11
505.079
21
-8.55139
0
LINE
8
BLACK
6
CONTINUOUS
10
505.079
20
-8.55139
11
505.173
21
-8.54412
0
LINE
8
BLACK
6
CONTINUOUS
10
505.173
20
-8.54412
11
505.271
21
-8.54141
0
LINE
8
BLACK
6
CONTINUOUS
10
503.349
20
-10.7894
11
503.337
21
-10.6953
0
LINE
8
BLACK
6
CONTINUOUS
10
505.375
20
-8.54389
11
505.471
21
-8.55119
0
LINE
8
BLACK
6
CONTINUOUS
10
505.561
20
-8.56233
11
505.65
21
-8.57754
0
LINE
8
BLACK
6
CONTINUOUS
10
506.372
20
-8.87823
11
506.43
21
-8.91966
0
LINE
8
BLACK
6
CONTINUOUS
10
506.43
20
-8.91966
11
506.488
21
-8.96403
0
LINE
8
BLACK
6
CONTINUOUS
10
506.648
20
-9.10568
11
506.698
21
-9.157
0
LINE
8
BLACK
6
CONTINUOUS
10
503.383
20
-10.9588
11
503.364
21
-10.8751
0
LINE
8
BLACK
6
CONTINUOUS
10
503.456
20
-11.1922
11
503.428
21
-11.1151
0
LINE
8
BLACK
6
CONTINUOUS
10
505.65
20
-8.57754
11
505.736
21
-8.5963
0
LINE
8
BLACK
6
CONTINUOUS
10
503.326
20
-10.5023
11
503.328
21
-10.3977
0
LINE
8
BLACK
6
CONTINUOUS
10
505.816
20
-8.61772
11
505.896
21
-8.64252
0
LINE
8
BLACK
6
CONTINUOUS
10
506.179
20
-8.76321
11
506.245
21
-8.79921
0
LINE
8
BLACK
6
CONTINUOUS
10
506.698
20
-9.157
11
506.748
21
-9.21216
0
LINE
8
BLACK
6
CONTINUOUS
10
506.838
20
-9.32411
11
506.881
21
-9.38346
0
LINE
8
BLACK
6
CONTINUOUS
10
503.486
20
-11.2647
11
503.456
21
-11.1922
0
LINE
8
BLACK
6
CONTINUOUS
10
503.587
20
-11.4664
11
503.551
21
-11.4014
0
LINE
8
BLACK
6
CONTINUOUS
10
503.329
20
-10.6008
11
503.326
21
-10.5023
0
LINE
8
BLACK
6
CONTINUOUS
10
505.271
20
-8.54141
11
505.276
21
-8.54141
0
LINE
8
BLACK
6
CONTINUOUS
10
503.404
20
-11.0385
11
503.383
21
-10.9588
0
LINE
8
BLACK
6
CONTINUOUS
10
505.276
20
-8.54141
11
505.375
21
-8.54389
0
LINE
8
BLACK
6
CONTINUOUS
10
506.794
20
-9.2674
11
506.838
21
-9.32411
0
LINE
8
BLACK
6
CONTINUOUS
10
505.471
20
-8.55119
11
505.561
21
-8.56233
0
LINE
8
BLACK
6
CONTINUOUS
10
506.921
20
-9.44441
11
506.959
21
-9.5067
0
LINE
8
BLACK
6
CONTINUOUS
10
505.736
20
-8.5963
11
505.816
21
-8.61772
0
LINE
8
BLACK
6
CONTINUOUS
10
505.896
20
-8.64252
11
505.97
21
-8.66922
0
LINE
8
BLACK
6
CONTINUOUS
10
506.748
20
-9.21216
11
506.794
21
-9.2674
0
LINE
8
BLACK
6
CONTINUOUS
10
503.551
20
-11.4014
11
503.518
21
-11.3344
0
LINE
8
BLACK
6
CONTINUOUS
10
505.97
20
-8.66922
11
506.042
21
-8.69811
0
LINE
8
BLACK
6
CONTINUOUS
10
503.328
20
-10.3977
11
503.335
21
-10.3018
0
LINE
8
BLACK
6
CONTINUOUS
10
503.518
20
-11.3344
11
503.486
21
-11.2647
0
LINE
8
BLACK
6
CONTINUOUS
10
506.042
20
-8.69811
11
506.112
21
-8.72976
0
LINE
8
BLACK
6
CONTINUOUS
10
506.488
20
-8.96403
11
506.543
21
-9.00932
0
LINE
8
BLACK
6
CONTINUOUS
10
506.597
20
-9.05667
11
506.648
21
-9.10568
0
LINE
8
BLACK
6
CONTINUOUS
10
506.311
20
-8.83875
11
506.372
21
-8.87823
0
LINE
8
BLACK
6
CONTINUOUS
10
506.959
20
-9.5067
11
506.965
21
-9.51641
0
LINE
8
BLACK
6
CONTINUOUS
10
506.881
20
-9.38346
11
506.921
21
-9.44441
0
LINE
8
BLACK
6
CONTINUOUS
10
503.428
20
-11.1151
11
503.404
21
-11.0385
0
LINE
8
BLACK
6
CONTINUOUS
10
506.176
20
-135.271
11
506.107
21
-135.305
0
LINE
8
BLACK
6
CONTINUOUS
10
503.404
20
-134.088
11
503.383
21
-134.009
0
LINE
8
BLACK
6
CONTINUOUS
10
503.428
20
-134.165
11
503.404
21
-134.088
0
LINE
8
BLACK
6
CONTINUOUS
10
505.811
20
-135.417
11
505.732
21
-135.437
0
LINE
8
BLACK
6
CONTINUOUS
10
505.463
20
-135.482
11
505.369
21
-135.489
0
LINE
8
BLACK
6
CONTINUOUS
10
503.551
20
-134.451
11
503.518
21
-134.384
0
LINE
8
BLACK
6
CONTINUOUS
10
503.587
20
-134.516
11
503.551
21
-134.451
0
LINE
8
BLACK
6
CONTINUOUS
10
505.732
20
-135.437
11
505.646
21
-135.456
0
LINE
8
BLACK
6
CONTINUOUS
10
506.547
20
-135.02
11
506.492
21
-135.066
0
LINE
8
BLACK
6
CONTINUOUS
10
503.335
20
-10.3018
11
503.346
21
-10.2111
0
LINE
8
BLACK
6
CONTINUOUS
10
503.346
20
-10.2111
11
503.361
21
-10.1252
0
LINE
8
BLACK
6
CONTINUOUS
10
503.383
20
-134.009
11
503.364
21
-133.925
0
LINE
8
BLACK
6
CONTINUOUS
10
506.603
20
-134.97
11
506.547
21
-135.02
0
LINE
8
BLACK
6
CONTINUOUS
10
503.361
20
-10.1252
11
503.379
21
-10.0418
0
LINE
8
BLACK
6
CONTINUOUS
10
506.314
20
-135.192
11
506.244
21
-135.234
0
LINE
8
BLACK
6
CONTINUOUS
10
503.423
20
-9.88291
11
503.45
21
-9.80793
0
LINE
8
BLACK
6
CONTINUOUS
10
506.107
20
-135.305
11
506.037
21
-135.337
0
LINE
8
BLACK
6
CONTINUOUS
10
503.364
20
-133.925
11
503.349
21
-133.839
0
LINE
8
BLACK
6
CONTINUOUS
10
505.888
20
-135.393
11
505.811
21
-135.417
0
LINE
8
BLACK
6
CONTINUOUS
10
503.581
20
-9.52791
11
503.587
21
-9.51641
0
LINE
8
BLACK
6
CONTINUOUS
10
506.965
20
-134.516
11
506.926
21
-134.58
0
LINE
8
BLACK
6
CONTINUOUS
10
506.886
20
-134.641
11
506.845
21
-134.7
0
LINE
8
BLACK
6
CONTINUOUS
10
506.845
20
-134.7
11
506.8
21
-134.757
0
LINE
8
BLACK
6
CONTINUOUS
10
503.456
20
-134.242
11
503.428
21
-134.165
0
LINE
8
BLACK
6
CONTINUOUS
10
506.8
20
-134.757
11
506.754
21
-134.813
0
LINE
8
BLACK
6
CONTINUOUS
10
506.037
20
-135.337
11
505.963
21
-135.366
0
LINE
8
BLACK
6
CONTINUOUS
10
505.559
20
-135.471
11
505.463
21
-135.482
0
LINE
8
BLACK
6
CONTINUOUS
10
503.518
20
-134.384
11
503.486
21
-134.315
0
LINE
8
BLACK
6
CONTINUOUS
10
503.486
20
-134.315
11
503.456
21
-134.242
0
LINE
8
BLACK
6
CONTINUOUS
10
505.963
20
-135.366
11
505.888
21
-135.393
0
LINE
8
BLACK
6
CONTINUOUS
10
503.543
20
-9.5965
11
503.581
21
-9.52791
0
LINE
8
BLACK
6
CONTINUOUS
10
503.379
20
-10.0418
11
503.4
21
-9.95961
0
LINE
8
BLACK
6
CONTINUOUS
10
503.4
20
-9.95961
11
503.423
21
-9.88291
0
LINE
8
BLACK
6
CONTINUOUS
10
505.646
20
-135.456
11
505.559
21
-135.471
0
LINE
8
BLACK
6
CONTINUOUS
10
503.45
20
-9.80793
11
503.479
21
-9.73475
0
LINE
8
BLACK
6
CONTINUOUS
10
503.479
20
-9.73475
11
503.51
21
-9.66481
0
LINE
8
BLACK
6
CONTINUOUS
10
503.51
20
-9.66481
11
503.543
21
-9.5965
0
LINE
8
BLACK
6
CONTINUOUS
10
506.375
20
-135.152
11
506.314
21
-135.192
0
LINE
8
BLACK
6
CONTINUOUS
10
506.926
20
-134.58
11
506.886
21
-134.641
0
LINE
8
BLACK
6
CONTINUOUS
10
506.754
20
-134.813
11
506.704
21
-134.87
0
LINE
8
BLACK
6
CONTINUOUS
10
505.369
20
-135.489
11
505.276
21
-135.491
0
LINE
8
BLACK
6
CONTINUOUS
10
506.704
20
-134.87
11
506.654
21
-134.921
0
LINE
8
BLACK
6
CONTINUOUS
10
506.654
20
-134.921
11
506.603
21
-134.97
0
LINE
8
BLACK
6
CONTINUOUS
10
506.492
20
-135.066
11
506.435
21
-135.11
0
LINE
8
BLACK
6
CONTINUOUS
10
506.435
20
-135.11
11
506.375
21
-135.152
0
LINE
8
BLACK
6
CONTINUOUS
10
506.244
20
-135.234
11
506.176
21
-135.271
0
LINE
8
BLACK
6
CONTINUOUS
10
504.662
20
-135.392
11
504.588
21
-135.366
0
LINE
8
BLACK
6
CONTINUOUS
10
504.182
20
-135.155
11
504.122
21
-135.113
0
LINE
8
BLACK
6
CONTINUOUS
10
505.178
20
-135.489
11
505.081
21
-135.482
0
LINE
8
BLACK
6
CONTINUOUS
10
504.309
20
-135.235
11
504.243
21
-135.195
0
LINE
8
BLACK
6
CONTINUOUS
10
504.243
20
-135.195
11
504.182
21
-135.155
0
LINE
8
BLACK
6
CONTINUOUS
10
503.955
20
-134.976
11
503.902
21
-134.925
0
LINE
8
BLACK
6
CONTINUOUS
10
503.714
20
-134.709
11
503.672
21
-134.65
0
LINE
8
BLACK
6
CONTINUOUS
10
503.59
20
-134.521
11
503.587
21
-134.516
0
LINE
8
BLACK
6
CONTINUOUS
10
504.064
20
-135.069
11
504.009
21
-135.023
0
LINE
8
BLACK
6
CONTINUOUS
10
503.379
20
-133.092
11
503.4
21
-133.01
0
LINE
8
BLACK
6
CONTINUOUS
10
504.516
20
-135.337
11
504.442
21
-135.304
0
LINE
8
BLACK
6
CONTINUOUS
10
503.4
20
-133.01
11
503.423
21
-132.933
0
LINE
8
BLACK
6
CONTINUOUS
10
504.588
20
-135.366
11
504.516
21
-135.337
0
LINE
8
BLACK
6
CONTINUOUS
10
503.667
20
-132.44
11
503.71
21
-132.38
0
LINE
8
BLACK
6
CONTINUOUS
10
504.902
20
-135.455
11
504.819
21
-135.437
0
LINE
8
BLACK
6
CONTINUOUS
10
503.627
20
-132.501
11
503.667
21
-132.44
0
LINE
8
BLACK
6
CONTINUOUS
10
503.63
20
-134.587
11
503.59
21
-134.521
0
LINE
8
BLACK
6
CONTINUOUS
10
503.349
20
-133.839
11
503.337
21
-133.745
0
LINE
8
BLACK
6
CONTINUOUS
10
503.326
20
-133.552
11
503.328
21
-133.448
0
LINE
8
BLACK
6
CONTINUOUS
10
503.337
20
-133.745
11
503.329
21
-133.651
0
LINE
8
BLACK
6
CONTINUOUS
10
504.991
20
-135.47
11
504.902
21
-135.455
0
LINE
8
BLACK
6
CONTINUOUS
10
503.329
20
-133.651
11
503.326
21
-133.552
0
LINE
8
BLACK
6
CONTINUOUS
10
504.375
20
-135.27
11
504.309
21
-135.235
0
LINE
8
BLACK
6
CONTINUOUS
10
503.479
20
-132.785
11
503.51
21
-132.715
0
LINE
8
BLACK
6
CONTINUOUS
10
503.346
20
-133.261
11
503.361
21
-133.175
0
LINE
8
BLACK
6
CONTINUOUS
10
504.122
20
-135.113
11
504.064
21
-135.069
0
LINE
8
BLACK
6
CONTINUOUS
10
503.758
20
-134.765
11
503.714
21
-134.709
0
LINE
8
BLACK
6
CONTINUOUS
10
503.672
20
-134.65
11
503.63
21
-134.587
0
LINE
8
BLACK
6
CONTINUOUS
10
503.328
20
-133.448
11
503.335
21
-133.352
0
LINE
8
BLACK
6
CONTINUOUS
10
503.581
20
-132.578
11
503.587
21
-132.566
0
LINE
8
BLACK
6
CONTINUOUS
10
503.335
20
-133.352
11
503.346
21
-133.261
0
LINE
8
BLACK
6
CONTINUOUS
10
505.276
20
-135.491
11
505.178
21
-135.489
0
LINE
8
BLACK
6
CONTINUOUS
10
505.081
20
-135.482
11
504.991
21
-135.47
0
LINE
8
BLACK
6
CONTINUOUS
10
503.804
20
-134.821
11
503.758
21
-134.765
0
LINE
8
BLACK
6
CONTINUOUS
10
503.361
20
-133.175
11
503.379
21
-133.092
0
LINE
8
BLACK
6
CONTINUOUS
10
503.51
20
-132.715
11
503.543
21
-132.646
0
LINE
8
BLACK
6
CONTINUOUS
10
503.852
20
-134.874
11
503.804
21
-134.821
0
LINE
8
BLACK
6
CONTINUOUS
10
503.423
20
-132.933
11
503.45
21
-132.858
0
LINE
8
BLACK
6
CONTINUOUS
10
503.543
20
-132.646
11
503.581
21
-132.578
0
LINE
8
BLACK
6
CONTINUOUS
10
503.45
20
-132.858
11
503.479
21
-132.785
0
LINE
8
BLACK
6
CONTINUOUS
10
504.819
20
-135.437
11
504.739
21
-135.416
0
LINE
8
BLACK
6
CONTINUOUS
10
504.739
20
-135.416
11
504.662
21
-135.392
0
LINE
8
BLACK
6
CONTINUOUS
10
504.009
20
-135.023
11
503.955
21
-134.976
0
LINE
8
BLACK
6
CONTINUOUS
10
503.902
20
-134.925
11
503.852
21
-134.874
0
LINE
8
BLACK
6
CONTINUOUS
10
503.587
20
-132.566
11
503.627
21
-132.501
0
LINE
8
BLACK
6
CONTINUOUS
10
504.442
20
-135.304
11
504.375
21
-135.27
0
LINE
8
BLACK
6
CONTINUOUS
10
504.065
20
-132.013
11
504.122
21
-131.969
0
LINE
8
BLACK
6
CONTINUOUS
10
504.243
20
-131.888
11
504.306
21
-131.85
0
LINE
8
BLACK
6
CONTINUOUS
10
504.902
20
-131.627
11
504.989
21
-131.613
0
LINE
8
BLACK
6
CONTINUOUS
10
504.306
20
-131.85
11
504.371
21
-131.814
0
LINE
8
BLACK
6
CONTINUOUS
10
504.989
20
-131.613
11
505.079
21
-131.601
0
LINE
8
BLACK
6
CONTINUOUS
10
504.371
20
-131.814
11
504.438
21
-131.781
0
LINE
8
BLACK
6
CONTINUOUS
10
503.902
20
-132.157
11
503.957
21
-132.105
0
LINE
8
BLACK
6
CONTINUOUS
10
504.514
20
-131.746
11
504.585
21
-131.718
0
LINE
8
BLACK
6
CONTINUOUS
10
504.66
20
-131.691
11
504.738
21
-131.667
0
LINE
8
BLACK
6
CONTINUOUS
10
504.438
20
-131.781
11
504.514
21
-131.746
0
LINE
8
BLACK
6
CONTINUOUS
10
504.01
20
-132.058
11
504.065
21
-132.013
0
LINE
8
BLACK
6
CONTINUOUS
10
503.957
20
-132.105
11
504.01
21
-132.058
0
LINE
8
BLACK
6
CONTINUOUS
10
504.122
20
-131.969
11
504.182
21
-131.927
0
LINE
8
BLACK
6
CONTINUOUS
10
504.738
20
-131.667
11
504.818
21
-131.646
0
LINE
8
BLACK
6
CONTINUOUS
10
503.71
20
-132.38
11
503.759
21
-132.316
0
LINE
8
BLACK
6
CONTINUOUS
10
503.759
20
-132.316
11
503.805
21
-132.261
0
LINE
8
BLACK
6
CONTINUOUS
10
504.818
20
-131.646
11
504.902
21
-131.627
0
LINE
8
BLACK
6
CONTINUOUS
10
505.173
20
-131.594
11
505.271
21
-131.591
0
LINE
8
BLACK
6
CONTINUOUS
10
503.853
20
-132.208
11
503.902
21
-132.157
0
LINE
8
BLACK
6
CONTINUOUS
10
504.182
20
-131.927
11
504.243
21
-131.888
0
LINE
8
BLACK
6
CONTINUOUS
10
505.079
20
-131.601
11
505.173
21
-131.594
0
LINE
8
BLACK
6
CONTINUOUS
10
503.805
20
-132.261
11
503.853
21
-132.208
0
LINE
8
BLACK
6
CONTINUOUS
10
504.585
20
-131.718
11
504.66
21
-131.691
0
LINE
8
BLACK
6
CONTINUOUS
10
506.042
20
-131.748
11
506.112
21
-131.78
0
LINE
8
BLACK
6
CONTINUOUS
10
506.488
20
-132.014
11
506.543
21
-132.059
0
LINE
8
BLACK
6
CONTINUOUS
10
506.179
20
-131.813
11
506.245
21
-131.849
0
LINE
8
BLACK
6
CONTINUOUS
10
506.597
20
-132.107
11
506.648
21
-132.156
0
LINE
8
BLACK
6
CONTINUOUS
10
506.648
20
-132.156
11
506.698
21
-132.207
0
LINE
8
BLACK
6
CONTINUOUS
10
506.748
20
-132.262
11
506.794
21
-132.317
0
LINE
8
BLACK
6
CONTINUOUS
10
506.372
20
-131.928
11
506.43
21
-131.97
0
LINE
8
BLACK
6
CONTINUOUS
10
505.271
20
-131.591
11
505.276
21
-131.591
0
LINE
8
BLACK
6
CONTINUOUS
10
505.276
20
-131.591
11
505.375
21
-131.594
0
LINE
8
BLACK
6
CONTINUOUS
10
505.736
20
-131.646
11
505.816
21
-131.668
0
LINE
8
BLACK
6
CONTINUOUS
10
505.375
20
-131.594
11
505.471
21
-131.601
0
LINE
8
BLACK
6
CONTINUOUS
10
505.471
20
-131.601
11
505.561
21
-131.612
0
LINE
8
BLACK
6
CONTINUOUS
10
506.245
20
-131.849
11
506.311
21
-131.889
0
LINE
8
BLACK
6
CONTINUOUS
10
505.561
20
-131.612
11
505.65
21
-131.627
0
LINE
8
BLACK
6
CONTINUOUS
10
506.698
20
-132.207
11
506.748
21
-132.262
0
LINE
8
BLACK
6
CONTINUOUS
10
505.65
20
-131.627
11
505.736
21
-131.646
0
LINE
8
BLACK
6
CONTINUOUS
10
506.43
20
-131.97
11
506.488
21
-132.014
0
LINE
8
BLACK
6
CONTINUOUS
10
505.816
20
-131.668
11
505.896
21
-131.692
0
LINE
8
BLACK
6
CONTINUOUS
10
506.311
20
-131.889
11
506.372
21
-131.928
0
LINE
8
BLACK
6
CONTINUOUS
10
506.112
20
-131.78
11
506.179
21
-131.813
0
LINE
8
BLACK
6
CONTINUOUS
10
505.896
20
-131.692
11
505.97
21
-131.719
0
LINE
8
BLACK
6
CONTINUOUS
10
505.97
20
-131.719
11
506.042
21
-131.748
0
LINE
8
BLACK
6
CONTINUOUS
10
506.543
20
-132.059
11
506.597
21
-132.107
0
LINE
8
BLACK
6
CONTINUOUS
10
8.2113
20
-128.658
11
8.2113
21
-203.247
0
LINE
8
BLACK
6
CONTINUOUS
10
27.7613
20
-248.784
11
46.8113
21
-248.784
0
LINE
8
BLACK
6
CONTINUOUS
10
46.8113
20
-248.784
11
46.8113
21
-258.309
0
LINE
8
BLACK
6
CONTINUOUS
10
27.2613
20
-128.658
11
27.2613
21
-114.371
0
LINE
8
BLACK
6
CONTINUOUS
10
84.9113
20
-263.071
11
100.259
21
-263.071
0
LINE
8
BLACK
6
CONTINUOUS
10
84.9113
20
-253.546
11
84.9113
21
-263.071
0
LINE
8
BLACK
6
CONTINUOUS
10
27.2613
20
-114.371
11
100.259
21
-114.371
0
LINE
8
BLACK
6
CONTINUOUS
10
27.7613
20
-237.147
11
27.7613
21
-248.784
0
LINE
8
BLACK
6
CONTINUOUS
10
61.6594
20
-253.546
11
84.9113
21
-253.546
0
LINE
8
BLACK
6
CONTINUOUS
10
6.43414
20
-203.247
11
6.43414
21
-237.147
0
LINE
8
BLACK
6
CONTINUOUS
10
8.2113
20
-203.247
11
6.43414
21
-203.247
0
LINE
8
BLACK
6
CONTINUOUS
10
46.8113
20
-258.309
11
61.6594
21
-258.309
0
LINE
8
BLACK
6
CONTINUOUS
10
6.43414
20
-237.147
11
27.7613
21
-237.147
0
LINE
8
BLACK
6
CONTINUOUS
10
61.6594
20
-258.309
11
61.6594
21
-253.546
0
LINE
8
BLACK
6
CONTINUOUS
10
8.2113
20
-128.658
11
27.2613
21
-128.658
0
LINE
8
BLACK
6
CONTINUOUS
10
13.1943
20
-241.695
11
13.1888
21
-241.704
0
LINE
8
BLACK
6
CONTINUOUS
10
13.233
20
-241.624
11
13.1943
21
-241.695
0
LINE
8
BLACK
6
CONTINUOUS
10
13.2662
20
-241.556
11
13.233
21
-241.624
0
LINE
8
BLACK
6
CONTINUOUS
10
13.2973
20
-241.486
11
13.2662
21
-241.556
0
LINE
8
BLACK
6
CONTINUOUS
10
13.3261
20
-241.414
11
13.2973
21
-241.486
0
LINE
8
BLACK
6
CONTINUOUS
10
13.3521
20
-241.34
11
13.3261
21
-241.414
0
LINE
8
BLACK
6
CONTINUOUS
10
13.3766
20
-241.26
11
13.3521
21
-241.34
0
LINE
8
BLACK
6
CONTINUOUS
10
13.3976
20
-241.179
11
13.3766
21
-241.26
0
LINE
8
BLACK
6
CONTINUOUS
10
13.4154
20
-241.096
11
13.3976
21
-241.179
0
LINE
8
BLACK
6
CONTINUOUS
10
13.4301
20
-241.008
11
13.4154
21
-241.096
0
LINE
8
BLACK
6
CONTINUOUS
10
13.4414
20
-240.913
11
13.4301
21
-241.008
0
LINE
8
BLACK
6
CONTINUOUS
10
13.448
20
-240.819
11
13.4414
21
-240.913
0
LINE
8
BLACK
6
CONTINUOUS
10
13.4501
20
-240.72
11
13.448
21
-240.819
0
LINE
8
BLACK
6
CONTINUOUS
10
13.447
20
-240.62
11
13.4501
21
-240.72
0
LINE
8
BLACK
6
CONTINUOUS
10
13.4394
20
-240.525
11
13.447
21
-240.62
0
LINE
8
BLACK
6
CONTINUOUS
10
13.4277
20
-240.435
11
13.4394
21
-240.525
0
LINE
8
BLACK
6
CONTINUOUS
10
13.4118
20
-240.345
11
13.4277
21
-240.435
0
LINE
8
BLACK
6
CONTINUOUS
10
13.3934
20
-240.262
11
13.4118
21
-240.345
0
LINE
8
BLACK
6
CONTINUOUS
10
13.3717
20
-240.182
11
13.3934
21
-240.262
0
LINE
8
BLACK
6
CONTINUOUS
10
13.3477
20
-240.106
11
13.3717
21
-240.182
0
LINE
8
BLACK
6
CONTINUOUS
10
13.3206
20
-240.03
11
13.3477
21
-240.106
0
LINE
8
BLACK
6
CONTINUOUS
10
13.2902
20
-239.956
11
13.3206
21
-240.03
0
LINE
8
BLACK
6
CONTINUOUS
10
13.2582
20
-239.886
11
13.2902
21
-239.956
0
LINE
8
BLACK
6
CONTINUOUS
10
13.2245
20
-239.819
11
13.2582
21
-239.886
0
LINE
8
BLACK
6
CONTINUOUS
10
13.1888
20
-239.754
11
13.2245
21
-239.819
0
LINE
8
BLACK
6
CONTINUOUS
10
13.1832
20
-239.745
11
13.1888
21
-239.754
0
LINE
8
BLACK
6
CONTINUOUS
10
13.1452
20
-239.682
11
13.1832
21
-239.745
0
LINE
8
BLACK
6
CONTINUOUS
10
13.1048
20
-239.621
11
13.1452
21
-239.682
0
LINE
8
BLACK
6
CONTINUOUS
10
13.0621
20
-239.562
11
13.1048
21
-239.621
0
LINE
8
BLACK
6
CONTINUOUS
10
13.0181
20
-239.505
11
13.0621
21
-239.562
0
LINE
8
BLACK
6
CONTINUOUS
10
12.9719
20
-239.45
11
13.0181
21
-239.505
0
LINE
8
BLACK
6
CONTINUOUS
10
12.9221
20
-239.395
11
12.9719
21
-239.45
0
LINE
8
BLACK
6
CONTINUOUS
10
12.8721
20
-239.344
11
12.9221
21
-239.395
0
LINE
8
BLACK
6
CONTINUOUS
10
12.8208
20
-239.295
11
12.8721
21
-239.344
0
LINE
8
BLACK
6
CONTINUOUS
10
12.7674
20
-239.247
11
12.8208
21
-239.295
0
LINE
8
BLACK
6
CONTINUOUS
10
12.7124
20
-239.202
11
12.7674
21
-239.247
0
LINE
8
BLACK
6
CONTINUOUS
10
12.6543
20
-239.158
11
12.7124
21
-239.202
0
LINE
8
BLACK
6
CONTINUOUS
10
12.5956
20
-239.116
11
12.6543
21
-239.158
0
LINE
8
BLACK
6
CONTINUOUS
10
12.5351
20
-239.077
11
12.5956
21
-239.116
0
LINE
8
BLACK
6
CONTINUOUS
10
12.4691
20
-239.037
11
12.5351
21
-239.077
0
LINE
8
BLACK
6
CONTINUOUS
10
12.4033
20
-239.001
11
12.4691
21
-239.037
0
LINE
8
BLACK
6
CONTINUOUS
10
12.3362
20
-238.968
11
12.4033
21
-239.001
0
LINE
8
BLACK
6
CONTINUOUS
10
12.266
20
-238.936
11
12.3362
21
-238.968
0
LINE
8
BLACK
6
CONTINUOUS
10
12.1945
20
-238.907
11
12.266
21
-238.936
0
LINE
8
BLACK
6
CONTINUOUS
10
12.12
20
-238.88
11
12.1945
21
-238.907
0
LINE
8
BLACK
6
CONTINUOUS
10
12.0404
20
-238.856
11
12.12
21
-238.88
0
LINE
8
BLACK
6
CONTINUOUS
10
11.9597
20
-238.834
11
12.0404
21
-238.856
0
LINE
8
BLACK
6
CONTINUOUS
10
11.874
20
-238.815
11
11.9597
21
-238.834
0
LINE
8
BLACK
6
CONTINUOUS
10
11.7852
20
-238.8
11
11.874
21
-238.815
0
LINE
8
BLACK
6
CONTINUOUS
10
11.6954
20
-238.789
11
11.7852
21
-238.8
0
LINE
8
BLACK
6
CONTINUOUS
10
11.5987
20
-238.782
11
11.6954
21
-238.789
0
LINE
8
BLACK
6
CONTINUOUS
10
11.5001
20
-238.779
11
11.5987
21
-238.782
0
LINE
8
BLACK
6
CONTINUOUS
10
11.495
20
-238.779
11
11.5001
21
-238.779
0
LINE
8
BLACK
6
CONTINUOUS
10
11.3969
20
-238.782
11
11.495
21
-238.779
0
LINE
8
BLACK
6
CONTINUOUS
10
11.3027
20
-238.789
11
11.3969
21
-238.782
0
LINE
8
BLACK
6
CONTINUOUS
10
11.213
20
-238.801
11
11.3027
21
-238.789
0
LINE
8
BLACK
6
CONTINUOUS
10
11.1264
20
-238.815
11
11.213
21
-238.801
0
LINE
8
BLACK
6
CONTINUOUS
10
11.0424
20
-238.834
11
11.1264
21
-238.815
0
LINE
8
BLACK
6
CONTINUOUS
10
10.9616
20
-238.855
11
11.0424
21
-238.834
0
LINE
8
BLACK
6
CONTINUOUS
10
10.8839
20
-238.879
11
10.9616
21
-238.855
0
LINE
8
BLACK
6
CONTINUOUS
10
10.8093
20
-238.906
11
10.8839
21
-238.879
0
LINE
8
BLACK
6
CONTINUOUS
10
10.7378
20
-238.934
11
10.8093
21
-238.906
0
LINE
8
BLACK
6
CONTINUOUS
10
10.6621
20
-238.969
11
10.7378
21
-238.934
0
LINE
8
BLACK
6
CONTINUOUS
10
10.5951
20
-239.002
11
10.6621
21
-238.969
0
LINE
8
BLACK
6
CONTINUOUS
10
10.5298
20
-239.038
11
10.5951
21
-239.002
0
LINE
8
BLACK
6
CONTINUOUS
10
10.4667
20
-239.076
11
10.5298
21
-239.038
0
LINE
8
BLACK
6
CONTINUOUS
10
10.4056
20
-239.115
11
10.4667
21
-239.076
0
LINE
8
BLACK
6
CONTINUOUS
10
10.3463
20
-239.157
11
10.4056
21
-239.115
0
LINE
8
BLACK
6
CONTINUOUS
10
10.2893
20
-239.201
11
10.3463
21
-239.157
0
LINE
8
BLACK
6
CONTINUOUS
10
10.2343
20
-239.246
11
10.2893
21
-239.201
0
LINE
8
BLACK
6
CONTINUOUS
10
10.1809
20
-239.293
11
10.2343
21
-239.246
0
LINE
8
BLACK
6
CONTINUOUS
10
10.1263
20
-239.345
11
10.1809
21
-239.293
0
LINE
8
BLACK
6
CONTINUOUS
10
10.0767
20
-239.396
11
10.1263
21
-239.345
0
LINE
8
BLACK
6
CONTINUOUS
10
10.0293
20
-239.449
11
10.0767
21
-239.396
0
LINE
8
BLACK
6
CONTINUOUS
10
9.9833
20
-239.504
11
10.0293
21
-239.449
0
LINE
8
BLACK
6
CONTINUOUS
10
9.9338
20
-239.568
11
9.9833
21
-239.504
0
LINE
8
BLACK
6
CONTINUOUS
10
9.8908
20
-239.628
11
9.9338
21
-239.568
0
LINE
8
BLACK
6
CONTINUOUS
10
9.8508
20
-239.689
11
9.8908
21
-239.628
0
LINE
8
BLACK
6
CONTINUOUS
10
9.8113
20
-239.754
11
9.8508
21
-239.689
0
LINE
8
BLACK
6
CONTINUOUS
10
9.8141
20
-241.709
11
9.8113
21
-241.704
0
LINE
8
BLACK
6
CONTINUOUS
10
9.854
20
-241.775
11
9.8141
21
-241.709
0
LINE
8
BLACK
6
CONTINUOUS
10
9.8957
20
-241.838
11
9.854
21
-241.775
0
LINE
8
BLACK
6
CONTINUOUS
10
9.938
20
-241.897
11
9.8957
21
-241.838
0
LINE
8
BLACK
6
CONTINUOUS
10
9.982
20
-241.953
11
9.938
21
-241.897
0
LINE
8
BLACK
6
CONTINUOUS
10
10.0283
20
-242.009
11
9.982
21
-241.953
0
LINE
8
BLACK
6
CONTINUOUS
10
10.0764
20
-242.062
11
10.0283
21
-242.009
0
LINE
8
BLACK
6
CONTINUOUS
10
10.1263
20
-242.113
11
10.0764
21
-242.062
0
LINE
8
BLACK
6
CONTINUOUS
10
10.1794
20
-242.164
11
10.1263
21
-242.113
0
LINE
8
BLACK
6
CONTINUOUS
10
10.2328
20
-242.211
11
10.1794
21
-242.164
0
LINE
8
BLACK
6
CONTINUOUS
10
10.2878
20
-242.257
11
10.2328
21
-242.211
0
LINE
8
BLACK
6
CONTINUOUS
10
10.3459
20
-242.301
11
10.2878
21
-242.257
0
LINE
8
BLACK
6
CONTINUOUS
10
10.4056
20
-242.343
11
10.3459
21
-242.301
0
LINE
8
BLACK
6
CONTINUOUS
10
10.4674
20
-242.383
11
10.4056
21
-242.343
0
LINE
8
BLACK
6
CONTINUOUS
10
10.5332
20
-242.423
11
10.4674
21
-242.383
0
LINE
8
BLACK
6
CONTINUOUS
10
10.5986
20
-242.458
11
10.5332
21
-242.423
0
LINE
8
BLACK
6
CONTINUOUS
10
10.6657
20
-242.492
11
10.5986
21
-242.458
0
LINE
8
BLACK
6
CONTINUOUS
10
10.7396
20
-242.525
11
10.6657
21
-242.492
0
LINE
8
BLACK
6
CONTINUOUS
10
10.8119
20
-242.554
11
10.7396
21
-242.525
0
LINE
8
BLACK
6
CONTINUOUS
10
10.8863
20
-242.58
11
10.8119
21
-242.554
0
LINE
8
BLACK
6
CONTINUOUS
10
10.9635
20
-242.604
11
10.8863
21
-242.58
0
LINE
8
BLACK
6
CONTINUOUS
10
11.0429
20
-242.625
11
10.9635
21
-242.604
0
LINE
8
BLACK
6
CONTINUOUS
10
11.1262
20
-242.643
11
11.0429
21
-242.625
0
LINE
8
BLACK
6
CONTINUOUS
10
11.2149
20
-242.658
11
11.1262
21
-242.643
0
LINE
8
BLACK
6
CONTINUOUS
10
11.3047
20
-242.67
11
11.2149
21
-242.658
0
LINE
8
BLACK
6
CONTINUOUS
10
11.402
20
-242.677
11
11.3047
21
-242.67
0
LINE
8
BLACK
6
CONTINUOUS
10
11.5001
20
-242.679
11
11.402
21
-242.677
0
LINE
8
BLACK
6
CONTINUOUS
10
9.8047
20
-239.766
11
9.8113
21
-239.754
0
LINE
8
BLACK
6
CONTINUOUS
10
9.7675
20
-239.834
11
9.8047
21
-239.766
0
LINE
8
BLACK
6
CONTINUOUS
10
9.7339
20
-239.903
11
9.7675
21
-239.834
0
LINE
8
BLACK
6
CONTINUOUS
10
9.7028
20
-239.973
11
9.7339
21
-239.903
0
LINE
8
BLACK
6
CONTINUOUS
10
9.6737
20
-240.046
11
9.7028
21
-239.973
0
LINE
8
BLACK
6
CONTINUOUS
10
9.6474
20
-240.121
11
9.6737
21
-240.046
0
LINE
8
BLACK
6
CONTINUOUS
10
9.6239
20
-240.198
11
9.6474
21
-240.121
0
LINE
8
BLACK
6
CONTINUOUS
10
9.6026
20
-240.28
11
9.6239
21
-240.198
0
LINE
8
BLACK
6
CONTINUOUS
10
9.5847
20
-240.363
11
9.6026
21
-240.28
0
LINE
8
BLACK
6
CONTINUOUS
10
9.5703
20
-240.449
11
9.5847
21
-240.363
0
LINE
8
BLACK
6
CONTINUOUS
10
9.5593
20
-240.54
11
9.5703
21
-240.449
0
LINE
8
BLACK
6
CONTINUOUS
10
9.5523
20
-240.636
11
9.5593
21
-240.54
0
LINE
8
BLACK
6
CONTINUOUS
10
9.5501
20
-240.74
11
9.5523
21
-240.636
0
LINE
8
BLACK
6
CONTINUOUS
10
9.5531
20
-240.839
11
9.5501
21
-240.74
0
LINE
8
BLACK
6
CONTINUOUS
10
9.5608
20
-240.933
11
9.5531
21
-240.839
0
LINE
8
BLACK
6
CONTINUOUS
10
9.573
20
-241.027
11
9.5608
21
-240.933
0
LINE
8
BLACK
6
CONTINUOUS
10
9.5882
20
-241.113
11
9.573
21
-241.027
0
LINE
8
BLACK
6
CONTINUOUS
10
9.6069
20
-241.197
11
9.5882
21
-241.113
0
LINE
8
BLACK
6
CONTINUOUS
10
9.6284
20
-241.276
11
9.6069
21
-241.197
0
LINE
8
BLACK
6
CONTINUOUS
10
9.6524
20
-241.353
11
9.6284
21
-241.276
0
LINE
8
BLACK
6
CONTINUOUS
10
9.6803
20
-241.43
11
9.6524
21
-241.353
0
LINE
8
BLACK
6
CONTINUOUS
10
9.7099
20
-241.503
11
9.6803
21
-241.43
0
LINE
8
BLACK
6
CONTINUOUS
10
9.7417
20
-241.572
11
9.7099
21
-241.503
0
LINE
8
BLACK
6
CONTINUOUS
10
9.7754
20
-241.639
11
9.7417
21
-241.572
0
LINE
8
BLACK
6
CONTINUOUS
10
9.8113
20
-241.704
11
9.7754
21
-241.639
0
LINE
8
BLACK
6
CONTINUOUS
10
11.5926
20
-242.677
11
11.5001
21
-242.679
0
LINE
8
BLACK
6
CONTINUOUS
10
11.6874
20
-242.67
11
11.5926
21
-242.677
0
LINE
8
BLACK
6
CONTINUOUS
10
11.7832
20
-242.659
11
11.6874
21
-242.67
0
LINE
8
BLACK
6
CONTINUOUS
10
11.8701
20
-242.644
11
11.7832
21
-242.659
0
LINE
8
BLACK
6
CONTINUOUS
10
11.9559
20
-242.625
11
11.8701
21
-242.644
0
LINE
8
BLACK
6
CONTINUOUS
10
12.0352
20
-242.605
11
11.9559
21
-242.625
0
LINE
8
BLACK
6
CONTINUOUS
10
12.1125
20
-242.581
11
12.0352
21
-242.605
0
LINE
8
BLACK
6
CONTINUOUS
10
12.1871
20
-242.554
11
12.1125
21
-242.581
0
LINE
8
BLACK
6
CONTINUOUS
10
12.2606
20
-242.525
11
12.1871
21
-242.554
0
LINE
8
BLACK
6
CONTINUOUS
10
12.3313
20
-242.493
11
12.2606
21
-242.525
0
LINE
8
BLACK
6
CONTINUOUS
10
12.3998
20
-242.459
11
12.3313
21
-242.493
0
LINE
8
BLACK
6
CONTINUOUS
10
12.4678
20
-242.422
11
12.3998
21
-242.459
0
LINE
8
BLACK
6
CONTINUOUS
10
12.5384
20
-242.38
11
12.4678
21
-242.422
0
LINE
8
BLACK
6
CONTINUOUS
10
12.5995
20
-242.34
11
12.5384
21
-242.38
0
LINE
8
BLACK
6
CONTINUOUS
10
12.6591
20
-242.298
11
12.5995
21
-242.34
0
LINE
8
BLACK
6
CONTINUOUS
10
12.7159
20
-242.254
11
12.6591
21
-242.298
0
LINE
8
BLACK
6
CONTINUOUS
10
12.7708
20
-242.208
11
12.7159
21
-242.254
0
LINE
8
BLACK
6
CONTINUOUS
10
12.8269
20
-242.158
11
12.7708
21
-242.208
0
LINE
8
BLACK
6
CONTINUOUS
10
12.8781
20
-242.109
11
12.8269
21
-242.158
0
LINE
8
BLACK
6
CONTINUOUS
10
12.9279
20
-242.058
11
12.8781
21
-242.109
0
LINE
8
BLACK
6
CONTINUOUS
10
12.9784
20
-242.001
11
12.9279
21
-242.058
0
LINE
8
BLACK
6
CONTINUOUS
10
13.0244
20
-241.945
11
12.9784
21
-242.001
0
LINE
8
BLACK
6
CONTINUOUS
10
13.0687
20
-241.888
11
13.0244
21
-241.945
0
LINE
8
BLACK
6
CONTINUOUS
10
13.1105
20
-241.829
11
13.0687
21
-241.888
0
LINE
8
BLACK
6
CONTINUOUS
10
13.1505
20
-241.768
11
13.1105
21
-241.829
0
LINE
8
BLACK
6
CONTINUOUS
10
13.1888
20
-241.704
11
13.1505
21
-241.768
0
LINE
8
BLACK
6
CONTINUOUS
10
9.8047
20
-116.716
11
9.8113
21
-116.704
0
LINE
8
BLACK
6
CONTINUOUS
10
9.7675
20
-116.784
11
9.8047
21
-116.716
0
LINE
8
BLACK
6
CONTINUOUS
10
9.7339
20
-116.853
11
9.7675
21
-116.784
0
LINE
8
BLACK
6
CONTINUOUS
10
9.7028
20
-116.923
11
9.7339
21
-116.853
0
LINE
8
BLACK
6
CONTINUOUS
10
9.6737
20
-116.996
11
9.7028
21
-116.923
0
LINE
8
BLACK
6
CONTINUOUS
10
9.6474
20
-117.071
11
9.6737
21
-116.996
0
LINE
8
BLACK
6
CONTINUOUS
10
9.6239
20
-117.148
11
9.6474
21
-117.071
0
LINE
8
BLACK
6
CONTINUOUS
10
9.6026
20
-117.23
11
9.6239
21
-117.148
0
LINE
8
BLACK
6
CONTINUOUS
10
9.5847
20
-117.313
11
9.6026
21
-117.23
0
LINE
8
BLACK
6
CONTINUOUS
10
9.5703
20
-117.399
11
9.5847
21
-117.313
0
LINE
8
BLACK
6
CONTINUOUS
10
9.5593
20
-117.49
11
9.5703
21
-117.399
0
LINE
8
BLACK
6
CONTINUOUS
10
9.5523
20
-117.586
11
9.5593
21
-117.49
0
LINE
8
BLACK
6
CONTINUOUS
10
9.5501
20
-117.69
11
9.5523
21
-117.586
0
LINE
8
BLACK
6
CONTINUOUS
10
9.5531
20
-117.789
11
9.5501
21
-117.69
0
LINE
8
BLACK
6
CONTINUOUS
10
9.5608
20
-117.883
11
9.5531
21
-117.789
0
LINE
8
BLACK
6
CONTINUOUS
10
9.573
20
-117.977
11
9.5608
21
-117.883
0
LINE
8
BLACK
6
CONTINUOUS
10
9.5882
20
-118.063
11
9.573
21
-117.977
0
LINE
8
BLACK
6
CONTINUOUS
10
9.6069
20
-118.147
11
9.5882
21
-118.063
0
LINE
8
BLACK
6
CONTINUOUS
10
9.6284
20
-118.227
11
9.6069
21
-118.147
0
LINE
8
BLACK
6
CONTINUOUS
10
9.6524
20
-118.303
11
9.6284
21
-118.227
0
LINE
8
BLACK
6
CONTINUOUS
10
9.6803
20
-118.38
11
9.6524
21
-118.303
0
LINE
8
BLACK
6
CONTINUOUS
10
9.7099
20
-118.453
11
9.6803
21
-118.38
0
LINE
8
BLACK
6
CONTINUOUS
10
9.7417
20
-118.522
11
9.7099
21
-118.453
0
LINE
8
BLACK
6
CONTINUOUS
10
9.7754
20
-118.589
11
9.7417
21
-118.522
0
LINE
8
BLACK
6
CONTINUOUS
10
9.8113
20
-118.654
11
9.7754
21
-118.589
0
LINE
8
BLACK
6
CONTINUOUS
10
13.1832
20
-116.695
11
13.1888
21
-116.704
0
LINE
8
BLACK
6
CONTINUOUS
10
13.1452
20
-116.632
11
13.1832
21
-116.695
0
LINE
8
BLACK
6
CONTINUOUS
10
13.1048
20
-116.571
11
13.1452
21
-116.632
0
LINE
8
BLACK
6
CONTINUOUS
10
13.0621
20
-116.512
11
13.1048
21
-116.571
0
LINE
8
BLACK
6
CONTINUOUS
10
13.0181
20
-116.455
11
13.0621
21
-116.512
0
LINE
8
BLACK
6
CONTINUOUS
10
12.9719
20
-116.4
11
13.0181
21
-116.455
0
LINE
8
BLACK
6
CONTINUOUS
10
12.9221
20
-116.345
11
12.9719
21
-116.4
0
LINE
8
BLACK
6
CONTINUOUS
10
12.8721
20
-116.294
11
12.9221
21
-116.345
0
LINE
8
BLACK
6
CONTINUOUS
10
12.8208
20
-116.245
11
12.8721
21
-116.294
0
LINE
8
BLACK
6
CONTINUOUS
10
12.7674
20
-116.197
11
12.8208
21
-116.245
0
LINE
8
BLACK
6
CONTINUOUS
10
12.7124
20
-116.152
11
12.7674
21
-116.197
0
LINE
8
BLACK
6
CONTINUOUS
10
12.6543
20
-116.108
11
12.7124
21
-116.152
0
LINE
8
BLACK
6
CONTINUOUS
10
12.5956
20
-116.066
11
12.6543
21
-116.108
0
LINE
8
BLACK
6
CONTINUOUS
10
12.5351
20
-116.027
11
12.5956
21
-116.066
0
LINE
8
BLACK
6
CONTINUOUS
10
12.4691
20
-115.987
11
12.5351
21
-116.027
0
LINE
8
BLACK
6
CONTINUOUS
10
12.4033
20
-115.951
11
12.4691
21
-115.987
0
LINE
8
BLACK
6
CONTINUOUS
10
12.3362
20
-115.918
11
12.4033
21
-115.951
0
LINE
8
BLACK
6
CONTINUOUS
10
12.266
20
-115.886
11
12.3362
21
-115.918
0
LINE
8
BLACK
6
CONTINUOUS
10
12.1945
20
-115.857
11
12.266
21
-115.886
0
LINE
8
BLACK
6
CONTINUOUS
10
12.12
20
-115.831
11
12.1945
21
-115.857
0
LINE
8
BLACK
6
CONTINUOUS
10
12.0404
20
-115.806
11
12.12
21
-115.831
0
LINE
8
BLACK
6
CONTINUOUS
10
11.9597
20
-115.784
11
12.0404
21
-115.806
0
LINE
8
BLACK
6
CONTINUOUS
10
11.874
20
-115.766
11
11.9597
21
-115.784
0
LINE
8
BLACK
6
CONTINUOUS
10
11.7852
20
-115.75
11
11.874
21
-115.766
0
LINE
8
BLACK
6
CONTINUOUS
10
11.6954
20
-115.739
11
11.7852
21
-115.75
0
LINE
8
BLACK
6
CONTINUOUS
10
11.5987
20
-115.732
11
11.6954
21
-115.739
0
LINE
8
BLACK
6
CONTINUOUS
10
11.5001
20
-115.729
11
11.5987
21
-115.732
0
LINE
8
BLACK
6
CONTINUOUS
10
11.495
20
-115.729
11
11.5001
21
-115.729
0
LINE
8
BLACK
6
CONTINUOUS
10
11.3969
20
-115.732
11
11.495
21
-115.729
0
LINE
8
BLACK
6
CONTINUOUS
10
11.3027
20
-115.739
11
11.3969
21
-115.732
0
LINE
8
BLACK
6
CONTINUOUS
10
11.213
20
-115.751
11
11.3027
21
-115.739
0
LINE
8
BLACK
6
CONTINUOUS
10
11.1264
20
-115.765
11
11.213
21
-115.751
0
LINE
8
BLACK
6
CONTINUOUS
10
11.0424
20
-115.784
11
11.1264
21
-115.765
0
LINE
8
BLACK
6
CONTINUOUS
10
10.9616
20
-115.805
11
11.0424
21
-115.784
0
LINE
8
BLACK
6
CONTINUOUS
10
10.8839
20
-115.829
11
10.9616
21
-115.805
0
LINE
8
BLACK
6
CONTINUOUS
10
10.8093
20
-115.856
11
10.8839
21
-115.829
0
LINE
8
BLACK
6
CONTINUOUS
10
10.7378
20
-115.885
11
10.8093
21
-115.856
0
LINE
8
BLACK
6
CONTINUOUS
10
10.6621
20
-115.919
11
10.7378
21
-115.885
0
LINE
8
BLACK
6
CONTINUOUS
10
10.5951
20
-115.952
11
10.6621
21
-115.919
0
LINE
8
BLACK
6
CONTINUOUS
10
10.5298
20
-115.988
11
10.5951
21
-115.952
0
LINE
8
BLACK
6
CONTINUOUS
10
10.4667
20
-116.026
11
10.5298
21
-115.988
0
LINE
8
BLACK
6
CONTINUOUS
10
10.4056
20
-116.066
11
10.4667
21
-116.026
0
LINE
8
BLACK
6
CONTINUOUS
10
10.3463
20
-116.107
11
10.4056
21
-116.066
0
LINE
8
BLACK
6
CONTINUOUS
10
10.2893
20
-116.151
11
10.3463
21
-116.107
0
LINE
8
BLACK
6
CONTINUOUS
10
10.2343
20
-116.196
11
10.2893
21
-116.151
0
LINE
8
BLACK
6
CONTINUOUS
10
10.1809
20
-116.243
11
10.2343
21
-116.196
0
LINE
8
BLACK
6
CONTINUOUS
10
10.1263
20
-116.295
11
10.1809
21
-116.243
0
LINE
8
BLACK
6
CONTINUOUS
10
10.0767
20
-116.346
11
10.1263
21
-116.295
0
LINE
8
BLACK
6
CONTINUOUS
10
10.0293
20
-116.399
11
10.0767
21
-116.346
0
LINE
8
BLACK
6
CONTINUOUS
10
9.9833
20
-116.454
11
10.0293
21
-116.399
0
LINE
8
BLACK
6
CONTINUOUS
10
9.9338
20
-116.518
11
9.9833
21
-116.454
0
LINE
8
BLACK
6
CONTINUOUS
10
9.8908
20
-116.578
11
9.9338
21
-116.518
0
LINE
8
BLACK
6
CONTINUOUS
10
9.8508
20
-116.639
11
9.8908
21
-116.578
0
LINE
8
BLACK
6
CONTINUOUS
10
9.8113
20
-116.704
11
9.8508
21
-116.639
0
LINE
8
BLACK
6
CONTINUOUS
10
11.5926
20
-119.627
11
11.5001
21
-119.629
0
LINE
8
BLACK
6
CONTINUOUS
10
11.6874
20
-119.62
11
11.5926
21
-119.627
0
LINE
8
BLACK
6
CONTINUOUS
10
11.7832
20
-119.609
11
11.6874
21
-119.62
0
LINE
8
BLACK
6
CONTINUOUS
10
11.8701
20
-119.594
11
11.7832
21
-119.609
0
LINE
8
BLACK
6
CONTINUOUS
10
11.9559
20
-119.575
11
11.8701
21
-119.594
0
LINE
8
BLACK
6
CONTINUOUS
10
12.0352
20
-119.555
11
11.9559
21
-119.575
0
LINE
8
BLACK
6
CONTINUOUS
10
12.1125
20
-119.531
11
12.0352
21
-119.555
0
LINE
8
BLACK
6
CONTINUOUS
10
12.1871
20
-119.504
11
12.1125
21
-119.531
0
LINE
8
BLACK
6
CONTINUOUS
10
12.2606
20
-119.475
11
12.1871
21
-119.504
0
LINE
8
BLACK
6
CONTINUOUS
10
12.3313
20
-119.443
11
12.2606
21
-119.475
0
LINE
8
BLACK
6
CONTINUOUS
10
12.3998
20
-119.409
11
12.3313
21
-119.443
0
LINE
8
BLACK
6
CONTINUOUS
10
12.4678
20
-119.372
11
12.3998
21
-119.409
0
LINE
8
BLACK
6
CONTINUOUS
10
12.5384
20
-119.33
11
12.4678
21
-119.372
0
LINE
8
BLACK
6
CONTINUOUS
10
12.5995
20
-119.29
11
12.5384
21
-119.33
0
LINE
8
BLACK
6
CONTINUOUS
10
12.6591
20
-119.248
11
12.5995
21
-119.29
0
LINE
8
BLACK
6
CONTINUOUS
10
12.7159
20
-119.204
11
12.6591
21
-119.248
0
LINE
8
BLACK
6
CONTINUOUS
10
12.7708
20
-119.159
11
12.7159
21
-119.204
0
LINE
8
BLACK
6
CONTINUOUS
10
12.8269
20
-119.108
11
12.7708
21
-119.159
0
LINE
8
BLACK
6
CONTINUOUS
10
12.8781
20
-119.059
11
12.8269
21
-119.108
0
LINE
8
BLACK
6
CONTINUOUS
10
12.9279
20
-119.008
11
12.8781
21
-119.059
0
LINE
8
BLACK
6
CONTINUOUS
10
12.9784
20
-118.951
11
12.9279
21
-119.008
0
LINE
8
BLACK
6
CONTINUOUS
10
13.0244
20
-118.896
11
12.9784
21
-118.951
0
LINE
8
BLACK
6
CONTINUOUS
10
13.0687
20
-118.838
11
13.0244
21
-118.896
0
LINE
8
BLACK
6
CONTINUOUS
10
13.1105
20
-118.779
11
13.0687
21
-118.838
0
LINE
8
BLACK
6
CONTINUOUS
10
13.1505
20
-118.718
11
13.1105
21
-118.779
0
LINE
8
BLACK
6
CONTINUOUS
10
13.1888
20
-118.654
11
13.1505
21
-118.718
0
LINE
8
BLACK
6
CONTINUOUS
10
9.8141
20
-118.659
11
9.8113
21
-118.654
0
LINE
8
BLACK
6
CONTINUOUS
10
9.854
20
-118.725
11
9.8141
21
-118.659
0
LINE
8
BLACK
6
CONTINUOUS
10
9.8957
20
-118.788
11
9.854
21
-118.725
0
LINE
8
BLACK
6
CONTINUOUS
10
9.938
20
-118.847
11
9.8957
21
-118.788
0
LINE
8
BLACK
6
CONTINUOUS
10
9.982
20
-118.903
11
9.938
21
-118.847
0
LINE
8
BLACK
6
CONTINUOUS
10
10.0283
20
-118.959
11
9.982
21
-118.903
0
LINE
8
BLACK
6
CONTINUOUS
10
10.0764
20
-119.012
11
10.0283
21
-118.959
0
LINE
8
BLACK
6
CONTINUOUS
10
10.1263
20
-119.063
11
10.0764
21
-119.012
0
LINE
8
BLACK
6
CONTINUOUS
10
10.1794
20
-119.114
11
10.1263
21
-119.063
0
LINE
8
BLACK
6
CONTINUOUS
10
10.2328
20
-119.161
11
10.1794
21
-119.114
0
LINE
8
BLACK
6
CONTINUOUS
10
10.2878
20
-119.207
11
10.2328
21
-119.161
0
LINE
8
BLACK
6
CONTINUOUS
10
10.3459
20
-119.251
11
10.2878
21
-119.207
0
LINE
8
BLACK
6
CONTINUOUS
10
10.4056
20
-119.293
11
10.3459
21
-119.251
0
LINE
8
BLACK
6
CONTINUOUS
10
10.4674
20
-119.334
11
10.4056
21
-119.293
0
LINE
8
BLACK
6
CONTINUOUS
10
10.5332
20
-119.373
11
10.4674
21
-119.334
0
LINE
8
BLACK
6
CONTINUOUS
10
10.5986
20
-119.408
11
10.5332
21
-119.373
0
LINE
8
BLACK
6
CONTINUOUS
10
10.6657
20
-119.442
11
10.5986
21
-119.408
0
LINE
8
BLACK
6
CONTINUOUS
10
10.7396
20
-119.475
11
10.6657
21
-119.442
0
LINE
8
BLACK
6
CONTINUOUS
10
10.8119
20
-119.504
11
10.7396
21
-119.475
0
LINE
8
BLACK
6
CONTINUOUS
10
10.8863
20
-119.53
11
10.8119
21
-119.504
0
LINE
8
BLACK
6
CONTINUOUS
10
10.9635
20
-119.554
11
10.8863
21
-119.53
0
LINE
8
BLACK
6
CONTINUOUS
10
11.0429
20
-119.575
11
10.9635
21
-119.554
0
LINE
8
BLACK
6
CONTINUOUS
10
11.1262
20
-119.593
11
11.0429
21
-119.575
0
LINE
8
BLACK
6
CONTINUOUS
10
11.2149
20
-119.608
11
11.1262
21
-119.593
0
LINE
8
BLACK
6
CONTINUOUS
10
11.3047
20
-119.62
11
11.2149
21
-119.608
0
LINE
8
BLACK
6
CONTINUOUS
10
11.402
20
-119.627
11
11.3047
21
-119.62
0
LINE
8
BLACK
6
CONTINUOUS
10
11.5001
20
-119.629
11
11.402
21
-119.627
0
LINE
8
BLACK
6
CONTINUOUS
10
13.1943
20
-118.645
11
13.1888
21
-118.654
0
LINE
8
BLACK
6
CONTINUOUS
10
13.233
20
-118.574
11
13.1943
21
-118.645
0
LINE
8
BLACK
6
CONTINUOUS
10
13.2662
20
-118.506
11
13.233
21
-118.574
0
LINE
8
BLACK
6
CONTINUOUS
10
13.2973
20
-118.436
11
13.2662
21
-118.506
0
LINE
8
BLACK
6
CONTINUOUS
10
13.3261
20
-118.364
11
13.2973
21
-118.436
0
LINE
8
BLACK
6
CONTINUOUS
10
13.3521
20
-118.29
11
13.3261
21
-118.364
0
LINE
8
BLACK
6
CONTINUOUS
10
13.3766
20
-118.21
11
13.3521
21
-118.29
0
LINE
8
BLACK
6
CONTINUOUS
10
13.3976
20
-118.129
11
13.3766
21
-118.21
0
LINE
8
BLACK
6
CONTINUOUS
10
13.4154
20
-118.046
11
13.3976
21
-118.129
0
LINE
8
BLACK
6
CONTINUOUS
10
13.4301
20
-117.958
11
13.4154
21
-118.046
0
LINE
8
BLACK
6
CONTINUOUS
10
13.4414
20
-117.863
11
13.4301
21
-117.958
0
LINE
8
BLACK
6
CONTINUOUS
10
13.448
20
-117.769
11
13.4414
21
-117.863
0
LINE
8
BLACK
6
CONTINUOUS
10
13.4501
20
-117.671
11
13.448
21
-117.769
0
LINE
8
BLACK
6
CONTINUOUS
10
13.447
20
-117.57
11
13.4501
21
-117.671
0
LINE
8
BLACK
6
CONTINUOUS
10
13.4394
20
-117.476
11
13.447
21
-117.57
0
LINE
8
BLACK
6
CONTINUOUS
10
13.4277
20
-117.385
11
13.4394
21
-117.476
0
LINE
8
BLACK
6
CONTINUOUS
10
13.4118
20
-117.295
11
13.4277
21
-117.385
0
LINE
8
BLACK
6
CONTINUOUS
10
13.3934
20
-117.212
11
13.4118
21
-117.295
0
LINE
8
BLACK
6
CONTINUOUS
10
13.3717
20
-117.132
11
13.3934
21
-117.212
0
LINE
8
BLACK
6
CONTINUOUS
10
13.3477
20
-117.056
11
13.3717
21
-117.132
0
LINE
8
BLACK
6
CONTINUOUS
10
13.3206
20
-116.98
11
13.3477
21
-117.056
0
LINE
8
BLACK
6
CONTINUOUS
10
13.2902
20
-116.906
11
13.3206
21
-116.98
0
LINE
8
BLACK
6
CONTINUOUS
10
13.2582
20
-116.836
11
13.2902
21
-116.906
0
LINE
8
BLACK
6
CONTINUOUS
10
13.2245
20
-116.769
11
13.2582
21
-116.836
0
LINE
8
BLACK
6
CONTINUOUS
10
13.1888
20
-116.704
11
13.2245
21
-116.769
0
LINE
8
BLACK
6
CONTINUOUS
10
1.534
20
-112.596
11
1.534
21
-246.099
0
LINE
8
BLACK
6
CONTINUOUS
10
102.034
20
-107.696
11
6.434
21
-107.696
0
ARC
8
BLACK
10
6.434
20
-112.596
40
4.9
50
90
51
180
0
ARC
8
BLACK
10
102.034
20
-112.596
40
4.9
50
-0
51
90
0
LINE
8
BLACK
6
CONTINUOUS
10
63.8294
20
-259.453
11
63.8315
21
-259.388
0
LINE
8
BLACK
6
CONTINUOUS
10
63.8193
20
-259.544
11
63.8294
21
-259.453
0
LINE
8
BLACK
6
CONTINUOUS
10
63.8025
20
-259.628
11
63.8193
21
-259.544
0
LINE
8
BLACK
6
CONTINUOUS
10
63.7792
20
-259.708
11
63.8025
21
-259.628
0
LINE
8
BLACK
6
CONTINUOUS
10
63.7506
20
-259.782
11
63.7792
21
-259.708
0
LINE
8
BLACK
6
CONTINUOUS
10
63.7182
20
-259.85
11
63.7506
21
-259.782
0
LINE
8
BLACK
6
CONTINUOUS
10
63.6816
20
-259.914
11
63.7182
21
-259.85
0
LINE
8
BLACK
6
CONTINUOUS
10
63.6405
20
-259.975
11
63.6816
21
-259.914
0
LINE
8
BLACK
6
CONTINUOUS
10
63.5959
20
-260.032
11
63.6405
21
-259.975
0
LINE
8
BLACK
6
CONTINUOUS
10
63.5478
20
-260.085
11
63.5959
21
-260.032
0
LINE
8
BLACK
6
CONTINUOUS
10
63.4966
20
-260.134
11
63.5478
21
-260.085
0
LINE
8
BLACK
6
CONTINUOUS
10
63.4409
20
-260.181
11
63.4966
21
-260.134
0
LINE
8
BLACK
6
CONTINUOUS
10
63.3809
20
-260.223
11
63.4409
21
-260.181
0
LINE
8
BLACK
6
CONTINUOUS
10
63.3167
20
-260.262
11
63.3809
21
-260.223
0
LINE
8
BLACK
6
CONTINUOUS
10
63.2503
20
-260.296
11
63.3167
21
-260.262
0
LINE
8
BLACK
6
CONTINUOUS
10
63.1775
20
-260.326
11
63.2503
21
-260.296
0
LINE
8
BLACK
6
CONTINUOUS
10
63.1
20
-260.351
11
63.1775
21
-260.326
0
LINE
8
BLACK
6
CONTINUOUS
10
63.0185
20
-260.37
11
63.1
21
-260.351
0
LINE
8
BLACK
6
CONTINUOUS
10
62.9282
20
-260.383
11
63.0185
21
-260.37
0
LINE
8
BLACK
6
CONTINUOUS
10
62.8315
20
-260.388
11
62.9282
21
-260.383
0
LINE
8
BLACK
6
CONTINUOUS
10
63.8322
20
-259.386
11
63.8322
21
-256.624
0
LINE
8
BLACK
6
CONTINUOUS
10
83.8181
20
-265.15
11
83.8788
21
-265.152
0
LINE
8
BLACK
6
CONTINUOUS
10
83.7273
20
-265.14
11
83.8181
21
-265.15
0
LINE
8
BLACK
6
CONTINUOUS
10
83.6431
20
-265.124
11
83.7273
21
-265.14
0
LINE
8
BLACK
6
CONTINUOUS
10
83.5631
20
-265.101
11
83.6431
21
-265.124
0
LINE
8
BLACK
6
CONTINUOUS
10
83.4902
20
-265.073
11
83.5631
21
-265.101
0
LINE
8
BLACK
6
CONTINUOUS
10
83.4215
20
-265.041
11
83.4902
21
-265.073
0
LINE
8
BLACK
6
CONTINUOUS
10
83.3554
20
-265.004
11
83.4215
21
-265.041
0
LINE
8
BLACK
6
CONTINUOUS
10
83.2932
20
-264.962
11
83.3554
21
-265.004
0
LINE
8
BLACK
6
CONTINUOUS
10
83.2332
20
-264.915
11
83.2932
21
-264.962
0
LINE
8
BLACK
6
CONTINUOUS
10
83.1805
20
-264.867
11
83.2332
21
-264.915
0
LINE
8
BLACK
6
CONTINUOUS
10
83.1307
20
-264.815
11
83.1805
21
-264.867
0
LINE
8
BLACK
6
CONTINUOUS
10
83.0853
20
-264.76
11
83.1307
21
-264.815
0
LINE
8
BLACK
6
CONTINUOUS
10
83.0431
20
-264.701
11
83.0853
21
-264.76
0
LINE
8
BLACK
6
CONTINUOUS
10
83.0042
20
-264.637
11
83.0431
21
-264.701
0
LINE
8
BLACK
6
CONTINUOUS
10
82.9695
20
-264.568
11
83.0042
21
-264.637
0
LINE
8
BLACK
6
CONTINUOUS
10
82.9401
20
-264.497
11
82.9695
21
-264.568
0
LINE
8
BLACK
6
CONTINUOUS
10
82.9155
20
-264.421
11
82.9401
21
-264.497
0
LINE
8
BLACK
6
CONTINUOUS
10
82.8962
20
-264.339
11
82.9155
21
-264.421
0
LINE
8
BLACK
6
CONTINUOUS
10
82.8836
20
-264.251
11
82.8962
21
-264.339
0
LINE
8
BLACK
6
CONTINUOUS
10
82.8788
20
-264.152
11
82.8836
21
-264.251
0
LINE
8
BLACK
6
CONTINUOUS
10
1.534
20
-246.099
11
24.7307
21
-246.099
0
LINE
8
BLACK
6
CONTINUOUS
10
26.7297
20
-250.862
11
43.7807
21
-250.862
0
LINE
8
BLACK
6
CONTINUOUS
10
81.9468
20
-255.629
11
81.8788
21
-255.627
0
LINE
8
BLACK
6
CONTINUOUS
10
82.0427
20
-255.64
11
81.9468
21
-255.629
0
LINE
8
BLACK
6
CONTINUOUS
10
82.1261
20
-255.657
11
82.0427
21
-255.64
0
LINE
8
BLACK
6
CONTINUOUS
10
82.2035
20
-255.681
11
82.1261
21
-255.657
0
LINE
8
BLACK
6
CONTINUOUS
10
82.2761
20
-255.709
11
82.2035
21
-255.681
0
LINE
8
BLACK
6
CONTINUOUS
10
82.3473
20
-255.743
11
82.2761
21
-255.709
0
LINE
8
BLACK
6
CONTINUOUS
10
82.4117
20
-255.78
11
82.3473
21
-255.743
0
LINE
8
BLACK
6
CONTINUOUS
10
82.4717
20
-255.821
11
82.4117
21
-255.78
0
LINE
8
BLACK
6
CONTINUOUS
10
82.5281
20
-255.866
11
82.4717
21
-255.821
0
LINE
8
BLACK
6
CONTINUOUS
10
82.5808
20
-255.914
11
82.5281
21
-255.866
0
LINE
8
BLACK
6
CONTINUOUS
10
82.6295
20
-255.966
11
82.5808
21
-255.914
0
LINE
8
BLACK
6
CONTINUOUS
10
82.6752
20
-256.022
11
82.6295
21
-255.966
0
LINE
8
BLACK
6
CONTINUOUS
10
82.7167
20
-256.081
11
82.6752
21
-256.022
0
LINE
8
BLACK
6
CONTINUOUS
10
82.7548
20
-256.144
11
82.7167
21
-256.081
0
LINE
8
BLACK
6
CONTINUOUS
10
82.7895
20
-256.213
11
82.7548
21
-256.144
0
LINE
8
BLACK
6
CONTINUOUS
10
82.8186
20
-256.284
11
82.7895
21
-256.213
0
LINE
8
BLACK
6
CONTINUOUS
10
82.8428
20
-256.36
11
82.8186
21
-256.284
0
LINE
8
BLACK
6
CONTINUOUS
10
82.8616
20
-256.441
11
82.8428
21
-256.36
0
LINE
8
BLACK
6
CONTINUOUS
10
82.8742
20
-256.53
11
82.8616
21
-256.441
0
LINE
8
BLACK
6
CONTINUOUS
10
82.8788
20
-256.627
11
82.8742
21
-256.53
0
LINE
8
BLACK
6
CONTINUOUS
10
24.7967
20
-246.104
11
24.7287
21
-246.102
0
LINE
8
BLACK
6
CONTINUOUS
10
24.8926
20
-246.115
11
24.7967
21
-246.104
0
LINE
8
BLACK
6
CONTINUOUS
10
24.976
20
-246.132
11
24.8926
21
-246.115
0
LINE
8
BLACK
6
CONTINUOUS
10
25.0534
20
-246.156
11
24.976
21
-246.132
0
LINE
8
BLACK
6
CONTINUOUS
10
25.126
20
-246.184
11
25.0534
21
-246.156
0
LINE
8
BLACK
6
CONTINUOUS
10
25.1972
20
-246.218
11
25.126
21
-246.184
0
LINE
8
BLACK
6
CONTINUOUS
10
25.2616
20
-246.255
11
25.1972
21
-246.218
0
LINE
8
BLACK
6
CONTINUOUS
10
25.3216
20
-246.296
11
25.2616
21
-246.255
0
LINE
8
BLACK
6
CONTINUOUS
10
25.378
20
-246.341
11
25.3216
21
-246.296
0
LINE
8
BLACK
6
CONTINUOUS
10
25.4307
20
-246.389
11
25.378
21
-246.341
0
LINE
8
BLACK
6
CONTINUOUS
10
25.4794
20
-246.441
11
25.4307
21
-246.389
0
LINE
8
BLACK
6
CONTINUOUS
10
25.5251
20
-246.497
11
25.4794
21
-246.441
0
LINE
8
BLACK
6
CONTINUOUS
10
25.5666
20
-246.556
11
25.5251
21
-246.497
0
LINE
8
BLACK
6
CONTINUOUS
10
25.6047
20
-246.619
11
25.5666
21
-246.556
0
LINE
8
BLACK
6
CONTINUOUS
10
25.6394
20
-246.688
11
25.6047
21
-246.619
0
LINE
8
BLACK
6
CONTINUOUS
10
25.6685
20
-246.759
11
25.6394
21
-246.688
0
LINE
8
BLACK
6
CONTINUOUS
10
25.6927
20
-246.835
11
25.6685
21
-246.759
0
LINE
8
BLACK
6
CONTINUOUS
10
25.7115
20
-246.916
11
25.6927
21
-246.835
0
LINE
8
BLACK
6
CONTINUOUS
10
25.7241
20
-247.005
11
25.7115
21
-246.916
0
LINE
8
BLACK
6
CONTINUOUS
10
25.7287
20
-247.102
11
25.7241
21
-247.005
0
LINE
8
BLACK
6
CONTINUOUS
10
64.8322
20
-255.624
11
81.8807
21
-255.624
0
LINE
8
BLACK
6
CONTINUOUS
10
43.8467
20
-250.865
11
43.7787
21
-250.863
0
LINE
8
BLACK
6
CONTINUOUS
10
43.9426
20
-250.876
11
43.8467
21
-250.865
0
LINE
8
BLACK
6
CONTINUOUS
10
44.026
20
-250.893
11
43.9426
21
-250.876
0
LINE
8
BLACK
6
CONTINUOUS
10
44.1034
20
-250.916
11
44.026
21
-250.893
0
LINE
8
BLACK
6
CONTINUOUS
10
44.176
20
-250.945
11
44.1034
21
-250.916
0
LINE
8
BLACK
6
CONTINUOUS
10
44.2472
20
-250.979
11
44.176
21
-250.945
0
LINE
8
BLACK
6
CONTINUOUS
10
44.3116
20
-251.016
11
44.2472
21
-250.979
0
LINE
8
BLACK
6
CONTINUOUS
10
44.3716
20
-251.057
11
44.3116
21
-251.016
0
LINE
8
BLACK
6
CONTINUOUS
10
44.428
20
-251.102
11
44.3716
21
-251.057
0
LINE
8
BLACK
6
CONTINUOUS
10
44.4807
20
-251.15
11
44.428
21
-251.102
0
LINE
8
BLACK
6
CONTINUOUS
10
44.5294
20
-251.202
11
44.4807
21
-251.15
0
LINE
8
BLACK
6
CONTINUOUS
10
44.5751
20
-251.258
11
44.5294
21
-251.202
0
LINE
8
BLACK
6
CONTINUOUS
10
44.6166
20
-251.317
11
44.5751
21
-251.258
0
LINE
8
BLACK
6
CONTINUOUS
10
44.6547
20
-251.38
11
44.6166
21
-251.317
0
LINE
8
BLACK
6
CONTINUOUS
10
44.6894
20
-251.449
11
44.6547
21
-251.38
0
LINE
8
BLACK
6
CONTINUOUS
10
44.7184
20
-251.52
11
44.6894
21
-251.449
0
LINE
8
BLACK
6
CONTINUOUS
10
44.7427
20
-251.596
11
44.7184
21
-251.52
0
LINE
8
BLACK
6
CONTINUOUS
10
44.7615
20
-251.677
11
44.7427
21
-251.596
0
LINE
8
BLACK
6
CONTINUOUS
10
44.7741
20
-251.766
11
44.7615
21
-251.677
0
LINE
8
BLACK
6
CONTINUOUS
10
44.7787
20
-251.863
11
44.7741
21
-251.766
0
LINE
8
BLACK
6
CONTINUOUS
10
44.7789
20
-251.86
11
44.7789
21
-259.386
0
LINE
8
BLACK
6
CONTINUOUS
10
25.7289
20
-247.1
11
25.7289
21
-249.861
0
LINE
8
BLACK
6
CONTINUOUS
10
83.8797
20
-265.149
11
106.934
21
-265.149
0
LINE
8
BLACK
6
CONTINUOUS
10
26.668
20
-250.861
11
26.7287
21
-250.863
0
LINE
8
BLACK
6
CONTINUOUS
10
26.5772
20
-250.851
11
26.668
21
-250.861
0
LINE
8
BLACK
6
CONTINUOUS
10
26.493
20
-250.835
11
26.5772
21
-250.851
0
LINE
8
BLACK
6
CONTINUOUS
10
26.413
20
-250.812
11
26.493
21
-250.835
0
LINE
8
BLACK
6
CONTINUOUS
10
26.3401
20
-250.784
11
26.413
21
-250.812
0
LINE
8
BLACK
6
CONTINUOUS
10
26.2714
20
-250.752
11
26.3401
21
-250.784
0
LINE
8
BLACK
6
CONTINUOUS
10
26.2053
20
-250.715
11
26.2714
21
-250.752
0
LINE
8
BLACK
6
CONTINUOUS
10
26.1431
20
-250.673
11
26.2053
21
-250.715
0
LINE
8
BLACK
6
CONTINUOUS
10
26.0831
20
-250.626
11
26.1431
21
-250.673
0
LINE
8
BLACK
6
CONTINUOUS
10
26.0304
20
-250.578
11
26.0831
21
-250.626
0
LINE
8
BLACK
6
CONTINUOUS
10
25.9806
20
-250.526
11
26.0304
21
-250.578
0
LINE
8
BLACK
6
CONTINUOUS
10
25.9352
20
-250.471
11
25.9806
21
-250.526
0
LINE
8
BLACK
6
CONTINUOUS
10
25.893
20
-250.412
11
25.9352
21
-250.471
0
LINE
8
BLACK
6
CONTINUOUS
10
25.8541
20
-250.348
11
25.893
21
-250.412
0
LINE
8
BLACK
6
CONTINUOUS
10
25.8194
20
-250.279
11
25.8541
21
-250.348
0
LINE
8
BLACK
6
CONTINUOUS
10
25.79
20
-250.208
11
25.8194
21
-250.279
0
LINE
8
BLACK
6
CONTINUOUS
10
25.7654
20
-250.132
11
25.79
21
-250.208
0
LINE
8
BLACK
6
CONTINUOUS
10
25.7461
20
-250.05
11
25.7654
21
-250.132
0
LINE
8
BLACK
6
CONTINUOUS
10
25.7335
20
-249.962
11
25.7461
21
-250.05
0
LINE
8
BLACK
6
CONTINUOUS
10
25.7287
20
-249.863
11
25.7335
21
-249.962
0
LINE
8
BLACK
6
CONTINUOUS
10
45.7797
20
-260.387
11
62.8332
21
-260.387
0
LINE
8
BLACK
6
CONTINUOUS
10
82.8789
20
-256.625
11
82.8789
21
-264.151
0
LINE
8
BLACK
6
CONTINUOUS
10
45.718
20
-260.386
11
45.7787
21
-260.388
0
LINE
8
BLACK
6
CONTINUOUS
10
45.6272
20
-260.376
11
45.718
21
-260.386
0
LINE
8
BLACK
6
CONTINUOUS
10
45.543
20
-260.36
11
45.6272
21
-260.376
0
LINE
8
BLACK
6
CONTINUOUS
10
45.463
20
-260.337
11
45.543
21
-260.36
0
LINE
8
BLACK
6
CONTINUOUS
10
45.3901
20
-260.309
11
45.463
21
-260.337
0
LINE
8
BLACK
6
CONTINUOUS
10
45.3214
20
-260.277
11
45.3901
21
-260.309
0
LINE
8
BLACK
6
CONTINUOUS
10
45.2553
20
-260.24
11
45.3214
21
-260.277
0
LINE
8
BLACK
6
CONTINUOUS
10
45.1931
20
-260.198
11
45.2553
21
-260.24
0
LINE
8
BLACK
6
CONTINUOUS
10
45.1331
20
-260.151
11
45.1931
21
-260.198
0
LINE
8
BLACK
6
CONTINUOUS
10
45.0804
20
-260.103
11
45.1331
21
-260.151
0
LINE
8
BLACK
6
CONTINUOUS
10
45.0306
20
-260.051
11
45.0804
21
-260.103
0
LINE
8
BLACK
6
CONTINUOUS
10
44.9852
20
-259.996
11
45.0306
21
-260.051
0
LINE
8
BLACK
6
CONTINUOUS
10
44.943
20
-259.937
11
44.9852
21
-259.996
0
LINE
8
BLACK
6
CONTINUOUS
10
44.9041
20
-259.873
11
44.943
21
-259.937
0
LINE
8
BLACK
6
CONTINUOUS
10
44.8694
20
-259.804
11
44.9041
21
-259.873
0
LINE
8
BLACK
6
CONTINUOUS
10
44.84
20
-259.733
11
44.8694
21
-259.804
0
LINE
8
BLACK
6
CONTINUOUS
10
44.8154
20
-259.657
11
44.84
21
-259.733
0
LINE
8
BLACK
6
CONTINUOUS
10
44.7961
20
-259.575
11
44.8154
21
-259.657
0
LINE
8
BLACK
6
CONTINUOUS
10
44.7835
20
-259.487
11
44.7961
21
-259.575
0
LINE
8
BLACK
6
CONTINUOUS
10
44.7787
20
-259.388
11
44.7835
21
-259.487
0
ARC
8
BLACK
10
64.8322
20
-256.624
40
1
50
90
51
180
0
LINE
8
BLACK
6
CONTINUOUS
10
106.934
20
-112.596
11
106.934
21
-265.149
0
LINE
8
BLACK
6
CONTINUOUS
10
100.259
20
-114.371
11
100.259
21
-263.071
  0
ENDSEC
  0
EOF
