  0
SECTION
  2
HEADER
  9
$ANGBASE
  50
0.0
  9
$ANGDIR
  70
1
  9
$MEASUREMENT
  70
1
  0
ENDSEC
  0
SECTION
  2
TABLES
  0
TABLE
  2
LTYPE
  70
4
  0
LTYPE
  5
40F
  2
CONTINUOUS
  70
0
  3
Solid line
  72
65
  73
0
  40
0.0
  0
LTYPE
  5
410
  2
DASHDOT
 70
0
  3
Dash Dot ____ _ ____ _
 72
65
 73
4
 40
2.0
 49
1.25
 49
-0.25
 49
0.25
 49
-0.25
  0
LTYPE
  5
411
  2
DASHED
 70
0
  3
Dashed __ __ __ __ __
 72
65
 73
2
 40
0.75
 49
0.5
 49
-0.25
  0
LTYPE
  5
43B
  2
DOTTED
 70
0
  3
Dotted .  .  .  .
 72
65
 73
2
 40
0.2
 49
0.0
 49
-0.2
  0
ENDTAB
  0
TABLE
  2
STYLE
  70
4
  0
STYLE
  2
KICAD
  70
0
  40
0
  41
1
  42
1
  50
0
  71
0
  3
isocp.shx
  0
STYLE
  2
KICADB
  70
0
  40
0
  41
1
  42
1
  50
0
  71
0
  3
isocp.shx
  0
STYLE
  2
KICADI
  70
0
  40
0
  41
1
  42
1
  50
15
  71
0
  3
isocp.shx
  0
STYLE
  2
KICADBI
  70
0
  40
0
  41
1
  42
1
  50
15
  71
0
  3
isocp.shx
  0
ENDTAB
  0
TABLE
  2
LAYER
  70
1
  0
LAYER
  2
BLACK
  70
0
  62
7
  6
CONTINUOUS
  0
ENDTAB
  0
ENDSEC
  0
SECTION
  2
ENTITIES
0
LINE
8
BLACK
6
CONTINUOUS
10
465.064
20
-284.507
11
441.867
21
-284.507
0
LINE
8
BLACK
6
CONTINUOUS
10
421.819
20
-278.743
11
421.824
21
-278.84
0
LINE
8
BLACK
6
CONTINUOUS
10
421.824
20
-278.84
11
421.836
21
-278.928
0
LINE
8
BLACK
6
CONTINUOUS
10
421.836
20
-278.928
11
421.855
21
-279.01
0
LINE
8
BLACK
6
CONTINUOUS
10
421.855
20
-279.01
11
421.88
21
-279.088
0
LINE
8
BLACK
6
CONTINUOUS
10
421.88
20
-279.088
11
421.91
21
-279.159
0
LINE
8
BLACK
6
CONTINUOUS
10
421.91
20
-279.159
11
421.943
21
-279.226
0
LINE
8
BLACK
6
CONTINUOUS
10
421.943
20
-279.226
11
421.981
21
-279.289
0
LINE
8
BLACK
6
CONTINUOUS
10
421.981
20
-279.289
11
422.023
21
-279.349
0
LINE
8
BLACK
6
CONTINUOUS
10
422.023
20
-279.349
11
422.068
21
-279.404
0
LINE
8
BLACK
6
CONTINUOUS
10
422.068
20
-279.404
11
422.117
21
-279.456
0
LINE
8
BLACK
6
CONTINUOUS
10
422.117
20
-279.456
11
422.17
21
-279.504
0
LINE
8
BLACK
6
CONTINUOUS
10
422.17
20
-279.504
11
422.226
21
-279.549
0
LINE
8
BLACK
6
CONTINUOUS
10
422.226
20
-279.549
11
422.286
21
-279.59
0
LINE
8
BLACK
6
CONTINUOUS
10
422.286
20
-279.59
11
422.351
21
-279.627
0
LINE
8
BLACK
6
CONTINUOUS
10
422.351
20
-279.627
11
422.42
21
-279.66
0
LINE
8
BLACK
6
CONTINUOUS
10
422.42
20
-279.66
11
422.492
21
-279.689
0
LINE
8
BLACK
6
CONTINUOUS
10
422.492
20
-279.689
11
422.57
21
-279.712
0
LINE
8
BLACK
6
CONTINUOUS
10
422.57
20
-279.712
11
422.654
21
-279.73
0
LINE
8
BLACK
6
CONTINUOUS
10
422.654
20
-279.73
11
422.743
21
-279.741
0
LINE
8
BLACK
6
CONTINUOUS
10
422.743
20
-279.741
11
422.819
21
-279.743
0
LINE
8
BLACK
6
CONTINUOUS
10
440.869
20
-280.743
11
440.865
21
-280.647
0
LINE
8
BLACK
6
CONTINUOUS
10
440.865
20
-280.647
11
440.852
21
-280.556
0
LINE
8
BLACK
6
CONTINUOUS
10
440.852
20
-280.556
11
440.833
21
-280.475
0
LINE
8
BLACK
6
CONTINUOUS
10
440.833
20
-280.475
11
440.808
21
-280.397
0
LINE
8
BLACK
6
CONTINUOUS
10
440.808
20
-280.397
11
440.778
21
-280.325
0
LINE
8
BLACK
6
CONTINUOUS
10
440.778
20
-280.325
11
440.744
21
-280.258
0
LINE
8
BLACK
6
CONTINUOUS
10
440.744
20
-280.258
11
440.705
21
-280.194
0
LINE
8
BLACK
6
CONTINUOUS
10
440.705
20
-280.194
11
440.662
21
-280.134
0
LINE
8
BLACK
6
CONTINUOUS
10
440.662
20
-280.134
11
440.616
21
-280.078
0
LINE
8
BLACK
6
CONTINUOUS
10
440.616
20
-280.078
11
440.567
21
-280.027
0
LINE
8
BLACK
6
CONTINUOUS
10
440.567
20
-280.027
11
440.514
21
-279.979
0
LINE
8
BLACK
6
CONTINUOUS
10
440.514
20
-279.979
11
440.457
21
-279.934
0
LINE
8
BLACK
6
CONTINUOUS
10
440.457
20
-279.934
11
440.396
21
-279.893
0
LINE
8
BLACK
6
CONTINUOUS
10
440.396
20
-279.893
11
440.332
21
-279.857
0
LINE
8
BLACK
6
CONTINUOUS
10
440.332
20
-279.857
11
440.264
21
-279.824
0
LINE
8
BLACK
6
CONTINUOUS
10
440.264
20
-279.824
11
440.189
21
-279.796
0
LINE
8
BLACK
6
CONTINUOUS
10
440.189
20
-279.796
11
440.109
21
-279.772
0
LINE
8
BLACK
6
CONTINUOUS
10
440.109
20
-279.772
11
440.025
21
-279.756
0
LINE
8
BLACK
6
CONTINUOUS
10
440.025
20
-279.756
11
439.934
21
-279.745
0
LINE
8
BLACK
6
CONTINUOUS
10
439.934
20
-279.745
11
439.869
21
-279.743
0
LINE
8
BLACK
6
CONTINUOUS
10
401.766
20
-274.982
11
384.717
21
-274.982
0
LINE
8
BLACK
6
CONTINUOUS
10
382.718
20
-265.457
11
359.664
21
-265.457
0
LINE
8
BLACK
6
CONTINUOUS
10
403.767
20
-270.218
11
403.67
21
-270.223
0
LINE
8
BLACK
6
CONTINUOUS
10
403.67
20
-270.223
11
403.581
21
-270.236
0
LINE
8
BLACK
6
CONTINUOUS
10
403.581
20
-270.236
11
403.5
21
-270.254
0
LINE
8
BLACK
6
CONTINUOUS
10
403.5
20
-270.254
11
403.424
21
-270.279
0
LINE
8
BLACK
6
CONTINUOUS
10
403.424
20
-270.279
11
403.353
21
-270.308
0
LINE
8
BLACK
6
CONTINUOUS
10
403.353
20
-270.308
11
403.284
21
-270.342
0
LINE
8
BLACK
6
CONTINUOUS
10
403.284
20
-270.342
11
403.221
21
-270.38
0
LINE
8
BLACK
6
CONTINUOUS
10
403.221
20
-270.38
11
403.162
21
-270.422
0
LINE
8
BLACK
6
CONTINUOUS
10
403.162
20
-270.422
11
403.106
21
-270.468
0
LINE
8
BLACK
6
CONTINUOUS
10
403.106
20
-270.468
11
403.054
21
-270.516
0
LINE
8
BLACK
6
CONTINUOUS
10
403.054
20
-270.516
11
403.006
21
-270.569
0
LINE
8
BLACK
6
CONTINUOUS
10
403.006
20
-270.569
11
402.961
21
-270.626
0
LINE
8
BLACK
6
CONTINUOUS
10
402.961
20
-270.626
11
402.92
21
-270.685
0
LINE
8
BLACK
6
CONTINUOUS
10
402.92
20
-270.685
11
402.883
21
-270.75
0
LINE
8
BLACK
6
CONTINUOUS
10
402.883
20
-270.75
11
402.849
21
-270.821
0
LINE
8
BLACK
6
CONTINUOUS
10
402.849
20
-270.821
11
402.82
21
-270.894
0
LINE
8
BLACK
6
CONTINUOUS
10
402.82
20
-270.894
11
402.797
21
-270.971
0
LINE
8
BLACK
6
CONTINUOUS
10
402.797
20
-270.971
11
402.78
21
-271.054
0
LINE
8
BLACK
6
CONTINUOUS
10
402.78
20
-271.054
11
402.769
21
-271.15
0
LINE
8
BLACK
6
CONTINUOUS
10
402.769
20
-271.15
11
402.767
21
-271.218
0
LINE
8
BLACK
6
CONTINUOUS
10
421.819
20
-278.746
11
421.819
21
-271.22
0
LINE
8
BLACK
6
CONTINUOUS
10
402.766
20
-271.22
11
402.766
21
-273.982
0
LINE
8
BLACK
6
CONTINUOUS
10
383.719
20
-266.454
11
383.715
21
-266.358
0
LINE
8
BLACK
6
CONTINUOUS
10
383.715
20
-266.358
11
383.702
21
-266.267
0
LINE
8
BLACK
6
CONTINUOUS
10
383.702
20
-266.267
11
383.683
21
-266.186
0
LINE
8
BLACK
6
CONTINUOUS
10
383.683
20
-266.186
11
383.658
21
-266.108
0
LINE
8
BLACK
6
CONTINUOUS
10
383.658
20
-266.108
11
383.628
21
-266.036
0
LINE
8
BLACK
6
CONTINUOUS
10
383.628
20
-266.036
11
383.594
21
-265.969
0
LINE
8
BLACK
6
CONTINUOUS
10
383.594
20
-265.969
11
383.555
21
-265.905
0
LINE
8
BLACK
6
CONTINUOUS
10
383.555
20
-265.905
11
383.512
21
-265.845
0
LINE
8
BLACK
6
CONTINUOUS
10
383.512
20
-265.845
11
383.466
21
-265.789
0
LINE
8
BLACK
6
CONTINUOUS
10
383.466
20
-265.789
11
383.417
21
-265.738
0
LINE
8
BLACK
6
CONTINUOUS
10
383.417
20
-265.738
11
383.364
21
-265.69
0
LINE
8
BLACK
6
CONTINUOUS
10
383.364
20
-265.69
11
383.307
21
-265.645
0
LINE
8
BLACK
6
CONTINUOUS
10
383.307
20
-265.645
11
383.246
21
-265.604
0
LINE
8
BLACK
6
CONTINUOUS
10
383.246
20
-265.604
11
383.182
21
-265.568
0
LINE
8
BLACK
6
CONTINUOUS
10
383.182
20
-265.568
11
383.114
21
-265.535
0
LINE
8
BLACK
6
CONTINUOUS
10
383.114
20
-265.535
11
383.039
21
-265.507
0
LINE
8
BLACK
6
CONTINUOUS
10
383.039
20
-265.507
11
382.959
21
-265.483
0
LINE
8
BLACK
6
CONTINUOUS
10
382.959
20
-265.483
11
382.875
21
-265.466
0
LINE
8
BLACK
6
CONTINUOUS
10
382.875
20
-265.466
11
382.784
21
-265.456
0
LINE
8
BLACK
6
CONTINUOUS
10
382.784
20
-265.456
11
382.719
21
-265.454
0
LINE
8
BLACK
6
CONTINUOUS
10
440.869
20
-283.504
11
440.874
21
-283.601
0
LINE
8
BLACK
6
CONTINUOUS
10
440.874
20
-283.601
11
440.886
21
-283.689
0
LINE
8
BLACK
6
CONTINUOUS
10
440.886
20
-283.689
11
440.905
21
-283.771
0
LINE
8
BLACK
6
CONTINUOUS
10
440.905
20
-283.771
11
440.93
21
-283.849
0
LINE
8
BLACK
6
CONTINUOUS
10
440.93
20
-283.849
11
440.96
21
-283.92
0
LINE
8
BLACK
6
CONTINUOUS
10
440.96
20
-283.92
11
440.993
21
-283.987
0
LINE
8
BLACK
6
CONTINUOUS
10
440.993
20
-283.987
11
441.031
21
-284.05
0
LINE
8
BLACK
6
CONTINUOUS
10
441.031
20
-284.05
11
441.073
21
-284.11
0
LINE
8
BLACK
6
CONTINUOUS
10
441.073
20
-284.11
11
441.118
21
-284.165
0
LINE
8
BLACK
6
CONTINUOUS
10
441.118
20
-284.165
11
441.167
21
-284.216
0
LINE
8
BLACK
6
CONTINUOUS
10
441.167
20
-284.216
11
441.22
21
-284.265
0
LINE
8
BLACK
6
CONTINUOUS
10
441.22
20
-284.265
11
441.276
21
-284.31
0
LINE
8
BLACK
6
CONTINUOUS
10
441.276
20
-284.31
11
441.336
21
-284.351
0
LINE
8
BLACK
6
CONTINUOUS
10
441.336
20
-284.351
11
441.401
21
-284.388
0
LINE
8
BLACK
6
CONTINUOUS
10
441.401
20
-284.388
11
441.47
21
-284.421
0
LINE
8
BLACK
6
CONTINUOUS
10
441.47
20
-284.421
11
441.542
21
-284.45
0
LINE
8
BLACK
6
CONTINUOUS
10
441.542
20
-284.45
11
441.62
21
-284.473
0
LINE
8
BLACK
6
CONTINUOUS
10
441.62
20
-284.473
11
441.704
21
-284.491
0
LINE
8
BLACK
6
CONTINUOUS
10
441.704
20
-284.491
11
441.793
21
-284.502
0
LINE
8
BLACK
6
CONTINUOUS
10
441.793
20
-284.502
11
441.869
21
-284.504
0
LINE
8
BLACK
6
CONTINUOUS
10
439.868
20
-279.744
11
422.817
21
-279.744
0
LINE
8
BLACK
6
CONTINUOUS
10
383.719
20
-273.979
11
383.724
21
-274.076
0
LINE
8
BLACK
6
CONTINUOUS
10
383.724
20
-274.076
11
383.736
21
-274.164
0
LINE
8
BLACK
6
CONTINUOUS
10
383.736
20
-274.164
11
383.755
21
-274.246
0
LINE
8
BLACK
6
CONTINUOUS
10
383.755
20
-274.246
11
383.78
21
-274.324
0
LINE
8
BLACK
6
CONTINUOUS
10
383.78
20
-274.324
11
383.81
21
-274.395
0
LINE
8
BLACK
6
CONTINUOUS
10
383.81
20
-274.395
11
383.843
21
-274.462
0
LINE
8
BLACK
6
CONTINUOUS
10
383.843
20
-274.462
11
383.881
21
-274.525
0
LINE
8
BLACK
6
CONTINUOUS
10
383.881
20
-274.525
11
383.923
21
-274.585
0
LINE
8
BLACK
6
CONTINUOUS
10
383.923
20
-274.585
11
383.968
21
-274.64
0
LINE
8
BLACK
6
CONTINUOUS
10
383.968
20
-274.64
11
384.017
21
-274.691
0
LINE
8
BLACK
6
CONTINUOUS
10
384.017
20
-274.691
11
384.07
21
-274.74
0
LINE
8
BLACK
6
CONTINUOUS
10
384.07
20
-274.74
11
384.126
21
-274.785
0
LINE
8
BLACK
6
CONTINUOUS
10
384.126
20
-274.785
11
384.186
21
-274.826
0
LINE
8
BLACK
6
CONTINUOUS
10
384.186
20
-274.826
11
384.251
21
-274.863
0
LINE
8
BLACK
6
CONTINUOUS
10
384.251
20
-274.863
11
384.32
21
-274.896
0
LINE
8
BLACK
6
CONTINUOUS
10
384.32
20
-274.896
11
384.392
21
-274.925
0
LINE
8
BLACK
6
CONTINUOUS
10
384.392
20
-274.925
11
384.47
21
-274.948
0
LINE
8
BLACK
6
CONTINUOUS
10
384.47
20
-274.948
11
384.554
21
-274.966
0
LINE
8
BLACK
6
CONTINUOUS
10
384.554
20
-274.966
11
384.643
21
-274.977
0
LINE
8
BLACK
6
CONTINUOUS
10
384.643
20
-274.977
11
384.719
21
-274.979
0
LINE
8
BLACK
6
CONTINUOUS
10
440.869
20
-283.506
11
440.869
21
-280.745
0
LINE
8
BLACK
6
CONTINUOUS
10
420.818
20
-270.219
11
403.765
21
-270.219
0
LINE
8
BLACK
6
CONTINUOUS
10
383.719
20
-273.981
11
383.719
21
-266.455
0
LINE
8
BLACK
6
CONTINUOUS
10
421.819
20
-271.218
11
421.815
21
-271.122
0
LINE
8
BLACK
6
CONTINUOUS
10
421.815
20
-271.122
11
421.802
21
-271.031
0
LINE
8
BLACK
6
CONTINUOUS
10
421.802
20
-271.031
11
421.783
21
-270.95
0
LINE
8
BLACK
6
CONTINUOUS
10
421.783
20
-270.95
11
421.758
21
-270.872
0
LINE
8
BLACK
6
CONTINUOUS
10
421.758
20
-270.872
11
421.728
21
-270.8
0
LINE
8
BLACK
6
CONTINUOUS
10
421.728
20
-270.8
11
421.694
21
-270.733
0
LINE
8
BLACK
6
CONTINUOUS
10
421.694
20
-270.733
11
421.655
21
-270.669
0
LINE
8
BLACK
6
CONTINUOUS
10
421.655
20
-270.669
11
421.612
21
-270.609
0
LINE
8
BLACK
6
CONTINUOUS
10
421.612
20
-270.609
11
421.566
21
-270.553
0
LINE
8
BLACK
6
CONTINUOUS
10
421.566
20
-270.553
11
421.517
21
-270.502
0
LINE
8
BLACK
6
CONTINUOUS
10
421.517
20
-270.502
11
421.464
21
-270.454
0
LINE
8
BLACK
6
CONTINUOUS
10
421.464
20
-270.454
11
421.407
21
-270.409
0
LINE
8
BLACK
6
CONTINUOUS
10
421.407
20
-270.409
11
421.346
21
-270.368
0
LINE
8
BLACK
6
CONTINUOUS
10
421.346
20
-270.368
11
421.282
21
-270.332
0
LINE
8
BLACK
6
CONTINUOUS
10
421.282
20
-270.332
11
421.214
21
-270.299
0
LINE
8
BLACK
6
CONTINUOUS
10
421.214
20
-270.299
11
421.139
21
-270.271
0
LINE
8
BLACK
6
CONTINUOUS
10
421.139
20
-270.271
11
421.059
21
-270.247
0
LINE
8
BLACK
6
CONTINUOUS
10
421.059
20
-270.247
11
420.975
21
-270.231
0
LINE
8
BLACK
6
CONTINUOUS
10
420.975
20
-270.231
11
420.884
21
-270.22
0
LINE
8
BLACK
6
CONTINUOUS
10
420.884
20
-270.22
11
420.819
21
-270.218
0
ARC
8
BLACK
10
401.766
20
-273.982
40
1
50
-90
51
-0
0
LINE
8
BLACK
6
CONTINUOUS
10
339.84
20
-200.9
11
339.84
21
-196.9
0
LINE
8
BLACK
6
CONTINUOUS
10
432.84
20
-209.225
11
346.84
21
-209.225
0
LINE
8
BLACK
6
CONTINUOUS
10
359.664
20
-265.457
11
359.664
21
-250.91
0
LINE
8
BLACK
6
CONTINUOUS
10
373.664
20
-126.91
11
361.664
21
-126.91
0
LINE
8
BLACK
6
CONTINUOUS
10
432.84
20
-196.9
11
432.84
21
-209.225
0
LINE
8
BLACK
6
CONTINUOUS
10
346.84
20
-196.9
11
339.84
21
-196.9
0
LINE
8
BLACK
6
CONTINUOUS
10
378.664
20
-129.91
11
378.664
21
-115.059
0
ARC
8
BLACK
10
361.664
20
-250.91
40
2
50
90
51
180
0
LINE
8
BLACK
6
CONTINUOUS
10
436.84
20
-201.9
11
436.84
21
-213.9
0
LINE
8
BLACK
6
CONTINUOUS
10
374.664
20
-247.91
11
374.664
21
-245.91
0
LINE
8
BLACK
6
CONTINUOUS
10
439.84
20
-200.9
11
437.84
21
-200.9
0
LINE
8
BLACK
6
CONTINUOUS
10
374.664
20
-129.91
11
378.664
21
-129.91
0
ARC
8
BLACK
10
361.664
20
-124.91
40
2
50
180
51
270
0
LINE
8
BLACK
6
CONTINUOUS
10
378.664
20
-263.335
11
378.664
21
-245.91
0
LINE
8
BLACK
6
CONTINUOUS
10
374.664
20
-245.91
11
378.664
21
-245.91
0
ARC
8
BLACK
10
344.84
20
-213.9
40
2
50
-180
51
-90
0
LINE
8
BLACK
6
CONTINUOUS
10
460.164
20
-108.008
11
364.564
21
-108.008
0
LINE
8
BLACK
6
CONTINUOUS
10
434.84
20
-215.9
11
344.84
21
-215.9
0
LINE
8
BLACK
6
CONTINUOUS
10
346.84
20
-209.225
11
346.84
21
-196.9
0
LINE
8
BLACK
6
CONTINUOUS
10
361.664
20
-248.91
11
373.664
21
-248.91
0
LINE
8
BLACK
6
CONTINUOUS
10
341.84
20
-200.9
11
339.84
21
-200.9
0
LINE
8
BLACK
6
CONTINUOUS
10
342.84
20
-213.9
11
342.84
21
-201.9
0
ARC
8
BLACK
10
434.84
20
-213.9
40
2
50
-90
51
-0
0
LINE
8
BLACK
6
CONTINUOUS
10
439.337
20
-121.78
11
439.337
21
-128.922
0
LINE
8
BLACK
6
CONTINUOUS
10
423.989
20
-277.623
11
423.989
21
-268.098
0
LINE
8
BLACK
6
CONTINUOUS
10
400.737
20
-272.86
11
385.889
21
-272.86
0
LINE
8
BLACK
6
CONTINUOUS
10
460.164
20
-275.816
11
460.164
21
-241.269
0
LINE
8
BLACK
6
CONTINUOUS
10
438.837
20
-275.816
11
460.164
21
-275.816
0
LINE
8
BLACK
6
CONTINUOUS
10
457.048
20
-117.977
11
457.046
21
-118.075
0
LINE
8
BLACK
6
CONTINUOUS
10
457.046
20
-118.075
11
457.038
21
-118.172
0
LINE
8
BLACK
6
CONTINUOUS
10
457.038
20
-118.172
11
457.027
21
-118.261
0
LINE
8
BLACK
6
CONTINUOUS
10
457.027
20
-118.261
11
457.013
21
-118.347
0
LINE
8
BLACK
6
CONTINUOUS
10
457.013
20
-118.347
11
456.994
21
-118.432
0
LINE
8
BLACK
6
CONTINUOUS
10
456.994
20
-118.432
11
456.974
21
-118.512
0
LINE
8
BLACK
6
CONTINUOUS
10
456.974
20
-118.512
11
456.95
21
-118.589
0
LINE
8
BLACK
6
CONTINUOUS
10
456.95
20
-118.589
11
456.923
21
-118.665
0
LINE
8
BLACK
6
CONTINUOUS
10
456.923
20
-118.665
11
456.894
21
-118.737
0
LINE
8
BLACK
6
CONTINUOUS
10
456.894
20
-118.737
11
456.863
21
-118.807
0
LINE
8
BLACK
6
CONTINUOUS
10
456.863
20
-118.807
11
456.829
21
-118.876
0
LINE
8
BLACK
6
CONTINUOUS
10
456.829
20
-118.876
11
456.793
21
-118.941
0
LINE
8
BLACK
6
CONTINUOUS
10
456.793
20
-118.941
11
456.755
21
-119.005
0
LINE
8
BLACK
6
CONTINUOUS
10
456.755
20
-119.005
11
456.715
21
-119.067
0
LINE
8
BLACK
6
CONTINUOUS
10
456.715
20
-119.067
11
456.673
21
-119.126
0
LINE
8
BLACK
6
CONTINUOUS
10
456.673
20
-119.126
11
456.63
21
-119.184
0
LINE
8
BLACK
6
CONTINUOUS
10
456.63
20
-119.184
11
456.584
21
-119.239
0
LINE
8
BLACK
6
CONTINUOUS
10
456.584
20
-119.239
11
456.537
21
-119.293
0
LINE
8
BLACK
6
CONTINUOUS
10
456.537
20
-119.293
11
456.488
21
-119.345
0
LINE
8
BLACK
6
CONTINUOUS
10
456.488
20
-119.345
11
456.437
21
-119.395
0
LINE
8
BLACK
6
CONTINUOUS
10
456.437
20
-119.395
11
456.382
21
-119.444
0
LINE
8
BLACK
6
CONTINUOUS
10
456.382
20
-119.444
11
456.322
21
-119.495
0
LINE
8
BLACK
6
CONTINUOUS
10
456.322
20
-119.495
11
456.265
21
-119.539
0
LINE
8
BLACK
6
CONTINUOUS
10
456.265
20
-119.539
11
456.207
21
-119.581
0
LINE
8
BLACK
6
CONTINUOUS
10
456.207
20
-119.581
11
456.14
21
-119.625
0
LINE
8
BLACK
6
CONTINUOUS
10
456.14
20
-119.625
11
456.078
21
-119.663
0
LINE
8
BLACK
6
CONTINUOUS
10
456.078
20
-119.663
11
456.013
21
-119.699
0
LINE
8
BLACK
6
CONTINUOUS
10
456.013
20
-119.699
11
455.945
21
-119.734
0
LINE
8
BLACK
6
CONTINUOUS
10
455.945
20
-119.734
11
455.875
21
-119.766
0
LINE
8
BLACK
6
CONTINUOUS
10
455.875
20
-119.766
11
455.8
21
-119.796
0
LINE
8
BLACK
6
CONTINUOUS
10
455.8
20
-119.796
11
455.725
21
-119.824
0
LINE
8
BLACK
6
CONTINUOUS
10
455.725
20
-119.824
11
455.649
21
-119.848
0
LINE
8
BLACK
6
CONTINUOUS
10
455.649
20
-119.848
11
455.57
21
-119.869
0
LINE
8
BLACK
6
CONTINUOUS
10
455.57
20
-119.869
11
455.487
21
-119.888
0
LINE
8
BLACK
6
CONTINUOUS
10
455.487
20
-119.888
11
455.399
21
-119.904
0
LINE
8
BLACK
6
CONTINUOUS
10
455.399
20
-119.904
11
455.31
21
-119.915
0
LINE
8
BLACK
6
CONTINUOUS
10
455.31
20
-119.915
11
455.218
21
-119.923
0
LINE
8
BLACK
6
CONTINUOUS
10
455.218
20
-119.923
11
455.119
21
-119.927
0
LINE
8
BLACK
6
CONTINUOUS
10
455.119
20
-119.927
11
455.098
21
-119.927
0
LINE
8
BLACK
6
CONTINUOUS
10
438.837
20
-277.623
11
438.837
21
-275.816
0
LINE
8
BLACK
6
CONTINUOUS
10
453.409
20
-117.002
11
453.448
21
-116.937
0
LINE
8
BLACK
6
CONTINUOUS
10
453.448
20
-116.937
11
453.489
21
-116.876
0
LINE
8
BLACK
6
CONTINUOUS
10
453.489
20
-116.876
11
453.531
21
-116.816
0
LINE
8
BLACK
6
CONTINUOUS
10
453.531
20
-116.816
11
453.575
21
-116.759
0
LINE
8
BLACK
6
CONTINUOUS
10
453.575
20
-116.759
11
453.621
21
-116.704
0
LINE
8
BLACK
6
CONTINUOUS
10
453.621
20
-116.704
11
453.67
21
-116.649
0
LINE
8
BLACK
6
CONTINUOUS
10
453.67
20
-116.649
11
453.72
21
-116.597
0
LINE
8
BLACK
6
CONTINUOUS
10
453.72
20
-116.597
11
453.771
21
-116.547
0
LINE
8
BLACK
6
CONTINUOUS
10
453.771
20
-116.547
11
453.827
21
-116.498
0
LINE
8
BLACK
6
CONTINUOUS
10
453.827
20
-116.498
11
453.882
21
-116.452
0
LINE
8
BLACK
6
CONTINUOUS
10
453.882
20
-116.452
11
453.941
21
-116.407
0
LINE
8
BLACK
6
CONTINUOUS
10
453.941
20
-116.407
11
454
21
-116.365
0
LINE
8
BLACK
6
CONTINUOUS
10
454
20
-116.365
11
454.061
21
-116.325
0
LINE
8
BLACK
6
CONTINUOUS
10
454.061
20
-116.325
11
454.127
21
-116.286
0
LINE
8
BLACK
6
CONTINUOUS
10
454.127
20
-116.286
11
454.193
21
-116.25
0
LINE
8
BLACK
6
CONTINUOUS
10
454.193
20
-116.25
11
454.262
21
-116.215
0
LINE
8
BLACK
6
CONTINUOUS
10
454.262
20
-116.215
11
454.332
21
-116.184
0
LINE
8
BLACK
6
CONTINUOUS
10
454.332
20
-116.184
11
454.403
21
-116.155
0
LINE
8
BLACK
6
CONTINUOUS
10
454.403
20
-116.155
11
454.478
21
-116.128
0
LINE
8
BLACK
6
CONTINUOUS
10
454.478
20
-116.128
11
454.556
21
-116.104
0
LINE
8
BLACK
6
CONTINUOUS
10
454.556
20
-116.104
11
454.637
21
-116.082
0
LINE
8
BLACK
6
CONTINUOUS
10
454.637
20
-116.082
11
454.719
21
-116.064
0
LINE
8
BLACK
6
CONTINUOUS
10
454.719
20
-116.064
11
454.805
21
-116.049
0
LINE
8
BLACK
6
CONTINUOUS
10
454.805
20
-116.049
11
454.895
21
-116.037
0
LINE
8
BLACK
6
CONTINUOUS
10
454.895
20
-116.037
11
454.989
21
-116.03
0
LINE
8
BLACK
6
CONTINUOUS
10
454.989
20
-116.03
11
455.089
21
-116.027
0
LINE
8
BLACK
6
CONTINUOUS
10
455.089
20
-116.027
11
455.098
21
-116.027
0
LINE
8
BLACK
6
CONTINUOUS
10
385.889
20
-272.86
11
385.889
21
-263.335
0
LINE
8
BLACK
6
CONTINUOUS
10
456.787
20
-280.762
11
456.748
21
-280.825
0
LINE
8
BLACK
6
CONTINUOUS
10
456.748
20
-280.825
11
456.708
21
-280.886
0
LINE
8
BLACK
6
CONTINUOUS
10
456.708
20
-280.886
11
456.666
21
-280.945
0
LINE
8
BLACK
6
CONTINUOUS
10
456.666
20
-280.945
11
456.622
21
-281.003
0
LINE
8
BLACK
6
CONTINUOUS
10
456.622
20
-281.003
11
456.574
21
-281.061
0
LINE
8
BLACK
6
CONTINUOUS
10
456.574
20
-281.061
11
456.526
21
-281.115
0
LINE
8
BLACK
6
CONTINUOUS
10
456.526
20
-281.115
11
456.476
21
-281.166
0
LINE
8
BLACK
6
CONTINUOUS
10
456.476
20
-281.166
11
456.424
21
-281.216
0
LINE
8
BLACK
6
CONTINUOUS
10
456.424
20
-281.216
11
456.371
21
-281.264
0
LINE
8
BLACK
6
CONTINUOUS
10
456.371
20
-281.264
11
456.316
21
-281.309
0
LINE
8
BLACK
6
CONTINUOUS
10
456.316
20
-281.309
11
456.259
21
-281.353
0
LINE
8
BLACK
6
CONTINUOUS
10
456.259
20
-281.353
11
456.2
21
-281.395
0
LINE
8
BLACK
6
CONTINUOUS
10
456.2
20
-281.395
11
456.14
21
-281.435
0
LINE
8
BLACK
6
CONTINUOUS
10
456.14
20
-281.435
11
456.077
21
-281.473
0
LINE
8
BLACK
6
CONTINUOUS
10
456.077
20
-281.473
11
456.012
21
-281.509
0
LINE
8
BLACK
6
CONTINUOUS
10
456.012
20
-281.509
11
455.945
21
-281.543
0
LINE
8
BLACK
6
CONTINUOUS
10
455.945
20
-281.543
11
455.877
21
-281.574
0
LINE
8
BLACK
6
CONTINUOUS
10
455.877
20
-281.574
11
455.805
21
-281.604
0
LINE
8
BLACK
6
CONTINUOUS
10
455.805
20
-281.604
11
455.731
21
-281.631
0
LINE
8
BLACK
6
CONTINUOUS
10
455.731
20
-281.631
11
455.652
21
-281.656
0
LINE
8
BLACK
6
CONTINUOUS
10
455.652
20
-281.656
11
455.573
21
-281.678
0
LINE
8
BLACK
6
CONTINUOUS
10
455.573
20
-281.678
11
455.491
21
-281.697
0
LINE
8
BLACK
6
CONTINUOUS
10
455.491
20
-281.697
11
455.405
21
-281.712
0
LINE
8
BLACK
6
CONTINUOUS
10
455.405
20
-281.712
11
455.315
21
-281.724
0
LINE
8
BLACK
6
CONTINUOUS
10
455.315
20
-281.724
11
455.223
21
-281.733
0
LINE
8
BLACK
6
CONTINUOUS
10
455.223
20
-281.733
11
455.125
21
-281.736
0
LINE
8
BLACK
6
CONTINUOUS
10
455.125
20
-281.736
11
455.098
21
-281.737
0
LINE
8
BLACK
6
CONTINUOUS
10
359.664
20
-124.91
11
359.664
21
-112.908
0
LINE
8
BLACK
6
CONTINUOUS
10
453.409
20
-278.812
11
453.448
21
-278.747
0
LINE
8
BLACK
6
CONTINUOUS
10
453.448
20
-278.747
11
453.489
21
-278.685
0
LINE
8
BLACK
6
CONTINUOUS
10
453.489
20
-278.685
11
453.531
21
-278.626
0
LINE
8
BLACK
6
CONTINUOUS
10
453.531
20
-278.626
11
453.575
21
-278.569
0
LINE
8
BLACK
6
CONTINUOUS
10
453.575
20
-278.569
11
453.621
21
-278.513
0
LINE
8
BLACK
6
CONTINUOUS
10
453.621
20
-278.513
11
453.67
21
-278.459
0
LINE
8
BLACK
6
CONTINUOUS
10
453.67
20
-278.459
11
453.72
21
-278.407
0
LINE
8
BLACK
6
CONTINUOUS
10
453.72
20
-278.407
11
453.771
21
-278.357
0
LINE
8
BLACK
6
CONTINUOUS
10
453.771
20
-278.357
11
453.827
21
-278.307
0
LINE
8
BLACK
6
CONTINUOUS
10
453.827
20
-278.307
11
453.882
21
-278.262
0
LINE
8
BLACK
6
CONTINUOUS
10
453.882
20
-278.262
11
453.941
21
-278.217
0
LINE
8
BLACK
6
CONTINUOUS
10
453.941
20
-278.217
11
454
21
-278.175
0
LINE
8
BLACK
6
CONTINUOUS
10
454
20
-278.175
11
454.061
21
-278.135
0
LINE
8
BLACK
6
CONTINUOUS
10
454.061
20
-278.135
11
454.127
21
-278.095
0
LINE
8
BLACK
6
CONTINUOUS
10
454.127
20
-278.095
11
454.193
21
-278.059
0
LINE
8
BLACK
6
CONTINUOUS
10
454.193
20
-278.059
11
454.262
21
-278.025
0
LINE
8
BLACK
6
CONTINUOUS
10
454.262
20
-278.025
11
454.332
21
-277.993
0
LINE
8
BLACK
6
CONTINUOUS
10
454.332
20
-277.993
11
454.403
21
-277.964
0
LINE
8
BLACK
6
CONTINUOUS
10
454.403
20
-277.964
11
454.478
21
-277.938
0
LINE
8
BLACK
6
CONTINUOUS
10
454.478
20
-277.938
11
454.556
21
-277.913
0
LINE
8
BLACK
6
CONTINUOUS
10
454.556
20
-277.913
11
454.637
21
-277.892
0
LINE
8
BLACK
6
CONTINUOUS
10
454.637
20
-277.892
11
454.719
21
-277.874
0
LINE
8
BLACK
6
CONTINUOUS
10
454.719
20
-277.874
11
454.805
21
-277.859
0
LINE
8
BLACK
6
CONTINUOUS
10
454.805
20
-277.859
11
454.895
21
-277.847
0
LINE
8
BLACK
6
CONTINUOUS
10
454.895
20
-277.847
11
454.989
21
-277.84
0
LINE
8
BLACK
6
CONTINUOUS
10
454.989
20
-277.84
11
455.089
21
-277.837
0
LINE
8
BLACK
6
CONTINUOUS
10
455.089
20
-277.837
11
455.098
21
-277.837
0
LINE
8
BLACK
6
CONTINUOUS
10
453.409
20
-280.762
11
453.373
21
-280.697
0
LINE
8
BLACK
6
CONTINUOUS
10
453.373
20
-280.697
11
453.34
21
-280.63
0
LINE
8
BLACK
6
CONTINUOUS
10
453.34
20
-280.63
11
453.308
21
-280.56
0
LINE
8
BLACK
6
CONTINUOUS
10
453.308
20
-280.56
11
453.278
21
-280.488
0
LINE
8
BLACK
6
CONTINUOUS
10
453.278
20
-280.488
11
453.251
21
-280.413
0
LINE
8
BLACK
6
CONTINUOUS
10
453.251
20
-280.413
11
453.227
21
-280.336
0
LINE
8
BLACK
6
CONTINUOUS
10
453.227
20
-280.336
11
453.206
21
-280.257
0
LINE
8
BLACK
6
CONTINUOUS
10
453.206
20
-280.257
11
453.186
21
-280.172
0
LINE
8
BLACK
6
CONTINUOUS
10
453.186
20
-280.172
11
453.17
21
-280.083
0
LINE
8
BLACK
6
CONTINUOUS
10
453.17
20
-280.083
11
453.158
21
-279.987
0
LINE
8
BLACK
6
CONTINUOUS
10
453.158
20
-279.987
11
453.151
21
-279.892
0
LINE
8
BLACK
6
CONTINUOUS
10
453.151
20
-279.892
11
453.148
21
-279.794
0
LINE
8
BLACK
6
CONTINUOUS
10
453.148
20
-279.794
11
453.15
21
-279.695
0
LINE
8
BLACK
6
CONTINUOUS
10
453.15
20
-279.695
11
453.157
21
-279.6
0
LINE
8
BLACK
6
CONTINUOUS
10
453.157
20
-279.6
11
453.168
21
-279.508
0
LINE
8
BLACK
6
CONTINUOUS
10
453.168
20
-279.508
11
453.183
21
-279.418
0
LINE
8
BLACK
6
CONTINUOUS
10
453.183
20
-279.418
11
453.201
21
-279.333
0
LINE
8
BLACK
6
CONTINUOUS
10
453.201
20
-279.333
11
453.222
21
-279.254
0
LINE
8
BLACK
6
CONTINUOUS
10
453.222
20
-279.254
11
453.246
21
-279.176
0
LINE
8
BLACK
6
CONTINUOUS
10
453.246
20
-279.176
11
453.272
21
-279.102
0
LINE
8
BLACK
6
CONTINUOUS
10
453.272
20
-279.102
11
453.301
21
-279.03
0
LINE
8
BLACK
6
CONTINUOUS
10
453.301
20
-279.03
11
453.332
21
-278.96
0
LINE
8
BLACK
6
CONTINUOUS
10
453.332
20
-278.96
11
453.365
21
-278.893
0
LINE
8
BLACK
6
CONTINUOUS
10
453.365
20
-278.893
11
453.402
21
-278.825
0
LINE
8
BLACK
6
CONTINUOUS
10
453.402
20
-278.825
11
453.409
21
-278.812
0
LINE
8
BLACK
6
CONTINUOUS
10
423.989
20
-268.098
11
400.737
21
-268.098
0
LINE
8
BLACK
6
CONTINUOUS
10
455.098
20
-116.027
11
455.196
21
-116.029
0
LINE
8
BLACK
6
CONTINUOUS
10
455.196
20
-116.029
11
455.29
21
-116.036
0
LINE
8
BLACK
6
CONTINUOUS
10
455.29
20
-116.036
11
455.384
21
-116.048
0
LINE
8
BLACK
6
CONTINUOUS
10
455.384
20
-116.048
11
455.47
21
-116.062
0
LINE
8
BLACK
6
CONTINUOUS
10
455.47
20
-116.062
11
455.554
21
-116.08
0
LINE
8
BLACK
6
CONTINUOUS
10
455.554
20
-116.08
11
455.634
21
-116.101
0
LINE
8
BLACK
6
CONTINUOUS
10
455.634
20
-116.101
11
455.711
21
-116.125
0
LINE
8
BLACK
6
CONTINUOUS
10
455.711
20
-116.125
11
455.787
21
-116.152
0
LINE
8
BLACK
6
CONTINUOUS
10
455.787
20
-116.152
11
455.859
21
-116.181
0
LINE
8
BLACK
6
CONTINUOUS
10
455.859
20
-116.181
11
455.929
21
-116.212
0
LINE
8
BLACK
6
CONTINUOUS
10
455.929
20
-116.212
11
455.997
21
-116.246
0
LINE
8
BLACK
6
CONTINUOUS
10
455.997
20
-116.246
11
456.062
21
-116.282
0
LINE
8
BLACK
6
CONTINUOUS
10
456.062
20
-116.282
11
456.125
21
-116.319
0
LINE
8
BLACK
6
CONTINUOUS
10
456.125
20
-116.319
11
456.188
21
-116.36
0
LINE
8
BLACK
6
CONTINUOUS
10
456.188
20
-116.36
11
456.249
21
-116.402
0
LINE
8
BLACK
6
CONTINUOUS
10
456.249
20
-116.402
11
456.306
21
-116.446
0
LINE
8
BLACK
6
CONTINUOUS
10
456.306
20
-116.446
11
456.362
21
-116.492
0
LINE
8
BLACK
6
CONTINUOUS
10
456.362
20
-116.492
11
456.416
21
-116.54
0
LINE
8
BLACK
6
CONTINUOUS
10
456.416
20
-116.54
11
456.468
21
-116.589
0
LINE
8
BLACK
6
CONTINUOUS
10
456.468
20
-116.589
11
456.518
21
-116.64
0
LINE
8
BLACK
6
CONTINUOUS
10
456.518
20
-116.64
11
456.567
21
-116.695
0
LINE
8
BLACK
6
CONTINUOUS
10
456.567
20
-116.695
11
456.613
21
-116.749
0
LINE
8
BLACK
6
CONTINUOUS
10
456.613
20
-116.749
11
456.658
21
-116.807
0
LINE
8
BLACK
6
CONTINUOUS
10
456.658
20
-116.807
11
456.7
21
-116.865
0
LINE
8
BLACK
6
CONTINUOUS
10
456.7
20
-116.865
11
456.742
21
-116.927
0
LINE
8
BLACK
6
CONTINUOUS
10
456.742
20
-116.927
11
456.781
21
-116.992
0
LINE
8
BLACK
6
CONTINUOUS
10
456.781
20
-116.992
11
456.818
21
-117.057
0
LINE
8
BLACK
6
CONTINUOUS
10
456.818
20
-117.057
11
456.852
21
-117.124
0
LINE
8
BLACK
6
CONTINUOUS
10
456.852
20
-117.124
11
456.884
21
-117.193
0
LINE
8
BLACK
6
CONTINUOUS
10
456.884
20
-117.193
11
456.914
21
-117.265
0
LINE
8
BLACK
6
CONTINUOUS
10
456.914
20
-117.265
11
456.942
21
-117.341
0
LINE
8
BLACK
6
CONTINUOUS
10
456.942
20
-117.341
11
456.967
21
-117.418
0
LINE
8
BLACK
6
CONTINUOUS
10
456.967
20
-117.418
11
456.989
21
-117.499
0
LINE
8
BLACK
6
CONTINUOUS
10
456.989
20
-117.499
11
457.008
21
-117.58
0
LINE
8
BLACK
6
CONTINUOUS
10
457.008
20
-117.58
11
457.023
21
-117.666
0
LINE
8
BLACK
6
CONTINUOUS
10
457.023
20
-117.666
11
457.035
21
-117.754
0
LINE
8
BLACK
6
CONTINUOUS
10
457.035
20
-117.754
11
457.044
21
-117.848
0
LINE
8
BLACK
6
CONTINUOUS
10
457.044
20
-117.848
11
457.048
21
-117.95
0
LINE
8
BLACK
6
CONTINUOUS
10
457.048
20
-117.95
11
457.048
21
-117.977
0
LINE
8
BLACK
6
CONTINUOUS
10
455.098
20
-277.837
11
455.196
21
-277.839
0
LINE
8
BLACK
6
CONTINUOUS
10
455.196
20
-277.839
11
455.289
21
-277.846
0
LINE
8
BLACK
6
CONTINUOUS
10
455.289
20
-277.846
11
455.379
21
-277.857
0
LINE
8
BLACK
6
CONTINUOUS
10
455.379
20
-277.857
11
455.468
21
-277.872
0
LINE
8
BLACK
6
CONTINUOUS
10
455.468
20
-277.872
11
455.552
21
-277.89
0
LINE
8
BLACK
6
CONTINUOUS
10
455.552
20
-277.89
11
455.634
21
-277.912
0
LINE
8
BLACK
6
CONTINUOUS
10
455.634
20
-277.912
11
455.712
21
-277.936
0
LINE
8
BLACK
6
CONTINUOUS
10
455.712
20
-277.936
11
455.789
21
-277.963
0
LINE
8
BLACK
6
CONTINUOUS
10
455.789
20
-277.963
11
455.86
21
-277.992
0
LINE
8
BLACK
6
CONTINUOUS
10
455.86
20
-277.992
11
455.932
21
-278.024
0
LINE
8
BLACK
6
CONTINUOUS
10
455.932
20
-278.024
11
456
21
-278.058
0
LINE
8
BLACK
6
CONTINUOUS
10
456
20
-278.058
11
456.065
21
-278.093
0
LINE
8
BLACK
6
CONTINUOUS
10
456.065
20
-278.093
11
456.131
21
-278.133
0
LINE
8
BLACK
6
CONTINUOUS
10
456.131
20
-278.133
11
456.192
21
-278.173
0
LINE
8
BLACK
6
CONTINUOUS
10
456.192
20
-278.173
11
456.252
21
-278.215
0
LINE
8
BLACK
6
CONTINUOUS
10
456.252
20
-278.215
11
456.309
21
-278.258
0
LINE
8
BLACK
6
CONTINUOUS
10
456.309
20
-278.258
11
456.364
21
-278.303
0
LINE
8
BLACK
6
CONTINUOUS
10
456.364
20
-278.303
11
456.417
21
-278.351
0
LINE
8
BLACK
6
CONTINUOUS
10
456.417
20
-278.351
11
456.469
21
-278.4
0
LINE
8
BLACK
6
CONTINUOUS
10
456.469
20
-278.4
11
456.519
21
-278.451
0
LINE
8
BLACK
6
CONTINUOUS
10
456.519
20
-278.451
11
456.566
21
-278.503
0
LINE
8
BLACK
6
CONTINUOUS
10
456.566
20
-278.503
11
456.612
21
-278.558
0
LINE
8
BLACK
6
CONTINUOUS
10
456.612
20
-278.558
11
456.661
21
-278.621
0
LINE
8
BLACK
6
CONTINUOUS
10
456.661
20
-278.621
11
456.704
21
-278.68
0
LINE
8
BLACK
6
CONTINUOUS
10
456.704
20
-278.68
11
456.744
21
-278.741
0
LINE
8
BLACK
6
CONTINUOUS
10
456.744
20
-278.741
11
456.782
21
-278.804
0
LINE
8
BLACK
6
CONTINUOUS
10
456.782
20
-278.804
11
456.787
21
-278.812
0
LINE
8
BLACK
6
CONTINUOUS
10
465.064
20
-284.507
11
465.064
21
-112.908
0
LINE
8
BLACK
6
CONTINUOUS
10
456.787
20
-278.812
11
456.822
21
-278.876
0
LINE
8
BLACK
6
CONTINUOUS
10
456.822
20
-278.876
11
456.857
21
-278.945
0
LINE
8
BLACK
6
CONTINUOUS
10
456.857
20
-278.945
11
456.889
21
-279.015
0
LINE
8
BLACK
6
CONTINUOUS
10
456.889
20
-279.015
11
456.919
21
-279.089
0
LINE
8
BLACK
6
CONTINUOUS
10
456.919
20
-279.089
11
456.946
21
-279.163
0
LINE
8
BLACK
6
CONTINUOUS
10
456.946
20
-279.163
11
456.97
21
-279.24
0
LINE
8
BLACK
6
CONTINUOUS
10
456.97
20
-279.24
11
456.991
21
-279.32
0
LINE
8
BLACK
6
CONTINUOUS
10
456.991
20
-279.32
11
457.01
21
-279.402
0
LINE
8
BLACK
6
CONTINUOUS
10
457.01
20
-279.402
11
457.025
21
-279.489
0
LINE
8
BLACK
6
CONTINUOUS
10
457.025
20
-279.489
11
457.037
21
-279.579
0
LINE
8
BLACK
6
CONTINUOUS
10
457.037
20
-279.579
11
457.045
21
-279.673
0
LINE
8
BLACK
6
CONTINUOUS
10
457.045
20
-279.673
11
457.048
21
-279.772
0
LINE
8
BLACK
6
CONTINUOUS
10
457.048
20
-279.772
11
457.046
21
-279.87
0
LINE
8
BLACK
6
CONTINUOUS
10
457.046
20
-279.87
11
457.04
21
-279.967
0
LINE
8
BLACK
6
CONTINUOUS
10
457.04
20
-279.967
11
457.029
21
-280.057
0
LINE
8
BLACK
6
CONTINUOUS
10
457.029
20
-280.057
11
457.015
21
-280.145
0
LINE
8
BLACK
6
CONTINUOUS
10
457.015
20
-280.145
11
456.997
21
-280.23
0
LINE
8
BLACK
6
CONTINUOUS
10
456.997
20
-280.23
11
456.976
21
-280.311
0
LINE
8
BLACK
6
CONTINUOUS
10
456.976
20
-280.311
11
456.952
21
-280.389
0
LINE
8
BLACK
6
CONTINUOUS
10
456.952
20
-280.389
11
456.925
21
-280.467
0
LINE
8
BLACK
6
CONTINUOUS
10
456.925
20
-280.467
11
456.897
21
-280.54
0
LINE
8
BLACK
6
CONTINUOUS
10
456.897
20
-280.54
11
456.866
21
-280.61
0
LINE
8
BLACK
6
CONTINUOUS
10
456.866
20
-280.61
11
456.832
21
-280.679
0
LINE
8
BLACK
6
CONTINUOUS
10
456.832
20
-280.679
11
456.796
21
-280.745
0
LINE
8
BLACK
6
CONTINUOUS
10
456.796
20
-280.745
11
456.787
21
-280.762
0
ARC
8
BLACK
10
364.564
20
-112.908
40
4.9
50
90
51
180
0
LINE
8
BLACK
6
CONTINUOUS
10
423.989
20
-277.623
11
438.837
21
-277.623
0
LINE
8
BLACK
6
CONTINUOUS
10
385.889
20
-263.335
11
378.664
21
-263.335
0
LINE
8
BLACK
6
CONTINUOUS
10
455.098
20
-281.737
11
454.999
21
-281.734
0
LINE
8
BLACK
6
CONTINUOUS
10
454.999
20
-281.734
11
454.903
21
-281.727
0
LINE
8
BLACK
6
CONTINUOUS
10
454.903
20
-281.727
11
454.811
21
-281.715
0
LINE
8
BLACK
6
CONTINUOUS
10
454.811
20
-281.715
11
454.718
21
-281.699
0
LINE
8
BLACK
6
CONTINUOUS
10
454.718
20
-281.699
11
454.634
21
-281.681
0
LINE
8
BLACK
6
CONTINUOUS
10
454.634
20
-281.681
11
454.55
21
-281.658
0
LINE
8
BLACK
6
CONTINUOUS
10
454.55
20
-281.658
11
454.474
21
-281.634
0
LINE
8
BLACK
6
CONTINUOUS
10
454.474
20
-281.634
11
454.4
21
-281.607
0
LINE
8
BLACK
6
CONTINUOUS
10
454.4
20
-281.607
11
454.328
21
-281.578
0
LINE
8
BLACK
6
CONTINUOUS
10
454.328
20
-281.578
11
454.258
21
-281.547
0
LINE
8
BLACK
6
CONTINUOUS
10
454.258
20
-281.547
11
454.189
21
-281.512
0
LINE
8
BLACK
6
CONTINUOUS
10
454.189
20
-281.512
11
454.12
21
-281.474
0
LINE
8
BLACK
6
CONTINUOUS
10
454.12
20
-281.474
11
454.056
21
-281.435
0
LINE
8
BLACK
6
CONTINUOUS
10
454.056
20
-281.435
11
453.995
21
-281.395
0
LINE
8
BLACK
6
CONTINUOUS
10
453.995
20
-281.395
11
453.936
21
-281.352
0
LINE
8
BLACK
6
CONTINUOUS
10
453.936
20
-281.352
11
453.879
21
-281.309
0
LINE
8
BLACK
6
CONTINUOUS
10
453.879
20
-281.309
11
453.822
21
-281.261
0
LINE
8
BLACK
6
CONTINUOUS
10
453.822
20
-281.261
11
453.769
21
-281.214
0
LINE
8
BLACK
6
CONTINUOUS
10
453.769
20
-281.214
11
453.713
21
-281.159
0
LINE
8
BLACK
6
CONTINUOUS
10
453.713
20
-281.159
11
453.662
21
-281.106
0
LINE
8
BLACK
6
CONTINUOUS
10
453.662
20
-281.106
11
453.614
21
-281.052
0
LINE
8
BLACK
6
CONTINUOUS
10
453.614
20
-281.052
11
453.569
21
-280.997
0
LINE
8
BLACK
6
CONTINUOUS
10
453.569
20
-280.997
11
453.524
21
-280.938
0
LINE
8
BLACK
6
CONTINUOUS
10
453.524
20
-280.938
11
453.482
21
-280.878
0
LINE
8
BLACK
6
CONTINUOUS
10
453.482
20
-280.878
11
453.442
21
-280.817
0
LINE
8
BLACK
6
CONTINUOUS
10
453.442
20
-280.817
11
453.409
21
-280.762
0
LINE
8
BLACK
6
CONTINUOUS
10
422.484
20
-121.78
11
439.337
21
-121.78
0
LINE
8
BLACK
6
CONTINUOUS
10
439.337
20
-128.922
11
458.387
21
-128.922
0
LINE
8
BLACK
6
CONTINUOUS
10
455.098
20
-119.927
11
454.999
21
-119.924
0
LINE
8
BLACK
6
CONTINUOUS
10
454.999
20
-119.924
11
454.903
21
-119.917
0
LINE
8
BLACK
6
CONTINUOUS
10
454.903
20
-119.917
11
454.811
21
-119.906
0
LINE
8
BLACK
6
CONTINUOUS
10
454.811
20
-119.906
11
454.718
21
-119.89
0
LINE
8
BLACK
6
CONTINUOUS
10
454.718
20
-119.89
11
454.634
21
-119.871
0
LINE
8
BLACK
6
CONTINUOUS
10
454.634
20
-119.871
11
454.55
21
-119.848
0
LINE
8
BLACK
6
CONTINUOUS
10
454.55
20
-119.848
11
454.474
21
-119.824
0
LINE
8
BLACK
6
CONTINUOUS
10
454.474
20
-119.824
11
454.4
21
-119.798
0
LINE
8
BLACK
6
CONTINUOUS
10
454.4
20
-119.798
11
454.328
21
-119.769
0
LINE
8
BLACK
6
CONTINUOUS
10
454.328
20
-119.769
11
454.258
21
-119.737
0
LINE
8
BLACK
6
CONTINUOUS
10
454.258
20
-119.737
11
454.189
21
-119.702
0
LINE
8
BLACK
6
CONTINUOUS
10
454.189
20
-119.702
11
454.12
21
-119.664
0
LINE
8
BLACK
6
CONTINUOUS
10
454.12
20
-119.664
11
454.056
21
-119.625
0
LINE
8
BLACK
6
CONTINUOUS
10
454.056
20
-119.625
11
453.995
21
-119.585
0
LINE
8
BLACK
6
CONTINUOUS
10
453.995
20
-119.585
11
453.936
21
-119.543
0
LINE
8
BLACK
6
CONTINUOUS
10
453.936
20
-119.543
11
453.879
21
-119.499
0
LINE
8
BLACK
6
CONTINUOUS
10
453.879
20
-119.499
11
453.822
21
-119.451
0
LINE
8
BLACK
6
CONTINUOUS
10
453.822
20
-119.451
11
453.769
21
-119.404
0
LINE
8
BLACK
6
CONTINUOUS
10
453.769
20
-119.404
11
453.713
21
-119.35
0
LINE
8
BLACK
6
CONTINUOUS
10
453.713
20
-119.35
11
453.662
21
-119.296
0
LINE
8
BLACK
6
CONTINUOUS
10
453.662
20
-119.296
11
453.614
21
-119.242
0
LINE
8
BLACK
6
CONTINUOUS
10
453.614
20
-119.242
11
453.569
21
-119.187
0
LINE
8
BLACK
6
CONTINUOUS
10
453.569
20
-119.187
11
453.524
21
-119.128
0
LINE
8
BLACK
6
CONTINUOUS
10
453.524
20
-119.128
11
453.482
21
-119.068
0
LINE
8
BLACK
6
CONTINUOUS
10
453.482
20
-119.068
11
453.442
21
-119.007
0
LINE
8
BLACK
6
CONTINUOUS
10
453.442
20
-119.007
11
453.409
21
-118.952
0
LINE
8
BLACK
6
CONTINUOUS
10
422.484
20
-115.059
11
422.484
21
-121.78
0
LINE
8
BLACK
6
CONTINUOUS
10
458.387
20
-241.269
11
460.164
21
-241.269
0
LINE
8
BLACK
6
CONTINUOUS
10
378.664
20
-115.059
11
422.484
21
-115.059
0
LINE
8
BLACK
6
CONTINUOUS
10
400.737
20
-268.098
11
400.737
21
-272.86
0
LINE
8
BLACK
6
CONTINUOUS
10
458.387
20
-241.269
11
458.387
21
-128.922
0
ARC
8
BLACK
10
460.164
20
-112.908
40
4.9
50
-0
51
90
0
LINE
8
BLACK
6
CONTINUOUS
10
453.409
20
-118.952
11
453.373
21
-118.887
0
LINE
8
BLACK
6
CONTINUOUS
10
453.373
20
-118.887
11
453.34
21
-118.82
0
LINE
8
BLACK
6
CONTINUOUS
10
453.34
20
-118.82
11
453.308
21
-118.75
0
LINE
8
BLACK
6
CONTINUOUS
10
453.308
20
-118.75
11
453.278
21
-118.678
0
LINE
8
BLACK
6
CONTINUOUS
10
453.278
20
-118.678
11
453.251
21
-118.603
0
LINE
8
BLACK
6
CONTINUOUS
10
453.251
20
-118.603
11
453.227
21
-118.526
0
LINE
8
BLACK
6
CONTINUOUS
10
453.227
20
-118.526
11
453.206
21
-118.448
0
LINE
8
BLACK
6
CONTINUOUS
10
453.206
20
-118.448
11
453.186
21
-118.362
0
LINE
8
BLACK
6
CONTINUOUS
10
453.186
20
-118.362
11
453.17
21
-118.273
0
LINE
8
BLACK
6
CONTINUOUS
10
453.17
20
-118.273
11
453.158
21
-118.177
0
LINE
8
BLACK
6
CONTINUOUS
10
453.158
20
-118.177
11
453.151
21
-118.082
0
LINE
8
BLACK
6
CONTINUOUS
10
453.151
20
-118.082
11
453.148
21
-117.984
0
LINE
8
BLACK
6
CONTINUOUS
10
453.148
20
-117.984
11
453.15
21
-117.885
0
LINE
8
BLACK
6
CONTINUOUS
10
453.15
20
-117.885
11
453.157
21
-117.791
0
LINE
8
BLACK
6
CONTINUOUS
10
453.157
20
-117.791
11
453.168
21
-117.698
0
LINE
8
BLACK
6
CONTINUOUS
10
453.168
20
-117.698
11
453.183
21
-117.609
0
LINE
8
BLACK
6
CONTINUOUS
10
453.183
20
-117.609
11
453.201
21
-117.523
0
LINE
8
BLACK
6
CONTINUOUS
10
453.201
20
-117.523
11
453.222
21
-117.444
0
LINE
8
BLACK
6
CONTINUOUS
10
453.222
20
-117.444
11
453.246
21
-117.366
0
LINE
8
BLACK
6
CONTINUOUS
10
453.246
20
-117.366
11
453.272
21
-117.292
0
LINE
8
BLACK
6
CONTINUOUS
10
453.272
20
-117.292
11
453.301
21
-117.22
0
LINE
8
BLACK
6
CONTINUOUS
10
453.301
20
-117.22
11
453.332
21
-117.151
0
LINE
8
BLACK
6
CONTINUOUS
10
453.332
20
-117.151
11
453.365
21
-117.083
0
LINE
8
BLACK
6
CONTINUOUS
10
453.365
20
-117.083
11
453.402
21
-117.015
0
LINE
8
BLACK
6
CONTINUOUS
10
453.402
20
-117.015
11
453.409
21
-117.002
0
ARC
8
BLACK
10
341.84
20
-201.9
40
1
50
-0
51
90
0
ARC
8
BLACK
10
373.664
20
-247.91
40
1
50
-90
51
-0
0
ARC
8
BLACK
10
437.84
20
-201.9
40
1
50
90
51
180
0
LINE
8
BLACK
6
CONTINUOUS
10
439.84
20
-200.9
11
439.84
21
-196.9
0
LINE
8
BLACK
6
CONTINUOUS
10
374.664
20
-127.91
11
374.664
21
-129.91
0
ARC
8
BLACK
10
373.664
20
-127.91
40
1
50
-0
51
90
0
LINE
8
BLACK
6
CONTINUOUS
10
439.84
20
-196.9
11
432.84
21
-196.9
0
LINE
8
BLACK
6
CONTINUOUS
10
412.317
20
-289.137
11
412.317
21
-296.663
0
LINE
8
BLACK
6
CONTINUOUS
10
412.317
20
-296.664
11
412.321
21
-296.76
0
LINE
8
BLACK
6
CONTINUOUS
10
412.321
20
-296.76
11
412.334
21
-296.848
0
LINE
8
BLACK
6
CONTINUOUS
10
412.334
20
-296.848
11
412.353
21
-296.931
0
LINE
8
BLACK
6
CONTINUOUS
10
412.353
20
-296.931
11
412.378
21
-297.008
0
LINE
8
BLACK
6
CONTINUOUS
10
412.378
20
-297.008
11
412.407
21
-297.08
0
LINE
8
BLACK
6
CONTINUOUS
10
412.407
20
-297.08
11
412.441
21
-297.146
0
LINE
8
BLACK
6
CONTINUOUS
10
412.441
20
-297.146
11
412.479
21
-297.21
0
LINE
8
BLACK
6
CONTINUOUS
10
412.479
20
-297.21
11
412.521
21
-297.269
0
LINE
8
BLACK
6
CONTINUOUS
10
412.521
20
-297.269
11
412.566
21
-297.324
0
LINE
8
BLACK
6
CONTINUOUS
10
412.566
20
-297.324
11
412.615
21
-297.376
0
LINE
8
BLACK
6
CONTINUOUS
10
412.615
20
-297.376
11
412.667
21
-297.424
0
LINE
8
BLACK
6
CONTINUOUS
10
412.667
20
-297.424
11
412.724
21
-297.469
0
LINE
8
BLACK
6
CONTINUOUS
10
412.724
20
-297.469
11
412.784
21
-297.51
0
LINE
8
BLACK
6
CONTINUOUS
10
412.784
20
-297.51
11
412.848
21
-297.547
0
LINE
8
BLACK
6
CONTINUOUS
10
412.848
20
-297.547
11
412.917
21
-297.581
0
LINE
8
BLACK
6
CONTINUOUS
10
412.917
20
-297.581
11
412.99
21
-297.609
0
LINE
8
BLACK
6
CONTINUOUS
10
412.99
20
-297.609
11
413.068
21
-297.632
0
LINE
8
BLACK
6
CONTINUOUS
10
413.068
20
-297.632
11
413.151
21
-297.65
0
LINE
8
BLACK
6
CONTINUOUS
10
413.151
20
-297.65
11
413.241
21
-297.661
0
LINE
8
BLACK
6
CONTINUOUS
10
413.241
20
-297.661
11
413.317
21
-297.664
0
LINE
8
BLACK
6
CONTINUOUS
10
413.318
20
-297.661
11
436.372
21
-297.661
0
LINE
8
BLACK
6
CONTINUOUS
10
436.372
20
-282.208
11
436.372
21
-297.661
0
ARC
8
BLACK
10
422.372
20
-279.208
40
1
50
-180
51
-90
0
ARC
8
BLACK
10
454.152
20
-200.69
40
1
50
-180
51
-90
0
ARC
8
BLACK
10
358.152
20
-200.69
40
1
50
-90
51
-0
0
ARC
8
BLACK
10
422.372
20
-159.208
40
1
50
90
51
180
0
LINE
8
BLACK
6
CONTINUOUS
10
436.372
20
-156.208
11
436.372
21
-145.108
0
LINE
8
BLACK
6
CONTINUOUS
10
451.152
20
-186.69
11
361.152
21
-186.69
0
LINE
8
BLACK
6
CONTINUOUS
10
356.152
20
-201.69
11
356.152
21
-205.69
0
ARC
8
BLACK
10
361.152
20
-188.69
40
2
50
90
51
180
0
LINE
8
BLACK
6
CONTINUOUS
10
363.152
20
-205.69
11
356.152
21
-205.69
0
LINE
8
BLACK
6
CONTINUOUS
10
421.372
20
-159.208
11
421.372
21
-161.208
0
ARC
8
BLACK
10
434.372
20
-156.208
40
2
50
-90
51
-0
0
LINE
8
BLACK
6
CONTINUOUS
10
356.152
20
-201.69
11
358.152
21
-201.69
0
LINE
8
BLACK
6
CONTINUOUS
10
421.372
20
-161.208
11
417.372
21
-161.208
0
LINE
8
BLACK
6
CONTINUOUS
10
434.372
20
-158.208
11
422.372
21
-158.208
0
LINE
8
BLACK
6
CONTINUOUS
10
417.372
20
-146.883
11
417.372
21
-161.208
0
LINE
8
BLACK
6
CONTINUOUS
10
359.152
20
-200.69
11
359.152
21
-188.69
0
ARC
8
BLACK
10
451.152
20
-188.69
40
2
50
-0
51
90
0
LINE
8
BLACK
6
CONTINUOUS
10
453.152
20
-188.69
11
453.152
21
-200.69
0
LINE
8
BLACK
6
CONTINUOUS
10
363.152
20
-193.365
11
449.152
21
-193.365
0
LINE
8
BLACK
6
CONTINUOUS
10
363.152
20
-205.69
11
363.152
21
-193.365
0
LINE
8
BLACK
6
CONTINUOUS
10
421.372
20
-277.208
11
421.372
21
-279.208
0
LINE
8
BLACK
6
CONTINUOUS
10
421.372
20
-277.208
11
417.372
21
-277.208
0
LINE
8
BLACK
6
CONTINUOUS
10
456.152
20
-201.69
11
456.152
21
-205.69
0
LINE
8
BLACK
6
CONTINUOUS
10
417.372
20
-277.208
11
417.372
21
-286.058
0
LINE
8
BLACK
6
CONTINUOUS
10
454.152
20
-201.69
11
456.152
21
-201.69
0
LINE
8
BLACK
6
CONTINUOUS
10
449.152
20
-205.69
11
456.152
21
-205.69
0
LINE
8
BLACK
6
CONTINUOUS
10
449.152
20
-193.365
11
449.152
21
-205.69
0
ARC
8
BLACK
10
434.372
20
-282.208
40
2
50
-0
51
90
0
LINE
8
BLACK
6
CONTINUOUS
10
422.372
20
-280.208
11
434.372
21
-280.208
0
ARC
8
BLACK
10
394.27
20
-289.136
40
1
50
90
51
180
0
LINE
8
BLACK
6
CONTINUOUS
10
374.217
20
-291.9
11
374.221
21
-291.996
0
LINE
8
BLACK
6
CONTINUOUS
10
374.221
20
-291.996
11
374.234
21
-292.084
0
LINE
8
BLACK
6
CONTINUOUS
10
374.234
20
-292.084
11
374.253
21
-292.167
0
LINE
8
BLACK
6
CONTINUOUS
10
374.253
20
-292.167
11
374.278
21
-292.244
0
LINE
8
BLACK
6
CONTINUOUS
10
374.278
20
-292.244
11
374.307
21
-292.316
0
LINE
8
BLACK
6
CONTINUOUS
10
374.307
20
-292.316
11
374.341
21
-292.382
0
LINE
8
BLACK
6
CONTINUOUS
10
374.341
20
-292.382
11
374.379
21
-292.446
0
LINE
8
BLACK
6
CONTINUOUS
10
374.379
20
-292.446
11
374.421
21
-292.505
0
LINE
8
BLACK
6
CONTINUOUS
10
374.421
20
-292.505
11
374.466
21
-292.56
0
LINE
8
BLACK
6
CONTINUOUS
10
374.466
20
-292.56
11
374.515
21
-292.612
0
LINE
8
BLACK
6
CONTINUOUS
10
374.515
20
-292.612
11
374.567
21
-292.66
0
LINE
8
BLACK
6
CONTINUOUS
10
374.567
20
-292.66
11
374.624
21
-292.705
0
LINE
8
BLACK
6
CONTINUOUS
10
374.624
20
-292.705
11
374.684
21
-292.746
0
LINE
8
BLACK
6
CONTINUOUS
10
374.684
20
-292.746
11
374.748
21
-292.783
0
LINE
8
BLACK
6
CONTINUOUS
10
374.748
20
-292.783
11
374.817
21
-292.817
0
LINE
8
BLACK
6
CONTINUOUS
10
374.817
20
-292.817
11
374.889
21
-292.845
0
LINE
8
BLACK
6
CONTINUOUS
10
374.889
20
-292.845
11
374.967
21
-292.868
0
LINE
8
BLACK
6
CONTINUOUS
10
374.967
20
-292.868
11
375.051
21
-292.886
0
LINE
8
BLACK
6
CONTINUOUS
10
375.051
20
-292.886
11
375.141
21
-292.897
0
LINE
8
BLACK
6
CONTINUOUS
10
375.141
20
-292.897
11
375.217
21
-292.9
0
LINE
8
BLACK
6
CONTINUOUS
10
375.218
20
-292.899
11
392.271
21
-292.899
0
LINE
8
BLACK
6
CONTINUOUS
10
355.167
20
-282.375
11
355.171
21
-282.471
0
LINE
8
BLACK
6
CONTINUOUS
10
355.171
20
-282.471
11
355.184
21
-282.559
0
LINE
8
BLACK
6
CONTINUOUS
10
355.184
20
-282.559
11
355.203
21
-282.642
0
LINE
8
BLACK
6
CONTINUOUS
10
355.203
20
-282.642
11
355.228
21
-282.719
0
LINE
8
BLACK
6
CONTINUOUS
10
355.228
20
-282.719
11
355.257
21
-282.791
0
LINE
8
BLACK
6
CONTINUOUS
10
355.257
20
-282.791
11
355.291
21
-282.857
0
LINE
8
BLACK
6
CONTINUOUS
10
355.291
20
-282.857
11
355.329
21
-282.921
0
LINE
8
BLACK
6
CONTINUOUS
10
355.329
20
-282.921
11
355.371
21
-282.98
0
LINE
8
BLACK
6
CONTINUOUS
10
355.371
20
-282.98
11
355.416
21
-283.035
0
LINE
8
BLACK
6
CONTINUOUS
10
355.416
20
-283.035
11
355.465
21
-283.087
0
LINE
8
BLACK
6
CONTINUOUS
10
355.465
20
-283.087
11
355.517
21
-283.135
0
LINE
8
BLACK
6
CONTINUOUS
10
355.517
20
-283.135
11
355.574
21
-283.18
0
LINE
8
BLACK
6
CONTINUOUS
10
355.574
20
-283.18
11
355.634
21
-283.221
0
LINE
8
BLACK
6
CONTINUOUS
10
355.634
20
-283.221
11
355.698
21
-283.258
0
LINE
8
BLACK
6
CONTINUOUS
10
355.698
20
-283.258
11
355.767
21
-283.292
0
LINE
8
BLACK
6
CONTINUOUS
10
355.767
20
-283.292
11
355.839
21
-283.32
0
LINE
8
BLACK
6
CONTINUOUS
10
355.839
20
-283.32
11
355.917
21
-283.343
0
LINE
8
BLACK
6
CONTINUOUS
10
355.917
20
-283.343
11
356.001
21
-283.361
0
LINE
8
BLACK
6
CONTINUOUS
10
356.001
20
-283.361
11
356.091
21
-283.372
0
LINE
8
BLACK
6
CONTINUOUS
10
356.091
20
-283.372
11
356.167
21
-283.375
0
LINE
8
BLACK
6
CONTINUOUS
10
355.167
20
-279.612
11
355.167
21
-282.373
0
LINE
8
BLACK
6
CONTINUOUS
10
374.217
20
-284.372
11
374.217
21
-291.898
0
LINE
8
BLACK
6
CONTINUOUS
10
374.217
20
-284.375
11
374.212
21
-284.278
0
LINE
8
BLACK
6
CONTINUOUS
10
374.212
20
-284.278
11
374.199
21
-284.188
0
LINE
8
BLACK
6
CONTINUOUS
10
374.199
20
-284.188
11
374.18
21
-284.106
0
LINE
8
BLACK
6
CONTINUOUS
10
374.18
20
-284.106
11
374.155
21
-284.029
0
LINE
8
BLACK
6
CONTINUOUS
10
374.155
20
-284.029
11
374.125
21
-283.956
0
LINE
8
BLACK
6
CONTINUOUS
10
374.125
20
-283.956
11
374.091
21
-283.889
0
LINE
8
BLACK
6
CONTINUOUS
10
374.091
20
-283.889
11
374.052
21
-283.825
0
LINE
8
BLACK
6
CONTINUOUS
10
374.052
20
-283.825
11
374.01
21
-283.765
0
LINE
8
BLACK
6
CONTINUOUS
10
374.01
20
-283.765
11
373.963
21
-283.709
0
LINE
8
BLACK
6
CONTINUOUS
10
373.963
20
-283.709
11
373.914
21
-283.658
0
LINE
8
BLACK
6
CONTINUOUS
10
373.914
20
-283.658
11
373.861
21
-283.61
0
LINE
8
BLACK
6
CONTINUOUS
10
373.861
20
-283.61
11
373.805
21
-283.566
0
LINE
8
BLACK
6
CONTINUOUS
10
373.805
20
-283.566
11
373.744
21
-283.525
0
LINE
8
BLACK
6
CONTINUOUS
10
373.744
20
-283.525
11
373.679
21
-283.488
0
LINE
8
BLACK
6
CONTINUOUS
10
373.679
20
-283.488
11
373.611
21
-283.455
0
LINE
8
BLACK
6
CONTINUOUS
10
373.611
20
-283.455
11
373.537
21
-283.427
0
LINE
8
BLACK
6
CONTINUOUS
10
373.537
20
-283.427
11
373.457
21
-283.404
0
LINE
8
BLACK
6
CONTINUOUS
10
373.457
20
-283.404
11
373.373
21
-283.387
0
LINE
8
BLACK
6
CONTINUOUS
10
373.373
20
-283.387
11
373.282
21
-283.377
0
LINE
8
BLACK
6
CONTINUOUS
10
373.282
20
-283.377
11
373.217
21
-283.375
0
LINE
8
BLACK
6
CONTINUOUS
10
394.27
20
-288.136
11
411.319
21
-288.136
0
LINE
8
BLACK
6
CONTINUOUS
10
355.167
20
-279.614
11
355.162
21
-279.517
0
LINE
8
BLACK
6
CONTINUOUS
10
355.162
20
-279.517
11
355.149
21
-279.427
0
LINE
8
BLACK
6
CONTINUOUS
10
355.149
20
-279.427
11
355.13
21
-279.345
0
LINE
8
BLACK
6
CONTINUOUS
10
355.13
20
-279.345
11
355.105
21
-279.268
0
LINE
8
BLACK
6
CONTINUOUS
10
355.105
20
-279.268
11
355.075
21
-279.195
0
LINE
8
BLACK
6
CONTINUOUS
10
355.075
20
-279.195
11
355.041
21
-279.128
0
LINE
8
BLACK
6
CONTINUOUS
10
355.041
20
-279.128
11
355.002
21
-279.064
0
LINE
8
BLACK
6
CONTINUOUS
10
355.002
20
-279.064
11
354.96
21
-279.004
0
LINE
8
BLACK
6
CONTINUOUS
10
354.96
20
-279.004
11
354.913
21
-278.948
0
LINE
8
BLACK
6
CONTINUOUS
10
354.913
20
-278.948
11
354.864
21
-278.897
0
LINE
8
BLACK
6
CONTINUOUS
10
354.864
20
-278.897
11
354.811
21
-278.849
0
LINE
8
BLACK
6
CONTINUOUS
10
354.811
20
-278.849
11
354.755
21
-278.805
0
LINE
8
BLACK
6
CONTINUOUS
10
354.755
20
-278.805
11
354.694
21
-278.764
0
LINE
8
BLACK
6
CONTINUOUS
10
354.694
20
-278.764
11
354.629
21
-278.727
0
LINE
8
BLACK
6
CONTINUOUS
10
354.629
20
-278.727
11
354.561
21
-278.695
0
LINE
8
BLACK
6
CONTINUOUS
10
354.561
20
-278.695
11
354.487
21
-278.666
0
LINE
8
BLACK
6
CONTINUOUS
10
354.487
20
-278.666
11
354.407
21
-278.643
0
LINE
8
BLACK
6
CONTINUOUS
10
354.407
20
-278.643
11
354.323
21
-278.626
0
LINE
8
BLACK
6
CONTINUOUS
10
354.323
20
-278.626
11
354.232
21
-278.616
0
LINE
8
BLACK
6
CONTINUOUS
10
354.232
20
-278.616
11
354.167
21
-278.614
0
LINE
8
BLACK
6
CONTINUOUS
10
412.317
20
-289.139
11
412.312
21
-289.042
0
LINE
8
BLACK
6
CONTINUOUS
10
412.312
20
-289.042
11
412.299
21
-288.952
0
LINE
8
BLACK
6
CONTINUOUS
10
412.299
20
-288.952
11
412.28
21
-288.87
0
LINE
8
BLACK
6
CONTINUOUS
10
412.28
20
-288.87
11
412.255
21
-288.793
0
LINE
8
BLACK
6
CONTINUOUS
10
412.255
20
-288.793
11
412.225
21
-288.72
0
LINE
8
BLACK
6
CONTINUOUS
10
412.225
20
-288.72
11
412.191
21
-288.653
0
LINE
8
BLACK
6
CONTINUOUS
10
412.191
20
-288.653
11
412.152
21
-288.589
0
LINE
8
BLACK
6
CONTINUOUS
10
412.152
20
-288.589
11
412.11
21
-288.529
0
LINE
8
BLACK
6
CONTINUOUS
10
412.11
20
-288.529
11
412.064
21
-288.473
0
LINE
8
BLACK
6
CONTINUOUS
10
412.064
20
-288.473
11
412.015
21
-288.422
0
LINE
8
BLACK
6
CONTINUOUS
10
412.015
20
-288.422
11
411.961
21
-288.374
0
LINE
8
BLACK
6
CONTINUOUS
10
411.961
20
-288.374
11
411.905
21
-288.33
0
LINE
8
BLACK
6
CONTINUOUS
10
411.905
20
-288.33
11
411.844
21
-288.289
0
LINE
8
BLACK
6
CONTINUOUS
10
411.844
20
-288.289
11
411.779
21
-288.252
0
LINE
8
BLACK
6
CONTINUOUS
10
411.779
20
-288.252
11
411.711
21
-288.22
0
LINE
8
BLACK
6
CONTINUOUS
10
411.711
20
-288.22
11
411.637
21
-288.191
0
LINE
8
BLACK
6
CONTINUOUS
10
411.637
20
-288.191
11
411.557
21
-288.168
0
LINE
8
BLACK
6
CONTINUOUS
10
411.557
20
-288.168
11
411.473
21
-288.151
0
LINE
8
BLACK
6
CONTINUOUS
10
411.473
20
-288.151
11
411.382
21
-288.141
0
LINE
8
BLACK
6
CONTINUOUS
10
411.382
20
-288.141
11
411.317
21
-288.139
0
LINE
8
BLACK
6
CONTINUOUS
10
356.168
20
-283.374
11
373.219
21
-283.374
0
LINE
8
BLACK
6
CONTINUOUS
10
330.972
20
-278.611
11
354.169
21
-278.611
0
LINE
8
BLACK
6
CONTINUOUS
10
393.27
20
-291.898
11
393.27
21
-289.136
0
LINE
8
BLACK
6
CONTINUOUS
10
392.269
20
-292.9
11
392.369
21
-292.895
0
LINE
8
BLACK
6
CONTINUOUS
10
392.369
20
-292.895
11
392.456
21
-292.882
0
LINE
8
BLACK
6
CONTINUOUS
10
392.456
20
-292.882
11
392.539
21
-292.863
0
LINE
8
BLACK
6
CONTINUOUS
10
392.539
20
-292.863
11
392.615
21
-292.838
0
LINE
8
BLACK
6
CONTINUOUS
10
392.615
20
-292.838
11
392.686
21
-292.809
0
LINE
8
BLACK
6
CONTINUOUS
10
392.686
20
-292.809
11
392.755
21
-292.774
0
LINE
8
BLACK
6
CONTINUOUS
10
392.755
20
-292.774
11
392.819
21
-292.735
0
LINE
8
BLACK
6
CONTINUOUS
10
392.819
20
-292.735
11
392.878
21
-292.693
0
LINE
8
BLACK
6
CONTINUOUS
10
392.878
20
-292.693
11
392.933
21
-292.648
0
LINE
8
BLACK
6
CONTINUOUS
10
392.933
20
-292.648
11
392.985
21
-292.598
0
LINE
8
BLACK
6
CONTINUOUS
10
392.985
20
-292.598
11
393.033
21
-292.545
0
LINE
8
BLACK
6
CONTINUOUS
10
393.033
20
-292.545
11
393.08
21
-292.485
0
LINE
8
BLACK
6
CONTINUOUS
10
393.08
20
-292.485
11
393.122
21
-292.423
0
LINE
8
BLACK
6
CONTINUOUS
10
393.122
20
-292.423
11
393.159
21
-292.357
0
LINE
8
BLACK
6
CONTINUOUS
10
393.159
20
-292.357
11
393.191
21
-292.288
0
LINE
8
BLACK
6
CONTINUOUS
10
393.191
20
-292.288
11
393.219
21
-292.215
0
LINE
8
BLACK
6
CONTINUOUS
10
393.219
20
-292.215
11
393.242
21
-292.135
0
LINE
8
BLACK
6
CONTINUOUS
10
393.242
20
-292.135
11
393.258
21
-292.051
0
LINE
8
BLACK
6
CONTINUOUS
10
393.258
20
-292.051
11
393.268
21
-291.96
0
LINE
8
BLACK
6
CONTINUOUS
10
393.268
20
-291.96
11
393.269
21
-291.9
0
ARC
8
BLACK
10
431.472
20
-145.108
40
4.9
50
-0
51
90
0
ARC
8
BLACK
10
335.872
20
-145.108
40
4.9
50
90
51
180
0
LINE
8
BLACK
6
CONTINUOUS
10
431.472
20
-140.208
11
335.872
21
-140.208
0
LINE
8
BLACK
6
CONTINUOUS
10
330.972
20
-145.108
11
330.972
21
-278.611
0
LINE
8
BLACK
6
CONTINUOUS
10
342.627
20
-149.216
11
342.663
21
-149.281
0
LINE
8
BLACK
6
CONTINUOUS
10
342.663
20
-149.281
11
342.697
21
-149.35
0
LINE
8
BLACK
6
CONTINUOUS
10
342.697
20
-149.35
11
342.729
21
-149.42
0
LINE
8
BLACK
6
CONTINUOUS
10
342.729
20
-149.42
11
342.759
21
-149.494
0
LINE
8
BLACK
6
CONTINUOUS
10
342.759
20
-149.494
11
342.786
21
-149.568
0
LINE
8
BLACK
6
CONTINUOUS
10
342.786
20
-149.568
11
342.81
21
-149.644
0
LINE
8
BLACK
6
CONTINUOUS
10
342.81
20
-149.644
11
342.831
21
-149.724
0
LINE
8
BLACK
6
CONTINUOUS
10
342.831
20
-149.724
11
342.85
21
-149.807
0
LINE
8
BLACK
6
CONTINUOUS
10
342.85
20
-149.807
11
342.865
21
-149.893
0
LINE
8
BLACK
6
CONTINUOUS
10
342.865
20
-149.893
11
342.877
21
-149.984
0
LINE
8
BLACK
6
CONTINUOUS
10
342.877
20
-149.984
11
342.885
21
-150.078
0
LINE
8
BLACK
6
CONTINUOUS
10
342.885
20
-150.078
11
342.888
21
-150.177
0
LINE
8
BLACK
6
CONTINUOUS
10
342.888
20
-150.177
11
342.886
21
-150.275
0
LINE
8
BLACK
6
CONTINUOUS
10
342.886
20
-150.275
11
342.88
21
-150.372
0
LINE
8
BLACK
6
CONTINUOUS
10
342.88
20
-150.372
11
342.869
21
-150.462
0
LINE
8
BLACK
6
CONTINUOUS
10
342.869
20
-150.462
11
342.855
21
-150.55
0
LINE
8
BLACK
6
CONTINUOUS
10
342.855
20
-150.55
11
342.837
21
-150.635
0
LINE
8
BLACK
6
CONTINUOUS
10
342.837
20
-150.635
11
342.816
21
-150.716
0
LINE
8
BLACK
6
CONTINUOUS
10
342.816
20
-150.716
11
342.793
21
-150.794
0
LINE
8
BLACK
6
CONTINUOUS
10
342.793
20
-150.794
11
342.766
21
-150.872
0
LINE
8
BLACK
6
CONTINUOUS
10
342.766
20
-150.872
11
342.737
21
-150.944
0
LINE
8
BLACK
6
CONTINUOUS
10
342.737
20
-150.944
11
342.706
21
-151.015
0
LINE
8
BLACK
6
CONTINUOUS
10
342.706
20
-151.015
11
342.672
21
-151.083
0
LINE
8
BLACK
6
CONTINUOUS
10
342.672
20
-151.083
11
342.636
21
-151.15
0
LINE
8
BLACK
6
CONTINUOUS
10
342.636
20
-151.15
11
342.627
21
-151.166
0
LINE
8
BLACK
6
CONTINUOUS
10
340.938
20
-152.141
11
340.839
21
-152.139
0
LINE
8
BLACK
6
CONTINUOUS
10
340.839
20
-152.139
11
340.743
21
-152.132
0
LINE
8
BLACK
6
CONTINUOUS
10
340.743
20
-152.132
11
340.651
21
-152.12
0
LINE
8
BLACK
6
CONTINUOUS
10
340.651
20
-152.12
11
340.558
21
-152.104
0
LINE
8
BLACK
6
CONTINUOUS
10
340.558
20
-152.104
11
340.475
21
-152.086
0
LINE
8
BLACK
6
CONTINUOUS
10
340.475
20
-152.086
11
340.391
21
-152.063
0
LINE
8
BLACK
6
CONTINUOUS
10
340.391
20
-152.063
11
340.314
21
-152.039
0
LINE
8
BLACK
6
CONTINUOUS
10
340.314
20
-152.039
11
340.24
21
-152.012
0
LINE
8
BLACK
6
CONTINUOUS
10
340.24
20
-152.012
11
340.169
21
-151.983
0
LINE
8
BLACK
6
CONTINUOUS
10
340.169
20
-151.983
11
340.098
21
-151.951
0
LINE
8
BLACK
6
CONTINUOUS
10
340.098
20
-151.951
11
340.03
21
-151.917
0
LINE
8
BLACK
6
CONTINUOUS
10
340.03
20
-151.917
11
339.961
21
-151.879
0
LINE
8
BLACK
6
CONTINUOUS
10
339.961
20
-151.879
11
339.896
21
-151.84
0
LINE
8
BLACK
6
CONTINUOUS
10
339.896
20
-151.84
11
339.835
21
-151.8
0
LINE
8
BLACK
6
CONTINUOUS
10
339.835
20
-151.8
11
339.776
21
-151.757
0
LINE
8
BLACK
6
CONTINUOUS
10
339.776
20
-151.757
11
339.719
21
-151.714
0
LINE
8
BLACK
6
CONTINUOUS
10
339.719
20
-151.714
11
339.662
21
-151.666
0
LINE
8
BLACK
6
CONTINUOUS
10
339.662
20
-151.666
11
339.609
21
-151.618
0
LINE
8
BLACK
6
CONTINUOUS
10
339.609
20
-151.618
11
339.553
21
-151.564
0
LINE
8
BLACK
6
CONTINUOUS
10
339.553
20
-151.564
11
339.502
21
-151.511
0
LINE
8
BLACK
6
CONTINUOUS
10
339.502
20
-151.511
11
339.455
21
-151.457
0
LINE
8
BLACK
6
CONTINUOUS
10
339.455
20
-151.457
11
339.409
21
-151.401
0
LINE
8
BLACK
6
CONTINUOUS
10
339.409
20
-151.401
11
339.364
21
-151.343
0
LINE
8
BLACK
6
CONTINUOUS
10
339.364
20
-151.343
11
339.322
21
-151.283
0
LINE
8
BLACK
6
CONTINUOUS
10
339.322
20
-151.283
11
339.282
21
-151.221
0
LINE
8
BLACK
6
CONTINUOUS
10
339.282
20
-151.221
11
339.249
21
-151.166
0
LINE
8
BLACK
6
CONTINUOUS
10
342.627
20
-151.166
11
342.588
21
-151.23
0
LINE
8
BLACK
6
CONTINUOUS
10
342.588
20
-151.23
11
342.548
21
-151.291
0
LINE
8
BLACK
6
CONTINUOUS
10
342.548
20
-151.291
11
342.506
21
-151.35
0
LINE
8
BLACK
6
CONTINUOUS
10
342.506
20
-151.35
11
342.462
21
-151.408
0
LINE
8
BLACK
6
CONTINUOUS
10
342.462
20
-151.408
11
342.414
21
-151.466
0
LINE
8
BLACK
6
CONTINUOUS
10
342.414
20
-151.466
11
342.366
21
-151.52
0
LINE
8
BLACK
6
CONTINUOUS
10
342.366
20
-151.52
11
342.316
21
-151.571
0
LINE
8
BLACK
6
CONTINUOUS
10
342.316
20
-151.571
11
342.265
21
-151.621
0
LINE
8
BLACK
6
CONTINUOUS
10
342.265
20
-151.621
11
342.211
21
-151.668
0
LINE
8
BLACK
6
CONTINUOUS
10
342.211
20
-151.668
11
342.157
21
-151.714
0
LINE
8
BLACK
6
CONTINUOUS
10
342.157
20
-151.714
11
342.099
21
-151.758
0
LINE
8
BLACK
6
CONTINUOUS
10
342.099
20
-151.758
11
342.04
21
-151.8
0
LINE
8
BLACK
6
CONTINUOUS
10
342.04
20
-151.8
11
341.98
21
-151.84
0
LINE
8
BLACK
6
CONTINUOUS
10
341.98
20
-151.84
11
341.917
21
-151.878
0
LINE
8
BLACK
6
CONTINUOUS
10
341.917
20
-151.878
11
341.852
21
-151.914
0
LINE
8
BLACK
6
CONTINUOUS
10
341.852
20
-151.914
11
341.786
21
-151.948
0
LINE
8
BLACK
6
CONTINUOUS
10
341.786
20
-151.948
11
341.717
21
-151.979
0
LINE
8
BLACK
6
CONTINUOUS
10
341.717
20
-151.979
11
341.645
21
-152.009
0
LINE
8
BLACK
6
CONTINUOUS
10
341.645
20
-152.009
11
341.572
21
-152.036
0
LINE
8
BLACK
6
CONTINUOUS
10
341.572
20
-152.036
11
341.492
21
-152.061
0
LINE
8
BLACK
6
CONTINUOUS
10
341.492
20
-152.061
11
341.413
21
-152.083
0
LINE
8
BLACK
6
CONTINUOUS
10
341.413
20
-152.083
11
341.331
21
-152.101
0
LINE
8
BLACK
6
CONTINUOUS
10
341.331
20
-152.101
11
341.245
21
-152.117
0
LINE
8
BLACK
6
CONTINUOUS
10
341.245
20
-152.117
11
341.155
21
-152.129
0
LINE
8
BLACK
6
CONTINUOUS
10
341.155
20
-152.129
11
341.063
21
-152.137
0
LINE
8
BLACK
6
CONTINUOUS
10
341.063
20
-152.137
11
340.966
21
-152.141
0
LINE
8
BLACK
6
CONTINUOUS
10
340.966
20
-152.141
11
340.938
21
-152.141
0
LINE
8
BLACK
6
CONTINUOUS
10
339.249
20
-149.216
11
339.288
21
-149.152
0
LINE
8
BLACK
6
CONTINUOUS
10
339.288
20
-149.152
11
339.329
21
-149.09
0
LINE
8
BLACK
6
CONTINUOUS
10
339.329
20
-149.09
11
339.371
21
-149.031
0
LINE
8
BLACK
6
CONTINUOUS
10
339.371
20
-149.031
11
339.415
21
-148.974
0
LINE
8
BLACK
6
CONTINUOUS
10
339.415
20
-148.974
11
339.461
21
-148.918
0
LINE
8
BLACK
6
CONTINUOUS
10
339.461
20
-148.918
11
339.51
21
-148.864
0
LINE
8
BLACK
6
CONTINUOUS
10
339.51
20
-148.864
11
339.56
21
-148.812
0
LINE
8
BLACK
6
CONTINUOUS
10
339.56
20
-148.812
11
339.612
21
-148.762
0
LINE
8
BLACK
6
CONTINUOUS
10
339.612
20
-148.762
11
339.667
21
-148.712
0
LINE
8
BLACK
6
CONTINUOUS
10
339.667
20
-148.712
11
339.723
21
-148.666
0
LINE
8
BLACK
6
CONTINUOUS
10
339.723
20
-148.666
11
339.781
21
-148.622
0
LINE
8
BLACK
6
CONTINUOUS
10
339.781
20
-148.622
11
339.84
21
-148.58
0
LINE
8
BLACK
6
CONTINUOUS
10
339.84
20
-148.58
11
339.901
21
-148.54
0
LINE
8
BLACK
6
CONTINUOUS
10
339.901
20
-148.54
11
339.967
21
-148.5
0
LINE
8
BLACK
6
CONTINUOUS
10
339.967
20
-148.5
11
340.033
21
-148.464
0
LINE
8
BLACK
6
CONTINUOUS
10
340.033
20
-148.464
11
340.102
21
-148.43
0
LINE
8
BLACK
6
CONTINUOUS
10
340.102
20
-148.43
11
340.172
21
-148.398
0
LINE
8
BLACK
6
CONTINUOUS
10
340.172
20
-148.398
11
340.244
21
-148.369
0
LINE
8
BLACK
6
CONTINUOUS
10
340.244
20
-148.369
11
340.318
21
-148.343
0
LINE
8
BLACK
6
CONTINUOUS
10
340.318
20
-148.343
11
340.396
21
-148.318
0
LINE
8
BLACK
6
CONTINUOUS
10
340.396
20
-148.318
11
340.477
21
-148.297
0
LINE
8
BLACK
6
CONTINUOUS
10
340.477
20
-148.297
11
340.559
21
-148.278
0
LINE
8
BLACK
6
CONTINUOUS
10
340.559
20
-148.278
11
340.645
21
-148.264
0
LINE
8
BLACK
6
CONTINUOUS
10
340.645
20
-148.264
11
340.735
21
-148.252
0
LINE
8
BLACK
6
CONTINUOUS
10
340.735
20
-148.252
11
340.829
21
-148.244
0
LINE
8
BLACK
6
CONTINUOUS
10
340.829
20
-148.244
11
340.929
21
-148.241
0
LINE
8
BLACK
6
CONTINUOUS
10
340.929
20
-148.241
11
340.938
21
-148.241
0
LINE
8
BLACK
6
CONTINUOUS
10
340.938
20
-148.241
11
341.036
21
-148.244
0
LINE
8
BLACK
6
CONTINUOUS
10
341.036
20
-148.244
11
341.129
21
-148.251
0
LINE
8
BLACK
6
CONTINUOUS
10
341.129
20
-148.251
11
341.219
21
-148.262
0
LINE
8
BLACK
6
CONTINUOUS
10
341.219
20
-148.262
11
341.308
21
-148.277
0
LINE
8
BLACK
6
CONTINUOUS
10
341.308
20
-148.277
11
341.392
21
-148.295
0
LINE
8
BLACK
6
CONTINUOUS
10
341.392
20
-148.295
11
341.475
21
-148.317
0
LINE
8
BLACK
6
CONTINUOUS
10
341.475
20
-148.317
11
341.552
21
-148.34
0
LINE
8
BLACK
6
CONTINUOUS
10
341.552
20
-148.34
11
341.629
21
-148.368
0
LINE
8
BLACK
6
CONTINUOUS
10
341.629
20
-148.368
11
341.7
21
-148.397
0
LINE
8
BLACK
6
CONTINUOUS
10
341.7
20
-148.397
11
341.772
21
-148.429
0
LINE
8
BLACK
6
CONTINUOUS
10
341.772
20
-148.429
11
341.84
21
-148.463
0
LINE
8
BLACK
6
CONTINUOUS
10
341.84
20
-148.463
11
341.905
21
-148.498
0
LINE
8
BLACK
6
CONTINUOUS
10
341.905
20
-148.498
11
341.971
21
-148.538
0
LINE
8
BLACK
6
CONTINUOUS
10
341.971
20
-148.538
11
342.033
21
-148.578
0
LINE
8
BLACK
6
CONTINUOUS
10
342.033
20
-148.578
11
342.092
21
-148.619
0
LINE
8
BLACK
6
CONTINUOUS
10
342.092
20
-148.619
11
342.149
21
-148.663
0
LINE
8
BLACK
6
CONTINUOUS
10
342.149
20
-148.663
11
342.204
21
-148.708
0
LINE
8
BLACK
6
CONTINUOUS
10
342.204
20
-148.708
11
342.257
21
-148.755
0
LINE
8
BLACK
6
CONTINUOUS
10
342.257
20
-148.755
11
342.309
21
-148.805
0
LINE
8
BLACK
6
CONTINUOUS
10
342.309
20
-148.805
11
342.359
21
-148.856
0
LINE
8
BLACK
6
CONTINUOUS
10
342.359
20
-148.856
11
342.406
21
-148.908
0
LINE
8
BLACK
6
CONTINUOUS
10
342.406
20
-148.908
11
342.452
21
-148.963
0
LINE
8
BLACK
6
CONTINUOUS
10
342.452
20
-148.963
11
342.502
21
-149.026
0
LINE
8
BLACK
6
CONTINUOUS
10
342.502
20
-149.026
11
342.544
21
-149.085
0
LINE
8
BLACK
6
CONTINUOUS
10
342.544
20
-149.085
11
342.584
21
-149.146
0
LINE
8
BLACK
6
CONTINUOUS
10
342.584
20
-149.146
11
342.622
21
-149.208
0
LINE
8
BLACK
6
CONTINUOUS
10
342.622
20
-149.208
11
342.627
21
-149.216
0
LINE
8
BLACK
6
CONTINUOUS
10
339.249
20
-151.166
11
339.213
21
-151.101
0
LINE
8
BLACK
6
CONTINUOUS
10
339.213
20
-151.101
11
339.18
21
-151.034
0
LINE
8
BLACK
6
CONTINUOUS
10
339.18
20
-151.034
11
339.148
21
-150.965
0
LINE
8
BLACK
6
CONTINUOUS
10
339.148
20
-150.965
11
339.118
21
-150.893
0
LINE
8
BLACK
6
CONTINUOUS
10
339.118
20
-150.893
11
339.091
21
-150.817
0
LINE
8
BLACK
6
CONTINUOUS
10
339.091
20
-150.817
11
339.067
21
-150.741
0
LINE
8
BLACK
6
CONTINUOUS
10
339.067
20
-150.741
11
339.046
21
-150.662
0
LINE
8
BLACK
6
CONTINUOUS
10
339.046
20
-150.662
11
339.027
21
-150.577
0
LINE
8
BLACK
6
CONTINUOUS
10
339.027
20
-150.577
11
339.011
21
-150.487
0
LINE
8
BLACK
6
CONTINUOUS
10
339.011
20
-150.487
11
338.998
21
-150.391
0
LINE
8
BLACK
6
CONTINUOUS
10
338.998
20
-150.391
11
338.991
21
-150.297
0
LINE
8
BLACK
6
CONTINUOUS
10
338.991
20
-150.297
11
338.988
21
-150.198
0
LINE
8
BLACK
6
CONTINUOUS
10
338.988
20
-150.198
11
338.99
21
-150.1
0
LINE
8
BLACK
6
CONTINUOUS
10
338.99
20
-150.1
11
338.997
21
-150.005
0
LINE
8
BLACK
6
CONTINUOUS
10
338.997
20
-150.005
11
339.008
21
-149.913
0
LINE
8
BLACK
6
CONTINUOUS
10
339.008
20
-149.913
11
339.023
21
-149.823
0
LINE
8
BLACK
6
CONTINUOUS
10
339.023
20
-149.823
11
339.041
21
-149.738
0
LINE
8
BLACK
6
CONTINUOUS
10
339.041
20
-149.738
11
339.062
21
-149.659
0
LINE
8
BLACK
6
CONTINUOUS
10
339.062
20
-149.659
11
339.086
21
-149.581
0
LINE
8
BLACK
6
CONTINUOUS
10
339.086
20
-149.581
11
339.112
21
-149.507
0
LINE
8
BLACK
6
CONTINUOUS
10
339.112
20
-149.507
11
339.141
21
-149.435
0
LINE
8
BLACK
6
CONTINUOUS
10
339.141
20
-149.435
11
339.172
21
-149.365
0
LINE
8
BLACK
6
CONTINUOUS
10
339.172
20
-149.365
11
339.205
21
-149.298
0
LINE
8
BLACK
6
CONTINUOUS
10
339.205
20
-149.298
11
339.242
21
-149.229
0
LINE
8
BLACK
6
CONTINUOUS
10
339.242
20
-149.229
11
339.249
21
-149.216
0
LINE
8
BLACK
6
CONTINUOUS
10
342.627
20
-274.216
11
342.588
21
-274.28
0
LINE
8
BLACK
6
CONTINUOUS
10
342.588
20
-274.28
11
342.548
21
-274.341
0
LINE
8
BLACK
6
CONTINUOUS
10
342.548
20
-274.341
11
342.506
21
-274.4
0
LINE
8
BLACK
6
CONTINUOUS
10
342.506
20
-274.4
11
342.462
21
-274.457
0
LINE
8
BLACK
6
CONTINUOUS
10
342.462
20
-274.457
11
342.414
21
-274.516
0
LINE
8
BLACK
6
CONTINUOUS
10
342.414
20
-274.516
11
342.366
21
-274.57
0
LINE
8
BLACK
6
CONTINUOUS
10
342.366
20
-274.57
11
342.316
21
-274.621
0
LINE
8
BLACK
6
CONTINUOUS
10
342.316
20
-274.621
11
342.265
21
-274.671
0
LINE
8
BLACK
6
CONTINUOUS
10
342.265
20
-274.671
11
342.211
21
-274.718
0
LINE
8
BLACK
6
CONTINUOUS
10
342.211
20
-274.718
11
342.157
21
-274.764
0
LINE
8
BLACK
6
CONTINUOUS
10
342.157
20
-274.764
11
342.099
21
-274.808
0
LINE
8
BLACK
6
CONTINUOUS
10
342.099
20
-274.808
11
342.04
21
-274.85
0
LINE
8
BLACK
6
CONTINUOUS
10
342.04
20
-274.85
11
341.98
21
-274.89
0
LINE
8
BLACK
6
CONTINUOUS
10
341.98
20
-274.89
11
341.917
21
-274.928
0
LINE
8
BLACK
6
CONTINUOUS
10
341.917
20
-274.928
11
341.852
21
-274.964
0
LINE
8
BLACK
6
CONTINUOUS
10
341.852
20
-274.964
11
341.786
21
-274.998
0
LINE
8
BLACK
6
CONTINUOUS
10
341.786
20
-274.998
11
341.717
21
-275.029
0
LINE
8
BLACK
6
CONTINUOUS
10
341.717
20
-275.029
11
341.645
21
-275.059
0
LINE
8
BLACK
6
CONTINUOUS
10
341.645
20
-275.059
11
341.572
21
-275.086
0
LINE
8
BLACK
6
CONTINUOUS
10
341.572
20
-275.086
11
341.492
21
-275.111
0
LINE
8
BLACK
6
CONTINUOUS
10
341.492
20
-275.111
11
341.413
21
-275.133
0
LINE
8
BLACK
6
CONTINUOUS
10
341.413
20
-275.133
11
341.331
21
-275.151
0
LINE
8
BLACK
6
CONTINUOUS
10
341.331
20
-275.151
11
341.245
21
-275.167
0
LINE
8
BLACK
6
CONTINUOUS
10
341.245
20
-275.167
11
341.155
21
-275.179
0
LINE
8
BLACK
6
CONTINUOUS
10
341.155
20
-275.179
11
341.063
21
-275.187
0
LINE
8
BLACK
6
CONTINUOUS
10
341.063
20
-275.187
11
340.966
21
-275.191
0
LINE
8
BLACK
6
CONTINUOUS
10
340.966
20
-275.191
11
340.938
21
-275.191
0
LINE
8
BLACK
6
CONTINUOUS
10
339.249
20
-274.216
11
339.213
21
-274.151
0
LINE
8
BLACK
6
CONTINUOUS
10
339.213
20
-274.151
11
339.18
21
-274.084
0
LINE
8
BLACK
6
CONTINUOUS
10
339.18
20
-274.084
11
339.148
21
-274.015
0
LINE
8
BLACK
6
CONTINUOUS
10
339.148
20
-274.015
11
339.118
21
-273.943
0
LINE
8
BLACK
6
CONTINUOUS
10
339.118
20
-273.943
11
339.091
21
-273.867
0
LINE
8
BLACK
6
CONTINUOUS
10
339.091
20
-273.867
11
339.067
21
-273.791
0
LINE
8
BLACK
6
CONTINUOUS
10
339.067
20
-273.791
11
339.046
21
-273.712
0
LINE
8
BLACK
6
CONTINUOUS
10
339.046
20
-273.712
11
339.027
21
-273.627
0
LINE
8
BLACK
6
CONTINUOUS
10
339.027
20
-273.627
11
339.011
21
-273.537
0
LINE
8
BLACK
6
CONTINUOUS
10
339.011
20
-273.537
11
338.998
21
-273.441
0
LINE
8
BLACK
6
CONTINUOUS
10
338.998
20
-273.441
11
338.991
21
-273.347
0
LINE
8
BLACK
6
CONTINUOUS
10
338.991
20
-273.347
11
338.988
21
-273.248
0
LINE
8
BLACK
6
CONTINUOUS
10
338.988
20
-273.248
11
338.99
21
-273.15
0
LINE
8
BLACK
6
CONTINUOUS
10
338.99
20
-273.15
11
338.997
21
-273.055
0
LINE
8
BLACK
6
CONTINUOUS
10
338.997
20
-273.055
11
339.008
21
-272.963
0
LINE
8
BLACK
6
CONTINUOUS
10
339.008
20
-272.963
11
339.023
21
-272.873
0
LINE
8
BLACK
6
CONTINUOUS
10
339.023
20
-272.873
11
339.041
21
-272.788
0
LINE
8
BLACK
6
CONTINUOUS
10
339.041
20
-272.788
11
339.062
21
-272.709
0
LINE
8
BLACK
6
CONTINUOUS
10
339.062
20
-272.709
11
339.086
21
-272.631
0
LINE
8
BLACK
6
CONTINUOUS
10
339.086
20
-272.631
11
339.112
21
-272.557
0
LINE
8
BLACK
6
CONTINUOUS
10
339.112
20
-272.557
11
339.141
21
-272.485
0
LINE
8
BLACK
6
CONTINUOUS
10
339.141
20
-272.485
11
339.172
21
-272.415
0
LINE
8
BLACK
6
CONTINUOUS
10
339.172
20
-272.415
11
339.205
21
-272.348
0
LINE
8
BLACK
6
CONTINUOUS
10
339.205
20
-272.348
11
339.242
21
-272.279
0
LINE
8
BLACK
6
CONTINUOUS
10
339.242
20
-272.279
11
339.249
21
-272.266
0
LINE
8
BLACK
6
CONTINUOUS
10
340.938
20
-275.191
11
340.839
21
-275.189
0
LINE
8
BLACK
6
CONTINUOUS
10
340.839
20
-275.189
11
340.743
21
-275.182
0
LINE
8
BLACK
6
CONTINUOUS
10
340.743
20
-275.182
11
340.651
21
-275.17
0
LINE
8
BLACK
6
CONTINUOUS
10
340.651
20
-275.17
11
340.558
21
-275.154
0
LINE
8
BLACK
6
CONTINUOUS
10
340.558
20
-275.154
11
340.475
21
-275.135
0
LINE
8
BLACK
6
CONTINUOUS
10
340.475
20
-275.135
11
340.391
21
-275.113
0
LINE
8
BLACK
6
CONTINUOUS
10
340.391
20
-275.113
11
340.314
21
-275.089
0
LINE
8
BLACK
6
CONTINUOUS
10
340.314
20
-275.089
11
340.24
21
-275.062
0
LINE
8
BLACK
6
CONTINUOUS
10
340.24
20
-275.062
11
340.169
21
-275.033
0
LINE
8
BLACK
6
CONTINUOUS
10
340.169
20
-275.033
11
340.098
21
-275.001
0
LINE
8
BLACK
6
CONTINUOUS
10
340.098
20
-275.001
11
340.03
21
-274.967
0
LINE
8
BLACK
6
CONTINUOUS
10
340.03
20
-274.967
11
339.961
21
-274.929
0
LINE
8
BLACK
6
CONTINUOUS
10
339.961
20
-274.929
11
339.896
21
-274.89
0
LINE
8
BLACK
6
CONTINUOUS
10
339.896
20
-274.89
11
339.835
21
-274.85
0
LINE
8
BLACK
6
CONTINUOUS
10
339.835
20
-274.85
11
339.776
21
-274.807
0
LINE
8
BLACK
6
CONTINUOUS
10
339.776
20
-274.807
11
339.719
21
-274.763
0
LINE
8
BLACK
6
CONTINUOUS
10
339.719
20
-274.763
11
339.662
21
-274.716
0
LINE
8
BLACK
6
CONTINUOUS
10
339.662
20
-274.716
11
339.609
21
-274.668
0
LINE
8
BLACK
6
CONTINUOUS
10
339.609
20
-274.668
11
339.553
21
-274.614
0
LINE
8
BLACK
6
CONTINUOUS
10
339.553
20
-274.614
11
339.502
21
-274.561
0
LINE
8
BLACK
6
CONTINUOUS
10
339.502
20
-274.561
11
339.455
21
-274.507
0
LINE
8
BLACK
6
CONTINUOUS
10
339.455
20
-274.507
11
339.409
21
-274.451
0
LINE
8
BLACK
6
CONTINUOUS
10
339.409
20
-274.451
11
339.364
21
-274.393
0
LINE
8
BLACK
6
CONTINUOUS
10
339.364
20
-274.393
11
339.322
21
-274.333
0
LINE
8
BLACK
6
CONTINUOUS
10
339.322
20
-274.333
11
339.282
21
-274.271
0
LINE
8
BLACK
6
CONTINUOUS
10
339.282
20
-274.271
11
339.249
21
-274.216
0
LINE
8
BLACK
6
CONTINUOUS
10
339.249
20
-272.266
11
339.288
21
-272.202
0
LINE
8
BLACK
6
CONTINUOUS
10
339.288
20
-272.202
11
339.329
21
-272.14
0
LINE
8
BLACK
6
CONTINUOUS
10
339.329
20
-272.14
11
339.371
21
-272.081
0
LINE
8
BLACK
6
CONTINUOUS
10
339.371
20
-272.081
11
339.415
21
-272.024
0
LINE
8
BLACK
6
CONTINUOUS
10
339.415
20
-272.024
11
339.461
21
-271.968
0
LINE
8
BLACK
6
CONTINUOUS
10
339.461
20
-271.968
11
339.51
21
-271.913
0
LINE
8
BLACK
6
CONTINUOUS
10
339.51
20
-271.913
11
339.56
21
-271.862
0
LINE
8
BLACK
6
CONTINUOUS
10
339.56
20
-271.862
11
339.612
21
-271.812
0
LINE
8
BLACK
6
CONTINUOUS
10
339.612
20
-271.812
11
339.667
21
-271.762
0
LINE
8
BLACK
6
CONTINUOUS
10
339.667
20
-271.762
11
339.723
21
-271.716
0
LINE
8
BLACK
6
CONTINUOUS
10
339.723
20
-271.716
11
339.781
21
-271.672
0
LINE
8
BLACK
6
CONTINUOUS
10
339.781
20
-271.672
11
339.84
21
-271.63
0
LINE
8
BLACK
6
CONTINUOUS
10
339.84
20
-271.63
11
339.901
21
-271.59
0
LINE
8
BLACK
6
CONTINUOUS
10
339.901
20
-271.59
11
339.967
21
-271.55
0
LINE
8
BLACK
6
CONTINUOUS
10
339.967
20
-271.55
11
340.033
21
-271.514
0
LINE
8
BLACK
6
CONTINUOUS
10
340.033
20
-271.514
11
340.102
21
-271.48
0
LINE
8
BLACK
6
CONTINUOUS
10
340.102
20
-271.48
11
340.172
21
-271.448
0
LINE
8
BLACK
6
CONTINUOUS
10
340.172
20
-271.448
11
340.244
21
-271.419
0
LINE
8
BLACK
6
CONTINUOUS
10
340.244
20
-271.419
11
340.318
21
-271.392
0
LINE
8
BLACK
6
CONTINUOUS
10
340.318
20
-271.392
11
340.396
21
-271.368
0
LINE
8
BLACK
6
CONTINUOUS
10
340.396
20
-271.368
11
340.477
21
-271.347
0
LINE
8
BLACK
6
CONTINUOUS
10
340.477
20
-271.347
11
340.559
21
-271.328
0
LINE
8
BLACK
6
CONTINUOUS
10
340.559
20
-271.328
11
340.645
21
-271.313
0
LINE
8
BLACK
6
CONTINUOUS
10
340.645
20
-271.313
11
340.735
21
-271.302
0
LINE
8
BLACK
6
CONTINUOUS
10
340.735
20
-271.302
11
340.829
21
-271.294
0
LINE
8
BLACK
6
CONTINUOUS
10
340.829
20
-271.294
11
340.929
21
-271.291
0
LINE
8
BLACK
6
CONTINUOUS
10
340.929
20
-271.291
11
340.938
21
-271.291
0
LINE
8
BLACK
6
CONTINUOUS
10
340.938
20
-271.291
11
341.036
21
-271.294
0
LINE
8
BLACK
6
CONTINUOUS
10
341.036
20
-271.294
11
341.129
21
-271.301
0
LINE
8
BLACK
6
CONTINUOUS
10
341.129
20
-271.301
11
341.219
21
-271.312
0
LINE
8
BLACK
6
CONTINUOUS
10
341.219
20
-271.312
11
341.308
21
-271.327
0
LINE
8
BLACK
6
CONTINUOUS
10
341.308
20
-271.327
11
341.392
21
-271.345
0
LINE
8
BLACK
6
CONTINUOUS
10
341.392
20
-271.345
11
341.475
21
-271.367
0
LINE
8
BLACK
6
CONTINUOUS
10
341.475
20
-271.367
11
341.552
21
-271.39
0
LINE
8
BLACK
6
CONTINUOUS
10
341.552
20
-271.39
11
341.629
21
-271.418
0
LINE
8
BLACK
6
CONTINUOUS
10
341.629
20
-271.418
11
341.7
21
-271.446
0
LINE
8
BLACK
6
CONTINUOUS
10
341.7
20
-271.446
11
341.772
21
-271.479
0
LINE
8
BLACK
6
CONTINUOUS
10
341.772
20
-271.479
11
341.84
21
-271.512
0
LINE
8
BLACK
6
CONTINUOUS
10
341.84
20
-271.512
11
341.905
21
-271.548
0
LINE
8
BLACK
6
CONTINUOUS
10
341.905
20
-271.548
11
341.971
21
-271.588
0
LINE
8
BLACK
6
CONTINUOUS
10
341.971
20
-271.588
11
342.033
21
-271.627
0
LINE
8
BLACK
6
CONTINUOUS
10
342.033
20
-271.627
11
342.092
21
-271.669
0
LINE
8
BLACK
6
CONTINUOUS
10
342.092
20
-271.669
11
342.149
21
-271.713
0
LINE
8
BLACK
6
CONTINUOUS
10
342.149
20
-271.713
11
342.204
21
-271.758
0
LINE
8
BLACK
6
CONTINUOUS
10
342.204
20
-271.758
11
342.257
21
-271.805
0
LINE
8
BLACK
6
CONTINUOUS
10
342.257
20
-271.805
11
342.309
21
-271.855
0
LINE
8
BLACK
6
CONTINUOUS
10
342.309
20
-271.855
11
342.359
21
-271.905
0
LINE
8
BLACK
6
CONTINUOUS
10
342.359
20
-271.905
11
342.406
21
-271.958
0
LINE
8
BLACK
6
CONTINUOUS
10
342.406
20
-271.958
11
342.452
21
-272.013
0
LINE
8
BLACK
6
CONTINUOUS
10
342.452
20
-272.013
11
342.502
21
-272.076
0
LINE
8
BLACK
6
CONTINUOUS
10
342.502
20
-272.076
11
342.544
21
-272.135
0
LINE
8
BLACK
6
CONTINUOUS
10
342.544
20
-272.135
11
342.584
21
-272.196
0
LINE
8
BLACK
6
CONTINUOUS
10
342.584
20
-272.196
11
342.622
21
-272.258
0
LINE
8
BLACK
6
CONTINUOUS
10
342.622
20
-272.258
11
342.627
21
-272.266
0
LINE
8
BLACK
6
CONTINUOUS
10
342.627
20
-272.266
11
342.663
21
-272.331
0
LINE
8
BLACK
6
CONTINUOUS
10
342.663
20
-272.331
11
342.697
21
-272.4
0
LINE
8
BLACK
6
CONTINUOUS
10
342.697
20
-272.4
11
342.729
21
-272.47
0
LINE
8
BLACK
6
CONTINUOUS
10
342.729
20
-272.47
11
342.759
21
-272.544
0
LINE
8
BLACK
6
CONTINUOUS
10
342.759
20
-272.544
11
342.786
21
-272.618
0
LINE
8
BLACK
6
CONTINUOUS
10
342.786
20
-272.618
11
342.81
21
-272.694
0
LINE
8
BLACK
6
CONTINUOUS
10
342.81
20
-272.694
11
342.831
21
-272.774
0
LINE
8
BLACK
6
CONTINUOUS
10
342.831
20
-272.774
11
342.85
21
-272.857
0
LINE
8
BLACK
6
CONTINUOUS
10
342.85
20
-272.857
11
342.865
21
-272.943
0
LINE
8
BLACK
6
CONTINUOUS
10
342.865
20
-272.943
11
342.877
21
-273.034
0
LINE
8
BLACK
6
CONTINUOUS
10
342.877
20
-273.034
11
342.885
21
-273.128
0
LINE
8
BLACK
6
CONTINUOUS
10
342.885
20
-273.128
11
342.888
21
-273.227
0
LINE
8
BLACK
6
CONTINUOUS
10
342.888
20
-273.227
11
342.886
21
-273.325
0
LINE
8
BLACK
6
CONTINUOUS
10
342.886
20
-273.325
11
342.88
21
-273.422
0
LINE
8
BLACK
6
CONTINUOUS
10
342.88
20
-273.422
11
342.869
21
-273.512
0
LINE
8
BLACK
6
CONTINUOUS
10
342.869
20
-273.512
11
342.855
21
-273.6
0
LINE
8
BLACK
6
CONTINUOUS
10
342.855
20
-273.6
11
342.837
21
-273.685
0
LINE
8
BLACK
6
CONTINUOUS
10
342.837
20
-273.685
11
342.816
21
-273.765
0
LINE
8
BLACK
6
CONTINUOUS
10
342.816
20
-273.765
11
342.793
21
-273.844
0
LINE
8
BLACK
6
CONTINUOUS
10
342.793
20
-273.844
11
342.766
21
-273.922
0
LINE
8
BLACK
6
CONTINUOUS
10
342.766
20
-273.922
11
342.737
21
-273.994
0
LINE
8
BLACK
6
CONTINUOUS
10
342.737
20
-273.994
11
342.706
21
-274.064
0
LINE
8
BLACK
6
CONTINUOUS
10
342.706
20
-274.064
11
342.672
21
-274.133
0
LINE
8
BLACK
6
CONTINUOUS
10
342.672
20
-274.133
11
342.636
21
-274.199
0
LINE
8
BLACK
6
CONTINUOUS
10
342.636
20
-274.199
11
342.627
21
-274.216
0
LINE
8
BLACK
6
CONTINUOUS
10
337.649
20
-161.17
11
356.699
21
-161.17
0
LINE
8
BLACK
6
CONTINUOUS
10
391.097
20
-290.821
11
391.097
21
-286.058
0
LINE
8
BLACK
6
CONTINUOUS
10
335.872
20
-269.659
11
357.199
21
-269.659
0
LINE
8
BLACK
6
CONTINUOUS
10
376.249
20
-290.821
11
391.097
21
-290.821
0
LINE
8
BLACK
6
CONTINUOUS
10
337.649
20
-235.759
11
335.872
21
-235.759
0
LINE
8
BLACK
6
CONTINUOUS
10
335.872
20
-235.759
11
335.872
21
-269.659
0
LINE
8
BLACK
6
CONTINUOUS
10
391.097
20
-286.058
11
417.372
21
-286.058
0
LINE
8
BLACK
6
CONTINUOUS
10
357.199
20
-269.659
11
357.199
21
-281.296
0
LINE
8
BLACK
6
CONTINUOUS
10
356.699
20
-146.883
11
417.372
21
-146.883
0
LINE
8
BLACK
6
CONTINUOUS
10
356.699
20
-161.17
11
356.699
21
-146.883
0
LINE
8
BLACK
6
CONTINUOUS
10
376.249
20
-281.296
11
376.249
21
-290.821
0
LINE
8
BLACK
6
CONTINUOUS
10
357.199
20
-281.296
11
376.249
21
-281.296
0
LINE
8
BLACK
6
CONTINUOUS
10
337.649
20
-161.17
11
337.649
21
-235.759
  0
ENDSEC
  0
EOF
