<?xml version="1.0" encoding="utf-8"?>
<!-- Generator: Adobe Illustrator 23.0.2, SVG Export Plug-In . SVG Version: 6.00 Build 0)  -->
<svg version="1.1" id="Layer_1" xmlns="http://www.w3.org/2000/svg" xmlns:xlink="http://www.w3.org/1999/xlink" x="0px" y="0px"
	 viewBox="0 0 1008 612" style="enable-background:new 0 0 1008 612;" xml:space="preserve">
<style type="text/css">
	.st0{fill:none;stroke:#000000;stroke-width:1.000000e-05;stroke-linecap:round;stroke-linejoin:round;}
</style>
<title>SVG Picture created as Plate-Edge_Cuts.svg date 2020/01/07 23:21:49</title>
<desc>Picture generated by PCBNEW</desc>
<g transform="translate(0 0) scale(1 1)">
</g>
<g>
	<circle class="st0" cx="60.9" cy="61.6" r="5.5"/>
	<circle class="st0" cx="379.5" cy="53" r="4.5"/>
	<path class="st0" d="M430.1,55c1.6,0,2.8-1.3,2.8-2.8"/>
	<path class="st0" d="M408.7,55c-1.6,0-2.8,1.3-2.8,2.8"/>
	<path class="st0" d="M405.9,106.2c0,1.6,1.3,2.8,2.8,2.8"/>
	<path class="st0" d="M419.4,111.9c0-1.6-1.3-2.8-2.8-2.8"/>
	<path class="st0" d="M416.5,163c1.6,0,2.8-1.3,2.8-2.8"/>
	<path class="st0" d="M395.2,163c-1.6,0-2.8,1.3-2.8,2.8"/>
	<path class="st0" d="M389.5,217c1.6,0,2.8-1.3,2.8-2.8"/>
	<path class="st0" d="M381.7,217c-1.6,0-2.8,1.3-2.8,2.8"/>
	<path class="st0" d="M859.7,269.8l-0.8,0.4"/>
	<path class="st0" d="M860.5,269.3l-0.7,0.5"/>
	<path class="st0" d="M859,2.3l0.8,0.4"/>
	<path class="st0" d="M3.4,267.5l-0.5-0.7"/>
	<path class="st0" d="M6.9,270.2l-0.8-0.4"/>
	<path class="st0" d="M4.1,268.1l-0.6-0.6"/>
	<path class="st0" d="M6.1,269.8l-0.7-0.5"/>
	<path class="st0" d="M11.2,271.4l-0.9-0.1"/>
	<path class="st0" d="M865.2,12.4v247.8"/>
	<path class="st0" d="M7.7,270.6l-0.8-0.4"/>
	<path class="st0" d="M861.2,268.7l-0.7,0.6"/>
	<path class="st0" d="M864.3,8l0.3,0.8"/>
	<path class="st0" d="M862.4,267.5l-0.6,0.6"/>
	<path class="st0" d="M864.8,9.7l0.2,0.9"/>
	<path class="st0" d="M9.4,271.1l-0.9-0.2"/>
	<path class="st0" d="M859.7,2.7l0.7,0.5"/>
	<path class="st0" d="M864.8,262.8l-0.2,0.9"/>
	<path class="st0" d="M854.7,271.4l-0.9,0"/>
	<path class="st0" d="M863.9,265.3l-0.4,0.8"/>
	<path class="st0" d="M853.8,1l0.9,0"/>
	<path class="st0" d="M860.5,3.2l0.7,0.5"/>
	<path class="st0" d="M854.7,1.1l0.9,0.1"/>
	<path class="st0" d="M10.3,271.3l-0.9-0.2"/>
	<path class="st0" d="M855.6,271.3l-0.9,0.1"/>
	<path class="st0" d="M856.5,1.3l0.9,0.2"/>
	<path class="st0" d="M853.8,271.5H12.1"/>
	<path class="st0" d="M858.2,270.6l-0.8,0.3"/>
	<path class="st0" d="M863.5,6.4l0.4,0.8"/>
	<path class="st0" d="M865,261.9l-0.2,0.9"/>
	<path class="st0" d="M12.1,271.5l-0.9,0"/>
	<path class="st0" d="M865.1,261l-0.1,0.9"/>
	<path class="st0" d="M863.5,266l-0.5,0.7"/>
	<path class="st0" d="M865,10.6l0.1,0.9"/>
	<path class="st0" d="M8.6,270.9l-0.8-0.3"/>
	<path class="st0" d="M858.2,1.9l0.8,0.4"/>
	<path class="st0" d="M863,266.8l-0.6,0.7"/>
	<path class="st0" d="M856.5,271.1l-0.9,0.2"/>
	<path class="st0" d="M857.3,270.9l-0.9,0.2"/>
	<path class="st0" d="M864.6,263.6l-0.3,0.8"/>
	<path class="st0" d="M862.4,5l0.6,0.7"/>
	<path class="st0" d="M861.2,3.7l0.6,0.6"/>
	<path class="st0" d="M864.3,264.5l-0.4,0.8"/>
	<path class="st0" d="M865.2,260.1l0,0.9"/>
	<path class="st0" d="M863.9,7.2l0.4,0.8"/>
	<path class="st0" d="M863,5.7l0.5,0.7"/>
	<path class="st0" d="M861.8,4.4l0.6,0.7"/>
	<path class="st0" d="M4.7,268.7l-0.7-0.6"/>
	<path class="st0" d="M859,270.2l-0.8,0.4"/>
	<path class="st0" d="M864.6,8.9l0.2,0.9"/>
	<path class="st0" d="M855.6,1.2l0.9,0.2"/>
	<path class="st0" d="M865.1,11.5l0,0.9"/>
	<path class="st0" d="M2.4,266L2,265.3"/>
	<path class="st0" d="M861.8,268.1l-0.6,0.6"/>
	<path class="st0" d="M857.3,1.6l0.8,0.3"/>
	<path class="st0" d="M2.9,266.8L2.4,266"/>
	<path class="st0" d="M5.4,269.3l-0.7-0.6"/>
	<path class="st0" d="M11.2,1.1l0.9,0"/>
	<path class="st0" d="M7.7,1.9l0.8-0.3"/>
	<path class="st0" d="M1.6,264.5l-0.3-0.8"/>
	<path class="st0" d="M1.6,8L2,7.2"/>
	<path class="st0" d="M1.3,8.9L1.6,8"/>
	<path class="st0" d="M2,265.3l-0.4-0.8"/>
	<path class="st0" d="M1.3,263.6l-0.2-0.9"/>
	<path class="st0" d="M12.1,1h841.8"/>
	<path class="st0" d="M0.7,260.1V107.6V12.4"/>
	<path class="st0" d="M2.4,6.4l0.5-0.7"/>
	<path class="st0" d="M6.1,2.7l0.8-0.4"/>
	<path class="st0" d="M5.4,3.2l0.7-0.5"/>
	<path class="st0" d="M0.9,10.6l0.2-0.9"/>
	<path class="st0" d="M4.7,3.7l0.7-0.5"/>
	<path class="st0" d="M6.9,2.3l0.8-0.4"/>
	<path class="st0" d="M9.4,1.3l0.9-0.2"/>
	<path class="st0" d="M1.1,262.8l-0.2-0.9"/>
	<path class="st0" d="M2.9,5.7L3.4,5"/>
	<path class="st0" d="M2,7.2l0.4-0.8"/>
	<path class="st0" d="M0.7,12.4l0-0.9"/>
	<path class="st0" d="M10.3,1.2l0.9-0.1"/>
	<path class="st0" d="M8.6,1.6l0.9-0.2"/>
	<path class="st0" d="M3.4,5l0.6-0.7"/>
	<path class="st0" d="M4.1,4.4l0.7-0.6"/>
	<path class="st0" d="M0.8,261l0-0.9"/>
	<path class="st0" d="M1.1,9.7l0.2-0.9"/>
	<path class="st0" d="M0.9,261.9L0.8,261"/>
	<path class="st0" d="M0.8,11.5l0.1-0.9"/>
	<circle class="st0" cx="581.6" cy="111" r="4.5"/>
	<circle class="st0" cx="257.7" cy="111" r="4.5"/>
	<circle class="st0" cx="392.3" cy="257.3" r="5.5"/>
	<circle class="st0" cx="363.7" cy="257.3" r="5.5"/>
	<circle class="st0" cx="487.2" cy="53" r="4.5"/>
	<circle class="st0" cx="790.7" cy="64.4" r="5.5"/>
	<circle class="st0" cx="851" cy="257.3" r="5.5"/>
	
		<ellipse transform="matrix(1 -4.424660e-03 4.424660e-03 1 -1.1383 6.847533e-02)" class="st0" cx="14.9" cy="257.3" rx="5.5" ry="5.5"/>
	<path class="st0" d="M432.9,52.2V1"/>
	<path class="st0" d="M405.9,106.2V57.9"/>
	<path class="st0" d="M419.4,160.2v-48.3"/>
	<path class="st0" d="M416.5,109h-7.8"/>
	<path class="st0" d="M395.2,163h21.3"/>
	<path class="st0" d="M392.4,214.2v-48.3"/>
	<path class="st0" d="M378.9,271v-51.2"/>
	<path class="st0" d="M408.7,55H430"/>
	<path class="st0" d="M381.7,217h7.8"/>
	<path class="st0" d="M148.8,224.6v39.3"/>
	<path class="st0" d="M177.1,263.9v-39.3"/>
	<path class="st0" d="M609.1,263.9v-39.3"/>
	<path class="st0" d="M77.5,209.2v2.8"/>
	<path class="st0" d="M91.3,174.8h-4.9"/>
	<path class="st0" d="M96.1,183.9h-4.8"/>
	<path class="st0" d="M148.8,263.9h-39.3"/>
	<path class="st0" d="M216.3,263.9h-39.3"/>
	<path class="st0" d="M72.6,183.9h-2.3"/>
	<path class="st0" d="M541.6,263.9v-39.3"/>
	<path class="st0" d="M86.4,174.8v-2.6"/>
	<path class="st0" d="M88.1,263.9H48.8"/>
	<path class="st0" d="M48.8,263.9v-39.3"/>
	<path class="st0" d="M648.3,263.9h-39.3"/>
	<path class="st0" d="M153.9,212v-2.8"/>
	<path class="st0" d="M145,212h8.9"/>
	<path class="st0" d="M86.4,172.2h-8.9"/>
	<path class="st0" d="M77.5,172.2v2.6"/>
	<path class="st0" d="M145,209.2v2.8"/>
	<path class="st0" d="M177.1,224.6h39.3"/>
	<path class="st0" d="M91.3,196.5h4.8"/>
	<path class="st0" d="M140.1,209.2h4.9"/>
	<path class="st0" d="M580.8,263.9h-39.3"/>
	<path class="st0" d="M140.1,196.5v12.7"/>
	<path class="st0" d="M91.3,209.2v-12.7"/>
	<path class="st0" d="M86.4,209.2h4.9"/>
	<path class="st0" d="M77.5,212h8.9"/>
	<path class="st0" d="M109.6,224.6h39.3"/>
	<path class="st0" d="M541.6,224.6h39.3"/>
	<path class="st0" d="M72.6,209.2h4.9"/>
	<path class="st0" d="M648.3,224.6v39.3"/>
	<path class="st0" d="M77.5,174.8h-4.9"/>
	<path class="st0" d="M72.6,191.4v17.8"/>
	<path class="st0" d="M135.3,196.5h4.7"/>
	<path class="st0" d="M96.1,209.9h39.3"/>
	<path class="st0" d="M70.3,191.4h2.3"/>
	<path class="st0" d="M135.3,209.9v-13.3"/>
	<path class="st0" d="M96.1,196.5v13.3"/>
	<path class="st0" d="M86.4,212v-2.8"/>
	<path class="st0" d="M70.3,183.9v7.5"/>
	<path class="st0" d="M88.1,224.6v39.3"/>
	<path class="st0" d="M709.1,263.9h-39.3"/>
	<path class="st0" d="M580.8,224.6v39.3"/>
	<path class="st0" d="M72.6,174.8v9.2"/>
	<path class="st0" d="M91.3,183.9v-9.2"/>
	<path class="st0" d="M216.3,224.6v39.3"/>
	<path class="st0" d="M96.1,170.6v13.3"/>
	<path class="st0" d="M669.8,263.9v-39.3"/>
	<path class="st0" d="M48.8,224.6h39.3"/>
	<path class="st0" d="M609.1,224.6h39.3"/>
	<path class="st0" d="M109.6,263.9v-39.3"/>
	<path class="st0" d="M280.3,237.9v-9.2"/>
	<path class="st0" d="M777.8,263.9v-39.3"/>
	<path class="st0" d="M723.8,224.6h39.3"/>
	<path class="st0" d="M259.3,245.4h2.3"/>
	<path class="st0" d="M350.1,245.4v-7.5"/>
	<path class="st0" d="M496.3,228.8h-4.9"/>
	<path class="st0" d="M285.1,250.5v13.3"/>
	<path class="st0" d="M261.6,237.9h-2.3"/>
	<path class="st0" d="M817.1,263.9h-39.3"/>
	<path class="st0" d="M817.1,224.6v39.3"/>
	<path class="st0" d="M777.8,224.6h39.3"/>
	<path class="st0" d="M347.8,228.8h-4.9"/>
	<path class="st0" d="M280.3,263.2v-12.7"/>
	<path class="st0" d="M275.4,226.2h-8.9"/>
	<path class="st0" d="M482.5,226.2v2.6"/>
	<path class="st0" d="M324.3,237.9v-13.3"/>
	<path class="st0" d="M324.3,263.9v-13.3"/>
	<path class="st0" d="M280.3,228.8h-4.9"/>
	<path class="st0" d="M334,263.2v2.8"/>
	<path class="st0" d="M347.8,237.9v-9.2"/>
	<path class="st0" d="M491.4,226.2h-8.9"/>
	<path class="st0" d="M347.8,263.2v-17.8"/>
	<path class="st0" d="M329.1,263.2h4.9"/>
	<path class="st0" d="M266.5,226.2v2.6"/>
	<path class="st0" d="M324.3,250.5h4.8"/>
	<path class="st0" d="M342.9,266v-2.8"/>
	<path class="st0" d="M334,266h8.9"/>
	<path class="st0" d="M324.3,224.6h-39.3"/>
	<path class="st0" d="M329.1,237.9h-4.8"/>
	<path class="st0" d="M334,226.2v2.6"/>
	<path class="st0" d="M275.4,228.8v-2.6"/>
	<path class="st0" d="M342.9,226.2H334"/>
	<path class="st0" d="M261.6,263.2h4.9"/>
	<path class="st0" d="M342.9,228.8v-2.6"/>
	<path class="st0" d="M342.9,263.2h4.9"/>
	<path class="st0" d="M259.3,237.9v7.5"/>
	<path class="st0" d="M477.6,237.9h-4.7"/>
	<path class="st0" d="M275.4,266v-2.8"/>
	<path class="st0" d="M329.1,250.5v12.7"/>
	<path class="st0" d="M261.6,228.8v9.2"/>
	<path class="st0" d="M280.3,250.5h4.8"/>
	<path class="st0" d="M266.5,263.2v2.8"/>
	<path class="st0" d="M482.5,228.8h-4.9"/>
	<path class="st0" d="M477.6,228.8v9.2"/>
	<path class="st0" d="M275.4,263.2h4.9"/>
	<path class="st0" d="M266.5,228.8h-4.9"/>
	<path class="st0" d="M472.8,224.6h-39.3"/>
	<path class="st0" d="M329.1,228.8v9.2"/>
	<path class="st0" d="M334,228.8h-4.9"/>
	<path class="st0" d="M350.1,237.9h-2.3"/>
	<path class="st0" d="M472.8,237.9v-13.3"/>
	<path class="st0" d="M491.4,228.8v-2.6"/>
	<path class="st0" d="M709.1,224.6v39.3"/>
	<path class="st0" d="M285.1,263.9h39.3"/>
	<path class="st0" d="M347.8,245.4h2.3"/>
	<path class="st0" d="M496.3,237.9v-9.2"/>
	<path class="st0" d="M669.8,224.6h39.3"/>
	<path class="st0" d="M723.8,263.9v-39.3"/>
	<path class="st0" d="M266.5,266h8.9"/>
	<path class="st0" d="M285.1,224.6v13.3"/>
	<path class="st0" d="M763.1,263.9h-39.3"/>
	<path class="st0" d="M763.1,224.6v39.3"/>
	<path class="st0" d="M285.1,237.9h-4.8"/>
	<path class="st0" d="M261.6,245.4v17.8"/>
	<path class="st0" d="M472.8,250.5h4.7"/>
	<path class="st0" d="M410.1,245.4v17.8"/>
	<path class="st0" d="M498.6,237.9h-2.3"/>
	<path class="st0" d="M491.4,263.2h4.9"/>
	<path class="st0" d="M433.6,263.9h39.3"/>
	<path class="st0" d="M410.1,228.8v9.2"/>
	<path class="st0" d="M477.6,263.2h4.9"/>
	<path class="st0" d="M415,226.2v2.6"/>
	<path class="st0" d="M498.6,245.4v-7.5"/>
	<path class="st0" d="M491.4,266v-2.8"/>
	<path class="st0" d="M482.5,263.2v2.8"/>
	<path class="st0" d="M410.1,237.9h-2.3"/>
	<path class="st0" d="M496.3,245.4h2.3"/>
	<path class="st0" d="M496.3,263.2v-17.8"/>
	<path class="st0" d="M415,228.8h-4.9"/>
	<path class="st0" d="M423.9,266v-2.8"/>
	<path class="st0" d="M433.6,237.9h-4.7"/>
	<path class="st0" d="M482.5,266h8.9"/>
	<path class="st0" d="M472.8,263.9v-13.3"/>
	<path class="st0" d="M410.1,263.2h4.9"/>
	<path class="st0" d="M428.8,250.5h4.7"/>
	<path class="st0" d="M433.6,250.5v13.3"/>
	<path class="st0" d="M407.8,245.4h2.3"/>
	<path class="st0" d="M423.9,263.2h4.9"/>
	<path class="st0" d="M407.8,237.9v7.5"/>
	<path class="st0" d="M428.8,237.9v-9.2"/>
	<path class="st0" d="M477.6,250.5v12.7"/>
	<path class="st0" d="M428.8,263.2v-12.7"/>
	<path class="st0" d="M415,266h8.9"/>
	<path class="st0" d="M415,263.2v2.8"/>
	<path class="st0" d="M423.9,226.2H415"/>
	<path class="st0" d="M423.9,228.8v-2.6"/>
	<path class="st0" d="M428.8,228.8h-4.9"/>
	<path class="st0" d="M433.6,224.6v13.3"/>
	<path class="st0" d="M62.3,47.9V8.6"/>
	<path class="st0" d="M170.3,8.6h39.3"/>
	<path class="st0" d="M371.6,8.6v39.3"/>
	<path class="st0" d="M263.6,47.9h-39.3"/>
	<path class="st0" d="M371.6,47.9h-39.3"/>
	<path class="st0" d="M317.6,8.6v39.3"/>
	<path class="st0" d="M332.3,8.6h39.3"/>
	<path class="st0" d="M224.3,8.6h39.3"/>
	<path class="st0" d="M62.3,8.6h39.3"/>
	<path class="st0" d="M47.6,8.6v39.3"/>
	<path class="st0" d="M101.6,47.9H62.3"/>
	<path class="st0" d="M278.3,47.9V8.6"/>
	<path class="st0" d="M317.6,47.9h-39.3"/>
	<path class="st0" d="M209.6,47.9h-39.3"/>
	<path class="st0" d="M8.3,47.9V8.6"/>
	<path class="st0" d="M170.3,47.9V8.6"/>
	<path class="st0" d="M263.6,8.6v39.3"/>
	<path class="st0" d="M116.3,47.9V8.6"/>
	<path class="st0" d="M116.3,8.6h39.3"/>
	<path class="st0" d="M209.6,8.6v39.3"/>
	<path class="st0" d="M101.6,8.6v39.3"/>
	<path class="st0" d="M386.3,47.9V8.6"/>
	<path class="st0" d="M155.6,8.6v39.3"/>
	<path class="st0" d="M278.3,8.6h39.3"/>
	<path class="st0" d="M155.6,47.9h-39.3"/>
	<path class="st0" d="M47.6,47.9H8.3"/>
	<path class="st0" d="M332.3,47.9V8.6"/>
	<path class="st0" d="M8.3,8.6h39.3"/>
	<path class="st0" d="M224.3,47.9V8.6"/>
	<path class="st0" d="M781.7,47.2h4.9"/>
	<path class="st0" d="M772.7,50h8.9"/>
	<path class="st0" d="M772.7,12.8h-4.9"/>
	<path class="st0" d="M641.6,8.6v39.3"/>
	<path class="st0" d="M856.4,29.4v-7.5"/>
	<path class="st0" d="M791.3,34.5v13.3"/>
	<path class="st0" d="M835.3,34.5v12.7"/>
	<path class="st0" d="M710.3,47.9V8.6"/>
	<path class="st0" d="M786.6,47.2V34.5"/>
	<path class="st0" d="M772.7,47.2V50"/>
	<path class="st0" d="M425.6,47.9h-39.3"/>
	<path class="st0" d="M765.5,29.4h2.3"/>
	<path class="st0" d="M479.6,47.9h-39.3"/>
	<path class="st0" d="M854,21.9v-9.2"/>
	<path class="st0" d="M835.3,47.2h4.9"/>
	<path class="st0" d="M386.3,8.6h39.3"/>
	<path class="st0" d="M602.3,8.6h39.3"/>
	<path class="st0" d="M840.2,50h8.9"/>
	<path class="st0" d="M749.6,47.9h-39.3"/>
	<path class="st0" d="M830.6,47.9V34.5"/>
	<path class="st0" d="M830.6,34.5h4.8"/>
	<path class="st0" d="M840.2,10.2v2.6"/>
	<path class="st0" d="M849.1,50v-2.8"/>
	<path class="st0" d="M767.9,29.4v17.8"/>
	<path class="st0" d="M710.3,8.6h39.3"/>
	<path class="st0" d="M533.6,8.6v39.3"/>
	<path class="st0" d="M835.3,12.8v9.2"/>
	<path class="st0" d="M856.4,21.9H854"/>
	<path class="st0" d="M765.5,21.9v7.5"/>
	<path class="st0" d="M849.1,47.2h4.9"/>
	<path class="st0" d="M854,47.2V29.4"/>
	<path class="st0" d="M494.3,8.6h39.3"/>
	<path class="st0" d="M587.6,47.9h-39.3"/>
	<path class="st0" d="M548.3,8.6h39.3"/>
	<path class="st0" d="M781.7,50v-2.8"/>
	<path class="st0" d="M767.9,12.8v9.2"/>
	<path class="st0" d="M602.3,47.9V8.6"/>
	<path class="st0" d="M440.3,8.6h39.3"/>
	<path class="st0" d="M641.6,47.9h-39.3"/>
	<path class="st0" d="M695.6,8.6v39.3"/>
	<path class="st0" d="M656.3,47.9V8.6"/>
	<path class="st0" d="M830.6,8.6h-39.3"/>
	<path class="st0" d="M479.6,8.6v39.3"/>
	<path class="st0" d="M425.6,8.6v39.3"/>
	<path class="st0" d="M440.3,47.9V8.6"/>
	<path class="st0" d="M548.3,47.9V8.6"/>
	<path class="st0" d="M835.3,21.9h-4.8"/>
	<path class="st0" d="M854,29.4h2.3"/>
	<path class="st0" d="M494.3,47.9V8.6"/>
	<path class="st0" d="M656.3,8.6h39.3"/>
	<path class="st0" d="M840.2,12.8h-4.9"/>
	<path class="st0" d="M849.1,10.2h-8.9"/>
	<path class="st0" d="M767.9,21.9h-2.3"/>
	<path class="st0" d="M533.6,47.9h-39.3"/>
	<path class="st0" d="M587.6,8.6v39.3"/>
	<path class="st0" d="M849.1,12.8v-2.6"/>
	<path class="st0" d="M830.6,21.9V8.6"/>
	<path class="st0" d="M767.9,47.2h4.9"/>
	<path class="st0" d="M791.3,47.9h39.3"/>
	<path class="st0" d="M854,12.8h-4.9"/>
	<path class="st0" d="M695.6,47.9h-39.3"/>
	<path class="st0" d="M749.6,8.6v39.3"/>
	<path class="st0" d="M840.2,47.2V50"/>
	<path class="st0" d="M786.6,34.5h4.8"/>
	<path class="st0" d="M722.6,101.9h-39.3"/>
	<path class="st0" d="M75.8,101.9V62.6"/>
	<path class="st0" d="M776.6,62.6v39.3"/>
	<path class="st0" d="M575.3,101.9V62.6"/>
	<path class="st0" d="M8.3,62.6h39.3"/>
	<path class="st0" d="M251.3,62.6h39.3"/>
	<path class="st0" d="M413.3,62.6h39.3"/>
	<path class="st0" d="M614.6,62.6v39.3"/>
	<path class="st0" d="M786.6,21.9v-9.2"/>
	<path class="st0" d="M47.6,101.9H8.3"/>
	<path class="st0" d="M791.3,21.9h-4.8"/>
	<path class="st0" d="M8.3,101.9V62.6"/>
	<path class="st0" d="M251.3,101.9V62.6"/>
	<path class="st0" d="M668.6,62.6v39.3"/>
	<path class="st0" d="M506.6,101.9h-39.3"/>
	<path class="st0" d="M182.6,101.9h-39.3"/>
	<path class="st0" d="M452.6,101.9h-39.3"/>
	<path class="st0" d="M683.3,101.9V62.6"/>
	<path class="st0" d="M398.6,101.9h-39.3"/>
	<path class="st0" d="M47.6,62.6v39.3"/>
	<path class="st0" d="M290.6,101.9h-39.3"/>
	<path class="st0" d="M344.6,101.9h-39.3"/>
	<path class="st0" d="M398.6,62.6v39.3"/>
	<path class="st0" d="M668.6,101.9h-39.3"/>
	<path class="st0" d="M413.3,101.9V62.6"/>
	<path class="st0" d="M305.3,62.6h39.3"/>
	<path class="st0" d="M359.3,101.9V62.6"/>
	<path class="st0" d="M115.1,101.9H75.8"/>
	<path class="st0" d="M737.3,62.6h39.3"/>
	<path class="st0" d="M115.1,62.6v39.3"/>
	<path class="st0" d="M629.3,62.6h39.3"/>
	<path class="st0" d="M75.8,62.6h39.3"/>
	<path class="st0" d="M560.6,62.6v39.3"/>
	<path class="st0" d="M776.6,101.9h-39.3"/>
	<path class="st0" d="M236.6,101.9h-39.3"/>
	<path class="st0" d="M236.6,62.6v39.3"/>
	<path class="st0" d="M614.6,101.9h-39.3"/>
	<path class="st0" d="M467.3,62.6h39.3"/>
	<path class="st0" d="M344.6,62.6v39.3"/>
	<path class="st0" d="M575.3,62.6h39.3"/>
	<path class="st0" d="M197.3,62.6h39.3"/>
	<path class="st0" d="M467.3,101.9V62.6"/>
	<path class="st0" d="M560.6,101.9h-39.3"/>
	<path class="st0" d="M359.3,62.6h39.3"/>
	<path class="st0" d="M506.6,62.6v39.3"/>
	<path class="st0" d="M629.3,101.9V62.6"/>
	<path class="st0" d="M737.3,101.9V62.6"/>
	<path class="st0" d="M143.3,101.9V62.6"/>
	<path class="st0" d="M182.6,62.6v39.3"/>
	<path class="st0" d="M143.3,62.6h39.3"/>
	<path class="st0" d="M197.3,101.9V62.6"/>
	<path class="st0" d="M290.6,62.6v39.3"/>
	<path class="st0" d="M772.7,10.2v2.6"/>
	<path class="st0" d="M452.6,62.6v39.3"/>
	<path class="st0" d="M781.7,10.2h-8.9"/>
	<path class="st0" d="M305.3,101.9V62.6"/>
	<path class="st0" d="M781.7,12.8v-2.6"/>
	<path class="st0" d="M786.6,12.8h-4.9"/>
	<path class="st0" d="M521.3,101.9V62.6"/>
	<path class="st0" d="M683.3,62.6h39.3"/>
	<path class="st0" d="M791.3,8.6v13.3"/>
	<path class="st0" d="M521.3,62.6h39.3"/>
	<path class="st0" d="M722.6,62.6v39.3"/>
	<path class="st0" d="M804.8,101.9V62.6"/>
	<path class="st0" d="M844.1,101.9h-39.3"/>
	<path class="st0" d="M8.3,155.9v-39.3"/>
	<path class="st0" d="M82.6,116.6h39.3"/>
	<path class="st0" d="M210.8,116.6h39.3"/>
	<path class="st0" d="M642.8,116.6h39.3"/>
	<path class="st0" d="M823.8,129.9v-13.3"/>
	<path class="st0" d="M47.6,155.9H8.3"/>
	<path class="st0" d="M520.1,155.9h-39.3"/>
	<path class="st0" d="M250.1,155.9h-39.3"/>
	<path class="st0" d="M47.6,116.6v39.3"/>
	<path class="st0" d="M82.6,155.9v-39.3"/>
	<path class="st0" d="M628.1,116.6v39.3"/>
	<path class="st0" d="M828.6,129.9h-4.7"/>
	<path class="st0" d="M156.8,116.6h39.3"/>
	<path class="st0" d="M210.8,155.9v-39.3"/>
	<path class="st0" d="M833.5,120.8h-4.9"/>
	<path class="st0" d="M304.1,116.6v39.3"/>
	<path class="st0" d="M534.8,116.6h39.3"/>
	<path class="st0" d="M642.8,155.9v-39.3"/>
	<path class="st0" d="M847.3,120.8h-4.9"/>
	<path class="st0" d="M8.3,116.6h39.3"/>
	<path class="st0" d="M358.1,155.9h-39.3"/>
	<path class="st0" d="M121.8,116.6v39.3"/>
	<path class="st0" d="M264.8,155.9v-39.3"/>
	<path class="st0" d="M480.8,116.6h39.3"/>
	<path class="st0" d="M682.1,155.9h-39.3"/>
	<path class="st0" d="M828.6,120.8v9.2"/>
	<path class="st0" d="M304.1,155.9h-39.3"/>
	<path class="st0" d="M318.8,155.9v-39.3"/>
	<path class="st0" d="M823.8,116.6h-39.3"/>
	<path class="st0" d="M426.8,116.6h39.3"/>
	<path class="st0" d="M358.1,116.6v39.3"/>
	<path class="st0" d="M372.8,155.9v-39.3"/>
	<path class="st0" d="M520.1,116.6v39.3"/>
	<path class="st0" d="M628.1,155.9h-39.3"/>
	<path class="st0" d="M588.8,155.9v-39.3"/>
	<path class="st0" d="M696.8,155.9v-39.3"/>
	<path class="st0" d="M736.1,155.9h-39.3"/>
	<path class="st0" d="M696.8,116.6h39.3"/>
	<path class="st0" d="M842.4,118.2h-8.9"/>
	<path class="st0" d="M264.8,116.6h39.3"/>
	<path class="st0" d="M534.8,155.9v-39.3"/>
	<path class="st0" d="M842.4,120.8v-2.6"/>
	<path class="st0" d="M574.1,116.6v39.3"/>
	<path class="st0" d="M682.1,116.6v39.3"/>
	<path class="st0" d="M736.1,116.6v39.3"/>
	<path class="st0" d="M466.1,155.9h-39.3"/>
	<path class="st0" d="M844.1,62.6v39.3"/>
	<path class="st0" d="M250.1,116.6v39.3"/>
	<path class="st0" d="M833.5,118.2v2.6"/>
	<path class="st0" d="M196.1,116.6v39.3"/>
	<path class="st0" d="M318.8,116.6h39.3"/>
	<path class="st0" d="M480.8,155.9v-39.3"/>
	<path class="st0" d="M121.8,155.9H82.6"/>
	<path class="st0" d="M804.8,62.6h39.3"/>
	<path class="st0" d="M156.8,155.9v-39.3"/>
	<path class="st0" d="M196.1,155.9h-39.3"/>
	<path class="st0" d="M588.8,116.6h39.3"/>
	<path class="st0" d="M412.1,155.9h-39.3"/>
	<path class="st0" d="M412.1,116.6v39.3"/>
	<path class="st0" d="M372.8,116.6h39.3"/>
	<path class="st0" d="M426.8,155.9v-39.3"/>
	<path class="st0" d="M574.1,155.9h-39.3"/>
	<path class="st0" d="M466.1,116.6v39.3"/>
	<path class="st0" d="M774.9,118.2H766"/>
	<path class="st0" d="M823.8,155.9v-13.3"/>
	<path class="st0" d="M849.6,137.4v-7.5"/>
	<path class="st0" d="M847.3,137.4h2.3"/>
	<path class="st0" d="M842.4,158v-2.8"/>
	<path class="st0" d="M761.1,155.2h4.9"/>
	<path class="st0" d="M833.5,158h8.9"/>
	<path class="st0" d="M774.9,158v-2.8"/>
	<path class="st0" d="M779.8,129.9v-9.2"/>
	<path class="st0" d="M766,120.8h-4.9"/>
	<path class="st0" d="M774.9,120.8v-2.6"/>
	<path class="st0" d="M847.3,155.2v-17.8"/>
	<path class="st0" d="M828.6,155.2h4.9"/>
	<path class="st0" d="M823.8,142.5h4.7"/>
	<path class="st0" d="M828.6,142.5v12.7"/>
	<path class="st0" d="M774.9,155.2h4.9"/>
	<path class="st0" d="M779.8,142.5h4.7"/>
	<path class="st0" d="M766,158h8.9"/>
	<path class="st0" d="M761.1,129.9h-2.3"/>
	<path class="st0" d="M47.6,170.6v39.3"/>
	<path class="st0" d="M784.6,155.9h39.3"/>
	<path class="st0" d="M784.6,129.9h-4.7"/>
	<path class="st0" d="M779.8,155.2v-12.7"/>
	<path class="st0" d="M761.1,137.4v17.8"/>
	<path class="st0" d="M758.8,129.9v7.5"/>
	<path class="st0" d="M779.8,120.8h-4.9"/>
	<path class="st0" d="M47.6,209.9H8.3"/>
	<path class="st0" d="M847.3,129.9v-9.2"/>
	<path class="st0" d="M8.3,209.9v-39.3"/>
	<path class="st0" d="M849.6,129.9h-2.3"/>
	<path class="st0" d="M842.4,155.2h4.9"/>
	<path class="st0" d="M833.5,155.2v2.8"/>
	<path class="st0" d="M758.8,137.4h2.3"/>
	<path class="st0" d="M766,155.2v2.8"/>
	<path class="st0" d="M784.6,116.6v13.3"/>
	<path class="st0" d="M761.1,120.8v9.2"/>
	<path class="st0" d="M784.6,142.5v13.3"/>
	<path class="st0" d="M766,118.2v2.6"/>
	<path class="st0" d="M345.8,209.9v-39.3"/>
	<path class="st0" d="M385.1,209.9h-39.3"/>
	<path class="st0" d="M763.1,170.6v39.3"/>
	<path class="st0" d="M345.8,170.6h39.3"/>
	<path class="st0" d="M453.8,170.6h39.3"/>
	<path class="st0" d="M153.9,174.8v-2.6"/>
	<path class="st0" d="M399.8,170.6h39.3"/>
	<path class="st0" d="M561.8,209.9v-39.3"/>
	<path class="st0" d="M153.9,209.2h4.9"/>
	<path class="st0" d="M615.8,170.6h39.3"/>
	<path class="st0" d="M669.8,209.9v-39.3"/>
	<path class="st0" d="M837.3,209.9h-39.3"/>
	<path class="st0" d="M145,174.8h-4.9"/>
	<path class="st0" d="M709.1,170.6v39.3"/>
	<path class="st0" d="M161.1,191.4v-7.5"/>
	<path class="st0" d="M669.8,170.6h39.3"/>
	<path class="st0" d="M135.3,170.6H96.1"/>
	<path class="st0" d="M140.1,183.9h-4.7"/>
	<path class="st0" d="M277.1,170.6v39.3"/>
	<path class="st0" d="M158.8,191.4h2.3"/>
	<path class="st0" d="M8.3,170.6h39.3"/>
	<path class="st0" d="M237.8,170.6h39.3"/>
	<path class="st0" d="M183.8,209.9v-39.3"/>
	<path class="st0" d="M223.1,209.9h-39.3"/>
	<path class="st0" d="M223.1,170.6v39.3"/>
	<path class="st0" d="M183.8,170.6h39.3"/>
	<path class="st0" d="M237.8,209.9v-39.3"/>
	<path class="st0" d="M655.1,209.9h-39.3"/>
	<path class="st0" d="M723.8,170.6h39.3"/>
	<path class="st0" d="M507.8,209.9v-39.3"/>
	<path class="st0" d="M153.9,172.2H145"/>
	<path class="st0" d="M547.1,209.9h-39.3"/>
	<path class="st0" d="M601.1,209.9h-39.3"/>
	<path class="st0" d="M763.1,209.9h-39.3"/>
	<path class="st0" d="M507.8,170.6h39.3"/>
	<path class="st0" d="M439.1,209.9h-39.3"/>
	<path class="st0" d="M601.1,170.6v39.3"/>
	<path class="st0" d="M493.1,209.9h-39.3"/>
	<path class="st0" d="M158.8,209.2v-17.8"/>
	<path class="st0" d="M140.1,174.8v9.2"/>
	<path class="st0" d="M277.1,209.9h-39.3"/>
	<path class="st0" d="M385.1,170.6v39.3"/>
	<path class="st0" d="M453.8,209.9v-39.3"/>
	<path class="st0" d="M655.1,170.6v39.3"/>
	<path class="st0" d="M547.1,170.6v39.3"/>
	<path class="st0" d="M615.8,209.9v-39.3"/>
	<path class="st0" d="M135.3,183.9v-13.3"/>
	<path class="st0" d="M291.8,209.9v-39.3"/>
	<path class="st0" d="M331.1,209.9h-39.3"/>
	<path class="st0" d="M331.1,170.6v39.3"/>
	<path class="st0" d="M399.8,209.9v-39.3"/>
	<path class="st0" d="M709.1,209.9h-39.3"/>
	<path class="st0" d="M161.1,183.9h-2.3"/>
	<path class="st0" d="M145,172.2v2.6"/>
	<path class="st0" d="M723.8,209.9v-39.3"/>
	<path class="st0" d="M158.8,174.8h-4.9"/>
	<path class="st0" d="M493.1,170.6v39.3"/>
	<path class="st0" d="M291.8,170.6h39.3"/>
	<path class="st0" d="M798.1,170.6h39.3"/>
	<path class="st0" d="M439.1,170.6v39.3"/>
	<path class="st0" d="M561.8,170.6h39.3"/>
	<path class="st0" d="M798.1,209.9v-39.3"/>
	<path class="st0" d="M837.3,170.6v39.3"/>
	<path class="st0" d="M158.8,183.9v-9.2"/>
</g>
<path class="st0" d="M159.9-148.9"/>
</svg>
