<?xml version="1.0" standalone="no"?>
 <!DOCTYPE svg PUBLIC "-//W3C//DTD SVG 1.1//EN" 
 "http://www.w3.org/Graphics/SVG/1.1/DTD/svg11.dtd"> 
<svg xmlns="http://www.w3.org/2000/svg" version="1.1" 
    width="29.7002cm" height="21.0007cm" viewBox="0 0 116930 82680 ">
<title>SVG Picture created as Plate-Edge_Cuts.svg date 2020/01/07 23:21:49 </title>
  <desc>Picture generated by PCBNEW </desc>
<g style="fill:#000000; fill-opacity:1;stroke:#000000; stroke-opacity:1;
stroke-linecap:round; stroke-linejoin:round; "
 transform="translate(0 0) scale(1 1)">
</g>
<g style="fill:#000000; fill-opacity:0.0; 
stroke:#000000; stroke-width:-0.000393701; stroke-opacity:1; 
stroke-linecap:round; stroke-linejoin:round;">
</g>
<g style="fill:#000000; fill-opacity:0.0; 
stroke:#000000; stroke-width:78.7402; stroke-opacity:1; 
stroke-linecap:round; stroke-linejoin:round;">
<circle cx="7893.7" cy="7952.76" r="767.717" /> 
<circle cx="52145.7" cy="6763.31" r="629.921" /> 
<path d="M59166.6 7040.59 A393.701 393.701 0.0 0 0 59560.3 6646.89 " />
<path d="M56204 7040.59 A393.701 393.701 0.0 0 0 55810.3 7434.29 " />
<path d="M55810.3 14145.8 A393.701 393.701 0.0 0 0 56204 14539.5 " />
<path d="M57684.8 14933.2 A393.701 393.701 0.0 0 0 57291.1 14539.5 " />
<path d="M57291.1 22040.6 A393.701 393.701 0.0 0 0 57684.8 21646.9 " />
<path d="M54328.5 22040.6 A393.701 393.701 0.0 0 0 53934.8 22434.3 " />
<path d="M53541.1 29540.6 A393.701 393.701 0.0 0 0 53934.8 29146.9 " />
<path d="M52454 29540.6 A393.701 393.701 0.0 0 0 52060.3 29934.3 " />
<path d="M118845 36866
L118738 36926
" />
<path d="M118949 36797
L118845 36866
" />
<path d="M118738 -289
L118845 -229
" />
<path d="M-84 36546
L-160 36449
" />
<path d="M398 36926
L290 36866
" />
<path d="M0 36636
L-84 36546
" />
<path d="M290 36866
L187 36797
" />
<path d="M990 37093
L867 37078
" />
<path d="M119598 1113
L119598 35523
" />
<path d="M511 36978
L398 36926
" />
<path d="M119046 36720
L118949 36797
" />
<path d="M119478 511
L119521 626
" />
<path d="M119220 36546
L119136 36636
" />
<path d="M119554 745
L119578 867
" />
<path d="M745 37054
L626 37021
" />
<path d="M118845 -229
L118949 -160
" />
<path d="M119554 35890
L119521 36010
" />
<path d="M118146 37093
L118023 37098
" />
<path d="M119426 36238
L119366 36346
" />
<path d="M118023 -461
L118146 -456
" />
<path d="M118949 -160
L119046 -84
" />
<path d="M118146 -456
L118269 -441
" />
<path d="M867 37078
L745 37054
" />
<path d="M118269 37078
L118146 37093
" />
<path d="M118390 -417
L118510 -384
" />
<path d="M118023 37098
L1113 37098
" />
<path d="M118625 36978
L118510 37021
" />
<path d="M119366 290
L119426 398
" />
<path d="M119578 35769
L119554 35890
" />
<path d="M1113 37098
L990 37093
" />
<path d="M119593 35646
L119578 35769
" />
<path d="M119366 36346
L119297 36449
" />
<path d="M119578 867
L119593 990
" />
<path d="M626 37021
L511 36978
" />
<path d="M118625 -341
L118738 -289
" />
<path d="M119297 36449
L119220 36546
" />
<path d="M118390 37054
L118269 37078
" />
<path d="M118510 37021
L118390 37054
" />
<path d="M119521 36010
L119478 36125
" />
<path d="M119220 91
L119297 187
" />
<path d="M119046 -84
L119136 0
" />
<path d="M119478 36125
L119426 36238
" />
<path d="M119598 35523
L119593 35646
" />
<path d="M119426 398
L119478 511
" />
<path d="M119297 187
L119366 290
" />
<path d="M119136 0
L119220 91
" />
<path d="M91 36720
L0 36636
" />
<path d="M118738 36926
L118625 36978
" />
<path d="M119521 626
L119554 745
" />
<path d="M118269 -441
L118390 -417
" />
<path d="M119593 990
L119598 1113
" />
<path d="M-228 36346
L-289 36238
" />
<path d="M119136 36636
L119046 36720
" />
<path d="M118510 -384
L118625 -341
" />
<path d="M-160 36449
L-228 36346
" />
<path d="M187 36797
L91 36720
" />
<path d="M990 -456
L1113 -461
" />
<path d="M511 -341
L626 -384
" />
<path d="M-341 36125
L-384 36010
" />
<path d="M-341 511
L-289 398
" />
<path d="M-384 626
L-341 511
" />
<path d="M-289 36238
L-341 36125
" />
<path d="M-384 36010
L-417 35890
" />
<path d="M1113 -461
L118023 -461
" />
<path d="M-461 35522
L-461 1113
" />
<path d="M-228 290
L-160 187
" />
<path d="M290 -229
L398 -289
" />
<path d="M187 -160
L290 -229
" />
<path d="M-441 867
L-417 745
" />
<path d="M91 -84
L187 -160
" />
<path d="M398 -289
L511 -341
" />
<path d="M745 -417
L867 -441
" />
<path d="M-417 35890
L-441 35769
" />
<path d="M-160 187
L-84 91
" />
<path d="M-289 398
L-228 290
" />
<path d="M-461 1113
L-456 990
" />
<path d="M867 -441
L990 -456
" />
<path d="M626 -384
L745 -417
" />
<path d="M-84 91
L0 0
" />
<path d="M0 0
L91 -84
" />
<path d="M-456 35646
L-461 35522
" />
<path d="M-417 745
L-384 626
" />
<path d="M-441 35769
L-456 35646
" />
<path d="M-456 990
L-441 867
" />
<circle cx="80208.3" cy="14814.5" r="629.921" /> 
<circle cx="35228" cy="14814.5" r="629.921" /> 
<circle cx="53928.8" cy="35129.8" r="767.717" /> 
<circle cx="49952.4" cy="35129.8" r="767.717" /> 
<circle cx="67098.1" cy="6763.31" r="629.921" /> 
<circle cx="109263" cy="8338.11" r="767.717" /> 
<circle cx="117630" cy="35129.8" r="767.717" /> 
<circle cx="1507.53" cy="35129.8" r="767.717" /> 
<path d="M59560 6646
L59560 -461
" />
<path d="M55810 14145
L55810 7434
" />
<path d="M57684 21646
L57684 14933
" />
<path d="M57291 14539
L56204 14539
" />
<path d="M54328 22040
L57291 22040
" />
<path d="M53934 29146
L53934 22434
" />
<path d="M52060 37040
L52060 29934
" />
<path d="M56204 7040
L59166 7040
" />
<path d="M52454 29540
L53541 29540
" />
<path d="M20107 30591
L20107 36044
" />
<path d="M24029 36044
L24029 30591
" />
<path d="M84029 36044
L84029 30591
" />
<path d="M10200 28453
L10200 28840
" />
<path d="M12119 23670
L11440 23670
" />
<path d="M12779 24941
L12119 24941
" />
<path d="M20107 36044
L14654 36044
" />
<path d="M29482 36044
L24029 36044
" />
<path d="M9521 24941
L9196 24941
" />
<path d="M74653 36044
L74653 30591
" />
<path d="M11440 23670
L11440 23308
" />
<path d="M11669 36044
L6216 36044
" />
<path d="M6216 36044
L6216 30591
" />
<path d="M89481 36044
L84029 36044
" />
<path d="M20810 28840
L20810 28453
" />
<path d="M19570 28840
L20810 28840
" />
<path d="M11440 23308
L10200 23308
" />
<path d="M10200 23308
L10200 23670
" />
<path d="M19570 28453
L19570 28840
" />
<path d="M24029 30591
L29482 30591
" />
<path d="M12119 26694
L12779 26694
" />
<path d="M18891 28453
L19570 28453
" />
<path d="M80107 36044
L74653 36044
" />
<path d="M18891 26694
L18891 28453
" />
<path d="M12119 28453
L12119 26694
" />
<path d="M11440 28453
L12119 28453
" />
<path d="M10200 28840
L11440 28840
" />
<path d="M14654 30591
L20107 30591
" />
<path d="M74653 30591
L80107 30591
" />
<path d="M9521 28453
L10200 28453
" />
<path d="M89481 30591
L89481 36044
" />
<path d="M10200 23670
L9521 23670
" />
<path d="M9521 25985
L9521 28453
" />
<path d="M18232 26694
L18891 26694
" />
<path d="M12779 28544
L18232 28544
" />
<path d="M9196 25985
L9521 25985
" />
<path d="M18232 28544
L18232 26694
" />
<path d="M12779 26694
L12779 28544
" />
<path d="M11440 28840
L11440 28453
" />
<path d="M9196 24941
L9196 25985
" />
<path d="M11669 30591
L11669 36044
" />
<path d="M97919 36044
L92466 36044
" />
<path d="M80107 30591
L80107 36044
" />
<path d="M9521 23670
L9521 24941
" />
<path d="M12119 24941
L12119 23670
" />
<path d="M29482 30591
L29482 36044
" />
<path d="M12779 23091
L12779 24941
" />
<path d="M92466 36044
L92466 30591
" />
<path d="M6216 30591
L11669 30591
" />
<path d="M84029 30591
L89481 30591
" />
<path d="M14654 36044
L14654 30591
" />
<path d="M38369 32441
L38369 31170
" />
<path d="M107466 36044
L107466 30591
" />
<path d="M99966 30591
L105419 30591
" />
<path d="M35446 33485
L35771 33485
" />
<path d="M48064 33485
L48064 32441
" />
<path d="M68364 31170
L67685 31170
" />
<path d="M39029 34193
L39029 36044
" />
<path d="M35771 32441
L35446 32441
" />
<path d="M112919 36044
L107466 36044
" />
<path d="M112919 30591
L112919 36044
" />
<path d="M107466 30591
L112919 30591
" />
<path d="M47739 31170
L47060 31170
" />
<path d="M38369 35953
L38369 34193
" />
<path d="M37690 30808
L36450 30808
" />
<path d="M66445 30808
L66445 31170
" />
<path d="M44481 32441
L44481 30591
" />
<path d="M44481 36044
L44481 34193
" />
<path d="M38369 31170
L37690 31170
" />
<path d="M45820 35953
L45820 36340
" />
<path d="M47739 32441
L47739 31170
" />
<path d="M67685 30808
L66445 30808
" />
<path d="M47739 35953
L47739 33485
" />
<path d="M45141 35953
L45820 35953
" />
<path d="M36450 30808
L36450 31170
" />
<path d="M44481 34193
L45141 34193
" />
<path d="M47060 36340
L47060 35953
" />
<path d="M45820 36340
L47060 36340
" />
<path d="M44481 30591
L39029 30591
" />
<path d="M45141 32441
L44481 32441
" />
<path d="M45820 30808
L45820 31170
" />
<path d="M37690 31170
L37690 30808
" />
<path d="M47060 30808
L45820 30808
" />
<path d="M35771 35953
L36450 35953
" />
<path d="M47060 31170
L47060 30808
" />
<path d="M47060 35953
L47739 35953
" />
<path d="M35446 32441
L35446 33485
" />
<path d="M65766 32441
L65107 32441
" />
<path d="M37690 36340
L37690 35953
" />
<path d="M45141 34193
L45141 35953
" />
<path d="M35771 31170
L35771 32441
" />
<path d="M38369 34193
L39029 34193
" />
<path d="M36450 35953
L36450 36340
" />
<path d="M66445 31170
L65766 31170
" />
<path d="M65766 31170
L65766 32441
" />
<path d="M37690 35953
L38369 35953
" />
<path d="M36450 31170
L35771 31170
" />
<path d="M65107 30591
L59653 30591
" />
<path d="M45141 31170
L45141 32441
" />
<path d="M45820 31170
L45141 31170
" />
<path d="M48064 32441
L47739 32441
" />
<path d="M65107 32441
L65107 30591
" />
<path d="M67685 31170
L67685 30808
" />
<path d="M97919 30591
L97919 36044
" />
<path d="M39029 36044
L44481 36044
" />
<path d="M47739 33485
L48064 33485
" />
<path d="M68364 32441
L68364 31170
" />
<path d="M92466 30591
L97919 30591
" />
<path d="M99966 36044
L99966 30591
" />
<path d="M36450 36340
L37690 36340
" />
<path d="M39029 30591
L39029 32441
" />
<path d="M105419 36044
L99966 36044
" />
<path d="M105419 30591
L105419 36044
" />
<path d="M39029 32441
L38369 32441
" />
<path d="M35771 33485
L35771 35953
" />
<path d="M65107 34193
L65766 34193
" />
<path d="M56396 33485
L56396 35953
" />
<path d="M68689 32441
L68364 32441
" />
<path d="M67685 35953
L68364 35953
" />
<path d="M59653 36044
L65107 36044
" />
<path d="M56396 31170
L56396 32441
" />
<path d="M65766 35953
L66445 35953
" />
<path d="M57075 30808
L57075 31170
" />
<path d="M68689 33485
L68689 32441
" />
<path d="M67685 36340
L67685 35953
" />
<path d="M66445 35953
L66445 36340
" />
<path d="M56396 32441
L56071 32441
" />
<path d="M68364 33485
L68689 33485
" />
<path d="M68364 35953
L68364 33485
" />
<path d="M57075 31170
L56396 31170
" />
<path d="M58315 36340
L58315 35953
" />
<path d="M59653 32441
L58994 32441
" />
<path d="M66445 36340
L67685 36340
" />
<path d="M65107 36044
L65107 34193
" />
<path d="M56396 35953
L57075 35953
" />
<path d="M58994 34193
L59653 34193
" />
<path d="M59653 34193
L59653 36044
" />
<path d="M56071 33485
L56396 33485
" />
<path d="M58315 35953
L58994 35953
" />
<path d="M56071 32441
L56071 33485
" />
<path d="M58994 32441
L58994 31170
" />
<path d="M65766 34193
L65766 35953
" />
<path d="M58994 35953
L58994 34193
" />
<path d="M57075 36340
L58315 36340
" />
<path d="M57075 35953
L57075 36340
" />
<path d="M58315 30808
L57075 30808
" />
<path d="M58315 31170
L58315 30808
" />
<path d="M58994 31170
L58315 31170
" />
<path d="M59653 30591
L59653 32441
" />
<path d="M8092 6044
L8092 591
" />
<path d="M23092 591
L28544 591
" />
<path d="M51044 591
L51044 6044
" />
<path d="M36044 6044
L30592 6044
" />
<path d="M51044 6044
L45592 6044
" />
<path d="M43544 591
L43544 6044
" />
<path d="M45592 591
L51044 591
" />
<path d="M30592 591
L36044 591
" />
<path d="M8092 591
L13544 591
" />
<path d="M6044 591
L6044 6044
" />
<path d="M13544 6044
L8092 6044
" />
<path d="M38092 6044
L38092 591
" />
<path d="M43544 6044
L38092 6044
" />
<path d="M28544 6044
L23092 6044
" />
<path d="M592 6044
L592 591
" />
<path d="M23092 6044
L23092 591
" />
<path d="M36044 591
L36044 6044
" />
<path d="M15592 6044
L15592 591
" />
<path d="M15592 591
L21044 591
" />
<path d="M28544 591
L28544 6044
" />
<path d="M13544 591
L13544 6044
" />
<path d="M53092 6044
L53092 591
" />
<path d="M21044 591
L21044 6044
" />
<path d="M38092 591
L43544 591
" />
<path d="M21044 6044
L15592 6044
" />
<path d="M6044 6044
L592 6044
" />
<path d="M45592 6044
L45592 591
" />
<path d="M592 591
L6044 591
" />
<path d="M30592 6044
L30592 591
" />
<path d="M108003 5953
L108682 5953
" />
<path d="M106763 6340
L108003 6340
" />
<path d="M106763 1170
L106084 1170
" />
<path d="M88544 591
L88544 6044
" />
<path d="M118377 3485
L118377 2441
" />
<path d="M109342 4194
L109342 6044
" />
<path d="M115454 4194
L115454 5953
" />
<path d="M98092 6044
L98092 591
" />
<path d="M108682 5953
L108682 4194
" />
<path d="M106763 5953
L106763 6340
" />
<path d="M58544 6044
L53092 6044
" />
<path d="M105759 3485
L106084 3485
" />
<path d="M66044 6044
L60592 6044
" />
<path d="M118052 2441
L118052 1170
" />
<path d="M115454 5953
L116133 5953
" />
<path d="M53092 591
L58544 591
" />
<path d="M83092 591
L88544 591
" />
<path d="M116133 6340
L117373 6340
" />
<path d="M103544 6044
L98092 6044
" />
<path d="M114794 6044
L114794 4194
" />
<path d="M114794 4194
L115454 4194
" />
<path d="M116133 808
L116133 1170
" />
<path d="M117373 6340
L117373 5953
" />
<path d="M106084 3485
L106084 5953
" />
<path d="M98092 591
L103544 591
" />
<path d="M73544 591
L73544 6044
" />
<path d="M115454 1170
L115454 2441
" />
<path d="M118377 2441
L118052 2441
" />
<path d="M105759 2441
L105759 3485
" />
<path d="M117373 5953
L118052 5953
" />
<path d="M118052 5953
L118052 3485
" />
<path d="M68092 591
L73544 591
" />
<path d="M81044 6044
L75592 6044
" />
<path d="M75592 591
L81044 591
" />
<path d="M108003 6340
L108003 5953
" />
<path d="M106084 1170
L106084 2441
" />
<path d="M83092 6044
L83092 591
" />
<path d="M60592 591
L66044 591
" />
<path d="M88544 6044
L83092 6044
" />
<path d="M96044 591
L96044 6044
" />
<path d="M90592 6044
L90592 591
" />
<path d="M114794 591
L109342 591
" />
<path d="M66044 591
L66044 6044
" />
<path d="M58544 591
L58544 6044
" />
<path d="M60592 6044
L60592 591
" />
<path d="M75592 6044
L75592 591
" />
<path d="M115454 2441
L114794 2441
" />
<path d="M118052 3485
L118377 3485
" />
<path d="M68092 6044
L68092 591
" />
<path d="M90592 591
L96044 591
" />
<path d="M116133 1170
L115454 1170
" />
<path d="M117373 808
L116133 808
" />
<path d="M106084 2441
L105759 2441
" />
<path d="M73544 6044
L68092 6044
" />
<path d="M81044 591
L81044 6044
" />
<path d="M117373 1170
L117373 808
" />
<path d="M114794 2441
L114794 591
" />
<path d="M106084 5953
L106763 5953
" />
<path d="M109342 6044
L114794 6044
" />
<path d="M118052 1170
L117373 1170
" />
<path d="M96044 6044
L90592 6044
" />
<path d="M103544 591
L103544 6044
" />
<path d="M116133 5953
L116133 6340
" />
<path d="M108682 4194
L109342 4194
" />
<path d="M99794 13544
L94342 13544
" />
<path d="M9966 13544
L9966 8091
" />
<path d="M107294 8091
L107294 13544
" />
<path d="M79342 13544
L79342 8091
" />
<path d="M592 8091
L6044 8091
" />
<path d="M34342 8091
L39794 8091
" />
<path d="M56842 8091
L62294 8091
" />
<path d="M84794 8091
L84794 13544
" />
<path d="M108682 2441
L108682 1170
" />
<path d="M6044 13544
L592 13544
" />
<path d="M109342 2441
L108682 2441
" />
<path d="M592 13544
L592 8091
" />
<path d="M34342 13544
L34342 8091
" />
<path d="M92294 8091
L92294 13544
" />
<path d="M69794 13544
L64342 13544
" />
<path d="M24794 13544
L19342 13544
" />
<path d="M62294 13544
L56842 13544
" />
<path d="M94342 13544
L94342 8091
" />
<path d="M54794 13544
L49342 13544
" />
<path d="M6044 8091
L6044 13544
" />
<path d="M39794 13544
L34342 13544
" />
<path d="M47294 13544
L41842 13544
" />
<path d="M54794 8091
L54794 13544
" />
<path d="M92294 13544
L86842 13544
" />
<path d="M56842 13544
L56842 8091
" />
<path d="M41842 8091
L47294 8091
" />
<path d="M49342 13544
L49342 8091
" />
<path d="M15419 13544
L9966 13544
" />
<path d="M101842 8091
L107294 8091
" />
<path d="M15419 8091
L15419 13544
" />
<path d="M86842 8091
L92294 8091
" />
<path d="M9966 8091
L15419 8091
" />
<path d="M77294 8091
L77294 13544
" />
<path d="M107294 13544
L101842 13544
" />
<path d="M32294 13544
L26842 13544
" />
<path d="M32294 8091
L32294 13544
" />
<path d="M84794 13544
L79342 13544
" />
<path d="M64342 8091
L69794 8091
" />
<path d="M47294 8091
L47294 13544
" />
<path d="M79342 8091
L84794 8091
" />
<path d="M26842 8091
L32294 8091
" />
<path d="M64342 13544
L64342 8091
" />
<path d="M77294 13544
L71842 13544
" />
<path d="M49342 8091
L54794 8091
" />
<path d="M69794 8091
L69794 13544
" />
<path d="M86842 13544
L86842 8091
" />
<path d="M101842 13544
L101842 8091
" />
<path d="M19342 13544
L19342 8091
" />
<path d="M24794 8091
L24794 13544
" />
<path d="M19342 8091
L24794 8091
" />
<path d="M26842 13544
L26842 8091
" />
<path d="M39794 8091
L39794 13544
" />
<path d="M106763 808
L106763 1170
" />
<path d="M62294 8091
L62294 13544
" />
<path d="M108003 808
L106763 808
" />
<path d="M41842 13544
L41842 8091
" />
<path d="M108003 1170
L108003 808
" />
<path d="M108682 1170
L108003 1170
" />
<path d="M71842 13544
L71842 8091
" />
<path d="M94342 8091
L99794 8091
" />
<path d="M109342 591
L109342 2441
" />
<path d="M71842 8091
L77294 8091
" />
<path d="M99794 8091
L99794 13544
" />
<path d="M111216 13544
L111216 8091
" />
<path d="M116669 13544
L111216 13544
" />
<path d="M592 21044
L592 15591
" />
<path d="M10904 15591
L16357 15591
" />
<path d="M28716 15591
L34169 15591
" />
<path d="M88716 15591
L94169 15591
" />
<path d="M113857 17441
L113857 15591
" />
<path d="M6044 21044
L592 21044
" />
<path d="M71669 21044
L66216 21044
" />
<path d="M34169 21044
L28716 21044
" />
<path d="M6044 15591
L6044 21044
" />
<path d="M10904 21044
L10904 15591
" />
<path d="M86669 15591
L86669 21044
" />
<path d="M114516 17441
L113857 17441
" />
<path d="M21216 15591
L26669 15591
" />
<path d="M28716 21044
L28716 15591
" />
<path d="M115195 16170
L114516 16170
" />
<path d="M41669 15591
L41669 21044
" />
<path d="M73716 15591
L79169 15591
" />
<path d="M88716 21044
L88716 15591
" />
<path d="M117114 16170
L116435 16170
" />
<path d="M592 15591
L6044 15591
" />
<path d="M49169 21044
L43716 21044
" />
<path d="M16357 15591
L16357 21044
" />
<path d="M36216 21044
L36216 15591
" />
<path d="M66216 15591
L71669 15591
" />
<path d="M94169 21044
L88716 21044
" />
<path d="M114516 16170
L114516 17441
" />
<path d="M41669 21044
L36216 21044
" />
<path d="M43716 21044
L43716 15591
" />
<path d="M113857 15591
L108403 15591
" />
<path d="M58716 15591
L64169 15591
" />
<path d="M49169 15591
L49169 21044
" />
<path d="M51216 21044
L51216 15591
" />
<path d="M71669 15591
L71669 21044
" />
<path d="M86669 21044
L81216 21044
" />
<path d="M81216 21044
L81216 15591
" />
<path d="M96216 21044
L96216 15591
" />
<path d="M101669 21044
L96216 21044
" />
<path d="M96216 15591
L101669 15591
" />
<path d="M116435 15808
L115195 15808
" />
<path d="M36216 15591
L41669 15591
" />
<path d="M73716 21044
L73716 15591
" />
<path d="M116435 16170
L116435 15808
" />
<path d="M79169 15591
L79169 21044
" />
<path d="M94169 15591
L94169 21044
" />
<path d="M101669 15591
L101669 21044
" />
<path d="M64169 21044
L58716 21044
" />
<path d="M116669 8091
L116669 13544
" />
<path d="M34169 15591
L34169 21044
" />
<path d="M115195 15808
L115195 16170
" />
<path d="M26669 15591
L26669 21044
" />
<path d="M43716 15591
L49169 15591
" />
<path d="M66216 21044
L66216 15591
" />
<path d="M16357 21044
L10904 21044
" />
<path d="M111216 8091
L116669 8091
" />
<path d="M21216 21044
L21216 15591
" />
<path d="M26669 21044
L21216 21044
" />
<path d="M81216 15591
L86669 15591
" />
<path d="M56669 21044
L51216 21044
" />
<path d="M56669 15591
L56669 21044
" />
<path d="M51216 15591
L56669 15591
" />
<path d="M58716 21044
L58716 15591
" />
<path d="M79169 21044
L73716 21044
" />
<path d="M64169 15591
L64169 21044
" />
<path d="M107065 15808
L105825 15808
" />
<path d="M113857 21044
L113857 19194
" />
<path d="M117439 18485
L117439 17441
" />
<path d="M117114 18485
L117439 18485
" />
<path d="M116435 21340
L116435 20953
" />
<path d="M105146 20953
L105825 20953
" />
<path d="M115195 21340
L116435 21340
" />
<path d="M107065 21340
L107065 20953
" />
<path d="M107744 17441
L107744 16170
" />
<path d="M105825 16170
L105146 16170
" />
<path d="M107065 16170
L107065 15808
" />
<path d="M117114 20953
L117114 18485
" />
<path d="M114516 20953
L115195 20953
" />
<path d="M113857 19194
L114516 19194
" />
<path d="M114516 19194
L114516 20953
" />
<path d="M107065 20953
L107744 20953
" />
<path d="M107744 19194
L108403 19194
" />
<path d="M105825 21340
L107065 21340
" />
<path d="M105146 17441
L104821 17441
" />
<path d="M6044 23091
L6044 28544
" />
<path d="M108403 21044
L113857 21044
" />
<path d="M108403 17441
L107744 17441
" />
<path d="M107744 20953
L107744 19194
" />
<path d="M105146 18485
L105146 20953
" />
<path d="M104821 17441
L104821 18485
" />
<path d="M107744 16170
L107065 16170
" />
<path d="M6044 28544
L592 28544
" />
<path d="M117114 17441
L117114 16170
" />
<path d="M592 28544
L592 23091
" />
<path d="M117439 17441
L117114 17441
" />
<path d="M116435 20953
L117114 20953
" />
<path d="M115195 20953
L115195 21340
" />
<path d="M104821 18485
L105146 18485
" />
<path d="M105825 20953
L105825 21340
" />
<path d="M108403 15591
L108403 17441
" />
<path d="M105146 16170
L105146 17441
" />
<path d="M108403 19194
L108403 21044
" />
<path d="M105825 15808
L105825 16170
" />
<path d="M47466 28544
L47466 23091
" />
<path d="M52919 28544
L47466 28544
" />
<path d="M105419 23091
L105419 28544
" />
<path d="M47466 23091
L52919 23091
" />
<path d="M62466 23091
L67919 23091
" />
<path d="M20810 23670
L20810 23308
" />
<path d="M54966 23091
L60419 23091
" />
<path d="M77466 28544
L77466 23091
" />
<path d="M20810 28453
L21489 28453
" />
<path d="M84966 23091
L90419 23091
" />
<path d="M92466 28544
L92466 23091
" />
<path d="M115731 28544
L110279 28544
" />
<path d="M19570 23670
L18891 23670
" />
<path d="M97919 23091
L97919 28544
" />
<path d="M21814 25985
L21814 24941
" />
<path d="M92466 23091
L97919 23091
" />
<path d="M18232 23091
L12779 23091
" />
<path d="M18891 24941
L18232 24941
" />
<path d="M37919 23091
L37919 28544
" />
<path d="M21489 25985
L21814 25985
" />
<path d="M592 23091
L6044 23091
" />
<path d="M32466 23091
L37919 23091
" />
<path d="M24966 28544
L24966 23091
" />
<path d="M30419 28544
L24966 28544
" />
<path d="M30419 23091
L30419 28544
" />
<path d="M24966 23091
L30419 23091
" />
<path d="M32466 28544
L32466 23091
" />
<path d="M90419 28544
L84966 28544
" />
<path d="M99966 23091
L105419 23091
" />
<path d="M69966 28544
L69966 23091
" />
<path d="M20810 23308
L19570 23308
" />
<path d="M75419 28544
L69966 28544
" />
<path d="M82919 28544
L77466 28544
" />
<path d="M105419 28544
L99966 28544
" />
<path d="M69966 23091
L75419 23091
" />
<path d="M60419 28544
L54966 28544
" />
<path d="M82919 23091
L82919 28544
" />
<path d="M67919 28544
L62466 28544
" />
<path d="M21489 28453
L21489 25985
" />
<path d="M18891 23670
L18891 24941
" />
<path d="M37919 28544
L32466 28544
" />
<path d="M52919 23091
L52919 28544
" />
<path d="M62466 28544
L62466 23091
" />
<path d="M90419 23091
L90419 28544
" />
<path d="M75419 23091
L75419 28544
" />
<path d="M84966 28544
L84966 23091
" />
<path d="M18232 24941
L18232 23091
" />
<path d="M39966 28544
L39966 23091
" />
<path d="M45419 28544
L39966 28544
" />
<path d="M45419 23091
L45419 28544
" />
<path d="M54966 28544
L54966 23091
" />
<path d="M97919 28544
L92466 28544
" />
<path d="M21814 24941
L21489 24941
" />
<path d="M19570 23308
L19570 23670
" />
<path d="M99966 28544
L99966 23091
" />
<path d="M21489 23670
L20810 23670
" />
<path d="M67919 23091
L67919 28544
" />
<path d="M39966 23091
L45419 23091
" />
<path d="M110279 23091
L115731 23091
" />
<path d="M60419 23091
L60419 28544
" />
<path d="M77466 23091
L82919 23091
" />
<path d="M110279 28544
L110279 23091
" />
<path d="M115731 23091
L115731 28544
" />
<path d="M21489 24941
L21489 23670
" />
<g >
</g>
</g> 
</svg>
