<?xml version="1.0" standalone="no"?>
 <!DOCTYPE svg PUBLIC "-//W3C//DTD SVG 1.1//EN" 
 "http://www.w3.org/Graphics/SVG/1.1/DTD/svg11.dtd"> 
<svg xmlns="http://www.w3.org/2000/svg" version="1.1" 
    width="59.4004cm" height="41.9989cm" viewBox="0 0 233860 165350 ">
<title>SVG Picture created as CASE_Cutting-Eco2_User.svg date 2020/03/05 23:59:39 </title>
  <desc>Picture generated by PCBNEW </desc>
<g style="fill:#000000; fill-opacity:1;stroke:#000000; stroke-opacity:1;
stroke-linecap:round; stroke-linejoin:round; "
 transform="translate(0 0) scale(1 1)">
</g>
<g style="fill:#000000; fill-opacity:0.0; 
stroke:#000000; stroke-width:-0.000393701; stroke-opacity:1; 
stroke-linecap:round; stroke-linejoin:round;">
</g>
<g style="fill:#C2C200; fill-opacity:0.0; 
stroke:#C2C200; stroke-width:-0.000393701; stroke-opacity:1; 
stroke-linecap:round; stroke-linejoin:round;">
</g>
<g style="fill:#C2C200; fill-opacity:0.0; 
stroke:#C2C200; stroke-width:39.3701; stroke-opacity:1; 
stroke-linecap:round; stroke-linejoin:round;">
<path d="M59533 38985
L59533 31485
" />
<path d="M61408 16485
L65158 16485
" />
<path d="M63283 31485
L63283 23983
" />
<path d="M57658 48511
L57658 38985
" />
<path d="M61408 23983
L61408 16485
" />
<path d="M57658 38985
L59533 38985
" />
<path d="M59533 31485
L63283 31485
" />
<path d="M63283 23983
L61408 23983
" />
<path d="M65158 16485
L65158 7015
" />
<path d="M57658 48511
L127165 48511
" />
<path d="M3168 7015
L65158 7015
" />
<path d="M65158 16485
L65158 7015
" />
<path d="M3168 48511
L57658 48511
" />
<path d="M74681 45882
L74681 46220
" />
<path d="M74681 45882
L118912 45882
" />
<path d="M118912 38382
L118912 45882
" />
<path d="M121724 38382
L118912 38382
" />
<path d="M121724 31178
L121724 38382
" />
<path d="M124370 31178
L121724 31178
" />
<path d="M124370 9643
L124370 31178
" />
<path d="M61079 38382
L61079 46220
" />
<path d="M60171 38382
L61062 38382
" />
<path d="M65796 9643
L124370 9643
" />
<path d="M65796 17143
L65796 9643
" />
<path d="M62047 17143
L65796 17143
" />
<path d="M62046 23382
L62046 17143
" />
<path d="M63921 23382
L62047 23382
" />
<path d="M63921 32143
L63921 23382
" />
<path d="M60171 32143
L63921 32143
" />
<path d="M61079 46220
L74681 46220
" />
<path d="M60171 32143
L60171 38382
" />
<path d="M64537 15882
L64537 9645
" />
<path d="M60787 15882
L64537 15882
" />
<path d="M60787 24643
L60787 15882
" />
<path d="M62662 24643
L60787 24643
" />
<path d="M62662 30882
L62662 24643
" />
<path d="M58912 30882
L62662 30882
" />
<path d="M58912 38382
L58912 30882
" />
<path d="M54133 38382
L58897 38382
" />
<path d="M54133 46220
L54133 38382
" />
<path d="M40787 46220
L54133 46220
" />
<path d="M40787 45882
L40787 46220
" />
<path d="M57658 38985
L59533 38985
" />
<path d="M61408 16485
L65158 16485
" />
<path d="M63283 23983
L61408 23983
" />
<path d="M61408 23983
L61408 16485
" />
<path d="M59533 31485
L63283 31485
" />
<path d="M57658 48511
L57658 38985
" />
<path d="M63283 31485
L63283 23983
" />
<path d="M59533 38985
L59533 31485
" />
<path d="M5796 9643
L64537 9643
" />
<path d="M5796 38382
L5796 9643
" />
<path d="M11417 38382
L5796 38382
" />
<path d="M11421 45882
L11421 38382
" />
<path d="M11421 45882
L40787 45882
" />
<path d="M127165 48511
L127165 7015
" />
<path d="M3168 7015
L3168 48511
" />
<path d="M65158 7015
L127165 7015
" />
<g >
</g>
</g>
<g style="fill:#000000; fill-opacity:0.0; 
stroke:#000000; stroke-width:39.3701; stroke-opacity:1; 
stroke-linecap:round; stroke-linejoin:round;">
<g >
</g>
</g> 
</svg>
