<?xml version="1.0" standalone="no"?>
 <!DOCTYPE svg PUBLIC "-//W3C//DTD SVG 1.1//EN" 
 "http://www.w3.org/Graphics/SVG/1.1/DTD/svg11.dtd"> 
<svg xmlns="http://www.w3.org/2000/svg" version="1.1" 
    width="59.4004cm" height="41.9989cm" viewBox="0 0 233860 165350 ">
<title>SVG Picture created as CASE_Cutting-F_CrtYd.svg date 2020/03/06 01:59:19 </title>
  <desc>Picture generated by PCBNEW </desc>
<g style="fill:#000000; fill-opacity:1;stroke:#000000; stroke-opacity:1;
stroke-linecap:round; stroke-linejoin:round; "
 transform="translate(0 0) scale(1 1)">
</g>
<g style="fill:#000000; fill-opacity:0.0; 
stroke:#000000; stroke-width:-0.000393701; stroke-opacity:1; 
stroke-linecap:round; stroke-linejoin:round;">
</g>
<g style="fill:#64C29B; fill-opacity:0.0; 
stroke:#64C29B; stroke-width:-0.000393701; stroke-opacity:1; 
stroke-linecap:round; stroke-linejoin:round;">
</g>
<g style="fill:#64C29B; fill-opacity:0.0; 
stroke:#64C29B; stroke-width:39.3701; stroke-opacity:1; 
stroke-linecap:round; stroke-linejoin:round;">
<path d="M124728 46094
L124637 46178
" />
<path d="M124888 45906
L124812 46003
" />
<path d="M124217 9116
L124329 9167
" />
<path d="M124637 9373
L124728 9457
" />
<path d="M124101 9073
L124217 9116
" />
<path d="M124888 9645
L124957 9748
" />
<path d="M124329 46383
L124217 46436
" />
<path d="M123861 9015
L123982 9039
" />
<path d="M125018 9856
L125070 9968
" />
<path d="M124728 9457
L124812 9548
" />
<path d="M125070 45583
L125018 45695
" />
<path d="M125190 44980
L125184 45104
" />
<path d="M124957 45803
L124888 45906
" />
<path d="M125113 45467
L125070 45583
" />
<path d="M124812 9548
L124888 9645
" />
<path d="M125184 45104
L125170 45227
" />
<path d="M125184 10447
L125190 10571
" />
<path d="M125170 10324
L125184 10447
" />
<path d="M65151 8996
L123614 8996
" />
<path d="M125113 10084
L125146 10203
" />
<path d="M124101 46478
L123982 46512
" />
<path d="M123982 46512
L123861 46536
" />
<path d="M114471 18460
L114445 18445
" />
<path d="M114445 18445
L114421 18429
" />
<path d="M114421 18429
L114398 18412
" />
<path d="M114398 18412
L114372 18393
" />
<path d="M114372 18393
L114351 18375
" />
<path d="M114351 18375
L114330 18356
" />
<path d="M114330 18356
L114310 18336
" />
<path d="M114310 18336
L114289 18315
" />
<path d="M114289 18315
L114271 18294
" />
<path d="M114271 18294
L114253 18272
" />
<path d="M114253 18272
L114236 18250
" />
<path d="M114236 18250
L114219 18226
" />
<path d="M114219 18226
L114204 18202
" />
<path d="M114204 18202
L114189 18178
" />
<path d="M114189 18178
L114175 18152
" />
<path d="M114175 18152
L114162 18125
" />
<path d="M114162 18125
L114148 18096
" />
<path d="M114148 18096
L114137 18068
" />
<path d="M114137 18068
L114126 18038
" />
<path d="M114126 18038
L114117 18008
" />
<path d="M114117 18008
L114109 17976
" />
<path d="M114109 17976
L114101 17943
" />
<path d="M114101 17943
L114095 17909
" />
<path d="M114095 17909
L114091 17873
" />
<path d="M114091 17873
L114088 17836
" />
<path d="M114088 17836
L114087 17798
" />
<path d="M114087 17798
L114087 17796
" />
<path d="M122837 43922
L122862 43908
" />
<path d="M122862 43908
L122889 43895
" />
<path d="M122889 43895
L122916 43883
" />
<path d="M122916 43883
L122946 43871
" />
<path d="M122946 43871
L122975 43860
" />
<path d="M122975 43860
L123005 43850
" />
<path d="M123005 43850
L123037 43842
" />
<path d="M123037 43842
L123069 43835
" />
<path d="M123069 43835
L123105 43828
" />
<path d="M123105 43828
L123141 43824
" />
<path d="M123141 43824
L123178 43821
" />
<path d="M123178 43821
L123217 43820
" />
<path d="M123217 43820
L123256 43820
" />
<path d="M123256 43820
L123293 43823
" />
<path d="M123293 43823
L123331 43827
" />
<path d="M123331 43827
L123365 43833
" />
<path d="M123365 43833
L123398 43840
" />
<path d="M123398 43840
L123430 43848
" />
<path d="M123430 43848
L123461 43858
" />
<path d="M123461 43858
L123490 43868
" />
<path d="M123490 43868
L123519 43880
" />
<path d="M123519 43880
L123546 43892
" />
<path d="M123546 43892
L123573 43905
" />
<path d="M123573 43905
L123601 43920
" />
<path d="M123601 43920
L123605 43922
" />
<path d="M85170 24272
L85171 24233
" />
<path d="M85171 24233
L85174 24197
" />
<path d="M85174 24197
L85179 24162
" />
<path d="M85179 24162
L85186 24129
" />
<path d="M85186 24129
L85194 24097
" />
<path d="M85194 24097
L85204 24067
" />
<path d="M85204 24067
L85215 24038
" />
<path d="M85215 24038
L85227 24010
" />
<path d="M85227 24010
L85240 23982
" />
<path d="M85240 23982
L85255 23956
" />
<path d="M85255 23956
L85270 23931
" />
<path d="M85270 23931
L85286 23908
" />
<path d="M85286 23908
L85305 23882
" />
<path d="M85305 23882
L85323 23860
" />
<path d="M85323 23860
L85342 23839
" />
<path d="M85342 23839
L85361 23819
" />
<path d="M85361 23819
L85382 23800
" />
<path d="M85382 23800
L85404 23782
" />
<path d="M85404 23782
L85426 23765
" />
<path d="M85426 23765
L85450 23748
" />
<path d="M85450 23748
L85474 23733
" />
<path d="M85474 23733
L85499 23718
" />
<path d="M85499 23718
L85527 23704
" />
<path d="M85527 23704
L85556 23691
" />
<path d="M85556 23691
L85584 23680
" />
<path d="M85584 23680
L85614 23670
" />
<path d="M85614 23670
L85646 23661
" />
<path d="M85646 23661
L85678 23654
" />
<path d="M85678 23654
L85712 23648
" />
<path d="M85712 23648
L85748 23644
" />
<path d="M85748 23644
L85786 23642
" />
<path d="M85786 23642
L85800 23642
" />
<path d="M73319 16221
L73319 16221
" />
<path d="M123989 44587
L123988 44626
" />
<path d="M123988 44626
L123985 44664
" />
<path d="M123985 44664
L123980 44699
" />
<path d="M123980 44699
L123975 44733
" />
<path d="M123975 44733
L123968 44767
" />
<path d="M123968 44767
L123959 44798
" />
<path d="M123959 44798
L123950 44828
" />
<path d="M123950 44828
L123939 44858
" />
<path d="M123939 44858
L123928 44886
" />
<path d="M123928 44886
L123916 44914
" />
<path d="M123916 44914
L123902 44941
" />
<path d="M123902 44941
L123888 44967
" />
<path d="M123888 44967
L123873 44992
" />
<path d="M123873 44992
L123857 45017
" />
<path d="M123857 45017
L123841 45040
" />
<path d="M123841 45040
L123824 45062
" />
<path d="M123824 45062
L123806 45084
" />
<path d="M123806 45084
L123787 45105
" />
<path d="M123787 45105
L123768 45126
" />
<path d="M123768 45126
L123748 45145
" />
<path d="M123748 45145
L123727 45165
" />
<path d="M123727 45165
L123703 45185
" />
<path d="M123703 45185
L123680 45202
" />
<path d="M123680 45202
L123657 45219
" />
<path d="M123657 45219
L123631 45236
" />
<path d="M123631 45236
L123607 45251
" />
<path d="M123607 45251
L123581 45265
" />
<path d="M123581 45265
L123554 45279
" />
<path d="M123554 45279
L123527 45292
" />
<path d="M123527 45292
L123497 45304
" />
<path d="M123497 45304
L123468 45314
" />
<path d="M123468 45314
L123438 45324
" />
<path d="M123438 45324
L123407 45332
" />
<path d="M123407 45332
L123374 45340
" />
<path d="M123374 45340
L123340 45346
" />
<path d="M123340 45346
L123304 45351
" />
<path d="M123304 45351
L123268 45354
" />
<path d="M123268 45354
L123229 45355
" />
<path d="M123229 45355
L123221 45355
" />
<path d="M73319 16221
L73318 16259
" />
<path d="M73318 16259
L73315 16296
" />
<path d="M73315 16296
L73310 16330
" />
<path d="M73310 16330
L73303 16363
" />
<path d="M73303 16363
L73295 16395
" />
<path d="M73295 16395
L73285 16425
" />
<path d="M73285 16425
L73275 16454
" />
<path d="M73275 16454
L73263 16482
" />
<path d="M73263 16482
L73249 16509
" />
<path d="M73249 16509
L73235 16535
" />
<path d="M73235 16535
L73221 16559
" />
<path d="M73221 16559
L73204 16584
" />
<path d="M73204 16584
L73187 16607
" />
<path d="M73187 16607
L73169 16629
" />
<path d="M73169 16629
L73151 16650
" />
<path d="M73151 16650
L73131 16670
" />
<path d="M73131 16670
L73110 16689
" />
<path d="M73110 16689
L73087 16709
" />
<path d="M73087 16709
L73064 16727
" />
<path d="M73064 16727
L73040 16744
" />
<path d="M73040 16744
L73016 16759
" />
<path d="M73016 16759
L73004 16766
" />
<path d="M86115 24818
L86089 24832
" />
<path d="M86089 24832
L86062 24845
" />
<path d="M86062 24845
L86034 24857
" />
<path d="M86034 24857
L86005 24868
" />
<path d="M86005 24868
L85972 24878
" />
<path d="M85972 24878
L85940 24886
" />
<path d="M85940 24886
L85907 24893
" />
<path d="M85907 24893
L85873 24898
" />
<path d="M85873 24898
L85836 24901
" />
<path d="M85836 24901
L85797 24902
" />
<path d="M85797 24902
L85759 24901
" />
<path d="M85759 24901
L85722 24897
" />
<path d="M85722 24897
L85686 24892
" />
<path d="M85686 24892
L85654 24885
" />
<path d="M85654 24885
L85622 24876
" />
<path d="M85622 24876
L85592 24867
" />
<path d="M85592 24867
L85563 24856
" />
<path d="M85563 24856
L85534 24843
" />
<path d="M85534 24843
L85508 24830
" />
<path d="M85508 24830
L85485 24818
" />
<path d="M86430 24272
L86430 24272
" />
<path d="M73004 15675
L73029 15690
" />
<path d="M73029 15690
L73054 15707
" />
<path d="M73054 15707
L73077 15724
" />
<path d="M73077 15724
L73099 15742
" />
<path d="M73099 15742
L73120 15761
" />
<path d="M73120 15761
L73141 15782
" />
<path d="M73141 15782
L73160 15802
" />
<path d="M73160 15802
L73178 15824
" />
<path d="M73178 15824
L73196 15846
" />
<path d="M73196 15846
L73213 15870
" />
<path d="M73213 15870
L73228 15894
" />
<path d="M73228 15894
L73243 15921
" />
<path d="M73243 15921
L73257 15947
" />
<path d="M73257 15947
L73269 15974
" />
<path d="M73269 15974
L73280 16003
" />
<path d="M73280 16003
L73291 16033
" />
<path d="M73291 16033
L73300 16065
" />
<path d="M73300 16065
L73308 16101
" />
<path d="M73308 16101
L73313 16134
" />
<path d="M73313 16134
L73317 16170
" />
<path d="M73317 16170
L73319 16211
" />
<path d="M73319 16211
L73319 16221
" />
<path d="M59136 45252
L59111 45237
" />
<path d="M59111 45237
L59087 45221
" />
<path d="M59087 45221
L59063 45204
" />
<path d="M59063 45204
L59038 45184
" />
<path d="M59038 45184
L59016 45166
" />
<path d="M59016 45166
L58995 45148
" />
<path d="M58995 45148
L58975 45128
" />
<path d="M58975 45128
L58955 45107
" />
<path d="M58955 45107
L58936 45086
" />
<path d="M58936 45086
L58918 45064
" />
<path d="M58918 45064
L58901 45042
" />
<path d="M58901 45042
L58885 45018
" />
<path d="M58885 45018
L58869 44994
" />
<path d="M58869 44994
L58854 44969
" />
<path d="M58854 44969
L58840 44944
" />
<path d="M58840 44944
L58827 44917
" />
<path d="M58827 44917
L58814 44887
" />
<path d="M58814 44887
L58802 44859
" />
<path d="M58802 44859
L58792 44830
" />
<path d="M58792 44830
L58782 44799
" />
<path d="M58782 44799
L58774 44767
" />
<path d="M58774 44767
L58767 44734
" />
<path d="M58767 44734
L58761 44700
" />
<path d="M58761 44700
L58756 44665
" />
<path d="M58756 44665
L58754 44628
" />
<path d="M58754 44628
L58752 44589
" />
<path d="M58752 44589
L58752 44587
" />
<path d="M60288 44587
L60288 44587
" />
<path d="M72374 15675
L72400 15661
" />
<path d="M72400 15661
L72427 15648
" />
<path d="M72427 15648
L72455 15636
" />
<path d="M72455 15636
L72485 15625
" />
<path d="M72485 15625
L72515 15615
" />
<path d="M72515 15615
L72548 15607
" />
<path d="M72548 15607
L72581 15600
" />
<path d="M72581 15600
L72619 15595
" />
<path d="M72619 15595
L72655 15592
" />
<path d="M72655 15592
L72694 15591
" />
<path d="M72694 15591
L72735 15592
" />
<path d="M72735 15592
L72771 15596
" />
<path d="M72771 15596
L72805 15602
" />
<path d="M72805 15602
L72838 15609
" />
<path d="M72838 15609
L72875 15619
" />
<path d="M72875 15619
L72905 15629
" />
<path d="M72905 15629
L72933 15640
" />
<path d="M72933 15640
L72961 15652
" />
<path d="M72961 15652
L72987 15666
" />
<path d="M72987 15666
L73004 15675
" />
<path d="M72060 16221
L72061 16182
" />
<path d="M72061 16182
L72064 16146
" />
<path d="M72064 16146
L72069 16111
" />
<path d="M72069 16111
L72076 16079
" />
<path d="M72076 16079
L72084 16047
" />
<path d="M72084 16047
L72094 16016
" />
<path d="M72094 16016
L72104 15987
" />
<path d="M72104 15987
L72116 15959
" />
<path d="M72116 15959
L72129 15932
" />
<path d="M72129 15932
L72143 15907
" />
<path d="M72143 15907
L72158 15882
" />
<path d="M72158 15882
L72174 15858
" />
<path d="M72174 15858
L72191 15835
" />
<path d="M72191 15835
L72209 15813
" />
<path d="M72209 15813
L72228 15792
" />
<path d="M72228 15792
L72248 15772
" />
<path d="M72248 15772
L72269 15751
" />
<path d="M72269 15751
L72291 15733
" />
<path d="M72291 15733
L72313 15716
" />
<path d="M72313 15716
L72339 15698
" />
<path d="M72339 15698
L72363 15682
" />
<path d="M72363 15682
L72374 15675
" />
<path d="M115623 17796
L115622 17834
" />
<path d="M115622 17834
L115619 17872
" />
<path d="M115619 17872
L115614 17908
" />
<path d="M115614 17908
L115608 17943
" />
<path d="M115608 17943
L115601 17976
" />
<path d="M115601 17976
L115593 18007
" />
<path d="M115593 18007
L115584 18037
" />
<path d="M115584 18037
L115573 18067
" />
<path d="M115573 18067
L115562 18095
" />
<path d="M115562 18095
L115549 18124
" />
<path d="M115549 18124
L115536 18150
" />
<path d="M115536 18150
L115522 18176
" />
<path d="M115522 18176
L115506 18202
" />
<path d="M115506 18202
L115490 18226
" />
<path d="M115490 18226
L115474 18250
" />
<path d="M115474 18250
L115456 18273
" />
<path d="M115456 18273
L115438 18295
" />
<path d="M115438 18295
L115420 18316
" />
<path d="M115420 18316
L115400 18336
" />
<path d="M115400 18336
L115379 18356
" />
<path d="M115379 18356
L115358 18375
" />
<path d="M115358 18375
L115337 18393
" />
<path d="M115337 18393
L115314 18411
" />
<path d="M115314 18411
L115291 18427
" />
<path d="M115291 18427
L115266 18444
" />
<path d="M115266 18444
L115241 18459
" />
<path d="M115241 18459
L115239 18460
" />
<path d="M115239 18460
L115213 18475
" />
<path d="M115213 18475
L115187 18488
" />
<path d="M115187 18488
L115159 18500
" />
<path d="M115159 18500
L115131 18512
" />
<path d="M115131 18512
L115100 18523
" />
<path d="M115100 18523
L115070 18532
" />
<path d="M115070 18532
L115039 18541
" />
<path d="M115039 18541
L115006 18548
" />
<path d="M115006 18548
L114972 18554
" />
<path d="M114972 18554
L114935 18559
" />
<path d="M114935 18559
L114898 18562
" />
<path d="M114898 18562
L114859 18563
" />
<path d="M114859 18563
L114818 18562
" />
<path d="M114818 18562
L114780 18560
" />
<path d="M114780 18560
L114744 18555
" />
<path d="M114744 18555
L114711 18550
" />
<path d="M114711 18550
L114678 18543
" />
<path d="M114678 18543
L114645 18534
" />
<path d="M114645 18534
L114615 18525
" />
<path d="M114615 18525
L114586 18515
" />
<path d="M114586 18515
L114557 18503
" />
<path d="M114557 18503
L114529 18491
" />
<path d="M114529 18491
L114503 18478
" />
<path d="M114503 18478
L114476 18463
" />
<path d="M114476 18463
L114471 18460
" />
<path d="M60288 44587
L60287 44626
" />
<path d="M60287 44626
L60284 44664
" />
<path d="M60284 44664
L60280 44700
" />
<path d="M60280 44700
L60274 44735
" />
<path d="M60274 44735
L60266 44767
" />
<path d="M60266 44767
L60258 44799
" />
<path d="M60258 44799
L60249 44829
" />
<path d="M60249 44829
L60238 44858
" />
<path d="M60238 44858
L60227 44887
" />
<path d="M60227 44887
L60214 44916
" />
<path d="M60214 44916
L60201 44942
" />
<path d="M60201 44942
L60187 44968
" />
<path d="M60187 44968
L60171 44994
" />
<path d="M60171 44994
L60156 45018
" />
<path d="M60156 45018
L60139 45042
" />
<path d="M60139 45042
L60121 45065
" />
<path d="M60121 45065
L60104 45086
" />
<path d="M60104 45086
L60085 45107
" />
<path d="M60085 45107
L60065 45128
" />
<path d="M60065 45128
L60045 45148
" />
<path d="M60045 45148
L60024 45167
" />
<path d="M60024 45167
L60002 45185
" />
<path d="M60002 45185
L59980 45202
" />
<path d="M59980 45202
L59957 45219
" />
<path d="M59957 45219
L59932 45235
" />
<path d="M59932 45235
L59906 45251
" />
<path d="M59906 45251
L59904 45252
" />
<path d="M114087 17796
L114088 17757
" />
<path d="M114088 17757
L114091 17719
" />
<path d="M114091 17719
L114095 17683
" />
<path d="M114095 17683
L114101 17648
" />
<path d="M114101 17648
L114109 17615
" />
<path d="M114109 17615
L114117 17583
" />
<path d="M114117 17583
L114127 17552
" />
<path d="M114127 17552
L114137 17522
" />
<path d="M114137 17522
L114149 17494
" />
<path d="M114149 17494
L114161 17466
" />
<path d="M114161 17466
L114174 17440
" />
<path d="M114174 17440
L114189 17414
" />
<path d="M114189 17414
L114204 17388
" />
<path d="M114204 17388
L114220 17364
" />
<path d="M114220 17364
L114236 17341
" />
<path d="M114236 17341
L114254 17318
" />
<path d="M114254 17318
L114271 17297
" />
<path d="M114271 17297
L114290 17276
" />
<path d="M114290 17276
L114309 17255
" />
<path d="M114309 17255
L114329 17236
" />
<path d="M114329 17236
L114351 17216
" />
<path d="M114351 17216
L114373 17198
" />
<path d="M114373 17198
L114395 17181
" />
<path d="M114395 17181
L114419 17164
" />
<path d="M114419 17164
L114443 17148
" />
<path d="M114443 17148
L114467 17133
" />
<path d="M114467 17133
L114471 17131
" />
<path d="M59904 43922
L59929 43938
" />
<path d="M59929 43938
L59953 43953
" />
<path d="M59953 43953
L59976 43970
" />
<path d="M59976 43970
L59999 43987
" />
<path d="M59999 43987
L60021 44005
" />
<path d="M60021 44005
L60043 44025
" />
<path d="M60043 44025
L60063 44045
" />
<path d="M60063 44045
L60083 44065
" />
<path d="M60083 44065
L60103 44087
" />
<path d="M60103 44087
L60120 44109
" />
<path d="M60120 44109
L60138 44131
" />
<path d="M60138 44131
L60154 44154
" />
<path d="M60154 44154
L60170 44178
" />
<path d="M60170 44178
L60187 44206
" />
<path d="M60187 44206
L60201 44233
" />
<path d="M60201 44233
L60215 44260
" />
<path d="M60215 44260
L60227 44288
" />
<path d="M60227 44288
L60239 44317
" />
<path d="M60239 44317
L60249 44346
" />
<path d="M60249 44346
L60258 44377
" />
<path d="M60258 44377
L60267 44408
" />
<path d="M60267 44408
L60274 44442
" />
<path d="M60274 44442
L60280 44476
" />
<path d="M60280 44476
L60284 44514
" />
<path d="M60284 44514
L60287 44551
" />
<path d="M60287 44551
L60288 44587
" />
<path d="M115239 17131
L115264 17146
" />
<path d="M115264 17146
L115288 17162
" />
<path d="M115288 17162
L115311 17178
" />
<path d="M115311 17178
L115334 17195
" />
<path d="M115334 17195
L115356 17214
" />
<path d="M115356 17214
L115378 17233
" />
<path d="M115378 17233
L115398 17253
" />
<path d="M115398 17253
L115417 17273
" />
<path d="M115417 17273
L115437 17295
" />
<path d="M115437 17295
L115455 17317
" />
<path d="M115455 17317
L115472 17339
" />
<path d="M115472 17339
L115489 17363
" />
<path d="M115489 17363
L115505 17387
" />
<path d="M115505 17387
L115521 17415
" />
<path d="M115521 17415
L115536 17441
" />
<path d="M115536 17441
L115549 17468
" />
<path d="M115549 17468
L115562 17496
" />
<path d="M115562 17496
L115573 17525
" />
<path d="M115573 17525
L115584 17554
" />
<path d="M115584 17554
L115593 17585
" />
<path d="M115593 17585
L115601 17616
" />
<path d="M115601 17616
L115609 17650
" />
<path d="M115609 17650
L115614 17684
" />
<path d="M115614 17684
L115619 17722
" />
<path d="M115619 17722
L115622 17759
" />
<path d="M115622 17759
L115623 17796
" />
<path d="M59904 45252
L59878 45266
" />
<path d="M59878 45266
L59852 45280
" />
<path d="M59852 45280
L59825 45292
" />
<path d="M59825 45292
L59796 45304
" />
<path d="M59796 45304
L59766 45315
" />
<path d="M59766 45315
L59736 45324
" />
<path d="M59736 45324
L59704 45333
" />
<path d="M59704 45333
L59671 45340
" />
<path d="M59671 45340
L59637 45346
" />
<path d="M59637 45346
L59600 45351
" />
<path d="M59600 45351
L59563 45354
" />
<path d="M59563 45354
L59524 45355
" />
<path d="M59524 45355
L59483 45354
" />
<path d="M59483 45354
L59445 45351
" />
<path d="M59445 45351
L59410 45347
" />
<path d="M59410 45347
L59376 45341
" />
<path d="M59376 45341
L59343 45334
" />
<path d="M59343 45334
L59311 45326
" />
<path d="M59311 45326
L59281 45317
" />
<path d="M59281 45317
L59251 45306
" />
<path d="M59251 45306
L59222 45295
" />
<path d="M59222 45295
L59195 45283
" />
<path d="M59195 45283
L59168 45269
" />
<path d="M59168 45269
L59141 45255
" />
<path d="M59141 45255
L59136 45252
" />
<path d="M58752 44587
L58753 44548
" />
<path d="M58753 44548
L58756 44510
" />
<path d="M58756 44510
L58761 44475
" />
<path d="M58761 44475
L58767 44440
" />
<path d="M58767 44440
L58774 44406
" />
<path d="M58774 44406
L58782 44375
" />
<path d="M58782 44375
L58792 44343
" />
<path d="M58792 44343
L58803 44314
" />
<path d="M58803 44314
L58814 44286
" />
<path d="M58814 44286
L58827 44258
" />
<path d="M58827 44258
L58840 44232
" />
<path d="M58840 44232
L58854 44206
" />
<path d="M58854 44206
L58869 44180
" />
<path d="M58869 44180
L58885 44156
" />
<path d="M58885 44156
L58901 44133
" />
<path d="M58901 44133
L58919 44110
" />
<path d="M58919 44110
L58937 44088
" />
<path d="M58937 44088
L58955 44067
" />
<path d="M58955 44067
L58975 44047
" />
<path d="M58975 44047
L58995 44027
" />
<path d="M58995 44027
L59017 44008
" />
<path d="M59017 44008
L59038 43990
" />
<path d="M59038 43990
L59061 43972
" />
<path d="M59061 43972
L59084 43956
" />
<path d="M59084 43956
L59108 43940
" />
<path d="M59108 43940
L59132 43925
" />
<path d="M59132 43925
L59136 43922
" />
<path d="M59136 43922
L59162 43908
" />
<path d="M59162 43908
L59188 43895
" />
<path d="M59188 43895
L59216 43883
" />
<path d="M59216 43883
L59245 43871
" />
<path d="M59245 43871
L59275 43860
" />
<path d="M59275 43860
L59305 43850
" />
<path d="M59305 43850
L59336 43842
" />
<path d="M59336 43842
L59369 43835
" />
<path d="M59369 43835
L59404 43828
" />
<path d="M59404 43828
L59440 43824
" />
<path d="M59440 43824
L59477 43821
" />
<path d="M59477 43821
L59517 43820
" />
<path d="M59517 43820
L59555 43820
" />
<path d="M59555 43820
L59592 43823
" />
<path d="M59592 43823
L59630 43827
" />
<path d="M59630 43827
L59664 43833
" />
<path d="M59664 43833
L59697 43840
" />
<path d="M59697 43840
L59729 43848
" />
<path d="M59729 43848
L59760 43858
" />
<path d="M59760 43858
L59790 43868
" />
<path d="M59790 43868
L59818 43880
" />
<path d="M59818 43880
L59846 43892
" />
<path d="M59846 43892
L59872 43905
" />
<path d="M59872 43905
L59900 43920
" />
<path d="M59900 43920
L59904 43922
" />
<path d="M73004 16766
L72979 16780
" />
<path d="M72979 16780
L72952 16793
" />
<path d="M72952 16793
L72924 16806
" />
<path d="M72924 16806
L72895 16816
" />
<path d="M72895 16816
L72862 16827
" />
<path d="M72862 16827
L72830 16835
" />
<path d="M72830 16835
L72797 16841
" />
<path d="M72797 16841
L72762 16846
" />
<path d="M72762 16846
L72726 16850
" />
<path d="M72726 16850
L72687 16851
" />
<path d="M72687 16851
L72648 16849
" />
<path d="M72648 16849
L72612 16846
" />
<path d="M72612 16846
L72576 16840
" />
<path d="M72576 16840
L72544 16834
" />
<path d="M72544 16834
L72512 16825
" />
<path d="M72512 16825
L72482 16816
" />
<path d="M72482 16816
L72453 16805
" />
<path d="M72453 16805
L72424 16792
" />
<path d="M72424 16792
L72398 16779
" />
<path d="M72398 16779
L72374 16766
" />
<path d="M115623 17796
L115623 17796
" />
<path d="M85800 23642
L85838 23643
" />
<path d="M85838 23643
L85874 23646
" />
<path d="M85874 23646
L85909 23652
" />
<path d="M85909 23652
L85943 23658
" />
<path d="M85943 23658
L85974 23667
" />
<path d="M85974 23667
L86005 23676
" />
<path d="M86005 23676
L86034 23687
" />
<path d="M86034 23687
L86062 23699
" />
<path d="M86062 23699
L86089 23712
" />
<path d="M86089 23712
L86115 23727
" />
<path d="M86115 23727
L86141 23742
" />
<path d="M86141 23742
L86166 23759
" />
<path d="M86166 23759
L86189 23777
" />
<path d="M86189 23777
L86211 23795
" />
<path d="M86211 23795
L86232 23814
" />
<path d="M86232 23814
L86252 23834
" />
<path d="M86252 23834
L86272 23855
" />
<path d="M86272 23855
L86290 23876
" />
<path d="M86290 23876
L86307 23899
" />
<path d="M86307 23899
L86324 23922
" />
<path d="M86324 23922
L86340 23947
" />
<path d="M86340 23947
L86354 23973
" />
<path d="M86354 23973
L86368 24000
" />
<path d="M86368 24000
L86381 24028
" />
<path d="M86381 24028
L86392 24058
" />
<path d="M86392 24058
L86402 24088
" />
<path d="M86402 24088
L86411 24119
" />
<path d="M86411 24119
L86418 24151
" />
<path d="M86418 24151
L86424 24186
" />
<path d="M86424 24186
L86428 24222
" />
<path d="M86428 24222
L86429 24260
" />
<path d="M86429 24260
L86430 24272
" />
<path d="M122453 44587
L122454 44548
" />
<path d="M122454 44548
L122457 44510
" />
<path d="M122457 44510
L122461 44475
" />
<path d="M122461 44475
L122467 44440
" />
<path d="M122467 44440
L122475 44406
" />
<path d="M122475 44406
L122483 44375
" />
<path d="M122483 44375
L122493 44343
" />
<path d="M122493 44343
L122503 44314
" />
<path d="M122503 44314
L122515 44286
" />
<path d="M122515 44286
L122527 44258
" />
<path d="M122527 44258
L122540 44232
" />
<path d="M122540 44232
L122555 44206
" />
<path d="M122555 44206
L122570 44180
" />
<path d="M122570 44180
L122586 44156
" />
<path d="M122586 44156
L122602 44133
" />
<path d="M122602 44133
L122620 44110
" />
<path d="M122620 44110
L122637 44088
" />
<path d="M122637 44088
L122656 44067
" />
<path d="M122656 44067
L122675 44047
" />
<path d="M122675 44047
L122695 44027
" />
<path d="M122695 44027
L122717 44008
" />
<path d="M122717 44008
L122739 43990
" />
<path d="M122739 43990
L122761 43972
" />
<path d="M122761 43972
L122785 43956
" />
<path d="M122785 43956
L122809 43940
" />
<path d="M122809 43940
L122833 43925
" />
<path d="M122833 43925
L122837 43922
" />
<path d="M114471 17131
L114496 17117
" />
<path d="M114496 17117
L114523 17103
" />
<path d="M114523 17103
L114550 17091
" />
<path d="M114550 17091
L114580 17079
" />
<path d="M114580 17079
L114609 17068
" />
<path d="M114609 17068
L114639 17059
" />
<path d="M114639 17059
L114671 17050
" />
<path d="M114671 17050
L114703 17043
" />
<path d="M114703 17043
L114739 17037
" />
<path d="M114739 17037
L114775 17032
" />
<path d="M114775 17032
L114812 17029
" />
<path d="M114812 17029
L114851 17028
" />
<path d="M114851 17028
L114890 17029
" />
<path d="M114890 17029
L114927 17031
" />
<path d="M114927 17031
L114965 17036
" />
<path d="M114965 17036
L114999 17041
" />
<path d="M114999 17041
L115032 17049
" />
<path d="M115032 17049
L115064 17057
" />
<path d="M115064 17057
L115095 17066
" />
<path d="M115095 17066
L115124 17077
" />
<path d="M115124 17077
L115153 17088
" />
<path d="M115153 17088
L115180 17100
" />
<path d="M115180 17100
L115207 17113
" />
<path d="M115207 17113
L115235 17129
" />
<path d="M115235 17129
L115239 17131
" />
<path d="M123605 43922
L123630 43938
" />
<path d="M123630 43938
L123654 43953
" />
<path d="M123654 43953
L123677 43970
" />
<path d="M123677 43970
L123700 43987
" />
<path d="M123700 43987
L123722 44005
" />
<path d="M123722 44005
L123744 44025
" />
<path d="M123744 44025
L123764 44045
" />
<path d="M123764 44045
L123783 44065
" />
<path d="M123783 44065
L123803 44087
" />
<path d="M123803 44087
L123821 44109
" />
<path d="M123821 44109
L123838 44131
" />
<path d="M123838 44131
L123855 44154
" />
<path d="M123855 44154
L123871 44178
" />
<path d="M123871 44178
L123887 44206
" />
<path d="M123887 44206
L123902 44233
" />
<path d="M123902 44233
L123915 44260
" />
<path d="M123915 44260
L123928 44288
" />
<path d="M123928 44288
L123939 44317
" />
<path d="M123939 44317
L123950 44346
" />
<path d="M123950 44346
L123959 44377
" />
<path d="M123959 44377
L123967 44408
" />
<path d="M123967 44408
L123975 44442
" />
<path d="M123975 44442
L123980 44476
" />
<path d="M123980 44476
L123985 44514
" />
<path d="M123985 44514
L123988 44551
" />
<path d="M123988 44551
L123989 44587
" />
<path d="M123989 44587
L123989 44587
" />
<path d="M85485 24818
L85459 24802
" />
<path d="M85459 24802
L85434 24785
" />
<path d="M85434 24785
L85411 24768
" />
<path d="M85411 24768
L85388 24749
" />
<path d="M85388 24749
L85367 24730
" />
<path d="M85367 24730
L85347 24710
" />
<path d="M85347 24710
L85328 24689
" />
<path d="M85328 24689
L85309 24668
" />
<path d="M85309 24668
L85292 24645
" />
<path d="M85292 24645
L85276 24622
" />
<path d="M85276 24622
L85260 24597
" />
<path d="M85260 24597
L85246 24572
" />
<path d="M85246 24572
L85232 24546
" />
<path d="M85232 24546
L85220 24518
" />
<path d="M85220 24518
L85209 24490
" />
<path d="M85209 24490
L85198 24460
" />
<path d="M85198 24460
L85190 24429
" />
<path d="M85190 24429
L85182 24397
" />
<path d="M85182 24397
L85176 24363
" />
<path d="M85176 24363
L85172 24328
" />
<path d="M85172 24328
L85170 24291
" />
<path d="M85170 24291
L85170 24272
" />
<path d="M86430 24272
L86428 24310
" />
<path d="M86428 24310
L86425 24347
" />
<path d="M86425 24347
L86420 24381
" />
<path d="M86420 24381
L86413 24414
" />
<path d="M86413 24414
L86405 24447
" />
<path d="M86405 24447
L86395 24476
" />
<path d="M86395 24476
L86385 24505
" />
<path d="M86385 24505
L86373 24533
" />
<path d="M86373 24533
L86360 24560
" />
<path d="M86360 24560
L86346 24586
" />
<path d="M86346 24586
L86331 24611
" />
<path d="M86331 24611
L86314 24635
" />
<path d="M86314 24635
L86297 24658
" />
<path d="M86297 24658
L86280 24680
" />
<path d="M86280 24680
L86261 24701
" />
<path d="M86261 24701
L86241 24721
" />
<path d="M86241 24721
L86221 24741
" />
<path d="M86221 24741
L86198 24760
" />
<path d="M86198 24760
L86174 24778
" />
<path d="M86174 24778
L86151 24795
" />
<path d="M86151 24795
L86126 24811
" />
<path d="M86126 24811
L86115 24818
" />
<path d="M72374 16766
L72349 16751
" />
<path d="M72349 16751
L72324 16734
" />
<path d="M72324 16734
L72301 16716
" />
<path d="M72301 16716
L72278 16698
" />
<path d="M72278 16698
L72257 16679
" />
<path d="M72257 16679
L72237 16659
" />
<path d="M72237 16659
L72217 16638
" />
<path d="M72217 16638
L72199 16616
" />
<path d="M72199 16616
L72182 16594
" />
<path d="M72182 16594
L72166 16571
" />
<path d="M72166 16571
L72150 16546
" />
<path d="M72150 16546
L72135 16520
" />
<path d="M72135 16520
L72122 16494
" />
<path d="M72122 16494
L72110 16467
" />
<path d="M72110 16467
L72098 16439
" />
<path d="M72098 16439
L72088 16409
" />
<path d="M72088 16409
L72079 16378
" />
<path d="M72079 16378
L72072 16346
" />
<path d="M72072 16346
L72066 16312
" />
<path d="M72066 16312
L72062 16277
" />
<path d="M72062 16277
L72060 16240
" />
<path d="M72060 16240
L72060 16221
" />
<path d="M123221 45355
L123182 45354
" />
<path d="M123182 45354
L123145 45351
" />
<path d="M123145 45351
L123109 45347
" />
<path d="M123109 45347
L123074 45341
" />
<path d="M123074 45341
L123041 45334
" />
<path d="M123041 45334
L123010 45326
" />
<path d="M123010 45326
L122977 45316
" />
<path d="M122977 45316
L122948 45305
" />
<path d="M122948 45305
L122919 45293
" />
<path d="M122919 45293
L122891 45281
" />
<path d="M122891 45281
L122864 45267
" />
<path d="M122864 45267
L122837 45253
" />
<path d="M122837 45253
L122812 45237
" />
<path d="M122812 45237
L122787 45221
" />
<path d="M122787 45221
L122764 45204
" />
<path d="M122764 45204
L122742 45187
" />
<path d="M122742 45187
L122720 45169
" />
<path d="M122720 45169
L122699 45150
" />
<path d="M122699 45150
L122679 45131
" />
<path d="M122679 45131
L122659 45110
" />
<path d="M122659 45110
L122640 45089
" />
<path d="M122640 45089
L122622 45067
" />
<path d="M122622 45067
L122604 45045
" />
<path d="M122604 45045
L122588 45022
" />
<path d="M122588 45022
L122572 44997
" />
<path d="M122572 44997
L122557 44973
" />
<path d="M122557 44973
L122543 44947
" />
<path d="M122543 44947
L122529 44921
" />
<path d="M122529 44921
L122517 44894
" />
<path d="M122517 44894
L122505 44865
" />
<path d="M122505 44865
L122494 44835
" />
<path d="M122494 44835
L122484 44804
" />
<path d="M122484 44804
L122476 44773
" />
<path d="M122476 44773
L122468 44739
" />
<path d="M122468 44739
L122462 44705
" />
<path d="M122462 44705
L122458 44670
" />
<path d="M122458 44670
L122454 44633
" />
<path d="M122454 44633
L122453 44594
" />
<path d="M122453 44594
L122453 44587
" />
<path d="M118511 45501
L113058 45501
" />
<path d="M80245 45501
L80245 40049
" />
<path d="M89621 40049
L95073 40049
" />
<path d="M98058 45501
L98058 40049
" />
<path d="M105558 40049
L111011 40049
" />
<path d="M85698 40049
L85698 45501
" />
<path d="M95073 45501
L89621 45501
" />
<path d="M85698 45501
L80245 45501
" />
<path d="M95073 40049
L95073 45501
" />
<path d="M80245 40049
L85698 40049
" />
<path d="M103511 45501
L98058 45501
" />
<path d="M113058 45501
L113058 40049
" />
<path d="M73956 40627
L73277 40627
" />
<path d="M89621 45501
L89621 40049
" />
<path d="M118511 40049
L118511 45501
" />
<path d="M113058 40049
L118511 40049
" />
<path d="M124812 46003
L124728 46094
" />
<path d="M124540 9296
L124637 9373
" />
<path d="M124437 46323
L124329 46383
" />
<path d="M124540 46254
L124437 46323
" />
<path d="M125070 9968
L125113 10084
" />
<path d="M125146 10203
L125170 10324
" />
<path d="M125018 45695
L124957 45803
" />
<path d="M124637 46178
L124540 46254
" />
<path d="M125146 45348
L125113 45467
" />
<path d="M124437 9228
L124540 9296
" />
<path d="M123982 9039
L124101 9073
" />
<path d="M123738 9001
L123861 9015
" />
<path d="M123738 46550
L123614 46555
" />
<path d="M123861 46536
L123738 46550
" />
<path d="M124217 46436
L124101 46478
" />
<path d="M124957 9748
L125018 9856
" />
<path d="M125170 45227
L125146 45348
" />
<path d="M123614 8996
L123738 9001
" />
<path d="M124329 9167
L124437 9228
" />
<path d="M125190 10571
L125190 44980
" />
<path d="M75558 38001
L75558 32549
" />
<path d="M103511 38001
L98058 38001
" />
<path d="M83058 32549
L88511 32549
" />
<path d="M123614 46555
L57651 46555
" />
<path d="M111011 38001
L105558 38001
" />
<path d="M81011 32549
L81011 38001
" />
<path d="M121323 32549
L121323 38001
" />
<path d="M68058 38001
L68058 32549
" />
<path d="M96011 32549
L96011 38001
" />
<path d="M115871 32549
L121323 32549
" />
<path d="M73511 38001
L68058 38001
" />
<path d="M88511 38001
L83058 38001
" />
<path d="M115871 38001
L115871 32549
" />
<path d="M66011 38001
L60558 38001
" />
<path d="M90558 38001
L90558 32549
" />
<path d="M88511 32549
L88511 38001
" />
<path d="M105558 38001
L105558 32549
" />
<path d="M75558 32549
L81011 32549
" />
<path d="M81011 38001
L75558 38001
" />
<path d="M66011 32549
L66011 38001
" />
<path d="M73511 32549
L73511 38001
" />
<path d="M73956 42942
L74280 42942
" />
<path d="M73956 45411
L73956 42942
" />
<path d="M105558 45501
L105558 40049
" />
<path d="M72036 40265
L72036 40627
" />
<path d="M73277 40627
L73277 40265
" />
<path d="M111011 40049
L111011 45501
" />
<path d="M103511 40049
L103511 45501
" />
<path d="M71357 41899
L70698 41899
" />
<path d="M61987 42942
L61987 45411
" />
<path d="M65245 45501
L70698 45501
" />
<path d="M61987 40627
L61987 41899
" />
<path d="M71357 45411
L72036 45411
" />
<path d="M74280 41899
L73956 41899
" />
<path d="M73277 45411
L73956 45411
" />
<path d="M72036 40627
L71357 40627
" />
<path d="M70698 41899
L70698 40049
" />
<path d="M70698 40049
L65245 40049
" />
<path d="M98058 40049
L103511 40049
" />
<path d="M73956 41899
L73956 40627
" />
<path d="M111011 45501
L105558 45501
" />
<path d="M73277 40265
L72036 40265
" />
<path d="M70698 43651
L71357 43651
" />
<path d="M62666 40265
L62666 40627
" />
<path d="M74280 42942
L74280 41899
" />
<path d="M72036 45411
L72036 45797
" />
<path d="M61987 41899
L61663 41899
" />
<path d="M73277 45797
L73277 45411
" />
<path d="M71357 40627
L71357 41899
" />
<path d="M72036 45797
L73277 45797
" />
<path d="M121045 13651
L121045 15411
" />
<path d="M103683 15501
L103683 10049
" />
<path d="M61987 45411
L62666 45411
" />
<path d="M65245 43651
L65245 45501
" />
<path d="M114273 15411
L114273 13651
" />
<path d="M112354 15411
L112354 15797
" />
<path d="M111350 12942
L111675 12942
" />
<path d="M71636 15501
L66183 15501
" />
<path d="M123643 11899
L123643 10627
" />
<path d="M121045 15411
L121725 15411
" />
<path d="M65245 40049
L65245 41899
" />
<path d="M63907 40627
L63907 40265
" />
<path d="M71357 43651
L71357 45411
" />
<path d="M113594 15411
L114273 15411
" />
<path d="M123969 12942
L123969 11899
" />
<path d="M114933 13651
L114933 15501
" />
<path d="M64586 43651
L65245 43651
" />
<path d="M62666 45797
L63907 45797
" />
<path d="M64586 41899
L64586 40627
" />
<path d="M61663 42942
L61987 42942
" />
<path d="M63907 45797
L63907 45411
" />
<path d="M61663 41899
L61663 42942
" />
<path d="M63907 45411
L64586 45411
" />
<path d="M62666 45411
L62666 45797
" />
<path d="M64586 40627
L63907 40627
" />
<path d="M63907 40265
L62666 40265
" />
<path d="M64586 45411
L64586 43651
" />
<path d="M112354 10627
L111675 10627
" />
<path d="M94136 10049
L94136 15501
" />
<path d="M62666 40627
L61987 40627
" />
<path d="M70698 45501
L70698 43651
" />
<path d="M112354 15797
L113594 15797
" />
<path d="M65245 41899
L64586 41899
" />
<path d="M97886 17549
L97886 23001
" />
<path d="M75386 23001
L69933 23001
" />
<path d="M96183 10049
L101636 10049
" />
<path d="M121725 10627
L121045 10627
" />
<path d="M122964 10265
L121725 10265
" />
<path d="M121045 10627
L121045 11899
" />
<path d="M111675 12942
L111675 15411
" />
<path d="M111350 11899
L111350 12942
" />
<path d="M122964 15797
L122964 15411
" />
<path d="M86636 15501
L81183 15501
" />
<path d="M66183 10049
L71636 10049
" />
<path d="M123643 10627
L122964 10627
" />
<path d="M86636 10049
L86636 15501
" />
<path d="M120386 10049
L114933 10049
" />
<path d="M71636 10049
L71636 15501
" />
<path d="M111675 15411
L112354 15411
" />
<path d="M109136 10049
L109136 15501
" />
<path d="M114273 13651
L114933 13651
" />
<path d="M88683 10049
L94136 10049
" />
<path d="M120386 15501
L120386 13651
" />
<path d="M101636 10049
L101636 15501
" />
<path d="M81183 15501
L81183 10049
" />
<path d="M105386 23001
L99933 23001
" />
<path d="M90386 17549
L90386 23001
" />
<path d="M123643 15411
L123643 12942
" />
<path d="M88683 15501
L88683 10049
" />
<path d="M120386 13651
L121045 13651
" />
<path d="M103683 10049
L109136 10049
" />
<path d="M73683 10049
L79136 10049
" />
<path d="M121045 11899
L120386 11899
" />
<path d="M113594 15797
L113594 15411
" />
<path d="M66183 15501
L66183 10049
" />
<path d="M123643 12942
L123969 12942
" />
<path d="M73683 15501
L73683 10049
" />
<path d="M111675 10627
L111675 11899
" />
<path d="M109136 15501
L103683 15501
" />
<path d="M79136 10049
L79136 15501
" />
<path d="M121725 15797
L122964 15797
" />
<path d="M121725 10265
L121725 10627
" />
<path d="M94136 15501
L88683 15501
" />
<path d="M79136 15501
L73683 15501
" />
<path d="M101636 15501
L96183 15501
" />
<path d="M122964 15411
L123643 15411
" />
<path d="M112886 17549
L112886 23001
" />
<path d="M123969 11899
L123643 11899
" />
<path d="M84933 23001
L84933 17549
" />
<path d="M81183 10049
L86636 10049
" />
<path d="M96183 15501
L96183 10049
" />
<path d="M120386 11899
L120386 10049
" />
<path d="M114933 15501
L120386 15501
" />
<path d="M114933 11899
L114273 11899
" />
<path d="M111675 11899
L111350 11899
" />
<path d="M122964 10627
L122964 10265
" />
<path d="M62433 17549
L67886 17549
" />
<path d="M114273 11899
L114273 10627
" />
<path d="M121725 15411
L121725 15797
" />
<path d="M77261 30501
L71808 30501
" />
<path d="M92261 25049
L92261 30501
" />
<path d="M113594 10627
L113594 10265
" />
<path d="M99933 17549
L105386 17549
" />
<path d="M77433 17549
L82886 17549
" />
<path d="M69933 17549
L75386 17549
" />
<path d="M105386 17549
L105386 23001
" />
<path d="M84933 17549
L90386 17549
" />
<path d="M120107 26899
L119448 26899
" />
<path d="M113594 10265
L112354 10265
" />
<path d="M82886 17549
L82886 23001
" />
<path d="M112886 23001
L107433 23001
" />
<path d="M107433 23001
L107433 17549
" />
<path d="M107433 17549
L112886 17549
" />
<path d="M112354 10265
L112354 10627
" />
<path d="M69933 23001
L69933 17549
" />
<path d="M92433 17549
L97886 17549
" />
<path d="M82886 23001
L77433 23001
" />
<path d="M99933 23001
L99933 17549
" />
<path d="M62433 23001
L62433 17549
" />
<path d="M67886 23001
L62433 23001
" />
<path d="M90386 23001
L84933 23001
" />
<path d="M67886 17549
L67886 23001
" />
<path d="M114273 10627
L113594 10627
" />
<path d="M77433 23001
L77433 17549
" />
<path d="M114933 10049
L114933 11899
" />
<path d="M116808 23001
L116808 17549
" />
<path d="M122261 23001
L116808 23001
" />
<path d="M94308 25049
L99761 25049
" />
<path d="M97886 23001
L92433 23001
" />
<path d="M75386 17549
L75386 23001
" />
<path d="M92433 23001
L92433 17549
" />
<path d="M119448 26899
L119448 25049
" />
<path d="M120107 30411
L120786 30411
" />
<path d="M119448 28651
L120107 28651
" />
<path d="M120107 28651
L120107 30411
" />
<path d="M71808 30501
L71808 25049
" />
<path d="M71808 25049
L77261 25049
" />
<path d="M119448 25049
L113995 25049
" />
<path d="M77261 25049
L77261 30501
" />
<path d="M101808 25049
L107261 25049
" />
<path d="M99761 25049
L99761 30501
" />
<path d="M122027 25627
L122027 25265
" />
<path d="M84761 25049
L84761 30501
" />
<path d="M84761 30501
L79308 30501
" />
<path d="M112657 25265
L111416 25265
" />
<path d="M79308 25049
L84761 25049
" />
<path d="M69761 30501
L64308 30501
" />
<path d="M119448 30501
L119448 28651
" />
<path d="M110737 30411
L111416 30411
" />
<path d="M113336 26899
L113336 25627
" />
<path d="M120786 25627
L120107 25627
" />
<path d="M107261 30501
L101808 30501
" />
<path d="M99761 30501
L94308 30501
" />
<path d="M122261 17549
L122261 23001
" />
<path d="M86808 30501
L86808 25049
" />
<path d="M107261 25049
L107261 30501
" />
<path d="M120786 25265
L120786 25627
" />
<path d="M101808 30501
L101808 25049
" />
<path d="M122706 25627
L122027 25627
" />
<path d="M120107 25627
L120107 26899
" />
<path d="M94308 30501
L94308 25049
" />
<path d="M122027 25265
L120786 25265
" />
<path d="M116808 17549
L122261 17549
" />
<path d="M64308 30501
L64308 25049
" />
<path d="M123030 27942
L123030 26899
" />
<path d="M64308 25049
L69761 25049
" />
<path d="M122706 27942
L123030 27942
" />
<path d="M122027 30797
L122027 30411
" />
<path d="M92261 30501
L86808 30501
" />
<path d="M79308 30501
L79308 25049
" />
<path d="M86808 25049
L92261 25049
" />
<path d="M120786 30797
L122027 30797
" />
<path d="M112657 25627
L112657 25265
" />
<path d="M122706 30411
L122706 27942
" />
<path d="M112657 30797
L112657 30411
" />
<path d="M111416 25627
L110737 25627
" />
<path d="M69761 25049
L69761 30501
" />
<path d="M113336 30411
L113336 28651
" />
<path d="M113995 26899
L113336 26899
" />
<path d="M96011 38001
L90558 38001
" />
<path d="M122706 26899
L122706 25627
" />
<path d="M105558 32549
L111011 32549
" />
<path d="M111011 32549
L111011 38001
" />
<path d="M113336 28651
L113995 28651
" />
<path d="M98058 32549
L103511 32549
" />
<path d="M111416 30411
L111416 30797
" />
<path d="M113995 25049
L113995 26899
" />
<path d="M113995 28651
L113995 30501
" />
<path d="M123030 26899
L122706 26899
" />
<path d="M83058 38001
L83058 32549
" />
<path d="M68058 32549
L73511 32549
" />
<path d="M120786 30411
L120786 30797
" />
<path d="M110413 27942
L110737 27942
" />
<path d="M113336 25627
L112657 25627
" />
<path d="M110737 26899
L110413 26899
" />
<path d="M122027 30411
L122706 30411
" />
<path d="M111416 30797
L112657 30797
" />
<path d="M111416 25265
L111416 25627
" />
<path d="M90558 32549
L96011 32549
" />
<path d="M98058 38001
L98058 32549
" />
<path d="M60558 32549
L66011 32549
" />
<path d="M103511 32549
L103511 38001
" />
<path d="M112657 30411
L113336 30411
" />
<path d="M121323 38001
L115871 38001
" />
<path d="M113995 30501
L119448 30501
" />
<path d="M110737 25627
L110737 26899
" />
<path d="M110413 26899
L110413 27942
" />
<path d="M110737 27942
L110737 30411
" />
<path d="M60558 38001
L60558 32549
" />
<path d="M6705 8996
L65151 8996
" />
<path d="M6183 32549
L11636 32549
" />
<path d="M27081 35442
L27406 35442
" />
<path d="M43511 32549
L43511 38001
" />
<path d="M26402 37911
L27081 37911
" />
<path d="M24483 34399
L23823 34399
" />
<path d="M23823 32549
L18371 32549
" />
<path d="M58511 38001
L53058 38001
" />
<path d="M11636 32549
L11636 38001
" />
<path d="M26402 33127
L26402 32765
" />
<path d="M11636 38001
L6183 38001
" />
<path d="M6183 38001
L6183 32549
" />
<path d="M38058 32549
L43511 32549
" />
<path d="M25162 33127
L24483 33127
" />
<path d="M27406 35442
L27406 34399
" />
<path d="M53058 32549
L58511 32549
" />
<path d="M53058 38001
L53058 32549
" />
<path d="M38058 38001
L38058 32549
" />
<path d="M30558 32549
L36011 32549
" />
<path d="M36011 32549
L36011 38001
" />
<path d="M36011 38001
L30558 38001
" />
<path d="M30558 38001
L30558 32549
" />
<path d="M32261 30501
L26808 30501
" />
<path d="M21948 30501
L16495 30501
" />
<path d="M62261 25049
L62261 30501
" />
<path d="M49308 30501
L49308 25049
" />
<path d="M21948 25049
L21948 30501
" />
<path d="M47261 25049
L47261 30501
" />
<path d="M39761 25049
L39761 30501
" />
<path d="M56808 30501
L56808 25049
" />
<path d="M54761 30501
L49308 30501
" />
<path d="M54761 25049
L54761 30501
" />
<path d="M41808 25049
L47261 25049
" />
<path d="M6183 25049
L11636 25049
" />
<path d="M62261 30501
L56808 30501
" />
<path d="M26808 30501
L26808 25049
" />
<path d="M56808 25049
L62261 25049
" />
<path d="M41808 30501
L41808 25049
" />
<path d="M47261 30501
L41808 30501
" />
<path d="M49308 25049
L54761 25049
" />
<path d="M32261 25049
L32261 30501
" />
<path d="M60386 17549
L60386 23001
" />
<path d="M16495 25049
L21948 25049
" />
<path d="M45386 17549
L45386 23001
" />
<path d="M37886 23001
L32433 23001
" />
<path d="M11636 17549
L11636 23001
" />
<path d="M34308 25049
L39761 25049
" />
<path d="M54933 17549
L60386 17549
" />
<path d="M52886 17549
L52886 23001
" />
<path d="M47433 23001
L47433 17549
" />
<path d="M60386 23001
L54933 23001
" />
<path d="M32433 23001
L32433 17549
" />
<path d="M24933 17549
L30386 17549
" />
<path d="M30386 17549
L30386 23001
" />
<path d="M21011 17549
L21011 23001
" />
<path d="M47433 17549
L52886 17549
" />
<path d="M15558 17549
L21011 17549
" />
<path d="M21011 23001
L15558 23001
" />
<path d="M24933 23001
L24933 17549
" />
<path d="M6183 30501
L6183 25049
" />
<path d="M37886 17549
L37886 23001
" />
<path d="M34308 30501
L34308 25049
" />
<path d="M26808 25049
L32261 25049
" />
<path d="M30386 23001
L24933 23001
" />
<path d="M32433 17549
L37886 17549
" />
<path d="M16495 30501
L16495 25049
" />
<path d="M54933 23001
L54933 17549
" />
<path d="M11636 25049
L11636 30501
" />
<path d="M45386 23001
L39933 23001
" />
<path d="M52886 23001
L47433 23001
" />
<path d="M39761 30501
L34308 30501
" />
<path d="M11636 30501
L6183 30501
" />
<path d="M6183 23001
L6183 17549
" />
<path d="M39933 17549
L45386 17549
" />
<path d="M15558 23001
L15558 17549
" />
<path d="M58683 10049
L64136 10049
" />
<path d="M11636 23001
L6183 23001
" />
<path d="M6183 17549
L11636 17549
" />
<path d="M64136 10049
L64136 15501
" />
<path d="M39933 23001
L39933 17549
" />
<path d="M11636 10049
L11636 15501
" />
<path d="M28683 15501
L28683 10049
" />
<path d="M36183 15501
L36183 10049
" />
<path d="M6183 10049
L11636 10049
" />
<path d="M26636 15501
L21183 15501
" />
<path d="M26636 10049
L26636 15501
" />
<path d="M56636 15501
L51183 15501
" />
<path d="M58683 15501
L58683 10049
" />
<path d="M21183 15501
L21183 10049
" />
<path d="M6183 15501
L6183 10049
" />
<path d="M34136 15501
L28683 15501
" />
<path d="M49136 15501
L43683 15501
" />
<path d="M49136 10049
L49136 15501
" />
<path d="M41636 15501
L36183 15501
" />
<path d="M56636 10049
L56636 15501
" />
<path d="M28683 10049
L34136 10049
" />
<path d="M34136 10049
L34136 15501
" />
<path d="M43683 15501
L43683 10049
" />
<path d="M41636 10049
L41636 15501
" />
<path d="M19136 15501
L13683 15501
" />
<path d="M51183 10049
L56636 10049
" />
<path d="M21183 10049
L26636 10049
" />
<path d="M13683 15501
L13683 10049
" />
<path d="M13683 10049
L19136 10049
" />
<path d="M36183 10049
L41636 10049
" />
<path d="M51183 15501
L51183 10049
" />
<path d="M11636 15501
L6183 15501
" />
<path d="M43683 10049
L49136 10049
" />
<path d="M19136 10049
L19136 15501
" />
<path d="M64136 15501
L58683 15501
" />
<path d="M42041 45411
L42041 45797
" />
<path d="M43961 43651
L44621 43651
" />
<path d="M51412 45411
L51412 45797
" />
<path d="M52652 45411
L53331 45411
" />
<path d="M50733 43651
L50733 45411
" />
<path d="M53656 41899
L53331 41899
" />
<path d="M44621 41899
L43961 41899
" />
<path d="M50733 45411
L51412 45411
" />
<path d="M52652 45797
L52652 45411
" />
<path d="M42041 40265
L42041 40627
" />
<path d="M50073 41899
L50073 40049
" />
<path d="M44621 40049
L44621 41899
" />
<path d="M53331 41899
L53331 40627
" />
<path d="M44621 45501
L50073 45501
" />
<path d="M43282 45411
L43961 45411
" />
<path d="M43282 40627
L43282 40265
" />
<path d="M50073 40049
L44621 40049
" />
<path d="M42041 45797
L43282 45797
" />
<path d="M41038 41899
L41038 42942
" />
<path d="M51412 40627
L50733 40627
" />
<path d="M52652 40265
L51412 40265
" />
<path d="M42041 40627
L41363 40627
" />
<path d="M50073 45501
L50073 43651
" />
<path d="M50733 40627
L50733 41899
" />
<path d="M53331 45411
L53331 42942
" />
<path d="M43282 45797
L43282 45411
" />
<path d="M51412 40265
L51412 40627
" />
<path d="M53331 42942
L53656 42942
" />
<path d="M41363 45411
L42041 45411
" />
<path d="M43961 40627
L43282 40627
" />
<path d="M51412 45797
L52652 45797
" />
<path d="M41363 40627
L41363 41899
" />
<path d="M50733 41899
L50073 41899
" />
<path d="M50073 43651
L50733 43651
" />
<path d="M52652 40627
L52652 40265
" />
<path d="M41363 42942
L41363 45411
" />
<path d="M27081 34399
L27081 33127
" />
<path d="M26402 32765
L25162 32765
" />
<path d="M25162 32765
L25162 33127
" />
<path d="M45558 32549
L51011 32549
" />
<path d="M58511 32549
L58511 38001
" />
<path d="M24483 33127
L24483 34399
" />
<path d="M51011 32549
L51011 38001
" />
<path d="M51011 38001
L45558 38001
" />
<path d="M45558 38001
L45558 32549
" />
<path d="M23823 34399
L23823 32549
" />
<path d="M43511 38001
L38058 38001
" />
<path d="M27081 33127
L26402 33127
" />
<path d="M27081 37911
L27081 35442
" />
<path d="M27406 34399
L27081 34399
" />
<path d="M5882 46323
L5779 46254
" />
<path d="M12717 17410
L12718 17371
" />
<path d="M12718 17371
L12721 17333
" />
<path d="M12721 17333
L12726 17298
" />
<path d="M12726 17298
L12732 17263
" />
<path d="M12732 17263
L12739 17229
" />
<path d="M12739 17229
L12747 17197
" />
<path d="M12747 17197
L12757 17166
" />
<path d="M12757 17166
L12768 17137
" />
<path d="M12768 17137
L12779 17109
" />
<path d="M12779 17109
L12792 17081
" />
<path d="M12792 17081
L12805 17055
" />
<path d="M12805 17055
L12819 17029
" />
<path d="M12819 17029
L12834 17003
" />
<path d="M12834 17003
L12850 16979
" />
<path d="M12850 16979
L12866 16956
" />
<path d="M12866 16956
L12884 16933
" />
<path d="M12884 16933
L12902 16911
" />
<path d="M12902 16911
L12920 16890
" />
<path d="M12920 16890
L12940 16870
" />
<path d="M12940 16870
L12960 16850
" />
<path d="M12960 16850
L12981 16831
" />
<path d="M12981 16831
L13003 16813
" />
<path d="M13003 16813
L13026 16795
" />
<path d="M13026 16795
L13049 16778
" />
<path d="M13049 16778
L13073 16763
" />
<path d="M13073 16763
L13097 16748
" />
<path d="M13097 16748
L13101 16745
" />
<path d="M61402 23603
L61404 23641
" />
<path d="M61404 23641
L61408 23676
" />
<path d="M61408 23676
L61416 23708
" />
<path d="M61416 23708
L61426 23739
" />
<path d="M61426 23739
L61437 23767
" />
<path d="M61437 23767
L61451 23793
" />
<path d="M61451 23793
L61466 23818
" />
<path d="M61466 23818
L61482 23842
" />
<path d="M61482 23842
L61500 23863
" />
<path d="M61500 23863
L61519 23884
" />
<path d="M61519 23884
L61540 23903
" />
<path d="M61540 23903
L61562 23920
" />
<path d="M61562 23920
L61586 23936
" />
<path d="M61586 23936
L61611 23951
" />
<path d="M61611 23951
L61638 23964
" />
<path d="M61638 23964
L61667 23975
" />
<path d="M61667 23975
L61697 23985
" />
<path d="M61697 23985
L61730 23992
" />
<path d="M61730 23992
L61765 23996
" />
<path d="M61765 23996
L61795 23997
" />
<path d="M57422 15675
L57448 15661
" />
<path d="M57448 15661
L57475 15648
" />
<path d="M57475 15648
L57503 15636
" />
<path d="M57503 15636
L57533 15625
" />
<path d="M57533 15625
L57563 15615
" />
<path d="M57563 15615
L57595 15607
" />
<path d="M57595 15607
L57629 15600
" />
<path d="M57629 15600
L57666 15595
" />
<path d="M57666 15595
L57703 15592
" />
<path d="M57703 15592
L57742 15591
" />
<path d="M57742 15591
L57783 15592
" />
<path d="M57783 15592
L57819 15596
" />
<path d="M57819 15596
L57853 15602
" />
<path d="M57853 15602
L57886 15609
" />
<path d="M57886 15609
L57923 15619
" />
<path d="M57923 15619
L57953 15629
" />
<path d="M57953 15629
L57981 15640
" />
<path d="M57981 15640
L58008 15652
" />
<path d="M58008 15652
L58035 15666
" />
<path d="M58035 15666
L58052 15675
" />
<path d="M6705 46555
L6581 46550
" />
<path d="M57651 46555
L6705 46555
" />
<path d="M58052 16766
L58026 16780
" />
<path d="M58026 16780
L57999 16793
" />
<path d="M57999 16793
L57971 16806
" />
<path d="M57971 16806
L57942 16816
" />
<path d="M57942 16816
L57910 16827
" />
<path d="M57910 16827
L57878 16835
" />
<path d="M57878 16835
L57845 16841
" />
<path d="M57845 16841
L57810 16846
" />
<path d="M57810 16846
L57774 16850
" />
<path d="M57774 16850
L57735 16851
" />
<path d="M57735 16851
L57696 16849
" />
<path d="M57696 16849
L57659 16846
" />
<path d="M57659 16846
L57624 16840
" />
<path d="M57624 16840
L57591 16834
" />
<path d="M57591 16834
L57560 16825
" />
<path d="M57560 16825
L57529 16816
" />
<path d="M57529 16816
L57500 16805
" />
<path d="M57500 16805
L57472 16792
" />
<path d="M57472 16792
L57445 16779
" />
<path d="M57445 16779
L57422 16766
" />
<path d="M58367 16221
L58367 16221
" />
<path d="M5507 46003
L5430 45906
" />
<path d="M5591 46094
L5507 46003
" />
<path d="M59132 38998
L59172 38996
" />
<path d="M59172 38996
L59206 38991
" />
<path d="M59206 38991
L59239 38984
" />
<path d="M59239 38984
L59269 38974
" />
<path d="M59269 38974
L59297 38962
" />
<path d="M59297 38962
L59323 38949
" />
<path d="M59323 38949
L59349 38933
" />
<path d="M59349 38933
L59372 38917
" />
<path d="M59372 38917
L59394 38899
" />
<path d="M59394 38899
L59414 38879
" />
<path d="M59414 38879
L59433 38859
" />
<path d="M59433 38859
L59452 38835
" />
<path d="M59452 38835
L59468 38810
" />
<path d="M59468 38810
L59483 38784
" />
<path d="M59483 38784
L59495 38757
" />
<path d="M59495 38757
L59506 38729
" />
<path d="M59506 38729
L59515 38697
" />
<path d="M59515 38697
L59522 38664
" />
<path d="M59522 38664
L59525 38628
" />
<path d="M59525 38628
L59526 38604
" />
<path d="M57107 16221
L57108 16182
" />
<path d="M57108 16182
L57112 16146
" />
<path d="M57112 16146
L57117 16111
" />
<path d="M57117 16111
L57124 16077
" />
<path d="M57124 16077
L57132 16045
" />
<path d="M57132 16045
L57142 16015
" />
<path d="M57142 16015
L57152 15986
" />
<path d="M57152 15986
L57164 15958
" />
<path d="M57164 15958
L57177 15932
" />
<path d="M57177 15932
L57192 15906
" />
<path d="M57192 15906
L57207 15881
" />
<path d="M57207 15881
L57223 15857
" />
<path d="M57223 15857
L57239 15835
" />
<path d="M57239 15835
L57257 15812
" />
<path d="M57257 15812
L57276 15791
" />
<path d="M57276 15791
L57296 15771
" />
<path d="M57296 15771
L57317 15751
" />
<path d="M57317 15751
L57338 15733
" />
<path d="M57338 15733
L57360 15716
" />
<path d="M57360 15716
L57386 15698
" />
<path d="M57386 15698
L57411 15682
" />
<path d="M57411 15682
L57422 15675
" />
<path d="M13869 16745
L13894 16760
" />
<path d="M13894 16760
L13918 16776
" />
<path d="M13918 16776
L13941 16793
" />
<path d="M13941 16793
L13964 16810
" />
<path d="M13964 16810
L13986 16828
" />
<path d="M13986 16828
L14008 16848
" />
<path d="M14008 16848
L14028 16868
" />
<path d="M14028 16868
L14048 16888
" />
<path d="M14048 16888
L14067 16910
" />
<path d="M14067 16910
L14085 16932
" />
<path d="M14085 16932
L14102 16954
" />
<path d="M14102 16954
L14119 16977
" />
<path d="M14119 16977
L14135 17001
" />
<path d="M14135 17001
L14152 17029
" />
<path d="M14152 17029
L14166 17056
" />
<path d="M14166 17056
L14180 17083
" />
<path d="M14180 17083
L14192 17111
" />
<path d="M14192 17111
L14204 17140
" />
<path d="M14204 17140
L14214 17169
" />
<path d="M14214 17169
L14223 17200
" />
<path d="M14223 17200
L14232 17231
" />
<path d="M14232 17231
L14239 17265
" />
<path d="M14239 17265
L14245 17299
" />
<path d="M14245 17299
L14249 17336
" />
<path d="M14249 17336
L14252 17374
" />
<path d="M14252 17374
L14253 17410
" />
<path d="M6459 46536
L6337 46512
" />
<path d="M6337 46512
L6218 46478
" />
<path d="M13101 18075
L13075 18060
" />
<path d="M13075 18060
L13051 18044
" />
<path d="M13051 18044
L13028 18027
" />
<path d="M13028 18027
L13003 18007
" />
<path d="M13003 18007
L12981 17989
" />
<path d="M12981 17989
L12960 17971
" />
<path d="M12960 17971
L12940 17951
" />
<path d="M12940 17951
L12920 17930
" />
<path d="M12920 17930
L12901 17909
" />
<path d="M12901 17909
L12883 17887
" />
<path d="M12883 17887
L12866 17864
" />
<path d="M12866 17864
L12850 17841
" />
<path d="M12850 17841
L12834 17817
" />
<path d="M12834 17817
L12819 17792
" />
<path d="M12819 17792
L12805 17767
" />
<path d="M12805 17767
L12792 17740
" />
<path d="M12792 17740
L12778 17710
" />
<path d="M12778 17710
L12767 17682
" />
<path d="M12767 17682
L12757 17653
" />
<path d="M12757 17653
L12747 17622
" />
<path d="M12747 17622
L12739 17590
" />
<path d="M12739 17590
L12732 17557
" />
<path d="M12732 17557
L12726 17523
" />
<path d="M12726 17523
L12721 17488
" />
<path d="M12721 17488
L12718 17451
" />
<path d="M12718 17451
L12717 17412
" />
<path d="M12717 17412
L12717 17410
" />
<path d="M6581 46550
L6459 46536
" />
<path d="M5990 46383
L5882 46323
" />
<path d="M63276 24391
L63274 24353
" />
<path d="M63274 24353
L63269 24317
" />
<path d="M63269 24317
L63262 24285
" />
<path d="M63262 24285
L63252 24254
" />
<path d="M63252 24254
L63240 24226
" />
<path d="M63240 24226
L63227 24200
" />
<path d="M63227 24200
L63211 24174
" />
<path d="M63211 24174
L63195 24151
" />
<path d="M63195 24151
L63176 24129
" />
<path d="M63176 24129
L63157 24109
" />
<path d="M63157 24109
L63136 24090
" />
<path d="M63136 24090
L63114 24072
" />
<path d="M63114 24072
L63090 24056
" />
<path d="M63090 24056
L63065 24042
" />
<path d="M63065 24042
L63038 24029
" />
<path d="M63038 24029
L63008 24018
" />
<path d="M63008 24018
L62977 24008
" />
<path d="M62977 24008
L62944 24002
" />
<path d="M62944 24002
L62908 23998
" />
<path d="M62908 23998
L62882 23997
" />
<path d="M13101 16745
L13127 16731
" />
<path d="M13127 16731
L13153 16718
" />
<path d="M13153 16718
L13181 16705
" />
<path d="M13181 16705
L13210 16693
" />
<path d="M13210 16693
L13240 16683
" />
<path d="M13240 16683
L13269 16673
" />
<path d="M13269 16673
L13301 16665
" />
<path d="M13301 16665
L13334 16658
" />
<path d="M13334 16658
L13369 16651
" />
<path d="M13369 16651
L13405 16647
" />
<path d="M13405 16647
L13442 16644
" />
<path d="M13442 16644
L13482 16643
" />
<path d="M13482 16643
L13520 16643
" />
<path d="M13520 16643
L13557 16646
" />
<path d="M13557 16646
L13595 16650
" />
<path d="M13595 16650
L13629 16656
" />
<path d="M13629 16656
L13662 16663
" />
<path d="M13662 16663
L13694 16671
" />
<path d="M13694 16671
L13725 16681
" />
<path d="M13725 16681
L13755 16691
" />
<path d="M13755 16691
L13783 16703
" />
<path d="M13783 16703
L13811 16715
" />
<path d="M13811 16715
L13837 16728
" />
<path d="M13837 16728
L13865 16743
" />
<path d="M13865 16743
L13869 16745
" />
<path d="M13869 18075
L13843 18089
" />
<path d="M13843 18089
L13817 18102
" />
<path d="M13817 18102
L13790 18115
" />
<path d="M13790 18115
L13761 18127
" />
<path d="M13761 18127
L13731 18138
" />
<path d="M13731 18138
L13700 18147
" />
<path d="M13700 18147
L13669 18156
" />
<path d="M13669 18156
L13636 18163
" />
<path d="M13636 18163
L13602 18169
" />
<path d="M13602 18169
L13565 18174
" />
<path d="M13565 18174
L13528 18177
" />
<path d="M13528 18177
L13489 18178
" />
<path d="M13489 18178
L13448 18177
" />
<path d="M13448 18177
L13410 18174
" />
<path d="M13410 18174
L13375 18170
" />
<path d="M13375 18170
L13341 18164
" />
<path d="M13341 18164
L13308 18157
" />
<path d="M13308 18157
L13276 18149
" />
<path d="M13276 18149
L13246 18140
" />
<path d="M13246 18140
L13216 18129
" />
<path d="M13216 18129
L13187 18118
" />
<path d="M13187 18118
L13160 18106
" />
<path d="M13160 18106
L13133 18092
" />
<path d="M13133 18092
L13106 18078
" />
<path d="M13106 18078
L13101 18075
" />
<path d="M61795 16498
L61757 16500
" />
<path d="M61757 16500
L61722 16505
" />
<path d="M61722 16505
L61690 16512
" />
<path d="M61690 16512
L61661 16522
" />
<path d="M61661 16522
L61633 16533
" />
<path d="M61633 16533
L61605 16547
" />
<path d="M61605 16547
L61581 16562
" />
<path d="M61581 16562
L61557 16578
" />
<path d="M61557 16578
L61535 16596
" />
<path d="M61535 16596
L61515 16615
" />
<path d="M61515 16615
L61496 16636
" />
<path d="M61496 16636
L61478 16658
" />
<path d="M61478 16658
L61462 16682
" />
<path d="M61462 16682
L61448 16707
" />
<path d="M61448 16707
L61434 16735
" />
<path d="M61434 16735
L61423 16764
" />
<path d="M61423 16764
L61414 16794
" />
<path d="M61414 16794
L61407 16827
" />
<path d="M61407 16827
L61403 16865
" />
<path d="M61403 16865
L61402 16892
" />
<path d="M58367 16221
L58366 16259
" />
<path d="M58366 16259
L58363 16296
" />
<path d="M58363 16296
L58357 16330
" />
<path d="M58357 16330
L58351 16363
" />
<path d="M58351 16363
L58342 16395
" />
<path d="M58342 16395
L58333 16425
" />
<path d="M58333 16425
L58322 16454
" />
<path d="M58322 16454
L58310 16482
" />
<path d="M58310 16482
L58297 16509
" />
<path d="M58297 16509
L58283 16535
" />
<path d="M58283 16535
L58268 16559
" />
<path d="M58268 16559
L58252 16584
" />
<path d="M58252 16584
L58235 16607
" />
<path d="M58235 16607
L58217 16629
" />
<path d="M58217 16629
L58198 16650
" />
<path d="M58198 16650
L58179 16670
" />
<path d="M58179 16670
L58158 16689
" />
<path d="M58158 16689
L58135 16709
" />
<path d="M58135 16709
L58112 16727
" />
<path d="M58112 16727
L58088 16744
" />
<path d="M58088 16744
L58064 16759
" />
<path d="M58064 16759
L58052 16766
" />
<path d="M14253 17410
L14253 17410
" />
<path d="M58045 38998
L58007 39000
" />
<path d="M58007 39000
L57972 39005
" />
<path d="M57972 39005
L57940 39012
" />
<path d="M57940 39012
L57911 39022
" />
<path d="M57911 39022
L57883 39033
" />
<path d="M57883 39033
L57855 39047
" />
<path d="M57855 39047
L57831 39062
" />
<path d="M57831 39062
L57807 39078
" />
<path d="M57807 39078
L57785 39096
" />
<path d="M57785 39096
L57765 39115
" />
<path d="M57765 39115
L57746 39136
" />
<path d="M57746 39136
L57728 39158
" />
<path d="M57728 39158
L57712 39182
" />
<path d="M57712 39182
L57698 39207
" />
<path d="M57698 39207
L57684 39235
" />
<path d="M57684 39235
L57673 39264
" />
<path d="M57673 39264
L57664 39294
" />
<path d="M57664 39294
L57657 39327
" />
<path d="M57657 39327
L57653 39365
" />
<path d="M57653 39365
L57652 39392
" />
<path d="M14253 17410
L14252 17449
" />
<path d="M14252 17449
L14249 17487
" />
<path d="M14249 17487
L14245 17522
" />
<path d="M14245 17522
L14239 17557
" />
<path d="M14239 17557
L14231 17590
" />
<path d="M14231 17590
L14223 17621
" />
<path d="M14223 17621
L14214 17652
" />
<path d="M14214 17652
L14203 17681
" />
<path d="M14203 17681
L14192 17710
" />
<path d="M14192 17710
L14179 17739
" />
<path d="M14179 17739
L14166 17765
" />
<path d="M14166 17765
L14152 17791
" />
<path d="M14152 17791
L14136 17817
" />
<path d="M14136 17817
L14120 17841
" />
<path d="M14120 17841
L14104 17865
" />
<path d="M14104 17865
L14086 17888
" />
<path d="M14086 17888
L14069 17909
" />
<path d="M14069 17909
L14050 17930
" />
<path d="M14050 17930
L14030 17951
" />
<path d="M14030 17951
L14010 17971
" />
<path d="M14010 17971
L13989 17990
" />
<path d="M13989 17990
L13967 18008
" />
<path d="M13967 18008
L13945 18025
" />
<path d="M13945 18025
L13921 18042
" />
<path d="M13921 18042
L13897 18058
" />
<path d="M13897 18058
L13871 18074
" />
<path d="M13871 18074
L13869 18075
" />
<path d="M6102 46436
L5990 46383
" />
<path d="M62882 31498
L62922 31496
" />
<path d="M62922 31496
L62956 31491
" />
<path d="M62956 31491
L62989 31484
" />
<path d="M62989 31484
L63019 31474
" />
<path d="M63019 31474
L63047 31462
" />
<path d="M63047 31462
L63073 31449
" />
<path d="M63073 31449
L63099 31433
" />
<path d="M63099 31433
L63122 31417
" />
<path d="M63122 31417
L63144 31399
" />
<path d="M63144 31399
L63164 31379
" />
<path d="M63164 31379
L63183 31359
" />
<path d="M63183 31359
L63202 31335
" />
<path d="M63202 31335
L63218 31310
" />
<path d="M63218 31310
L63233 31284
" />
<path d="M63233 31284
L63245 31257
" />
<path d="M63245 31257
L63256 31229
" />
<path d="M63256 31229
L63265 31197
" />
<path d="M63265 31197
L63272 31164
" />
<path d="M63272 31164
L63275 31128
" />
<path d="M63275 31128
L63276 31104
" />
<path d="M59920 31498
L59882 31500
" />
<path d="M59882 31500
L59847 31505
" />
<path d="M59847 31505
L59815 31512
" />
<path d="M59815 31512
L59785 31522
" />
<path d="M59785 31522
L59757 31533
" />
<path d="M59757 31533
L59730 31547
" />
<path d="M59730 31547
L59705 31562
" />
<path d="M59705 31562
L59682 31578
" />
<path d="M59682 31578
L59660 31596
" />
<path d="M59660 31596
L59639 31615
" />
<path d="M59639 31615
L59620 31636
" />
<path d="M59620 31636
L59603 31658
" />
<path d="M59603 31658
L59587 31682
" />
<path d="M59587 31682
L59572 31707
" />
<path d="M59572 31707
L59558 31735
" />
<path d="M59558 31735
L59547 31764
" />
<path d="M59547 31764
L59538 31794
" />
<path d="M59538 31794
L59531 31827
" />
<path d="M59531 31827
L59527 31865
" />
<path d="M59527 31865
L59526 31892
" />
<path d="M57422 16766
L57397 16751
" />
<path d="M57397 16751
L57372 16734
" />
<path d="M57372 16734
L57348 16716
" />
<path d="M57348 16716
L57326 16698
" />
<path d="M57326 16698
L57305 16679
" />
<path d="M57305 16679
L57284 16659
" />
<path d="M57284 16659
L57265 16638
" />
<path d="M57265 16638
L57247 16616
" />
<path d="M57247 16616
L57230 16594
" />
<path d="M57230 16594
L57213 16571
" />
<path d="M57213 16571
L57198 16546
" />
<path d="M57198 16546
L57183 16520
" />
<path d="M57183 16520
L57170 16494
" />
<path d="M57170 16494
L57157 16467
" />
<path d="M57157 16467
L57146 16439
" />
<path d="M57146 16439
L57136 16409
" />
<path d="M57136 16409
L57127 16378
" />
<path d="M57127 16378
L57120 16346
" />
<path d="M57120 16346
L57114 16312
" />
<path d="M57114 16312
L57110 16277
" />
<path d="M57110 16277
L57107 16240
" />
<path d="M57107 16240
L57107 16221
" />
<path d="M64758 16498
L64797 16496
" />
<path d="M64797 16496
L64832 16491
" />
<path d="M64832 16491
L64864 16484
" />
<path d="M64864 16484
L64894 16474
" />
<path d="M64894 16474
L64922 16462
" />
<path d="M64922 16462
L64949 16449
" />
<path d="M64949 16449
L64974 16433
" />
<path d="M64974 16433
L64998 16417
" />
<path d="M64998 16417
L65019 16399
" />
<path d="M65019 16399
L65040 16379
" />
<path d="M65040 16379
L65059 16359
" />
<path d="M65059 16359
L65077 16335
" />
<path d="M65077 16335
L65094 16310
" />
<path d="M65094 16310
L65108 16284
" />
<path d="M65108 16284
L65121 16257
" />
<path d="M65121 16257
L65132 16229
" />
<path d="M65132 16229
L65141 16197
" />
<path d="M65141 16197
L65147 16164
" />
<path d="M65147 16164
L65151 16128
" />
<path d="M65151 16128
L65152 16104
" />
<path d="M58052 15675
L58077 15690
" />
<path d="M58077 15690
L58101 15707
" />
<path d="M58101 15707
L58125 15724
" />
<path d="M58125 15724
L58147 15742
" />
<path d="M58147 15742
L58168 15761
" />
<path d="M58168 15761
L58189 15782
" />
<path d="M58189 15782
L58208 15802
" />
<path d="M58208 15802
L58226 15824
" />
<path d="M58226 15824
L58243 15846
" />
<path d="M58243 15846
L58260 15870
" />
<path d="M58260 15870
L58276 15894
" />
<path d="M58276 15894
L58291 15921
" />
<path d="M58291 15921
L58304 15947
" />
<path d="M58304 15947
L58317 15974
" />
<path d="M58317 15974
L58328 16003
" />
<path d="M58328 16003
L58338 16033
" />
<path d="M58338 16033
L58347 16065
" />
<path d="M58347 16065
L58355 16101
" />
<path d="M58355 16101
L58361 16134
" />
<path d="M58361 16134
L58365 16170
" />
<path d="M58365 16170
L58367 16211
" />
<path d="M58367 16211
L58367 16221
" />
<path d="M53656 42942
L53656 41899
" />
<path d="M41038 42942
L41363 42942
" />
<path d="M11808 40049
L17261 40049
" />
<path d="M18371 36151
L18371 38001
" />
<path d="M35073 45501
L29621 45501
" />
<path d="M15113 34399
L14788 34399
" />
<path d="M14788 35442
L15113 35442
" />
<path d="M17711 33127
L17032 33127
" />
<path d="M18371 32549
L18371 34399
" />
<path d="M17711 34399
L17711 33127
" />
<path d="M15113 33127
L15113 34399
" />
<path d="M23823 36151
L24483 36151
" />
<path d="M25162 37911
L25162 38297
" />
<path d="M15791 38297
L17032 38297
" />
<path d="M29621 40049
L35073 40049
" />
<path d="M17032 32765
L15791 32765
" />
<path d="M15791 37911
L15791 38297
" />
<path d="M26402 38297
L26402 37911
" />
<path d="M17261 45501
L11808 45501
" />
<path d="M14788 34399
L14788 35442
" />
<path d="M15113 35442
L15113 37911
" />
<path d="M17032 37911
L17711 37911
" />
<path d="M24483 37911
L25162 37911
" />
<path d="M17032 38297
L17032 37911
" />
<path d="M15791 33127
L15113 33127
" />
<path d="M25162 38297
L26402 38297
" />
<path d="M18371 34399
L17711 34399
" />
<path d="M17711 36151
L18371 36151
" />
<path d="M25698 45501
L20245 45501
" />
<path d="M29621 45501
L29621 40049
" />
<path d="M15791 32765
L15791 33127
" />
<path d="M43961 41899
L43961 40627
" />
<path d="M20245 45501
L20245 40049
" />
<path d="M35073 40049
L35073 45501
" />
<path d="M17261 40049
L17261 45501
" />
<path d="M23823 38001
L23823 36151
" />
<path d="M18371 38001
L23823 38001
" />
<path d="M15113 37911
L15791 37911
" />
<path d="M11808 45501
L11808 40049
" />
<path d="M17711 37911
L17711 36151
" />
<path d="M24483 36151
L24483 37911
" />
<path d="M17032 33127
L17032 32765
" />
<path d="M20245 40049
L25698 40049
" />
<path d="M41363 41899
L41038 41899
" />
<path d="M44621 43651
L44621 45501
" />
<path d="M43282 40265
L42041 40265
" />
<path d="M43961 45411
L43961 43651
" />
<path d="M53331 40627
L52652 40627
" />
<path d="M56311 44587
L56311 44587
" />
<path d="M6715 45252
L6689 45237
" />
<path d="M6689 45237
L6665 45221
" />
<path d="M6665 45221
L6642 45204
" />
<path d="M6642 45204
L6616 45184
" />
<path d="M6616 45184
L6595 45166
" />
<path d="M6595 45166
L6574 45148
" />
<path d="M6574 45148
L6554 45128
" />
<path d="M6554 45128
L6534 45107
" />
<path d="M6534 45107
L6515 45086
" />
<path d="M6515 45086
L6497 45064
" />
<path d="M6497 45064
L6480 45042
" />
<path d="M6480 45042
L6464 45018
" />
<path d="M6464 45018
L6448 44994
" />
<path d="M6448 44994
L6433 44969
" />
<path d="M6433 44969
L6419 44944
" />
<path d="M6419 44944
L6406 44917
" />
<path d="M6406 44917
L6392 44887
" />
<path d="M6392 44887
L6381 44859
" />
<path d="M6381 44859
L6370 44830
" />
<path d="M6370 44830
L6361 44799
" />
<path d="M6361 44799
L6353 44767
" />
<path d="M6353 44767
L6345 44734
" />
<path d="M6345 44734
L6340 44700
" />
<path d="M6340 44700
L6335 44665
" />
<path d="M6335 44665
L6332 44628
" />
<path d="M6332 44628
L6331 44589
" />
<path d="M6331 44589
L6331 44587
" />
<path d="M58045 38998
L59132 38998
" />
<path d="M59526 38604
L59526 31891
" />
<path d="M62882 23996
L61795 23996
" />
<path d="M63276 31104
L63276 24390
" />
<path d="M65151 16104
L65151 8996
" />
<path d="M7867 44587
L7867 44587
" />
<path d="M7483 43922
L7508 43938
" />
<path d="M7508 43938
L7532 43953
" />
<path d="M7532 43953
L7555 43970
" />
<path d="M7555 43970
L7578 43987
" />
<path d="M7578 43987
L7600 44005
" />
<path d="M7600 44005
L7622 44025
" />
<path d="M7622 44025
L7642 44045
" />
<path d="M7642 44045
L7661 44065
" />
<path d="M7661 44065
L7681 44087
" />
<path d="M7681 44087
L7699 44109
" />
<path d="M7699 44109
L7716 44131
" />
<path d="M7716 44131
L7733 44154
" />
<path d="M7733 44154
L7749 44178
" />
<path d="M7749 44178
L7765 44206
" />
<path d="M7765 44206
L7780 44233
" />
<path d="M7780 44233
L7793 44260
" />
<path d="M7793 44260
L7806 44288
" />
<path d="M7806 44288
L7817 44317
" />
<path d="M7817 44317
L7828 44346
" />
<path d="M7828 44346
L7837 44377
" />
<path d="M7837 44377
L7845 44408
" />
<path d="M7845 44408
L7853 44442
" />
<path d="M7853 44442
L7858 44476
" />
<path d="M7858 44476
L7863 44514
" />
<path d="M7863 44514
L7866 44551
" />
<path d="M7866 44551
L7867 44587
" />
<path d="M6715 43922
L6740 43908
" />
<path d="M6740 43908
L6767 43895
" />
<path d="M6767 43895
L6794 43883
" />
<path d="M6794 43883
L6824 43871
" />
<path d="M6824 43871
L6853 43860
" />
<path d="M6853 43860
L6883 43850
" />
<path d="M6883 43850
L6915 43842
" />
<path d="M6915 43842
L6948 43835
" />
<path d="M6948 43835
L6983 43828
" />
<path d="M6983 43828
L7019 43824
" />
<path d="M7019 43824
L7056 43821
" />
<path d="M7056 43821
L7095 43820
" />
<path d="M7095 43820
L7134 43820
" />
<path d="M7134 43820
L7171 43823
" />
<path d="M7171 43823
L7209 43827
" />
<path d="M7209 43827
L7243 43833
" />
<path d="M7243 43833
L7276 43840
" />
<path d="M7276 43840
L7308 43848
" />
<path d="M7308 43848
L7339 43858
" />
<path d="M7339 43858
L7368 43868
" />
<path d="M7368 43868
L7397 43880
" />
<path d="M7397 43880
L7424 43892
" />
<path d="M7424 43892
L7451 43905
" />
<path d="M7451 43905
L7479 43920
" />
<path d="M7479 43920
L7483 43922
" />
<path d="M6331 44587
L6332 44548
" />
<path d="M6332 44548
L6335 44510
" />
<path d="M6335 44510
L6339 44475
" />
<path d="M6339 44475
L6345 44440
" />
<path d="M6345 44440
L6353 44406
" />
<path d="M6353 44406
L6361 44375
" />
<path d="M6361 44375
L6371 44343
" />
<path d="M6371 44343
L6382 44314
" />
<path d="M6382 44314
L6393 44286
" />
<path d="M6393 44286
L6405 44258
" />
<path d="M6405 44258
L6419 44232
" />
<path d="M6419 44232
L6433 44206
" />
<path d="M6433 44206
L6448 44180
" />
<path d="M6448 44180
L6464 44156
" />
<path d="M6464 44156
L6480 44133
" />
<path d="M6480 44133
L6498 44110
" />
<path d="M6498 44110
L6515 44088
" />
<path d="M6515 44088
L6534 44067
" />
<path d="M6534 44067
L6553 44047
" />
<path d="M6553 44047
L6574 44027
" />
<path d="M6574 44027
L6595 44008
" />
<path d="M6595 44008
L6617 43990
" />
<path d="M6617 43990
L6639 43972
" />
<path d="M6639 43972
L6663 43956
" />
<path d="M6663 43956
L6687 43940
" />
<path d="M6687 43940
L6711 43925
" />
<path d="M6711 43925
L6715 43922
" />
<path d="M41449 24272
L41448 24310
" />
<path d="M41448 24310
L41445 24347
" />
<path d="M41445 24347
L41440 24381
" />
<path d="M41440 24381
L41433 24414
" />
<path d="M41433 24414
L41425 24447
" />
<path d="M41425 24447
L41415 24476
" />
<path d="M41415 24476
L41404 24505
" />
<path d="M41404 24505
L41392 24533
" />
<path d="M41392 24533
L41379 24560
" />
<path d="M41379 24560
L41365 24586
" />
<path d="M41365 24586
L41350 24611
" />
<path d="M41350 24611
L41334 24635
" />
<path d="M41334 24635
L41317 24658
" />
<path d="M41317 24658
L41299 24680
" />
<path d="M41299 24680
L41281 24701
" />
<path d="M41281 24701
L41261 24721
" />
<path d="M41261 24721
L41240 24741
" />
<path d="M41240 24741
L41217 24760
" />
<path d="M41217 24760
L41194 24778
" />
<path d="M41194 24778
L41170 24795
" />
<path d="M41170 24795
L41146 24811
" />
<path d="M41146 24811
L41134 24818
" />
<path d="M55928 45252
L55902 45266
" />
<path d="M55902 45266
L55876 45280
" />
<path d="M55876 45280
L55848 45292
" />
<path d="M55848 45292
L55820 45304
" />
<path d="M55820 45304
L55789 45315
" />
<path d="M55789 45315
L55759 45324
" />
<path d="M55759 45324
L55728 45333
" />
<path d="M55728 45333
L55695 45340
" />
<path d="M55695 45340
L55661 45346
" />
<path d="M55661 45346
L55624 45351
" />
<path d="M55624 45351
L55587 45354
" />
<path d="M55587 45354
L55548 45355
" />
<path d="M55548 45355
L55507 45354
" />
<path d="M55507 45354
L55469 45351
" />
<path d="M55469 45351
L55433 45347
" />
<path d="M55433 45347
L55400 45341
" />
<path d="M55400 45341
L55367 45334
" />
<path d="M55367 45334
L55334 45326
" />
<path d="M55334 45326
L55304 45317
" />
<path d="M55304 45317
L55275 45306
" />
<path d="M55275 45306
L55246 45295
" />
<path d="M55246 45295
L55218 45283
" />
<path d="M55218 45283
L55191 45269
" />
<path d="M55191 45269
L55164 45255
" />
<path d="M55164 45255
L55160 45252
" />
<path d="M56311 44587
L56310 44626
" />
<path d="M56310 44626
L56308 44664
" />
<path d="M56308 44664
L56303 44700
" />
<path d="M56303 44700
L56297 44735
" />
<path d="M56297 44735
L56290 44767
" />
<path d="M56290 44767
L56282 44799
" />
<path d="M56282 44799
L56272 44829
" />
<path d="M56272 44829
L56262 44858
" />
<path d="M56262 44858
L56251 44887
" />
<path d="M56251 44887
L56238 44916
" />
<path d="M56238 44916
L56224 44942
" />
<path d="M56224 44942
L56210 44968
" />
<path d="M56210 44968
L56195 44994
" />
<path d="M56195 44994
L56179 45018
" />
<path d="M56179 45018
L56163 45042
" />
<path d="M56163 45042
L56145 45065
" />
<path d="M56145 45065
L56127 45086
" />
<path d="M56127 45086
L56109 45107
" />
<path d="M56109 45107
L56089 45128
" />
<path d="M56089 45128
L56068 45148
" />
<path d="M56068 45148
L56047 45167
" />
<path d="M56047 45167
L56026 45185
" />
<path d="M56026 45185
L56003 45202
" />
<path d="M56003 45202
L55980 45219
" />
<path d="M55980 45219
L55955 45235
" />
<path d="M55955 45235
L55930 45251
" />
<path d="M55930 45251
L55928 45252
" />
<path d="M55160 43922
L55185 43908
" />
<path d="M55185 43908
L55212 43895
" />
<path d="M55212 43895
L55239 43883
" />
<path d="M55239 43883
L55269 43871
" />
<path d="M55269 43871
L55298 43860
" />
<path d="M55298 43860
L55328 43850
" />
<path d="M55328 43850
L55360 43842
" />
<path d="M55360 43842
L55392 43835
" />
<path d="M55392 43835
L55428 43828
" />
<path d="M55428 43828
L55463 43824
" />
<path d="M55463 43824
L55501 43821
" />
<path d="M55501 43821
L55540 43820
" />
<path d="M55540 43820
L55579 43820
" />
<path d="M55579 43820
L55616 43823
" />
<path d="M55616 43823
L55653 43827
" />
<path d="M55653 43827
L55688 43833
" />
<path d="M55688 43833
L55721 43840
" />
<path d="M55721 43840
L55753 43848
" />
<path d="M55753 43848
L55784 43858
" />
<path d="M55784 43858
L55813 43868
" />
<path d="M55813 43868
L55842 43880
" />
<path d="M55842 43880
L55869 43892
" />
<path d="M55869 43892
L55896 43905
" />
<path d="M55896 43905
L55924 43920
" />
<path d="M55924 43920
L55928 43922
" />
<path d="M40189 24272
L40191 24234
" />
<path d="M40191 24234
L40194 24197
" />
<path d="M40194 24197
L40199 24163
" />
<path d="M40199 24163
L40206 24130
" />
<path d="M40206 24130
L40214 24098
" />
<path d="M40214 24098
L40224 24067
" />
<path d="M40224 24067
L40234 24039
" />
<path d="M40234 24039
L40246 24011
" />
<path d="M40246 24011
L40259 23984
" />
<path d="M40259 23984
L40273 23958
" />
<path d="M40273 23958
L40288 23933
" />
<path d="M40288 23933
L40304 23909
" />
<path d="M40304 23909
L40321 23886
" />
<path d="M40321 23886
L40339 23864
" />
<path d="M40339 23864
L40358 23843
" />
<path d="M40358 23843
L40378 23823
" />
<path d="M40378 23823
L40399 23803
" />
<path d="M40399 23803
L40421 23784
" />
<path d="M40421 23784
L40443 23767
" />
<path d="M40443 23767
L40468 23749
" />
<path d="M40468 23749
L40493 23733
" />
<path d="M40493 23733
L40504 23726
" />
<path d="M54776 44587
L54777 44548
" />
<path d="M54777 44548
L54780 44510
" />
<path d="M54780 44510
L54784 44475
" />
<path d="M54784 44475
L54790 44440
" />
<path d="M54790 44440
L54798 44406
" />
<path d="M54798 44406
L54806 44375
" />
<path d="M54806 44375
L54816 44343
" />
<path d="M54816 44343
L54826 44314
" />
<path d="M54826 44314
L54838 44286
" />
<path d="M54838 44286
L54850 44258
" />
<path d="M54850 44258
L54863 44232
" />
<path d="M54863 44232
L54878 44206
" />
<path d="M54878 44206
L54893 44180
" />
<path d="M54893 44180
L54909 44156
" />
<path d="M54909 44156
L54925 44133
" />
<path d="M54925 44133
L54942 44110
" />
<path d="M54942 44110
L54960 44088
" />
<path d="M54960 44088
L54979 44067
" />
<path d="M54979 44067
L54998 44047
" />
<path d="M54998 44047
L55018 44027
" />
<path d="M55018 44027
L55040 44008
" />
<path d="M55040 44008
L55062 43990
" />
<path d="M55062 43990
L55084 43972
" />
<path d="M55084 43972
L55108 43956
" />
<path d="M55108 43956
L55132 43940
" />
<path d="M55132 43940
L55156 43925
" />
<path d="M55156 43925
L55160 43922
" />
<path d="M41134 24818
L41109 24832
" />
<path d="M41109 24832
L41082 24845
" />
<path d="M41082 24845
L41054 24857
" />
<path d="M41054 24857
L41024 24868
" />
<path d="M41024 24868
L40992 24878
" />
<path d="M40992 24878
L40960 24886
" />
<path d="M40960 24886
L40927 24893
" />
<path d="M40927 24893
L40892 24898
" />
<path d="M40892 24898
L40856 24901
" />
<path d="M40856 24901
L40817 24902
" />
<path d="M40817 24902
L40778 24901
" />
<path d="M40778 24901
L40741 24897
" />
<path d="M40741 24897
L40706 24892
" />
<path d="M40706 24892
L40673 24885
" />
<path d="M40673 24885
L40642 24876
" />
<path d="M40642 24876
L40612 24867
" />
<path d="M40612 24867
L40583 24856
" />
<path d="M40583 24856
L40554 24843
" />
<path d="M40554 24843
L40528 24830
" />
<path d="M40528 24830
L40504 24818
" />
<path d="M7483 45252
L7457 45266
" />
<path d="M7457 45266
L7431 45280
" />
<path d="M7431 45280
L7403 45292
" />
<path d="M7403 45292
L7375 45304
" />
<path d="M7375 45304
L7344 45315
" />
<path d="M7344 45315
L7314 45324
" />
<path d="M7314 45324
L7283 45333
" />
<path d="M7283 45333
L7250 45340
" />
<path d="M7250 45340
L7216 45346
" />
<path d="M7216 45346
L7179 45351
" />
<path d="M7179 45351
L7142 45354
" />
<path d="M7142 45354
L7103 45355
" />
<path d="M7103 45355
L7062 45354
" />
<path d="M7062 45354
L7024 45351
" />
<path d="M7024 45351
L6989 45347
" />
<path d="M6989 45347
L6955 45341
" />
<path d="M6955 45341
L6922 45334
" />
<path d="M6922 45334
L6890 45326
" />
<path d="M6890 45326
L6859 45317
" />
<path d="M6859 45317
L6830 45306
" />
<path d="M6830 45306
L6801 45295
" />
<path d="M6801 45295
L6773 45283
" />
<path d="M6773 45283
L6747 45269
" />
<path d="M6747 45269
L6720 45255
" />
<path d="M6720 45255
L6715 45252
" />
<path d="M61795 16498
L64758 16498
" />
<path d="M57651 46555
L57651 39391
" />
<path d="M40504 24818
L40479 24802
" />
<path d="M40479 24802
L40454 24785
" />
<path d="M40454 24785
L40431 24768
" />
<path d="M40431 24768
L40408 24749
" />
<path d="M40408 24749
L40387 24730
" />
<path d="M40387 24730
L40366 24710
" />
<path d="M40366 24710
L40347 24689
" />
<path d="M40347 24689
L40329 24668
" />
<path d="M40329 24668
L40312 24645
" />
<path d="M40312 24645
L40296 24622
" />
<path d="M40296 24622
L40280 24597
" />
<path d="M40280 24597
L40265 24572
" />
<path d="M40265 24572
L40252 24546
" />
<path d="M40252 24546
L40240 24518
" />
<path d="M40240 24518
L40228 24490
" />
<path d="M40228 24490
L40218 24460
" />
<path d="M40218 24460
L40209 24429
" />
<path d="M40209 24429
L40202 24397
" />
<path d="M40202 24397
L40196 24363
" />
<path d="M40196 24363
L40192 24328
" />
<path d="M40192 24328
L40190 24291
" />
<path d="M40190 24291
L40189 24272
" />
<path d="M59919 31498
L62882 31498
" />
<path d="M55928 43922
L55953 43938
" />
<path d="M55953 43938
L55977 43953
" />
<path d="M55977 43953
L56000 43970
" />
<path d="M56000 43970
L56023 43987
" />
<path d="M56023 43987
L56044 44005
" />
<path d="M56044 44005
L56067 44025
" />
<path d="M56067 44025
L56087 44045
" />
<path d="M56087 44045
L56106 44065
" />
<path d="M56106 44065
L56126 44087
" />
<path d="M56126 44087
L56144 44109
" />
<path d="M56144 44109
L56161 44131
" />
<path d="M56161 44131
L56178 44154
" />
<path d="M56178 44154
L56194 44178
" />
<path d="M56194 44178
L56210 44206
" />
<path d="M56210 44206
L56225 44233
" />
<path d="M56225 44233
L56238 44260
" />
<path d="M56238 44260
L56251 44288
" />
<path d="M56251 44288
L56262 44317
" />
<path d="M56262 44317
L56273 44346
" />
<path d="M56273 44346
L56282 44377
" />
<path d="M56282 44377
L56290 44408
" />
<path d="M56290 44408
L56298 44442
" />
<path d="M56298 44442
L56303 44476
" />
<path d="M56303 44476
L56308 44514
" />
<path d="M56308 44514
L56311 44551
" />
<path d="M56311 44551
L56311 44587
" />
<path d="M55160 45252
L55134 45237
" />
<path d="M55134 45237
L55110 45221
" />
<path d="M55110 45221
L55086 45204
" />
<path d="M55086 45204
L55061 45184
" />
<path d="M55061 45184
L55040 45166
" />
<path d="M55040 45166
L55019 45148
" />
<path d="M55019 45148
L54999 45128
" />
<path d="M54999 45128
L54978 45107
" />
<path d="M54978 45107
L54960 45086
" />
<path d="M54960 45086
L54942 45064
" />
<path d="M54942 45064
L54925 45042
" />
<path d="M54925 45042
L54908 45018
" />
<path d="M54908 45018
L54893 44994
" />
<path d="M54893 44994
L54878 44969
" />
<path d="M54878 44969
L54864 44944
" />
<path d="M54864 44944
L54851 44917
" />
<path d="M54851 44917
L54837 44887
" />
<path d="M54837 44887
L54826 44859
" />
<path d="M54826 44859
L54815 44830
" />
<path d="M54815 44830
L54806 44799
" />
<path d="M54806 44799
L54797 44767
" />
<path d="M54797 44767
L54790 44734
" />
<path d="M54790 44734
L54784 44700
" />
<path d="M54784 44700
L54780 44665
" />
<path d="M54780 44665
L54777 44628
" />
<path d="M54777 44628
L54776 44589
" />
<path d="M54776 44589
L54776 44587
" />
<path d="M40504 23726
L40530 23712
" />
<path d="M40530 23712
L40557 23699
" />
<path d="M40557 23699
L40585 23687
" />
<path d="M40585 23687
L40615 23676
" />
<path d="M40615 23676
L40645 23667
" />
<path d="M40645 23667
L40678 23658
" />
<path d="M40678 23658
L40711 23651
" />
<path d="M40711 23651
L40748 23646
" />
<path d="M40748 23646
L40785 23643
" />
<path d="M40785 23643
L40824 23642
" />
<path d="M40824 23642
L40865 23644
" />
<path d="M40865 23644
L40901 23647
" />
<path d="M40901 23647
L40935 23653
" />
<path d="M40935 23653
L40968 23660
" />
<path d="M40968 23660
L41005 23670
" />
<path d="M41005 23670
L41035 23680
" />
<path d="M41035 23680
L41063 23691
" />
<path d="M41063 23691
L41091 23703
" />
<path d="M41091 23703
L41117 23717
" />
<path d="M41117 23717
L41134 23726
" />
<path d="M61401 23603
L61401 16891
" />
<path d="M41449 24272
L41449 24272
" />
<path d="M7867 44587
L7866 44626
" />
<path d="M7866 44626
L7863 44664
" />
<path d="M7863 44664
L7858 44700
" />
<path d="M7858 44700
L7852 44735
" />
<path d="M7852 44735
L7845 44767
" />
<path d="M7845 44767
L7837 44799
" />
<path d="M7837 44799
L7828 44829
" />
<path d="M7828 44829
L7817 44858
" />
<path d="M7817 44858
L7806 44887
" />
<path d="M7806 44887
L7793 44916
" />
<path d="M7793 44916
L7780 44942
" />
<path d="M7780 44942
L7766 44968
" />
<path d="M7766 44968
L7750 44994
" />
<path d="M7750 44994
L7734 45018
" />
<path d="M7734 45018
L7718 45042
" />
<path d="M7718 45042
L7700 45065
" />
<path d="M7700 45065
L7682 45086
" />
<path d="M7682 45086
L7664 45107
" />
<path d="M7664 45107
L7644 45128
" />
<path d="M7644 45128
L7624 45148
" />
<path d="M7624 45148
L7603 45167
" />
<path d="M7603 45167
L7581 45185
" />
<path d="M7581 45185
L7558 45202
" />
<path d="M7558 45202
L7535 45219
" />
<path d="M7535 45219
L7511 45235
" />
<path d="M7511 45235
L7485 45251
" />
<path d="M7485 45251
L7483 45252
" />
<path d="M41134 23726
L41159 23742
" />
<path d="M41159 23742
L41184 23758
" />
<path d="M41184 23758
L41207 23776
" />
<path d="M41207 23776
L41229 23794
" />
<path d="M41229 23794
L41250 23813
" />
<path d="M41250 23813
L41271 23833
" />
<path d="M41271 23833
L41290 23853
" />
<path d="M41290 23853
L41308 23875
" />
<path d="M41308 23875
L41326 23897
" />
<path d="M41326 23897
L41342 23921
" />
<path d="M41342 23921
L41358 23945
" />
<path d="M41358 23945
L41373 23972
" />
<path d="M41373 23972
L41386 23998
" />
<path d="M41386 23998
L41399 24025
" />
<path d="M41399 24025
L41410 24054
" />
<path d="M41410 24054
L41421 24085
" />
<path d="M41421 24085
L41430 24116
" />
<path d="M41430 24116
L41438 24152
" />
<path d="M41438 24152
L41443 24186
" />
<path d="M41443 24186
L41447 24221
" />
<path d="M41447 24221
L41449 24262
" />
<path d="M41449 24262
L41449 24272
" />
<path d="M25698 40049
L25698 45501
" />
<path d="M6218 9073
L6337 9039
" />
<path d="M6459 9015
L6581 9001
" />
<path d="M5250 45583
L5207 45467
" />
<path d="M5430 9645
L5507 9548
" />
<path d="M5130 44980
L5130 10571
" />
<path d="M6218 46478
L6102 46436
" />
<path d="M6337 9039
L6459 9015
" />
<path d="M5990 9167
L6102 9116
" />
<path d="M5149 10324
L5173 10203
" />
<path d="M5779 9296
L5882 9228
" />
<path d="M6102 9116
L6218 9073
" />
<path d="M5882 9228
L5990 9167
" />
<path d="M5207 45467
L5173 45348
" />
<path d="M5301 45695
L5250 45583
" />
<path d="M6581 9001
L6705 8996
" />
<path d="M5362 9748
L5430 9645
" />
<path d="M5207 10084
L5250 9968
" />
<path d="M5779 46254
L5682 46178
" />
<path d="M5250 9968
L5301 9856
" />
<path d="M5362 45803
L5301 45695
" />
<path d="M5682 46178
L5591 46094
" />
<path d="M5135 10447
L5149 10324
" />
<path d="M5149 45227
L5135 45104
" />
<path d="M5430 45906
L5362 45803
" />
<path d="M5591 9457
L5682 9373
" />
<path d="M5130 10571
L5135 10447
" />
<path d="M5301 9856
L5362 9748
" />
<path d="M5173 45348
L5149 45227
" />
<path d="M5682 9373
L5779 9296
" />
<path d="M5173 10203
L5207 10084
" />
<path d="M5135 45104
L5130 44980
" />
<path d="M5507 9548
L5591 9457
" />
<g >
</g>
</g>
<g style="fill:#000000; fill-opacity:0.0; 
stroke:#000000; stroke-width:39.3701; stroke-opacity:1; 
stroke-linecap:round; stroke-linejoin:round;">
</g>
<g style="fill:#C2C200; fill-opacity:0.0; 
stroke:#C2C200; stroke-width:39.3701; stroke-opacity:1; 
stroke-linecap:round; stroke-linejoin:round;">
<path d="M63283 23983
L61408 23983
" />
<path d="M65158 16485
L65158 7015
" />
<path d="M59533 31485
L63283 31485
" />
<path d="M57658 38985
L59533 38985
" />
<path d="M61408 23983
L61408 16485
" />
<path d="M57658 48511
L57658 38985
" />
<path d="M63283 31485
L63283 23983
" />
<path d="M61408 16485
L65158 16485
" />
<path d="M59533 38985
L59533 31485
" />
<path d="M3168 7015
L3168 48511
" />
<path d="M5796 9643
L64537 9643
" />
<path d="M11421 45882
L11421 38382
" />
<path d="M62662 24643
L60787 24643
" />
<path d="M60787 24643
L60787 15882
" />
<path d="M5796 38382
L5796 9643
" />
<path d="M60787 15882
L64537 15882
" />
<path d="M11421 38382
L5796 38382
" />
<path d="M40787 46220
L54133 46220
" />
<path d="M64537 15882
L64537 9643
" />
<path d="M40787 45882
L40787 46220
" />
<path d="M54133 46220
L54133 38382
" />
<path d="M3168 7015
L65158 7015
" />
<path d="M11421 45882
L40787 45882
" />
<path d="M62662 30882
L62662 24643
" />
<path d="M58912 38382
L58912 30882
" />
<path d="M58912 30882
L62662 30882
" />
<path d="M3168 48511
L57658 48511
" />
<path d="M54133 38382
L58912 38382
" />
<path d="M57658 48511
L127165 48511
" />
<path d="M121724 31178
L121724 38382
" />
<path d="M74681 45882
L118912 45882
" />
<path d="M60171 32143
L60171 38382
" />
<path d="M62046 23382
L62046 17143
" />
<path d="M74681 45882
L74681 46220
" />
<path d="M65796 17143
L65796 9643
" />
<path d="M118912 38382
L118912 45882
" />
<path d="M61079 38382
L61079 46220
" />
<path d="M63921 32143
L63921 23382
" />
<path d="M65158 7015
L127165 7015
" />
<path d="M65796 9643
L124370 9643
" />
<path d="M127165 48511
L127165 7015
" />
<path d="M121724 38382
L118912 38382
" />
<path d="M60171 32143
L63921 32143
" />
<path d="M124370 9643
L124370 31178
" />
<path d="M124370 31178
L121724 31178
" />
<path d="M63921 23382
L62046 23382
" />
<path d="M61079 46220
L74681 46220
" />
<path d="M62046 17143
L65796 17143
" />
<path d="M60171 38382
L61079 38382
" />
<path d="M59533 38985
L59533 31485
" />
<path d="M61408 16485
L65158 16485
" />
<path d="M63283 31485
L63283 23983
" />
<path d="M57658 48511
L57658 38985
" />
<path d="M61408 23983
L61408 16485
" />
<path d="M57658 38985
L59533 38985
" />
<path d="M59533 31485
L63283 31485
" />
<path d="M63283 23983
L61408 23983
" />
<path d="M65158 16485
L65158 7015
" />
<g >
</g>
</g> 
</svg>
