  0
SECTION
  2
HEADER
  9
$ANGBASE
  50
0.0
  9
$ANGDIR
  70
1
  9
$MEASUREMENT
  70
1
  0
ENDSEC
  0
SECTION
  2
TABLES
  0
TABLE
  2
LTYPE
  70
4
  0
LTYPE
  5
40F
  2
CONTINUOUS
  70
0
  3
Solid line
  72
65
  73
0
  40
0.0
  0
LTYPE
  5
410
  2
DASHDOT
 70
0
  3
Dash Dot ____ _ ____ _
 72
65
 73
4
 40
2.0
 49
1.25
 49
-0.25
 49
0.25
 49
-0.25
  0
LTYPE
  5
411
  2
DASHED
 70
0
  3
Dashed __ __ __ __ __
 72
65
 73
2
 40
0.75
 49
0.5
 49
-0.25
  0
LTYPE
  5
43B
  2
DOTTED
 70
0
  3
Dotted .  .  .  .
 72
65
 73
2
 40
0.2
 49
0.0
 49
-0.2
  0
ENDTAB
  0
TABLE
  2
STYLE
  70
4
  0
STYLE
  2
KICAD
  70
0
  40
0
  41
1
  42
1
  50
0
  71
0
  3
isocp.shx
  0
STYLE
  2
KICADB
  70
0
  40
0
  41
1
  42
1
  50
0
  71
0
  3
isocp.shx
  0
STYLE
  2
KICADI
  70
0
  40
0
  41
1
  42
1
  50
15
  71
0
  3
isocp.shx
  0
STYLE
  2
KICADBI
  70
0
  40
0
  41
1
  42
1
  50
15
  71
0
  3
isocp.shx
  0
ENDTAB
  0
TABLE
  2
LAYER
  70
1
  0
LAYER
  2
BLACK
  70
0
  62
7
  6
CONTINUOUS
  0
ENDTAB
  0
ENDSEC
  0
SECTION
  2
ENTITIES
0
ARC
8
BLACK
10
295
20
-14
40
1
50
-90
51
-0
0
ARC
8
BLACK
10
283
20
-14
40
1
50
-180
51
-90
0
ARC
8
BLACK
10
187
20
-14
40
1
50
-90
51
-0
0
ARC
8
BLACK
10
175
20
-14
40
1
50
-180
51
-90
0
ARC
8
BLACK
10
139
20
-14
40
1
50
-90
51
-0
0
ARC
8
BLACK
10
127
20
-14
40
1
50
-180
51
-90
0
ARC
8
BLACK
10
31
20
-14
40
1
50
-90
51
-0
0
ARC
8
BLACK
10
19
20
-14
40
1
50
-180
51
-90
0
LINE
8
BLACK
6
CONTINUOUS
10
185
20
-19
11
192
21
-19
0
LINE
8
BLACK
6
CONTINUOUS
10
295
20
-15
11
293
21
-15
0
LINE
8
BLACK
6
CONTINUOUS
10
185
20
-15
11
185
21
-19
0
LINE
8
BLACK
6
CONTINUOUS
10
177
20
-15
11
177
21
-19
0
LINE
8
BLACK
6
CONTINUOUS
10
188
20
-14
11
188
21
-2
0
ARC
8
BLACK
10
190
20
-2
40
2
50
90
51
180
0
LINE
8
BLACK
6
CONTINUOUS
10
174
20
-2
11
174
21
-14
0
LINE
8
BLACK
6
CONTINUOUS
10
185
20
-15
11
187
21
-15
0
LINE
8
BLACK
6
CONTINUOUS
10
278
20
-19
11
285
21
-19
0
ARC
8
BLACK
10
172
20
-2
40
2
50
-0
51
90
0
LINE
8
BLACK
6
CONTINUOUS
10
159.575
20
-19
11
177
21
-19
0
LINE
8
BLACK
6
CONTINUOUS
10
175
20
-15
11
177
21
-15
0
LINE
8
BLACK
6
CONTINUOUS
10
192
20
-19
11
192
21
-6.67462
0
LINE
8
BLACK
6
CONTINUOUS
10
157.453
20
0
11
172
21
0
0
ARC
8
BLACK
10
298
20
-2
40
2
50
90
51
180
0
LINE
8
BLACK
6
CONTINUOUS
10
293
20
-19
11
307.851
21
-19
0
LINE
8
BLACK
6
CONTINUOUS
10
296
20
-14
11
296
21
-2
0
LINE
8
BLACK
6
CONTINUOUS
10
278
20
-6.67462
11
278
21
-19
0
LINE
8
BLACK
6
CONTINUOUS
10
192
20
-6.67462
11
278
21
-6.67462
0
LINE
8
BLACK
6
CONTINUOUS
10
285
20
-15
11
285
21
-19
0
LINE
8
BLACK
6
CONTINUOUS
10
293
20
-15
11
293
21
-19
0
LINE
8
BLACK
6
CONTINUOUS
10
282
20
-2
11
282
21
-14
0
ARC
8
BLACK
10
280
20
-2
40
2
50
-0
51
90
0
LINE
8
BLACK
6
CONTINUOUS
10
283
20
-15
11
285
21
-15
0
LINE
8
BLACK
6
CONTINUOUS
10
190
20
0
11
280
21
0
0
LINE
8
BLACK
6
CONTINUOUS
10
314.902
20
-100.5
11
314.902
21
-4.9
0
LINE
8
BLACK
6
CONTINUOUS
10
306.883
20
-95.4339
11
306.881
21
-95.5319
0
LINE
8
BLACK
6
CONTINUOUS
10
306.881
20
-95.5319
11
306.874
21
-95.6287
0
LINE
8
BLACK
6
CONTINUOUS
10
306.874
20
-95.6287
11
306.863
21
-95.718
0
LINE
8
BLACK
6
CONTINUOUS
10
306.863
20
-95.718
11
306.848
21
-95.8038
0
LINE
8
BLACK
6
CONTINUOUS
10
306.848
20
-95.8038
11
306.83
21
-95.8894
0
LINE
8
BLACK
6
CONTINUOUS
10
306.83
20
-95.8894
11
306.809
21
-95.9688
0
LINE
8
BLACK
6
CONTINUOUS
10
306.809
20
-95.9688
11
306.785
21
-96.0466
0
LINE
8
BLACK
6
CONTINUOUS
10
306.785
20
-96.0466
11
306.758
21
-96.1219
0
LINE
8
BLACK
6
CONTINUOUS
10
306.758
20
-96.1219
11
306.73
21
-96.1936
0
LINE
8
BLACK
6
CONTINUOUS
10
306.73
20
-96.1936
11
306.698
21
-96.264
0
LINE
8
BLACK
6
CONTINUOUS
10
306.698
20
-96.264
11
306.664
21
-96.3328
0
LINE
8
BLACK
6
CONTINUOUS
10
306.664
20
-96.3328
11
306.628
21
-96.3985
0
LINE
8
BLACK
6
CONTINUOUS
10
306.628
20
-96.3985
11
306.59
21
-96.462
0
LINE
8
BLACK
6
CONTINUOUS
10
306.59
20
-96.462
11
306.55
21
-96.5245
0
LINE
8
BLACK
6
CONTINUOUS
10
306.55
20
-96.5245
11
306.508
21
-96.5836
0
LINE
8
BLACK
6
CONTINUOUS
10
306.508
20
-96.5836
11
306.465
21
-96.6407
0
LINE
8
BLACK
6
CONTINUOUS
10
306.465
20
-96.6407
11
306.42
21
-96.6962
0
LINE
8
BLACK
6
CONTINUOUS
10
306.42
20
-96.6962
11
306.372
21
-96.7499
0
LINE
8
BLACK
6
CONTINUOUS
10
306.372
20
-96.7499
11
306.323
21
-96.8016
0
LINE
8
BLACK
6
CONTINUOUS
10
306.323
20
-96.8016
11
306.272
21
-96.8518
0
LINE
8
BLACK
6
CONTINUOUS
10
306.272
20
-96.8518
11
306.218
21
-96.9012
0
LINE
8
BLACK
6
CONTINUOUS
10
306.218
20
-96.9012
11
306.157
21
-96.9521
0
LINE
8
BLACK
6
CONTINUOUS
10
306.157
20
-96.9521
11
306.1
21
-96.9961
0
LINE
8
BLACK
6
CONTINUOUS
10
306.1
20
-96.9961
11
306.042
21
-97.0381
0
LINE
8
BLACK
6
CONTINUOUS
10
306.042
20
-97.0381
11
305.976
21
-97.0822
0
LINE
8
BLACK
6
CONTINUOUS
10
305.976
20
-97.0822
11
305.913
21
-97.1202
0
LINE
8
BLACK
6
CONTINUOUS
10
305.913
20
-97.1202
11
305.848
21
-97.1564
0
LINE
8
BLACK
6
CONTINUOUS
10
305.848
20
-97.1564
11
305.781
21
-97.1907
0
LINE
8
BLACK
6
CONTINUOUS
10
305.781
20
-97.1907
11
305.711
21
-97.2228
0
LINE
8
BLACK
6
CONTINUOUS
10
305.711
20
-97.2228
11
305.636
21
-97.2535
0
LINE
8
BLACK
6
CONTINUOUS
10
305.636
20
-97.2535
11
305.56
21
-97.281
0
LINE
8
BLACK
6
CONTINUOUS
10
305.56
20
-97.281
11
305.484
21
-97.305
0
LINE
8
BLACK
6
CONTINUOUS
10
305.484
20
-97.305
11
305.405
21
-97.3264
0
LINE
8
BLACK
6
CONTINUOUS
10
305.405
20
-97.3264
11
305.322
21
-97.3451
0
LINE
8
BLACK
6
CONTINUOUS
10
305.322
20
-97.3451
11
305.235
21
-97.3608
0
LINE
8
BLACK
6
CONTINUOUS
10
305.235
20
-97.3608
11
305.146
21
-97.3725
0
LINE
8
BLACK
6
CONTINUOUS
10
305.146
20
-97.3725
11
305.053
21
-97.3803
0
LINE
8
BLACK
6
CONTINUOUS
10
305.053
20
-97.3803
11
304.954
21
-97.3838
0
LINE
8
BLACK
6
CONTINUOUS
10
304.954
20
-97.3838
11
304.933
21
-97.3839
0
LINE
8
BLACK
6
CONTINUOUS
10
150.05
20
-41.0727
11
150.05
21
-26.2246
0
LINE
8
BLACK
6
CONTINUOUS
10
154.812
20
-64.3246
11
154.812
21
-41.0727
0
LINE
8
BLACK
6
CONTINUOUS
10
298
20
0
11
310.002
21
0
0
LINE
8
BLACK
6
CONTINUOUS
10
145.287
20
-64.3246
11
154.812
21
-64.3246
0
LINE
8
BLACK
6
CONTINUOUS
10
301.13
20
-79.6727
11
293.988
21
-79.6727
0
LINE
8
BLACK
6
CONTINUOUS
10
142.148
20
-93.7452
11
142.213
21
-93.7095
0
LINE
8
BLACK
6
CONTINUOUS
10
142.213
20
-93.7095
11
142.28
21
-93.6758
0
LINE
8
BLACK
6
CONTINUOUS
10
142.28
20
-93.6758
11
142.35
21
-93.6438
0
LINE
8
BLACK
6
CONTINUOUS
10
142.35
20
-93.6438
11
142.424
21
-93.6134
0
LINE
8
BLACK
6
CONTINUOUS
10
142.424
20
-93.6134
11
142.5
21
-93.5863
0
LINE
8
BLACK
6
CONTINUOUS
10
142.5
20
-93.5863
11
142.576
21
-93.5623
0
LINE
8
BLACK
6
CONTINUOUS
10
142.576
20
-93.5623
11
142.656
21
-93.5406
0
LINE
8
BLACK
6
CONTINUOUS
10
142.656
20
-93.5406
11
142.739
21
-93.5222
0
LINE
8
BLACK
6
CONTINUOUS
10
142.739
20
-93.5222
11
142.829
21
-93.5063
0
LINE
8
BLACK
6
CONTINUOUS
10
142.829
20
-93.5063
11
142.919
21
-93.4946
0
LINE
8
BLACK
6
CONTINUOUS
10
142.919
20
-93.4946
11
143.014
21
-93.487
0
LINE
8
BLACK
6
CONTINUOUS
10
143.014
20
-93.487
11
143.115
21
-93.4839
0
LINE
8
BLACK
6
CONTINUOUS
10
143.115
20
-93.4839
11
143.213
21
-93.486
0
LINE
8
BLACK
6
CONTINUOUS
10
143.213
20
-93.486
11
143.307
21
-93.4926
0
LINE
8
BLACK
6
CONTINUOUS
10
143.307
20
-93.4926
11
143.402
21
-93.5039
0
LINE
8
BLACK
6
CONTINUOUS
10
143.402
20
-93.5039
11
143.49
21
-93.5186
0
LINE
8
BLACK
6
CONTINUOUS
10
143.49
20
-93.5186
11
143.573
21
-93.5364
0
LINE
8
BLACK
6
CONTINUOUS
10
143.573
20
-93.5364
11
143.654
21
-93.5574
0
LINE
8
BLACK
6
CONTINUOUS
10
143.654
20
-93.5574
11
143.734
21
-93.5819
0
LINE
8
BLACK
6
CONTINUOUS
10
143.734
20
-93.5819
11
143.808
21
-93.6079
0
LINE
8
BLACK
6
CONTINUOUS
10
143.808
20
-93.6079
11
143.88
21
-93.6367
0
LINE
8
BLACK
6
CONTINUOUS
10
143.88
20
-93.6367
11
143.95
21
-93.6678
0
LINE
8
BLACK
6
CONTINUOUS
10
143.95
20
-93.6678
11
144.018
21
-93.701
0
LINE
8
BLACK
6
CONTINUOUS
10
144.018
20
-93.701
11
144.089
21
-93.7397
0
LINE
8
BLACK
6
CONTINUOUS
10
144.089
20
-93.7397
11
144.098
21
-93.7452
0
LINE
8
BLACK
6
CONTINUOUS
10
301.13
20
-62.82
11
301.13
21
-79.6727
0
LINE
8
BLACK
6
CONTINUOUS
10
159.575
20
-26.2246
11
159.575
21
-19
0
LINE
8
BLACK
6
CONTINUOUS
10
141.173
20
-95.4339
11
141.176
21
-95.3353
0
LINE
8
BLACK
6
CONTINUOUS
10
141.176
20
-95.3353
11
141.183
21
-95.2386
0
LINE
8
BLACK
6
CONTINUOUS
10
141.183
20
-95.2386
11
141.194
21
-95.1488
0
LINE
8
BLACK
6
CONTINUOUS
10
141.194
20
-95.1488
11
141.21
21
-95.06
0
LINE
8
BLACK
6
CONTINUOUS
10
141.21
20
-95.06
11
141.228
21
-94.9743
0
LINE
8
BLACK
6
CONTINUOUS
10
141.228
20
-94.9743
11
141.25
21
-94.8936
0
LINE
8
BLACK
6
CONTINUOUS
10
141.25
20
-94.8936
11
141.274
21
-94.814
0
LINE
8
BLACK
6
CONTINUOUS
10
141.274
20
-94.814
11
141.301
21
-94.7395
0
LINE
8
BLACK
6
CONTINUOUS
10
141.301
20
-94.7395
11
141.33
21
-94.668
0
LINE
8
BLACK
6
CONTINUOUS
10
141.33
20
-94.668
11
141.362
21
-94.5978
0
LINE
8
BLACK
6
CONTINUOUS
10
141.362
20
-94.5978
11
141.395
21
-94.5307
0
LINE
8
BLACK
6
CONTINUOUS
10
141.395
20
-94.5307
11
141.431
21
-94.4649
0
LINE
8
BLACK
6
CONTINUOUS
10
141.431
20
-94.4649
11
141.471
21
-94.3989
0
LINE
8
BLACK
6
CONTINUOUS
10
141.471
20
-94.3989
11
141.51
21
-94.3384
0
LINE
8
BLACK
6
CONTINUOUS
10
141.51
20
-94.3384
11
141.552
21
-94.2797
0
LINE
8
BLACK
6
CONTINUOUS
10
141.552
20
-94.2797
11
141.596
21
-94.2216
0
LINE
8
BLACK
6
CONTINUOUS
10
141.596
20
-94.2216
11
141.641
21
-94.1666
0
LINE
8
BLACK
6
CONTINUOUS
10
141.641
20
-94.1666
11
141.689
21
-94.1132
0
LINE
8
BLACK
6
CONTINUOUS
10
141.689
20
-94.1132
11
141.738
21
-94.0619
0
LINE
8
BLACK
6
CONTINUOUS
10
141.738
20
-94.0619
11
141.789
21
-94.0119
0
LINE
8
BLACK
6
CONTINUOUS
10
141.789
20
-94.0119
11
141.844
21
-93.9621
0
LINE
8
BLACK
6
CONTINUOUS
10
141.844
20
-93.9621
11
141.899
21
-93.9159
0
LINE
8
BLACK
6
CONTINUOUS
10
141.899
20
-93.9159
11
141.956
21
-93.8719
0
LINE
8
BLACK
6
CONTINUOUS
10
141.956
20
-93.8719
11
142.015
21
-93.8292
0
LINE
8
BLACK
6
CONTINUOUS
10
142.015
20
-93.8292
11
142.076
21
-93.7888
0
LINE
8
BLACK
6
CONTINUOUS
10
142.076
20
-93.7888
11
142.139
21
-93.7508
0
LINE
8
BLACK
6
CONTINUOUS
10
142.139
20
-93.7508
11
142.148
21
-93.7452
0
LINE
8
BLACK
6
CONTINUOUS
10
145.287
20
-79.1727
11
147.094
21
-79.1727
0
LINE
8
BLACK
6
CONTINUOUS
10
145.287
20
-64.3246
11
145.287
21
-79.1727
0
LINE
8
BLACK
6
CONTINUOUS
10
150.05
20
-26.2246
11
159.575
21
-26.2246
0
ARC
8
BLACK
10
310.002
20
-4.9
40
4.9
50
-0
51
90
0
LINE
8
BLACK
6
CONTINUOUS
10
144.098
20
-97.1227
11
144.033
21
-97.1586
0
LINE
8
BLACK
6
CONTINUOUS
10
144.033
20
-97.1586
11
143.966
21
-97.1923
0
LINE
8
BLACK
6
CONTINUOUS
10
143.966
20
-97.1923
11
143.897
21
-97.2241
0
LINE
8
BLACK
6
CONTINUOUS
10
143.897
20
-97.2241
11
143.824
21
-97.2537
0
LINE
8
BLACK
6
CONTINUOUS
10
143.824
20
-97.2537
11
143.747
21
-97.2816
0
LINE
8
BLACK
6
CONTINUOUS
10
143.747
20
-97.2816
11
143.67
21
-97.3056
0
LINE
8
BLACK
6
CONTINUOUS
10
143.67
20
-97.3056
11
143.591
21
-97.3271
0
LINE
8
BLACK
6
CONTINUOUS
10
143.591
20
-97.3271
11
143.507
21
-97.3458
0
LINE
8
BLACK
6
CONTINUOUS
10
143.507
20
-97.3458
11
143.421
21
-97.361
0
LINE
8
BLACK
6
CONTINUOUS
10
143.421
20
-97.361
11
143.327
21
-97.3732
0
LINE
8
BLACK
6
CONTINUOUS
10
143.327
20
-97.3732
11
143.233
21
-97.3809
0
LINE
8
BLACK
6
CONTINUOUS
10
143.233
20
-97.3809
11
143.134
21
-97.3839
0
LINE
8
BLACK
6
CONTINUOUS
10
143.134
20
-97.3839
11
143.03
21
-97.3817
0
LINE
8
BLACK
6
CONTINUOUS
10
143.03
20
-97.3817
11
142.934
21
-97.3747
0
LINE
8
BLACK
6
CONTINUOUS
10
142.934
20
-97.3747
11
142.843
21
-97.3637
0
LINE
8
BLACK
6
CONTINUOUS
10
142.843
20
-97.3637
11
142.757
21
-97.3493
0
LINE
8
BLACK
6
CONTINUOUS
10
142.757
20
-97.3493
11
142.674
21
-97.3314
0
LINE
8
BLACK
6
CONTINUOUS
10
142.674
20
-97.3314
11
142.592
21
-97.3101
0
LINE
8
BLACK
6
CONTINUOUS
10
142.592
20
-97.3101
11
142.515
21
-97.2866
0
LINE
8
BLACK
6
CONTINUOUS
10
142.515
20
-97.2866
11
142.44
21
-97.2603
0
LINE
8
BLACK
6
CONTINUOUS
10
142.44
20
-97.2603
11
142.367
21
-97.2312
0
LINE
8
BLACK
6
CONTINUOUS
10
142.367
20
-97.2312
11
142.297
21
-97.2001
0
LINE
8
BLACK
6
CONTINUOUS
10
142.297
20
-97.2001
11
142.228
21
-97.1665
0
LINE
8
BLACK
6
CONTINUOUS
10
142.228
20
-97.1665
11
142.16
21
-97.1293
0
LINE
8
BLACK
6
CONTINUOUS
10
142.16
20
-97.1293
11
142.148
21
-97.1227
0
LINE
8
BLACK
6
CONTINUOUS
10
138.403
20
-105.4
11
310.002
21
-105.4
0
LINE
8
BLACK
6
CONTINUOUS
10
147.094
20
-79.1727
11
147.094
21
-100.5
0
LINE
8
BLACK
6
CONTINUOUS
10
145.073
20
-95.4339
11
145.071
21
-95.532
0
LINE
8
BLACK
6
CONTINUOUS
10
145.071
20
-95.532
11
145.064
21
-95.6293
0
LINE
8
BLACK
6
CONTINUOUS
10
145.064
20
-95.6293
11
145.052
21
-95.7191
0
LINE
8
BLACK
6
CONTINUOUS
10
145.052
20
-95.7191
11
145.037
21
-95.8078
0
LINE
8
BLACK
6
CONTINUOUS
10
145.037
20
-95.8078
11
145.019
21
-95.8911
0
LINE
8
BLACK
6
CONTINUOUS
10
145.019
20
-95.8911
11
144.998
21
-95.9705
0
LINE
8
BLACK
6
CONTINUOUS
10
144.998
20
-95.9705
11
144.974
21
-96.0477
0
LINE
8
BLACK
6
CONTINUOUS
10
144.974
20
-96.0477
11
144.948
21
-96.1221
0
LINE
8
BLACK
6
CONTINUOUS
10
144.948
20
-96.1221
11
144.919
21
-96.1944
0
LINE
8
BLACK
6
CONTINUOUS
10
144.919
20
-96.1944
11
144.886
21
-96.2683
0
LINE
8
BLACK
6
CONTINUOUS
10
144.886
20
-96.2683
11
144.852
21
-96.3354
0
LINE
8
BLACK
6
CONTINUOUS
10
144.852
20
-96.3354
11
144.817
21
-96.4008
0
LINE
8
BLACK
6
CONTINUOUS
10
144.817
20
-96.4008
11
144.777
21
-96.4666
0
LINE
8
BLACK
6
CONTINUOUS
10
144.777
20
-96.4666
11
144.737
21
-96.5284
0
LINE
8
BLACK
6
CONTINUOUS
10
144.737
20
-96.5284
11
144.695
21
-96.5881
0
LINE
8
BLACK
6
CONTINUOUS
10
144.695
20
-96.5881
11
144.651
21
-96.6462
0
LINE
8
BLACK
6
CONTINUOUS
10
144.651
20
-96.6462
11
144.605
21
-96.7012
0
LINE
8
BLACK
6
CONTINUOUS
10
144.605
20
-96.7012
11
144.558
21
-96.7546
0
LINE
8
BLACK
6
CONTINUOUS
10
144.558
20
-96.7546
11
144.507
21
-96.8077
0
LINE
8
BLACK
6
CONTINUOUS
10
144.507
20
-96.8077
11
144.456
21
-96.8576
0
LINE
8
BLACK
6
CONTINUOUS
10
144.456
20
-96.8576
11
144.403
21
-96.9057
0
LINE
8
BLACK
6
CONTINUOUS
10
144.403
20
-96.9057
11
144.347
21
-96.952
0
LINE
8
BLACK
6
CONTINUOUS
10
144.347
20
-96.952
11
144.291
21
-96.996
0
LINE
8
BLACK
6
CONTINUOUS
10
144.291
20
-96.996
11
144.232
21
-97.0383
0
LINE
8
BLACK
6
CONTINUOUS
10
144.232
20
-97.0383
11
144.169
21
-97.08
0
LINE
8
BLACK
6
CONTINUOUS
10
144.169
20
-97.08
11
144.103
21
-97.1199
0
LINE
8
BLACK
6
CONTINUOUS
10
144.103
20
-97.1199
11
144.098
21
-97.1227
0
LINE
8
BLACK
6
CONTINUOUS
10
144.098
20
-93.7452
11
144.162
21
-93.7835
0
LINE
8
BLACK
6
CONTINUOUS
10
144.162
20
-93.7835
11
144.223
21
-93.8235
0
LINE
8
BLACK
6
CONTINUOUS
10
144.223
20
-93.8235
11
144.282
21
-93.8653
0
LINE
8
BLACK
6
CONTINUOUS
10
144.282
20
-93.8653
11
144.34
21
-93.9096
0
LINE
8
BLACK
6
CONTINUOUS
10
144.34
20
-93.9096
11
144.395
21
-93.9556
0
LINE
8
BLACK
6
CONTINUOUS
10
144.395
20
-93.9556
11
144.452
21
-94.0061
0
LINE
8
BLACK
6
CONTINUOUS
10
144.452
20
-94.0061
11
144.503
21
-94.0559
0
LINE
8
BLACK
6
CONTINUOUS
10
144.503
20
-94.0559
11
144.552
21
-94.1071
0
LINE
8
BLACK
6
CONTINUOUS
10
144.552
20
-94.1071
11
144.603
21
-94.1632
0
LINE
8
BLACK
6
CONTINUOUS
10
144.603
20
-94.1632
11
144.648
21
-94.2181
0
LINE
8
BLACK
6
CONTINUOUS
10
144.648
20
-94.2181
11
144.692
21
-94.2749
0
LINE
8
BLACK
6
CONTINUOUS
10
144.692
20
-94.2749
11
144.734
21
-94.3345
0
LINE
8
BLACK
6
CONTINUOUS
10
144.734
20
-94.3345
11
144.774
21
-94.3956
0
LINE
8
BLACK
6
CONTINUOUS
10
144.774
20
-94.3956
11
144.816
21
-94.4662
0
LINE
8
BLACK
6
CONTINUOUS
10
144.816
20
-94.4662
11
144.853
21
-94.5342
0
LINE
8
BLACK
6
CONTINUOUS
10
144.853
20
-94.5342
11
144.887
21
-94.6027
0
LINE
8
BLACK
6
CONTINUOUS
10
144.887
20
-94.6027
11
144.919
21
-94.6734
0
LINE
8
BLACK
6
CONTINUOUS
10
144.919
20
-94.6734
11
144.948
21
-94.7469
0
LINE
8
BLACK
6
CONTINUOUS
10
144.948
20
-94.7469
11
144.975
21
-94.8215
0
LINE
8
BLACK
6
CONTINUOUS
10
144.975
20
-94.8215
11
144.999
21
-94.8988
0
LINE
8
BLACK
6
CONTINUOUS
10
144.999
20
-94.8988
11
145.019
21
-94.9781
0
LINE
8
BLACK
6
CONTINUOUS
10
145.019
20
-94.9781
11
145.038
21
-95.0639
0
LINE
8
BLACK
6
CONTINUOUS
10
145.038
20
-95.0639
11
145.053
21
-95.1508
0
LINE
8
BLACK
6
CONTINUOUS
10
145.053
20
-95.1508
11
145.064
21
-95.2466
0
LINE
8
BLACK
6
CONTINUOUS
10
145.064
20
-95.2466
11
145.071
21
-95.3414
0
LINE
8
BLACK
6
CONTINUOUS
10
145.071
20
-95.3414
11
145.073
21
-95.4339
0
LINE
8
BLACK
6
CONTINUOUS
10
142.148
20
-97.1227
11
142.083
21
-97.0832
0
LINE
8
BLACK
6
CONTINUOUS
10
142.083
20
-97.0832
11
142.022
21
-97.0432
0
LINE
8
BLACK
6
CONTINUOUS
10
142.022
20
-97.0432
11
141.962
21
-97.0002
0
LINE
8
BLACK
6
CONTINUOUS
10
141.962
20
-97.0002
11
141.898
21
-96.9507
0
LINE
8
BLACK
6
CONTINUOUS
10
141.898
20
-96.9507
11
141.843
21
-96.9047
0
LINE
8
BLACK
6
CONTINUOUS
10
141.843
20
-96.9047
11
141.79
21
-96.8573
0
LINE
8
BLACK
6
CONTINUOUS
10
141.79
20
-96.8573
11
141.739
21
-96.8077
0
LINE
8
BLACK
6
CONTINUOUS
10
141.739
20
-96.8077
11
141.687
21
-96.7531
0
LINE
8
BLACK
6
CONTINUOUS
10
141.687
20
-96.7531
11
141.64
21
-96.6997
0
LINE
8
BLACK
6
CONTINUOUS
10
141.64
20
-96.6997
11
141.595
21
-96.6447
0
LINE
8
BLACK
6
CONTINUOUS
10
141.595
20
-96.6447
11
141.551
21
-96.5877
0
LINE
8
BLACK
6
CONTINUOUS
10
141.551
20
-96.5877
11
141.51
21
-96.5284
0
LINE
8
BLACK
6
CONTINUOUS
10
141.51
20
-96.5284
11
141.47
21
-96.4673
0
LINE
8
BLACK
6
CONTINUOUS
10
141.47
20
-96.4673
11
141.432
21
-96.4042
0
LINE
8
BLACK
6
CONTINUOUS
10
141.432
20
-96.4042
11
141.396
21
-96.3389
0
LINE
8
BLACK
6
CONTINUOUS
10
141.396
20
-96.3389
11
141.363
21
-96.2719
0
LINE
8
BLACK
6
CONTINUOUS
10
141.363
20
-96.2719
11
141.329
21
-96.1962
0
LINE
8
BLACK
6
CONTINUOUS
10
141.329
20
-96.1962
11
141.3
21
-96.1247
0
LINE
8
BLACK
6
CONTINUOUS
10
141.3
20
-96.1247
11
141.273
21
-96.0501
0
LINE
8
BLACK
6
CONTINUOUS
10
141.273
20
-96.0501
11
141.249
21
-95.9724
0
LINE
8
BLACK
6
CONTINUOUS
10
141.249
20
-95.9724
11
141.228
21
-95.8916
0
LINE
8
BLACK
6
CONTINUOUS
10
141.228
20
-95.8916
11
141.209
21
-95.8076
0
LINE
8
BLACK
6
CONTINUOUS
10
141.209
20
-95.8076
11
141.195
21
-95.721
0
LINE
8
BLACK
6
CONTINUOUS
10
141.195
20
-95.721
11
141.183
21
-95.6313
0
LINE
8
BLACK
6
CONTINUOUS
10
141.183
20
-95.6313
11
141.176
21
-95.5371
0
LINE
8
BLACK
6
CONTINUOUS
10
141.176
20
-95.5371
11
141.173
21
-95.439
0
LINE
8
BLACK
6
CONTINUOUS
10
141.173
20
-95.439
11
141.173
21
-95.4339
0
LINE
8
BLACK
6
CONTINUOUS
10
305.908
20
-93.7452
11
305.972
21
-93.7835
0
LINE
8
BLACK
6
CONTINUOUS
10
305.972
20
-93.7835
11
306.033
21
-93.8235
0
LINE
8
BLACK
6
CONTINUOUS
10
306.033
20
-93.8235
11
306.092
21
-93.8653
0
LINE
8
BLACK
6
CONTINUOUS
10
306.092
20
-93.8653
11
306.149
21
-93.9096
0
LINE
8
BLACK
6
CONTINUOUS
10
306.149
20
-93.9096
11
306.205
21
-93.9556
0
LINE
8
BLACK
6
CONTINUOUS
10
306.205
20
-93.9556
11
306.261
21
-94.0061
0
LINE
8
BLACK
6
CONTINUOUS
10
306.261
20
-94.0061
11
306.313
21
-94.0559
0
LINE
8
BLACK
6
CONTINUOUS
10
306.313
20
-94.0559
11
306.362
21
-94.1071
0
LINE
8
BLACK
6
CONTINUOUS
10
306.362
20
-94.1071
11
306.412
21
-94.1632
0
LINE
8
BLACK
6
CONTINUOUS
10
306.412
20
-94.1632
11
306.458
21
-94.2181
0
LINE
8
BLACK
6
CONTINUOUS
10
306.458
20
-94.2181
11
306.501
21
-94.2749
0
LINE
8
BLACK
6
CONTINUOUS
10
306.501
20
-94.2749
11
306.544
21
-94.3345
0
LINE
8
BLACK
6
CONTINUOUS
10
306.544
20
-94.3345
11
306.584
21
-94.3956
0
LINE
8
BLACK
6
CONTINUOUS
10
306.584
20
-94.3956
11
306.626
21
-94.4662
0
LINE
8
BLACK
6
CONTINUOUS
10
306.626
20
-94.4662
11
306.663
21
-94.5342
0
LINE
8
BLACK
6
CONTINUOUS
10
306.663
20
-94.5342
11
306.697
21
-94.6027
0
LINE
8
BLACK
6
CONTINUOUS
10
306.697
20
-94.6027
11
306.729
21
-94.6734
0
LINE
8
BLACK
6
CONTINUOUS
10
306.729
20
-94.6734
11
306.758
21
-94.7469
0
LINE
8
BLACK
6
CONTINUOUS
10
306.758
20
-94.7469
11
306.785
21
-94.8215
0
LINE
8
BLACK
6
CONTINUOUS
10
306.785
20
-94.8215
11
306.808
21
-94.8988
0
LINE
8
BLACK
6
CONTINUOUS
10
306.808
20
-94.8988
11
306.829
21
-94.9781
0
LINE
8
BLACK
6
CONTINUOUS
10
306.829
20
-94.9781
11
306.848
21
-95.0639
0
LINE
8
BLACK
6
CONTINUOUS
10
306.848
20
-95.0639
11
306.863
21
-95.1508
0
LINE
8
BLACK
6
CONTINUOUS
10
306.863
20
-95.1508
11
306.874
21
-95.2466
0
LINE
8
BLACK
6
CONTINUOUS
10
306.874
20
-95.2466
11
306.881
21
-95.3414
0
LINE
8
BLACK
6
CONTINUOUS
10
306.881
20
-95.3414
11
306.883
21
-95.4339
0
LINE
8
BLACK
6
CONTINUOUS
10
304.933
20
-97.3839
11
304.835
21
-97.3815
0
LINE
8
BLACK
6
CONTINUOUS
10
304.835
20
-97.3815
11
304.741
21
-97.3745
0
LINE
8
BLACK
6
CONTINUOUS
10
304.741
20
-97.3745
11
304.649
21
-97.3634
0
LINE
8
BLACK
6
CONTINUOUS
10
304.649
20
-97.3634
11
304.56
21
-97.3483
0
LINE
8
BLACK
6
CONTINUOUS
10
304.56
20
-97.3483
11
304.477
21
-97.3304
0
LINE
8
BLACK
6
CONTINUOUS
10
304.477
20
-97.3304
11
304.397
21
-97.3093
0
LINE
8
BLACK
6
CONTINUOUS
10
304.397
20
-97.3093
11
304.314
21
-97.2837
0
LINE
8
BLACK
6
CONTINUOUS
10
304.314
20
-97.2837
11
304.239
21
-97.2567
0
LINE
8
BLACK
6
CONTINUOUS
10
304.239
20
-97.2567
11
304.165
21
-97.2269
0
LINE
8
BLACK
6
CONTINUOUS
10
304.165
20
-97.2269
11
304.095
21
-97.1951
0
LINE
8
BLACK
6
CONTINUOUS
10
304.095
20
-97.1951
11
304.028
21
-97.1614
0
LINE
8
BLACK
6
CONTINUOUS
10
304.028
20
-97.1614
11
303.959
21
-97.1237
0
LINE
8
BLACK
6
CONTINUOUS
10
303.959
20
-97.1237
11
303.896
21
-97.0854
0
LINE
8
BLACK
6
CONTINUOUS
10
303.896
20
-97.0854
11
303.832
21
-97.0435
0
LINE
8
BLACK
6
CONTINUOUS
10
303.832
20
-97.0435
11
303.773
21
-97.0013
0
LINE
8
BLACK
6
CONTINUOUS
10
303.773
20
-97.0013
11
303.716
21
-96.9576
0
LINE
8
BLACK
6
CONTINUOUS
10
303.716
20
-96.9576
11
303.661
21
-96.912
0
LINE
8
BLACK
6
CONTINUOUS
10
303.661
20
-96.912
11
303.607
21
-96.864
0
LINE
8
BLACK
6
CONTINUOUS
10
303.607
20
-96.864
11
303.556
21
-96.8143
0
LINE
8
BLACK
6
CONTINUOUS
10
303.556
20
-96.8143
11
303.505
21
-96.762
0
LINE
8
BLACK
6
CONTINUOUS
10
303.505
20
-96.762
11
303.458
21
-96.7089
0
LINE
8
BLACK
6
CONTINUOUS
10
303.458
20
-96.7089
11
303.411
21
-96.6533
0
LINE
8
BLACK
6
CONTINUOUS
10
303.411
20
-96.6533
11
303.367
21
-96.5956
0
LINE
8
BLACK
6
CONTINUOUS
10
303.367
20
-96.5956
11
303.325
21
-96.5369
0
LINE
8
BLACK
6
CONTINUOUS
10
303.325
20
-96.5369
11
303.284
21
-96.4757
0
LINE
8
BLACK
6
CONTINUOUS
10
303.284
20
-96.4757
11
303.246
21
-96.4128
0
LINE
8
BLACK
6
CONTINUOUS
10
303.246
20
-96.4128
11
303.21
21
-96.3481
0
LINE
8
BLACK
6
CONTINUOUS
10
303.21
20
-96.3481
11
303.176
21
-96.2813
0
LINE
8
BLACK
6
CONTINUOUS
10
303.176
20
-96.2813
11
303.145
21
-96.2127
0
LINE
8
BLACK
6
CONTINUOUS
10
303.145
20
-96.2127
11
303.115
21
-96.1403
0
LINE
8
BLACK
6
CONTINUOUS
10
303.115
20
-96.1403
11
303.087
21
-96.0636
0
LINE
8
BLACK
6
CONTINUOUS
10
303.087
20
-96.0636
11
303.062
21
-95.9847
0
LINE
8
BLACK
6
CONTINUOUS
10
303.062
20
-95.9847
11
303.041
21
-95.9055
0
LINE
8
BLACK
6
CONTINUOUS
10
303.041
20
-95.9055
11
303.021
21
-95.8191
0
LINE
8
BLACK
6
CONTINUOUS
10
303.021
20
-95.8191
11
303.006
21
-95.7324
0
LINE
8
BLACK
6
CONTINUOUS
10
303.006
20
-95.7324
11
302.994
21
-95.6433
0
LINE
8
BLACK
6
CONTINUOUS
10
302.994
20
-95.6433
11
302.987
21
-95.5506
0
LINE
8
BLACK
6
CONTINUOUS
10
302.987
20
-95.5506
11
302.983
21
-95.4513
0
LINE
8
BLACK
6
CONTINUOUS
10
302.983
20
-95.4513
11
302.983
21
-95.4339
0
LINE
8
BLACK
6
CONTINUOUS
10
147.094
20
-100.5
11
181.641
21
-100.5
0
LINE
8
BLACK
6
CONTINUOUS
10
181.641
20
-98.7227
11
181.641
21
-100.5
0
LINE
8
BLACK
6
CONTINUOUS
10
181.641
20
-98.7227
11
293.988
21
-98.7227
0
LINE
8
BLACK
6
CONTINUOUS
10
293.988
20
-79.6727
11
293.988
21
-98.7227
0
LINE
8
BLACK
6
CONTINUOUS
10
154.812
20
-41.0727
11
150.05
21
-41.0727
0
LINE
8
BLACK
6
CONTINUOUS
10
307.851
20
-19
11
307.851
21
-62.82
0
LINE
8
BLACK
6
CONTINUOUS
10
303.958
20
-93.7452
11
304.023
21
-93.7095
0
LINE
8
BLACK
6
CONTINUOUS
10
304.023
20
-93.7095
11
304.09
21
-93.6758
0
LINE
8
BLACK
6
CONTINUOUS
10
304.09
20
-93.6758
11
304.16
21
-93.6438
0
LINE
8
BLACK
6
CONTINUOUS
10
304.16
20
-93.6438
11
304.234
21
-93.6134
0
LINE
8
BLACK
6
CONTINUOUS
10
304.234
20
-93.6134
11
304.31
21
-93.5863
0
LINE
8
BLACK
6
CONTINUOUS
10
304.31
20
-93.5863
11
304.386
21
-93.5623
0
LINE
8
BLACK
6
CONTINUOUS
10
304.386
20
-93.5623
11
304.466
21
-93.5406
0
LINE
8
BLACK
6
CONTINUOUS
10
304.466
20
-93.5406
11
304.549
21
-93.5222
0
LINE
8
BLACK
6
CONTINUOUS
10
304.549
20
-93.5222
11
304.639
21
-93.5063
0
LINE
8
BLACK
6
CONTINUOUS
10
304.639
20
-93.5063
11
304.729
21
-93.4946
0
LINE
8
BLACK
6
CONTINUOUS
10
304.729
20
-93.4946
11
304.824
21
-93.487
0
LINE
8
BLACK
6
CONTINUOUS
10
304.824
20
-93.487
11
304.924
21
-93.4839
0
LINE
8
BLACK
6
CONTINUOUS
10
304.924
20
-93.4839
11
305.023
21
-93.486
0
LINE
8
BLACK
6
CONTINUOUS
10
305.023
20
-93.486
11
305.117
21
-93.4926
0
LINE
8
BLACK
6
CONTINUOUS
10
305.117
20
-93.4926
11
305.212
21
-93.5039
0
LINE
8
BLACK
6
CONTINUOUS
10
305.212
20
-93.5039
11
305.299
21
-93.5186
0
LINE
8
BLACK
6
CONTINUOUS
10
305.299
20
-93.5186
11
305.383
21
-93.5364
0
LINE
8
BLACK
6
CONTINUOUS
10
305.383
20
-93.5364
11
305.464
21
-93.5574
0
LINE
8
BLACK
6
CONTINUOUS
10
305.464
20
-93.5574
11
305.544
21
-93.5819
0
LINE
8
BLACK
6
CONTINUOUS
10
305.544
20
-93.5819
11
305.618
21
-93.6079
0
LINE
8
BLACK
6
CONTINUOUS
10
305.618
20
-93.6079
11
305.69
21
-93.6367
0
LINE
8
BLACK
6
CONTINUOUS
10
305.69
20
-93.6367
11
305.76
21
-93.6678
0
LINE
8
BLACK
6
CONTINUOUS
10
305.76
20
-93.6678
11
305.827
21
-93.701
0
LINE
8
BLACK
6
CONTINUOUS
10
305.827
20
-93.701
11
305.899
21
-93.7397
0
LINE
8
BLACK
6
CONTINUOUS
10
305.899
20
-93.7397
11
305.908
21
-93.7452
0
ARC
8
BLACK
10
310.002
20
-100.5
40
4.9
50
-90
51
-0
0
LINE
8
BLACK
6
CONTINUOUS
10
307.851
20
-62.82
11
301.13
21
-62.82
0
LINE
8
BLACK
6
CONTINUOUS
10
302.983
20
-95.4339
11
302.986
21
-95.3353
0
LINE
8
BLACK
6
CONTINUOUS
10
302.986
20
-95.3353
11
302.993
21
-95.2386
0
LINE
8
BLACK
6
CONTINUOUS
10
302.993
20
-95.2386
11
303.004
21
-95.1488
0
LINE
8
BLACK
6
CONTINUOUS
10
303.004
20
-95.1488
11
303.019
21
-95.06
0
LINE
8
BLACK
6
CONTINUOUS
10
303.019
20
-95.06
11
303.038
21
-94.9743
0
LINE
8
BLACK
6
CONTINUOUS
10
303.038
20
-94.9743
11
303.059
21
-94.8936
0
LINE
8
BLACK
6
CONTINUOUS
10
303.059
20
-94.8936
11
303.084
21
-94.814
0
LINE
8
BLACK
6
CONTINUOUS
10
303.084
20
-94.814
11
303.111
21
-94.7395
0
LINE
8
BLACK
6
CONTINUOUS
10
303.111
20
-94.7395
11
303.14
21
-94.668
0
LINE
8
BLACK
6
CONTINUOUS
10
303.14
20
-94.668
11
303.172
21
-94.5978
0
LINE
8
BLACK
6
CONTINUOUS
10
303.172
20
-94.5978
11
303.205
21
-94.5307
0
LINE
8
BLACK
6
CONTINUOUS
10
303.205
20
-94.5307
11
303.241
21
-94.4649
0
LINE
8
BLACK
6
CONTINUOUS
10
303.241
20
-94.4649
11
303.281
21
-94.3989
0
LINE
8
BLACK
6
CONTINUOUS
10
303.281
20
-94.3989
11
303.32
21
-94.3384
0
LINE
8
BLACK
6
CONTINUOUS
10
303.32
20
-94.3384
11
303.361
21
-94.2797
0
LINE
8
BLACK
6
CONTINUOUS
10
303.361
20
-94.2797
11
303.406
21
-94.2216
0
LINE
8
BLACK
6
CONTINUOUS
10
303.406
20
-94.2216
11
303.451
21
-94.1666
0
LINE
8
BLACK
6
CONTINUOUS
10
303.451
20
-94.1666
11
303.498
21
-94.1132
0
LINE
8
BLACK
6
CONTINUOUS
10
303.498
20
-94.1132
11
303.547
21
-94.0619
0
LINE
8
BLACK
6
CONTINUOUS
10
303.547
20
-94.0619
11
303.599
21
-94.0119
0
LINE
8
BLACK
6
CONTINUOUS
10
303.599
20
-94.0119
11
303.654
21
-93.9621
0
LINE
8
BLACK
6
CONTINUOUS
10
303.654
20
-93.9621
11
303.709
21
-93.9159
0
LINE
8
BLACK
6
CONTINUOUS
10
303.709
20
-93.9159
11
303.766
21
-93.8719
0
LINE
8
BLACK
6
CONTINUOUS
10
303.766
20
-93.8719
11
303.825
21
-93.8292
0
LINE
8
BLACK
6
CONTINUOUS
10
303.825
20
-93.8292
11
303.886
21
-93.7888
0
LINE
8
BLACK
6
CONTINUOUS
10
303.886
20
-93.7888
11
303.948
21
-93.7508
0
LINE
8
BLACK
6
CONTINUOUS
10
303.948
20
-93.7508
11
303.958
21
-93.7452
0
LINE
8
BLACK
6
CONTINUOUS
10
16
20
0
11
4.9
21
0
0
LINE
8
BLACK
6
CONTINUOUS
10
124
20
0
11
34
21
0
0
LINE
8
BLACK
6
CONTINUOUS
10
29
20
-15
11
29
21
-19
0
ARC
8
BLACK
10
34
20
-2
40
2
50
90
51
180
0
LINE
8
BLACK
6
CONTINUOUS
10
36
20
-19
11
29
21
-19
0
LINE
8
BLACK
6
CONTINUOUS
10
19
20
-15
11
21
21
-15
0
ARC
8
BLACK
10
16
20
-2
40
2
50
-0
51
90
0
LINE
8
BLACK
6
CONTINUOUS
10
29
20
-15
11
31
21
-15
0
LINE
8
BLACK
6
CONTINUOUS
10
21
20
-15
11
21
21
-19
0
LINE
8
BLACK
6
CONTINUOUS
10
18
20
-2
11
18
21
-14
0
LINE
8
BLACK
6
CONTINUOUS
10
6.67462
20
-19
11
21
21
-19
0
LINE
8
BLACK
6
CONTINUOUS
10
32
20
-14
11
32
21
-2
0
ARC
8
BLACK
10
124
20
-2
40
2
50
-0
51
90
0
LINE
8
BLACK
6
CONTINUOUS
10
126
20
-2
11
126
21
-14
0
LINE
8
BLACK
6
CONTINUOUS
10
36
20
-6.67462
11
122
21
-6.67462
0
LINE
8
BLACK
6
CONTINUOUS
10
36
20
-19
11
36
21
-6.67462
0
LINE
8
BLACK
6
CONTINUOUS
10
137
20
-15
11
139
21
-15
0
LINE
8
BLACK
6
CONTINUOUS
10
137
20
-15
11
137
21
-19
0
LINE
8
BLACK
6
CONTINUOUS
10
129
20
-15
11
129
21
-19
0
LINE
8
BLACK
6
CONTINUOUS
10
137
20
-19
11
145.85
21
-19
0
LINE
8
BLACK
6
CONTINUOUS
10
127
20
-15
11
129
21
-15
0
LINE
8
BLACK
6
CONTINUOUS
10
122
20
-19
11
129
21
-19
0
LINE
8
BLACK
6
CONTINUOUS
10
122
20
-6.67462
11
122
21
-19
0
ARC
8
BLACK
10
142
20
-2
40
2
50
90
51
180
0
LINE
8
BLACK
6
CONTINUOUS
10
140
20
-14
11
140
21
-2
0
ARC
8
BLACK
10
148.928
20
-42.1018
40
1
50
-180
51
-90
0
LINE
8
BLACK
6
CONTINUOUS
10
151.692
20
-62.1553
11
151.791
21
-62.1505
0
LINE
8
BLACK
6
CONTINUOUS
10
151.791
20
-62.1505
11
151.879
21
-62.1379
0
LINE
8
BLACK
6
CONTINUOUS
10
151.879
20
-62.1379
11
151.961
21
-62.1186
0
LINE
8
BLACK
6
CONTINUOUS
10
151.961
20
-62.1186
11
152.037
21
-62.094
0
LINE
8
BLACK
6
CONTINUOUS
10
152.037
20
-62.094
11
152.108
21
-62.0646
0
LINE
8
BLACK
6
CONTINUOUS
10
152.108
20
-62.0646
11
152.177
21
-62.0299
0
LINE
8
BLACK
6
CONTINUOUS
10
152.177
20
-62.0299
11
152.241
21
-61.991
0
LINE
8
BLACK
6
CONTINUOUS
10
152.241
20
-61.991
11
152.3
21
-61.9488
0
LINE
8
BLACK
6
CONTINUOUS
10
152.3
20
-61.9488
11
152.355
21
-61.9034
0
LINE
8
BLACK
6
CONTINUOUS
10
152.355
20
-61.9034
11
152.407
21
-61.8536
0
LINE
8
BLACK
6
CONTINUOUS
10
152.407
20
-61.8536
11
152.455
21
-61.8009
0
LINE
8
BLACK
6
CONTINUOUS
10
152.455
20
-61.8009
11
152.502
21
-61.7409
0
LINE
8
BLACK
6
CONTINUOUS
10
152.502
20
-61.7409
11
152.544
21
-61.6787
0
LINE
8
BLACK
6
CONTINUOUS
10
152.544
20
-61.6787
11
152.581
21
-61.6126
0
LINE
8
BLACK
6
CONTINUOUS
10
152.581
20
-61.6126
11
152.613
21
-61.5439
0
LINE
8
BLACK
6
CONTINUOUS
10
152.613
20
-61.5439
11
152.641
21
-61.471
0
LINE
8
BLACK
6
CONTINUOUS
10
152.641
20
-61.471
11
152.664
21
-61.391
0
LINE
8
BLACK
6
CONTINUOUS
10
152.664
20
-61.391
11
152.68
21
-61.3068
0
LINE
8
BLACK
6
CONTINUOUS
10
152.68
20
-61.3068
11
152.69
21
-61.216
0
LINE
8
BLACK
6
CONTINUOUS
10
152.69
20
-61.216
11
152.692
21
-61.1553
0
LINE
8
BLACK
6
CONTINUOUS
10
148.929
20
-24.0551
11
156.455
21
-24.0551
0
LINE
8
BLACK
6
CONTINUOUS
10
152.691
20
-61.1543
11
152.691
21
-44.1008
0
LINE
8
BLACK
6
CONTINUOUS
10
142.167
20
-81.2053
11
142.266
21
-81.2005
0
LINE
8
BLACK
6
CONTINUOUS
10
142.266
20
-81.2005
11
142.354
21
-81.1879
0
LINE
8
BLACK
6
CONTINUOUS
10
142.354
20
-81.1879
11
142.436
21
-81.1686
0
LINE
8
BLACK
6
CONTINUOUS
10
142.436
20
-81.1686
11
142.512
21
-81.144
0
LINE
8
BLACK
6
CONTINUOUS
10
142.512
20
-81.144
11
142.583
21
-81.1146
0
LINE
8
BLACK
6
CONTINUOUS
10
142.583
20
-81.1146
11
142.652
21
-81.0799
0
LINE
8
BLACK
6
CONTINUOUS
10
142.652
20
-81.0799
11
142.716
21
-81.041
0
LINE
8
BLACK
6
CONTINUOUS
10
142.716
20
-81.041
11
142.775
21
-80.9988
0
LINE
8
BLACK
6
CONTINUOUS
10
142.775
20
-80.9988
11
142.83
21
-80.9534
0
LINE
8
BLACK
6
CONTINUOUS
10
142.83
20
-80.9534
11
142.882
21
-80.9036
0
LINE
8
BLACK
6
CONTINUOUS
10
142.882
20
-80.9036
11
142.93
21
-80.8509
0
LINE
8
BLACK
6
CONTINUOUS
10
142.93
20
-80.8509
11
142.977
21
-80.7909
0
LINE
8
BLACK
6
CONTINUOUS
10
142.977
20
-80.7909
11
143.019
21
-80.7287
0
LINE
8
BLACK
6
CONTINUOUS
10
143.019
20
-80.7287
11
143.056
21
-80.6626
0
LINE
8
BLACK
6
CONTINUOUS
10
143.056
20
-80.6626
11
143.088
21
-80.5939
0
LINE
8
BLACK
6
CONTINUOUS
10
143.088
20
-80.5939
11
143.116
21
-80.521
0
LINE
8
BLACK
6
CONTINUOUS
10
143.116
20
-80.521
11
143.139
21
-80.441
0
LINE
8
BLACK
6
CONTINUOUS
10
143.139
20
-80.441
11
143.155
21
-80.3568
0
LINE
8
BLACK
6
CONTINUOUS
10
143.155
20
-80.3568
11
143.165
21
-80.266
0
LINE
8
BLACK
6
CONTINUOUS
10
143.165
20
-80.266
11
143.167
21
-80.2053
0
LINE
8
BLACK
6
CONTINUOUS
10
157.453
20
-23.0543
11
157.453
21
0
0
LINE
8
BLACK
6
CONTINUOUS
10
139.404
20
-81.2051
11
142.165
21
-81.2051
0
LINE
8
BLACK
6
CONTINUOUS
10
144.164
20
-62.1551
11
151.69
21
-62.1551
0
LINE
8
BLACK
6
CONTINUOUS
10
144.167
20
-62.1553
11
144.07
21
-62.1599
0
LINE
8
BLACK
6
CONTINUOUS
10
144.07
20
-62.1599
11
143.981
21
-62.1725
0
LINE
8
BLACK
6
CONTINUOUS
10
143.981
20
-62.1725
11
143.9
21
-62.1913
0
LINE
8
BLACK
6
CONTINUOUS
10
143.9
20
-62.1913
11
143.824
21
-62.2156
0
LINE
8
BLACK
6
CONTINUOUS
10
143.824
20
-62.2156
11
143.753
21
-62.2446
0
LINE
8
BLACK
6
CONTINUOUS
10
143.753
20
-62.2446
11
143.684
21
-62.2793
0
LINE
8
BLACK
6
CONTINUOUS
10
143.684
20
-62.2793
11
143.621
21
-62.3174
0
LINE
8
BLACK
6
CONTINUOUS
10
143.621
20
-62.3174
11
143.562
21
-62.3589
0
LINE
8
BLACK
6
CONTINUOUS
10
143.562
20
-62.3589
11
143.506
21
-62.4046
0
LINE
8
BLACK
6
CONTINUOUS
10
143.506
20
-62.4046
11
143.454
21
-62.4533
0
LINE
8
BLACK
6
CONTINUOUS
10
143.454
20
-62.4533
11
143.406
21
-62.506
0
LINE
8
BLACK
6
CONTINUOUS
10
143.406
20
-62.506
11
143.361
21
-62.5624
0
LINE
8
BLACK
6
CONTINUOUS
10
143.361
20
-62.5624
11
143.32
21
-62.6224
0
LINE
8
BLACK
6
CONTINUOUS
10
143.32
20
-62.6224
11
143.283
21
-62.6868
0
LINE
8
BLACK
6
CONTINUOUS
10
143.283
20
-62.6868
11
143.249
21
-62.758
0
LINE
8
BLACK
6
CONTINUOUS
10
143.249
20
-62.758
11
143.22
21
-62.8306
0
LINE
8
BLACK
6
CONTINUOUS
10
143.22
20
-62.8306
11
143.197
21
-62.908
0
LINE
8
BLACK
6
CONTINUOUS
10
143.197
20
-62.908
11
143.18
21
-62.9914
0
LINE
8
BLACK
6
CONTINUOUS
10
143.18
20
-62.9914
11
143.169
21
-63.0873
0
LINE
8
BLACK
6
CONTINUOUS
10
143.169
20
-63.0873
11
143.167
21
-63.1553
0
LINE
8
BLACK
6
CONTINUOUS
10
147.928
20
-42.1018
11
147.928
21
-25.0533
0
LINE
8
BLACK
6
CONTINUOUS
10
139.406
20
-81.2053
11
139.309
21
-81.2099
0
LINE
8
BLACK
6
CONTINUOUS
10
139.309
20
-81.2099
11
139.22
21
-81.2225
0
LINE
8
BLACK
6
CONTINUOUS
10
139.22
20
-81.2225
11
139.139
21
-81.2413
0
LINE
8
BLACK
6
CONTINUOUS
10
139.139
20
-81.2413
11
139.063
21
-81.2655
0
LINE
8
BLACK
6
CONTINUOUS
10
139.063
20
-81.2655
11
138.992
21
-81.2946
0
LINE
8
BLACK
6
CONTINUOUS
10
138.992
20
-81.2946
11
138.923
21
-81.3293
0
LINE
8
BLACK
6
CONTINUOUS
10
138.923
20
-81.3293
11
138.86
21
-81.3674
0
LINE
8
BLACK
6
CONTINUOUS
10
138.86
20
-81.3674
11
138.801
21
-81.4089
0
LINE
8
BLACK
6
CONTINUOUS
10
138.801
20
-81.4089
11
138.745
21
-81.4546
0
LINE
8
BLACK
6
CONTINUOUS
10
138.745
20
-81.4546
11
138.693
21
-81.5033
0
LINE
8
BLACK
6
CONTINUOUS
10
138.693
20
-81.5033
11
138.645
21
-81.556
0
LINE
8
BLACK
6
CONTINUOUS
10
138.645
20
-81.556
11
138.6
21
-81.6124
0
LINE
8
BLACK
6
CONTINUOUS
10
138.6
20
-81.6124
11
138.559
21
-81.6724
0
LINE
8
BLACK
6
CONTINUOUS
10
138.559
20
-81.6724
11
138.522
21
-81.7368
0
LINE
8
BLACK
6
CONTINUOUS
10
138.522
20
-81.7368
11
138.488
21
-81.808
0
LINE
8
BLACK
6
CONTINUOUS
10
138.488
20
-81.808
11
138.46
21
-81.8806
0
LINE
8
BLACK
6
CONTINUOUS
10
138.46
20
-81.8806
11
138.436
21
-81.958
0
LINE
8
BLACK
6
CONTINUOUS
10
138.436
20
-81.958
11
138.419
21
-82.0414
0
LINE
8
BLACK
6
CONTINUOUS
10
138.419
20
-82.0414
11
138.408
21
-82.1373
0
LINE
8
BLACK
6
CONTINUOUS
10
138.408
20
-82.1373
11
138.406
21
-82.2053
0
LINE
8
BLACK
6
CONTINUOUS
10
148.931
20
-24.0552
11
148.834
21
-24.0598
0
LINE
8
BLACK
6
CONTINUOUS
10
148.834
20
-24.0598
11
148.745
21
-24.0724
0
LINE
8
BLACK
6
CONTINUOUS
10
148.745
20
-24.0724
11
148.664
21
-24.0912
0
LINE
8
BLACK
6
CONTINUOUS
10
148.664
20
-24.0912
11
148.588
21
-24.1154
0
LINE
8
BLACK
6
CONTINUOUS
10
148.588
20
-24.1154
11
148.517
21
-24.1445
0
LINE
8
BLACK
6
CONTINUOUS
10
148.517
20
-24.1445
11
148.448
21
-24.1792
0
LINE
8
BLACK
6
CONTINUOUS
10
148.448
20
-24.1792
11
148.385
21
-24.2173
0
LINE
8
BLACK
6
CONTINUOUS
10
148.385
20
-24.2173
11
148.326
21
-24.2588
0
LINE
8
BLACK
6
CONTINUOUS
10
148.326
20
-24.2588
11
148.27
21
-24.3045
0
LINE
8
BLACK
6
CONTINUOUS
10
148.27
20
-24.3045
11
148.218
21
-24.3532
0
LINE
8
BLACK
6
CONTINUOUS
10
148.218
20
-24.3532
11
148.17
21
-24.4059
0
LINE
8
BLACK
6
CONTINUOUS
10
148.17
20
-24.4059
11
148.125
21
-24.4623
0
LINE
8
BLACK
6
CONTINUOUS
10
148.125
20
-24.4623
11
148.084
21
-24.5223
0
LINE
8
BLACK
6
CONTINUOUS
10
148.084
20
-24.5223
11
148.047
21
-24.5867
0
LINE
8
BLACK
6
CONTINUOUS
10
148.047
20
-24.5867
11
148.013
21
-24.6579
0
LINE
8
BLACK
6
CONTINUOUS
10
148.013
20
-24.6579
11
147.985
21
-24.7305
0
LINE
8
BLACK
6
CONTINUOUS
10
147.985
20
-24.7305
11
147.961
21
-24.8079
0
LINE
8
BLACK
6
CONTINUOUS
10
147.961
20
-24.8079
11
147.944
21
-24.8913
0
LINE
8
BLACK
6
CONTINUOUS
10
147.944
20
-24.8913
11
147.933
21
-24.9872
0
LINE
8
BLACK
6
CONTINUOUS
10
147.933
20
-24.9872
11
147.931
21
-25.0552
0
LINE
8
BLACK
6
CONTINUOUS
10
143.166
20
-80.2043
11
143.166
21
-63.1533
0
LINE
8
BLACK
6
CONTINUOUS
10
138.403
20
-105.4
11
138.403
21
-82.2033
0
LINE
8
BLACK
6
CONTINUOUS
10
156.456
20
-24.0552
11
156.555
21
-24.0504
0
LINE
8
BLACK
6
CONTINUOUS
10
156.555
20
-24.0504
11
156.643
21
-24.0378
0
LINE
8
BLACK
6
CONTINUOUS
10
156.643
20
-24.0378
11
156.725
21
-24.0185
0
LINE
8
BLACK
6
CONTINUOUS
10
156.725
20
-24.0185
11
156.801
21
-23.9939
0
LINE
8
BLACK
6
CONTINUOUS
10
156.801
20
-23.9939
11
156.872
21
-23.9645
0
LINE
8
BLACK
6
CONTINUOUS
10
156.872
20
-23.9645
11
156.941
21
-23.9298
0
LINE
8
BLACK
6
CONTINUOUS
10
156.941
20
-23.9298
11
157.005
21
-23.8909
0
LINE
8
BLACK
6
CONTINUOUS
10
157.005
20
-23.8909
11
157.064
21
-23.8487
0
LINE
8
BLACK
6
CONTINUOUS
10
157.064
20
-23.8487
11
157.119
21
-23.8033
0
LINE
8
BLACK
6
CONTINUOUS
10
157.119
20
-23.8033
11
157.171
21
-23.7535
0
LINE
8
BLACK
6
CONTINUOUS
10
157.171
20
-23.7535
11
157.219
21
-23.7008
0
LINE
8
BLACK
6
CONTINUOUS
10
157.219
20
-23.7008
11
157.266
21
-23.6408
0
LINE
8
BLACK
6
CONTINUOUS
10
157.266
20
-23.6408
11
157.308
21
-23.5786
0
LINE
8
BLACK
6
CONTINUOUS
10
157.308
20
-23.5786
11
157.345
21
-23.5125
0
LINE
8
BLACK
6
CONTINUOUS
10
157.345
20
-23.5125
11
157.377
21
-23.4438
0
LINE
8
BLACK
6
CONTINUOUS
10
157.377
20
-23.4438
11
157.405
21
-23.3709
0
LINE
8
BLACK
6
CONTINUOUS
10
157.405
20
-23.3709
11
157.428
21
-23.2909
0
LINE
8
BLACK
6
CONTINUOUS
10
157.428
20
-23.2909
11
157.444
21
-23.2067
0
LINE
8
BLACK
6
CONTINUOUS
10
157.444
20
-23.2067
11
157.454
21
-23.1159
0
LINE
8
BLACK
6
CONTINUOUS
10
157.454
20
-23.1159
11
157.456
21
-23.0552
0
LINE
8
BLACK
6
CONTINUOUS
10
151.69
20
-43.1018
11
148.928
21
-43.1018
0
LINE
8
BLACK
6
CONTINUOUS
10
152.692
20
-44.1025
11
152.687
21
-44.0058
0
LINE
8
BLACK
6
CONTINUOUS
10
152.687
20
-44.0058
11
152.674
21
-43.9155
0
LINE
8
BLACK
6
CONTINUOUS
10
152.674
20
-43.9155
11
152.655
21
-43.834
0
LINE
8
BLACK
6
CONTINUOUS
10
152.655
20
-43.834
11
152.63
21
-43.7565
0
LINE
8
BLACK
6
CONTINUOUS
10
152.63
20
-43.7565
11
152.6
21
-43.6837
0
LINE
8
BLACK
6
CONTINUOUS
10
152.6
20
-43.6837
11
152.566
21
-43.6173
0
LINE
8
BLACK
6
CONTINUOUS
10
152.566
20
-43.6173
11
152.527
21
-43.5531
0
LINE
8
BLACK
6
CONTINUOUS
10
152.527
20
-43.5531
11
152.485
21
-43.4931
0
LINE
8
BLACK
6
CONTINUOUS
10
152.485
20
-43.4931
11
152.438
21
-43.4374
0
LINE
8
BLACK
6
CONTINUOUS
10
152.438
20
-43.4374
11
152.389
21
-43.3862
0
LINE
8
BLACK
6
CONTINUOUS
10
152.389
20
-43.3862
11
152.336
21
-43.3381
0
LINE
8
BLACK
6
CONTINUOUS
10
152.336
20
-43.3381
11
152.279
21
-43.2935
0
LINE
8
BLACK
6
CONTINUOUS
10
152.279
20
-43.2935
11
152.218
21
-43.2524
0
LINE
8
BLACK
6
CONTINUOUS
10
152.218
20
-43.2524
11
152.154
21
-43.2158
0
LINE
8
BLACK
6
CONTINUOUS
10
152.154
20
-43.2158
11
152.086
21
-43.1834
0
LINE
8
BLACK
6
CONTINUOUS
10
152.086
20
-43.1834
11
152.012
21
-43.1548
0
LINE
8
BLACK
6
CONTINUOUS
10
152.012
20
-43.1548
11
151.932
21
-43.1315
0
LINE
8
BLACK
6
CONTINUOUS
10
151.932
20
-43.1315
11
151.848
21
-43.1147
0
LINE
8
BLACK
6
CONTINUOUS
10
151.848
20
-43.1147
11
151.757
21
-43.1046
0
LINE
8
BLACK
6
CONTINUOUS
10
151.757
20
-43.1046
11
151.692
21
-43.1025
0
ARC
8
BLACK
10
4.9
20
-4.9
40
4.9
50
90
51
180
0
ARC
8
BLACK
10
4.9
20
-100.5
40
4.9
50
180
51
270
0
LINE
8
BLACK
6
CONTINUOUS
10
142
20
0
11
157.453
21
0
0
LINE
8
BLACK
6
CONTINUOUS
10
0
20
-4.9
11
0
21
-100.5
0
LINE
8
BLACK
6
CONTINUOUS
10
4.9
20
-105.4
11
138.403
21
-105.4
0
LINE
8
BLACK
6
CONTINUOUS
10
9.00841
20
-93.7452
11
9.07299
21
-93.7095
0
LINE
8
BLACK
6
CONTINUOUS
10
9.07299
20
-93.7095
11
9.13992
21
-93.6758
0
LINE
8
BLACK
6
CONTINUOUS
10
9.13992
20
-93.6758
11
9.21011
21
-93.6438
0
LINE
8
BLACK
6
CONTINUOUS
10
9.21011
20
-93.6438
11
9.28448
21
-93.6134
0
LINE
8
BLACK
6
CONTINUOUS
10
9.28448
20
-93.6134
11
9.35975
21
-93.5863
0
LINE
8
BLACK
6
CONTINUOUS
10
9.35975
20
-93.5863
11
9.43583
21
-93.5623
0
LINE
8
BLACK
6
CONTINUOUS
10
9.43583
20
-93.5623
11
9.51646
21
-93.5406
0
LINE
8
BLACK
6
CONTINUOUS
10
9.51646
20
-93.5406
11
9.59897
21
-93.5222
0
LINE
8
BLACK
6
CONTINUOUS
10
9.59897
20
-93.5222
11
9.68887
21
-93.5063
0
LINE
8
BLACK
6
CONTINUOUS
10
9.68887
20
-93.5063
11
9.77952
21
-93.4946
0
LINE
8
BLACK
6
CONTINUOUS
10
9.77952
20
-93.4946
11
9.87396
21
-93.487
0
LINE
8
BLACK
6
CONTINUOUS
10
9.87396
20
-93.487
11
9.97453
21
-93.4839
0
LINE
8
BLACK
6
CONTINUOUS
10
9.97453
20
-93.4839
11
10.0731
21
-93.486
0
LINE
8
BLACK
6
CONTINUOUS
10
10.0731
20
-93.486
11
10.1671
21
-93.4926
0
LINE
8
BLACK
6
CONTINUOUS
10
10.1671
20
-93.4926
11
10.262
21
-93.5039
0
LINE
8
BLACK
6
CONTINUOUS
10
10.262
20
-93.5039
11
10.3496
21
-93.5186
0
LINE
8
BLACK
6
CONTINUOUS
10
10.3496
20
-93.5186
11
10.433
21
-93.5364
0
LINE
8
BLACK
6
CONTINUOUS
10
10.433
20
-93.5364
11
10.5138
21
-93.5574
0
LINE
8
BLACK
6
CONTINUOUS
10
10.5138
20
-93.5574
11
10.5938
21
-93.5819
0
LINE
8
BLACK
6
CONTINUOUS
10
10.5938
20
-93.5819
11
10.6678
21
-93.6079
0
LINE
8
BLACK
6
CONTINUOUS
10
10.6678
20
-93.6079
11
10.7401
21
-93.6367
0
LINE
8
BLACK
6
CONTINUOUS
10
10.7401
20
-93.6367
11
10.81
21
-93.6678
0
LINE
8
BLACK
6
CONTINUOUS
10
10.81
20
-93.6678
11
10.8776
21
-93.701
0
LINE
8
BLACK
6
CONTINUOUS
10
10.8776
20
-93.701
11
10.9489
21
-93.7397
0
LINE
8
BLACK
6
CONTINUOUS
10
10.9489
20
-93.7397
11
10.9584
21
-93.7452
0
LINE
8
BLACK
6
CONTINUOUS
10
11.9334
20
-95.4339
11
11.9309
21
-95.532
0
LINE
8
BLACK
6
CONTINUOUS
10
11.9309
20
-95.532
11
11.9236
21
-95.6293
0
LINE
8
BLACK
6
CONTINUOUS
10
11.9236
20
-95.6293
11
11.9125
21
-95.7191
0
LINE
8
BLACK
6
CONTINUOUS
10
11.9125
20
-95.7191
11
11.8973
21
-95.8078
0
LINE
8
BLACK
6
CONTINUOUS
10
11.8973
20
-95.8078
11
11.8791
21
-95.8911
0
LINE
8
BLACK
6
CONTINUOUS
10
11.8791
20
-95.8911
11
11.8582
21
-95.9705
0
LINE
8
BLACK
6
CONTINUOUS
10
11.8582
20
-95.9705
11
11.8343
21
-96.0477
0
LINE
8
BLACK
6
CONTINUOUS
10
11.8343
20
-96.0477
11
11.8079
21
-96.1221
0
LINE
8
BLACK
6
CONTINUOUS
10
11.8079
20
-96.1221
11
11.779
21
-96.1944
0
LINE
8
BLACK
6
CONTINUOUS
10
11.779
20
-96.1944
11
11.7459
21
-96.2683
0
LINE
8
BLACK
6
CONTINUOUS
10
11.7459
20
-96.2683
11
11.7125
21
-96.3354
0
LINE
8
BLACK
6
CONTINUOUS
10
11.7125
20
-96.3354
11
11.6768
21
-96.4008
0
LINE
8
BLACK
6
CONTINUOUS
10
11.6768
20
-96.4008
11
11.6375
21
-96.4666
0
LINE
8
BLACK
6
CONTINUOUS
10
11.6375
20
-96.4666
11
11.5973
21
-96.5284
0
LINE
8
BLACK
6
CONTINUOUS
10
11.5973
20
-96.5284
11
11.5551
21
-96.5881
0
LINE
8
BLACK
6
CONTINUOUS
10
11.5551
20
-96.5881
11
11.5108
21
-96.6462
0
LINE
8
BLACK
6
CONTINUOUS
10
11.5108
20
-96.6462
11
11.4655
21
-96.7012
0
LINE
8
BLACK
6
CONTINUOUS
10
11.4655
20
-96.7012
11
11.4181
21
-96.7546
0
LINE
8
BLACK
6
CONTINUOUS
10
11.4181
20
-96.7546
11
11.3674
21
-96.8077
0
LINE
8
BLACK
6
CONTINUOUS
10
11.3674
20
-96.8077
11
11.316
21
-96.8576
0
LINE
8
BLACK
6
CONTINUOUS
10
11.316
20
-96.8576
11
11.2627
21
-96.9057
0
LINE
8
BLACK
6
CONTINUOUS
10
11.2627
20
-96.9057
11
11.2074
21
-96.952
0
LINE
8
BLACK
6
CONTINUOUS
10
11.2074
20
-96.952
11
11.1507
21
-96.996
0
LINE
8
BLACK
6
CONTINUOUS
10
11.1507
20
-96.996
11
11.0918
21
-97.0383
0
LINE
8
BLACK
6
CONTINUOUS
10
11.0918
20
-97.0383
11
11.0289
21
-97.08
0
LINE
8
BLACK
6
CONTINUOUS
10
11.0289
20
-97.08
11
10.9633
21
-97.1199
0
LINE
8
BLACK
6
CONTINUOUS
10
10.9633
20
-97.1199
11
10.9584
21
-97.1227
0
LINE
8
BLACK
6
CONTINUOUS
10
10.9584
20
-93.7452
11
11.022
21
-93.7835
0
LINE
8
BLACK
6
CONTINUOUS
10
11.022
20
-93.7835
11
11.083
21
-93.8235
0
LINE
8
BLACK
6
CONTINUOUS
10
11.083
20
-93.8235
11
11.1418
21
-93.8653
0
LINE
8
BLACK
6
CONTINUOUS
10
11.1418
20
-93.8653
11
11.1996
21
-93.9096
0
LINE
8
BLACK
6
CONTINUOUS
10
11.1996
20
-93.9096
11
11.2551
21
-93.9556
0
LINE
8
BLACK
6
CONTINUOUS
10
11.2551
20
-93.9556
11
11.3116
21
-94.0061
0
LINE
8
BLACK
6
CONTINUOUS
10
11.3116
20
-94.0061
11
11.3632
21
-94.0559
0
LINE
8
BLACK
6
CONTINUOUS
10
11.3632
20
-94.0559
11
11.4124
21
-94.1071
0
LINE
8
BLACK
6
CONTINUOUS
10
11.4124
20
-94.1071
11
11.4626
21
-94.1632
0
LINE
8
BLACK
6
CONTINUOUS
10
11.4626
20
-94.1632
11
11.508
21
-94.2181
0
LINE
8
BLACK
6
CONTINUOUS
10
11.508
20
-94.2181
11
11.5516
21
-94.2749
0
LINE
8
BLACK
6
CONTINUOUS
10
11.5516
20
-94.2749
11
11.5939
21
-94.3345
0
LINE
8
BLACK
6
CONTINUOUS
10
11.5939
20
-94.3345
11
11.634
21
-94.3956
0
LINE
8
BLACK
6
CONTINUOUS
10
11.634
20
-94.3956
11
11.6763
21
-94.4662
0
LINE
8
BLACK
6
CONTINUOUS
10
11.6763
20
-94.4662
11
11.7134
21
-94.5342
0
LINE
8
BLACK
6
CONTINUOUS
10
11.7134
20
-94.5342
11
11.7474
21
-94.6027
0
LINE
8
BLACK
6
CONTINUOUS
10
11.7474
20
-94.6027
11
11.779
21
-94.6734
0
LINE
8
BLACK
6
CONTINUOUS
10
11.779
20
-94.6734
11
11.8084
21
-94.7469
0
LINE
8
BLACK
6
CONTINUOUS
10
11.8084
20
-94.7469
11
11.8348
21
-94.8215
0
LINE
8
BLACK
6
CONTINUOUS
10
11.8348
20
-94.8215
11
11.8586
21
-94.8988
0
LINE
8
BLACK
6
CONTINUOUS
10
11.8586
20
-94.8988
11
11.8794
21
-94.9781
0
LINE
8
BLACK
6
CONTINUOUS
10
11.8794
20
-94.9781
11
11.898
21
-95.0639
0
LINE
8
BLACK
6
CONTINUOUS
10
11.898
20
-95.0639
11
11.9128
21
-95.1508
0
LINE
8
BLACK
6
CONTINUOUS
10
11.9128
20
-95.1508
11
11.9244
21
-95.2466
0
LINE
8
BLACK
6
CONTINUOUS
10
11.9244
20
-95.2466
11
11.9312
21
-95.3414
0
LINE
8
BLACK
6
CONTINUOUS
10
11.9312
20
-95.3414
11
11.9334
21
-95.4339
0
LINE
8
BLACK
6
CONTINUOUS
10
9.00841
20
-97.1227
11
8.94306
21
-97.0832
0
LINE
8
BLACK
6
CONTINUOUS
10
8.94306
20
-97.0832
11
8.88212
21
-97.0432
0
LINE
8
BLACK
6
CONTINUOUS
10
8.88212
20
-97.0432
11
8.82176
21
-97.0002
0
LINE
8
BLACK
6
CONTINUOUS
10
8.82176
20
-97.0002
11
8.75784
21
-96.9507
0
LINE
8
BLACK
6
CONTINUOUS
10
8.75784
20
-96.9507
11
8.70303
21
-96.9047
0
LINE
8
BLACK
6
CONTINUOUS
10
8.70303
20
-96.9047
11
8.65046
21
-96.8573
0
LINE
8
BLACK
6
CONTINUOUS
10
8.65046
20
-96.8573
11
8.59943
21
-96.8077
0
LINE
8
BLACK
6
CONTINUOUS
10
8.59943
20
-96.8077
11
8.54732
21
-96.7531
0
LINE
8
BLACK
6
CONTINUOUS
10
8.54732
20
-96.7531
11
8.50004
21
-96.6997
0
LINE
8
BLACK
6
CONTINUOUS
10
8.50004
20
-96.6997
11
8.45481
21
-96.6447
0
LINE
8
BLACK
6
CONTINUOUS
10
8.45481
20
-96.6447
11
8.41137
21
-96.5877
0
LINE
8
BLACK
6
CONTINUOUS
10
8.41137
20
-96.5877
11
8.36954
21
-96.5284
0
LINE
8
BLACK
6
CONTINUOUS
10
8.36954
20
-96.5284
11
8.3297
21
-96.4673
0
LINE
8
BLACK
6
CONTINUOUS
10
8.3297
20
-96.4673
11
8.29195
21
-96.4042
0
LINE
8
BLACK
6
CONTINUOUS
10
8.29195
20
-96.4042
11
8.25613
21
-96.3389
0
LINE
8
BLACK
6
CONTINUOUS
10
8.25613
20
-96.3389
11
8.22261
21
-96.2719
0
LINE
8
BLACK
6
CONTINUOUS
10
8.22261
20
-96.2719
11
8.18856
21
-96.1962
0
LINE
8
BLACK
6
CONTINUOUS
10
8.18856
20
-96.1962
11
8.15982
21
-96.1247
0
LINE
8
BLACK
6
CONTINUOUS
10
8.15982
20
-96.1247
11
8.13327
21
-96.0501
0
LINE
8
BLACK
6
CONTINUOUS
10
8.13327
20
-96.0501
11
8.10917
21
-95.9724
0
LINE
8
BLACK
6
CONTINUOUS
10
8.10917
20
-95.9724
11
8.08783
21
-95.8916
0
LINE
8
BLACK
6
CONTINUOUS
10
8.08783
20
-95.8916
11
8.06949
21
-95.8076
0
LINE
8
BLACK
6
CONTINUOUS
10
8.06949
20
-95.8076
11
8.05462
21
-95.721
0
LINE
8
BLACK
6
CONTINUOUS
10
8.05462
20
-95.721
11
8.04339
21
-95.6313
0
LINE
8
BLACK
6
CONTINUOUS
10
8.04339
20
-95.6313
11
8.03612
21
-95.5371
0
LINE
8
BLACK
6
CONTINUOUS
10
8.03612
20
-95.5371
11
8.03341
21
-95.439
0
LINE
8
BLACK
6
CONTINUOUS
10
8.03341
20
-95.439
11
8.03341
21
-95.4339
0
LINE
8
BLACK
6
CONTINUOUS
10
8.03341
20
-95.4339
11
8.03589
21
-95.3353
0
LINE
8
BLACK
6
CONTINUOUS
10
8.03589
20
-95.3353
11
8.04319
21
-95.2386
0
LINE
8
BLACK
6
CONTINUOUS
10
8.04319
20
-95.2386
11
8.05433
21
-95.1488
0
LINE
8
BLACK
6
CONTINUOUS
10
8.05433
20
-95.1488
11
8.06954
21
-95.06
0
LINE
8
BLACK
6
CONTINUOUS
10
8.06954
20
-95.06
11
8.0883
21
-94.9743
0
LINE
8
BLACK
6
CONTINUOUS
10
8.0883
20
-94.9743
11
8.10972
21
-94.8936
0
LINE
8
BLACK
6
CONTINUOUS
10
8.10972
20
-94.8936
11
8.13452
21
-94.814
0
LINE
8
BLACK
6
CONTINUOUS
10
8.13452
20
-94.814
11
8.16122
21
-94.7395
0
LINE
8
BLACK
6
CONTINUOUS
10
8.16122
20
-94.7395
11
8.19011
21
-94.668
0
LINE
8
BLACK
6
CONTINUOUS
10
8.19011
20
-94.668
11
8.22176
21
-94.5978
0
LINE
8
BLACK
6
CONTINUOUS
10
8.22176
20
-94.5978
11
8.25521
21
-94.5307
0
LINE
8
BLACK
6
CONTINUOUS
10
8.25521
20
-94.5307
11
8.29121
21
-94.4649
0
LINE
8
BLACK
6
CONTINUOUS
10
8.29121
20
-94.4649
11
8.33075
21
-94.3989
0
LINE
8
BLACK
6
CONTINUOUS
10
8.33075
20
-94.3989
11
8.37023
21
-94.3384
0
LINE
8
BLACK
6
CONTINUOUS
10
8.37023
20
-94.3384
11
8.41166
21
-94.2797
0
LINE
8
BLACK
6
CONTINUOUS
10
8.41166
20
-94.2797
11
8.45603
21
-94.2216
0
LINE
8
BLACK
6
CONTINUOUS
10
8.45603
20
-94.2216
11
8.50132
21
-94.1666
0
LINE
8
BLACK
6
CONTINUOUS
10
8.50132
20
-94.1666
11
8.54867
21
-94.1132
0
LINE
8
BLACK
6
CONTINUOUS
10
8.54867
20
-94.1132
11
8.59768
21
-94.0619
0
LINE
8
BLACK
6
CONTINUOUS
10
8.59768
20
-94.0619
11
8.649
21
-94.0119
0
LINE
8
BLACK
6
CONTINUOUS
10
8.649
20
-94.0119
11
8.70416
21
-93.9621
0
LINE
8
BLACK
6
CONTINUOUS
10
8.70416
20
-93.9621
11
8.7594
21
-93.9159
0
LINE
8
BLACK
6
CONTINUOUS
10
8.7594
20
-93.9159
11
8.81611
21
-93.8719
0
LINE
8
BLACK
6
CONTINUOUS
10
8.81611
20
-93.8719
11
8.87546
21
-93.8292
0
LINE
8
BLACK
6
CONTINUOUS
10
8.87546
20
-93.8292
11
8.93641
21
-93.7888
0
LINE
8
BLACK
6
CONTINUOUS
10
8.93641
20
-93.7888
11
8.9987
21
-93.7508
0
LINE
8
BLACK
6
CONTINUOUS
10
8.9987
20
-93.7508
11
9.00841
21
-93.7452
0
LINE
8
BLACK
6
CONTINUOUS
10
10.9584
20
-97.1227
11
10.8934
21
-97.1586
0
LINE
8
BLACK
6
CONTINUOUS
10
10.8934
20
-97.1586
11
10.8264
21
-97.1923
0
LINE
8
BLACK
6
CONTINUOUS
10
10.8264
20
-97.1923
11
10.7567
21
-97.2241
0
LINE
8
BLACK
6
CONTINUOUS
10
10.7567
20
-97.2241
11
10.6842
21
-97.2537
0
LINE
8
BLACK
6
CONTINUOUS
10
10.6842
20
-97.2537
11
10.6071
21
-97.2816
0
LINE
8
BLACK
6
CONTINUOUS
10
10.6071
20
-97.2816
11
10.5305
21
-97.3056
0
LINE
8
BLACK
6
CONTINUOUS
10
10.5305
20
-97.3056
11
10.4508
21
-97.3271
0
LINE
8
BLACK
6
CONTINUOUS
10
10.4508
20
-97.3271
11
10.3671
21
-97.3458
0
LINE
8
BLACK
6
CONTINUOUS
10
10.3671
20
-97.3458
11
10.2814
21
-97.361
0
LINE
8
BLACK
6
CONTINUOUS
10
10.2814
20
-97.361
11
10.1873
21
-97.3732
0
LINE
8
BLACK
6
CONTINUOUS
10
10.1873
20
-97.3732
11
10.0928
21
-97.3809
0
LINE
8
BLACK
6
CONTINUOUS
10
10.0928
20
-97.3809
11
9.99425
21
-97.3839
0
LINE
8
BLACK
6
CONTINUOUS
10
9.99425
20
-97.3839
11
9.88973
21
-97.3817
0
LINE
8
BLACK
6
CONTINUOUS
10
9.88973
20
-97.3817
11
9.79377
21
-97.3747
0
LINE
8
BLACK
6
CONTINUOUS
10
9.79377
20
-97.3747
11
9.70305
21
-97.3637
0
LINE
8
BLACK
6
CONTINUOUS
10
9.70305
20
-97.3637
11
9.61719
21
-97.3493
0
LINE
8
BLACK
6
CONTINUOUS
10
9.61719
20
-97.3493
11
9.53383
21
-97.3314
0
LINE
8
BLACK
6
CONTINUOUS
10
9.53383
20
-97.3314
11
9.45161
21
-97.3101
0
LINE
8
BLACK
6
CONTINUOUS
10
9.45161
20
-97.3101
11
9.37491
21
-97.2866
0
LINE
8
BLACK
6
CONTINUOUS
10
9.37491
20
-97.2866
11
9.29993
21
-97.2603
0
LINE
8
BLACK
6
CONTINUOUS
10
9.29993
20
-97.2603
11
9.22675
21
-97.2312
0
LINE
8
BLACK
6
CONTINUOUS
10
9.22675
20
-97.2312
11
9.15681
21
-97.2001
0
LINE
8
BLACK
6
CONTINUOUS
10
9.15681
20
-97.2001
11
9.0885
21
-97.1665
0
LINE
8
BLACK
6
CONTINUOUS
10
9.0885
20
-97.1665
11
9.01991
21
-97.1293
0
LINE
8
BLACK
6
CONTINUOUS
10
9.01991
20
-97.1293
11
9.00841
21
-97.1227
0
LINE
8
BLACK
6
CONTINUOUS
10
134.008
20
-93.7452
11
134.072
21
-93.7835
0
LINE
8
BLACK
6
CONTINUOUS
10
134.072
20
-93.7835
11
134.133
21
-93.8235
0
LINE
8
BLACK
6
CONTINUOUS
10
134.133
20
-93.8235
11
134.192
21
-93.8653
0
LINE
8
BLACK
6
CONTINUOUS
10
134.192
20
-93.8653
11
134.249
21
-93.9096
0
LINE
8
BLACK
6
CONTINUOUS
10
134.249
20
-93.9096
11
134.305
21
-93.9556
0
LINE
8
BLACK
6
CONTINUOUS
10
134.305
20
-93.9556
11
134.362
21
-94.0061
0
LINE
8
BLACK
6
CONTINUOUS
10
134.362
20
-94.0061
11
134.413
21
-94.0559
0
LINE
8
BLACK
6
CONTINUOUS
10
134.413
20
-94.0559
11
134.462
21
-94.1071
0
LINE
8
BLACK
6
CONTINUOUS
10
134.462
20
-94.1071
11
134.512
21
-94.1632
0
LINE
8
BLACK
6
CONTINUOUS
10
134.512
20
-94.1632
11
134.558
21
-94.2181
0
LINE
8
BLACK
6
CONTINUOUS
10
134.558
20
-94.2181
11
134.602
21
-94.2749
0
LINE
8
BLACK
6
CONTINUOUS
10
134.602
20
-94.2749
11
134.644
21
-94.3345
0
LINE
8
BLACK
6
CONTINUOUS
10
134.644
20
-94.3345
11
134.684
21
-94.3956
0
LINE
8
BLACK
6
CONTINUOUS
10
134.684
20
-94.3956
11
134.726
21
-94.4662
0
LINE
8
BLACK
6
CONTINUOUS
10
134.726
20
-94.4662
11
134.763
21
-94.5342
0
LINE
8
BLACK
6
CONTINUOUS
10
134.763
20
-94.5342
11
134.797
21
-94.6027
0
LINE
8
BLACK
6
CONTINUOUS
10
134.797
20
-94.6027
11
134.829
21
-94.6734
0
LINE
8
BLACK
6
CONTINUOUS
10
134.829
20
-94.6734
11
134.858
21
-94.7469
0
LINE
8
BLACK
6
CONTINUOUS
10
134.858
20
-94.7469
11
134.885
21
-94.8215
0
LINE
8
BLACK
6
CONTINUOUS
10
134.885
20
-94.8215
11
134.909
21
-94.8988
0
LINE
8
BLACK
6
CONTINUOUS
10
134.909
20
-94.8988
11
134.929
21
-94.9781
0
LINE
8
BLACK
6
CONTINUOUS
10
134.929
20
-94.9781
11
134.948
21
-95.0639
0
LINE
8
BLACK
6
CONTINUOUS
10
134.948
20
-95.0639
11
134.963
21
-95.1508
0
LINE
8
BLACK
6
CONTINUOUS
10
134.963
20
-95.1508
11
134.974
21
-95.2466
0
LINE
8
BLACK
6
CONTINUOUS
10
134.974
20
-95.2466
11
134.981
21
-95.3414
0
LINE
8
BLACK
6
CONTINUOUS
10
134.981
20
-95.3414
11
134.983
21
-95.4339
0
LINE
8
BLACK
6
CONTINUOUS
10
134.008
20
-97.1227
11
133.943
21
-97.1586
0
LINE
8
BLACK
6
CONTINUOUS
10
133.943
20
-97.1586
11
133.876
21
-97.1923
0
LINE
8
BLACK
6
CONTINUOUS
10
133.876
20
-97.1923
11
133.807
21
-97.2241
0
LINE
8
BLACK
6
CONTINUOUS
10
133.807
20
-97.2241
11
133.734
21
-97.2537
0
LINE
8
BLACK
6
CONTINUOUS
10
133.734
20
-97.2537
11
133.657
21
-97.2816
0
LINE
8
BLACK
6
CONTINUOUS
10
133.657
20
-97.2816
11
133.58
21
-97.3056
0
LINE
8
BLACK
6
CONTINUOUS
10
133.58
20
-97.3056
11
133.501
21
-97.3271
0
LINE
8
BLACK
6
CONTINUOUS
10
133.501
20
-97.3271
11
133.417
21
-97.3458
0
LINE
8
BLACK
6
CONTINUOUS
10
133.417
20
-97.3458
11
133.331
21
-97.361
0
LINE
8
BLACK
6
CONTINUOUS
10
133.331
20
-97.361
11
133.237
21
-97.3732
0
LINE
8
BLACK
6
CONTINUOUS
10
133.237
20
-97.3732
11
133.143
21
-97.3809
0
LINE
8
BLACK
6
CONTINUOUS
10
133.143
20
-97.3809
11
133.044
21
-97.3839
0
LINE
8
BLACK
6
CONTINUOUS
10
133.044
20
-97.3839
11
132.94
21
-97.3817
0
LINE
8
BLACK
6
CONTINUOUS
10
132.94
20
-97.3817
11
132.844
21
-97.3747
0
LINE
8
BLACK
6
CONTINUOUS
10
132.844
20
-97.3747
11
132.753
21
-97.3637
0
LINE
8
BLACK
6
CONTINUOUS
10
132.753
20
-97.3637
11
132.667
21
-97.3493
0
LINE
8
BLACK
6
CONTINUOUS
10
132.667
20
-97.3493
11
132.584
21
-97.3314
0
LINE
8
BLACK
6
CONTINUOUS
10
132.584
20
-97.3314
11
132.502
21
-97.3101
0
LINE
8
BLACK
6
CONTINUOUS
10
132.502
20
-97.3101
11
132.425
21
-97.2866
0
LINE
8
BLACK
6
CONTINUOUS
10
132.425
20
-97.2866
11
132.35
21
-97.2603
0
LINE
8
BLACK
6
CONTINUOUS
10
132.35
20
-97.2603
11
132.277
21
-97.2312
0
LINE
8
BLACK
6
CONTINUOUS
10
132.277
20
-97.2312
11
132.207
21
-97.2001
0
LINE
8
BLACK
6
CONTINUOUS
10
132.207
20
-97.2001
11
132.138
21
-97.1665
0
LINE
8
BLACK
6
CONTINUOUS
10
132.138
20
-97.1665
11
132.07
21
-97.1293
0
LINE
8
BLACK
6
CONTINUOUS
10
132.07
20
-97.1293
11
132.058
21
-97.1227
0
LINE
8
BLACK
6
CONTINUOUS
10
134.983
20
-95.4339
11
134.981
21
-95.532
0
LINE
8
BLACK
6
CONTINUOUS
10
134.981
20
-95.532
11
134.974
21
-95.6293
0
LINE
8
BLACK
6
CONTINUOUS
10
134.974
20
-95.6293
11
134.962
21
-95.7191
0
LINE
8
BLACK
6
CONTINUOUS
10
134.962
20
-95.7191
11
134.947
21
-95.8078
0
LINE
8
BLACK
6
CONTINUOUS
10
134.947
20
-95.8078
11
134.929
21
-95.8911
0
LINE
8
BLACK
6
CONTINUOUS
10
134.929
20
-95.8911
11
134.908
21
-95.9705
0
LINE
8
BLACK
6
CONTINUOUS
10
134.908
20
-95.9705
11
134.884
21
-96.0477
0
LINE
8
BLACK
6
CONTINUOUS
10
134.884
20
-96.0477
11
134.858
21
-96.1221
0
LINE
8
BLACK
6
CONTINUOUS
10
134.858
20
-96.1221
11
134.829
21
-96.1944
0
LINE
8
BLACK
6
CONTINUOUS
10
134.829
20
-96.1944
11
134.796
21
-96.2683
0
LINE
8
BLACK
6
CONTINUOUS
10
134.796
20
-96.2683
11
134.762
21
-96.3354
0
LINE
8
BLACK
6
CONTINUOUS
10
134.762
20
-96.3354
11
134.727
21
-96.4008
0
LINE
8
BLACK
6
CONTINUOUS
10
134.727
20
-96.4008
11
134.687
21
-96.4666
0
LINE
8
BLACK
6
CONTINUOUS
10
134.687
20
-96.4666
11
134.647
21
-96.5284
0
LINE
8
BLACK
6
CONTINUOUS
10
134.647
20
-96.5284
11
134.605
21
-96.5881
0
LINE
8
BLACK
6
CONTINUOUS
10
134.605
20
-96.5881
11
134.561
21
-96.6462
0
LINE
8
BLACK
6
CONTINUOUS
10
134.561
20
-96.6462
11
134.515
21
-96.7012
0
LINE
8
BLACK
6
CONTINUOUS
10
134.515
20
-96.7012
11
134.468
21
-96.7546
0
LINE
8
BLACK
6
CONTINUOUS
10
134.468
20
-96.7546
11
134.417
21
-96.8077
0
LINE
8
BLACK
6
CONTINUOUS
10
134.417
20
-96.8077
11
134.366
21
-96.8576
0
LINE
8
BLACK
6
CONTINUOUS
10
134.366
20
-96.8576
11
134.313
21
-96.9057
0
LINE
8
BLACK
6
CONTINUOUS
10
134.313
20
-96.9057
11
134.257
21
-96.952
0
LINE
8
BLACK
6
CONTINUOUS
10
134.257
20
-96.952
11
134.201
21
-96.996
0
LINE
8
BLACK
6
CONTINUOUS
10
134.201
20
-96.996
11
134.142
21
-97.0383
0
LINE
8
BLACK
6
CONTINUOUS
10
134.142
20
-97.0383
11
134.079
21
-97.08
0
LINE
8
BLACK
6
CONTINUOUS
10
134.079
20
-97.08
11
134.013
21
-97.1199
0
LINE
8
BLACK
6
CONTINUOUS
10
134.013
20
-97.1199
11
134.008
21
-97.1227
0
LINE
8
BLACK
6
CONTINUOUS
10
132.058
20
-97.1227
11
131.993
21
-97.0832
0
LINE
8
BLACK
6
CONTINUOUS
10
131.993
20
-97.0832
11
131.932
21
-97.0432
0
LINE
8
BLACK
6
CONTINUOUS
10
131.932
20
-97.0432
11
131.872
21
-97.0002
0
LINE
8
BLACK
6
CONTINUOUS
10
131.872
20
-97.0002
11
131.808
21
-96.9507
0
LINE
8
BLACK
6
CONTINUOUS
10
131.808
20
-96.9507
11
131.753
21
-96.9047
0
LINE
8
BLACK
6
CONTINUOUS
10
131.753
20
-96.9047
11
131.7
21
-96.8573
0
LINE
8
BLACK
6
CONTINUOUS
10
131.7
20
-96.8573
11
131.649
21
-96.8077
0
LINE
8
BLACK
6
CONTINUOUS
10
131.649
20
-96.8077
11
131.597
21
-96.7531
0
LINE
8
BLACK
6
CONTINUOUS
10
131.597
20
-96.7531
11
131.55
21
-96.6997
0
LINE
8
BLACK
6
CONTINUOUS
10
131.55
20
-96.6997
11
131.505
21
-96.6447
0
LINE
8
BLACK
6
CONTINUOUS
10
131.505
20
-96.6447
11
131.461
21
-96.5877
0
LINE
8
BLACK
6
CONTINUOUS
10
131.461
20
-96.5877
11
131.419
21
-96.5284
0
LINE
8
BLACK
6
CONTINUOUS
10
131.419
20
-96.5284
11
131.38
21
-96.4673
0
LINE
8
BLACK
6
CONTINUOUS
10
131.38
20
-96.4673
11
131.342
21
-96.4042
0
LINE
8
BLACK
6
CONTINUOUS
10
131.342
20
-96.4042
11
131.306
21
-96.3389
0
LINE
8
BLACK
6
CONTINUOUS
10
131.306
20
-96.3389
11
131.273
21
-96.2719
0
LINE
8
BLACK
6
CONTINUOUS
10
131.273
20
-96.2719
11
131.238
21
-96.1962
0
LINE
8
BLACK
6
CONTINUOUS
10
131.238
20
-96.1962
11
131.21
21
-96.1247
0
LINE
8
BLACK
6
CONTINUOUS
10
131.21
20
-96.1247
11
131.183
21
-96.0501
0
LINE
8
BLACK
6
CONTINUOUS
10
131.183
20
-96.0501
11
131.159
21
-95.9724
0
LINE
8
BLACK
6
CONTINUOUS
10
131.159
20
-95.9724
11
131.138
21
-95.8916
0
LINE
8
BLACK
6
CONTINUOUS
10
131.138
20
-95.8916
11
131.119
21
-95.8076
0
LINE
8
BLACK
6
CONTINUOUS
10
131.119
20
-95.8076
11
131.105
21
-95.721
0
LINE
8
BLACK
6
CONTINUOUS
10
131.105
20
-95.721
11
131.093
21
-95.6313
0
LINE
8
BLACK
6
CONTINUOUS
10
131.093
20
-95.6313
11
131.086
21
-95.5371
0
LINE
8
BLACK
6
CONTINUOUS
10
131.086
20
-95.5371
11
131.083
21
-95.439
0
LINE
8
BLACK
6
CONTINUOUS
10
131.083
20
-95.439
11
131.083
21
-95.4339
0
LINE
8
BLACK
6
CONTINUOUS
10
131.083
20
-95.4339
11
131.086
21
-95.3353
0
LINE
8
BLACK
6
CONTINUOUS
10
131.086
20
-95.3353
11
131.093
21
-95.2386
0
LINE
8
BLACK
6
CONTINUOUS
10
131.093
20
-95.2386
11
131.104
21
-95.1488
0
LINE
8
BLACK
6
CONTINUOUS
10
131.104
20
-95.1488
11
131.119
21
-95.06
0
LINE
8
BLACK
6
CONTINUOUS
10
131.119
20
-95.06
11
131.138
21
-94.9743
0
LINE
8
BLACK
6
CONTINUOUS
10
131.138
20
-94.9743
11
131.16
21
-94.8936
0
LINE
8
BLACK
6
CONTINUOUS
10
131.16
20
-94.8936
11
131.184
21
-94.814
0
LINE
8
BLACK
6
CONTINUOUS
10
131.184
20
-94.814
11
131.211
21
-94.7395
0
LINE
8
BLACK
6
CONTINUOUS
10
131.211
20
-94.7395
11
131.24
21
-94.668
0
LINE
8
BLACK
6
CONTINUOUS
10
131.24
20
-94.668
11
131.272
21
-94.5978
0
LINE
8
BLACK
6
CONTINUOUS
10
131.272
20
-94.5978
11
131.305
21
-94.5307
0
LINE
8
BLACK
6
CONTINUOUS
10
131.305
20
-94.5307
11
131.341
21
-94.4649
0
LINE
8
BLACK
6
CONTINUOUS
10
131.341
20
-94.4649
11
131.381
21
-94.3989
0
LINE
8
BLACK
6
CONTINUOUS
10
131.381
20
-94.3989
11
131.42
21
-94.3384
0
LINE
8
BLACK
6
CONTINUOUS
10
131.42
20
-94.3384
11
131.462
21
-94.2797
0
LINE
8
BLACK
6
CONTINUOUS
10
131.462
20
-94.2797
11
131.506
21
-94.2216
0
LINE
8
BLACK
6
CONTINUOUS
10
131.506
20
-94.2216
11
131.551
21
-94.1666
0
LINE
8
BLACK
6
CONTINUOUS
10
131.551
20
-94.1666
11
131.599
21
-94.1132
0
LINE
8
BLACK
6
CONTINUOUS
10
131.599
20
-94.1132
11
131.648
21
-94.0619
0
LINE
8
BLACK
6
CONTINUOUS
10
131.648
20
-94.0619
11
131.699
21
-94.0119
0
LINE
8
BLACK
6
CONTINUOUS
10
131.699
20
-94.0119
11
131.754
21
-93.9621
0
LINE
8
BLACK
6
CONTINUOUS
10
131.754
20
-93.9621
11
131.809
21
-93.9159
0
LINE
8
BLACK
6
CONTINUOUS
10
131.809
20
-93.9159
11
131.866
21
-93.8719
0
LINE
8
BLACK
6
CONTINUOUS
10
131.866
20
-93.8719
11
131.925
21
-93.8292
0
LINE
8
BLACK
6
CONTINUOUS
10
131.925
20
-93.8292
11
131.986
21
-93.7888
0
LINE
8
BLACK
6
CONTINUOUS
10
131.986
20
-93.7888
11
132.049
21
-93.7508
0
LINE
8
BLACK
6
CONTINUOUS
10
132.049
20
-93.7508
11
132.058
21
-93.7452
0
LINE
8
BLACK
6
CONTINUOUS
10
132.058
20
-93.7452
11
132.123
21
-93.7095
0
LINE
8
BLACK
6
CONTINUOUS
10
132.123
20
-93.7095
11
132.19
21
-93.6758
0
LINE
8
BLACK
6
CONTINUOUS
10
132.19
20
-93.6758
11
132.26
21
-93.6438
0
LINE
8
BLACK
6
CONTINUOUS
10
132.26
20
-93.6438
11
132.334
21
-93.6134
0
LINE
8
BLACK
6
CONTINUOUS
10
132.334
20
-93.6134
11
132.41
21
-93.5863
0
LINE
8
BLACK
6
CONTINUOUS
10
132.41
20
-93.5863
11
132.486
21
-93.5623
0
LINE
8
BLACK
6
CONTINUOUS
10
132.486
20
-93.5623
11
132.566
21
-93.5406
0
LINE
8
BLACK
6
CONTINUOUS
10
132.566
20
-93.5406
11
132.649
21
-93.5222
0
LINE
8
BLACK
6
CONTINUOUS
10
132.649
20
-93.5222
11
132.739
21
-93.5063
0
LINE
8
BLACK
6
CONTINUOUS
10
132.739
20
-93.5063
11
132.829
21
-93.4946
0
LINE
8
BLACK
6
CONTINUOUS
10
132.829
20
-93.4946
11
132.924
21
-93.487
0
LINE
8
BLACK
6
CONTINUOUS
10
132.924
20
-93.487
11
133.024
21
-93.4839
0
LINE
8
BLACK
6
CONTINUOUS
10
133.024
20
-93.4839
11
133.123
21
-93.486
0
LINE
8
BLACK
6
CONTINUOUS
10
133.123
20
-93.486
11
133.217
21
-93.4926
0
LINE
8
BLACK
6
CONTINUOUS
10
133.217
20
-93.4926
11
133.312
21
-93.5039
0
LINE
8
BLACK
6
CONTINUOUS
10
133.312
20
-93.5039
11
133.4
21
-93.5186
0
LINE
8
BLACK
6
CONTINUOUS
10
133.4
20
-93.5186
11
133.483
21
-93.5364
0
LINE
8
BLACK
6
CONTINUOUS
10
133.483
20
-93.5364
11
133.564
21
-93.5574
0
LINE
8
BLACK
6
CONTINUOUS
10
133.564
20
-93.5574
11
133.644
21
-93.5819
0
LINE
8
BLACK
6
CONTINUOUS
10
133.644
20
-93.5819
11
133.718
21
-93.6079
0
LINE
8
BLACK
6
CONTINUOUS
10
133.718
20
-93.6079
11
133.79
21
-93.6367
0
LINE
8
BLACK
6
CONTINUOUS
10
133.79
20
-93.6367
11
133.86
21
-93.6678
0
LINE
8
BLACK
6
CONTINUOUS
10
133.86
20
-93.6678
11
133.928
21
-93.701
0
LINE
8
BLACK
6
CONTINUOUS
10
133.928
20
-93.701
11
133.999
21
-93.7397
0
LINE
8
BLACK
6
CONTINUOUS
10
133.999
20
-93.7397
11
134.008
21
-93.7452
0
LINE
8
BLACK
6
CONTINUOUS
10
20.9621
20
-98.7227
11
20.9621
21
-79.6727
0
LINE
8
BLACK
6
CONTINUOUS
10
150.613
20
-45.2746
11
145.85
21
-45.2746
0
LINE
8
BLACK
6
CONTINUOUS
10
129.451
20
-100.5
11
129.451
21
-79.1727
0
LINE
8
BLACK
6
CONTINUOUS
10
150.613
20
-60.1227
11
150.613
21
-45.2746
0
LINE
8
BLACK
6
CONTINUOUS
10
95.5509
20
-98.7227
11
95.5509
21
-100.5
0
LINE
8
BLACK
6
CONTINUOUS
10
95.5509
20
-100.5
11
129.451
21
-100.5
0
LINE
8
BLACK
6
CONTINUOUS
10
145.85
20
-45.2746
11
145.85
21
-19
0
LINE
8
BLACK
6
CONTINUOUS
10
129.451
20
-79.1727
11
141.088
21
-79.1727
0
LINE
8
BLACK
6
CONTINUOUS
10
6.67462
20
-79.6727
11
6.67462
21
-19
0
LINE
8
BLACK
6
CONTINUOUS
10
20.9621
20
-79.6727
11
6.67462
21
-79.6727
0
LINE
8
BLACK
6
CONTINUOUS
10
141.088
20
-60.1227
11
150.613
21
-60.1227
0
LINE
8
BLACK
6
CONTINUOUS
10
141.088
20
-79.1727
11
141.088
21
-60.1227
0
LINE
8
BLACK
6
CONTINUOUS
10
20.9621
20
-98.7227
11
95.5509
21
-98.7227
  0
ENDSEC
  0
EOF
