  0
SECTION
  2
HEADER
  9
$ANGBASE
  50
0.0
  9
$ANGDIR
  70
1
  9
$MEASUREMENT
  70
1
  0
ENDSEC
  0
SECTION
  2
TABLES
  0
TABLE
  2
LTYPE
  70
4
  0
LTYPE
  5
40F
  2
CONTINUOUS
  70
0
  3
Solid line
  72
65
  73
0
  40
0.0
  0
LTYPE
  5
410
  2
DASHDOT
 70
0
  3
Dash Dot ____ _ ____ _
 72
65
 73
4
 40
2.0
 49
1.25
 49
-0.25
 49
0.25
 49
-0.25
  0
LTYPE
  5
411
  2
DASHED
 70
0
  3
Dashed __ __ __ __ __
 72
65
 73
2
 40
0.75
 49
0.5
 49
-0.25
  0
LTYPE
  5
43B
  2
DOTTED
 70
0
  3
Dotted .  .  .  .
 72
65
 73
2
 40
0.2
 49
0.0
 49
-0.2
  0
ENDTAB
  0
TABLE
  2
STYLE
  70
4
  0
STYLE
  2
KICAD
  70
0
  40
0
  41
1
  42
1
  50
0
  71
0
  3
isocp.shx
  0
STYLE
  2
KICADB
  70
0
  40
0
  41
1
  42
1
  50
0
  71
0
  3
isocp.shx
  0
STYLE
  2
KICADI
  70
0
  40
0
  41
1
  42
1
  50
15
  71
0
  3
isocp.shx
  0
STYLE
  2
KICADBI
  70
0
  40
0
  41
1
  42
1
  50
15
  71
0
  3
isocp.shx
  0
ENDTAB
  0
TABLE
  2
LAYER
  70
1
  0
LAYER
  2
BLACK
  70
0
  62
7
  6
CONTINUOUS
  0
ENDTAB
  0
ENDSEC
  0
SECTION
  2
ENTITIES
0
LINE
8
BLACK
6
CONTINUOUS
10
3.338
20
-266.266
11
3.338
21
-279.52
0
ARC
8
BLACK
10
313.34
20
-279.52
40
4.9
50
-90
51
-0
0
LINE
8
BLACK
6
CONTINUOUS
10
8.238
20
-284.42
11
313.34
21
-284.42
0
LINE
8
BLACK
6
CONTINUOUS
10
160.791
20
-261.366
11
175.338
21
-261.366
0
LINE
8
BLACK
6
CONTINUOUS
10
318.24
20
-279.52
11
318.24
21
-266.266
0
ARC
8
BLACK
10
8.238
20
-266.266
40
4.9
50
90
51
180
0
ARC
8
BLACK
10
8.238
20
-279.52
40
4.9
50
180
51
270
0
ARC
8
BLACK
10
313.34
20
-266.266
40
4.9
50
-0
51
90
0
LINE
8
BLACK
6
CONTINUOUS
10
160.791
20
-284.42
11
160.791
21
-261.366
0
ARC
8
BLACK
10
193.338
20
-263.366
40
2
50
90
51
180
0
LINE
8
BLACK
6
CONTINUOUS
10
143.338
20
-275.366
11
143.338
21
-263.366
0
LINE
8
BLACK
6
CONTINUOUS
10
285.338
20
-263.366
11
285.338
21
-275.366
0
LINE
8
BLACK
6
CONTINUOUS
10
160.792
20
-284.482
11
160.794
21
-284.421
0
LINE
8
BLACK
6
CONTINUOUS
10
191.338
20
-275.366
11
191.338
21
-263.366
0
ARC
8
BLACK
10
301.338
20
-263.366
40
2
50
90
51
180
0
ARC
8
BLACK
10
175.338
20
-263.366
40
2
50
-0
51
90
0
LINE
8
BLACK
6
CONTINUOUS
10
145.338
20
-261.366
11
160.791
21
-261.366
0
ARC
8
BLACK
10
127.338
20
-263.366
40
2
50
-0
51
90
0
LINE
8
BLACK
6
CONTINUOUS
10
299.338
20
-275.366
11
299.338
21
-263.366
0
LINE
8
BLACK
6
CONTINUOUS
10
130.338
20
-276.366
11
142.338
21
-276.366
0
ARC
8
BLACK
10
283.338
20
-263.366
40
2
50
-0
51
90
0
LINE
8
BLACK
6
CONTINUOUS
10
193.338
20
-261.366
11
283.338
21
-261.366
0
LINE
8
BLACK
6
CONTINUOUS
10
177.338
20
-263.366
11
177.338
21
-275.366
0
ARC
8
BLACK
10
145.338
20
-263.366
40
2
50
90
51
180
0
ARC
8
BLACK
10
19.338
20
-263.366
40
2
50
-0
51
90
0
LINE
8
BLACK
6
CONTINUOUS
10
178.338
20
-276.366
11
190.338
21
-276.366
0
LINE
8
BLACK
6
CONTINUOUS
10
22.338
20
-276.366
11
34.338
21
-276.366
0
LINE
8
BLACK
6
CONTINUOUS
10
286.338
20
-276.366
11
298.338
21
-276.366
0
ARC
8
BLACK
10
37.338
20
-263.366
40
2
50
90
51
180
0
LINE
8
BLACK
6
CONTINUOUS
10
129.338
20
-263.366
11
129.338
21
-275.366
0
ARC
8
BLACK
10
190.338
20
-275.366
40
1
50
-90
51
-0
0
LINE
8
BLACK
6
CONTINUOUS
10
8.238
20
-261.366
11
19.338
21
-261.366
0
ARC
8
BLACK
10
22.338
20
-275.366
40
1
50
180
51
270
0
ARC
8
BLACK
10
298.338
20
-275.366
40
1
50
-90
51
-0
0
ARC
8
BLACK
10
178.338
20
-275.366
40
1
50
180
51
270
0
ARC
8
BLACK
10
142.338
20
-275.366
40
1
50
-90
51
-0
0
ARC
8
BLACK
10
130.338
20
-275.366
40
1
50
180
51
270
0
ARC
8
BLACK
10
286.338
20
-275.366
40
1
50
180
51
270
0
LINE
8
BLACK
6
CONTINUOUS
10
301.338
20
-261.366
11
313.34
21
-261.366
0
LINE
8
BLACK
6
CONTINUOUS
10
35.338
20
-275.366
11
35.338
21
-263.366
0
LINE
8
BLACK
6
CONTINUOUS
10
21.338
20
-263.366
11
21.338
21
-275.366
0
ARC
8
BLACK
10
34.338
20
-275.366
40
1
50
-90
51
-0
0
LINE
8
BLACK
6
CONTINUOUS
10
37.338
20
-261.366
11
127.338
21
-261.366
0
LINE
8
BLACK
6
CONTINUOUS
10
3.846
20
-230.706
11
3.846
21
-253.008
0
ARC
8
BLACK
10
313.848
20
-253.008
40
4.9
50
-90
51
-0
0
LINE
8
BLACK
6
CONTINUOUS
10
8.746
20
-257.908
11
142.249
21
-257.908
0
LINE
8
BLACK
6
CONTINUOUS
10
161.299
20
-225.806
11
175.846
21
-225.806
0
LINE
8
BLACK
6
CONTINUOUS
10
318.748
20
-253.008
11
318.748
21
-230.706
0
ARC
8
BLACK
10
8.746
20
-230.706
40
4.9
50
90
51
180
0
ARC
8
BLACK
10
8.746
20
-253.008
40
4.9
50
180
51
270
0
LINE
8
BLACK
6
CONTINUOUS
10
152.775
20
-249.861
11
160.301
21
-249.861
0
ARC
8
BLACK
10
313.848
20
-230.706
40
4.9
50
-0
51
90
0
LINE
8
BLACK
6
CONTINUOUS
10
142.249
20
-257.908
11
313.848
21
-257.908
0
LINE
8
BLACK
6
CONTINUOUS
10
151.774
20
-257.908
11
151.774
21
-250.859
0
LINE
8
BLACK
6
CONTINUOUS
10
152.172
20
-250.065
11
152.116
21
-250.111
0
LINE
8
BLACK
6
CONTINUOUS
10
151.831
20
-250.536
11
151.807
21
-250.614
0
LINE
8
BLACK
6
CONTINUOUS
10
152.064
20
-250.159
11
152.016
21
-250.212
0
LINE
8
BLACK
6
CONTINUOUS
10
161.299
20
-248.86
11
161.299
21
-225.806
0
LINE
8
BLACK
6
CONTINUOUS
10
151.779
20
-250.793
11
151.777
21
-250.861
0
LINE
8
BLACK
6
CONTINUOUS
10
151.79
20
-250.697
11
151.779
21
-250.793
0
LINE
8
BLACK
6
CONTINUOUS
10
151.859
20
-250.464
11
151.831
21
-250.536
0
LINE
8
BLACK
6
CONTINUOUS
10
151.807
20
-250.614
11
151.79
21
-250.697
0
LINE
8
BLACK
6
CONTINUOUS
10
151.893
20
-250.393
11
151.859
21
-250.464
0
LINE
8
BLACK
6
CONTINUOUS
10
151.93
20
-250.328
11
151.893
21
-250.393
0
LINE
8
BLACK
6
CONTINUOUS
10
151.971
20
-250.268
11
151.93
21
-250.328
0
LINE
8
BLACK
6
CONTINUOUS
10
152.294
20
-249.985
11
152.231
21
-250.023
0
LINE
8
BLACK
6
CONTINUOUS
10
152.231
20
-250.023
11
152.172
21
-250.065
0
LINE
8
BLACK
6
CONTINUOUS
10
152.016
20
-250.212
11
151.971
21
-250.268
0
LINE
8
BLACK
6
CONTINUOUS
10
152.116
20
-250.111
11
152.064
21
-250.159
0
LINE
8
BLACK
6
CONTINUOUS
10
152.51
20
-249.897
11
152.434
21
-249.921
0
LINE
8
BLACK
6
CONTINUOUS
10
152.591
20
-249.878
11
152.51
21
-249.897
0
LINE
8
BLACK
6
CONTINUOUS
10
152.68
20
-249.866
11
152.591
21
-249.878
0
LINE
8
BLACK
6
CONTINUOUS
10
152.777
20
-249.861
11
152.68
21
-249.866
0
LINE
8
BLACK
6
CONTINUOUS
10
161.29
20
-249.013
11
161.3
21
-248.922
0
LINE
8
BLACK
6
CONTINUOUS
10
161.017
20
-249.559
11
161.065
21
-249.507
0
LINE
8
BLACK
6
CONTINUOUS
10
161.223
20
-249.25
11
161.251
21
-249.177
0
LINE
8
BLACK
6
CONTINUOUS
10
161.191
20
-249.319
11
161.223
21
-249.25
0
LINE
8
BLACK
6
CONTINUOUS
10
161.065
20
-249.507
11
161.112
21
-249.447
0
LINE
8
BLACK
6
CONTINUOUS
10
160.965
20
-249.609
11
161.017
21
-249.559
0
ARC
8
BLACK
10
193.846
20
-227.806
40
2
50
90
51
180
0
LINE
8
BLACK
6
CONTINUOUS
10
160.647
20
-249.8
11
160.718
21
-249.77
0
LINE
8
BLACK
6
CONTINUOUS
10
143.846
20
-239.806
11
143.846
21
-227.806
0
LINE
8
BLACK
6
CONTINUOUS
10
285.846
20
-227.806
11
285.846
21
-239.806
0
LINE
8
BLACK
6
CONTINUOUS
10
161.3
20
-248.922
11
161.302
21
-248.861
0
LINE
8
BLACK
6
CONTINUOUS
10
160.851
20
-249.697
11
160.91
21
-249.655
0
LINE
8
BLACK
6
CONTINUOUS
10
161.274
20
-249.097
11
161.29
21
-249.013
0
LINE
8
BLACK
6
CONTINUOUS
10
160.787
20
-249.736
11
160.851
21
-249.697
0
LINE
8
BLACK
6
CONTINUOUS
10
160.571
20
-249.825
11
160.647
21
-249.8
0
LINE
8
BLACK
6
CONTINUOUS
10
161.154
20
-249.385
11
161.191
21
-249.319
0
LINE
8
BLACK
6
CONTINUOUS
10
161.112
20
-249.447
11
161.154
21
-249.385
0
LINE
8
BLACK
6
CONTINUOUS
10
160.718
20
-249.77
11
160.787
21
-249.736
0
LINE
8
BLACK
6
CONTINUOUS
10
160.489
20
-249.844
11
160.571
21
-249.825
0
LINE
8
BLACK
6
CONTINUOUS
10
160.401
20
-249.856
11
160.489
21
-249.844
0
LINE
8
BLACK
6
CONTINUOUS
10
160.302
20
-249.861
11
160.401
21
-249.856
0
LINE
8
BLACK
6
CONTINUOUS
10
191.846
20
-239.806
11
191.846
21
-227.806
0
ARC
8
BLACK
10
301.846
20
-227.806
40
2
50
90
51
180
0
ARC
8
BLACK
10
175.846
20
-227.806
40
2
50
-0
51
90
0
LINE
8
BLACK
6
CONTINUOUS
10
145.846
20
-225.806
11
161.299
21
-225.806
0
ARC
8
BLACK
10
127.846
20
-227.806
40
2
50
-0
51
90
0
LINE
8
BLACK
6
CONTINUOUS
10
299.846
20
-239.806
11
299.846
21
-227.806
0
LINE
8
BLACK
6
CONTINUOUS
10
152.363
20
-249.95
11
152.294
21
-249.985
0
LINE
8
BLACK
6
CONTINUOUS
10
130.846
20
-240.806
11
142.846
21
-240.806
0
ARC
8
BLACK
10
283.846
20
-227.806
40
2
50
-0
51
90
0
LINE
8
BLACK
6
CONTINUOUS
10
193.846
20
-225.806
11
283.846
21
-225.806
0
LINE
8
BLACK
6
CONTINUOUS
10
152.434
20
-249.921
11
152.363
21
-249.95
0
LINE
8
BLACK
6
CONTINUOUS
10
161.251
20
-249.177
11
161.274
21
-249.097
0
LINE
8
BLACK
6
CONTINUOUS
10
160.91
20
-249.655
11
160.965
21
-249.609
0
LINE
8
BLACK
6
CONTINUOUS
10
177.846
20
-227.806
11
177.846
21
-239.806
0
ARC
8
BLACK
10
145.846
20
-227.806
40
2
50
90
51
180
0
ARC
8
BLACK
10
19.846
20
-227.806
40
2
50
-0
51
90
0
LINE
8
BLACK
6
CONTINUOUS
10
178.846
20
-240.806
11
190.846
21
-240.806
0
LINE
8
BLACK
6
CONTINUOUS
10
22.846
20
-240.806
11
34.846
21
-240.806
0
LINE
8
BLACK
6
CONTINUOUS
10
286.846
20
-240.806
11
298.846
21
-240.806
0
ARC
8
BLACK
10
37.846
20
-227.806
40
2
50
90
51
180
0
LINE
8
BLACK
6
CONTINUOUS
10
129.846
20
-227.806
11
129.846
21
-239.806
0
ARC
8
BLACK
10
190.846
20
-239.806
40
1
50
-90
51
-0
0
LINE
8
BLACK
6
CONTINUOUS
10
8.746
20
-225.806
11
19.846
21
-225.806
0
ARC
8
BLACK
10
22.846
20
-239.806
40
1
50
180
51
270
0
ARC
8
BLACK
10
298.846
20
-239.806
40
1
50
-90
51
-0
0
ARC
8
BLACK
10
178.846
20
-239.806
40
1
50
180
51
270
0
ARC
8
BLACK
10
142.846
20
-239.806
40
1
50
-90
51
-0
0
ARC
8
BLACK
10
130.846
20
-239.806
40
1
50
180
51
270
0
ARC
8
BLACK
10
286.846
20
-239.806
40
1
50
180
51
270
0
LINE
8
BLACK
6
CONTINUOUS
10
301.846
20
-225.806
11
313.848
21
-225.806
0
LINE
8
BLACK
6
CONTINUOUS
10
35.846
20
-239.806
11
35.846
21
-227.806
0
LINE
8
BLACK
6
CONTINUOUS
10
21.846
20
-227.806
11
21.846
21
-239.806
0
ARC
8
BLACK
10
34.846
20
-239.806
40
1
50
-90
51
-0
0
LINE
8
BLACK
6
CONTINUOUS
10
37.846
20
-225.806
11
127.846
21
-225.806
0
ARC
8
BLACK
10
283.702
20
-123.28
40
1
50
-180
51
-90
0
ARC
8
BLACK
10
127.702
20
-123.28
40
1
50
-180
51
-90
0
ARC
8
BLACK
10
187.702
20
-123.28
40
1
50
-90
51
-0
0
ARC
8
BLACK
10
139.702
20
-123.28
40
1
50
-90
51
-0
0
ARC
8
BLACK
10
175.702
20
-123.28
40
1
50
-180
51
-90
0
ARC
8
BLACK
10
295.702
20
-123.28
40
1
50
-90
51
-0
0
ARC
8
BLACK
10
19.702
20
-123.28
40
1
50
-180
51
-90
0
ARC
8
BLACK
10
31.702
20
-123.28
40
1
50
-90
51
-0
0
LINE
8
BLACK
6
CONTINUOUS
10
175.702
20
-124.28
11
187.702
21
-124.28
0
LINE
8
BLACK
6
CONTINUOUS
10
283.702
20
-124.28
11
295.702
21
-124.28
0
LINE
8
BLACK
6
CONTINUOUS
10
126.702
20
-111.28
11
126.702
21
-123.28
0
LINE
8
BLACK
6
CONTINUOUS
10
32.702
20
-123.28
11
32.702
21
-111.28
0
LINE
8
BLACK
6
CONTINUOUS
10
18.702
20
-111.28
11
18.702
21
-123.28
0
ARC
8
BLACK
10
16.702
20
-111.28
40
2
50
-0
51
90
0
ARC
8
BLACK
10
34.702
20
-111.28
40
2
50
90
51
180
0
LINE
8
BLACK
6
CONTINUOUS
10
19.702
20
-124.28
11
31.702
21
-124.28
0
LINE
8
BLACK
6
CONTINUOUS
10
5.602
20
-109.28
11
16.702
21
-109.28
0
LINE
8
BLACK
6
CONTINUOUS
10
34.702
20
-109.28
11
124.702
21
-109.28
0
LINE
8
BLACK
6
CONTINUOUS
10
298.702
20
-109.28
11
310.704
21
-109.28
0
LINE
8
BLACK
6
CONTINUOUS
10
190.702
20
-109.28
11
280.702
21
-109.28
0
LINE
8
BLACK
6
CONTINUOUS
10
127.702
20
-124.28
11
139.702
21
-124.28
0
LINE
8
BLACK
6
CONTINUOUS
10
142.702
20
-109.28
11
158.155
21
-109.28
0
LINE
8
BLACK
6
CONTINUOUS
10
296.702
20
-123.28
11
296.702
21
-111.28
0
ARC
8
BLACK
10
280.702
20
-111.28
40
2
50
-0
51
90
0
LINE
8
BLACK
6
CONTINUOUS
10
282.702
20
-111.28
11
282.702
21
-123.28
0
ARC
8
BLACK
10
298.702
20
-111.28
40
2
50
90
51
180
0
LINE
8
BLACK
6
CONTINUOUS
10
188.702
20
-123.28
11
188.702
21
-111.28
0
ARC
8
BLACK
10
172.702
20
-111.28
40
2
50
-0
51
90
0
LINE
8
BLACK
6
CONTINUOUS
10
174.702
20
-111.28
11
174.702
21
-123.28
0
ARC
8
BLACK
10
190.702
20
-111.28
40
2
50
90
51
180
0
LINE
8
BLACK
6
CONTINUOUS
10
140.702
20
-123.28
11
140.702
21
-111.28
0
ARC
8
BLACK
10
142.702
20
-111.28
40
2
50
90
51
180
0
ARC
8
BLACK
10
124.702
20
-111.28
40
2
50
-0
51
90
0
ARC
8
BLACK
10
149.63
20
-151.382
40
1
50
-180
51
-90
0
LINE
8
BLACK
6
CONTINUOUS
10
152.392
20
-152.382
11
149.63
21
-152.382
0
LINE
8
BLACK
6
CONTINUOUS
10
153.394
20
-153.383
11
153.389
21
-153.286
0
LINE
8
BLACK
6
CONTINUOUS
10
153.389
20
-153.286
11
153.376
21
-153.196
0
LINE
8
BLACK
6
CONTINUOUS
10
153.376
20
-153.196
11
153.357
21
-153.114
0
LINE
8
BLACK
6
CONTINUOUS
10
153.357
20
-153.114
11
153.332
21
-153.037
0
LINE
8
BLACK
6
CONTINUOUS
10
153.332
20
-153.037
11
153.302
21
-152.964
0
LINE
8
BLACK
6
CONTINUOUS
10
153.302
20
-152.964
11
153.268
21
-152.897
0
LINE
8
BLACK
6
CONTINUOUS
10
153.268
20
-152.897
11
153.229
21
-152.833
0
LINE
8
BLACK
6
CONTINUOUS
10
153.229
20
-152.833
11
153.187
21
-152.773
0
LINE
8
BLACK
6
CONTINUOUS
10
153.187
20
-152.773
11
153.14
21
-152.717
0
LINE
8
BLACK
6
CONTINUOUS
10
153.14
20
-152.717
11
153.091
21
-152.666
0
LINE
8
BLACK
6
CONTINUOUS
10
153.091
20
-152.666
11
153.038
21
-152.618
0
LINE
8
BLACK
6
CONTINUOUS
10
153.038
20
-152.618
11
152.981
21
-152.574
0
LINE
8
BLACK
6
CONTINUOUS
10
152.981
20
-152.574
11
152.92
21
-152.532
0
LINE
8
BLACK
6
CONTINUOUS
10
152.92
20
-152.532
11
152.856
21
-152.496
0
LINE
8
BLACK
6
CONTINUOUS
10
152.856
20
-152.496
11
152.788
21
-152.463
0
LINE
8
BLACK
6
CONTINUOUS
10
152.788
20
-152.463
11
152.714
21
-152.435
0
LINE
8
BLACK
6
CONTINUOUS
10
152.714
20
-152.435
11
152.634
21
-152.412
0
LINE
8
BLACK
6
CONTINUOUS
10
152.634
20
-152.412
11
152.55
21
-152.395
0
LINE
8
BLACK
6
CONTINUOUS
10
152.55
20
-152.395
11
152.459
21
-152.385
0
LINE
8
BLACK
6
CONTINUOUS
10
152.459
20
-152.385
11
152.394
21
-152.383
0
LINE
8
BLACK
6
CONTINUOUS
10
157.158
20
-133.335
11
157.257
21
-133.33
0
LINE
8
BLACK
6
CONTINUOUS
10
157.257
20
-133.33
11
157.345
21
-133.318
0
LINE
8
BLACK
6
CONTINUOUS
10
157.345
20
-133.318
11
157.427
21
-133.298
0
LINE
8
BLACK
6
CONTINUOUS
10
157.427
20
-133.298
11
157.503
21
-133.274
0
LINE
8
BLACK
6
CONTINUOUS
10
157.503
20
-133.274
11
157.574
21
-133.245
0
LINE
8
BLACK
6
CONTINUOUS
10
157.574
20
-133.245
11
157.643
21
-133.21
0
LINE
8
BLACK
6
CONTINUOUS
10
157.643
20
-133.21
11
157.707
21
-133.171
0
LINE
8
BLACK
6
CONTINUOUS
10
157.707
20
-133.171
11
157.766
21
-133.129
0
LINE
8
BLACK
6
CONTINUOUS
10
157.766
20
-133.129
11
157.821
21
-133.083
0
LINE
8
BLACK
6
CONTINUOUS
10
157.821
20
-133.083
11
157.873
21
-133.034
0
LINE
8
BLACK
6
CONTINUOUS
10
157.873
20
-133.034
11
157.921
21
-132.981
0
LINE
8
BLACK
6
CONTINUOUS
10
157.921
20
-132.981
11
157.968
21
-132.921
0
LINE
8
BLACK
6
CONTINUOUS
10
157.968
20
-132.921
11
158.01
21
-132.859
0
LINE
8
BLACK
6
CONTINUOUS
10
158.01
20
-132.859
11
158.047
21
-132.792
0
LINE
8
BLACK
6
CONTINUOUS
10
158.047
20
-132.792
11
158.079
21
-132.724
0
LINE
8
BLACK
6
CONTINUOUS
10
158.079
20
-132.724
11
158.107
21
-132.651
0
LINE
8
BLACK
6
CONTINUOUS
10
158.107
20
-132.651
11
158.13
21
-132.571
0
LINE
8
BLACK
6
CONTINUOUS
10
158.13
20
-132.571
11
158.146
21
-132.487
0
LINE
8
BLACK
6
CONTINUOUS
10
158.146
20
-132.487
11
158.156
21
-132.396
0
LINE
8
BLACK
6
CONTINUOUS
10
158.156
20
-132.396
11
158.158
21
-132.335
0
LINE
8
BLACK
6
CONTINUOUS
10
139.105
20
-214.68
11
139.105
21
-191.483
0
LINE
8
BLACK
6
CONTINUOUS
10
143.868
20
-189.484
11
143.868
21
-172.433
0
LINE
8
BLACK
6
CONTINUOUS
10
149.633
20
-133.335
11
149.536
21
-133.34
0
LINE
8
BLACK
6
CONTINUOUS
10
149.536
20
-133.34
11
149.447
21
-133.352
0
LINE
8
BLACK
6
CONTINUOUS
10
149.447
20
-133.352
11
149.366
21
-133.371
0
LINE
8
BLACK
6
CONTINUOUS
10
149.366
20
-133.371
11
149.29
21
-133.395
0
LINE
8
BLACK
6
CONTINUOUS
10
149.29
20
-133.395
11
149.219
21
-133.425
0
LINE
8
BLACK
6
CONTINUOUS
10
149.219
20
-133.425
11
149.15
21
-133.459
0
LINE
8
BLACK
6
CONTINUOUS
10
149.15
20
-133.459
11
149.087
21
-133.497
0
LINE
8
BLACK
6
CONTINUOUS
10
149.087
20
-133.497
11
149.028
21
-133.539
0
LINE
8
BLACK
6
CONTINUOUS
10
149.028
20
-133.539
11
148.972
21
-133.585
0
LINE
8
BLACK
6
CONTINUOUS
10
148.972
20
-133.585
11
148.92
21
-133.633
0
LINE
8
BLACK
6
CONTINUOUS
10
148.92
20
-133.633
11
148.872
21
-133.686
0
LINE
8
BLACK
6
CONTINUOUS
10
148.872
20
-133.686
11
148.827
21
-133.742
0
LINE
8
BLACK
6
CONTINUOUS
10
148.827
20
-133.742
11
148.786
21
-133.802
0
LINE
8
BLACK
6
CONTINUOUS
10
148.786
20
-133.802
11
148.749
21
-133.867
0
LINE
8
BLACK
6
CONTINUOUS
10
148.749
20
-133.867
11
148.715
21
-133.938
0
LINE
8
BLACK
6
CONTINUOUS
10
148.715
20
-133.938
11
148.687
21
-134.011
0
LINE
8
BLACK
6
CONTINUOUS
10
148.687
20
-134.011
11
148.663
21
-134.088
0
LINE
8
BLACK
6
CONTINUOUS
10
148.663
20
-134.088
11
148.646
21
-134.171
0
LINE
8
BLACK
6
CONTINUOUS
10
148.646
20
-134.171
11
148.635
21
-134.267
0
LINE
8
BLACK
6
CONTINUOUS
10
148.635
20
-134.267
11
148.633
21
-134.335
0
LINE
8
BLACK
6
CONTINUOUS
10
140.108
20
-190.485
11
140.011
21
-190.49
0
LINE
8
BLACK
6
CONTINUOUS
10
140.011
20
-190.49
11
139.922
21
-190.502
0
LINE
8
BLACK
6
CONTINUOUS
10
139.922
20
-190.502
11
139.841
21
-190.521
0
LINE
8
BLACK
6
CONTINUOUS
10
139.841
20
-190.521
11
139.765
21
-190.546
0
LINE
8
BLACK
6
CONTINUOUS
10
139.765
20
-190.546
11
139.694
21
-190.575
0
LINE
8
BLACK
6
CONTINUOUS
10
139.694
20
-190.575
11
139.625
21
-190.609
0
LINE
8
BLACK
6
CONTINUOUS
10
139.625
20
-190.609
11
139.562
21
-190.647
0
LINE
8
BLACK
6
CONTINUOUS
10
139.562
20
-190.647
11
139.503
21
-190.689
0
LINE
8
BLACK
6
CONTINUOUS
10
139.503
20
-190.689
11
139.447
21
-190.735
0
LINE
8
BLACK
6
CONTINUOUS
10
139.447
20
-190.735
11
139.395
21
-190.783
0
LINE
8
BLACK
6
CONTINUOUS
10
139.395
20
-190.783
11
139.347
21
-190.836
0
LINE
8
BLACK
6
CONTINUOUS
10
139.347
20
-190.836
11
139.302
21
-190.892
0
LINE
8
BLACK
6
CONTINUOUS
10
139.302
20
-190.892
11
139.261
21
-190.952
0
LINE
8
BLACK
6
CONTINUOUS
10
139.261
20
-190.952
11
139.224
21
-191.017
0
LINE
8
BLACK
6
CONTINUOUS
10
139.224
20
-191.017
11
139.19
21
-191.088
0
LINE
8
BLACK
6
CONTINUOUS
10
139.19
20
-191.088
11
139.162
21
-191.161
0
LINE
8
BLACK
6
CONTINUOUS
10
139.162
20
-191.161
11
139.138
21
-191.238
0
LINE
8
BLACK
6
CONTINUOUS
10
139.138
20
-191.238
11
139.121
21
-191.321
0
LINE
8
BLACK
6
CONTINUOUS
10
139.121
20
-191.321
11
139.11
21
-191.417
0
LINE
8
BLACK
6
CONTINUOUS
10
139.11
20
-191.417
11
139.108
21
-191.485
0
LINE
8
BLACK
6
CONTINUOUS
10
148.63
20
-151.382
11
148.63
21
-134.333
0
LINE
8
BLACK
6
CONTINUOUS
10
144.869
20
-171.435
11
144.772
21
-171.44
0
LINE
8
BLACK
6
CONTINUOUS
10
144.772
20
-171.44
11
144.683
21
-171.452
0
LINE
8
BLACK
6
CONTINUOUS
10
144.683
20
-171.452
11
144.602
21
-171.471
0
LINE
8
BLACK
6
CONTINUOUS
10
144.602
20
-171.471
11
144.526
21
-171.496
0
LINE
8
BLACK
6
CONTINUOUS
10
144.526
20
-171.496
11
144.455
21
-171.525
0
LINE
8
BLACK
6
CONTINUOUS
10
144.455
20
-171.525
11
144.386
21
-171.559
0
LINE
8
BLACK
6
CONTINUOUS
10
144.386
20
-171.559
11
144.323
21
-171.597
0
LINE
8
BLACK
6
CONTINUOUS
10
144.323
20
-171.597
11
144.264
21
-171.639
0
LINE
8
BLACK
6
CONTINUOUS
10
144.264
20
-171.639
11
144.208
21
-171.685
0
LINE
8
BLACK
6
CONTINUOUS
10
144.208
20
-171.685
11
144.156
21
-171.733
0
LINE
8
BLACK
6
CONTINUOUS
10
144.156
20
-171.733
11
144.108
21
-171.786
0
LINE
8
BLACK
6
CONTINUOUS
10
144.108
20
-171.786
11
144.063
21
-171.842
0
LINE
8
BLACK
6
CONTINUOUS
10
144.063
20
-171.842
11
144.022
21
-171.902
0
LINE
8
BLACK
6
CONTINUOUS
10
144.022
20
-171.902
11
143.985
21
-171.967
0
LINE
8
BLACK
6
CONTINUOUS
10
143.985
20
-171.967
11
143.951
21
-172.038
0
LINE
8
BLACK
6
CONTINUOUS
10
143.951
20
-172.038
11
143.922
21
-172.111
0
LINE
8
BLACK
6
CONTINUOUS
10
143.922
20
-172.111
11
143.899
21
-172.188
0
LINE
8
BLACK
6
CONTINUOUS
10
143.899
20
-172.188
11
143.882
21
-172.271
0
LINE
8
BLACK
6
CONTINUOUS
10
143.882
20
-172.271
11
143.871
21
-172.367
0
LINE
8
BLACK
6
CONTINUOUS
10
143.871
20
-172.367
11
143.869
21
-172.435
0
LINE
8
BLACK
6
CONTINUOUS
10
144.866
20
-171.435
11
152.392
21
-171.435
0
LINE
8
BLACK
6
CONTINUOUS
10
140.106
20
-190.485
11
142.867
21
-190.485
0
LINE
8
BLACK
6
CONTINUOUS
10
158.155
20
-132.334
11
158.155
21
-109.28
0
LINE
8
BLACK
6
CONTINUOUS
10
142.869
20
-190.485
11
142.968
21
-190.48
0
LINE
8
BLACK
6
CONTINUOUS
10
142.968
20
-190.48
11
143.056
21
-190.468
0
LINE
8
BLACK
6
CONTINUOUS
10
143.056
20
-190.468
11
143.138
21
-190.449
0
LINE
8
BLACK
6
CONTINUOUS
10
143.138
20
-190.449
11
143.214
21
-190.424
0
LINE
8
BLACK
6
CONTINUOUS
10
143.214
20
-190.424
11
143.285
21
-190.395
0
LINE
8
BLACK
6
CONTINUOUS
10
143.285
20
-190.395
11
143.354
21
-190.36
0
LINE
8
BLACK
6
CONTINUOUS
10
143.354
20
-190.36
11
143.418
21
-190.321
0
LINE
8
BLACK
6
CONTINUOUS
10
143.418
20
-190.321
11
143.477
21
-190.279
0
LINE
8
BLACK
6
CONTINUOUS
10
143.477
20
-190.279
11
143.532
21
-190.233
0
LINE
8
BLACK
6
CONTINUOUS
10
143.532
20
-190.233
11
143.584
21
-190.184
0
LINE
8
BLACK
6
CONTINUOUS
10
143.584
20
-190.184
11
143.632
21
-190.131
0
LINE
8
BLACK
6
CONTINUOUS
10
143.632
20
-190.131
11
143.679
21
-190.071
0
LINE
8
BLACK
6
CONTINUOUS
10
143.679
20
-190.071
11
143.721
21
-190.009
0
LINE
8
BLACK
6
CONTINUOUS
10
143.721
20
-190.009
11
143.758
21
-189.943
0
LINE
8
BLACK
6
CONTINUOUS
10
143.758
20
-189.943
11
143.79
21
-189.874
0
LINE
8
BLACK
6
CONTINUOUS
10
143.79
20
-189.874
11
143.818
21
-189.801
0
LINE
8
BLACK
6
CONTINUOUS
10
143.818
20
-189.801
11
143.841
21
-189.721
0
LINE
8
BLACK
6
CONTINUOUS
10
143.841
20
-189.721
11
143.857
21
-189.637
0
LINE
8
BLACK
6
CONTINUOUS
10
143.857
20
-189.637
11
143.867
21
-189.546
0
LINE
8
BLACK
6
CONTINUOUS
10
143.867
20
-189.546
11
143.869
21
-189.485
0
LINE
8
BLACK
6
CONTINUOUS
10
153.393
20
-170.434
11
153.393
21
-153.381
0
LINE
8
BLACK
6
CONTINUOUS
10
149.631
20
-133.335
11
157.157
21
-133.335
0
LINE
8
BLACK
6
CONTINUOUS
10
152.394
20
-171.435
11
152.493
21
-171.43
0
LINE
8
BLACK
6
CONTINUOUS
10
152.493
20
-171.43
11
152.581
21
-171.418
0
LINE
8
BLACK
6
CONTINUOUS
10
152.581
20
-171.418
11
152.663
21
-171.399
0
LINE
8
BLACK
6
CONTINUOUS
10
152.663
20
-171.399
11
152.739
21
-171.374
0
LINE
8
BLACK
6
CONTINUOUS
10
152.739
20
-171.374
11
152.81
21
-171.345
0
LINE
8
BLACK
6
CONTINUOUS
10
152.81
20
-171.345
11
152.879
21
-171.31
0
LINE
8
BLACK
6
CONTINUOUS
10
152.879
20
-171.31
11
152.943
21
-171.271
0
LINE
8
BLACK
6
CONTINUOUS
10
152.943
20
-171.271
11
153.002
21
-171.229
0
LINE
8
BLACK
6
CONTINUOUS
10
153.002
20
-171.229
11
153.057
21
-171.183
0
LINE
8
BLACK
6
CONTINUOUS
10
153.057
20
-171.183
11
153.109
21
-171.134
0
LINE
8
BLACK
6
CONTINUOUS
10
153.109
20
-171.134
11
153.157
21
-171.081
0
LINE
8
BLACK
6
CONTINUOUS
10
153.157
20
-171.081
11
153.204
21
-171.021
0
LINE
8
BLACK
6
CONTINUOUS
10
153.204
20
-171.021
11
153.246
21
-170.959
0
LINE
8
BLACK
6
CONTINUOUS
10
153.246
20
-170.959
11
153.283
21
-170.893
0
LINE
8
BLACK
6
CONTINUOUS
10
153.283
20
-170.893
11
153.315
21
-170.824
0
LINE
8
BLACK
6
CONTINUOUS
10
153.315
20
-170.824
11
153.343
21
-170.751
0
LINE
8
BLACK
6
CONTINUOUS
10
153.343
20
-170.751
11
153.366
21
-170.671
0
LINE
8
BLACK
6
CONTINUOUS
10
153.366
20
-170.671
11
153.382
21
-170.587
0
LINE
8
BLACK
6
CONTINUOUS
10
153.382
20
-170.587
11
153.392
21
-170.496
0
LINE
8
BLACK
6
CONTINUOUS
10
153.392
20
-170.496
11
153.394
21
-170.435
0
ARC
8
BLACK
10
5.602
20
-114.18
40
4.9
50
90
51
180
0
ARC
8
BLACK
10
5.602
20
-209.78
40
4.9
50
180
51
270
0
ARC
8
BLACK
10
310.704
20
-114.18
40
4.9
50
-0
51
90
0
ARC
8
BLACK
10
310.704
20
-209.78
40
4.9
50
-90
51
-0
0
LINE
8
BLACK
6
CONTINUOUS
10
315.604
20
-209.78
11
315.604
21
-114.18
0
LINE
8
BLACK
6
CONTINUOUS
10
158.155
20
-109.28
11
172.702
21
-109.28
0
LINE
8
BLACK
6
CONTINUOUS
10
5.602
20
-214.68
11
139.105
21
-214.68
0
LINE
8
BLACK
6
CONTINUOUS
10
139.105
20
-214.68
11
310.704
21
-214.68
0
LINE
8
BLACK
6
CONTINUOUS
10
0.702
20
-114.18
11
0.702
21
-209.78
  0
ENDSEC
  0
EOF
