<?xml version="1.0" standalone="no"?>
 <!DOCTYPE svg PUBLIC "-//W3C//DTD SVG 1.1//EN" 
 "http://www.w3.org/Graphics/SVG/1.1/DTD/svg11.dtd"> 
<svg xmlns="http://www.w3.org/2000/svg" version="1.1" 
    width="59.4004cm" height="41.9989cm" viewBox="0 0 233860 165350 ">
<title>SVG Picture created as CASE_Cutting-Cmts_User.svg date 2020/03/06 00:48:26 </title>
  <desc>Picture generated by PCBNEW </desc>
<g style="fill:#000000; fill-opacity:1;stroke:#000000; stroke-opacity:1;
stroke-linecap:round; stroke-linejoin:round; "
 transform="translate(0 0) scale(1 1)">
</g>
<g style="fill:#000000; fill-opacity:0.0; 
stroke:#000000; stroke-width:-0.000393701; stroke-opacity:1; 
stroke-linecap:round; stroke-linejoin:round;">
</g>
<g style="fill:#000084; fill-opacity:0.0; 
stroke:#000084; stroke-width:-0.000393701; stroke-opacity:1; 
stroke-linecap:round; stroke-linejoin:round;">
</g>
<g style="fill:#000084; fill-opacity:0.0; 
stroke:#000084; stroke-width:39.3701; stroke-opacity:1; 
stroke-linecap:round; stroke-linejoin:round;">
<path d="M65158 8924
L65158 7015
" />
<path d="M57658 46601
L57658 48511
" />
<path d="M3168 7015
L65158 7015
" />
<path d="M65158 8924
L125256 8924
" />
<path d="M3168 48511
L57658 48511
" />
<path d="M57658 46601
L5078 46601
" />
<path d="M57658 48511
L127165 48511
" />
<path d="M65158 8924
L65158 7015
" />
<path d="M57658 46601
L57658 48511
" />
<path d="M3168 7015
L3168 48511
" />
<path d="M65158 7015
L127165 7015
" />
<path d="M127165 48511
L127165 7015
" />
<path d="M5078 8924
L65158 8924
" />
<path d="M5078 46601
L5078 8924
" />
<path d="M125256 46601
L57658 46601
" />
<path d="M125256 8924
L125256 46601
" />
<g >
</g>
</g>
<g style="fill:#000000; fill-opacity:0.0; 
stroke:#000000; stroke-width:39.3701; stroke-opacity:1; 
stroke-linecap:round; stroke-linejoin:round;">
<g >
</g>
</g> 
</svg>
