  0
SECTION
  2
HEADER
  9
$ANGBASE
  50
0.0
  9
$ANGDIR
  70
1
  9
$MEASUREMENT
  70
1
  0
ENDSEC
  0
SECTION
  2
TABLES
  0
TABLE
  2
LTYPE
  70
4
  0
LTYPE
  5
40F
  2
CONTINUOUS
  70
0
  3
Solid line
  72
65
  73
0
  40
0.0
  0
LTYPE
  5
410
  2
DASHDOT
 70
0
  3
Dash Dot ____ _ ____ _
 72
65
 73
4
 40
2.0
 49
1.25
 49
-0.25
 49
0.25
 49
-0.25
  0
LTYPE
  5
411
  2
DASHED
 70
0
  3
Dashed __ __ __ __ __
 72
65
 73
2
 40
0.75
 49
0.5
 49
-0.25
  0
LTYPE
  5
43B
  2
DOTTED
 70
0
  3
Dotted .  .  .  .
 72
65
 73
2
 40
0.2
 49
0.0
 49
-0.2
  0
ENDTAB
  0
TABLE
  2
STYLE
  70
4
  0
STYLE
  2
KICAD
  70
0
  40
0
  41
1
  42
1
  50
0
  71
0
  3
isocp.shx
  0
STYLE
  2
KICADB
  70
0
  40
0
  41
1
  42
1
  50
0
  71
0
  3
isocp.shx
  0
STYLE
  2
KICADI
  70
0
  40
0
  41
1
  42
1
  50
15
  71
0
  3
isocp.shx
  0
STYLE
  2
KICADBI
  70
0
  40
0
  41
1
  42
1
  50
15
  71
0
  3
isocp.shx
  0
ENDTAB
  0
TABLE
  2
LAYER
  70
1
  0
LAYER
  2
BLACK
  70
0
  62
7
  6
CONTINUOUS
  0
ENDTAB
  0
ENDSEC
  0
SECTION
  2
ENTITIES
0
ARC
8
BLACK
10
283
20
-14
40
1
50
-180
51
-90
0
ARC
8
BLACK
10
127
20
-14
40
1
50
-180
51
-90
0
ARC
8
BLACK
10
187
20
-14
40
1
50
-90
51
-0
0
ARC
8
BLACK
10
139
20
-14
40
1
50
-90
51
-0
0
ARC
8
BLACK
10
175
20
-14
40
1
50
-180
51
-90
0
ARC
8
BLACK
10
295
20
-14
40
1
50
-90
51
-0
0
ARC
8
BLACK
10
19
20
-14
40
1
50
-180
51
-90
0
ARC
8
BLACK
10
31
20
-14
40
1
50
-90
51
-0
0
LINE
8
BLACK
6
CONTINUOUS
10
175
20
-15
11
187
21
-15
0
LINE
8
BLACK
6
CONTINUOUS
10
283
20
-15
11
295
21
-15
0
LINE
8
BLACK
6
CONTINUOUS
10
126
20
-2
11
126
21
-14
0
LINE
8
BLACK
6
CONTINUOUS
10
32
20
-14
11
32
21
-2
0
LINE
8
BLACK
6
CONTINUOUS
10
18
20
-2
11
18
21
-14
0
ARC
8
BLACK
10
16
20
-2
40
2
50
-0
51
90
0
ARC
8
BLACK
10
34
20
-2
40
2
50
90
51
180
0
LINE
8
BLACK
6
CONTINUOUS
10
19
20
-15
11
31
21
-15
0
LINE
8
BLACK
6
CONTINUOUS
10
4.9
20
0
11
16
21
0
0
LINE
8
BLACK
6
CONTINUOUS
10
34
20
0
11
124
21
0
0
LINE
8
BLACK
6
CONTINUOUS
10
298
20
0
11
310.002
21
0
0
LINE
8
BLACK
6
CONTINUOUS
10
190
20
0
11
280
21
0
0
LINE
8
BLACK
6
CONTINUOUS
10
127
20
-15
11
139
21
-15
0
LINE
8
BLACK
6
CONTINUOUS
10
142
20
0
11
157.453
21
0
0
LINE
8
BLACK
6
CONTINUOUS
10
296
20
-14
11
296
21
-2
0
ARC
8
BLACK
10
280
20
-2
40
2
50
-0
51
90
0
LINE
8
BLACK
6
CONTINUOUS
10
282
20
-2
11
282
21
-14
0
ARC
8
BLACK
10
298
20
-2
40
2
50
90
51
180
0
LINE
8
BLACK
6
CONTINUOUS
10
188
20
-14
11
188
21
-2
0
ARC
8
BLACK
10
172
20
-2
40
2
50
-0
51
90
0
LINE
8
BLACK
6
CONTINUOUS
10
174
20
-2
11
174
21
-14
0
ARC
8
BLACK
10
190
20
-2
40
2
50
90
51
180
0
LINE
8
BLACK
6
CONTINUOUS
10
140
20
-14
11
140
21
-2
0
ARC
8
BLACK
10
142
20
-2
40
2
50
90
51
180
0
ARC
8
BLACK
10
124
20
-2
40
2
50
-0
51
90
0
ARC
8
BLACK
10
148.928
20
-42.1018
40
1
50
-180
51
-90
0
LINE
8
BLACK
6
CONTINUOUS
10
151.69
20
-43.1018
11
148.928
21
-43.1018
0
LINE
8
BLACK
6
CONTINUOUS
10
152.692
20
-44.1025
11
152.687
21
-44.0058
0
LINE
8
BLACK
6
CONTINUOUS
10
152.687
20
-44.0058
11
152.674
21
-43.9155
0
LINE
8
BLACK
6
CONTINUOUS
10
152.674
20
-43.9155
11
152.655
21
-43.834
0
LINE
8
BLACK
6
CONTINUOUS
10
152.655
20
-43.834
11
152.63
21
-43.7565
0
LINE
8
BLACK
6
CONTINUOUS
10
152.63
20
-43.7565
11
152.6
21
-43.6837
0
LINE
8
BLACK
6
CONTINUOUS
10
152.6
20
-43.6837
11
152.566
21
-43.6173
0
LINE
8
BLACK
6
CONTINUOUS
10
152.566
20
-43.6173
11
152.527
21
-43.5531
0
LINE
8
BLACK
6
CONTINUOUS
10
152.527
20
-43.5531
11
152.485
21
-43.4931
0
LINE
8
BLACK
6
CONTINUOUS
10
152.485
20
-43.4931
11
152.438
21
-43.4374
0
LINE
8
BLACK
6
CONTINUOUS
10
152.438
20
-43.4374
11
152.389
21
-43.3862
0
LINE
8
BLACK
6
CONTINUOUS
10
152.389
20
-43.3862
11
152.336
21
-43.3381
0
LINE
8
BLACK
6
CONTINUOUS
10
152.336
20
-43.3381
11
152.279
21
-43.2935
0
LINE
8
BLACK
6
CONTINUOUS
10
152.279
20
-43.2935
11
152.218
21
-43.2524
0
LINE
8
BLACK
6
CONTINUOUS
10
152.218
20
-43.2524
11
152.154
21
-43.2158
0
LINE
8
BLACK
6
CONTINUOUS
10
152.154
20
-43.2158
11
152.086
21
-43.1834
0
LINE
8
BLACK
6
CONTINUOUS
10
152.086
20
-43.1834
11
152.012
21
-43.1548
0
LINE
8
BLACK
6
CONTINUOUS
10
152.012
20
-43.1548
11
151.932
21
-43.1315
0
LINE
8
BLACK
6
CONTINUOUS
10
151.932
20
-43.1315
11
151.848
21
-43.1147
0
LINE
8
BLACK
6
CONTINUOUS
10
151.848
20
-43.1147
11
151.757
21
-43.1046
0
LINE
8
BLACK
6
CONTINUOUS
10
151.757
20
-43.1046
11
151.692
21
-43.1025
0
LINE
8
BLACK
6
CONTINUOUS
10
156.456
20
-24.0552
11
156.555
21
-24.0504
0
LINE
8
BLACK
6
CONTINUOUS
10
156.555
20
-24.0504
11
156.643
21
-24.0378
0
LINE
8
BLACK
6
CONTINUOUS
10
156.643
20
-24.0378
11
156.725
21
-24.0185
0
LINE
8
BLACK
6
CONTINUOUS
10
156.725
20
-24.0185
11
156.801
21
-23.9939
0
LINE
8
BLACK
6
CONTINUOUS
10
156.801
20
-23.9939
11
156.872
21
-23.9645
0
LINE
8
BLACK
6
CONTINUOUS
10
156.872
20
-23.9645
11
156.941
21
-23.9298
0
LINE
8
BLACK
6
CONTINUOUS
10
156.941
20
-23.9298
11
157.005
21
-23.8909
0
LINE
8
BLACK
6
CONTINUOUS
10
157.005
20
-23.8909
11
157.064
21
-23.8487
0
LINE
8
BLACK
6
CONTINUOUS
10
157.064
20
-23.8487
11
157.119
21
-23.8033
0
LINE
8
BLACK
6
CONTINUOUS
10
157.119
20
-23.8033
11
157.171
21
-23.7535
0
LINE
8
BLACK
6
CONTINUOUS
10
157.171
20
-23.7535
11
157.219
21
-23.7008
0
LINE
8
BLACK
6
CONTINUOUS
10
157.219
20
-23.7008
11
157.266
21
-23.6408
0
LINE
8
BLACK
6
CONTINUOUS
10
157.266
20
-23.6408
11
157.308
21
-23.5786
0
LINE
8
BLACK
6
CONTINUOUS
10
157.308
20
-23.5786
11
157.345
21
-23.5125
0
LINE
8
BLACK
6
CONTINUOUS
10
157.345
20
-23.5125
11
157.377
21
-23.4438
0
LINE
8
BLACK
6
CONTINUOUS
10
157.377
20
-23.4438
11
157.405
21
-23.3709
0
LINE
8
BLACK
6
CONTINUOUS
10
157.405
20
-23.3709
11
157.428
21
-23.2909
0
LINE
8
BLACK
6
CONTINUOUS
10
157.428
20
-23.2909
11
157.444
21
-23.2067
0
LINE
8
BLACK
6
CONTINUOUS
10
157.444
20
-23.2067
11
157.454
21
-23.1159
0
LINE
8
BLACK
6
CONTINUOUS
10
157.454
20
-23.1159
11
157.456
21
-23.0552
0
LINE
8
BLACK
6
CONTINUOUS
10
138.403
20
-105.4
11
138.403
21
-82.2033
0
LINE
8
BLACK
6
CONTINUOUS
10
143.166
20
-80.2043
11
143.166
21
-63.1533
0
LINE
8
BLACK
6
CONTINUOUS
10
148.931
20
-24.0552
11
148.834
21
-24.0598
0
LINE
8
BLACK
6
CONTINUOUS
10
148.834
20
-24.0598
11
148.745
21
-24.0724
0
LINE
8
BLACK
6
CONTINUOUS
10
148.745
20
-24.0724
11
148.664
21
-24.0912
0
LINE
8
BLACK
6
CONTINUOUS
10
148.664
20
-24.0912
11
148.588
21
-24.1154
0
LINE
8
BLACK
6
CONTINUOUS
10
148.588
20
-24.1154
11
148.517
21
-24.1445
0
LINE
8
BLACK
6
CONTINUOUS
10
148.517
20
-24.1445
11
148.448
21
-24.1792
0
LINE
8
BLACK
6
CONTINUOUS
10
148.448
20
-24.1792
11
148.385
21
-24.2173
0
LINE
8
BLACK
6
CONTINUOUS
10
148.385
20
-24.2173
11
148.326
21
-24.2588
0
LINE
8
BLACK
6
CONTINUOUS
10
148.326
20
-24.2588
11
148.27
21
-24.3045
0
LINE
8
BLACK
6
CONTINUOUS
10
148.27
20
-24.3045
11
148.218
21
-24.3532
0
LINE
8
BLACK
6
CONTINUOUS
10
148.218
20
-24.3532
11
148.17
21
-24.4059
0
LINE
8
BLACK
6
CONTINUOUS
10
148.17
20
-24.4059
11
148.125
21
-24.4623
0
LINE
8
BLACK
6
CONTINUOUS
10
148.125
20
-24.4623
11
148.084
21
-24.5223
0
LINE
8
BLACK
6
CONTINUOUS
10
148.084
20
-24.5223
11
148.047
21
-24.5867
0
LINE
8
BLACK
6
CONTINUOUS
10
148.047
20
-24.5867
11
148.013
21
-24.6579
0
LINE
8
BLACK
6
CONTINUOUS
10
148.013
20
-24.6579
11
147.985
21
-24.7305
0
LINE
8
BLACK
6
CONTINUOUS
10
147.985
20
-24.7305
11
147.961
21
-24.8079
0
LINE
8
BLACK
6
CONTINUOUS
10
147.961
20
-24.8079
11
147.944
21
-24.8913
0
LINE
8
BLACK
6
CONTINUOUS
10
147.944
20
-24.8913
11
147.933
21
-24.9872
0
LINE
8
BLACK
6
CONTINUOUS
10
147.933
20
-24.9872
11
147.931
21
-25.0552
0
LINE
8
BLACK
6
CONTINUOUS
10
139.406
20
-81.2053
11
139.309
21
-81.2099
0
LINE
8
BLACK
6
CONTINUOUS
10
139.309
20
-81.2099
11
139.22
21
-81.2225
0
LINE
8
BLACK
6
CONTINUOUS
10
139.22
20
-81.2225
11
139.139
21
-81.2413
0
LINE
8
BLACK
6
CONTINUOUS
10
139.139
20
-81.2413
11
139.063
21
-81.2655
0
LINE
8
BLACK
6
CONTINUOUS
10
139.063
20
-81.2655
11
138.992
21
-81.2946
0
LINE
8
BLACK
6
CONTINUOUS
10
138.992
20
-81.2946
11
138.923
21
-81.3293
0
LINE
8
BLACK
6
CONTINUOUS
10
138.923
20
-81.3293
11
138.86
21
-81.3674
0
LINE
8
BLACK
6
CONTINUOUS
10
138.86
20
-81.3674
11
138.801
21
-81.4089
0
LINE
8
BLACK
6
CONTINUOUS
10
138.801
20
-81.4089
11
138.745
21
-81.4546
0
LINE
8
BLACK
6
CONTINUOUS
10
138.745
20
-81.4546
11
138.693
21
-81.5033
0
LINE
8
BLACK
6
CONTINUOUS
10
138.693
20
-81.5033
11
138.645
21
-81.556
0
LINE
8
BLACK
6
CONTINUOUS
10
138.645
20
-81.556
11
138.6
21
-81.6124
0
LINE
8
BLACK
6
CONTINUOUS
10
138.6
20
-81.6124
11
138.559
21
-81.6724
0
LINE
8
BLACK
6
CONTINUOUS
10
138.559
20
-81.6724
11
138.522
21
-81.7368
0
LINE
8
BLACK
6
CONTINUOUS
10
138.522
20
-81.7368
11
138.488
21
-81.808
0
LINE
8
BLACK
6
CONTINUOUS
10
138.488
20
-81.808
11
138.46
21
-81.8806
0
LINE
8
BLACK
6
CONTINUOUS
10
138.46
20
-81.8806
11
138.436
21
-81.958
0
LINE
8
BLACK
6
CONTINUOUS
10
138.436
20
-81.958
11
138.419
21
-82.0414
0
LINE
8
BLACK
6
CONTINUOUS
10
138.419
20
-82.0414
11
138.408
21
-82.1373
0
LINE
8
BLACK
6
CONTINUOUS
10
138.408
20
-82.1373
11
138.406
21
-82.2053
0
LINE
8
BLACK
6
CONTINUOUS
10
147.928
20
-42.1018
11
147.928
21
-25.0533
0
LINE
8
BLACK
6
CONTINUOUS
10
144.167
20
-62.1553
11
144.07
21
-62.1599
0
LINE
8
BLACK
6
CONTINUOUS
10
144.07
20
-62.1599
11
143.981
21
-62.1725
0
LINE
8
BLACK
6
CONTINUOUS
10
143.981
20
-62.1725
11
143.9
21
-62.1913
0
LINE
8
BLACK
6
CONTINUOUS
10
143.9
20
-62.1913
11
143.824
21
-62.2156
0
LINE
8
BLACK
6
CONTINUOUS
10
143.824
20
-62.2156
11
143.753
21
-62.2446
0
LINE
8
BLACK
6
CONTINUOUS
10
143.753
20
-62.2446
11
143.684
21
-62.2793
0
LINE
8
BLACK
6
CONTINUOUS
10
143.684
20
-62.2793
11
143.621
21
-62.3174
0
LINE
8
BLACK
6
CONTINUOUS
10
143.621
20
-62.3174
11
143.562
21
-62.3589
0
LINE
8
BLACK
6
CONTINUOUS
10
143.562
20
-62.3589
11
143.506
21
-62.4046
0
LINE
8
BLACK
6
CONTINUOUS
10
143.506
20
-62.4046
11
143.454
21
-62.4533
0
LINE
8
BLACK
6
CONTINUOUS
10
143.454
20
-62.4533
11
143.406
21
-62.506
0
LINE
8
BLACK
6
CONTINUOUS
10
143.406
20
-62.506
11
143.361
21
-62.5624
0
LINE
8
BLACK
6
CONTINUOUS
10
143.361
20
-62.5624
11
143.32
21
-62.6224
0
LINE
8
BLACK
6
CONTINUOUS
10
143.32
20
-62.6224
11
143.283
21
-62.6868
0
LINE
8
BLACK
6
CONTINUOUS
10
143.283
20
-62.6868
11
143.249
21
-62.758
0
LINE
8
BLACK
6
CONTINUOUS
10
143.249
20
-62.758
11
143.22
21
-62.8306
0
LINE
8
BLACK
6
CONTINUOUS
10
143.22
20
-62.8306
11
143.197
21
-62.908
0
LINE
8
BLACK
6
CONTINUOUS
10
143.197
20
-62.908
11
143.18
21
-62.9914
0
LINE
8
BLACK
6
CONTINUOUS
10
143.18
20
-62.9914
11
143.169
21
-63.0873
0
LINE
8
BLACK
6
CONTINUOUS
10
143.169
20
-63.0873
11
143.167
21
-63.1553
0
LINE
8
BLACK
6
CONTINUOUS
10
144.164
20
-62.1551
11
151.69
21
-62.1551
0
LINE
8
BLACK
6
CONTINUOUS
10
139.404
20
-81.2051
11
142.165
21
-81.2051
0
LINE
8
BLACK
6
CONTINUOUS
10
157.453
20
-23.0543
11
157.453
21
0
0
LINE
8
BLACK
6
CONTINUOUS
10
142.167
20
-81.2053
11
142.266
21
-81.2005
0
LINE
8
BLACK
6
CONTINUOUS
10
142.266
20
-81.2005
11
142.354
21
-81.1879
0
LINE
8
BLACK
6
CONTINUOUS
10
142.354
20
-81.1879
11
142.436
21
-81.1686
0
LINE
8
BLACK
6
CONTINUOUS
10
142.436
20
-81.1686
11
142.512
21
-81.144
0
LINE
8
BLACK
6
CONTINUOUS
10
142.512
20
-81.144
11
142.583
21
-81.1146
0
LINE
8
BLACK
6
CONTINUOUS
10
142.583
20
-81.1146
11
142.652
21
-81.0799
0
LINE
8
BLACK
6
CONTINUOUS
10
142.652
20
-81.0799
11
142.716
21
-81.041
0
LINE
8
BLACK
6
CONTINUOUS
10
142.716
20
-81.041
11
142.775
21
-80.9988
0
LINE
8
BLACK
6
CONTINUOUS
10
142.775
20
-80.9988
11
142.83
21
-80.9534
0
LINE
8
BLACK
6
CONTINUOUS
10
142.83
20
-80.9534
11
142.882
21
-80.9036
0
LINE
8
BLACK
6
CONTINUOUS
10
142.882
20
-80.9036
11
142.93
21
-80.8509
0
LINE
8
BLACK
6
CONTINUOUS
10
142.93
20
-80.8509
11
142.977
21
-80.7909
0
LINE
8
BLACK
6
CONTINUOUS
10
142.977
20
-80.7909
11
143.019
21
-80.7287
0
LINE
8
BLACK
6
CONTINUOUS
10
143.019
20
-80.7287
11
143.056
21
-80.6626
0
LINE
8
BLACK
6
CONTINUOUS
10
143.056
20
-80.6626
11
143.088
21
-80.5939
0
LINE
8
BLACK
6
CONTINUOUS
10
143.088
20
-80.5939
11
143.116
21
-80.521
0
LINE
8
BLACK
6
CONTINUOUS
10
143.116
20
-80.521
11
143.139
21
-80.441
0
LINE
8
BLACK
6
CONTINUOUS
10
143.139
20
-80.441
11
143.155
21
-80.3568
0
LINE
8
BLACK
6
CONTINUOUS
10
143.155
20
-80.3568
11
143.165
21
-80.266
0
LINE
8
BLACK
6
CONTINUOUS
10
143.165
20
-80.266
11
143.167
21
-80.2053
0
LINE
8
BLACK
6
CONTINUOUS
10
152.691
20
-61.1543
11
152.691
21
-44.1008
0
LINE
8
BLACK
6
CONTINUOUS
10
148.929
20
-24.0551
11
156.455
21
-24.0551
0
LINE
8
BLACK
6
CONTINUOUS
10
151.692
20
-62.1553
11
151.791
21
-62.1505
0
LINE
8
BLACK
6
CONTINUOUS
10
151.791
20
-62.1505
11
151.879
21
-62.1379
0
LINE
8
BLACK
6
CONTINUOUS
10
151.879
20
-62.1379
11
151.961
21
-62.1186
0
LINE
8
BLACK
6
CONTINUOUS
10
151.961
20
-62.1186
11
152.037
21
-62.094
0
LINE
8
BLACK
6
CONTINUOUS
10
152.037
20
-62.094
11
152.108
21
-62.0646
0
LINE
8
BLACK
6
CONTINUOUS
10
152.108
20
-62.0646
11
152.177
21
-62.0299
0
LINE
8
BLACK
6
CONTINUOUS
10
152.177
20
-62.0299
11
152.241
21
-61.991
0
LINE
8
BLACK
6
CONTINUOUS
10
152.241
20
-61.991
11
152.3
21
-61.9488
0
LINE
8
BLACK
6
CONTINUOUS
10
152.3
20
-61.9488
11
152.355
21
-61.9034
0
LINE
8
BLACK
6
CONTINUOUS
10
152.355
20
-61.9034
11
152.407
21
-61.8536
0
LINE
8
BLACK
6
CONTINUOUS
10
152.407
20
-61.8536
11
152.455
21
-61.8009
0
LINE
8
BLACK
6
CONTINUOUS
10
152.455
20
-61.8009
11
152.502
21
-61.7409
0
LINE
8
BLACK
6
CONTINUOUS
10
152.502
20
-61.7409
11
152.544
21
-61.6787
0
LINE
8
BLACK
6
CONTINUOUS
10
152.544
20
-61.6787
11
152.581
21
-61.6126
0
LINE
8
BLACK
6
CONTINUOUS
10
152.581
20
-61.6126
11
152.613
21
-61.5439
0
LINE
8
BLACK
6
CONTINUOUS
10
152.613
20
-61.5439
11
152.641
21
-61.471
0
LINE
8
BLACK
6
CONTINUOUS
10
152.641
20
-61.471
11
152.664
21
-61.391
0
LINE
8
BLACK
6
CONTINUOUS
10
152.664
20
-61.391
11
152.68
21
-61.3068
0
LINE
8
BLACK
6
CONTINUOUS
10
152.68
20
-61.3068
11
152.69
21
-61.216
0
LINE
8
BLACK
6
CONTINUOUS
10
152.69
20
-61.216
11
152.692
21
-61.1553
0
ARC
8
BLACK
10
4.9
20
-4.9
40
4.9
50
90
51
180
0
ARC
8
BLACK
10
4.9
20
-100.5
40
4.9
50
180
51
270
0
ARC
8
BLACK
10
310.002
20
-4.9
40
4.9
50
-0
51
90
0
ARC
8
BLACK
10
310.002
20
-100.5
40
4.9
50
-90
51
-0
0
LINE
8
BLACK
6
CONTINUOUS
10
314.902
20
-100.5
11
314.902
21
-4.9
0
LINE
8
BLACK
6
CONTINUOUS
10
157.453
20
0
11
172
21
0
0
LINE
8
BLACK
6
CONTINUOUS
10
4.9
20
-105.4
11
138.403
21
-105.4
0
LINE
8
BLACK
6
CONTINUOUS
10
138.403
20
-105.4
11
310.002
21
-105.4
0
LINE
8
BLACK
6
CONTINUOUS
10
0
20
-4.9
11
0
21
-100.5
  0
ENDSEC
  0
EOF
