<?xml version="1.0" standalone="no"?>
 <!DOCTYPE svg PUBLIC "-//W3C//DTD SVG 1.1//EN" 
 "http://www.w3.org/Graphics/SVG/1.1/DTD/svg11.dtd"> 
<svg xmlns="http://www.w3.org/2000/svg" version="1.1" 
    width="59.4004cm" height="41.9989cm" viewBox="0 0 233860 165350 ">
<title>SVG Picture created as temp-B_Paste.svg date 2020/03/06 02:01:53 </title>
  <desc>Picture generated by PCBNEW </desc>
<g style="fill:#000000; fill-opacity:1;stroke:#000000; stroke-opacity:1;
stroke-linecap:round; stroke-linejoin:round; "
 transform="translate(0 0) scale(1 1)">
</g>
<g style="fill:#000000; fill-opacity:0.0; 
stroke:#000000; stroke-width:-0.000393701; stroke-opacity:1; 
stroke-linecap:round; stroke-linejoin:round;">
</g>
<g style="fill:#00C2C2; fill-opacity:0.0; 
stroke:#00C2C2; stroke-width:-0.000393701; stroke-opacity:1; 
stroke-linecap:round; stroke-linejoin:round;">
</g>
<g style="fill:#00C2C2; fill-opacity:0.0; 
stroke:#00C2C2; stroke-width:39.3701; stroke-opacity:1; 
stroke-linecap:round; stroke-linejoin:round;">
<path d="M85806 23631
L85845 23632
" />
<path d="M85845 23632
L85881 23635
" />
<path d="M85881 23635
L85916 23640
" />
<path d="M85916 23640
L85949 23647
" />
<path d="M85949 23647
L85981 23655
" />
<path d="M85981 23655
L86012 23665
" />
<path d="M86012 23665
L86041 23676
" />
<path d="M86041 23676
L86068 23688
" />
<path d="M86068 23688
L86095 23701
" />
<path d="M86095 23701
L86122 23715
" />
<path d="M86122 23715
L86148 23731
" />
<path d="M86148 23731
L86172 23748
" />
<path d="M86172 23748
L86196 23766
" />
<path d="M86196 23766
L86217 23783
" />
<path d="M86217 23783
L86238 23802
" />
<path d="M86238 23802
L86259 23822
" />
<path d="M86259 23822
L86278 23844
" />
<path d="M86278 23844
L86296 23865
" />
<path d="M86296 23865
L86314 23887
" />
<path d="M86314 23887
L86330 23911
" />
<path d="M86330 23911
L86346 23936
" />
<path d="M86346 23936
L86361 23961
" />
<path d="M86361 23961
L86374 23988
" />
<path d="M86374 23988
L86387 24017
" />
<path d="M86387 24017
L86399 24046
" />
<path d="M86399 24046
L86409 24077
" />
<path d="M86409 24077
L86417 24108
" />
<path d="M86417 24108
L86425 24140
" />
<path d="M86425 24140
L86430 24174
" />
<path d="M86430 24174
L86434 24211
" />
<path d="M86434 24211
L86436 24249
" />
<path d="M86436 24249
L86436 24261
" />
<path d="M124894 9634
L124963 9737
" />
<path d="M125119 10073
L125152 10192
" />
<path d="M125024 9845
L125076 9957
" />
<path d="M125196 44969
L125190 45093
" />
<path d="M85491 24806
L85466 24791
" />
<path d="M85466 24791
L85441 24774
" />
<path d="M85441 24774
L85417 24756
" />
<path d="M85417 24756
L85395 24738
" />
<path d="M85395 24738
L85374 24719
" />
<path d="M85374 24719
L85353 24699
" />
<path d="M85353 24699
L85334 24678
" />
<path d="M85334 24678
L85316 24656
" />
<path d="M85316 24656
L85299 24634
" />
<path d="M85299 24634
L85283 24611
" />
<path d="M85283 24611
L85267 24586
" />
<path d="M85267 24586
L85252 24560
" />
<path d="M85252 24560
L85239 24534
" />
<path d="M85239 24534
L85226 24507
" />
<path d="M85226 24507
L85215 24479
" />
<path d="M85215 24479
L85205 24449
" />
<path d="M85205 24449
L85196 24418
" />
<path d="M85196 24418
L85189 24386
" />
<path d="M85189 24386
L85183 24352
" />
<path d="M85183 24352
L85179 24317
" />
<path d="M85179 24317
L85177 24279
" />
<path d="M85177 24279
L85176 24261
" />
<path d="M85176 24261
L85178 24222
" />
<path d="M85178 24222
L85181 24186
" />
<path d="M85181 24186
L85186 24151
" />
<path d="M85186 24151
L85193 24118
" />
<path d="M85193 24118
L85201 24086
" />
<path d="M85201 24086
L85210 24056
" />
<path d="M85210 24056
L85221 24027
" />
<path d="M85221 24027
L85233 23998
" />
<path d="M85233 23998
L85247 23971
" />
<path d="M85247 23971
L85261 23944
" />
<path d="M85261 23944
L85276 23920
" />
<path d="M85276 23920
L85292 23896
" />
<path d="M85292 23896
L85311 23871
" />
<path d="M85311 23871
L85330 23849
" />
<path d="M85330 23849
L85348 23828
" />
<path d="M85348 23828
L85368 23808
" />
<path d="M85368 23808
L85389 23789
" />
<path d="M85389 23789
L85410 23771
" />
<path d="M85410 23771
L85433 23753
" />
<path d="M85433 23753
L85456 23737
" />
<path d="M85456 23737
L85480 23722
" />
<path d="M85480 23722
L85505 23707
" />
<path d="M85505 23707
L85534 23693
" />
<path d="M85534 23693
L85562 23680
" />
<path d="M85562 23680
L85591 23669
" />
<path d="M85591 23669
L85621 23659
" />
<path d="M85621 23659
L85652 23650
" />
<path d="M85652 23650
L85685 23643
" />
<path d="M85685 23643
L85718 23637
" />
<path d="M85718 23637
L85754 23633
" />
<path d="M85754 23633
L85792 23631
" />
<path d="M85792 23631
L85806 23631
" />
<path d="M124734 9446
L124818 9537
" />
<path d="M124818 9537
L124894 9634
" />
<path d="M124894 45895
L124818 45992
" />
<path d="M124335 46372
L124223 46425
" />
<path d="M86436 24261
L86435 24299
" />
<path d="M86435 24299
L86432 24335
" />
<path d="M86432 24335
L86427 24370
" />
<path d="M86427 24370
L86420 24403
" />
<path d="M86420 24403
L86412 24435
" />
<path d="M86412 24435
L86402 24465
" />
<path d="M86402 24465
L86391 24494
" />
<path d="M86391 24494
L86379 24522
" />
<path d="M86379 24522
L86366 24549
" />
<path d="M86366 24549
L86352 24575
" />
<path d="M86352 24575
L86337 24599
" />
<path d="M86337 24599
L86321 24624
" />
<path d="M86321 24624
L86304 24647
" />
<path d="M86304 24647
L86286 24669
" />
<path d="M86286 24669
L86268 24690
" />
<path d="M86268 24690
L86248 24710
" />
<path d="M86248 24710
L86227 24729
" />
<path d="M86227 24729
L86204 24749
" />
<path d="M86204 24749
L86181 24767
" />
<path d="M86181 24767
L86157 24784
" />
<path d="M86157 24784
L86133 24799
" />
<path d="M86133 24799
L86121 24806
" />
<path d="M125076 45572
L125024 45684
" />
<path d="M123988 46501
L123867 46525
" />
<path d="M60294 44576
L60294 44615
" />
<path d="M60294 44615
L60291 44653
" />
<path d="M60291 44653
L60286 44688
" />
<path d="M60286 44688
L60280 44723
" />
<path d="M60280 44723
L60273 44756
" />
<path d="M60273 44756
L60265 44787
" />
<path d="M60265 44787
L60255 44818
" />
<path d="M60255 44818
L60245 44847
" />
<path d="M60245 44847
L60234 44875
" />
<path d="M60234 44875
L60221 44904
" />
<path d="M60221 44904
L60208 44931
" />
<path d="M60208 44931
L60193 44957
" />
<path d="M60193 44957
L60178 44983
" />
<path d="M60178 44983
L60162 45007
" />
<path d="M60162 45007
L60146 45030
" />
<path d="M60146 45030
L60128 45053
" />
<path d="M60128 45053
L60110 45075
" />
<path d="M60110 45075
L60092 45096
" />
<path d="M60092 45096
L60072 45117
" />
<path d="M60072 45117
L60051 45137
" />
<path d="M60051 45137
L60030 45155
" />
<path d="M60030 45155
L60009 45174
" />
<path d="M60009 45174
L59986 45191
" />
<path d="M59986 45191
L59963 45208
" />
<path d="M59963 45208
L59938 45224
" />
<path d="M59938 45224
L59913 45240
" />
<path d="M59913 45240
L59911 45241
" />
<path d="M59911 45241
L59885 45255
" />
<path d="M59885 45255
L59859 45268
" />
<path d="M59859 45268
L59831 45281
" />
<path d="M59831 45281
L59803 45292
" />
<path d="M59803 45292
L59772 45303
" />
<path d="M59772 45303
L59742 45313
" />
<path d="M59742 45313
L59711 45321
" />
<path d="M59711 45321
L59678 45329
" />
<path d="M59678 45329
L59644 45335
" />
<path d="M59644 45335
L59607 45340
" />
<path d="M59607 45340
L59570 45343
" />
<path d="M59570 45343
L59531 45344
" />
<path d="M59531 45344
L59490 45343
" />
<path d="M59490 45343
L59452 45340
" />
<path d="M59452 45340
L59416 45336
" />
<path d="M59416 45336
L59383 45330
" />
<path d="M59383 45330
L59350 45323
" />
<path d="M59350 45323
L59317 45315
" />
<path d="M59317 45315
L59287 45305
" />
<path d="M59287 45305
L59258 45295
" />
<path d="M59258 45295
L59229 45284
" />
<path d="M59229 45284
L59201 45271
" />
<path d="M59201 45271
L59174 45258
" />
<path d="M59174 45258
L59147 45243
" />
<path d="M59147 45243
L59143 45241
" />
<path d="M125119 45456
L125076 45572
" />
<path d="M124643 9362
L124734 9446
" />
<path d="M125190 10436
L125196 10560
" />
<path d="M124107 9062
L124223 9105
" />
<path d="M124734 46083
L124643 46167
" />
<path d="M86121 24806
L86096 24820
" />
<path d="M86096 24820
L86069 24833
" />
<path d="M86069 24833
L86040 24845
" />
<path d="M86040 24845
L86011 24856
" />
<path d="M86011 24856
L85979 24867
" />
<path d="M85979 24867
L85947 24875
" />
<path d="M85947 24875
L85914 24881
" />
<path d="M85914 24881
L85879 24886
" />
<path d="M85879 24886
L85843 24890
" />
<path d="M85843 24890
L85804 24891
" />
<path d="M85804 24891
L85765 24889
" />
<path d="M85765 24889
L85728 24886
" />
<path d="M85728 24886
L85693 24880
" />
<path d="M85693 24880
L85660 24874
" />
<path d="M85660 24874
L85629 24865
" />
<path d="M85629 24865
L85599 24855
" />
<path d="M85599 24855
L85570 24845
" />
<path d="M85570 24845
L85541 24832
" />
<path d="M85541 24832
L85514 24819
" />
<path d="M85514 24819
L85491 24806
" />
<path d="M86436 24261
L86436 24261
" />
<path d="M124107 46467
L123988 46501
" />
<path d="M123867 9004
L123988 9028
" />
<path d="M60294 44576
L60294 44576
" />
<path d="M114094 17784
L114095 17745
" />
<path d="M114095 17745
L114098 17707
" />
<path d="M114098 17707
L114102 17672
" />
<path d="M114102 17672
L114108 17637
" />
<path d="M114108 17637
L114115 17603
" />
<path d="M114115 17603
L114124 17572
" />
<path d="M114124 17572
L114134 17540
" />
<path d="M114134 17540
L114144 17511
" />
<path d="M114144 17511
L114155 17483
" />
<path d="M114155 17483
L114168 17455
" />
<path d="M114168 17455
L114181 17429
" />
<path d="M114181 17429
L114195 17403
" />
<path d="M114195 17403
L114211 17377
" />
<path d="M114211 17377
L114226 17353
" />
<path d="M114226 17353
L114243 17330
" />
<path d="M114243 17330
L114260 17307
" />
<path d="M114260 17307
L114278 17285
" />
<path d="M114278 17285
L114297 17264
" />
<path d="M114297 17264
L114316 17244
" />
<path d="M114316 17244
L114336 17224
" />
<path d="M114336 17224
L114358 17205
" />
<path d="M114358 17205
L114380 17187
" />
<path d="M114380 17187
L114402 17169
" />
<path d="M114402 17169
L114425 17153
" />
<path d="M114425 17153
L114449 17137
" />
<path d="M114449 17137
L114474 17122
" />
<path d="M114474 17122
L114478 17119
" />
<path d="M73326 16209
L73325 16248
" />
<path d="M73325 16248
L73322 16284
" />
<path d="M73322 16284
L73316 16319
" />
<path d="M73316 16319
L73310 16352
" />
<path d="M73310 16352
L73301 16384
" />
<path d="M73301 16384
L73292 16414
" />
<path d="M73292 16414
L73281 16443
" />
<path d="M73281 16443
L73269 16471
" />
<path d="M73269 16471
L73256 16498
" />
<path d="M73256 16498
L73242 16524
" />
<path d="M73242 16524
L73227 16548
" />
<path d="M73227 16548
L73211 16572
" />
<path d="M73211 16572
L73194 16596
" />
<path d="M73194 16596
L73176 16617
" />
<path d="M73176 16617
L73157 16638
" />
<path d="M73157 16638
L73138 16659
" />
<path d="M73138 16659
L73117 16678
" />
<path d="M73117 16678
L73094 16698
" />
<path d="M73094 16698
L73071 16716
" />
<path d="M73071 16716
L73047 16733
" />
<path d="M73047 16733
L73023 16748
" />
<path d="M73023 16748
L73011 16755
" />
<path d="M114478 17119
L114503 17105
" />
<path d="M114503 17105
L114529 17092
" />
<path d="M114529 17092
L114557 17080
" />
<path d="M114557 17080
L114586 17068
" />
<path d="M114586 17068
L114616 17057
" />
<path d="M114616 17057
L114646 17047
" />
<path d="M114646 17047
L114678 17039
" />
<path d="M114678 17039
L114710 17032
" />
<path d="M114710 17032
L114746 17025
" />
<path d="M114746 17025
L114781 17021
" />
<path d="M114781 17021
L114818 17018
" />
<path d="M114818 17018
L114858 17017
" />
<path d="M114858 17017
L114897 17017
" />
<path d="M114897 17017
L114934 17020
" />
<path d="M114934 17020
L114971 17024
" />
<path d="M114971 17024
L115006 17030
" />
<path d="M115006 17030
L115038 17037
" />
<path d="M115038 17037
L115070 17045
" />
<path d="M115070 17045
L115102 17055
" />
<path d="M115102 17055
L115131 17065
" />
<path d="M115131 17065
L115159 17077
" />
<path d="M115159 17077
L115187 17089
" />
<path d="M115187 17089
L115214 17102
" />
<path d="M115214 17102
L115242 17117
" />
<path d="M115242 17117
L115245 17119
" />
<path d="M115245 17119
L115270 17135
" />
<path d="M115270 17135
L115294 17150
" />
<path d="M115294 17150
L115318 17167
" />
<path d="M115318 17167
L115340 17184
" />
<path d="M115340 17184
L115362 17202
" />
<path d="M115362 17202
L115384 17222
" />
<path d="M115384 17222
L115405 17242
" />
<path d="M115405 17242
L115424 17262
" />
<path d="M115424 17262
L115444 17284
" />
<path d="M115444 17284
L115462 17306
" />
<path d="M115462 17306
L115479 17328
" />
<path d="M115479 17328
L115496 17351
" />
<path d="M115496 17351
L115511 17375
" />
<path d="M115511 17375
L115528 17403
" />
<path d="M115528 17403
L115543 17430
" />
<path d="M115543 17430
L115556 17457
" />
<path d="M115556 17457
L115568 17485
" />
<path d="M115568 17485
L115580 17514
" />
<path d="M115580 17514
L115590 17543
" />
<path d="M115590 17543
L115600 17574
" />
<path d="M115600 17574
L115608 17605
" />
<path d="M115608 17605
L115615 17639
" />
<path d="M115615 17639
L115621 17673
" />
<path d="M115621 17673
L115626 17711
" />
<path d="M115626 17711
L115628 17748
" />
<path d="M115628 17748
L115629 17784
" />
<path d="M115629 17784
L115629 17784
" />
<path d="M73326 16209
L73326 16209
" />
<path d="M115629 17784
L115628 17823
" />
<path d="M115628 17823
L115625 17861
" />
<path d="M115625 17861
L115621 17897
" />
<path d="M115621 17897
L115615 17931
" />
<path d="M115615 17931
L115608 17964
" />
<path d="M115608 17964
L115600 17996
" />
<path d="M115600 17996
L115590 18026
" />
<path d="M115590 18026
L115580 18055
" />
<path d="M115580 18055
L115568 18084
" />
<path d="M115568 18084
L115555 18113
" />
<path d="M115555 18113
L115542 18139
" />
<path d="M115542 18139
L115528 18165
" />
<path d="M115528 18165
L115513 18191
" />
<path d="M115513 18191
L115497 18215
" />
<path d="M115497 18215
L115480 18239
" />
<path d="M115480 18239
L115463 18262
" />
<path d="M115463 18262
L115445 18283
" />
<path d="M115445 18283
L115426 18304
" />
<path d="M115426 18304
L115406 18325
" />
<path d="M115406 18325
L115386 18345
" />
<path d="M115386 18345
L115365 18364
" />
<path d="M115365 18364
L115343 18382
" />
<path d="M115343 18382
L115321 18399
" />
<path d="M115321 18399
L115298 18416
" />
<path d="M115298 18416
L115273 18432
" />
<path d="M115273 18432
L115247 18448
" />
<path d="M115247 18448
L115245 18449
" />
<path d="M72381 16755
L72356 16740
" />
<path d="M72356 16740
L72331 16723
" />
<path d="M72331 16723
L72307 16705
" />
<path d="M72307 16705
L72285 16687
" />
<path d="M72285 16687
L72264 16668
" />
<path d="M72264 16668
L72243 16647
" />
<path d="M72243 16647
L72224 16627
" />
<path d="M72224 16627
L72206 16605
" />
<path d="M72206 16605
L72189 16583
" />
<path d="M72189 16583
L72172 16559
" />
<path d="M72172 16559
L72157 16535
" />
<path d="M72157 16535
L72142 16509
" />
<path d="M72142 16509
L72129 16483
" />
<path d="M72129 16483
L72116 16456
" />
<path d="M72116 16456
L72105 16427
" />
<path d="M72105 16427
L72095 16398
" />
<path d="M72095 16398
L72086 16367
" />
<path d="M72086 16367
L72079 16335
" />
<path d="M72079 16335
L72073 16301
" />
<path d="M72073 16301
L72069 16265
" />
<path d="M72069 16265
L72066 16228
" />
<path d="M72066 16228
L72066 16209
" />
<path d="M122844 43911
L122869 43897
" />
<path d="M122869 43897
L122895 43884
" />
<path d="M122895 43884
L122923 43871
" />
<path d="M122923 43871
L122952 43859
" />
<path d="M122952 43859
L122982 43849
" />
<path d="M122982 43849
L123012 43839
" />
<path d="M123012 43839
L123044 43831
" />
<path d="M123044 43831
L123076 43823
" />
<path d="M123076 43823
L123112 43817
" />
<path d="M123112 43817
L123147 43812
" />
<path d="M123147 43812
L123184 43809
" />
<path d="M123184 43809
L123224 43808
" />
<path d="M123224 43808
L123263 43809
" />
<path d="M123263 43809
L123300 43812
" />
<path d="M123300 43812
L123337 43816
" />
<path d="M123337 43816
L123372 43822
" />
<path d="M123372 43822
L123404 43829
" />
<path d="M123404 43829
L123436 43837
" />
<path d="M123436 43837
L123468 43847
" />
<path d="M123468 43847
L123497 43857
" />
<path d="M123497 43857
L123525 43868
" />
<path d="M123525 43868
L123553 43881
" />
<path d="M123553 43881
L123580 43894
" />
<path d="M123580 43894
L123608 43909
" />
<path d="M123608 43909
L123611 43911
" />
<path d="M58759 44576
L58760 44537
" />
<path d="M58760 44537
L58763 44499
" />
<path d="M58763 44499
L58767 44464
" />
<path d="M58767 44464
L58773 44429
" />
<path d="M58773 44429
L58781 44395
" />
<path d="M58781 44395
L58789 44363
" />
<path d="M58789 44363
L58799 44332
" />
<path d="M58799 44332
L58809 44303
" />
<path d="M58809 44303
L58821 44274
" />
<path d="M58821 44274
L58833 44247
" />
<path d="M58833 44247
L58846 44220
" />
<path d="M58846 44220
L58861 44195
" />
<path d="M58861 44195
L58876 44169
" />
<path d="M58876 44169
L58892 44145
" />
<path d="M58892 44145
L58908 44122
" />
<path d="M58908 44122
L58925 44099
" />
<path d="M58925 44099
L58943 44077
" />
<path d="M58943 44077
L58962 44056
" />
<path d="M58962 44056
L58981 44036
" />
<path d="M58981 44036
L59001 44016
" />
<path d="M59001 44016
L59023 43997
" />
<path d="M59023 43997
L59045 43978
" />
<path d="M59045 43978
L59067 43961
" />
<path d="M59067 43961
L59091 43944
" />
<path d="M59091 43944
L59115 43928
" />
<path d="M59115 43928
L59139 43913
" />
<path d="M59139 43913
L59143 43911
" />
<path d="M72066 16209
L72067 16171
" />
<path d="M72067 16171
L72071 16135
" />
<path d="M72071 16135
L72076 16100
" />
<path d="M72076 16100
L72082 16067
" />
<path d="M72082 16067
L72091 16036
" />
<path d="M72091 16036
L72100 16005
" />
<path d="M72100 16005
L72111 15976
" />
<path d="M72111 15976
L72123 15948
" />
<path d="M72123 15948
L72136 15921
" />
<path d="M72136 15921
L72150 15895
" />
<path d="M72150 15895
L72165 15871
" />
<path d="M72165 15871
L72181 15847
" />
<path d="M72181 15847
L72198 15824
" />
<path d="M72198 15824
L72216 15802
" />
<path d="M72216 15802
L72235 15781
" />
<path d="M72235 15781
L72254 15760
" />
<path d="M72254 15760
L72276 15740
" />
<path d="M72276 15740
L72297 15722
" />
<path d="M72297 15722
L72319 15705
" />
<path d="M72319 15705
L72345 15686
" />
<path d="M72345 15686
L72370 15670
" />
<path d="M72370 15670
L72381 15664
" />
<path d="M59143 43911
L59168 43897
" />
<path d="M59168 43897
L59195 43884
" />
<path d="M59195 43884
L59222 43871
" />
<path d="M59222 43871
L59252 43859
" />
<path d="M59252 43859
L59281 43849
" />
<path d="M59281 43849
L59311 43839
" />
<path d="M59311 43839
L59343 43831
" />
<path d="M59343 43831
L59375 43823
" />
<path d="M59375 43823
L59411 43817
" />
<path d="M59411 43817
L59447 43812
" />
<path d="M59447 43812
L59484 43809
" />
<path d="M59484 43809
L59523 43808
" />
<path d="M59523 43808
L59562 43809
" />
<path d="M59562 43809
L59599 43812
" />
<path d="M59599 43812
L59636 43816
" />
<path d="M59636 43816
L59671 43822
" />
<path d="M59671 43822
L59704 43829
" />
<path d="M59704 43829
L59736 43837
" />
<path d="M59736 43837
L59767 43847
" />
<path d="M59767 43847
L59796 43857
" />
<path d="M59796 43857
L59825 43868
" />
<path d="M59825 43868
L59852 43881
" />
<path d="M59852 43881
L59879 43894
" />
<path d="M59879 43894
L59907 43909
" />
<path d="M59907 43909
L59911 43911
" />
<path d="M114478 18449
L114452 18434
" />
<path d="M114452 18434
L114428 18418
" />
<path d="M114428 18418
L114404 18401
" />
<path d="M114404 18401
L114379 18381
" />
<path d="M114379 18381
L114357 18363
" />
<path d="M114357 18363
L114337 18345
" />
<path d="M114337 18345
L114317 18325
" />
<path d="M114317 18325
L114296 18304
" />
<path d="M114296 18304
L114277 18283
" />
<path d="M114277 18283
L114260 18261
" />
<path d="M114260 18261
L114243 18239
" />
<path d="M114243 18239
L114226 18215
" />
<path d="M114226 18215
L114210 18191
" />
<path d="M114210 18191
L114196 18166
" />
<path d="M114196 18166
L114181 18141
" />
<path d="M114181 18141
L114168 18114
" />
<path d="M114168 18114
L114155 18084
" />
<path d="M114155 18084
L114144 18056
" />
<path d="M114144 18056
L114133 18027
" />
<path d="M114133 18027
L114124 17996
" />
<path d="M114124 17996
L114115 17964
" />
<path d="M114115 17964
L114108 17931
" />
<path d="M114108 17931
L114102 17897
" />
<path d="M114102 17897
L114098 17862
" />
<path d="M114098 17862
L114095 17825
" />
<path d="M114095 17825
L114094 17786
" />
<path d="M114094 17786
L114094 17784
" />
<path d="M122460 44576
L122461 44537
" />
<path d="M122461 44537
L122464 44499
" />
<path d="M122464 44499
L122468 44464
" />
<path d="M122468 44464
L122474 44429
" />
<path d="M122474 44429
L122481 44395
" />
<path d="M122481 44395
L122490 44363
" />
<path d="M122490 44363
L122500 44332
" />
<path d="M122500 44332
L122510 44303
" />
<path d="M122510 44303
L122521 44274
" />
<path d="M122521 44274
L122534 44247
" />
<path d="M122534 44247
L122547 44220
" />
<path d="M122547 44220
L122561 44195
" />
<path d="M122561 44195
L122577 44169
" />
<path d="M122577 44169
L122592 44145
" />
<path d="M122592 44145
L122609 44122
" />
<path d="M122609 44122
L122626 44099
" />
<path d="M122626 44099
L122644 44077
" />
<path d="M122644 44077
L122663 44056
" />
<path d="M122663 44056
L122682 44036
" />
<path d="M122682 44036
L122702 44016
" />
<path d="M122702 44016
L122724 43997
" />
<path d="M122724 43997
L122746 43978
" />
<path d="M122746 43978
L122768 43961
" />
<path d="M122768 43961
L122791 43944
" />
<path d="M122791 43944
L122815 43928
" />
<path d="M122815 43928
L122840 43913
" />
<path d="M122840 43913
L122844 43911
" />
<path d="M72381 15664
L72407 15650
" />
<path d="M72407 15650
L72434 15637
" />
<path d="M72434 15637
L72462 15625
" />
<path d="M72462 15625
L72492 15614
" />
<path d="M72492 15614
L72522 15604
" />
<path d="M72522 15604
L72554 15596
" />
<path d="M72554 15596
L72588 15589
" />
<path d="M72588 15589
L72625 15584
" />
<path d="M72625 15584
L72662 15580
" />
<path d="M72662 15580
L72701 15580
" />
<path d="M72701 15580
L72742 15581
" />
<path d="M72742 15581
L72778 15585
" />
<path d="M72778 15585
L72812 15590
" />
<path d="M72812 15590
L72845 15597
" />
<path d="M72845 15597
L72882 15607
" />
<path d="M72882 15607
L72912 15618
" />
<path d="M72912 15618
L72940 15629
" />
<path d="M72940 15629
L72967 15641
" />
<path d="M72967 15641
L72994 15654
" />
<path d="M72994 15654
L73011 15664
" />
<path d="M59143 45241
L59117 45225
" />
<path d="M59117 45225
L59093 45210
" />
<path d="M59093 45210
L59069 45193
" />
<path d="M59069 45193
L59044 45173
" />
<path d="M59044 45173
L59023 45155
" />
<path d="M59023 45155
L59002 45136
" />
<path d="M59002 45136
L58982 45117
" />
<path d="M58982 45117
L58961 45095
" />
<path d="M58961 45095
L58943 45074
" />
<path d="M58943 45074
L58925 45053
" />
<path d="M58925 45053
L58908 45030
" />
<path d="M58908 45030
L58891 45007
" />
<path d="M58891 45007
L58876 44983
" />
<path d="M58876 44983
L58861 44958
" />
<path d="M58861 44958
L58847 44932
" />
<path d="M58847 44932
L58834 44906
" />
<path d="M58834 44906
L58820 44876
" />
<path d="M58820 44876
L58809 44848
" />
<path d="M58809 44848
L58798 44819
" />
<path d="M58798 44819
L58789 44788
" />
<path d="M58789 44788
L58780 44756
" />
<path d="M58780 44756
L58773 44723
" />
<path d="M58773 44723
L58767 44689
" />
<path d="M58767 44689
L58763 44654
" />
<path d="M58763 44654
L58760 44617
" />
<path d="M58760 44617
L58759 44578
" />
<path d="M58759 44578
L58759 44576
" />
<path d="M123611 43911
L123636 43926
" />
<path d="M123636 43926
L123660 43942
" />
<path d="M123660 43942
L123684 43958
" />
<path d="M123684 43958
L123706 43976
" />
<path d="M123706 43976
L123728 43994
" />
<path d="M123728 43994
L123750 44014
" />
<path d="M123750 44014
L123771 44033
" />
<path d="M123771 44033
L123790 44054
" />
<path d="M123790 44054
L123810 44076
" />
<path d="M123810 44076
L123828 44097
" />
<path d="M123828 44097
L123845 44120
" />
<path d="M123845 44120
L123862 44143
" />
<path d="M123862 44143
L123877 44167
" />
<path d="M123877 44167
L123894 44195
" />
<path d="M123894 44195
L123909 44222
" />
<path d="M123909 44222
L123922 44249
" />
<path d="M123922 44249
L123934 44277
" />
<path d="M123934 44277
L123946 44306
" />
<path d="M123946 44306
L123956 44335
" />
<path d="M123956 44335
L123966 44365
" />
<path d="M123966 44365
L123974 44397
" />
<path d="M123974 44397
L123981 44430
" />
<path d="M123981 44430
L123987 44465
" />
<path d="M123987 44465
L123992 44502
" />
<path d="M123992 44502
L123994 44540
" />
<path d="M123994 44540
L123995 44576
" />
<path d="M73011 16755
L72985 16769
" />
<path d="M72985 16769
L72958 16782
" />
<path d="M72958 16782
L72930 16794
" />
<path d="M72930 16794
L72901 16805
" />
<path d="M72901 16805
L72869 16815
" />
<path d="M72869 16815
L72837 16823
" />
<path d="M72837 16823
L72804 16830
" />
<path d="M72804 16830
L72769 16835
" />
<path d="M72769 16835
L72733 16838
" />
<path d="M72733 16838
L72694 16839
" />
<path d="M72694 16839
L72655 16838
" />
<path d="M72655 16838
L72618 16835
" />
<path d="M72618 16835
L72583 16829
" />
<path d="M72583 16829
L72550 16822
" />
<path d="M72550 16822
L72519 16814
" />
<path d="M72519 16814
L72489 16804
" />
<path d="M72489 16804
L72459 16793
" />
<path d="M72459 16793
L72431 16781
" />
<path d="M72431 16781
L72404 16768
" />
<path d="M72404 16768
L72381 16755
" />
<path d="M115245 18449
L115220 18463
" />
<path d="M115220 18463
L115193 18477
" />
<path d="M115193 18477
L115166 18489
" />
<path d="M115166 18489
L115137 18501
" />
<path d="M115137 18501
L115107 18512
" />
<path d="M115107 18512
L115077 18521
" />
<path d="M115077 18521
L115045 18530
" />
<path d="M115045 18530
L115013 18537
" />
<path d="M115013 18537
L114979 18543
" />
<path d="M114979 18543
L114942 18548
" />
<path d="M114942 18548
L114905 18551
" />
<path d="M114905 18551
L114866 18552
" />
<path d="M114866 18552
L114825 18551
" />
<path d="M114825 18551
L114787 18548
" />
<path d="M114787 18548
L114751 18544
" />
<path d="M114751 18544
L114717 18538
" />
<path d="M114717 18538
L114684 18531
" />
<path d="M114684 18531
L114652 18523
" />
<path d="M114652 18523
L114622 18514
" />
<path d="M114622 18514
L114592 18503
" />
<path d="M114592 18503
L114564 18492
" />
<path d="M114564 18492
L114536 18480
" />
<path d="M114536 18480
L114509 18466
" />
<path d="M114509 18466
L114482 18452
" />
<path d="M114482 18452
L114478 18449
" />
<path d="M123995 44576
L123994 44615
" />
<path d="M123994 44615
L123991 44653
" />
<path d="M123991 44653
L123987 44688
" />
<path d="M123987 44688
L123981 44722
" />
<path d="M123981 44722
L123974 44755
" />
<path d="M123974 44755
L123966 44787
" />
<path d="M123966 44787
L123957 44817
" />
<path d="M123957 44817
L123946 44847
" />
<path d="M123946 44847
L123935 44875
" />
<path d="M123935 44875
L123922 44903
" />
<path d="M123922 44903
L123909 44930
" />
<path d="M123909 44930
L123895 44956
" />
<path d="M123895 44956
L123880 44981
" />
<path d="M123880 44981
L123864 45005
" />
<path d="M123864 45005
L123848 45029
" />
<path d="M123848 45029
L123831 45051
" />
<path d="M123831 45051
L123813 45073
" />
<path d="M123813 45073
L123794 45094
" />
<path d="M123794 45094
L123775 45114
" />
<path d="M123775 45114
L123755 45134
" />
<path d="M123755 45134
L123733 45154
" />
<path d="M123733 45154
L123709 45174
" />
<path d="M123709 45174
L123687 45191
" />
<path d="M123687 45191
L123664 45208
" />
<path d="M123664 45208
L123638 45225
" />
<path d="M123638 45225
L123613 45240
" />
<path d="M123613 45240
L123588 45254
" />
<path d="M123588 45254
L123561 45268
" />
<path d="M123561 45268
L123534 45280
" />
<path d="M123534 45280
L123504 45292
" />
<path d="M123504 45292
L123474 45303
" />
<path d="M123474 45303
L123444 45313
" />
<path d="M123444 45313
L123413 45321
" />
<path d="M123413 45321
L123381 45328
" />
<path d="M123381 45328
L123346 45335
" />
<path d="M123346 45335
L123311 45339
" />
<path d="M123311 45339
L123275 45342
" />
<path d="M123275 45342
L123236 45344
" />
<path d="M123236 45344
L123227 45344
" />
<path d="M123995 44576
L123995 44576
" />
<path d="M123227 45344
L123189 45343
" />
<path d="M123189 45343
L123152 45340
" />
<path d="M123152 45340
L123116 45336
" />
<path d="M123116 45336
L123081 45330
" />
<path d="M123081 45330
L123048 45323
" />
<path d="M123048 45323
L123016 45314
" />
<path d="M123016 45314
L122984 45304
" />
<path d="M122984 45304
L122954 45294
" />
<path d="M122954 45294
L122925 45282
" />
<path d="M122925 45282
L122898 45269
" />
<path d="M122898 45269
L122871 45256
" />
<path d="M122871 45256
L122844 45241
" />
<path d="M122844 45241
L122819 45226
" />
<path d="M122819 45226
L122794 45210
" />
<path d="M122794 45210
L122771 45193
" />
<path d="M122771 45193
L122748 45176
" />
<path d="M122748 45176
L122727 45158
" />
<path d="M122727 45158
L122706 45139
" />
<path d="M122706 45139
L122685 45119
" />
<path d="M122685 45119
L122665 45099
" />
<path d="M122665 45099
L122647 45078
" />
<path d="M122647 45078
L122628 45056
" />
<path d="M122628 45056
L122611 45033
" />
<path d="M122611 45033
L122594 45010
" />
<path d="M122594 45010
L122578 44986
" />
<path d="M122578 44986
L122563 44961
" />
<path d="M122563 44961
L122549 44936
" />
<path d="M122549 44936
L122536 44910
" />
<path d="M122536 44910
L122523 44883
" />
<path d="M122523 44883
L122512 44854
" />
<path d="M122512 44854
L122501 44824
" />
<path d="M122501 44824
L122491 44793
" />
<path d="M122491 44793
L122482 44762
" />
<path d="M122482 44762
L122475 44728
" />
<path d="M122475 44728
L122469 44694
" />
<path d="M122469 44694
L122464 44658
" />
<path d="M122464 44658
L122461 44622
" />
<path d="M122461 44622
L122460 44583
" />
<path d="M122460 44583
L122460 44576
" />
<path d="M59911 43911
L59936 43926
" />
<path d="M59936 43926
L59960 43942
" />
<path d="M59960 43942
L59983 43958
" />
<path d="M59983 43958
L60006 43976
" />
<path d="M60006 43976
L60027 43994
" />
<path d="M60027 43994
L60050 44014
" />
<path d="M60050 44014
L60070 44033
" />
<path d="M60070 44033
L60089 44054
" />
<path d="M60089 44054
L60109 44076
" />
<path d="M60109 44076
L60127 44097
" />
<path d="M60127 44097
L60144 44120
" />
<path d="M60144 44120
L60161 44143
" />
<path d="M60161 44143
L60177 44167
" />
<path d="M60177 44167
L60193 44195
" />
<path d="M60193 44195
L60208 44222
" />
<path d="M60208 44222
L60221 44249
" />
<path d="M60221 44249
L60234 44277
" />
<path d="M60234 44277
L60245 44306
" />
<path d="M60245 44306
L60256 44335
" />
<path d="M60256 44335
L60265 44365
" />
<path d="M60265 44365
L60273 44397
" />
<path d="M60273 44397
L60281 44430
" />
<path d="M60281 44430
L60286 44465
" />
<path d="M60286 44465
L60291 44502
" />
<path d="M60291 44502
L60294 44540
" />
<path d="M60294 44540
L60294 44576
" />
<path d="M73011 15664
L73036 15679
" />
<path d="M73036 15679
L73060 15696
" />
<path d="M73060 15696
L73084 15713
" />
<path d="M73084 15713
L73106 15731
" />
<path d="M73106 15731
L73127 15750
" />
<path d="M73127 15750
L73148 15770
" />
<path d="M73148 15770
L73167 15791
" />
<path d="M73167 15791
L73185 15812
" />
<path d="M73185 15812
L73202 15835
" />
<path d="M73202 15835
L73219 15859
" />
<path d="M73219 15859
L73235 15883
" />
<path d="M73235 15883
L73250 15909
" />
<path d="M73250 15909
L73263 15935
" />
<path d="M73263 15935
L73276 15962
" />
<path d="M73276 15962
L73287 15992
" />
<path d="M73287 15992
L73297 16022
" />
<path d="M73297 16022
L73306 16054
" />
<path d="M73306 16054
L73314 16089
" />
<path d="M73314 16089
L73320 16123
" />
<path d="M73320 16123
L73324 16159
" />
<path d="M73324 16159
L73326 16200
" />
<path d="M73326 16200
L73326 16209
" />
<path d="M124546 46243
L124443 46312
" />
<path d="M124443 46312
L124335 46372
" />
<path d="M124443 9217
L124546 9285
" />
<path d="M124335 9156
L124443 9217
" />
<path d="M125024 45684
L124963 45792
" />
<path d="M124643 46167
L124546 46243
" />
<path d="M125152 10192
L125176 10313
" />
<path d="M123744 46539
L123620 46544
" />
<path d="M125076 9957
L125119 10073
" />
<path d="M124546 9285
L124643 9362
" />
<path d="M124818 45992
L124734 46083
" />
<path d="M125152 45337
L125119 45456
" />
<path d="M123620 8985
L123744 8990
" />
<path d="M123744 8990
L123867 9004
" />
<path d="M123867 46525
L123744 46539
" />
<path d="M123988 9028
L124107 9062
" />
<path d="M123620 46544
L57657 46544
" />
<path d="M124223 46425
L124107 46467
" />
<path d="M124963 9737
L125024 9845
" />
<path d="M125176 45216
L125152 45337
" />
<path d="M125190 45093
L125176 45216
" />
<path d="M125176 10313
L125190 10436
" />
<path d="M124223 9105
L124335 9156
" />
<path d="M125196 10560
L125196 44969
" />
<path d="M124963 45792
L124894 45895
" />
<path d="M84767 30490
L79314 30490
" />
<path d="M119454 30490
L119454 28640
" />
<path d="M112663 25254
L111422 25254
" />
<path d="M123036 27931
L123036 26888
" />
<path d="M111422 30786
L112663 30786
" />
<path d="M114001 25038
L114001 26888
" />
<path d="M110743 30400
L111422 30400
" />
<path d="M111422 25254
L111422 25616
" />
<path d="M122033 30786
L122033 30400
" />
<path d="M112663 25616
L112663 25254
" />
<path d="M60564 32538
L66017 32538
" />
<path d="M103517 32538
L103517 37990
" />
<path d="M119454 28640
L120113 28640
" />
<path d="M122712 30400
L122712 27931
" />
<path d="M122712 26888
L122712 25616
" />
<path d="M120792 30400
L120792 30786
" />
<path d="M113342 28640
L114001 28640
" />
<path d="M68064 32538
L73517 32538
" />
<path d="M120113 30400
L120792 30400
" />
<path d="M83064 37990
L83064 32538
" />
<path d="M110419 27931
L110743 27931
" />
<path d="M110743 27931
L110743 30400
" />
<path d="M113342 25616
L112663 25616
" />
<path d="M111422 30400
L111422 30786
" />
<path d="M86814 25038
L92267 25038
" />
<path d="M110743 25616
L110743 26888
" />
<path d="M114001 28640
L114001 30490
" />
<path d="M98064 32538
L103517 32538
" />
<path d="M114001 26888
L113342 26888
" />
<path d="M69767 25038
L69767 30490
" />
<path d="M114001 30490
L119454 30490
" />
<path d="M122712 27931
L123036 27931
" />
<path d="M113342 30400
L113342 28640
" />
<path d="M110419 26888
L110419 27931
" />
<path d="M122033 30400
L122712 30400
" />
<path d="M111017 32538
L111017 37990
" />
<path d="M90564 32538
L96017 32538
" />
<path d="M113342 26888
L113342 25616
" />
<path d="M111422 25616
L110743 25616
" />
<path d="M110743 26888
L110419 26888
" />
<path d="M98064 37990
L98064 32538
" />
<path d="M121329 37990
L115877 37990
" />
<path d="M120792 30786
L122033 30786
" />
<path d="M123036 26888
L122712 26888
" />
<path d="M112663 30400
L113342 30400
" />
<path d="M112663 30786
L112663 30400
" />
<path d="M120113 28640
L120113 30400
" />
<path d="M66017 37990
L60564 37990
" />
<path d="M73517 32538
L73517 37990
" />
<path d="M60564 37990
L60564 32538
" />
<path d="M115877 32538
L121329 32538
" />
<path d="M66017 32538
L66017 37990
" />
<path d="M73517 37990
L68064 37990
" />
<path d="M83064 32538
L88517 32538
" />
<path d="M115877 37990
L115877 32538
" />
<path d="M121329 32538
L121329 37990
" />
<path d="M75564 37990
L75564 32538
" />
<path d="M81017 32538
L81017 37990
" />
<path d="M96017 37990
L90564 37990
" />
<path d="M103517 37990
L98064 37990
" />
<path d="M88517 37990
L83064 37990
" />
<path d="M75564 32538
L81017 32538
" />
<path d="M105564 32538
L111017 32538
" />
<path d="M96017 32538
L96017 37990
" />
<path d="M90564 37990
L90564 32538
" />
<path d="M105564 37990
L105564 32538
" />
<path d="M81017 37990
L75564 37990
" />
<path d="M111017 37990
L105564 37990
" />
<path d="M68064 37990
L68064 32538
" />
<path d="M88517 32538
L88517 37990
" />
<path d="M65157 8985
L123620 8985
" />
<path d="M80251 45490
L80251 40038
" />
<path d="M98064 45490
L98064 40038
" />
<path d="M103517 45490
L98064 45490
" />
<path d="M89627 40038
L95079 40038
" />
<path d="M85704 45490
L80251 45490
" />
<path d="M95079 40038
L95079 45490
" />
<path d="M89627 45490
L89627 40038
" />
<path d="M113064 45490
L113064 40038
" />
<path d="M105564 40038
L111017 40038
" />
<path d="M95079 45490
L89627 45490
" />
<path d="M80251 40038
L85704 40038
" />
<path d="M85704 40038
L85704 45490
" />
<path d="M71363 40616
L71363 41888
" />
<path d="M72042 40254
L72042 40616
" />
<path d="M70704 41888
L70704 40038
" />
<path d="M71363 41888
L70704 41888
" />
<path d="M73283 40616
L73283 40254
" />
<path d="M103517 40038
L103517 45490
" />
<path d="M73962 41888
L73962 40616
" />
<path d="M98064 40038
L103517 40038
" />
<path d="M105564 45490
L105564 40038
" />
<path d="M111017 40038
L111017 45490
" />
<path d="M70704 43640
L71363 43640
" />
<path d="M61993 42931
L61993 45400
" />
<path d="M74286 41888
L73962 41888
" />
<path d="M72042 40616
L71363 40616
" />
<path d="M70704 40038
L65251 40038
" />
<path d="M111017 45490
L105564 45490
" />
<path d="M73283 40254
L72042 40254
" />
<path d="M118517 45490
L113064 45490
" />
<path d="M73962 40616
L73283 40616
" />
<path d="M113064 40038
L118517 40038
" />
<path d="M118517 40038
L118517 45490
" />
<path d="M63913 45400
L64592 45400
" />
<path d="M62672 45786
L63913 45786
" />
<path d="M64592 40616
L63913 40616
" />
<path d="M74286 42931
L74286 41888
" />
<path d="M72042 45400
L72042 45786
" />
<path d="M61993 41888
L61669 41888
" />
<path d="M64592 43640
L65251 43640
" />
<path d="M64592 41888
L64592 40616
" />
<path d="M61669 41888
L61669 42931
" />
<path d="M61993 40616
L61993 41888
" />
<path d="M63913 40254
L62672 40254
" />
<path d="M72042 45786
L73283 45786
" />
<path d="M70704 45490
L70704 43640
" />
<path d="M94142 10038
L94142 15490
" />
<path d="M73283 45786
L73283 45400
" />
<path d="M62672 40616
L61993 40616
" />
<path d="M64592 45400
L64592 43640
" />
<path d="M62672 45400
L62672 45786
" />
<path d="M73962 42931
L74286 42931
" />
<path d="M65251 41888
L64592 41888
" />
<path d="M63913 45786
L63913 45400
" />
<path d="M71363 43640
L71363 45400
" />
<path d="M61669 42931
L61993 42931
" />
<path d="M65251 40038
L65251 41888
" />
<path d="M112360 15786
L113600 15786
" />
<path d="M63913 40616
L63913 40254
" />
<path d="M65251 45490
L70704 45490
" />
<path d="M62672 40254
L62672 40616
" />
<path d="M73962 45400
L73962 42931
" />
<path d="M61993 45400
L62672 45400
" />
<path d="M71363 45400
L72042 45400
" />
<path d="M65251 43640
L65251 45490
" />
<path d="M113600 15400
L114279 15400
" />
<path d="M112360 10616
L111681 10616
" />
<path d="M73283 45400
L73962 45400
" />
<path d="M96189 10038
L101642 10038
" />
<path d="M112892 17538
L112892 22990
" />
<path d="M121051 15400
L121731 15400
" />
<path d="M111681 12931
L111681 15400
" />
<path d="M123975 11888
L123649 11888
" />
<path d="M73689 15490
L73689 10038
" />
<path d="M121731 15786
L122970 15786
" />
<path d="M114939 15490
L120392 15490
" />
<path d="M114279 13640
L114939 13640
" />
<path d="M84939 22990
L84939 17538
" />
<path d="M111356 11888
L111356 12931
" />
<path d="M71642 10038
L71642 15490
" />
<path d="M112360 15400
L112360 15786
" />
<path d="M86642 15490
L81189 15490
" />
<path d="M88689 15490
L88689 10038
" />
<path d="M81189 10038
L86642 10038
" />
<path d="M103689 10038
L109142 10038
" />
<path d="M120392 15490
L120392 13640
" />
<path d="M101642 10038
L101642 15490
" />
<path d="M114279 15400
L114279 13640
" />
<path d="M71642 15490
L66189 15490
" />
<path d="M121731 10254
L121731 10616
" />
<path d="M122970 15400
L123649 15400
" />
<path d="M121051 10616
L121051 11888
" />
<path d="M111681 10616
L111681 11888
" />
<path d="M121051 11888
L120392 11888
" />
<path d="M123649 12931
L123975 12931
" />
<path d="M122970 10254
L121731 10254
" />
<path d="M111681 11888
L111356 11888
" />
<path d="M123975 12931
L123975 11888
" />
<path d="M114939 13640
L114939 15490
" />
<path d="M121051 13640
L121051 15400
" />
<path d="M73689 10038
L79142 10038
" />
<path d="M103689 15490
L103689 10038
" />
<path d="M94142 15490
L88689 15490
" />
<path d="M120392 10038
L114939 10038
" />
<path d="M96189 15490
L96189 10038
" />
<path d="M66189 15490
L66189 10038
" />
<path d="M79142 15490
L73689 15490
" />
<path d="M111356 12931
L111681 12931
" />
<path d="M109142 15490
L103689 15490
" />
<path d="M122970 10616
L122970 10254
" />
<path d="M113600 15786
L113600 15400
" />
<path d="M66189 10038
L71642 10038
" />
<path d="M79142 10038
L79142 15490
" />
<path d="M120392 11888
L120392 10038
" />
<path d="M123649 15400
L123649 12931
" />
<path d="M86642 10038
L86642 15490
" />
<path d="M120392 13640
L121051 13640
" />
<path d="M123649 11888
L123649 10616
" />
<path d="M122970 15786
L122970 15400
" />
<path d="M81189 15490
L81189 10038
" />
<path d="M111681 15400
L112360 15400
" />
<path d="M123649 10616
L122970 10616
" />
<path d="M101642 15490
L96189 15490
" />
<path d="M109142 10038
L109142 15490
" />
<path d="M121731 15400
L121731 15786
" />
<path d="M121731 10616
L121051 10616
" />
<path d="M105392 22990
L99939 22990
" />
<path d="M88689 10038
L94142 10038
" />
<path d="M69939 17538
L75392 17538
" />
<path d="M113600 10616
L113600 10254
" />
<path d="M77439 17538
L82892 17538
" />
<path d="M107439 22990
L107439 17538
" />
<path d="M116814 22990
L116814 17538
" />
<path d="M77439 22990
L77439 17538
" />
<path d="M114279 11888
L114279 10616
" />
<path d="M69939 22990
L69939 17538
" />
<path d="M84939 17538
L90392 17538
" />
<path d="M75392 17538
L75392 22990
" />
<path d="M107439 17538
L112892 17538
" />
<path d="M112892 22990
L107439 22990
" />
<path d="M90392 17538
L90392 22990
" />
<path d="M75392 22990
L69939 22990
" />
<path d="M67892 17538
L67892 22990
" />
<path d="M114939 10038
L114939 11888
" />
<path d="M105392 17538
L105392 22990
" />
<path d="M67892 22990
L62439 22990
" />
<path d="M82892 22990
L77439 22990
" />
<path d="M90392 22990
L84939 22990
" />
<path d="M92439 22990
L92439 17538
" />
<path d="M114939 11888
L114279 11888
" />
<path d="M97892 17538
L97892 22990
" />
<path d="M97892 22990
L92439 22990
" />
<path d="M62439 17538
L67892 17538
" />
<path d="M92439 17538
L97892 17538
" />
<path d="M82892 17538
L82892 22990
" />
<path d="M99939 17538
L105392 17538
" />
<path d="M122267 22990
L116814 22990
" />
<path d="M112360 10254
L112360 10616
" />
<path d="M113600 10254
L112360 10254
" />
<path d="M99939 22990
L99939 17538
" />
<path d="M114279 10616
L113600 10616
" />
<path d="M64314 25038
L69767 25038
" />
<path d="M86814 30490
L86814 25038
" />
<path d="M101814 25038
L107267 25038
" />
<path d="M119454 26888
L119454 25038
" />
<path d="M77267 30490
L71814 30490
" />
<path d="M94314 25038
L99767 25038
" />
<path d="M120792 25616
L120113 25616
" />
<path d="M119454 25038
L114001 25038
" />
<path d="M94314 30490
L94314 25038
" />
<path d="M122712 25616
L122033 25616
" />
<path d="M107267 30490
L101814 30490
" />
<path d="M84767 25038
L84767 30490
" />
<path d="M107267 25038
L107267 30490
" />
<path d="M101814 30490
L101814 25038
" />
<path d="M69767 30490
L64314 30490
" />
<path d="M122267 17538
L122267 22990
" />
<path d="M92267 30490
L86814 30490
" />
<path d="M120792 25254
L120792 25616
" />
<path d="M116814 17538
L122267 17538
" />
<path d="M71814 30490
L71814 25038
" />
<path d="M99767 25038
L99767 30490
" />
<path d="M120113 25616
L120113 26888
" />
<path d="M77267 25038
L77267 30490
" />
<path d="M122033 25254
L120792 25254
" />
<path d="M79314 30490
L79314 25038
" />
<path d="M122033 25616
L122033 25254
" />
<path d="M71814 25038
L77267 25038
" />
<path d="M120113 26888
L119454 26888
" />
<path d="M79314 25038
L84767 25038
" />
<path d="M92267 25038
L92267 30490
" />
<path d="M99767 30490
L94314 30490
" />
<path d="M64314 30490
L64314 25038
" />
<path d="M62439 22990
L62439 17538
" />
<path d="M5688 9362
L5785 9285
" />
<path d="M5307 9845
L5368 9737
" />
<path d="M5513 9537
L5597 9446
" />
<path d="M5436 45895
L5368 45792
" />
<path d="M6587 8990
L6711 8985
" />
<path d="M6108 9105
L6224 9062
" />
<path d="M5888 9217
L5996 9156
" />
<path d="M5996 9156
L6108 9105
" />
<path d="M6343 9028
L6465 9004
" />
<path d="M5155 45216
L5141 45093
" />
<path d="M5141 10436
L5155 10313
" />
<path d="M5368 45792
L5307 45684
" />
<path d="M6465 9004
L6587 8990
" />
<path d="M6711 8985
L123620 8985
" />
<path d="M5136 44969
L5136 10560
" />
<path d="M40511 23715
L40537 23701
" />
<path d="M40537 23701
L40564 23688
" />
<path d="M40564 23688
L40592 23676
" />
<path d="M40592 23676
L40621 23665
" />
<path d="M40621 23665
L40651 23655
" />
<path d="M40651 23655
L40684 23647
" />
<path d="M40684 23647
L40718 23640
" />
<path d="M40718 23640
L40755 23635
" />
<path d="M40755 23635
L40792 23632
" />
<path d="M40792 23632
L40831 23631
" />
<path d="M40831 23631
L40872 23632
" />
<path d="M40872 23632
L40907 23636
" />
<path d="M40907 23636
L40942 23642
" />
<path d="M40942 23642
L40975 23649
" />
<path d="M40975 23649
L41011 23659
" />
<path d="M41011 23659
L41041 23669
" />
<path d="M41041 23669
L41070 23680
" />
<path d="M41070 23680
L41097 23692
" />
<path d="M41097 23692
L41124 23706
" />
<path d="M41124 23706
L41141 23715
" />
<path d="M5179 10192
L5213 10073
" />
<path d="M5785 46243
L5688 46167
" />
<path d="M5213 10073
L5256 9957
" />
<path d="M5436 9634
L5513 9537
" />
<path d="M5136 10560
L5141 10436
" />
<path d="M5256 45572
L5213 45456
" />
<path d="M41141 23715
L41166 23730
" />
<path d="M41166 23730
L41190 23747
" />
<path d="M41190 23747
L41214 23764
" />
<path d="M41214 23764
L41236 23782
" />
<path d="M41236 23782
L41257 23801
" />
<path d="M41257 23801
L41278 23822
" />
<path d="M41278 23822
L41297 23842
" />
<path d="M41297 23842
L41315 23864
" />
<path d="M41315 23864
L41332 23886
" />
<path d="M41332 23886
L41349 23910
" />
<path d="M41349 23910
L41364 23934
" />
<path d="M41364 23934
L41380 23960
" />
<path d="M41380 23960
L41393 23987
" />
<path d="M41393 23987
L41405 24014
" />
<path d="M41405 24014
L41417 24043
" />
<path d="M41417 24043
L41427 24073
" />
<path d="M41427 24073
L41436 24105
" />
<path d="M41436 24105
L41444 24141
" />
<path d="M41444 24141
L41450 24174
" />
<path d="M41450 24174
L41454 24210
" />
<path d="M41454 24210
L41456 24251
" />
<path d="M41456 24251
L41456 24261
" />
<path d="M41456 24261
L41456 24261
" />
<path d="M5213 45456
L5179 45337
" />
<path d="M5307 45684
L5256 45572
" />
<path d="M5179 45337
L5155 45216
" />
<path d="M5155 10313
L5179 10192
" />
<path d="M5597 9446
L5688 9362
" />
<path d="M40511 24806
L40486 24791
" />
<path d="M40486 24791
L40461 24774
" />
<path d="M40461 24774
L40437 24756
" />
<path d="M40437 24756
L40415 24738
" />
<path d="M40415 24738
L40394 24719
" />
<path d="M40394 24719
L40373 24699
" />
<path d="M40373 24699
L40354 24678
" />
<path d="M40354 24678
L40336 24656
" />
<path d="M40336 24656
L40319 24634
" />
<path d="M40319 24634
L40302 24611
" />
<path d="M40302 24611
L40286 24586
" />
<path d="M40286 24586
L40272 24560
" />
<path d="M40272 24560
L40259 24534
" />
<path d="M40259 24534
L40246 24507
" />
<path d="M40246 24507
L40235 24479
" />
<path d="M40235 24479
L40225 24449
" />
<path d="M40225 24449
L40216 24418
" />
<path d="M40216 24418
L40209 24386
" />
<path d="M40209 24386
L40203 24352
" />
<path d="M40203 24352
L40199 24317
" />
<path d="M40199 24317
L40196 24279
" />
<path d="M40196 24279
L40196 24261
" />
<path d="M6224 9062
L6343 9028
" />
<path d="M5256 9957
L5307 9845
" />
<path d="M5368 9737
L5436 9634
" />
<path d="M5141 45093
L5136 44969
" />
<path d="M41141 24806
L41115 24820
" />
<path d="M41115 24820
L41088 24833
" />
<path d="M41088 24833
L41060 24845
" />
<path d="M41060 24845
L41031 24856
" />
<path d="M41031 24856
L40999 24867
" />
<path d="M40999 24867
L40967 24875
" />
<path d="M40967 24875
L40933 24881
" />
<path d="M40933 24881
L40899 24886
" />
<path d="M40899 24886
L40863 24890
" />
<path d="M40863 24890
L40824 24891
" />
<path d="M40824 24891
L40785 24889
" />
<path d="M40785 24889
L40748 24886
" />
<path d="M40748 24886
L40713 24880
" />
<path d="M40713 24880
L40680 24874
" />
<path d="M40680 24874
L40649 24865
" />
<path d="M40649 24865
L40618 24855
" />
<path d="M40618 24855
L40589 24845
" />
<path d="M40589 24845
L40561 24832
" />
<path d="M40561 24832
L40534 24819
" />
<path d="M40534 24819
L40511 24806
" />
<path d="M40196 24261
L40197 24222
" />
<path d="M40197 24222
L40200 24186
" />
<path d="M40200 24186
L40206 24151
" />
<path d="M40206 24151
L40212 24118
" />
<path d="M40212 24118
L40221 24087
" />
<path d="M40221 24087
L40230 24056
" />
<path d="M40230 24056
L40241 24027
" />
<path d="M40241 24027
L40253 23999
" />
<path d="M40253 23999
L40266 23972
" />
<path d="M40266 23972
L40280 23947
" />
<path d="M40280 23947
L40295 23922
" />
<path d="M40295 23922
L40311 23898
" />
<path d="M40311 23898
L40328 23875
" />
<path d="M40328 23875
L40346 23853
" />
<path d="M40346 23853
L40365 23832
" />
<path d="M40365 23832
L40384 23811
" />
<path d="M40384 23811
L40406 23791
" />
<path d="M40406 23791
L40427 23773
" />
<path d="M40427 23773
L40449 23756
" />
<path d="M40449 23756
L40475 23738
" />
<path d="M40475 23738
L40500 23722
" />
<path d="M40500 23722
L40511 23715
" />
<path d="M5785 9285
L5888 9217
" />
<path d="M5688 46167
L5597 46083
" />
<path d="M41456 24261
L41455 24299
" />
<path d="M41455 24299
L41451 24335
" />
<path d="M41451 24335
L41446 24370
" />
<path d="M41446 24370
L41440 24403
" />
<path d="M41440 24403
L41431 24435
" />
<path d="M41431 24435
L41422 24465
" />
<path d="M41422 24465
L41411 24494
" />
<path d="M41411 24494
L41399 24522
" />
<path d="M41399 24522
L41386 24549
" />
<path d="M41386 24549
L41372 24575
" />
<path d="M41372 24575
L41357 24599
" />
<path d="M41357 24599
L41341 24624
" />
<path d="M41341 24624
L41324 24647
" />
<path d="M41324 24647
L41306 24669
" />
<path d="M41306 24669
L41287 24690
" />
<path d="M41287 24690
L41268 24710
" />
<path d="M41268 24710
L41247 24729
" />
<path d="M41247 24729
L41224 24749
" />
<path d="M41224 24749
L41201 24767
" />
<path d="M41201 24767
L41177 24784
" />
<path d="M41177 24784
L41153 24799
" />
<path d="M41153 24799
L41141 24806
" />
<path d="M54783 44576
L54784 44537
" />
<path d="M54784 44537
L54787 44499
" />
<path d="M54787 44499
L54791 44464
" />
<path d="M54791 44464
L54797 44429
" />
<path d="M54797 44429
L54804 44395
" />
<path d="M54804 44395
L54813 44363
" />
<path d="M54813 44363
L54822 44332
" />
<path d="M54822 44332
L54833 44303
" />
<path d="M54833 44303
L54844 44274
" />
<path d="M54844 44274
L54857 44247
" />
<path d="M54857 44247
L54870 44220
" />
<path d="M54870 44220
L54884 44195
" />
<path d="M54884 44195
L54900 44169
" />
<path d="M54900 44169
L54915 44145
" />
<path d="M54915 44145
L54932 44122
" />
<path d="M54932 44122
L54949 44099
" />
<path d="M54949 44099
L54967 44077
" />
<path d="M54967 44077
L54986 44056
" />
<path d="M54986 44056
L55005 44036
" />
<path d="M55005 44036
L55025 44016
" />
<path d="M55025 44016
L55047 43997
" />
<path d="M55047 43997
L55068 43978
" />
<path d="M55068 43978
L55091 43961
" />
<path d="M55091 43961
L55114 43944
" />
<path d="M55114 43944
L55138 43928
" />
<path d="M55138 43928
L55163 43913
" />
<path d="M55163 43913
L55167 43911
" />
<path d="M55167 43911
L55192 43897
" />
<path d="M55192 43897
L55218 43884
" />
<path d="M55218 43884
L55246 43871
" />
<path d="M55246 43871
L55275 43859
" />
<path d="M55275 43859
L55305 43849
" />
<path d="M55305 43849
L55335 43839
" />
<path d="M55335 43839
L55367 43831
" />
<path d="M55367 43831
L55399 43823
" />
<path d="M55399 43823
L55434 43817
" />
<path d="M55434 43817
L55470 43812
" />
<path d="M55470 43812
L55507 43809
" />
<path d="M55507 43809
L55547 43808
" />
<path d="M55547 43808
L55586 43809
" />
<path d="M55586 43809
L55623 43812
" />
<path d="M55623 43812
L55660 43816
" />
<path d="M55660 43816
L55695 43822
" />
<path d="M55695 43822
L55727 43829
" />
<path d="M55727 43829
L55759 43837
" />
<path d="M55759 43837
L55791 43847
" />
<path d="M55791 43847
L55820 43857
" />
<path d="M55820 43857
L55848 43868
" />
<path d="M55848 43868
L55876 43881
" />
<path d="M55876 43881
L55902 43894
" />
<path d="M55902 43894
L55930 43909
" />
<path d="M55930 43909
L55934 43911
" />
<path d="M55167 45241
L55141 45225
" />
<path d="M55141 45225
L55117 45210
" />
<path d="M55117 45210
L55093 45193
" />
<path d="M55093 45193
L55068 45173
" />
<path d="M55068 45173
L55046 45155
" />
<path d="M55046 45155
L55026 45136
" />
<path d="M55026 45136
L55006 45117
" />
<path d="M55006 45117
L54985 45095
" />
<path d="M54985 45095
L54966 45074
" />
<path d="M54966 45074
L54949 45053
" />
<path d="M54949 45053
L54931 45030
" />
<path d="M54931 45030
L54915 45007
" />
<path d="M54915 45007
L54899 44983
" />
<path d="M54899 44983
L54884 44958
" />
<path d="M54884 44958
L54870 44932
" />
<path d="M54870 44932
L54857 44906
" />
<path d="M54857 44906
L54844 44876
" />
<path d="M54844 44876
L54832 44848
" />
<path d="M54832 44848
L54822 44819
" />
<path d="M54822 44819
L54812 44788
" />
<path d="M54812 44788
L54804 44756
" />
<path d="M54804 44756
L54797 44723
" />
<path d="M54797 44723
L54791 44689
" />
<path d="M54791 44689
L54787 44654
" />
<path d="M54787 44654
L54784 44617
" />
<path d="M54784 44617
L54783 44578
" />
<path d="M54783 44578
L54783 44576
" />
<path d="M7489 45241
L7464 45255
" />
<path d="M7464 45255
L7437 45268
" />
<path d="M7437 45268
L7410 45281
" />
<path d="M7410 45281
L7381 45292
" />
<path d="M7381 45292
L7351 45303
" />
<path d="M7351 45303
L7321 45313
" />
<path d="M7321 45313
L7290 45321
" />
<path d="M7290 45321
L7257 45329
" />
<path d="M7257 45329
L7223 45335
" />
<path d="M7223 45335
L7186 45340
" />
<path d="M7186 45340
L7149 45343
" />
<path d="M7149 45343
L7110 45344
" />
<path d="M7110 45344
L7069 45343
" />
<path d="M7069 45343
L7031 45340
" />
<path d="M7031 45340
L6995 45336
" />
<path d="M6995 45336
L6961 45330
" />
<path d="M6961 45330
L6929 45323
" />
<path d="M6929 45323
L6896 45315
" />
<path d="M6896 45315
L6866 45305
" />
<path d="M6866 45305
L6836 45295
" />
<path d="M6836 45295
L6808 45284
" />
<path d="M6808 45284
L6780 45271
" />
<path d="M6780 45271
L6753 45258
" />
<path d="M6753 45258
L6726 45243
" />
<path d="M6726 45243
L6722 45241
" />
<path d="M6338 44576
L6339 44537
" />
<path d="M6339 44537
L6342 44499
" />
<path d="M6342 44499
L6346 44464
" />
<path d="M6346 44464
L6352 44429
" />
<path d="M6352 44429
L6359 44395
" />
<path d="M6359 44395
L6368 44363
" />
<path d="M6368 44363
L6378 44332
" />
<path d="M6378 44332
L6388 44303
" />
<path d="M6388 44303
L6400 44274
" />
<path d="M6400 44274
L6412 44247
" />
<path d="M6412 44247
L6425 44220
" />
<path d="M6425 44220
L6439 44195
" />
<path d="M6439 44195
L6455 44169
" />
<path d="M6455 44169
L6470 44145
" />
<path d="M6470 44145
L6487 44122
" />
<path d="M6487 44122
L6504 44099
" />
<path d="M6504 44099
L6522 44077
" />
<path d="M6522 44077
L6541 44056
" />
<path d="M6541 44056
L6560 44036
" />
<path d="M6560 44036
L6580 44016
" />
<path d="M6580 44016
L6602 43997
" />
<path d="M6602 43997
L6624 43978
" />
<path d="M6624 43978
L6646 43961
" />
<path d="M6646 43961
L6669 43944
" />
<path d="M6669 43944
L6693 43928
" />
<path d="M6693 43928
L6718 43913
" />
<path d="M6718 43913
L6722 43911
" />
<path d="M55934 45241
L55909 45255
" />
<path d="M55909 45255
L55882 45268
" />
<path d="M55882 45268
L55855 45281
" />
<path d="M55855 45281
L55826 45292
" />
<path d="M55826 45292
L55796 45303
" />
<path d="M55796 45303
L55766 45313
" />
<path d="M55766 45313
L55734 45321
" />
<path d="M55734 45321
L55701 45329
" />
<path d="M55701 45329
L55668 45335
" />
<path d="M55668 45335
L55631 45340
" />
<path d="M55631 45340
L55593 45343
" />
<path d="M55593 45343
L55555 45344
" />
<path d="M55555 45344
L55513 45343
" />
<path d="M55513 45343
L55476 45340
" />
<path d="M55476 45340
L55440 45336
" />
<path d="M55440 45336
L55406 45330
" />
<path d="M55406 45330
L55373 45323
" />
<path d="M55373 45323
L55341 45315
" />
<path d="M55341 45315
L55311 45305
" />
<path d="M55311 45305
L55281 45295
" />
<path d="M55281 45295
L55252 45284
" />
<path d="M55252 45284
L55225 45271
" />
<path d="M55225 45271
L55198 45258
" />
<path d="M55198 45258
L55171 45243
" />
<path d="M55171 45243
L55167 45241
" />
<path d="M6722 45241
L6696 45225
" />
<path d="M6696 45225
L6672 45210
" />
<path d="M6672 45210
L6648 45193
" />
<path d="M6648 45193
L6623 45173
" />
<path d="M6623 45173
L6601 45155
" />
<path d="M6601 45155
L6581 45136
" />
<path d="M6581 45136
L6561 45117
" />
<path d="M6561 45117
L6540 45095
" />
<path d="M6540 45095
L6522 45074
" />
<path d="M6522 45074
L6504 45053
" />
<path d="M6504 45053
L6487 45030
" />
<path d="M6487 45030
L6470 45007
" />
<path d="M6470 45007
L6454 44983
" />
<path d="M6454 44983
L6440 44958
" />
<path d="M6440 44958
L6425 44932
" />
<path d="M6425 44932
L6412 44906
" />
<path d="M6412 44906
L6399 44876
" />
<path d="M6399 44876
L6388 44848
" />
<path d="M6388 44848
L6377 44819
" />
<path d="M6377 44819
L6368 44788
" />
<path d="M6368 44788
L6359 44756
" />
<path d="M6359 44756
L6352 44723
" />
<path d="M6352 44723
L6346 44689
" />
<path d="M6346 44689
L6342 44654
" />
<path d="M6342 44654
L6339 44617
" />
<path d="M6339 44617
L6338 44578
" />
<path d="M6338 44578
L6338 44576
" />
<path d="M6722 43911
L6747 43897
" />
<path d="M6747 43897
L6773 43884
" />
<path d="M6773 43884
L6801 43871
" />
<path d="M6801 43871
L6830 43859
" />
<path d="M6830 43859
L6860 43849
" />
<path d="M6860 43849
L6890 43839
" />
<path d="M6890 43839
L6922 43831
" />
<path d="M6922 43831
L6954 43823
" />
<path d="M6954 43823
L6990 43817
" />
<path d="M6990 43817
L7025 43812
" />
<path d="M7025 43812
L7062 43809
" />
<path d="M7062 43809
L7102 43808
" />
<path d="M7102 43808
L7141 43809
" />
<path d="M7141 43809
L7178 43812
" />
<path d="M7178 43812
L7215 43816
" />
<path d="M7215 43816
L7250 43822
" />
<path d="M7250 43822
L7283 43829
" />
<path d="M7283 43829
L7314 43837
" />
<path d="M7314 43837
L7346 43847
" />
<path d="M7346 43847
L7375 43857
" />
<path d="M7375 43857
L7403 43868
" />
<path d="M7403 43868
L7431 43881
" />
<path d="M7431 43881
L7458 43894
" />
<path d="M7458 43894
L7486 43909
" />
<path d="M7486 43909
L7489 43911
" />
<path d="M7489 43911
L7514 43926
" />
<path d="M7514 43926
L7538 43942
" />
<path d="M7538 43942
L7562 43958
" />
<path d="M7562 43958
L7584 43976
" />
<path d="M7584 43976
L7606 43994
" />
<path d="M7606 43994
L7628 44014
" />
<path d="M7628 44014
L7649 44033
" />
<path d="M7649 44033
L7668 44054
" />
<path d="M7668 44054
L7688 44076
" />
<path d="M7688 44076
L7706 44097
" />
<path d="M7706 44097
L7723 44120
" />
<path d="M7723 44120
L7740 44143
" />
<path d="M7740 44143
L7755 44167
" />
<path d="M7755 44167
L7772 44195
" />
<path d="M7772 44195
L7787 44222
" />
<path d="M7787 44222
L7800 44249
" />
<path d="M7800 44249
L7812 44277
" />
<path d="M7812 44277
L7824 44306
" />
<path d="M7824 44306
L7834 44335
" />
<path d="M7834 44335
L7844 44365
" />
<path d="M7844 44365
L7852 44397
" />
<path d="M7852 44397
L7859 44430
" />
<path d="M7859 44430
L7865 44465
" />
<path d="M7865 44465
L7870 44502
" />
<path d="M7870 44502
L7872 44540
" />
<path d="M7872 44540
L7873 44576
" />
<path d="M7873 44576
L7872 44615
" />
<path d="M7872 44615
L7869 44653
" />
<path d="M7869 44653
L7865 44688
" />
<path d="M7865 44688
L7859 44723
" />
<path d="M7859 44723
L7852 44756
" />
<path d="M7852 44756
L7844 44787
" />
<path d="M7844 44787
L7834 44818
" />
<path d="M7834 44818
L7824 44847
" />
<path d="M7824 44847
L7812 44875
" />
<path d="M7812 44875
L7799 44904
" />
<path d="M7799 44904
L7786 44931
" />
<path d="M7786 44931
L7772 44957
" />
<path d="M7772 44957
L7757 44983
" />
<path d="M7757 44983
L7741 45007
" />
<path d="M7741 45007
L7724 45030
" />
<path d="M7724 45030
L7707 45053
" />
<path d="M7707 45053
L7689 45075
" />
<path d="M7689 45075
L7670 45096
" />
<path d="M7670 45096
L7650 45117
" />
<path d="M7650 45117
L7630 45137
" />
<path d="M7630 45137
L7609 45155
" />
<path d="M7609 45155
L7587 45174
" />
<path d="M7587 45174
L7565 45191
" />
<path d="M7565 45191
L7542 45208
" />
<path d="M7542 45208
L7517 45224
" />
<path d="M7517 45224
L7491 45240
" />
<path d="M7491 45240
L7489 45241
" />
<path d="M14259 17399
L14258 17438
" />
<path d="M14258 17438
L14256 17476
" />
<path d="M14256 17476
L14251 17511
" />
<path d="M14251 17511
L14245 17546
" />
<path d="M14245 17546
L14238 17579
" />
<path d="M14238 17579
L14230 17610
" />
<path d="M14230 17610
L14220 17641
" />
<path d="M14220 17641
L14210 17670
" />
<path d="M14210 17670
L14199 17698
" />
<path d="M14199 17698
L14186 17727
" />
<path d="M14186 17727
L14172 17754
" />
<path d="M14172 17754
L14158 17780
" />
<path d="M14158 17780
L14143 17806
" />
<path d="M14143 17806
L14127 17830
" />
<path d="M14127 17830
L14111 17853
" />
<path d="M14111 17853
L14093 17876
" />
<path d="M14093 17876
L14075 17898
" />
<path d="M14075 17898
L14057 17919
" />
<path d="M14057 17919
L14037 17940
" />
<path d="M14037 17940
L14016 17959
" />
<path d="M14016 17959
L13995 17978
" />
<path d="M13995 17978
L13974 17997
" />
<path d="M13974 17997
L13951 18014
" />
<path d="M13951 18014
L13928 18031
" />
<path d="M13928 18031
L13903 18047
" />
<path d="M13903 18047
L13877 18063
" />
<path d="M13877 18063
L13876 18064
" />
<path d="M13876 16734
L13901 16749
" />
<path d="M13901 16749
L13925 16765
" />
<path d="M13925 16765
L13948 16781
" />
<path d="M13948 16781
L13971 16799
" />
<path d="M13971 16799
L13992 16817
" />
<path d="M13992 16817
L14015 16837
" />
<path d="M14015 16837
L14035 16856
" />
<path d="M14035 16856
L14054 16877
" />
<path d="M14054 16877
L14074 16899
" />
<path d="M14074 16899
L14092 16920
" />
<path d="M14092 16920
L14109 16943
" />
<path d="M14109 16943
L14126 16966
" />
<path d="M14126 16966
L14142 16990
" />
<path d="M14142 16990
L14158 17018
" />
<path d="M14158 17018
L14173 17045
" />
<path d="M14173 17045
L14186 17072
" />
<path d="M14186 17072
L14199 17100
" />
<path d="M14199 17100
L14210 17128
" />
<path d="M14210 17128
L14221 17158
" />
<path d="M14221 17158
L14230 17188
" />
<path d="M14230 17188
L14238 17219
" />
<path d="M14238 17219
L14245 17253
" />
<path d="M14245 17253
L14251 17287
" />
<path d="M14251 17287
L14256 17325
" />
<path d="M14256 17325
L14259 17363
" />
<path d="M14259 17363
L14259 17399
" />
<path d="M5996 46372
L5888 46312
" />
<path d="M5597 46083
L5513 45992
" />
<path d="M6108 46425
L5996 46372
" />
<path d="M6465 46525
L6343 46501
" />
<path d="M12724 17399
L12725 17360
" />
<path d="M12725 17360
L12728 17322
" />
<path d="M12728 17322
L12732 17287
" />
<path d="M12732 17287
L12738 17252
" />
<path d="M12738 17252
L12746 17218
" />
<path d="M12746 17218
L12754 17186
" />
<path d="M12754 17186
L12764 17155
" />
<path d="M12764 17155
L12774 17126
" />
<path d="M12774 17126
L12786 17097
" />
<path d="M12786 17097
L12798 17070
" />
<path d="M12798 17070
L12811 17043
" />
<path d="M12811 17043
L12825 17017
" />
<path d="M12825 17017
L12841 16991
" />
<path d="M12841 16991
L12857 16968
" />
<path d="M12857 16968
L12873 16945
" />
<path d="M12873 16945
L12890 16922
" />
<path d="M12890 16922
L12908 16900
" />
<path d="M12908 16900
L12927 16879
" />
<path d="M12927 16879
L12946 16859
" />
<path d="M12946 16859
L12966 16839
" />
<path d="M12966 16839
L12988 16819
" />
<path d="M12988 16819
L13010 16801
" />
<path d="M13010 16801
L13032 16784
" />
<path d="M13032 16784
L13056 16767
" />
<path d="M13056 16767
L13080 16751
" />
<path d="M13080 16751
L13104 16736
" />
<path d="M13104 16736
L13108 16734
" />
<path d="M6711 46544
L6587 46539
" />
<path d="M5513 45992
L5436 45895
" />
<path d="M14259 17399
L14259 17399
" />
<path d="M13876 18064
L13850 18078
" />
<path d="M13850 18078
L13824 18091
" />
<path d="M13824 18091
L13796 18104
" />
<path d="M13796 18104
L13768 18115
" />
<path d="M13768 18115
L13737 18126
" />
<path d="M13737 18126
L13707 18136
" />
<path d="M13707 18136
L13676 18144
" />
<path d="M13676 18144
L13643 18152
" />
<path d="M13643 18152
L13609 18158
" />
<path d="M13609 18158
L13572 18162
" />
<path d="M13572 18162
L13535 18165
" />
<path d="M13535 18165
L13496 18167
" />
<path d="M13496 18167
L13455 18166
" />
<path d="M13455 18166
L13417 18163
" />
<path d="M13417 18163
L13381 18159
" />
<path d="M13381 18159
L13348 18153
" />
<path d="M13348 18153
L13315 18146
" />
<path d="M13315 18146
L13282 18138
" />
<path d="M13282 18138
L13252 18128
" />
<path d="M13252 18128
L13223 18118
" />
<path d="M13223 18118
L13194 18107
" />
<path d="M13194 18107
L13166 18094
" />
<path d="M13166 18094
L13139 18081
" />
<path d="M13139 18081
L13112 18066
" />
<path d="M13112 18066
L13108 18064
" />
<path d="M13108 18064
L13082 18048
" />
<path d="M13082 18048
L13058 18033
" />
<path d="M13058 18033
L13034 18016
" />
<path d="M13034 18016
L13009 17996
" />
<path d="M13009 17996
L12988 17978
" />
<path d="M12988 17978
L12967 17959
" />
<path d="M12967 17959
L12947 17940
" />
<path d="M12947 17940
L12926 17918
" />
<path d="M12926 17918
L12908 17897
" />
<path d="M12908 17897
L12890 17876
" />
<path d="M12890 17876
L12873 17853
" />
<path d="M12873 17853
L12856 17830
" />
<path d="M12856 17830
L12841 17806
" />
<path d="M12841 17806
L12826 17781
" />
<path d="M12826 17781
L12812 17755
" />
<path d="M12812 17755
L12798 17729
" />
<path d="M12798 17729
L12785 17699
" />
<path d="M12785 17699
L12774 17671
" />
<path d="M12774 17671
L12763 17642
" />
<path d="M12763 17642
L12754 17611
" />
<path d="M12754 17611
L12745 17579
" />
<path d="M12745 17579
L12738 17546
" />
<path d="M12738 17546
L12732 17512
" />
<path d="M12732 17512
L12728 17477
" />
<path d="M12728 17477
L12725 17440
" />
<path d="M12725 17440
L12724 17401
" />
<path d="M12724 17401
L12724 17399
" />
<path d="M13108 16734
L13133 16720
" />
<path d="M13133 16720
L13160 16707
" />
<path d="M13160 16707
L13187 16694
" />
<path d="M13187 16694
L13217 16682
" />
<path d="M13217 16682
L13246 16672
" />
<path d="M13246 16672
L13276 16662
" />
<path d="M13276 16662
L13308 16654
" />
<path d="M13308 16654
L13340 16646
" />
<path d="M13340 16646
L13376 16640
" />
<path d="M13376 16640
L13411 16635
" />
<path d="M13411 16635
L13449 16632
" />
<path d="M13449 16632
L13488 16631
" />
<path d="M13488 16631
L13527 16632
" />
<path d="M13527 16632
L13564 16635
" />
<path d="M13564 16635
L13601 16639
" />
<path d="M13601 16639
L13636 16645
" />
<path d="M13636 16645
L13669 16652
" />
<path d="M13669 16652
L13701 16660
" />
<path d="M13701 16660
L13732 16670
" />
<path d="M13732 16670
L13761 16680
" />
<path d="M13761 16680
L13790 16691
" />
<path d="M13790 16691
L13817 16704
" />
<path d="M13817 16704
L13844 16717
" />
<path d="M13844 16717
L13872 16732
" />
<path d="M13872 16732
L13876 16734
" />
<path d="M6224 46467
L6108 46425
" />
<path d="M5888 46312
L5785 46243
" />
<path d="M6587 46539
L6465 46525
" />
<path d="M6343 46501
L6224 46467
" />
<path d="M11642 32538
L11642 37990
" />
<path d="M26408 33116
L26408 32754
" />
<path d="M58517 37990
L53064 37990
" />
<path d="M25168 33116
L24489 33116
" />
<path d="M27412 35431
L27412 34388
" />
<path d="M53064 32538
L58517 32538
" />
<path d="M26408 37900
L27087 37900
" />
<path d="M23829 32538
L18377 32538
" />
<path d="M24489 34388
L23829 34388
" />
<path d="M6189 37990
L6189 32538
" />
<path d="M53064 37990
L53064 32538
" />
<path d="M11642 37990
L6189 37990
" />
<path d="M32267 30490
L26814 30490
" />
<path d="M45564 32538
L51017 32538
" />
<path d="M26408 32754
L25168 32754
" />
<path d="M30564 37990
L30564 32538
" />
<path d="M51017 37990
L45564 37990
" />
<path d="M45564 37990
L45564 32538
" />
<path d="M30564 32538
L36017 32538
" />
<path d="M27087 34388
L27087 33116
" />
<path d="M6189 32538
L11642 32538
" />
<path d="M43517 32538
L43517 37990
" />
<path d="M36017 37990
L30564 37990
" />
<path d="M38064 37990
L38064 32538
" />
<path d="M27087 35431
L27412 35431
" />
<path d="M24489 33116
L24489 34388
" />
<path d="M38064 32538
L43517 32538
" />
<path d="M36017 32538
L36017 37990
" />
<path d="M27087 37900
L27087 35431
" />
<path d="M25168 32754
L25168 33116
" />
<path d="M23829 34388
L23829 32538
" />
<path d="M27087 33116
L26408 33116
" />
<path d="M51017 32538
L51017 37990
" />
<path d="M27412 34388
L27087 34388
" />
<path d="M43517 37990
L38064 37990
" />
<path d="M57657 46544
L6711 46544
" />
<path d="M17717 36140
L18377 36140
" />
<path d="M15797 32754
L15797 33116
" />
<path d="M14794 34388
L14794 35431
" />
<path d="M18377 37990
L23829 37990
" />
<path d="M15797 38286
L17038 38286
" />
<path d="M17038 33116
L17038 32754
" />
<path d="M17717 34388
L17717 33116
" />
<path d="M15119 37900
L15797 37900
" />
<path d="M18377 32538
L18377 34388
" />
<path d="M20251 45490
L20251 40038
" />
<path d="M15119 34388
L14794 34388
" />
<path d="M17717 37900
L17717 36140
" />
<path d="M20251 40038
L25704 40038
" />
<path d="M17267 45490
L11814 45490
" />
<path d="M17038 32754
L15797 32754
" />
<path d="M18377 34388
L17717 34388
" />
<path d="M24489 36140
L24489 37900
" />
<path d="M23829 36140
L24489 36140
" />
<path d="M29627 45490
L29627 40038
" />
<path d="M15797 33116
L15119 33116
" />
<path d="M11814 45490
L11814 40038
" />
<path d="M35079 40038
L35079 45490
" />
<path d="M35079 45490
L29627 45490
" />
<path d="M23829 37990
L23829 36140
" />
<path d="M25704 40038
L25704 45490
" />
<path d="M11814 40038
L17267 40038
" />
<path d="M15119 33116
L15119 34388
" />
<path d="M43967 41888
L43967 40616
" />
<path d="M7873 44576
L7873 44576
" />
<path d="M29627 40038
L35079 40038
" />
<path d="M26408 38286
L26408 37900
" />
<path d="M25168 37900
L25168 38286
" />
<path d="M17717 33116
L17038 33116
" />
<path d="M25704 45490
L20251 45490
" />
<path d="M25168 38286
L26408 38286
" />
<path d="M24489 37900
L25168 37900
" />
<path d="M17038 37900
L17717 37900
" />
<path d="M15119 35431
L15119 37900
" />
<path d="M17038 38286
L17038 37900
" />
<path d="M14794 35431
L15119 35431
" />
<path d="M18377 36140
L18377 37990
" />
<path d="M15797 37900
L15797 38286
" />
<path d="M17267 40038
L17267 45490
" />
<path d="M52658 45400
L53337 45400
" />
<path d="M42047 45400
L42047 45786
" />
<path d="M43288 45400
L43967 45400
" />
<path d="M41044 42931
L41369 42931
" />
<path d="M53337 41888
L53337 40616
" />
<path d="M52658 45786
L52658 45400
" />
<path d="M42047 40616
L41369 40616
" />
<path d="M51418 40616
L50739 40616
" />
<path d="M53337 40616
L52658 40616
" />
<path d="M50079 45490
L50079 43640
" />
<path d="M50079 40038
L44627 40038
" />
<path d="M52658 40616
L52658 40254
" />
<path d="M50739 40616
L50739 41888
" />
<path d="M50079 43640
L50739 43640
" />
<path d="M50079 41888
L50079 40038
" />
<path d="M41369 45400
L42047 45400
" />
<path d="M43967 43640
L44627 43640
" />
<path d="M50739 41888
L50079 41888
" />
<path d="M50739 43640
L50739 45400
" />
<path d="M41044 41888
L41044 42931
" />
<path d="M42047 40254
L42047 40616
" />
<path d="M44627 45490
L50079 45490
" />
<path d="M43288 45786
L43288 45400
" />
<path d="M53662 42931
L53662 41888
" />
<path d="M53337 42931
L53662 42931
" />
<path d="M43288 40616
L43288 40254
" />
<path d="M42047 45786
L43288 45786
" />
<path d="M50739 45400
L51418 45400
" />
<path d="M51418 40254
L51418 40616
" />
<path d="M44627 43640
L44627 45490
" />
<path d="M43967 40616
L43288 40616
" />
<path d="M41369 40616
L41369 41888
" />
<path d="M44627 40038
L44627 41888
" />
<path d="M44627 41888
L43967 41888
" />
<path d="M41369 42931
L41369 45400
" />
<path d="M43288 40254
L42047 40254
" />
<path d="M53337 45400
L53337 42931
" />
<path d="M41369 41888
L41044 41888
" />
<path d="M43967 45400
L43967 43640
" />
<path d="M51418 45400
L51418 45786
" />
<path d="M51418 45786
L52658 45786
" />
<path d="M53662 41888
L53337 41888
" />
<path d="M52658 40254
L51418 40254
" />
<path d="M34142 15490
L28689 15490
" />
<path d="M51189 10038
L56642 10038
" />
<path d="M11642 15490
L6189 15490
" />
<path d="M41642 15490
L36189 15490
" />
<path d="M34142 10038
L34142 15490
" />
<path d="M26642 15490
L21189 15490
" />
<path d="M36189 15490
L36189 10038
" />
<path d="M6189 15490
L6189 10038
" />
<path d="M26642 10038
L26642 15490
" />
<path d="M28689 10038
L34142 10038
" />
<path d="M43689 10038
L49142 10038
" />
<path d="M51189 15490
L51189 10038
" />
<path d="M56642 15490
L51189 15490
" />
<path d="M19142 15490
L13689 15490
" />
<path d="M49142 10038
L49142 15490
" />
<path d="M13689 10038
L19142 10038
" />
<path d="M49142 15490
L43689 15490
" />
<path d="M19142 10038
L19142 15490
" />
<path d="M11642 10038
L11642 15490
" />
<path d="M21189 10038
L26642 10038
" />
<path d="M36189 10038
L41642 10038
" />
<path d="M13689 15490
L13689 10038
" />
<path d="M43689 15490
L43689 10038
" />
<path d="M28689 15490
L28689 10038
" />
<path d="M41642 10038
L41642 15490
" />
<path d="M21189 15490
L21189 10038
" />
<path d="M6189 10038
L11642 10038
" />
<path d="M15564 22990
L15564 17538
" />
<path d="M37892 22990
L32439 22990
" />
<path d="M45392 17538
L45392 22990
" />
<path d="M54939 17538
L60392 17538
" />
<path d="M21017 22990
L15564 22990
" />
<path d="M54939 22990
L54939 17538
" />
<path d="M34314 25038
L39767 25038
" />
<path d="M6189 17538
L11642 17538
" />
<path d="M39939 22990
L39939 17538
" />
<path d="M47439 17538
L52892 17538
" />
<path d="M11642 22990
L6189 22990
" />
<path d="M30392 22990
L24939 22990
" />
<path d="M39939 17538
L45392 17538
" />
<path d="M6189 22990
L6189 17538
" />
<path d="M32439 17538
L37892 17538
" />
<path d="M24939 22990
L24939 17538
" />
<path d="M21017 17538
L21017 22990
" />
<path d="M30392 17538
L30392 22990
" />
<path d="M60392 22990
L54939 22990
" />
<path d="M11642 17538
L11642 22990
" />
<path d="M32439 22990
L32439 17538
" />
<path d="M6189 30490
L6189 25038
" />
<path d="M15564 17538
L21017 17538
" />
<path d="M52892 22990
L47439 22990
" />
<path d="M37892 17538
L37892 22990
" />
<path d="M52892 17538
L52892 22990
" />
<path d="M24939 17538
L30392 17538
" />
<path d="M47439 22990
L47439 17538
" />
<path d="M16501 25038
L21954 25038
" />
<path d="M45392 22990
L39939 22990
" />
<path d="M41814 30490
L41814 25038
" />
<path d="M6189 25038
L11642 25038
" />
<path d="M54767 25038
L54767 30490
" />
<path d="M49314 30490
L49314 25038
" />
<path d="M47267 30490
L41814 30490
" />
<path d="M39767 25038
L39767 30490
" />
<path d="M39767 30490
L34314 30490
" />
<path d="M32267 25038
L32267 30490
" />
<path d="M21954 30490
L16501 30490
" />
<path d="M26814 30490
L26814 25038
" />
<path d="M41814 25038
L47267 25038
" />
<path d="M16501 30490
L16501 25038
" />
<path d="M54767 30490
L49314 30490
" />
<path d="M49314 25038
L54767 25038
" />
<path d="M11642 25038
L11642 30490
" />
<path d="M11642 30490
L6189 30490
" />
<path d="M34314 30490
L34314 25038
" />
<path d="M47267 25038
L47267 30490
" />
<path d="M21954 25038
L21954 30490
" />
<path d="M26814 25038
L32267 25038
" />
<path d="M57429 15664
L57454 15650
" />
<path d="M57454 15650
L57481 15637
" />
<path d="M57481 15637
L57509 15625
" />
<path d="M57509 15625
L57539 15614
" />
<path d="M57539 15614
L57569 15604
" />
<path d="M57569 15604
L57602 15596
" />
<path d="M57602 15596
L57635 15589
" />
<path d="M57635 15589
L57673 15584
" />
<path d="M57673 15584
L57710 15580
" />
<path d="M57710 15580
L57748 15580
" />
<path d="M57748 15580
L57789 15581
" />
<path d="M57789 15581
L57825 15585
" />
<path d="M57825 15585
L57859 15590
" />
<path d="M57859 15590
L57893 15597
" />
<path d="M57893 15597
L57929 15607
" />
<path d="M57929 15607
L57959 15618
" />
<path d="M57959 15618
L57987 15629
" />
<path d="M57987 15629
L58015 15641
" />
<path d="M58015 15641
L58042 15654
" />
<path d="M58042 15654
L58059 15664
" />
<path d="M58374 16209
L58374 16209
" />
<path d="M58374 16209
L58372 16248
" />
<path d="M58372 16248
L58369 16284
" />
<path d="M58369 16284
L58364 16319
" />
<path d="M58364 16319
L58357 16352
" />
<path d="M58357 16352
L58349 16384
" />
<path d="M58349 16384
L58339 16414
" />
<path d="M58339 16414
L58329 16443
" />
<path d="M58329 16443
L58317 16471
" />
<path d="M58317 16471
L58304 16498
" />
<path d="M58304 16498
L58290 16524
" />
<path d="M58290 16524
L58275 16548
" />
<path d="M58275 16548
L58258 16572
" />
<path d="M58258 16572
L58241 16596
" />
<path d="M58241 16596
L58224 16617
" />
<path d="M58224 16617
L58205 16638
" />
<path d="M58205 16638
L58185 16659
" />
<path d="M58185 16659
L58165 16678
" />
<path d="M58165 16678
L58142 16698
" />
<path d="M58142 16698
L58118 16716
" />
<path d="M58118 16716
L58095 16733
" />
<path d="M58095 16733
L58070 16748
" />
<path d="M58070 16748
L58059 16755
" />
<path d="M58059 15664
L58084 15679
" />
<path d="M58084 15679
L58108 15696
" />
<path d="M58108 15696
L58131 15713
" />
<path d="M58131 15713
L58153 15731
" />
<path d="M58153 15731
L58175 15750
" />
<path d="M58175 15750
L58195 15770
" />
<path d="M58195 15770
L58214 15791
" />
<path d="M58214 15791
L58233 15812
" />
<path d="M58233 15812
L58250 15835
" />
<path d="M58250 15835
L58267 15859
" />
<path d="M58267 15859
L58282 15883
" />
<path d="M58282 15883
L58297 15909
" />
<path d="M58297 15909
L58311 15935
" />
<path d="M58311 15935
L58323 15962
" />
<path d="M58323 15962
L58335 15992
" />
<path d="M58335 15992
L58345 16022
" />
<path d="M58345 16022
L58354 16054
" />
<path d="M58354 16054
L58362 16089
" />
<path d="M58362 16089
L58368 16123
" />
<path d="M58368 16123
L58372 16159
" />
<path d="M58372 16159
L58374 16200
" />
<path d="M58374 16200
L58374 16209
" />
<path d="M57114 16209
L57115 16171
" />
<path d="M57115 16171
L57118 16135
" />
<path d="M57118 16135
L57123 16100
" />
<path d="M57123 16100
L57130 16066
" />
<path d="M57130 16066
L57139 16034
" />
<path d="M57139 16034
L57148 16004
" />
<path d="M57148 16004
L57159 15975
" />
<path d="M57159 15975
L57171 15947
" />
<path d="M57171 15947
L57184 15920
" />
<path d="M57184 15920
L57198 15894
" />
<path d="M57198 15894
L57213 15870
" />
<path d="M57213 15870
L57229 15846
" />
<path d="M57229 15846
L57246 15823
" />
<path d="M57246 15823
L57264 15801
" />
<path d="M57264 15801
L57283 15780
" />
<path d="M57283 15780
L57303 15760
" />
<path d="M57303 15760
L57324 15740
" />
<path d="M57324 15740
L57345 15722
" />
<path d="M57345 15722
L57367 15705
" />
<path d="M57367 15705
L57393 15686
" />
<path d="M57393 15686
L57418 15670
" />
<path d="M57418 15670
L57429 15664
" />
<path d="M57429 16755
L57403 16740
" />
<path d="M57403 16740
L57378 16723
" />
<path d="M57378 16723
L57355 16705
" />
<path d="M57355 16705
L57332 16687
" />
<path d="M57332 16687
L57311 16668
" />
<path d="M57311 16668
L57291 16647
" />
<path d="M57291 16647
L57272 16627
" />
<path d="M57272 16627
L57253 16605
" />
<path d="M57253 16605
L57236 16583
" />
<path d="M57236 16583
L57220 16559
" />
<path d="M57220 16559
L57204 16535
" />
<path d="M57204 16535
L57190 16509
" />
<path d="M57190 16509
L57176 16483
" />
<path d="M57176 16483
L57164 16456
" />
<path d="M57164 16456
L57153 16427
" />
<path d="M57153 16427
L57142 16398
" />
<path d="M57142 16398
L57134 16367
" />
<path d="M57134 16367
L57126 16335
" />
<path d="M57126 16335
L57120 16301
" />
<path d="M57120 16301
L57116 16265
" />
<path d="M57116 16265
L57114 16228
" />
<path d="M57114 16228
L57114 16209
" />
<path d="M56642 10038
L56642 15490
" />
<path d="M58689 15490
L58689 10038
" />
<path d="M64142 15490
L58689 15490
" />
<path d="M58689 10038
L64142 10038
" />
<path d="M64142 10038
L64142 15490
" />
<path d="M58059 16755
L58033 16769
" />
<path d="M58033 16769
L58006 16782
" />
<path d="M58006 16782
L57978 16794
" />
<path d="M57978 16794
L57949 16805
" />
<path d="M57949 16805
L57916 16815
" />
<path d="M57916 16815
L57885 16823
" />
<path d="M57885 16823
L57851 16830
" />
<path d="M57851 16830
L57817 16835
" />
<path d="M57817 16835
L57780 16838
" />
<path d="M57780 16838
L57741 16839
" />
<path d="M57741 16839
L57703 16838
" />
<path d="M57703 16838
L57666 16835
" />
<path d="M57666 16835
L57630 16829
" />
<path d="M57630 16829
L57598 16822
" />
<path d="M57598 16822
L57566 16814
" />
<path d="M57566 16814
L57536 16804
" />
<path d="M57536 16804
L57507 16793
" />
<path d="M57507 16793
L57478 16781
" />
<path d="M57478 16781
L57452 16768
" />
<path d="M57452 16768
L57429 16755
" />
<path d="M62267 30490
L56814 30490
" />
<path d="M56814 25038
L62267 25038
" />
<path d="M60392 17538
L60392 22990
" />
<path d="M56814 30490
L56814 25038
" />
<path d="M62267 25038
L62267 30490
" />
<path d="M58517 32538
L58517 37990
" />
<path d="M55934 43911
L55959 43926
" />
<path d="M55959 43926
L55983 43942
" />
<path d="M55983 43942
L56006 43958
" />
<path d="M56006 43958
L56029 43976
" />
<path d="M56029 43976
L56051 43994
" />
<path d="M56051 43994
L56073 44014
" />
<path d="M56073 44014
L56094 44033
" />
<path d="M56094 44033
L56113 44054
" />
<path d="M56113 44054
L56133 44076
" />
<path d="M56133 44076
L56151 44097
" />
<path d="M56151 44097
L56168 44120
" />
<path d="M56168 44120
L56184 44143
" />
<path d="M56184 44143
L56200 44167
" />
<path d="M56200 44167
L56217 44195
" />
<path d="M56217 44195
L56231 44222
" />
<path d="M56231 44222
L56245 44249
" />
<path d="M56245 44249
L56257 44277
" />
<path d="M56257 44277
L56269 44306
" />
<path d="M56269 44306
L56279 44335
" />
<path d="M56279 44335
L56289 44365
" />
<path d="M56289 44365
L56297 44397
" />
<path d="M56297 44397
L56304 44430
" />
<path d="M56304 44430
L56310 44465
" />
<path d="M56310 44465
L56315 44502
" />
<path d="M56315 44502
L56317 44540
" />
<path d="M56317 44540
L56318 44576
" />
<path d="M56318 44576
L56318 44576
" />
<path d="M56318 44576
L56317 44615
" />
<path d="M56317 44615
L56314 44653
" />
<path d="M56314 44653
L56310 44688
" />
<path d="M56310 44688
L56304 44723
" />
<path d="M56304 44723
L56297 44756
" />
<path d="M56297 44756
L56288 44787
" />
<path d="M56288 44787
L56279 44818
" />
<path d="M56279 44818
L56269 44847
" />
<path d="M56269 44847
L56257 44875
" />
<path d="M56257 44875
L56244 44904
" />
<path d="M56244 44904
L56231 44931
" />
<path d="M56231 44931
L56217 44957
" />
<path d="M56217 44957
L56202 44983
" />
<path d="M56202 44983
L56186 45007
" />
<path d="M56186 45007
L56169 45030
" />
<path d="M56169 45030
L56152 45053
" />
<path d="M56152 45053
L56134 45075
" />
<path d="M56134 45075
L56115 45096
" />
<path d="M56115 45096
L56095 45117
" />
<path d="M56095 45117
L56075 45137
" />
<path d="M56075 45137
L56054 45155
" />
<path d="M56054 45155
L56032 45174
" />
<path d="M56032 45174
L56010 45191
" />
<path d="M56010 45191
L55987 45208
" />
<path d="M55987 45208
L55962 45224
" />
<path d="M55962 45224
L55936 45240
" />
<path d="M55936 45240
L55934 45241
" />
<path d="M57657 46544
L57657 39380
" />
<path d="M61407 23592
L61407 16880
" />
<path d="M59925 31487
L62888 31487
" />
<path d="M61801 16487
L64764 16487
" />
<path d="M62888 23985
L61801 23985
" />
<path d="M59532 38593
L59532 31880
" />
<path d="M58051 38987
L59138 38987
" />
<path d="M65157 16093
L65157 8985
" />
<path d="M63282 31093
L63282 24379
" />
<path d="M64765 16487
L64804 16485
" />
<path d="M64804 16485
L64838 16480
" />
<path d="M64838 16480
L64871 16472
" />
<path d="M64871 16472
L64901 16463
" />
<path d="M64901 16463
L64929 16451
" />
<path d="M64929 16451
L64956 16437
" />
<path d="M64956 16437
L64981 16422
" />
<path d="M64981 16422
L65004 16405
" />
<path d="M65004 16405
L65026 16388
" />
<path d="M65026 16388
L65046 16368
" />
<path d="M65046 16368
L65065 16347
" />
<path d="M65065 16347
L65084 16324
" />
<path d="M65084 16324
L65100 16299
" />
<path d="M65100 16299
L65115 16273
" />
<path d="M65115 16273
L65128 16246
" />
<path d="M65128 16246
L65138 16217
" />
<path d="M65138 16217
L65147 16186
" />
<path d="M65147 16186
L65154 16153
" />
<path d="M65154 16153
L65158 16117
" />
<path d="M65158 16117
L65158 16093
" />
<path d="M61408 23592
L61410 23630
" />
<path d="M61410 23630
L61415 23665
" />
<path d="M61415 23665
L61423 23697
" />
<path d="M61423 23697
L61432 23728
" />
<path d="M61432 23728
L61444 23756
" />
<path d="M61444 23756
L61457 23782
" />
<path d="M61457 23782
L61472 23807
" />
<path d="M61472 23807
L61489 23830
" />
<path d="M61489 23830
L61506 23852
" />
<path d="M61506 23852
L61526 23872
" />
<path d="M61526 23872
L61546 23891
" />
<path d="M61546 23891
L61569 23909
" />
<path d="M61569 23909
L61592 23925
" />
<path d="M61592 23925
L61618 23940
" />
<path d="M61618 23940
L61645 23953
" />
<path d="M61645 23953
L61673 23964
" />
<path d="M61673 23964
L61704 23973
" />
<path d="M61704 23973
L61737 23980
" />
<path d="M61737 23980
L61772 23985
" />
<path d="M61772 23985
L61802 23986
" />
<path d="M61802 16487
L61764 16489
" />
<path d="M61764 16489
L61729 16494
" />
<path d="M61729 16494
L61697 16501
" />
<path d="M61697 16501
L61667 16510
" />
<path d="M61667 16510
L61639 16522
" />
<path d="M61639 16522
L61612 16536
" />
<path d="M61612 16536
L61587 16551
" />
<path d="M61587 16551
L61564 16567
" />
<path d="M61564 16567
L61542 16585
" />
<path d="M61542 16585
L61522 16604
" />
<path d="M61522 16604
L61503 16625
" />
<path d="M61503 16625
L61485 16647
" />
<path d="M61485 16647
L61469 16671
" />
<path d="M61469 16671
L61454 16696
" />
<path d="M61454 16696
L61441 16724
" />
<path d="M61441 16724
L61430 16753
" />
<path d="M61430 16753
L61421 16783
" />
<path d="M61421 16783
L61414 16816
" />
<path d="M61414 16816
L61409 16854
" />
<path d="M61409 16854
L61408 16880
" />
<path d="M62889 31487
L62928 31485
" />
<path d="M62928 31485
L62963 31480
" />
<path d="M62963 31480
L62995 31472
" />
<path d="M62995 31472
L63025 31463
" />
<path d="M63025 31463
L63053 31451
" />
<path d="M63053 31451
L63080 31437
" />
<path d="M63080 31437
L63105 31422
" />
<path d="M63105 31422
L63129 31406
" />
<path d="M63129 31406
L63150 31388
" />
<path d="M63150 31388
L63171 31368
" />
<path d="M63171 31368
L63190 31347
" />
<path d="M63190 31347
L63208 31324
" />
<path d="M63208 31324
L63225 31299
" />
<path d="M63225 31299
L63239 31273
" />
<path d="M63239 31273
L63252 31246
" />
<path d="M63252 31246
L63263 31217
" />
<path d="M63263 31217
L63272 31186
" />
<path d="M63272 31186
L63278 31153
" />
<path d="M63278 31153
L63282 31117
" />
<path d="M63282 31117
L63283 31093
" />
<path d="M58052 38987
L58014 38989
" />
<path d="M58014 38989
L57979 38994
" />
<path d="M57979 38994
L57947 39001
" />
<path d="M57947 39001
L57917 39011
" />
<path d="M57917 39011
L57889 39022
" />
<path d="M57889 39022
L57862 39036
" />
<path d="M57862 39036
L57837 39051
" />
<path d="M57837 39051
L57814 39067
" />
<path d="M57814 39067
L57792 39085
" />
<path d="M57792 39085
L57772 39104
" />
<path d="M57772 39104
L57753 39125
" />
<path d="M57753 39125
L57735 39147
" />
<path d="M57735 39147
L57719 39171
" />
<path d="M57719 39171
L57704 39196
" />
<path d="M57704 39196
L57691 39224
" />
<path d="M57691 39224
L57680 39253
" />
<path d="M57680 39253
L57671 39283
" />
<path d="M57671 39283
L57664 39316
" />
<path d="M57664 39316
L57659 39354
" />
<path d="M57659 39354
L57658 39381
" />
<path d="M63283 24379
L63281 24341
" />
<path d="M63281 24341
L63276 24306
" />
<path d="M63276 24306
L63268 24274
" />
<path d="M63268 24274
L63259 24243
" />
<path d="M63259 24243
L63247 24215
" />
<path d="M63247 24215
L63233 24188
" />
<path d="M63233 24188
L63218 24163
" />
<path d="M63218 24163
L63201 24139
" />
<path d="M63201 24139
L63183 24118
" />
<path d="M63183 24118
L63164 24097
" />
<path d="M63164 24097
L63143 24078
" />
<path d="M63143 24078
L63121 24061
" />
<path d="M63121 24061
L63097 24045
" />
<path d="M63097 24045
L63071 24030
" />
<path d="M63071 24030
L63044 24018
" />
<path d="M63044 24018
L63015 24006
" />
<path d="M63015 24006
L62984 23997
" />
<path d="M62984 23997
L62951 23990
" />
<path d="M62951 23990
L62915 23987
" />
<path d="M62915 23987
L62889 23986
" />
<path d="M59139 38987
L59178 38985
" />
<path d="M59178 38985
L59213 38980
" />
<path d="M59213 38980
L59245 38972
" />
<path d="M59245 38972
L59275 38963
" />
<path d="M59275 38963
L59303 38951
" />
<path d="M59303 38951
L59330 38937
" />
<path d="M59330 38937
L59355 38922
" />
<path d="M59355 38922
L59379 38906
" />
<path d="M59379 38906
L59400 38888
" />
<path d="M59400 38888
L59421 38868
" />
<path d="M59421 38868
L59440 38847
" />
<path d="M59440 38847
L59458 38824
" />
<path d="M59458 38824
L59475 38799
" />
<path d="M59475 38799
L59489 38773
" />
<path d="M59489 38773
L59502 38746
" />
<path d="M59502 38746
L59513 38717
" />
<path d="M59513 38717
L59522 38686
" />
<path d="M59522 38686
L59528 38653
" />
<path d="M59528 38653
L59532 38617
" />
<path d="M59532 38617
L59533 38593
" />
<path d="M59926 31487
L59888 31489
" />
<path d="M59888 31489
L59853 31494
" />
<path d="M59853 31494
L59821 31501
" />
<path d="M59821 31501
L59792 31511
" />
<path d="M59792 31511
L59764 31522
" />
<path d="M59764 31522
L59736 31536
" />
<path d="M59736 31536
L59712 31551
" />
<path d="M59712 31551
L59688 31567
" />
<path d="M59688 31567
L59666 31585
" />
<path d="M59666 31585
L59646 31604
" />
<path d="M59646 31604
L59627 31625
" />
<path d="M59627 31625
L59609 31647
" />
<path d="M59609 31647
L59593 31671
" />
<path d="M59593 31671
L59579 31696
" />
<path d="M59579 31696
L59565 31724
" />
<path d="M59565 31724
L59554 31753
" />
<path d="M59554 31753
L59545 31783
" />
<path d="M59545 31783
L59538 31816
" />
<path d="M59538 31816
L59534 31854
" />
<path d="M59534 31854
L59533 31881
" />
<g >
</g>
<g >
</g>
<g >
</g>
</g>
<g style="fill:#000000; fill-opacity:0.0; 
stroke:#000000; stroke-width:39.3701; stroke-opacity:1; 
stroke-linecap:round; stroke-linejoin:round;">
<g >
</g>
</g> 
</svg>
