  0
SECTION
  2
HEADER
  9
$ANGBASE
  50
0.0
  9
$ANGDIR
  70
1
  9
$MEASUREMENT
  70
1
  0
ENDSEC
  0
SECTION
  2
TABLES
  0
TABLE
  2
LTYPE
  70
4
  0
LTYPE
  5
40F
  2
CONTINUOUS
  70
0
  3
Solid line
  72
65
  73
0
  40
0.0
  0
LTYPE
  5
410
  2
DASHDOT
 70
0
  3
Dash Dot ____ _ ____ _
 72
65
 73
4
 40
2.0
 49
1.25
 49
-0.25
 49
0.25
 49
-0.25
  0
LTYPE
  5
411
  2
DASHED
 70
0
  3
Dashed __ __ __ __ __
 72
65
 73
2
 40
0.75
 49
0.5
 49
-0.25
  0
LTYPE
  5
43B
  2
DOTTED
 70
0
  3
Dotted .  .  .  .
 72
65
 73
2
 40
0.2
 49
0.0
 49
-0.2
  0
ENDTAB
  0
TABLE
  2
STYLE
  70
4
  0
STYLE
  2
KICAD
  70
0
  40
0
  41
1
  42
1
  50
0
  71
0
  3
isocp.shx
  0
STYLE
  2
KICADB
  70
0
  40
0
  41
1
  42
1
  50
0
  71
0
  3
isocp.shx
  0
STYLE
  2
KICADI
  70
0
  40
0
  41
1
  42
1
  50
15
  71
0
  3
isocp.shx
  0
STYLE
  2
KICADBI
  70
0
  40
0
  41
1
  42
1
  50
15
  71
0
  3
isocp.shx
  0
ENDTAB
  0
TABLE
  2
LAYER
  70
1
  0
LAYER
  2
BLACK
  70
0
  62
7
  6
CONTINUOUS
  0
ENDTAB
  0
ENDSEC
  0
SECTION
  2
ENTITIES
0
LINE
8
BLACK
6
CONTINUOUS
10
60.0569
20
-59.6181
11
60.0569
21
-45.77
0
LINE
8
BLACK
6
CONTINUOUS
10
47.7125
20
-59.6181
11
33.8619
21
-59.6181
0
LINE
8
BLACK
6
CONTINUOUS
10
136.257
20
-45.77
11
150.108
21
-45.77
0
LINE
8
BLACK
6
CONTINUOUS
10
150.108
20
-59.6181
11
136.257
21
-59.6181
0
LINE
8
BLACK
6
CONTINUOUS
10
117.207
20
-45.77
11
131.058
21
-45.77
0
LINE
8
BLACK
6
CONTINUOUS
10
21.52
20
-59.6181
11
7.6694
21
-59.6181
0
LINE
8
BLACK
6
CONTINUOUS
10
88.195
20
-26.72
11
88.195
21
-40.5681
0
LINE
8
BLACK
6
CONTINUOUS
10
126.295
20
-26.72
11
126.295
21
-40.5681
0
LINE
8
BLACK
6
CONTINUOUS
10
73.9075
20
-45.77
11
73.9075
21
-59.6181
0
LINE
8
BLACK
6
CONTINUOUS
10
7.6694
20
-59.6181
11
7.6694
21
-45.77
0
LINE
8
BLACK
6
CONTINUOUS
10
21.52
20
-45.77
11
21.52
21
-59.6181
0
LINE
8
BLACK
6
CONTINUOUS
10
55.2944
20
-26.72
11
69.145
21
-26.72
0
LINE
8
BLACK
6
CONTINUOUS
10
21.52
20
-78.6681
11
7.6694
21
-78.6681
0
LINE
8
BLACK
6
CONTINUOUS
10
21.52
20
-64.82
11
21.52
21
-78.6681
0
LINE
8
BLACK
6
CONTINUOUS
10
117.207
20
-59.6181
11
117.207
21
-45.77
0
LINE
8
BLACK
6
CONTINUOUS
10
55.2944
20
-40.5681
11
55.2944
21
-26.72
0
LINE
8
BLACK
6
CONTINUOUS
10
79.1069
20
-45.77
11
92.9575
21
-45.77
0
LINE
8
BLACK
6
CONTINUOUS
10
60.0569
20
-45.77
11
73.9075
21
-45.77
0
LINE
8
BLACK
6
CONTINUOUS
10
33.8619
20
-45.77
11
47.7125
21
-45.77
0
LINE
8
BLACK
6
CONTINUOUS
10
112.444
20
-40.5681
11
112.444
21
-26.72
0
LINE
8
BLACK
6
CONTINUOUS
10
107.245
20
-26.72
11
107.245
21
-40.5681
0
LINE
8
BLACK
6
CONTINUOUS
10
74.3444
20
-26.72
11
88.195
21
-26.72
0
LINE
8
BLACK
6
CONTINUOUS
10
98.1569
20
-59.6181
11
98.1569
21
-45.77
0
LINE
8
BLACK
6
CONTINUOUS
10
69.145
20
-26.72
11
69.145
21
-40.5681
0
LINE
8
BLACK
6
CONTINUOUS
10
131.494
20
-26.72
11
145.345
21
-26.72
0
LINE
8
BLACK
6
CONTINUOUS
10
74.3444
20
-40.5681
11
74.3444
21
-26.72
0
LINE
8
BLACK
6
CONTINUOUS
10
7.6694
20
-45.77
11
21.52
21
-45.77
0
LINE
8
BLACK
6
CONTINUOUS
10
136.257
20
-59.6181
11
136.257
21
-45.77
0
LINE
8
BLACK
6
CONTINUOUS
10
112.008
20
-45.77
11
112.008
21
-59.6181
0
LINE
8
BLACK
6
CONTINUOUS
10
107.245
20
-40.5681
11
93.3944
21
-40.5681
0
LINE
8
BLACK
6
CONTINUOUS
10
112.444
20
-26.72
11
126.295
21
-26.72
0
LINE
8
BLACK
6
CONTINUOUS
10
7.6694
20
-40.5681
11
7.6694
21
-26.72
0
LINE
8
BLACK
6
CONTINUOUS
10
92.9575
20
-59.6181
11
79.1069
21
-59.6181
0
LINE
8
BLACK
6
CONTINUOUS
10
112.008
20
-59.6181
11
98.1569
21
-59.6181
0
LINE
8
BLACK
6
CONTINUOUS
10
145.345
20
-40.5681
11
131.494
21
-40.5681
0
LINE
8
BLACK
6
CONTINUOUS
10
7.6694
20
-26.72
11
21.52
21
-26.72
0
LINE
8
BLACK
6
CONTINUOUS
10
31.4819
20
-26.72
11
45.3325
21
-26.72
0
LINE
8
BLACK
6
CONTINUOUS
10
47.7125
20
-45.77
11
47.7125
21
-59.6181
0
LINE
8
BLACK
6
CONTINUOUS
10
33.8619
20
-59.6181
11
33.8619
21
-45.77
0
LINE
8
BLACK
6
CONTINUOUS
10
21.52
20
-26.72
11
21.52
21
-40.5681
0
LINE
8
BLACK
6
CONTINUOUS
10
93.3944
20
-26.72
11
107.245
21
-26.72
0
LINE
8
BLACK
6
CONTINUOUS
10
45.3325
20
-40.5681
11
31.4819
21
-40.5681
0
LINE
8
BLACK
6
CONTINUOUS
10
131.058
20
-59.6181
11
117.207
21
-59.6181
0
LINE
8
BLACK
6
CONTINUOUS
10
45.3325
20
-26.72
11
45.3325
21
-40.5681
0
LINE
8
BLACK
6
CONTINUOUS
10
145.345
20
-26.72
11
145.345
21
-40.5681
0
LINE
8
BLACK
6
CONTINUOUS
10
93.3944
20
-40.5681
11
93.3944
21
-26.72
0
LINE
8
BLACK
6
CONTINUOUS
10
21.52
20
-40.5681
11
7.6694
21
-40.5681
0
LINE
8
BLACK
6
CONTINUOUS
10
154.87
20
-7.67
11
154.87
21
-21.5181
0
LINE
8
BLACK
6
CONTINUOUS
10
131.058
20
-45.77
11
131.058
21
-59.6181
0
LINE
8
BLACK
6
CONTINUOUS
10
69.145
20
-40.5681
11
55.2944
21
-40.5681
0
LINE
8
BLACK
6
CONTINUOUS
10
79.1069
20
-59.6181
11
79.1069
21
-45.77
0
LINE
8
BLACK
6
CONTINUOUS
10
131.494
20
-40.5681
11
131.494
21
-26.72
0
LINE
8
BLACK
6
CONTINUOUS
10
135.82
20
-21.5181
11
121.969
21
-21.5181
0
LINE
8
BLACK
6
CONTINUOUS
10
126.295
20
-40.5681
11
112.444
21
-40.5681
0
LINE
8
BLACK
6
CONTINUOUS
10
88.195
20
-40.5681
11
74.3444
21
-40.5681
0
LINE
8
BLACK
6
CONTINUOUS
10
31.4819
20
-40.5681
11
31.4819
21
-26.72
0
LINE
8
BLACK
6
CONTINUOUS
10
83.8694
20
-21.5181
11
83.8694
21
-7.67
0
LINE
8
BLACK
6
CONTINUOUS
10
97.72
20
-21.5181
11
83.8694
21
-21.5181
0
LINE
8
BLACK
6
CONTINUOUS
10
135.82
20
-7.67
11
135.82
21
-21.5181
0
LINE
8
BLACK
6
CONTINUOUS
10
59.62
20
-21.5181
11
45.7694
21
-21.5181
0
LINE
8
BLACK
6
CONTINUOUS
10
78.67
20
-7.67
11
78.67
21
-21.5181
0
LINE
8
BLACK
6
CONTINUOUS
10
21.52
20
-21.5181
11
7.6694
21
-21.5181
0
LINE
8
BLACK
6
CONTINUOUS
10
26.7194
20
-7.67
11
40.57
21
-7.67
0
LINE
8
BLACK
6
CONTINUOUS
10
121.969
20
-21.5181
11
121.969
21
-7.67
0
LINE
8
BLACK
6
CONTINUOUS
10
45.7694
20
-7.67
11
59.62
21
-7.67
0
LINE
8
BLACK
6
CONTINUOUS
10
59.62
20
-7.67
11
59.62
21
-21.5181
0
LINE
8
BLACK
6
CONTINUOUS
10
116.77
20
-7.67
11
116.77
21
-21.5181
0
LINE
8
BLACK
6
CONTINUOUS
10
102.919
20
-7.67
11
116.77
21
-7.67
0
LINE
8
BLACK
6
CONTINUOUS
10
40.57
20
-21.5181
11
26.7194
21
-21.5181
0
LINE
8
BLACK
6
CONTINUOUS
10
141.019
20
-21.5181
11
141.019
21
-7.67
0
LINE
8
BLACK
6
CONTINUOUS
10
116.77
20
-21.5181
11
102.919
21
-21.5181
0
LINE
8
BLACK
6
CONTINUOUS
10
45.7694
20
-21.5181
11
45.7694
21
-7.67
0
LINE
8
BLACK
6
CONTINUOUS
10
78.67
20
-21.5181
11
64.8194
21
-21.5181
0
LINE
8
BLACK
6
CONTINUOUS
10
102.919
20
-21.5181
11
102.919
21
-7.67
0
LINE
8
BLACK
6
CONTINUOUS
10
7.6694
20
-21.5181
11
7.6694
21
-7.67
0
LINE
8
BLACK
6
CONTINUOUS
10
64.8194
20
-7.67
11
78.67
21
-7.67
0
LINE
8
BLACK
6
CONTINUOUS
10
97.72
20
-7.67
11
97.72
21
-21.5181
0
LINE
8
BLACK
6
CONTINUOUS
10
154.87
20
-21.5181
11
141.019
21
-21.5181
0
LINE
8
BLACK
6
CONTINUOUS
10
141.019
20
-7.67
11
154.87
21
-7.67
0
LINE
8
BLACK
6
CONTINUOUS
10
121.969
20
-7.67
11
135.82
21
-7.67
0
LINE
8
BLACK
6
CONTINUOUS
10
83.8694
20
-7.67
11
97.72
21
-7.67
0
LINE
8
BLACK
6
CONTINUOUS
10
40.57
20
-7.67
11
40.57
21
-21.5181
0
LINE
8
BLACK
6
CONTINUOUS
10
21.52
20
-7.67
11
21.52
21
-21.5181
0
LINE
8
BLACK
6
CONTINUOUS
10
26.7194
20
-21.5181
11
26.7194
21
-7.67
0
LINE
8
BLACK
6
CONTINUOUS
10
64.8194
20
-21.5181
11
64.8194
21
-7.67
0
LINE
8
BLACK
6
CONTINUOUS
10
7.6694
20
-7.67
11
21.52
21
-7.67
0
LINE
8
BLACK
6
CONTINUOUS
10
35.8075
20
-83.87
11
35.8075
21
-97.7181
0
LINE
8
BLACK
6
CONTINUOUS
10
21.9569
20
-83.87
11
35.8075
21
-83.87
0
LINE
8
BLACK
6
CONTINUOUS
10
43.3869
20
-97.7181
11
43.3869
21
-83.87
0
LINE
8
BLACK
6
CONTINUOUS
10
43.3869
20
-83.87
11
57.2375
21
-83.87
0
LINE
8
BLACK
6
CONTINUOUS
10
81.05
20
-83.87
11
81.05
21
-97.7181
0
LINE
8
BLACK
6
CONTINUOUS
10
57.2375
20
-97.7181
11
43.3869
21
-97.7181
0
LINE
8
BLACK
6
CONTINUOUS
10
81.05
20
-97.7181
11
67.2019
21
-97.7181
0
LINE
8
BLACK
6
CONTINUOUS
10
67.2019
20
-97.7181
11
67.2019
21
-83.87
0
LINE
8
BLACK
6
CONTINUOUS
10
57.2375
20
-83.87
11
57.2375
21
-97.7181
0
LINE
8
BLACK
6
CONTINUOUS
10
21.9569
20
-97.7181
11
21.9569
21
-83.87
0
LINE
8
BLACK
6
CONTINUOUS
10
5.19036
20
-7.7589
11
5.29958
21
-7.46426
0
LINE
8
BLACK
6
CONTINUOUS
10
5.19036
20
-97.6317
11
5.104
21
-97.3295
0
LINE
8
BLACK
6
CONTINUOUS
10
5.104
20
-8.06116
11
5.19036
21
-7.7589
0
LINE
8
BLACK
6
CONTINUOUS
10
4.99478
20
-8.99588
11
5.00748
21
-8.68092
0
LINE
8
BLACK
6
CONTINUOUS
10
35.8075
20
-97.7181
11
21.9569
21
-97.7181
0
LINE
8
BLACK
6
CONTINUOUS
10
67.2019
20
-83.87
11
81.05
21
-83.87
0
LINE
8
BLACK
6
CONTINUOUS
10
5.04304
20
-97.0221
11
5.00748
21
-96.7097
0
LINE
8
BLACK
6
CONTINUOUS
10
8.68032
20
-5.00808
11
8.99528
21
-4.99538
0
LINE
8
BLACK
6
CONTINUOUS
10
6.90486
20
-5.58466
11
7.17918
21
-5.42972
0
LINE
8
BLACK
6
CONTINUOUS
10
5.04304
20
-8.3685
11
5.104
21
-8.06116
0
LINE
8
BLACK
6
CONTINUOUS
10
6.39686
20
-99.4377
11
6.16572
21
-99.2243
0
LINE
8
BLACK
6
CONTINUOUS
10
5.75678
20
-98.7468
11
5.58406
21
-98.4852
0
LINE
8
BLACK
6
CONTINUOUS
10
7.7583
20
-5.19096
11
8.06056
21
-5.1046
0
LINE
8
BLACK
6
CONTINUOUS
10
5.104
20
-97.3295
11
5.04304
21
-97.0221
0
LINE
8
BLACK
6
CONTINUOUS
10
8.37044
20
-5.04364
11
8.68032
21
-5.00808
0
LINE
8
BLACK
6
CONTINUOUS
10
6.64324
20
-5.75738
11
6.90486
21
-5.58466
0
LINE
8
BLACK
6
CONTINUOUS
10
8.06056
20
-5.1046
11
8.37044
21
-5.04364
0
LINE
8
BLACK
6
CONTINUOUS
10
7.46366
20
-5.30018
11
7.7583
21
-5.19096
0
LINE
8
BLACK
6
CONTINUOUS
10
5.58406
20
-98.4852
11
5.42912
21
-98.2108
0
LINE
8
BLACK
6
CONTINUOUS
10
6.16572
20
-6.16632
11
6.39686
21
-5.95296
0
LINE
8
BLACK
6
CONTINUOUS
10
5.95236
20
-6.39746
11
6.16572
21
-6.16632
0
LINE
8
BLACK
6
CONTINUOUS
10
5.00748
20
-96.7097
11
4.99478
21
-96.3947
0
LINE
8
BLACK
6
CONTINUOUS
10
5.75678
20
-6.64384
11
5.95236
21
-6.39746
0
LINE
8
BLACK
6
CONTINUOUS
10
5.42912
20
-98.2108
11
5.29958
21
-97.9264
0
LINE
8
BLACK
6
CONTINUOUS
10
5.29958
20
-7.46426
11
5.42912
21
-7.17978
0
LINE
8
BLACK
6
CONTINUOUS
10
5.95236
20
-98.9932
11
5.75678
21
-98.7468
0
LINE
8
BLACK
6
CONTINUOUS
10
5.42912
20
-7.17978
11
5.58406
21
-6.90546
0
LINE
8
BLACK
6
CONTINUOUS
10
5.00748
20
-8.68092
11
5.04304
21
-8.3685
0
LINE
8
BLACK
6
CONTINUOUS
10
6.64324
20
-99.6307
11
6.39686
21
-99.4377
0
LINE
8
BLACK
6
CONTINUOUS
10
4.99478
20
-96.3947
11
4.99478
21
-8.99588
0
LINE
8
BLACK
6
CONTINUOUS
10
6.39686
20
-5.95296
11
6.64324
21
-5.75738
0
LINE
8
BLACK
6
CONTINUOUS
10
7.17918
20
-5.42972
11
7.46366
21
-5.30018
0
LINE
8
BLACK
6
CONTINUOUS
10
5.29958
20
-97.9264
11
5.19036
21
-97.6317
0
LINE
8
BLACK
6
CONTINUOUS
10
5.58406
20
-6.90546
11
5.75678
21
-6.64384
0
LINE
8
BLACK
6
CONTINUOUS
10
6.90486
20
-99.806
11
6.64324
21
-99.6307
0
LINE
8
BLACK
6
CONTINUOUS
10
8.37044
20
-100.347
11
8.06056
21
-100.286
0
LINE
8
BLACK
6
CONTINUOUS
10
8.06056
20
-100.286
11
7.7583
21
-100.2
0
LINE
8
BLACK
6
CONTINUOUS
10
7.7583
20
-100.2
11
7.46366
21
-100.093
0
LINE
8
BLACK
6
CONTINUOUS
10
8.68032
20
-100.383
11
8.37044
21
-100.347
0
LINE
8
BLACK
6
CONTINUOUS
10
6.16572
20
-99.2243
11
5.95236
21
-98.9932
0
LINE
8
BLACK
6
CONTINUOUS
10
7.46366
20
-100.093
11
7.17918
21
-99.9584
0
LINE
8
BLACK
6
CONTINUOUS
10
8.99528
20
-100.395
11
8.68032
21
-100.383
0
LINE
8
BLACK
6
CONTINUOUS
10
69.5819
20
-78.6681
11
69.5819
21
-64.82
0
LINE
8
BLACK
6
CONTINUOUS
10
126.732
20
-78.6681
11
126.732
21
-64.82
0
LINE
8
BLACK
6
CONTINUOUS
10
121.533
20
-64.82
11
121.533
21
-78.6681
0
LINE
8
BLACK
6
CONTINUOUS
10
140.583
20
-78.6681
11
126.732
21
-78.6681
0
LINE
8
BLACK
6
CONTINUOUS
10
88.6319
20
-78.6681
11
88.6319
21
-64.82
0
LINE
8
BLACK
6
CONTINUOUS
10
7.17918
20
-99.9584
11
6.90486
21
-99.806
0
LINE
8
BLACK
6
CONTINUOUS
10
140.583
20
-64.82
11
140.583
21
-78.6681
0
LINE
8
BLACK
6
CONTINUOUS
10
102.483
20
-78.6681
11
88.6319
21
-78.6681
0
LINE
8
BLACK
6
CONTINUOUS
10
126.732
20
-64.82
11
140.583
21
-64.82
0
LINE
8
BLACK
6
CONTINUOUS
10
88.6319
20
-64.82
11
102.483
21
-64.82
0
LINE
8
BLACK
6
CONTINUOUS
10
83.4325
20
-64.82
11
83.4325
21
-78.6681
0
LINE
8
BLACK
6
CONTINUOUS
10
7.6694
20
-78.6681
11
7.6694
21
-64.82
0
LINE
8
BLACK
6
CONTINUOUS
10
98.1569
20
-45.77
11
112.008
21
-45.77
0
LINE
8
BLACK
6
CONTINUOUS
10
121.533
20
-78.6681
11
107.682
21
-78.6681
0
LINE
8
BLACK
6
CONTINUOUS
10
69.5819
20
-64.82
11
83.4325
21
-64.82
0
LINE
8
BLACK
6
CONTINUOUS
10
92.9575
20
-45.77
11
92.9575
21
-59.6181
0
LINE
8
BLACK
6
CONTINUOUS
10
83.4325
20
-78.6681
11
69.5819
21
-78.6681
0
LINE
8
BLACK
6
CONTINUOUS
10
73.9075
20
-59.6181
11
60.0569
21
-59.6181
0
LINE
8
BLACK
6
CONTINUOUS
10
107.682
20
-78.6681
11
107.682
21
-64.82
0
LINE
8
BLACK
6
CONTINUOUS
10
7.6694
20
-64.82
11
21.52
21
-64.82
0
LINE
8
BLACK
6
CONTINUOUS
10
102.483
20
-64.82
11
102.483
21
-78.6681
0
LINE
8
BLACK
6
CONTINUOUS
10
107.682
20
-64.82
11
121.533
21
-64.82
0
LINE
8
BLACK
6
CONTINUOUS
10
8.99528
20
-4.99538
11
157.448
21
-4.99538
0
LINE
8
BLACK
6
CONTINUOUS
10
138.398
20
-100.395
11
8.99528
21
-100.395
0
LINE
8
BLACK
6
CONTINUOUS
10
150.108
20
-45.77
11
150.108
21
-59.6181
0
LINE
8
BLACK
6
CONTINUOUS
10
157.448
20
-23.0497
11
157.448
21
-4.99538
0
LINE
8
BLACK
6
CONTINUOUS
10
139.399
20
-81.2005
11
142.16
21
-81.2005
0
LINE
8
BLACK
6
CONTINUOUS
10
138.398
20
-100.395
11
138.398
21
-82.1987
0
LINE
8
BLACK
6
CONTINUOUS
10
151.685
20
-43.0954
11
148.924
21
-43.0954
0
LINE
8
BLACK
6
CONTINUOUS
10
144.159
20
-62.1505
11
151.685
21
-62.1505
0
LINE
8
BLACK
6
CONTINUOUS
10
148.924
20
-24.0505
11
156.45
21
-24.0505
0
LINE
8
BLACK
6
CONTINUOUS
10
152.686
20
-61.1497
11
152.686
21
-44.0961
0
LINE
8
BLACK
6
CONTINUOUS
10
147.923
20
-42.0972
11
147.923
21
-25.0487
0
LINE
8
BLACK
6
CONTINUOUS
10
143.161
20
-80.1997
11
143.161
21
-63.1487
0
LINE
8
BLACK
6
CONTINUOUS
10
147.925
20
-42.0979
11
147.93
21
-42.1942
0
LINE
8
BLACK
6
CONTINUOUS
10
147.93
20
-42.1942
11
147.942
21
-42.2822
0
LINE
8
BLACK
6
CONTINUOUS
10
147.942
20
-42.2822
11
147.961
21
-42.365
0
LINE
8
BLACK
6
CONTINUOUS
10
147.961
20
-42.365
11
147.986
21
-42.4425
0
LINE
8
BLACK
6
CONTINUOUS
10
147.986
20
-42.4425
11
148.016
21
-42.5139
0
LINE
8
BLACK
6
CONTINUOUS
10
148.016
20
-42.5139
11
148.049
21
-42.5805
0
LINE
8
BLACK
6
CONTINUOUS
10
148.049
20
-42.5805
11
148.088
21
-42.644
0
LINE
8
BLACK
6
CONTINUOUS
10
148.088
20
-42.644
11
148.129
21
-42.7031
0
LINE
8
BLACK
6
CONTINUOUS
10
148.129
20
-42.7031
11
148.174
21
-42.7583
0
LINE
8
BLACK
6
CONTINUOUS
10
148.174
20
-42.7583
11
148.223
21
-42.81
0
LINE
8
BLACK
6
CONTINUOUS
10
148.223
20
-42.81
11
148.276
21
-42.8585
0
LINE
8
BLACK
6
CONTINUOUS
10
148.276
20
-42.8585
11
148.333
21
-42.9033
0
LINE
8
BLACK
6
CONTINUOUS
10
148.333
20
-42.9033
11
148.392
21
-42.9442
0
LINE
8
BLACK
6
CONTINUOUS
10
148.392
20
-42.9442
11
148.457
21
-42.9817
0
LINE
8
BLACK
6
CONTINUOUS
10
148.457
20
-42.9817
11
148.526
21
-43.0149
0
LINE
8
BLACK
6
CONTINUOUS
10
148.526
20
-43.0149
11
148.598
21
-43.0431
0
LINE
8
BLACK
6
CONTINUOUS
10
148.598
20
-43.0431
11
148.676
21
-43.0666
0
LINE
8
BLACK
6
CONTINUOUS
10
148.676
20
-43.0666
11
148.76
21
-43.0843
0
LINE
8
BLACK
6
CONTINUOUS
10
148.76
20
-43.0843
11
148.849
21
-43.0951
0
LINE
8
BLACK
6
CONTINUOUS
10
148.849
20
-43.0951
11
148.925
21
-43.0979
0
LINE
8
BLACK
6
CONTINUOUS
10
139.4
20
-81.2007
11
139.304
21
-81.2053
0
LINE
8
BLACK
6
CONTINUOUS
10
139.304
20
-81.2053
11
139.215
21
-81.2179
0
LINE
8
BLACK
6
CONTINUOUS
10
139.215
20
-81.2179
11
139.134
21
-81.2367
0
LINE
8
BLACK
6
CONTINUOUS
10
139.134
20
-81.2367
11
139.058
21
-81.2609
0
LINE
8
BLACK
6
CONTINUOUS
10
139.058
20
-81.2609
11
138.987
21
-81.29
0
LINE
8
BLACK
6
CONTINUOUS
10
138.987
20
-81.29
11
138.918
21
-81.3247
0
LINE
8
BLACK
6
CONTINUOUS
10
138.918
20
-81.3247
11
138.854
21
-81.3627
0
LINE
8
BLACK
6
CONTINUOUS
10
138.854
20
-81.3627
11
138.796
21
-81.4042
0
LINE
8
BLACK
6
CONTINUOUS
10
138.796
20
-81.4042
11
138.74
21
-81.45
0
LINE
8
BLACK
6
CONTINUOUS
10
138.74
20
-81.45
11
138.688
21
-81.4987
0
LINE
8
BLACK
6
CONTINUOUS
10
138.688
20
-81.4987
11
138.64
21
-81.5514
0
LINE
8
BLACK
6
CONTINUOUS
10
138.64
20
-81.5514
11
138.595
21
-81.6078
0
LINE
8
BLACK
6
CONTINUOUS
10
138.595
20
-81.6078
11
138.554
21
-81.6678
0
LINE
8
BLACK
6
CONTINUOUS
10
138.554
20
-81.6678
11
138.517
21
-81.7322
0
LINE
8
BLACK
6
CONTINUOUS
10
138.517
20
-81.7322
11
138.482
21
-81.8034
0
LINE
8
BLACK
6
CONTINUOUS
10
138.482
20
-81.8034
11
138.454
21
-81.876
0
LINE
8
BLACK
6
CONTINUOUS
10
138.454
20
-81.876
11
138.431
21
-81.9534
0
LINE
8
BLACK
6
CONTINUOUS
10
138.431
20
-81.9534
11
138.414
21
-82.0368
0
LINE
8
BLACK
6
CONTINUOUS
10
138.414
20
-82.0368
11
138.403
21
-82.1327
0
LINE
8
BLACK
6
CONTINUOUS
10
138.403
20
-82.1327
11
138.4
21
-82.2007
0
LINE
8
BLACK
6
CONTINUOUS
10
144.161
20
-62.1507
11
144.065
21
-62.1553
0
LINE
8
BLACK
6
CONTINUOUS
10
144.065
20
-62.1553
11
143.976
21
-62.1679
0
LINE
8
BLACK
6
CONTINUOUS
10
143.976
20
-62.1679
11
143.895
21
-62.1867
0
LINE
8
BLACK
6
CONTINUOUS
10
143.895
20
-62.1867
11
143.819
21
-62.2109
0
LINE
8
BLACK
6
CONTINUOUS
10
143.819
20
-62.2109
11
143.748
21
-62.24
0
LINE
8
BLACK
6
CONTINUOUS
10
143.748
20
-62.24
11
143.679
21
-62.2747
0
LINE
8
BLACK
6
CONTINUOUS
10
143.679
20
-62.2747
11
143.615
21
-62.3127
0
LINE
8
BLACK
6
CONTINUOUS
10
143.615
20
-62.3127
11
143.557
21
-62.3542
0
LINE
8
BLACK
6
CONTINUOUS
10
143.557
20
-62.3542
11
143.501
21
-62.4
0
LINE
8
BLACK
6
CONTINUOUS
10
143.501
20
-62.4
11
143.449
21
-62.4487
0
LINE
8
BLACK
6
CONTINUOUS
10
143.449
20
-62.4487
11
143.401
21
-62.5014
0
LINE
8
BLACK
6
CONTINUOUS
10
143.401
20
-62.5014
11
143.356
21
-62.5578
0
LINE
8
BLACK
6
CONTINUOUS
10
143.356
20
-62.5578
11
143.315
21
-62.6178
0
LINE
8
BLACK
6
CONTINUOUS
10
143.315
20
-62.6178
11
143.278
21
-62.6822
0
LINE
8
BLACK
6
CONTINUOUS
10
143.278
20
-62.6822
11
143.243
21
-62.7534
0
LINE
8
BLACK
6
CONTINUOUS
10
143.243
20
-62.7534
11
143.215
21
-62.826
0
LINE
8
BLACK
6
CONTINUOUS
10
143.215
20
-62.826
11
143.192
21
-62.9034
0
LINE
8
BLACK
6
CONTINUOUS
10
143.192
20
-62.9034
11
143.175
21
-62.9868
0
LINE
8
BLACK
6
CONTINUOUS
10
143.175
20
-62.9868
11
143.164
21
-63.0827
0
LINE
8
BLACK
6
CONTINUOUS
10
143.164
20
-63.0827
11
143.161
21
-63.1507
0
LINE
8
BLACK
6
CONTINUOUS
10
151.686
20
-62.1507
11
151.786
21
-62.1458
0
LINE
8
BLACK
6
CONTINUOUS
10
151.786
20
-62.1458
11
151.873
21
-62.1333
0
LINE
8
BLACK
6
CONTINUOUS
10
151.873
20
-62.1333
11
151.956
21
-62.114
0
LINE
8
BLACK
6
CONTINUOUS
10
151.956
20
-62.114
11
152.032
21
-62.0894
0
LINE
8
BLACK
6
CONTINUOUS
10
152.032
20
-62.0894
11
152.103
21
-62.06
0
LINE
8
BLACK
6
CONTINUOUS
10
152.103
20
-62.06
11
152.172
21
-62.0253
0
LINE
8
BLACK
6
CONTINUOUS
10
152.172
20
-62.0253
11
152.236
21
-61.9864
0
LINE
8
BLACK
6
CONTINUOUS
10
152.236
20
-61.9864
11
152.295
21
-61.9442
0
LINE
8
BLACK
6
CONTINUOUS
10
152.295
20
-61.9442
11
152.35
21
-61.8988
0
LINE
8
BLACK
6
CONTINUOUS
10
152.35
20
-61.8988
11
152.402
21
-61.849
0
LINE
8
BLACK
6
CONTINUOUS
10
152.402
20
-61.849
11
152.45
21
-61.7963
0
LINE
8
BLACK
6
CONTINUOUS
10
152.45
20
-61.7963
11
152.497
21
-61.7363
0
LINE
8
BLACK
6
CONTINUOUS
10
152.497
20
-61.7363
11
152.539
21
-61.6741
0
LINE
8
BLACK
6
CONTINUOUS
10
152.539
20
-61.6741
11
152.576
21
-61.608
0
LINE
8
BLACK
6
CONTINUOUS
10
152.576
20
-61.608
11
152.608
21
-61.5393
0
LINE
8
BLACK
6
CONTINUOUS
10
152.608
20
-61.5393
11
152.636
21
-61.4664
0
LINE
8
BLACK
6
CONTINUOUS
10
152.636
20
-61.4664
11
152.658
21
-61.3864
0
LINE
8
BLACK
6
CONTINUOUS
10
152.658
20
-61.3864
11
152.675
21
-61.3022
0
LINE
8
BLACK
6
CONTINUOUS
10
152.675
20
-61.3022
11
152.685
21
-61.2113
0
LINE
8
BLACK
6
CONTINUOUS
10
152.685
20
-61.2113
11
152.686
21
-61.1507
0
LINE
8
BLACK
6
CONTINUOUS
10
156.45
20
-24.0506
11
156.55
21
-24.0457
0
LINE
8
BLACK
6
CONTINUOUS
10
156.55
20
-24.0457
11
156.637
21
-24.0332
0
LINE
8
BLACK
6
CONTINUOUS
10
156.637
20
-24.0332
11
156.72
21
-24.0139
0
LINE
8
BLACK
6
CONTINUOUS
10
156.72
20
-24.0139
11
156.796
21
-23.9893
0
LINE
8
BLACK
6
CONTINUOUS
10
156.796
20
-23.9893
11
156.867
21
-23.9599
0
LINE
8
BLACK
6
CONTINUOUS
10
156.867
20
-23.9599
11
156.936
21
-23.9252
0
LINE
8
BLACK
6
CONTINUOUS
10
156.936
20
-23.9252
11
157
21
-23.8863
0
LINE
8
BLACK
6
CONTINUOUS
10
157
20
-23.8863
11
157.059
21
-23.8441
0
LINE
8
BLACK
6
CONTINUOUS
10
157.059
20
-23.8441
11
157.114
21
-23.7987
0
LINE
8
BLACK
6
CONTINUOUS
10
157.114
20
-23.7987
11
157.166
21
-23.7489
0
LINE
8
BLACK
6
CONTINUOUS
10
157.166
20
-23.7489
11
157.214
21
-23.6962
0
LINE
8
BLACK
6
CONTINUOUS
10
157.214
20
-23.6962
11
157.261
21
-23.6362
0
LINE
8
BLACK
6
CONTINUOUS
10
157.261
20
-23.6362
11
157.303
21
-23.574
0
LINE
8
BLACK
6
CONTINUOUS
10
157.303
20
-23.574
11
157.34
21
-23.5079
0
LINE
8
BLACK
6
CONTINUOUS
10
157.34
20
-23.5079
11
157.372
21
-23.4392
0
LINE
8
BLACK
6
CONTINUOUS
10
157.372
20
-23.4392
11
157.4
21
-23.3662
0
LINE
8
BLACK
6
CONTINUOUS
10
157.4
20
-23.3662
11
157.422
21
-23.2863
0
LINE
8
BLACK
6
CONTINUOUS
10
157.422
20
-23.2863
11
157.439
21
-23.2021
0
LINE
8
BLACK
6
CONTINUOUS
10
157.439
20
-23.2021
11
157.449
21
-23.1112
0
LINE
8
BLACK
6
CONTINUOUS
10
157.449
20
-23.1112
11
157.45
21
-23.0506
0
LINE
8
BLACK
6
CONTINUOUS
10
148.925
20
-24.0506
11
148.829
21
-24.0552
0
LINE
8
BLACK
6
CONTINUOUS
10
148.829
20
-24.0552
11
148.74
21
-24.0678
0
LINE
8
BLACK
6
CONTINUOUS
10
148.74
20
-24.0678
11
148.659
21
-24.0866
0
LINE
8
BLACK
6
CONTINUOUS
10
148.659
20
-24.0866
11
148.583
21
-24.1108
0
LINE
8
BLACK
6
CONTINUOUS
10
148.583
20
-24.1108
11
148.512
21
-24.1399
0
LINE
8
BLACK
6
CONTINUOUS
10
148.512
20
-24.1399
11
148.443
21
-24.1746
0
LINE
8
BLACK
6
CONTINUOUS
10
148.443
20
-24.1746
11
148.379
21
-24.2126
0
LINE
8
BLACK
6
CONTINUOUS
10
148.379
20
-24.2126
11
148.321
21
-24.2541
0
LINE
8
BLACK
6
CONTINUOUS
10
148.321
20
-24.2541
11
148.265
21
-24.2999
0
LINE
8
BLACK
6
CONTINUOUS
10
148.265
20
-24.2999
11
148.213
21
-24.3486
0
LINE
8
BLACK
6
CONTINUOUS
10
148.213
20
-24.3486
11
148.165
21
-24.4013
0
LINE
8
BLACK
6
CONTINUOUS
10
148.165
20
-24.4013
11
148.12
21
-24.4577
0
LINE
8
BLACK
6
CONTINUOUS
10
148.12
20
-24.4577
11
148.079
21
-24.5177
0
LINE
8
BLACK
6
CONTINUOUS
10
148.079
20
-24.5177
11
148.042
21
-24.5821
0
LINE
8
BLACK
6
CONTINUOUS
10
148.042
20
-24.5821
11
148.007
21
-24.6533
0
LINE
8
BLACK
6
CONTINUOUS
10
148.007
20
-24.6533
11
147.979
21
-24.7259
0
LINE
8
BLACK
6
CONTINUOUS
10
147.979
20
-24.7259
11
147.956
21
-24.8033
0
LINE
8
BLACK
6
CONTINUOUS
10
147.956
20
-24.8033
11
147.939
21
-24.8867
0
LINE
8
BLACK
6
CONTINUOUS
10
147.939
20
-24.8867
11
147.928
21
-24.9826
0
LINE
8
BLACK
6
CONTINUOUS
10
147.928
20
-24.9826
11
147.925
21
-25.0506
0
LINE
8
BLACK
6
CONTINUOUS
10
152.686
20
-44.0979
11
152.682
21
-44.0012
0
LINE
8
BLACK
6
CONTINUOUS
10
152.682
20
-44.0012
11
152.669
21
-43.9109
0
LINE
8
BLACK
6
CONTINUOUS
10
152.669
20
-43.9109
11
152.65
21
-43.8293
0
LINE
8
BLACK
6
CONTINUOUS
10
152.65
20
-43.8293
11
152.625
21
-43.7519
0
LINE
8
BLACK
6
CONTINUOUS
10
152.625
20
-43.7519
11
152.595
21
-43.6791
0
LINE
8
BLACK
6
CONTINUOUS
10
152.595
20
-43.6791
11
152.561
21
-43.6126
0
LINE
8
BLACK
6
CONTINUOUS
10
152.561
20
-43.6126
11
152.522
21
-43.5485
0
LINE
8
BLACK
6
CONTINUOUS
10
152.522
20
-43.5485
11
152.479
21
-43.4885
0
LINE
8
BLACK
6
CONTINUOUS
10
152.479
20
-43.4885
11
152.433
21
-43.4328
0
LINE
8
BLACK
6
CONTINUOUS
10
152.433
20
-43.4328
11
152.384
21
-43.3816
0
LINE
8
BLACK
6
CONTINUOUS
10
152.384
20
-43.3816
11
152.331
21
-43.3335
0
LINE
8
BLACK
6
CONTINUOUS
10
152.331
20
-43.3335
11
152.274
21
-43.2889
0
LINE
8
BLACK
6
CONTINUOUS
10
152.274
20
-43.2889
11
152.213
21
-43.2478
0
LINE
8
BLACK
6
CONTINUOUS
10
152.213
20
-43.2478
11
152.149
21
-43.2111
0
LINE
8
BLACK
6
CONTINUOUS
10
152.149
20
-43.2111
11
152.081
21
-43.1788
0
LINE
8
BLACK
6
CONTINUOUS
10
152.081
20
-43.1788
11
152.006
21
-43.1502
0
LINE
8
BLACK
6
CONTINUOUS
10
152.006
20
-43.1502
11
151.926
21
-43.1269
0
LINE
8
BLACK
6
CONTINUOUS
10
151.926
20
-43.1269
11
151.843
21
-43.11
0
LINE
8
BLACK
6
CONTINUOUS
10
151.843
20
-43.11
11
151.751
21
-43.1
0
LINE
8
BLACK
6
CONTINUOUS
10
151.751
20
-43.1
11
151.686
21
-43.0979
0
LINE
8
BLACK
6
CONTINUOUS
10
142.161
20
-81.2007
11
142.261
21
-81.1958
0
LINE
8
BLACK
6
CONTINUOUS
10
142.261
20
-81.1958
11
142.348
21
-81.1833
0
LINE
8
BLACK
6
CONTINUOUS
10
142.348
20
-81.1833
11
142.431
21
-81.164
0
LINE
8
BLACK
6
CONTINUOUS
10
142.431
20
-81.164
11
142.507
21
-81.1394
0
LINE
8
BLACK
6
CONTINUOUS
10
142.507
20
-81.1394
11
142.578
21
-81.11
0
LINE
8
BLACK
6
CONTINUOUS
10
142.578
20
-81.11
11
142.647
21
-81.0753
0
LINE
8
BLACK
6
CONTINUOUS
10
142.647
20
-81.0753
11
142.711
21
-81.0364
0
LINE
8
BLACK
6
CONTINUOUS
10
142.711
20
-81.0364
11
142.77
21
-80.9942
0
LINE
8
BLACK
6
CONTINUOUS
10
142.77
20
-80.9942
11
142.825
21
-80.9488
0
LINE
8
BLACK
6
CONTINUOUS
10
142.825
20
-80.9488
11
142.877
21
-80.899
0
LINE
8
BLACK
6
CONTINUOUS
10
142.877
20
-80.899
11
142.925
21
-80.8463
0
LINE
8
BLACK
6
CONTINUOUS
10
142.925
20
-80.8463
11
142.972
21
-80.7863
0
LINE
8
BLACK
6
CONTINUOUS
10
142.972
20
-80.7863
11
143.014
21
-80.7241
0
LINE
8
BLACK
6
CONTINUOUS
10
143.014
20
-80.7241
11
143.051
21
-80.658
0
LINE
8
BLACK
6
CONTINUOUS
10
143.051
20
-80.658
11
143.083
21
-80.5893
0
LINE
8
BLACK
6
CONTINUOUS
10
143.083
20
-80.5893
11
143.111
21
-80.5164
0
LINE
8
BLACK
6
CONTINUOUS
10
143.111
20
-80.5164
11
143.133
21
-80.4364
0
LINE
8
BLACK
6
CONTINUOUS
10
143.133
20
-80.4364
11
143.15
21
-80.3522
0
LINE
8
BLACK
6
CONTINUOUS
10
143.15
20
-80.3522
11
143.16
21
-80.2613
0
LINE
8
BLACK
6
CONTINUOUS
10
143.16
20
-80.2613
11
143.161
21
-80.2007
  0
ENDSEC
  0
EOF
