<?xml version="1.0" standalone="no"?>
 <!DOCTYPE svg PUBLIC "-//W3C//DTD SVG 1.1//EN" 
 "http://www.w3.org/Graphics/SVG/1.1/DTD/svg11.dtd"> 
<svg xmlns="http://www.w3.org/2000/svg" version="1.1" 
    width="59.4004cm" height="41.9989cm" viewBox="0 0 233860 165350 ">
<title>SVG Picture created as CASE-Eco2_User.svg date 2020/03/05 21:19:16 </title>
  <desc>Picture generated by PCBNEW </desc>
<g style="fill:#000000; fill-opacity:1;stroke:#000000; stroke-opacity:1;
stroke-linecap:round; stroke-linejoin:round; "
 transform="translate(0 0) scale(1 1)">
</g>
<g style="fill:#000000; fill-opacity:0.0; 
stroke:#000000; stroke-width:-0.000393701; stroke-opacity:1; 
stroke-linecap:round; stroke-linejoin:round;">
</g>
<g style="fill:#C2C200; fill-opacity:0.0; 
stroke:#C2C200; stroke-width:-0.000393701; stroke-opacity:1; 
stroke-linecap:round; stroke-linejoin:round;">
</g>
<g style="fill:#C2C200; fill-opacity:0.0; 
stroke:#C2C200; stroke-width:39.3701; stroke-opacity:1; 
stroke-linecap:round; stroke-linejoin:round;">
<path d="M65158 16485
L65158 7015
" />
<path d="M3168 48511
L127165 48511
" />
<path d="M74681 45882
L74681 46220
" />
<path d="M74681 45882
L118912 45882
" />
<path d="M118912 38382
L118912 45882
" />
<path d="M121724 38382
L118912 38382
" />
<path d="M121724 31178
L121724 38382
" />
<path d="M124370 31178
L121724 31178
" />
<path d="M124370 9643
L124370 31178
" />
<path d="M61079 38382
L61079 46220
" />
<path d="M60171 38382
L61062 38382
" />
<path d="M65796 9643
L124370 9643
" />
<path d="M65796 17143
L65796 9643
" />
<path d="M62047 17143
L65796 17143
" />
<path d="M62046 23382
L62046 17143
" />
<path d="M63921 23382
L62047 23382
" />
<path d="M63921 32143
L63921 23382
" />
<path d="M60171 32143
L63921 32143
" />
<path d="M61079 46220
L74681 46220
" />
<path d="M60171 32143
L60171 38382
" />
<path d="M64537 15882
L64537 9645
" />
<path d="M60787 15882
L64537 15882
" />
<path d="M60787 24643
L60787 15882
" />
<path d="M62662 24643
L60787 24643
" />
<path d="M62662 30882
L62662 24643
" />
<path d="M58912 30882
L62662 30882
" />
<path d="M58912 38382
L58912 30882
" />
<path d="M54133 38382
L58897 38382
" />
<path d="M54133 46220
L54133 38382
" />
<path d="M40787 46220
L54133 46220
" />
<path d="M40787 45882
L40787 46220
" />
<path d="M57658 38985
L59533 38985
" />
<path d="M61408 16485
L65158 16485
" />
<path d="M63283 23983
L61408 23983
" />
<path d="M61408 23983
L61408 16485
" />
<path d="M59533 31485
L63283 31485
" />
<path d="M57658 48511
L57658 38985
" />
<path d="M63283 31485
L63283 23983
" />
<path d="M59533 38985
L59533 31485
" />
<path d="M5796 9643
L64537 9643
" />
<path d="M5796 38382
L5796 9643
" />
<path d="M11417 38382
L5796 38382
" />
<path d="M11421 45882
L11421 38382
" />
<path d="M11421 45882
L40787 45882
" />
<path d="M127165 48511
L127165 7015
" />
<path d="M3168 7015
L3168 48511
" />
</g>
<g style="fill:#C2C200; fill-opacity:0.0; 
stroke:#C2C200; stroke-width:59.0551; stroke-opacity:1; 
stroke-linecap:round; stroke-linejoin:round;">
<path d="M64373 68052
L64617 68052
L64486 68202
L64542 68202
L64580 68220
L64598 68239
L64617 68277
L64617 68370
L64598 68408
L64580 68427
L64542 68445
L64430 68445
L64392 68427
L64373 68408
" />
<path d="M64861 68052
L64898 68052
L64936 68070
L64955 68089
L64973 68127
L64992 68202
L64992 68295
L64973 68370
L64955 68408
L64936 68427
L64898 68445
L64861 68445
L64823 68427
L64805 68408
L64786 68370
L64767 68295
L64767 68202
L64786 68127
L64805 68089
L64823 68070
L64861 68052
" />
<path d="M65329 68183
L65329 68445
" />
<path d="M65236 68033
L65142 68314
L65386 68314
" />
<path d="M65536 68408
L65554 68427
L65536 68445
L65517 68427
L65536 68408
L65536 68445
" />
<path d="M65742 68445
L65817 68445
L65854 68427
L65873 68408
L65911 68352
L65929 68277
L65929 68127
L65911 68089
L65892 68070
L65854 68052
L65779 68052
L65742 68070
L65723 68089
L65704 68127
L65704 68220
L65723 68258
L65742 68277
L65779 68295
L65854 68295
L65892 68277
L65911 68258
L65929 68220
" />
<path d="M66286 68052
L66098 68052
L66079 68239
L66098 68220
L66136 68202
L66229 68202
L66267 68220
L66286 68239
L66304 68277
L66304 68370
L66286 68408
L66267 68427
L66229 68445
L66136 68445
L66098 68427
L66079 68408
" />
<path d="M66454 68089
L66473 68070
L66511 68052
L66604 68052
L66642 68070
L66661 68089
L66679 68127
L66679 68164
L66661 68220
L66436 68445
L66679 68445
" />
<path d="M67148 68445
L67148 68183
" />
<path d="M67148 68220
L67167 68202
L67204 68183
L67260 68183
L67298 68202
L67317 68239
L67317 68445
" />
<path d="M67317 68239
L67335 68202
L67373 68183
L67429 68183
L67467 68202
L67485 68239
L67485 68445
" />
<path d="M67673 68445
L67673 68183
" />
<path d="M67673 68220
L67692 68202
L67729 68183
L67785 68183
L67823 68202
L67842 68239
L67842 68445
" />
<path d="M67842 68239
L67860 68202
L67898 68183
L67954 68183
L67992 68202
L68010 68239
L68010 68445
" />
<path d="M6181 67755
L126241 67755
" />
<path d="M6181 62019
L6181 67986
" />
<path d="M126241 62019
L126241 67986
" />
<path d="M126241 67755
L125797 67986
" />
<path d="M126241 67755
L125797 67525
" />
<path d="M6181 67755
L6624 67986
" />
<path d="M6181 67755
L6624 67525
" />
</g>
<g style="fill:#C2C200; fill-opacity:0.0; 
stroke:#C2C200; stroke-width:39.3701; stroke-opacity:1; 
stroke-linecap:round; stroke-linejoin:round;">
<path d="M3168 7015
L127165 7015
" />
<g >
</g>
</g>
<g style="fill:#000000; fill-opacity:0.0; 
stroke:#000000; stroke-width:39.3701; stroke-opacity:1; 
stroke-linecap:round; stroke-linejoin:round;">
<g >
</g>
</g> 
</svg>
