<?xml version="1.0" standalone="no"?>
 <!DOCTYPE svg PUBLIC "-//W3C//DTD SVG 1.1//EN" 
 "http://www.w3.org/Graphics/SVG/1.1/DTD/svg11.dtd"> 
<svg xmlns="http://www.w3.org/2000/svg" version="1.1" 
    width="59.4004cm" height="41.9989cm" viewBox="0 0 233860 165350 ">
<title>SVG Picture created as CASE_Cutting-Edge_Cuts.svg date 2020/03/12 04:25:34 </title>
  <desc>Picture generated by PCBNEW </desc>
<g style="fill:#000000; fill-opacity:1;stroke:#000000; stroke-opacity:1;
stroke-linecap:round; stroke-linejoin:round; "
 transform="translate(0 0) scale(1 1)">
</g>
<g style="fill:#000000; fill-opacity:0.0; 
stroke:#000000; stroke-width:-0.000393701; stroke-opacity:1; 
stroke-linecap:round; stroke-linejoin:round;">
</g>
<g style="fill:#000000; fill-opacity:0.0; 
stroke:#000000; stroke-width:39.3701; stroke-opacity:1; 
stroke-linecap:round; stroke-linejoin:round;">
<path d="M51771 5118
L51771 6692
" />
<path d="M47834 7086
L47834 8661
" />
<path d="M51771 6692
L54330 6692
" />
<path d="M46850 7086
L47834 7086
" />
<path d="M51771 5118
L52755 5118
" />
<path d="M54330 6692
L54330 2627
" />
<path d="M45275 8661
L47834 8661
" />
<path d="M45275 2627
L45275 8661
" />
<path d="M54330.7 0 A1574.8 1574.8 0.0 0 0 52755.9 1574.8 " />
<path d="M46850.4 1574.8 A1574.8 1574.8 0.0 0 0 45275.6 0 " />
<path d="M45275 0
L1929 0
" />
<path d="M52755 5118
L52755 1574
" />
<path d="M46850 1574
L46850 7086
" />
<path d="M2627 2627
L45275 2627
" />
<path d="M58239.5 16575.5 A393.701 393.701 0.0 0 0 58633.2 16969.2 " />
<path d="M59721 24470
L59760 24468
" />
<path d="M59760 24468
L59794 24463
" />
<path d="M59794 24463
L59827 24456
" />
<path d="M59827 24456
L59857 24446
" />
<path d="M59857 24446
L59885 24434
" />
<path d="M59885 24434
L59912 24421
" />
<path d="M59912 24421
L59937 24405
" />
<path d="M59937 24405
L59960 24389
" />
<path d="M59960 24389
L59982 24371
" />
<path d="M59982 24371
L60002 24351
" />
<path d="M60002 24351
L60021 24331
" />
<path d="M60021 24331
L60040 24307
" />
<path d="M60040 24307
L60056 24282
" />
<path d="M60056 24282
L60071 24256
" />
<path d="M60071 24256
L60083 24229
" />
<path d="M60083 24229
L60094 24201
" />
<path d="M60094 24201
L60103 24169
" />
<path d="M60103 24169
L60110 24136
" />
<path d="M60110 24136
L60114 24100
" />
<path d="M60114 24100
L60114 24076
" />
<path d="M58633 9470
L61596 9470
" />
<path d="M60114 24076
L60114 17362
" />
<path d="M55971 31970
L56010 31968
" />
<path d="M56010 31968
L56044 31963
" />
<path d="M56044 31963
L56077 31956
" />
<path d="M56077 31956
L56107 31946
" />
<path d="M56107 31946
L56135 31934
" />
<path d="M56135 31934
L56162 31921
" />
<path d="M56162 31921
L56187 31905
" />
<path d="M56187 31905
L56210 31889
" />
<path d="M56210 31889
L56232 31871
" />
<path d="M56232 31871
L56252 31851
" />
<path d="M56252 31851
L56271 31831
" />
<path d="M56271 31831
L56290 31807
" />
<path d="M56290 31807
L56306 31782
" />
<path d="M56306 31782
L56321 31756
" />
<path d="M56321 31756
L56333 31729
" />
<path d="M56333 31729
L56344 31701
" />
<path d="M56344 31701
L56353 31669
" />
<path d="M56353 31669
L56360 31636
" />
<path d="M56360 31636
L56364 31600
" />
<path d="M56364 31600
L56364 31576
" />
<path d="M61989 9076
L61989 0
" />
<path d="M54883 31970
L55970 31970
" />
<path d="M56757 24470
L59720 24470
" />
<path d="M56758 24470
L56720 24472
" />
<path d="M56720 24472
L56685 24477
" />
<path d="M56685 24477
L56653 24484
" />
<path d="M56653 24484
L56623 24494
" />
<path d="M56623 24494
L56595 24505
" />
<path d="M56595 24505
L56568 24519
" />
<path d="M56568 24519
L56543 24534
" />
<path d="M56543 24534
L56520 24550
" />
<path d="M56520 24550
L56498 24568
" />
<path d="M56498 24568
L56478 24587
" />
<path d="M56478 24587
L56459 24608
" />
<path d="M56459 24608
L56441 24630
" />
<path d="M56441 24630
L56425 24654
" />
<path d="M56425 24654
L56410 24679
" />
<path d="M56410 24679
L56397 24707
" />
<path d="M56397 24707
L56386 24736
" />
<path d="M56386 24736
L56376 24766
" />
<path d="M56376 24766
L56370 24799
" />
<path d="M56370 24799
L56365 24837
" />
<path d="M56365 24837
L56364 24864
" />
<path d="M58239 16575
L58239 9863
" />
<path d="M54884 31970
L54846 31972
" />
<path d="M54846 31972
L54811 31977
" />
<path d="M54811 31977
L54779 31984
" />
<path d="M54779 31984
L54749 31994
" />
<path d="M54749 31994
L54721 32005
" />
<path d="M54721 32005
L54694 32019
" />
<path d="M54694 32019
L54669 32034
" />
<path d="M54669 32034
L54646 32050
" />
<path d="M54646 32050
L54624 32068
" />
<path d="M54624 32068
L54603 32087
" />
<path d="M54603 32087
L54584 32108
" />
<path d="M54584 32108
L54567 32130
" />
<path d="M54567 32130
L54550 32154
" />
<path d="M54550 32154
L54536 32179
" />
<path d="M54536 32179
L54522 32207
" />
<path d="M54522 32207
L54511 32236
" />
<path d="M54511 32236
L54502 32266
" />
<path d="M54502 32266
L54495 32299
" />
<path d="M54495 32299
L54491 32337
" />
<path d="M54491 32337
L54490 32364
" />
<path d="M58634 9470
L58596 9472
" />
<path d="M58596 9472
L58561 9477
" />
<path d="M58561 9477
L58529 9484
" />
<path d="M58529 9484
L58499 9494
" />
<path d="M58499 9494
L58471 9505
" />
<path d="M58471 9505
L58444 9519
" />
<path d="M58444 9519
L58419 9534
" />
<path d="M58419 9534
L58396 9550
" />
<path d="M58396 9550
L58374 9568
" />
<path d="M58374 9568
L58353 9587
" />
<path d="M58353 9587
L58334 9608
" />
<path d="M58334 9608
L58317 9630
" />
<path d="M58317 9630
L58300 9654
" />
<path d="M58300 9654
L58286 9679
" />
<path d="M58286 9679
L58272 9707
" />
<path d="M58272 9707
L58261 9736
" />
<path d="M58261 9736
L58252 9766
" />
<path d="M58252 9766
L58245 9799
" />
<path d="M58245 9799
L58241 9837
" />
<path d="M58241 9837
L58240 9864
" />
<path d="M56364 31576
L56364 24863
" />
<path d="M54489 41496
L54489 32363
" />
<path d="M61596 9470
L61635 9468
" />
<path d="M61635 9468
L61670 9463
" />
<path d="M61670 9463
L61702 9456
" />
<path d="M61702 9456
L61732 9446
" />
<path d="M61732 9446
L61760 9434
" />
<path d="M61760 9434
L61787 9421
" />
<path d="M61787 9421
L61813 9405
" />
<path d="M61813 9405
L61836 9389
" />
<path d="M61836 9389
L61857 9371
" />
<path d="M61857 9371
L61878 9351
" />
<path d="M61878 9351
L61897 9331
" />
<path d="M61897 9331
L61915 9307
" />
<path d="M61915 9307
L61932 9282
" />
<path d="M61932 9282
L61946 9256
" />
<path d="M61946 9256
L61959 9229
" />
<path d="M61959 9229
L61970 9201
" />
<path d="M61970 9201
L61979 9169
" />
<path d="M61979 9169
L61985 9136
" />
<path d="M61985 9136
L61989 9100
" />
<path d="M61989 9100
L61990 9076
" />
<path d="M59720 16969
L58633 16969
" />
<path d="M60114 17363
L60112 17325
" />
<path d="M60112 17325
L60107 17289
" />
<path d="M60107 17289
L60100 17257
" />
<path d="M60100 17257
L60090 17226
" />
<path d="M60090 17226
L60078 17198
" />
<path d="M60078 17198
L60065 17172
" />
<path d="M60065 17172
L60050 17146
" />
<path d="M60050 17146
L60033 17123
" />
<path d="M60033 17123
L60015 17101
" />
<path d="M60015 17101
L59995 17081
" />
<path d="M59995 17081
L59974 17062
" />
<path d="M59974 17062
L59952 17044
" />
<path d="M59952 17044
L59928 17028
" />
<path d="M59928 17028
L59903 17014
" />
<path d="M59903 17014
L59876 17001
" />
<path d="M59876 17001
L59847 16990
" />
<path d="M59847 16990
L59815 16980
" />
<path d="M59815 16980
L59782 16974
" />
<path d="M59782 16974
L59746 16970
" />
<path d="M59746 16970
L59721 16969
" />
<path d="M1929.13 0 A1929.13 1929.13 0.0 0 0 0 1929.13 " />
<path d="M0 39566.9 A1929.13 1929.13 0.0 0 0 1929.13 41496 " />
<path d="M54330 0
L61989 0
" />
<path d="M0 1929
L0 39566
" />
<path d="M1929 41496
L54489 41496
" />
<path d="M3546 36907
L3572 36893
" />
<path d="M3572 36893
L3598 36880
" />
<path d="M3598 36880
L3626 36867
" />
<path d="M3626 36867
L3655 36855
" />
<path d="M3655 36855
L3684 36844
" />
<path d="M3684 36844
L3714 36835
" />
<path d="M3714 36835
L3746 36827
" />
<path d="M3746 36827
L3779 36819
" />
<path d="M3779 36819
L3814 36813
" />
<path d="M3814 36813
L3850 36808
" />
<path d="M3850 36808
L3887 36805
" />
<path d="M3887 36805
L3926 36804
" />
<path d="M3926 36804
L3965 36805
" />
<path d="M3965 36805
L4002 36808
" />
<path d="M4002 36808
L4040 36812
" />
<path d="M4040 36812
L4074 36818
" />
<path d="M4074 36818
L4107 36825
" />
<path d="M4107 36825
L4139 36833
" />
<path d="M4139 36833
L4170 36843
" />
<path d="M4170 36843
L4199 36853
" />
<path d="M4199 36853
L4228 36864
" />
<path d="M4228 36864
L4255 36877
" />
<path d="M4255 36877
L4282 36890
" />
<path d="M4282 36890
L4310 36905
" />
<path d="M4310 36905
L4314 36907
" />
<path d="M4698 37572
L4697 37611
" />
<path d="M4697 37611
L4694 37649
" />
<path d="M4694 37649
L4689 37684
" />
<path d="M4689 37684
L4683 37719
" />
<path d="M4683 37719
L4676 37752
" />
<path d="M4676 37752
L4668 37783
" />
<path d="M4668 37783
L4659 37814
" />
<path d="M4659 37814
L4648 37843
" />
<path d="M4648 37843
L4637 37871
" />
<path d="M4637 37871
L4624 37900
" />
<path d="M4624 37900
L4611 37927
" />
<path d="M4611 37927
L4597 37953
" />
<path d="M4597 37953
L4581 37978
" />
<path d="M4581 37978
L4565 38003
" />
<path d="M4565 38003
L4549 38026
" />
<path d="M4549 38026
L4531 38049
" />
<path d="M4531 38049
L4513 38071
" />
<path d="M4513 38071
L4495 38092
" />
<path d="M4495 38092
L4475 38113
" />
<path d="M4475 38113
L4455 38132
" />
<path d="M4455 38132
L4434 38151
" />
<path d="M4434 38151
L4412 38170
" />
<path d="M4412 38170
L4390 38187
" />
<path d="M4390 38187
L4366 38204
" />
<path d="M4366 38204
L4342 38220
" />
<path d="M4342 38220
L4316 38236
" />
<path d="M4316 38236
L4314 38237
" />
<path d="M4314 36907
L4339 36922
" />
<path d="M4339 36922
L4363 36938
" />
<path d="M4363 36938
L4386 36954
" />
<path d="M4386 36954
L4409 36972
" />
<path d="M4409 36972
L4431 36990
" />
<path d="M4431 36990
L4453 37010
" />
<path d="M4453 37010
L4473 37029
" />
<path d="M4473 37029
L4493 37050
" />
<path d="M4493 37050
L4512 37072
" />
<path d="M4512 37072
L4530 37093
" />
<path d="M4530 37093
L4547 37116
" />
<path d="M4547 37116
L4564 37139
" />
<path d="M4564 37139
L4580 37163
" />
<path d="M4580 37163
L4596 37191
" />
<path d="M4596 37191
L4611 37218
" />
<path d="M4611 37218
L4624 37245
" />
<path d="M4624 37245
L4637 37273
" />
<path d="M4637 37273
L4648 37301
" />
<path d="M4648 37301
L4659 37331
" />
<path d="M4659 37331
L4668 37361
" />
<path d="M4668 37361
L4676 37392
" />
<path d="M4676 37392
L4684 37426
" />
<path d="M4684 37426
L4690 37460
" />
<path d="M4690 37460
L4694 37498
" />
<path d="M4694 37498
L4697 37535
" />
<path d="M4697 37535
L4698 37572
" />
<path d="M3546 38237
L3520 38221
" />
<path d="M3520 38221
L3496 38205
" />
<path d="M3496 38205
L3473 38189
" />
<path d="M3473 38189
L3447 38169
" />
<path d="M3447 38169
L3426 38151
" />
<path d="M3426 38151
L3405 38132
" />
<path d="M3405 38132
L3385 38113
" />
<path d="M3385 38113
L3365 38091
" />
<path d="M3365 38091
L3346 38070
" />
<path d="M3346 38070
L3328 38049
" />
<path d="M3328 38049
L3311 38026
" />
<path d="M3311 38026
L3295 38003
" />
<path d="M3295 38003
L3279 37979
" />
<path d="M3279 37979
L3264 37954
" />
<path d="M3264 37954
L3250 37928
" />
<path d="M3250 37928
L3237 37902
" />
<path d="M3237 37902
L3223 37872
" />
<path d="M3223 37872
L3212 37844
" />
<path d="M3212 37844
L3202 37814
" />
<path d="M3202 37814
L3192 37784
" />
<path d="M3192 37784
L3184 37752
" />
<path d="M3184 37752
L3176 37719
" />
<path d="M3176 37719
L3171 37685
" />
<path d="M3171 37685
L3166 37650
" />
<path d="M3166 37650
L3163 37613
" />
<path d="M3163 37613
L3162 37574
" />
<path d="M3162 37574
L3162 37572
" />
<path d="M3162 37572
L3163 37533
" />
<path d="M3163 37533
L3166 37495
" />
<path d="M3166 37495
L3170 37460
" />
<path d="M3170 37460
L3176 37425
" />
<path d="M3176 37425
L3184 37391
" />
<path d="M3184 37391
L3192 37359
" />
<path d="M3192 37359
L3202 37328
" />
<path d="M3202 37328
L3213 37299
" />
<path d="M3213 37299
L3224 37270
" />
<path d="M3224 37270
L3236 37243
" />
<path d="M3236 37243
L3250 37216
" />
<path d="M3250 37216
L3264 37190
" />
<path d="M3264 37190
L3279 37164
" />
<path d="M3279 37164
L3295 37141
" />
<path d="M3295 37141
L3311 37117
" />
<path d="M3311 37117
L3329 37095
" />
<path d="M3329 37095
L3346 37073
" />
<path d="M3346 37073
L3365 37052
" />
<path d="M3365 37052
L3384 37032
" />
<path d="M3384 37032
L3405 37012
" />
<path d="M3405 37012
L3426 36992
" />
<path d="M3426 36992
L3448 36974
" />
<path d="M3448 36974
L3470 36957
" />
<path d="M3470 36957
L3494 36940
" />
<path d="M3494 36940
L3518 36924
" />
<path d="M3518 36924
L3542 36909
" />
<path d="M3542 36909
L3546 36907
" />
<path d="M4314 38237
L4288 38251
" />
<path d="M4288 38251
L4262 38264
" />
<path d="M4262 38264
L4234 38277
" />
<path d="M4234 38277
L4206 38288
" />
<path d="M4206 38288
L4176 38299
" />
<path d="M4176 38299
L4145 38309
" />
<path d="M4145 38309
L4114 38317
" />
<path d="M4114 38317
L4081 38325
" />
<path d="M4081 38325
L4047 38331
" />
<path d="M4047 38331
L4010 38335
" />
<path d="M4010 38335
L3973 38338
" />
<path d="M3973 38338
L3934 38340
" />
<path d="M3934 38340
L3893 38339
" />
<path d="M3893 38339
L3855 38336
" />
<path d="M3855 38336
L3820 38332
" />
<path d="M3820 38332
L3786 38326
" />
<path d="M3786 38326
L3753 38319
" />
<path d="M3753 38319
L3721 38311
" />
<path d="M3721 38311
L3690 38301
" />
<path d="M3690 38301
L3661 38291
" />
<path d="M3661 38291
L3632 38279
" />
<path d="M3632 38279
L3605 38267
" />
<path d="M3605 38267
L3578 38254
" />
<path d="M3578 38254
L3551 38239
" />
<path d="M3551 38239
L3546 38237
" />
<path d="M52759 36907
L52784 36922
" />
<path d="M52784 36922
L52808 36938
" />
<path d="M52808 36938
L52831 36954
" />
<path d="M52831 36954
L52854 36972
" />
<path d="M52854 36972
L52875 36990
" />
<path d="M52875 36990
L52898 37010
" />
<path d="M52898 37010
L52918 37029
" />
<path d="M52918 37029
L52937 37050
" />
<path d="M52937 37050
L52957 37072
" />
<path d="M52957 37072
L52975 37093
" />
<path d="M52975 37093
L52992 37116
" />
<path d="M52992 37116
L53009 37139
" />
<path d="M53009 37139
L53025 37163
" />
<path d="M53025 37163
L53041 37191
" />
<path d="M53041 37191
L53056 37218
" />
<path d="M53056 37218
L53069 37245
" />
<path d="M53069 37245
L53082 37273
" />
<path d="M53082 37273
L53093 37301
" />
<path d="M53093 37301
L53104 37331
" />
<path d="M53104 37331
L53113 37361
" />
<path d="M53113 37361
L53121 37392
" />
<path d="M53121 37392
L53129 37426
" />
<path d="M53129 37426
L53134 37460
" />
<path d="M53134 37460
L53139 37498
" />
<path d="M53139 37498
L53142 37535
" />
<path d="M53142 37535
L53143 37572
" />
<path d="M52759 38237
L52733 38251
" />
<path d="M52733 38251
L52707 38264
" />
<path d="M52707 38264
L52679 38277
" />
<path d="M52679 38277
L52651 38288
" />
<path d="M52651 38288
L52620 38299
" />
<path d="M52620 38299
L52590 38309
" />
<path d="M52590 38309
L52559 38317
" />
<path d="M52559 38317
L52526 38325
" />
<path d="M52526 38325
L52492 38331
" />
<path d="M52492 38331
L52455 38335
" />
<path d="M52455 38335
L52418 38338
" />
<path d="M52418 38338
L52379 38340
" />
<path d="M52379 38340
L52338 38339
" />
<path d="M52338 38339
L52300 38336
" />
<path d="M52300 38336
L52264 38332
" />
<path d="M52264 38332
L52231 38326
" />
<path d="M52231 38326
L52198 38319
" />
<path d="M52198 38319
L52165 38311
" />
<path d="M52165 38311
L52135 38301
" />
<path d="M52135 38301
L52106 38291
" />
<path d="M52106 38291
L52077 38279
" />
<path d="M52077 38279
L52049 38267
" />
<path d="M52049 38267
L52022 38254
" />
<path d="M52022 38254
L51995 38239
" />
<path d="M51995 38239
L51991 38237
" />
<path d="M53143 37572
L53142 37611
" />
<path d="M53142 37611
L53139 37649
" />
<path d="M53139 37649
L53134 37684
" />
<path d="M53134 37684
L53128 37719
" />
<path d="M53128 37719
L53121 37752
" />
<path d="M53121 37752
L53113 37783
" />
<path d="M53113 37783
L53104 37814
" />
<path d="M53104 37814
L53093 37843
" />
<path d="M53093 37843
L53082 37871
" />
<path d="M53082 37871
L53069 37900
" />
<path d="M53069 37900
L53056 37927
" />
<path d="M53056 37927
L53042 37953
" />
<path d="M53042 37953
L53026 37978
" />
<path d="M53026 37978
L53010 38003
" />
<path d="M53010 38003
L52994 38026
" />
<path d="M52994 38026
L52976 38049
" />
<path d="M52976 38049
L52958 38071
" />
<path d="M52958 38071
L52940 38092
" />
<path d="M52940 38092
L52920 38113
" />
<path d="M52920 38113
L52899 38132
" />
<path d="M52899 38132
L52878 38151
" />
<path d="M52878 38151
L52857 38170
" />
<path d="M52857 38170
L52834 38187
" />
<path d="M52834 38187
L52811 38204
" />
<path d="M52811 38204
L52786 38220
" />
<path d="M52786 38220
L52761 38236
" />
<path d="M52761 38236
L52759 38237
" />
<path d="M51991 38237
L51965 38221
" />
<path d="M51965 38221
L51941 38205
" />
<path d="M51941 38205
L51917 38189
" />
<path d="M51917 38189
L51892 38169
" />
<path d="M51892 38169
L51871 38151
" />
<path d="M51871 38151
L51850 38132
" />
<path d="M51850 38132
L51830 38113
" />
<path d="M51830 38113
L51809 38091
" />
<path d="M51809 38091
L51791 38070
" />
<path d="M51791 38070
L51773 38049
" />
<path d="M51773 38049
L51756 38026
" />
<path d="M51756 38026
L51739 38003
" />
<path d="M51739 38003
L51724 37979
" />
<path d="M51724 37979
L51709 37954
" />
<path d="M51709 37954
L51695 37928
" />
<path d="M51695 37928
L51682 37902
" />
<path d="M51682 37902
L51668 37872
" />
<path d="M51668 37872
L51657 37844
" />
<path d="M51657 37844
L51646 37814
" />
<path d="M51646 37814
L51637 37784
" />
<path d="M51637 37784
L51629 37752
" />
<path d="M51629 37752
L51621 37719
" />
<path d="M51621 37719
L51615 37685
" />
<path d="M51615 37685
L51611 37650
" />
<path d="M51611 37650
L51608 37613
" />
<path d="M51608 37613
L51607 37574
" />
<path d="M51607 37574
L51607 37572
" />
<path d="M51607 37572
L51608 37533
" />
<path d="M51608 37533
L51611 37495
" />
<path d="M51611 37495
L51615 37460
" />
<path d="M51615 37460
L51621 37425
" />
<path d="M51621 37425
L51629 37391
" />
<path d="M51629 37391
L51637 37359
" />
<path d="M51637 37359
L51647 37328
" />
<path d="M51647 37328
L51657 37299
" />
<path d="M51657 37299
L51669 37270
" />
<path d="M51669 37270
L51681 37243
" />
<path d="M51681 37243
L51694 37216
" />
<path d="M51694 37216
L51709 37190
" />
<path d="M51709 37190
L51724 37164
" />
<path d="M51724 37164
L51740 37141
" />
<path d="M51740 37141
L51756 37117
" />
<path d="M51756 37117
L51773 37095
" />
<path d="M51773 37095
L51791 37073
" />
<path d="M51791 37073
L51810 37052
" />
<path d="M51810 37052
L51829 37032
" />
<path d="M51829 37032
L51849 37012
" />
<path d="M51849 37012
L51871 36992
" />
<path d="M51871 36992
L51893 36974
" />
<path d="M51893 36974
L51915 36957
" />
<path d="M51915 36957
L51939 36940
" />
<path d="M51939 36940
L51963 36924
" />
<path d="M51963 36924
L51987 36909
" />
<path d="M51987 36909
L51991 36907
" />
<path d="M51991 36907
L52016 36893
" />
<path d="M52016 36893
L52043 36880
" />
<path d="M52043 36880
L52070 36867
" />
<path d="M52070 36867
L52100 36855
" />
<path d="M52100 36855
L52129 36844
" />
<path d="M52129 36844
L52159 36835
" />
<path d="M52159 36835
L52191 36827
" />
<path d="M52191 36827
L52223 36819
" />
<path d="M52223 36819
L52259 36813
" />
<path d="M52259 36813
L52295 36808
" />
<path d="M52295 36808
L52332 36805
" />
<path d="M52332 36805
L52371 36804
" />
<path d="M52371 36804
L52410 36805
" />
<path d="M52410 36805
L52447 36808
" />
<path d="M52447 36808
L52485 36812
" />
<path d="M52485 36812
L52519 36818
" />
<path d="M52519 36818
L52552 36825
" />
<path d="M52552 36825
L52584 36833
" />
<path d="M52584 36833
L52615 36843
" />
<path d="M52615 36843
L52644 36853
" />
<path d="M52644 36853
L52673 36864
" />
<path d="M52673 36864
L52700 36877
" />
<path d="M52700 36877
L52727 36890
" />
<path d="M52727 36890
L52755 36905
" />
<path d="M52755 36905
L52759 36907
" />
<path d="M54330 2627
L61368 2627
" />
<path d="M8252 38867
L8252 31367
" />
<path d="M59493 17627
L57618 17627
" />
<path d="M50964 39205
L50964 31367
" />
<path d="M59493 23867
L59493 17627
" />
<path d="M37618 38867
L37618 39205
" />
<path d="M37618 39205
L50964 39205
" />
<path d="M57618 17627
L57618 8867
" />
<path d="M50964 31367
L55743 31367
" />
<path d="M2627 31367
L2627 2627
" />
<path d="M57618 8867
L61368 8867
" />
<path d="M61368 8867
L61368 2627
" />
<path d="M8252 31367
L2627 31367
" />
<path d="M55743 23867
L59493 23867
" />
<path d="M55743 31367
L55743 23867
" />
<path d="M8252 38867
L37618 38867
" />
<g >
</g>
</g> 
</svg>
