  0
SECTION
  2
HEADER
  9
$ACADVER
  1
AC1014
  9
$HANDSEED
  5
FFFF
  9
$MEASUREMENT
 70
     1
  0
ENDSEC
  0
SECTION
  2
TABLES
  0
TABLE
  2
VPORT
  5
8
330
0
100
AcDbSymbolTable
 70
     4
  0
VPORT
  5
2E
330
8
100
AcDbSymbolTableRecord
100
AcDbViewportTableRecord
  2
*ACTIVE
 70
     0
 10
0.0
 20
0.0
 11
1.0
 21
1.0
 12
210.0
 22
148.5
 13
0.0
 23
0.0
 14
10.0
 24
10.0
 15
10.0
 25
10.0
 16
0.0
 26
0.0
 36
1.0
 17
0.0
 27
0.0
 37
0.0
 40
341.0
 41
1.24
 42
50.0
 43
0.0
 44
0.0
 50
0.0
 51
0.0
 71
     0
 72
   100
 73
     1
 74
     3
 75
     0
 76
     0
 77
     0
 78
     0
  0
ENDTAB
  0
TABLE
  2
LTYPE
  5
5
330
0
100
AcDbSymbolTable
 70
     1
  0
LTYPE
  5
14
330
5
100
AcDbSymbolTableRecord
100
AcDbLinetypeTableRecord
  2
BYBLOCK
 70
     0
  3

 72
    65
 73
     0
 40
0.0
  0
LTYPE
  5
15
330
5
100
AcDbSymbolTableRecord
100
AcDbLinetypeTableRecord
  2
BYLAYER
 70
     0
  3

 72
    65
 73
     0
 40
0.0
  0
LTYPE
  5
16
330
5
100
AcDbSymbolTableRecord
100
AcDbLinetypeTableRecord
  2
CONTINUOUS
 70
     0
  3
Solid line
 72
    65
 73
     0
 40
0.0
  0
ENDTAB
  0
TABLE
  2
LAYER
  5
2
100
AcDbSymbolTable
 70
1
  0
LAYER
  5
50
100
AcDbSymbolTableRecord
100
AcDbLayerTableRecord
  2
0
 70
0
  6
CONTINUOUS
  0
ENDTAB
  0
TABLE
  2
STYLE
  5
3
330
0
100
AcDbSymbolTable
 70
     1
  0
STYLE
  5
11
330
3
100
AcDbSymbolTableRecord
100
AcDbTextStyleTableRecord
  2
STANDARD
 70
     0
 40
0.0
 41
1.0
 50
0.0
 71
     0
 42
2.5
  3
txt
  4

  0
ENDTAB
  0
TABLE
  2
VIEW
  5
6
330
0
100
AcDbSymbolTable
 70
     0
  0
ENDTAB
  0
TABLE
  2
UCS
  5
7
330
0
100
AcDbSymbolTable
 70
     0
  0
ENDTAB
  0
TABLE
  2
APPID
  5
9
330
0
100
AcDbSymbolTable
 70
     2
  0
APPID
  5
12
330
9
100
AcDbSymbolTableRecord
100
AcDbRegAppTableRecord
  2
ACAD
 70
     0
  0
ENDTAB
  0
TABLE
  2
DIMSTYLE
  5
A
330
0
100
AcDbSymbolTable
 70
     1
  0
DIMSTYLE
105
27
330
A
100
AcDbSymbolTableRecord
100
AcDbDimStyleTableRecord
  2
ISO-25
 70
     0
  3

  4

  5

  6

  7

 40
1.0
 41
2.5
 42
0.625
 43
3.75
 44
1.25
 45
0.0
 46
0.0
 47
0.0
 48
0.0
140
2.5
141
2.5
142
0.0
143
0.03937007874016
144
1.0
145
0.0
146
1.0
147
0.625
 71
     0
 72
     0
 73
     0
 74
     0
 75
     0
 76
     0
 77
     1
 78
     8
170
     0
171
     3
172
     1
173
     0
174
     0
175
     0
176
     0
177
     0
178
     0
270
     2
271
     2
272
     2
273
     2
274
     3
340
11
275
     0
280
     0
281
     0
282
     0
283
     0
284
     8
285
     0
286
     0
287
     3
288
     0
  0
ENDTAB
  0
TABLE
  2
BLOCK_RECORD
  5
1
330
0
100
AcDbSymbolTable
 70
     1
  0
BLOCK_RECORD
  5
1F
330
1
100
AcDbSymbolTableRecord
100
AcDbBlockTableRecord
  2
*MODEL_SPACE
  0
BLOCK_RECORD
  5
1B
330
1
100
AcDbSymbolTableRecord
100
AcDbBlockTableRecord
  2
*PAPER_SPACE
  0
ENDTAB
  0
ENDSEC
  0
SECTION
  2
BLOCKS
  0
BLOCK
  5
20
330
1F
100
AcDbEntity
  8
0
100
AcDbBlockBegin
  2
*MODEL_SPACE
 70
     0
 10
0.0
 20
0.0
 30
0.0
  3
*MODEL_SPACE
  1

  0
ENDBLK
  5
21
330
1F
100
AcDbEntity
  8
0
100
AcDbBlockEnd
  0
BLOCK
  5
1C
330
1B
100
AcDbEntity
 67
     1
  8
0
100
AcDbBlockBegin
  2
*PAPER_SPACE
  1

  0
ENDBLK
  5
1D
330
1B
100
AcDbEntity
 67
     1
  8
0
100
AcDbBlockEnd
  0
ENDSEC
  0
SECTION
  2
ENTITIES
  0
SPLINE
  5
100
100
AcDbEntity
  8
0
 62
2
100
AcDbSpline
 70
8
 71
3
 72
8
 73
4
 74
0
 40
0
 40
0
 40
0
 40
0
 40
1
 40
1
 40
1
 40
1
 10
23.271347
 20
-20.553636
 30
0.0
 10
23.271347
 20
-21.250304
 30
0.0
 10
22.899678
 20
-21.894052
 30
0.0
 10
22.296346
 20
-22.242386
 30
0.0
  0
SPLINE
  5
101
100
AcDbEntity
  8
0
 62
2
100
AcDbSpline
 70
8
 71
3
 72
8
 73
4
 74
0
 40
0
 40
0
 40
0
 40
0
 40
1
 40
1
 40
1
 40
1
 10
22.296346
 20
-22.242386
 30
0.0
 10
21.693014
 20
-22.590720
 30
0.0
 10
20.949677
 20
-22.590720
 30
0.0
 10
20.346345
 20
-22.242386
 30
0.0
  0
SPLINE
  5
102
100
AcDbEntity
  8
0
 62
2
100
AcDbSpline
 70
8
 71
3
 72
8
 73
4
 74
0
 40
0
 40
0
 40
0
 40
0
 40
1
 40
1
 40
1
 40
1
 10
20.346345
 20
-22.242386
 30
0.0
 10
19.743012
 20
-21.894052
 30
0.0
 10
19.371344
 20
-21.250304
 30
0.0
 10
19.371344
 20
-20.553636
 30
0.0
  0
SPLINE
  5
103
100
AcDbEntity
  8
0
 62
2
100
AcDbSpline
 70
8
 71
3
 72
8
 73
4
 74
0
 40
0
 40
0
 40
0
 40
0
 40
1
 40
1
 40
1
 40
1
 10
19.371344
 20
-20.553636
 30
0.0
 10
19.371344
 20
-19.856967
 30
0.0
 10
19.743012
 20
-19.213219
 30
0.0
 10
20.346345
 20
-18.864885
 30
0.0
  0
SPLINE
  5
104
100
AcDbEntity
  8
0
 62
2
100
AcDbSpline
 70
8
 71
3
 72
8
 73
4
 74
0
 40
0
 40
0
 40
0
 40
0
 40
1
 40
1
 40
1
 40
1
 10
20.346345
 20
-18.864885
 30
0.0
 10
20.949677
 20
-18.516551
 30
0.0
 10
21.693014
 20
-18.516551
 30
0.0
 10
22.296346
 20
-18.864885
 30
0.0
  0
SPLINE
  5
105
100
AcDbEntity
  8
0
 62
2
100
AcDbSpline
 70
8
 71
3
 72
8
 73
4
 74
0
 40
0
 40
0
 40
0
 40
0
 40
1
 40
1
 40
1
 40
1
 10
22.296346
 20
-18.864885
 30
0.0
 10
22.899678
 20
-19.213219
 30
0.0
 10
23.271347
 20
-19.856967
 30
0.0
 10
23.271347
 20
-20.553636
 30
0.0
  0
LINE
  5
106
100
AcDbEntity
  8
0
 62
2
100
AcDbLine
 10
23.271347
 20
-20.553636
 30
0.0
 11
23.271347
 21
-20.553636
 31
0.0
  0
SPLINE
  5
107
100
AcDbEntity
  8
0
 62
2
100
AcDbSpline
 70
8
 71
3
 72
8
 73
4
 74
0
 40
0
 40
0
 40
0
 40
0
 40
1
 40
1
 40
1
 40
1
 10
135.321345
 20
-17.532431
 30
0.0
 10
135.321345
 20
-18.104055
 30
0.0
 10
135.016387
 20
-18.632259
 30
0.0
 10
134.521345
 20
-18.918071
 30
0.0
  0
SPLINE
  5
108
100
AcDbEntity
  8
0
 62
2
100
AcDbSpline
 70
8
 71
3
 72
8
 73
4
 74
0
 40
0
 40
0
 40
0
 40
0
 40
1
 40
1
 40
1
 40
1
 10
134.521345
 20
-18.918071
 30
0.0
 10
134.026304
 20
-19.203883
 30
0.0
 10
133.416387
 20
-19.203883
 30
0.0
 10
132.921346
 20
-18.918071
 30
0.0
  0
SPLINE
  5
109
100
AcDbEntity
  8
0
 62
2
100
AcDbSpline
 70
8
 71
3
 72
8
 73
4
 74
0
 40
0
 40
0
 40
0
 40
0
 40
1
 40
1
 40
1
 40
1
 10
132.921346
 20
-18.918071
 30
0.0
 10
132.426304
 20
-18.632259
 30
0.0
 10
132.121346
 20
-18.104055
 30
0.0
 10
132.121346
 20
-17.532431
 30
0.0
  0
SPLINE
  5
10a
100
AcDbEntity
  8
0
 62
2
100
AcDbSpline
 70
8
 71
3
 72
8
 73
4
 74
0
 40
0
 40
0
 40
0
 40
0
 40
1
 40
1
 40
1
 40
1
 10
132.121346
 20
-17.532431
 30
0.0
 10
132.121346
 20
-16.960806
 30
0.0
 10
132.426304
 20
-16.432603
 30
0.0
 10
132.921346
 20
-16.146791
 30
0.0
  0
SPLINE
  5
10b
100
AcDbEntity
  8
0
 62
2
100
AcDbSpline
 70
8
 71
3
 72
8
 73
4
 74
0
 40
0
 40
0
 40
0
 40
0
 40
1
 40
1
 40
1
 40
1
 10
132.921346
 20
-16.146791
 30
0.0
 10
133.416387
 20
-15.860978
 30
0.0
 10
134.026304
 20
-15.860978
 30
0.0
 10
134.521345
 20
-16.146791
 30
0.0
  0
SPLINE
  5
10c
100
AcDbEntity
  8
0
 62
2
100
AcDbSpline
 70
8
 71
3
 72
8
 73
4
 74
0
 40
0
 40
0
 40
0
 40
0
 40
1
 40
1
 40
1
 40
1
 10
134.521345
 20
-16.146791
 30
0.0
 10
135.016387
 20
-16.432603
 30
0.0
 10
135.321345
 20
-16.960806
 30
0.0
 10
135.321345
 20
-17.532431
 30
0.0
  0
LINE
  5
10d
100
AcDbEntity
  8
0
 62
2
100
AcDbLine
 10
135.321345
 20
-17.532431
 30
0.0
 11
135.321345
 21
-17.532431
 31
0.0
  0
SPLINE
  5
10e
100
AcDbEntity
  8
0
 62
2
100
AcDbSpline
 70
8
 71
3
 72
8
 73
4
 74
0
 40
0
 40
0
 40
0
 40
0
 40
1
 40
1
 40
1
 40
1
 10
151.554688
 20
-18.236722
 30
0.0
 10
152.106971
 20
-18.236721
 30
0.0
 10
152.554685
 20
-17.789008
 30
0.0
 10
152.554686
 20
-17.236724
 30
0.0
  0
SPLINE
  5
10f
100
AcDbEntity
  8
0
 62
2
100
AcDbSpline
 70
8
 71
3
 72
8
 73
4
 74
0
 40
0
 40
0
 40
0
 40
0
 40
1
 40
1
 40
1
 40
1
 10
144.029684
 20
-18.236722
 30
0.0
 10
143.477401
 20
-18.236724
 30
0.0
 10
143.029687
 20
-18.684437
 30
0.0
 10
143.029686
 20
-19.236720
 30
0.0
  0
SPLINE
  5
110
100
AcDbEntity
  8
0
 62
2
100
AcDbSpline
 70
8
 71
3
 72
8
 73
4
 74
0
 40
0
 40
0
 40
0
 40
0
 40
1
 40
1
 40
1
 40
1
 10
143.029686
 20
-36.284032
 30
0.0
 10
143.029687
 20
-36.836315
 30
0.0
 10
143.477401
 20
-37.284029
 30
0.0
 10
144.029684
 20
-37.284030
 30
0.0
  0
SPLINE
  5
111
100
AcDbEntity
  8
0
 62
2
100
AcDbSpline
 70
8
 71
3
 72
8
 73
4
 74
0
 40
0
 40
0
 40
0
 40
0
 40
1
 40
1
 40
1
 40
1
 10
147.790662
 20
-38.284028
 30
0.0
 10
147.790661
 20
-37.731745
 30
0.0
 10
147.342947
 20
-37.284031
 30
0.0
 10
146.790664
 20
-37.284030
 30
0.0
  0
SPLINE
  5
112
100
AcDbEntity
  8
0
 62
2
100
AcDbSpline
 70
8
 71
3
 72
8
 73
4
 74
0
 40
0
 40
0
 40
0
 40
0
 40
1
 40
1
 40
1
 40
1
 10
146.790664
 20
-56.336824
 30
0.0
 10
147.342947
 20
-56.336823
 30
0.0
 10
147.790661
 20
-55.889109
 30
0.0
 10
147.790662
 20
-55.336826
 30
0.0
  0
SPLINE
  5
113
100
AcDbEntity
  8
0
 62
2
100
AcDbSpline
 70
8
 71
3
 72
8
 73
4
 74
0
 40
0
 40
0
 40
0
 40
0
 40
1
 40
1
 40
1
 40
1
 10
139.265660
 20
-56.336824
 30
0.0
 10
138.713377
 20
-56.336825
 30
0.0
 10
138.265663
 20
-56.784539
 30
0.0
 10
138.265662
 20
-57.336822
 30
0.0
  0
SPLINE
  5
114
100
AcDbEntity
  8
0
 62
2
100
AcDbSpline
 70
8
 71
3
 72
8
 73
4
 74
0
 40
0
 40
0
 40
0
 40
0
 40
1
 40
1
 40
1
 40
1
 10
137.265664
 20
-75.386824
 30
0.0
 10
137.817947
 20
-75.386823
 30
0.0
 10
138.265661
 20
-74.939109
 30
0.0
 10
138.265662
 20
-74.386826
 30
0.0
  0
SPLINE
  5
115
100
AcDbEntity
  8
0
 62
2
100
AcDbSpline
 70
8
 71
3
 72
8
 73
4
 74
0
 40
0
 40
0
 40
0
 40
0
 40
1
 40
1
 40
1
 40
1
 10
134.504684
 20
-75.386824
 30
0.0
 10
133.952401
 20
-75.386825
 30
0.0
 10
133.504687
 20
-75.834539
 30
0.0
 10
133.504686
 20
-76.386822
 30
0.0
  0
LINE
  5
116
100
AcDbEntity
  8
0
 62
2
100
AcDbLine
 10
303.138840
 20
-93.992070
 30
0.0
 11
302.864520
 21
-94.144470
 31
0.0
  0
LINE
  5
117
100
AcDbEntity
  8
0
 62
2
100
AcDbLine
 10
303.400460
 20
-93.816810
 30
0.0
 11
303.138840
 21
-93.992070
 31
0.0
  0
LINE
  5
118
100
AcDbEntity
  8
0
 62
2
100
AcDbLine
 10
302.864520
 20
0.384170
 30
0.0
 11
303.138840
 21
0.229230
 31
0.0
  0
LINE
  5
119
100
AcDbEntity
  8
0
 62
2
100
AcDbLine
 10
1.056640
 20
-93.179270
 30
0.0
 11
0.861060
 21
-92.932890
 31
0.0
  0
LINE
  5
11a
100
AcDbEntity
  8
0
 62
2
100
AcDbLine
 10
2.283460
 20
-94.144470
 30
0.0
 11
2.009140
 21
-93.992070
 31
0.0
  0
LINE
  5
11b
100
AcDbEntity
  8
0
 62
2
100
AcDbLine
 10
1.270000
 20
-93.410410
 30
0.0
 11
1.056640
 21
-93.179270
 31
0.0
  0
LINE
  5
11c
100
AcDbEntity
  8
0
 62
2
100
AcDbLine
 10
2.009140
 20
-93.992070
 30
0.0
 11
1.747520
 21
-93.816810
 31
0.0
  0
LINE
  5
11d
100
AcDbEntity
  8
0
 62
2
100
AcDbLine
 10
3.784600
 20
-94.568650
 30
0.0
 11
3.474720
 21
-94.533090
 31
0.0
  0
LINE
  5
11e
100
AcDbEntity
  8
0
 62
2
100
AcDbLine
 10
305.051460
 20
-3.181990
 30
0.0
 11
305.051460
 21
-90.580850
 31
0.0
  0
LINE
  5
11f
100
AcDbEntity
  8
0
 62
2
100
AcDbLine
 10
2.567940
 20
-94.279090
 30
0.0
 11
2.283460
 21
-94.144470
 31
0.0
  0
LINE
  5
120
100
AcDbEntity
  8
0
 62
2
100
AcDbLine
 10
303.646840
 20
-93.623770
 30
0.0
 11
303.400460
 21
-93.816810
 31
0.0
  0
LINE
  5
121
100
AcDbEntity
  8
0
 62
2
100
AcDbLine
 10
304.746660
 20
-1.650370
 30
0.0
 11
304.855880
 21
-1.945010
 31
0.0
  0
LINE
  5
122
100
AcDbEntity
  8
0
 62
2
100
AcDbLine
 10
304.091340
 20
-93.179270
 30
0.0
 11
303.877980
 21
-93.410410
 31
0.0
  0
LINE
  5
123
100
AcDbEntity
  8
0
 62
2
100
AcDbLine
 10
304.939700
 20
-2.247270
 30
0.0
 11
305.000660
 21
-2.554610
 31
0.0
  0
LINE
  5
124
100
AcDbEntity
  8
0
 62
2
100
AcDbLine
 10
3.164840
 20
-94.472130
 30
0.0
 11
2.862580
 21
-94.385770
 31
0.0
  0
LINE
  5
125
100
AcDbEntity
  8
0
 62
2
100
AcDbLine
 10
303.138840
 20
0.229230
 30
0.0
 11
303.400460
 21
0.056510
 31
0.0
  0
LINE
  5
126
100
AcDbEntity
  8
0
 62
2
100
AcDbLine
 10
304.939700
 20
-91.515570
 30
0.0
 11
304.855880
 21
-91.817830
 31
0.0
  0
LINE
  5
127
100
AcDbEntity
  8
0
 62
2
100
AcDbLine
 10
301.363380
 20
-94.568650
 30
0.0
 11
301.048420
 21
-94.581350
 31
0.0
  0
LINE
  5
128
100
AcDbEntity
  8
0
 62
2
100
AcDbLine
 10
304.614580
 20
-92.396950
 30
0.0
 11
304.459640
 21
-92.671270
 31
0.0
  0
LINE
  5
129
100
AcDbEntity
  8
0
 62
2
100
AcDbLine
 10
301.048420
 20
0.818510
 30
0.0
 11
301.363380
 21
0.805810
 31
0.0
  0
LINE
  5
12a
100
AcDbEntity
  8
0
 62
2
100
AcDbLine
 10
303.400460
 20
0.056510
 30
0.0
 11
303.646840
 21
-0.139070
 31
0.0
  0
LINE
  5
12b
100
AcDbEntity
  8
0
 62
2
100
AcDbLine
 10
301.363380
 20
0.805810
 30
0.0
 11
301.675800
 21
0.770250
 31
0.0
  0
LINE
  5
12c
100
AcDbEntity
  8
0
 62
2
100
AcDbLine
 10
3.474720
 20
-94.533090
 30
0.0
 11
3.164840
 21
-94.472130
 31
0.0
  0
LINE
  5
12d
100
AcDbEntity
  8
0
 62
2
100
AcDbLine
 10
301.675800
 20
-94.533090
 30
0.0
 11
301.363380
 21
-94.568650
 31
0.0
  0
LINE
  5
12e
100
AcDbEntity
  8
0
 62
2
100
AcDbLine
 10
301.983140
 20
0.709290
 30
0.0
 11
302.285400
 21
0.622930
 31
0.0
  0
LINE
  5
12f
100
AcDbEntity
  8
0
 62
2
100
AcDbLine
 10
301.048420
 20
-94.581350
 30
0.0
 11
4.099560
 21
-94.581350
 31
0.0
  0
LINE
  5
130
100
AcDbEntity
  8
0
 62
2
100
AcDbLine
 10
302.580040
 20
-94.279090
 30
0.0
 11
302.285400
 21
-94.385770
 31
0.0
  0
LINE
  5
131
100
AcDbEntity
  8
0
 62
2
100
AcDbLine
 10
304.459640
 20
-1.091570
 30
0.0
 11
304.614580
 21
-1.365890
 31
0.0
  0
LINE
  5
132
100
AcDbEntity
  8
0
 62
2
100
AcDbLine
 10
305.000660
 20
-91.208230
 30
0.0
 11
304.939700
 21
-91.515570
 31
0.0
  0
LINE
  5
133
100
AcDbEntity
  8
0
 62
2
100
AcDbLine
 10
4.099560
 20
-94.581350
 30
0.0
 11
3.784600
 21
-94.568650
 31
0.0
  0
LINE
  5
134
100
AcDbEntity
  8
0
 62
2
100
AcDbLine
 10
305.036220
 20
-90.895810
 30
0.0
 11
305.000660
 21
-91.208230
 31
0.0
  0
LINE
  5
135
100
AcDbEntity
  8
0
 62
2
100
AcDbLine
 10
304.459640
 20
-92.671270
 30
0.0
 11
304.284380
 21
-92.932890
 31
0.0
  0
LINE
  5
136
100
AcDbEntity
  8
0
 62
2
100
AcDbLine
 10
305.000660
 20
-2.554610
 30
0.0
 11
305.036220
 21
-2.867030
 31
0.0
  0
LINE
  5
137
100
AcDbEntity
  8
0
 62
2
100
AcDbLine
 10
2.862580
 20
-94.385770
 30
0.0
 11
2.567940
 21
-94.279090
 31
0.0
  0
LINE
  5
138
100
AcDbEntity
  8
0
 62
2
100
AcDbLine
 10
302.580040
 20
0.513710
 30
0.0
 11
302.864520
 21
0.384170
 31
0.0
  0
LINE
  5
139
100
AcDbEntity
  8
0
 62
2
100
AcDbLine
 10
304.284380
 20
-92.932890
 30
0.0
 11
304.091340
 21
-93.179270
 31
0.0
  0
LINE
  5
13a
100
AcDbEntity
  8
0
 62
2
100
AcDbLine
 10
301.983140
 20
-94.472130
 30
0.0
 11
301.675800
 21
-94.533090
 31
0.0
  0
LINE
  5
13b
100
AcDbEntity
  8
0
 62
2
100
AcDbLine
 10
302.285400
 20
-94.385770
 30
0.0
 11
301.983140
 21
-94.472130
 31
0.0
  0
LINE
  5
13c
100
AcDbEntity
  8
0
 62
2
100
AcDbLine
 10
304.855880
 20
-91.817830
 30
0.0
 11
304.746660
 21
-92.112470
 31
0.0
  0
LINE
  5
13d
100
AcDbEntity
  8
0
 62
2
100
AcDbLine
 10
304.091340
 20
-0.583570
 30
0.0
 11
304.284380
 21
-0.829950
 31
0.0
  0
LINE
  5
13e
100
AcDbEntity
  8
0
 62
2
100
AcDbLine
 10
303.646840
 20
-0.139070
 30
0.0
 11
303.877980
 21
-0.352430
 31
0.0
  0
LINE
  5
13f
100
AcDbEntity
  8
0
 62
2
100
AcDbLine
 10
304.746660
 20
-92.112470
 30
0.0
 11
304.614580
 21
-92.396950
 31
0.0
  0
LINE
  5
140
100
AcDbEntity
  8
0
 62
2
100
AcDbLine
 10
305.051460
 20
-90.580850
 30
0.0
 11
305.036220
 21
-90.895810
 31
0.0
  0
LINE
  5
141
100
AcDbEntity
  8
0
 62
2
100
AcDbLine
 10
304.614580
 20
-1.365890
 30
0.0
 11
304.746660
 21
-1.650370
 31
0.0
  0
LINE
  5
142
100
AcDbEntity
  8
0
 62
2
100
AcDbLine
 10
304.284380
 20
-0.829950
 30
0.0
 11
304.459640
 21
-1.091570
 31
0.0
  0
LINE
  5
143
100
AcDbEntity
  8
0
 62
2
100
AcDbLine
 10
303.877980
 20
-0.352430
 30
0.0
 11
304.091340
 21
-0.583570
 31
0.0
  0
LINE
  5
144
100
AcDbEntity
  8
0
 62
2
100
AcDbLine
 10
1.501140
 20
-93.623770
 30
0.0
 11
1.270000
 21
-93.410410
 31
0.0
  0
LINE
  5
145
100
AcDbEntity
  8
0
 62
2
100
AcDbLine
 10
302.864520
 20
-94.144470
 30
0.0
 11
302.580040
 21
-94.279090
 31
0.0
  0
LINE
  5
146
100
AcDbEntity
  8
0
 62
2
100
AcDbLine
 10
304.855880
 20
-1.945010
 30
0.0
 11
304.939700
 21
-2.247270
 31
0.0
  0
LINE
  5
147
100
AcDbEntity
  8
0
 62
2
100
AcDbLine
 10
301.675800
 20
0.770250
 30
0.0
 11
301.983140
 21
0.709290
 31
0.0
  0
LINE
  5
148
100
AcDbEntity
  8
0
 62
2
100
AcDbLine
 10
305.036220
 20
-2.867030
 30
0.0
 11
305.051460
 21
-3.181990
 31
0.0
  0
LINE
  5
149
100
AcDbEntity
  8
0
 62
2
100
AcDbLine
 10
0.688340
 20
-92.671270
 30
0.0
 11
0.533400
 21
-92.396950
 31
0.0
  0
LINE
  5
14a
100
AcDbEntity
  8
0
 62
2
100
AcDbLine
 10
303.877980
 20
-93.410410
 30
0.0
 11
303.646840
 21
-93.623770
 31
0.0
  0
LINE
  5
14b
100
AcDbEntity
  8
0
 62
2
100
AcDbLine
 10
302.285400
 20
0.622930
 30
0.0
 11
302.580040
 21
0.513710
 31
0.0
  0
LINE
  5
14c
100
AcDbEntity
  8
0
 62
2
100
AcDbLine
 10
0.861060
 20
-92.932890
 30
0.0
 11
0.688340
 21
-92.671270
 31
0.0
  0
LINE
  5
14d
100
AcDbEntity
  8
0
 62
2
100
AcDbLine
 10
1.747520
 20
-93.816810
 30
0.0
 11
1.501140
 21
-93.623770
 31
0.0
  0
LINE
  5
14e
100
AcDbEntity
  8
0
 62
2
100
AcDbLine
 10
3.784600
 20
0.805810
 30
0.0
 11
4.099560
 21
0.818510
 31
0.0
  0
LINE
  5
14f
100
AcDbEntity
  8
0
 62
2
100
AcDbLine
 10
2.567940
 20
0.513710
 30
0.0
 11
2.862580
 21
0.622930
 31
0.0
  0
LINE
  5
150
100
AcDbEntity
  8
0
 62
2
100
AcDbLine
 10
0.403860
 20
-92.112470
 30
0.0
 11
0.294640
 21
-91.817830
 31
0.0
  0
LINE
  5
151
100
AcDbEntity
  8
0
 62
2
100
AcDbLine
 10
0.403860
 20
-1.650370
 30
0.0
 11
0.533400
 21
-1.365890
 31
0.0
  0
LINE
  5
152
100
AcDbEntity
  8
0
 62
2
100
AcDbLine
 10
0.294640
 20
-1.945010
 30
0.0
 11
0.403860
 21
-1.650370
 31
0.0
  0
LINE
  5
153
100
AcDbEntity
  8
0
 62
2
100
AcDbLine
 10
0.533400
 20
-92.396950
 30
0.0
 11
0.403860
 21
-92.112470
 31
0.0
  0
LINE
  5
154
100
AcDbEntity
  8
0
 62
2
100
AcDbLine
 10
0.294640
 20
-91.817830
 30
0.0
 11
0.208280
 21
-91.515570
 31
0.0
  0
LINE
  5
155
100
AcDbEntity
  8
0
 62
2
100
AcDbLine
 10
4.099560
 20
0.818510
 30
0.0
 11
301.048420
 21
0.818510
 31
0.0
  0
LINE
  5
156
100
AcDbEntity
  8
0
 62
2
100
AcDbLine
 10
0.099060
 20
-90.580850
 30
0.0
 11
0.099060
 21
-3.181990
 31
0.0
  0
LINE
  5
157
100
AcDbEntity
  8
0
 62
2
100
AcDbLine
 10
0.688340
 20
-1.091570
 30
0.0
 11
0.861060
 21
-0.829950
 31
0.0
  0
LINE
  5
158
100
AcDbEntity
  8
0
 62
2
100
AcDbLine
 10
2.009140
 20
0.229230
 30
0.0
 11
2.283460
 21
0.384170
 31
0.0
  0
LINE
  5
159
100
AcDbEntity
  8
0
 62
2
100
AcDbLine
 10
1.747520
 20
0.056510
 30
0.0
 11
2.009140
 21
0.229230
 31
0.0
  0
LINE
  5
15a
100
AcDbEntity
  8
0
 62
2
100
AcDbLine
 10
0.147320
 20
-2.554610
 30
0.0
 11
0.208280
 21
-2.247270
 31
0.0
  0
LINE
  5
15b
100
AcDbEntity
  8
0
 62
2
100
AcDbLine
 10
1.501140
 20
-0.139070
 30
0.0
 11
1.747520
 21
0.056510
 31
0.0
  0
LINE
  5
15c
100
AcDbEntity
  8
0
 62
2
100
AcDbLine
 10
2.283460
 20
0.384170
 30
0.0
 11
2.567940
 21
0.513710
 31
0.0
  0
LINE
  5
15d
100
AcDbEntity
  8
0
 62
2
100
AcDbLine
 10
3.164840
 20
0.709290
 30
0.0
 11
3.474720
 21
0.770250
 31
0.0
  0
LINE
  5
15e
100
AcDbEntity
  8
0
 62
2
100
AcDbLine
 10
0.208280
 20
-91.515570
 30
0.0
 11
0.147320
 21
-91.208230
 31
0.0
  0
LINE
  5
15f
100
AcDbEntity
  8
0
 62
2
100
AcDbLine
 10
0.861060
 20
-0.829950
 30
0.0
 11
1.056640
 21
-0.583570
 31
0.0
  0
LINE
  5
160
100
AcDbEntity
  8
0
 62
2
100
AcDbLine
 10
0.533400
 20
-1.365890
 30
0.0
 11
0.688340
 21
-1.091570
 31
0.0
  0
LINE
  5
161
100
AcDbEntity
  8
0
 62
2
100
AcDbLine
 10
0.099060
 20
-3.181990
 30
0.0
 11
0.111760
 21
-2.867030
 31
0.0
  0
LINE
  5
162
100
AcDbEntity
  8
0
 62
2
100
AcDbLine
 10
3.474720
 20
0.770250
 30
0.0
 11
3.784600
 21
0.805810
 31
0.0
  0
LINE
  5
163
100
AcDbEntity
  8
0
 62
2
100
AcDbLine
 10
2.862580
 20
0.622930
 30
0.0
 11
3.164840
 21
0.709290
 31
0.0
  0
LINE
  5
164
100
AcDbEntity
  8
0
 62
2
100
AcDbLine
 10
1.056640
 20
-0.583570
 30
0.0
 11
1.270000
 21
-0.352430
 31
0.0
  0
LINE
  5
165
100
AcDbEntity
  8
0
 62
2
100
AcDbLine
 10
1.270000
 20
-0.352430
 30
0.0
 11
1.501140
 21
-0.139070
 31
0.0
  0
LINE
  5
166
100
AcDbEntity
  8
0
 62
2
100
AcDbLine
 10
0.111760
 20
-90.895810
 30
0.0
 11
0.099060
 21
-90.580850
 31
0.0
  0
LINE
  5
167
100
AcDbEntity
  8
0
 62
2
100
AcDbLine
 10
0.208280
 20
-2.247270
 30
0.0
 11
0.294640
 21
-1.945010
 31
0.0
  0
LINE
  5
168
100
AcDbEntity
  8
0
 62
2
100
AcDbLine
 10
0.147320
 20
-91.208230
 30
0.0
 11
0.111760
 21
-90.895810
 31
0.0
  0
LINE
  5
169
100
AcDbEntity
  8
0
 62
2
100
AcDbLine
 10
0.111760
 20
-2.867030
 30
0.0
 11
0.147320
 21
-2.554610
 31
0.0
  0
SPLINE
  5
16a
100
AcDbEntity
  8
0
 62
2
100
AcDbSpline
 70
8
 71
3
 72
8
 73
4
 74
0
 40
0
 40
0
 40
0
 40
0
 40
1
 40
1
 40
1
 40
1
 10
206.600344
 20
-37.982530
 30
0.0
 10
206.600344
 20
-38.554155
 30
0.0
 10
206.295386
 20
-39.082358
 30
0.0
 10
205.800344
 20
-39.368170
 30
0.0
  0
SPLINE
  5
16b
100
AcDbEntity
  8
0
 62
2
100
AcDbSpline
 70
8
 71
3
 72
8
 73
4
 74
0
 40
0
 40
0
 40
0
 40
0
 40
1
 40
1
 40
1
 40
1
 10
205.800344
 20
-39.368170
 30
0.0
 10
205.305303
 20
-39.653983
 30
0.0
 10
204.695386
 20
-39.653983
 30
0.0
 10
204.200345
 20
-39.368170
 30
0.0
  0
SPLINE
  5
16c
100
AcDbEntity
  8
0
 62
2
100
AcDbSpline
 70
8
 71
3
 72
8
 73
4
 74
0
 40
0
 40
0
 40
0
 40
0
 40
1
 40
1
 40
1
 40
1
 10
204.200345
 20
-39.368170
 30
0.0
 10
203.705303
 20
-39.082358
 30
0.0
 10
203.400345
 20
-38.554155
 30
0.0
 10
203.400345
 20
-37.982530
 30
0.0
  0
SPLINE
  5
16d
100
AcDbEntity
  8
0
 62
2
100
AcDbSpline
 70
8
 71
3
 72
8
 73
4
 74
0
 40
0
 40
0
 40
0
 40
0
 40
1
 40
1
 40
1
 40
1
 10
203.400345
 20
-37.982530
 30
0.0
 10
203.400345
 20
-37.098875
 30
0.0
 10
204.116689
 20
-36.382531
 30
0.0
 10
205.000344
 20
-36.382531
 30
0.0
  0
SPLINE
  5
16e
100
AcDbEntity
  8
0
 62
2
100
AcDbSpline
 70
8
 71
3
 72
8
 73
4
 74
0
 40
0
 40
0
 40
0
 40
0
 40
1
 40
1
 40
1
 40
1
 10
205.000344
 20
-36.382531
 30
0.0
 10
205.884000
 20
-36.382531
 30
0.0
 10
206.600344
 20
-37.098875
 30
0.0
 10
206.600344
 20
-37.982530
 30
0.0
  0
LINE
  5
16f
100
AcDbEntity
  8
0
 62
2
100
AcDbLine
 10
206.600344
 20
-37.982530
 30
0.0
 11
206.600344
 21
-37.982530
 31
0.0
  0
SPLINE
  5
170
100
AcDbEntity
  8
0
 62
2
100
AcDbSpline
 70
8
 71
3
 72
8
 73
4
 74
0
 40
0
 40
0
 40
0
 40
0
 40
1
 40
1
 40
1
 40
1
 10
92.350389
 20
-37.982530
 30
0.0
 10
92.350389
 20
-38.554155
 30
0.0
 10
92.045431
 20
-39.082358
 30
0.0
 10
91.550390
 20
-39.368170
 30
0.0
  0
SPLINE
  5
171
100
AcDbEntity
  8
0
 62
2
100
AcDbSpline
 70
8
 71
3
 72
8
 73
4
 74
0
 40
0
 40
0
 40
0
 40
0
 40
1
 40
1
 40
1
 40
1
 10
91.550390
 20
-39.368170
 30
0.0
 10
91.055348
 20
-39.653983
 30
0.0
 10
90.445432
 20
-39.653983
 30
0.0
 10
89.950390
 20
-39.368170
 30
0.0
  0
SPLINE
  5
172
100
AcDbEntity
  8
0
 62
2
100
AcDbSpline
 70
8
 71
3
 72
8
 73
4
 74
0
 40
0
 40
0
 40
0
 40
0
 40
1
 40
1
 40
1
 40
1
 10
89.950390
 20
-39.368170
 30
0.0
 10
89.455349
 20
-39.082358
 30
0.0
 10
89.150391
 20
-38.554155
 30
0.0
 10
89.150391
 20
-37.982530
 30
0.0
  0
SPLINE
  5
173
100
AcDbEntity
  8
0
 62
2
100
AcDbSpline
 70
8
 71
3
 72
8
 73
4
 74
0
 40
0
 40
0
 40
0
 40
0
 40
1
 40
1
 40
1
 40
1
 10
89.150391
 20
-37.982530
 30
0.0
 10
89.150391
 20
-37.410905
 30
0.0
 10
89.455349
 20
-36.882702
 30
0.0
 10
89.950390
 20
-36.596890
 30
0.0
  0
SPLINE
  5
174
100
AcDbEntity
  8
0
 62
2
100
AcDbSpline
 70
8
 71
3
 72
8
 73
4
 74
0
 40
0
 40
0
 40
0
 40
0
 40
1
 40
1
 40
1
 40
1
 10
89.950390
 20
-36.596890
 30
0.0
 10
90.445432
 20
-36.311078
 30
0.0
 10
91.055348
 20
-36.311078
 30
0.0
 10
91.550390
 20
-36.596890
 30
0.0
  0
SPLINE
  5
175
100
AcDbEntity
  8
0
 62
2
100
AcDbSpline
 70
8
 71
3
 72
8
 73
4
 74
0
 40
0
 40
0
 40
0
 40
0
 40
1
 40
1
 40
1
 40
1
 10
91.550390
 20
-36.596890
 30
0.0
 10
92.045431
 20
-36.882702
 30
0.0
 10
92.350389
 20
-37.410905
 30
0.0
 10
92.350389
 20
-37.982530
 30
0.0
  0
LINE
  5
176
100
AcDbEntity
  8
0
 62
2
100
AcDbLine
 10
92.350389
 20
-37.982530
 30
0.0
 11
92.350389
 21
-37.982530
 31
0.0
  0
SPLINE
  5
177
100
AcDbEntity
  8
0
 62
2
100
AcDbSpline
 70
8
 71
3
 72
8
 73
4
 74
0
 40
0
 40
0
 40
0
 40
0
 40
1
 40
1
 40
1
 40
1
 10
140.200426
 20
-89.583395
 30
0.0
 10
140.200426
 20
-90.280063
 30
0.0
 10
139.828758
 20
-90.923811
 30
0.0
 10
139.225425
 20
-91.272145
 30
0.0
  0
SPLINE
  5
178
100
AcDbEntity
  8
0
 62
2
100
AcDbSpline
 70
8
 71
3
 72
8
 73
4
 74
0
 40
0
 40
0
 40
0
 40
0
 40
1
 40
1
 40
1
 40
1
 10
139.225425
 20
-91.272145
 30
0.0
 10
138.622093
 20
-91.620479
 30
0.0
 10
137.878756
 20
-91.620479
 30
0.0
 10
137.275424
 20
-91.272145
 30
0.0
  0
SPLINE
  5
179
100
AcDbEntity
  8
0
 62
2
100
AcDbSpline
 70
8
 71
3
 72
8
 73
4
 74
0
 40
0
 40
0
 40
0
 40
0
 40
1
 40
1
 40
1
 40
1
 10
137.275424
 20
-91.272145
 30
0.0
 10
136.672092
 20
-90.923811
 30
0.0
 10
136.300423
 20
-90.280063
 30
0.0
 10
136.300423
 20
-89.583395
 30
0.0
  0
SPLINE
  5
17a
100
AcDbEntity
  8
0
 62
2
100
AcDbSpline
 70
8
 71
3
 72
8
 73
4
 74
0
 40
0
 40
0
 40
0
 40
0
 40
1
 40
1
 40
1
 40
1
 10
136.300423
 20
-89.583395
 30
0.0
 10
136.300423
 20
-88.886726
 30
0.0
 10
136.672092
 20
-88.242978
 30
0.0
 10
137.275424
 20
-87.894644
 30
0.0
  0
SPLINE
  5
17b
100
AcDbEntity
  8
0
 62
2
100
AcDbSpline
 70
8
 71
3
 72
8
 73
4
 74
0
 40
0
 40
0
 40
0
 40
0
 40
1
 40
1
 40
1
 40
1
 10
137.275424
 20
-87.894644
 30
0.0
 10
137.878756
 20
-87.546310
 30
0.0
 10
138.622093
 20
-87.546310
 30
0.0
 10
139.225425
 20
-87.894644
 30
0.0
  0
SPLINE
  5
17c
100
AcDbEntity
  8
0
 62
2
100
AcDbSpline
 70
8
 71
3
 72
8
 73
4
 74
0
 40
0
 40
0
 40
0
 40
0
 40
1
 40
1
 40
1
 40
1
 10
139.225425
 20
-87.894644
 30
0.0
 10
139.828758
 20
-88.242978
 30
0.0
 10
140.200426
 20
-88.886726
 30
0.0
 10
140.200426
 20
-89.583395
 30
0.0
  0
LINE
  5
17d
100
AcDbEntity
  8
0
 62
2
100
AcDbLine
 10
140.200426
 20
-89.583395
 30
0.0
 11
140.200426
 21
-89.583395
 31
0.0
  0
SPLINE
  5
17e
100
AcDbEntity
  8
0
 62
2
100
AcDbSpline
 70
8
 71
3
 72
8
 73
4
 74
0
 40
0
 40
0
 40
0
 40
0
 40
1
 40
1
 40
1
 40
1
 10
130.100362
 20
-89.583395
 30
0.0
 10
130.100362
 20
-90.280063
 30
0.0
 10
129.728694
 20
-90.923811
 30
0.0
 10
129.125361
 20
-91.272145
 30
0.0
  0
SPLINE
  5
17f
100
AcDbEntity
  8
0
 62
2
100
AcDbSpline
 70
8
 71
3
 72
8
 73
4
 74
0
 40
0
 40
0
 40
0
 40
0
 40
1
 40
1
 40
1
 40
1
 10
129.125361
 20
-91.272145
 30
0.0
 10
128.522029
 20
-91.620479
 30
0.0
 10
127.778693
 20
-91.620479
 30
0.0
 10
127.175360
 20
-91.272145
 30
0.0
  0
SPLINE
  5
180
100
AcDbEntity
  8
0
 62
2
100
AcDbSpline
 70
8
 71
3
 72
8
 73
4
 74
0
 40
0
 40
0
 40
0
 40
0
 40
1
 40
1
 40
1
 40
1
 10
127.175360
 20
-91.272145
 30
0.0
 10
126.572028
 20
-90.923811
 30
0.0
 10
126.200360
 20
-90.280063
 30
0.0
 10
126.200360
 20
-89.583395
 30
0.0
  0
SPLINE
  5
181
100
AcDbEntity
  8
0
 62
2
100
AcDbSpline
 70
8
 71
3
 72
8
 73
4
 74
0
 40
0
 40
0
 40
0
 40
0
 40
1
 40
1
 40
1
 40
1
 10
126.200360
 20
-89.583395
 30
0.0
 10
126.200360
 20
-88.886726
 30
0.0
 10
126.572028
 20
-88.242978
 30
0.0
 10
127.175360
 20
-87.894644
 30
0.0
  0
SPLINE
  5
182
100
AcDbEntity
  8
0
 62
2
100
AcDbSpline
 70
8
 71
3
 72
8
 73
4
 74
0
 40
0
 40
0
 40
0
 40
0
 40
1
 40
1
 40
1
 40
1
 10
127.175360
 20
-87.894644
 30
0.0
 10
127.778693
 20
-87.546310
 30
0.0
 10
128.522029
 20
-87.546310
 30
0.0
 10
129.125361
 20
-87.894644
 30
0.0
  0
SPLINE
  5
183
100
AcDbEntity
  8
0
 62
2
100
AcDbSpline
 70
8
 71
3
 72
8
 73
4
 74
0
 40
0
 40
0
 40
0
 40
0
 40
1
 40
1
 40
1
 40
1
 10
129.125361
 20
-87.894644
 30
0.0
 10
129.728694
 20
-88.242978
 30
0.0
 10
130.100362
 20
-88.886726
 30
0.0
 10
130.100362
 20
-89.583395
 30
0.0
  0
LINE
  5
184
100
AcDbEntity
  8
0
 62
2
100
AcDbLine
 10
130.100362
 20
-89.583395
 30
0.0
 11
130.100362
 21
-89.583395
 31
0.0
  0
SPLINE
  5
185
100
AcDbEntity
  8
0
 62
2
100
AcDbSpline
 70
8
 71
3
 72
8
 73
4
 74
0
 40
0
 40
0
 40
0
 40
0
 40
1
 40
1
 40
1
 40
1
 10
173.300448
 20
-17.532431
 30
0.0
 10
173.300448
 20
-18.104055
 30
0.0
 10
172.995490
 20
-18.632259
 30
0.0
 10
172.500449
 20
-18.918071
 30
0.0
  0
SPLINE
  5
186
100
AcDbEntity
  8
0
 62
2
100
AcDbSpline
 70
8
 71
3
 72
8
 73
4
 74
0
 40
0
 40
0
 40
0
 40
0
 40
1
 40
1
 40
1
 40
1
 10
172.500449
 20
-18.918071
 30
0.0
 10
172.005407
 20
-19.203883
 30
0.0
 10
171.395491
 20
-19.203883
 30
0.0
 10
170.900449
 20
-18.918071
 30
0.0
  0
SPLINE
  5
187
100
AcDbEntity
  8
0
 62
2
100
AcDbSpline
 70
8
 71
3
 72
8
 73
4
 74
0
 40
0
 40
0
 40
0
 40
0
 40
1
 40
1
 40
1
 40
1
 10
170.900449
 20
-18.918071
 30
0.0
 10
170.405408
 20
-18.632259
 30
0.0
 10
170.100450
 20
-18.104055
 30
0.0
 10
170.100450
 20
-17.532431
 30
0.0
  0
SPLINE
  5
188
100
AcDbEntity
  8
0
 62
2
100
AcDbSpline
 70
8
 71
3
 72
8
 73
4
 74
0
 40
0
 40
0
 40
0
 40
0
 40
1
 40
1
 40
1
 40
1
 10
170.100450
 20
-17.532431
 30
0.0
 10
170.100450
 20
-16.960806
 30
0.0
 10
170.405408
 20
-16.432603
 30
0.0
 10
170.900449
 20
-16.146791
 30
0.0
  0
SPLINE
  5
189
100
AcDbEntity
  8
0
 62
2
100
AcDbSpline
 70
8
 71
3
 72
8
 73
4
 74
0
 40
0
 40
0
 40
0
 40
0
 40
1
 40
1
 40
1
 40
1
 10
170.900449
 20
-16.146791
 30
0.0
 10
171.395491
 20
-15.860978
 30
0.0
 10
172.005407
 20
-15.860978
 30
0.0
 10
172.500449
 20
-16.146791
 30
0.0
  0
SPLINE
  5
18a
100
AcDbEntity
  8
0
 62
2
100
AcDbSpline
 70
8
 71
3
 72
8
 73
4
 74
0
 40
0
 40
0
 40
0
 40
0
 40
1
 40
1
 40
1
 40
1
 10
172.500449
 20
-16.146791
 30
0.0
 10
172.995490
 20
-16.432603
 30
0.0
 10
173.300448
 20
-16.960806
 30
0.0
 10
173.300448
 20
-17.532431
 30
0.0
  0
LINE
  5
18b
100
AcDbEntity
  8
0
 62
2
100
AcDbLine
 10
173.300448
 20
-17.532431
 30
0.0
 11
173.300448
 21
-17.532431
 31
0.0
  0
SPLINE
  5
18c
100
AcDbEntity
  8
0
 62
2
100
AcDbSpline
 70
8
 71
3
 72
8
 73
4
 74
0
 40
0
 40
0
 40
0
 40
0
 40
1
 40
1
 40
1
 40
1
 10
280.750561
 20
-21.532424
 30
0.0
 10
280.750561
 20
-22.229092
 30
0.0
 10
280.378893
 20
-22.872840
 30
0.0
 10
279.775561
 20
-23.221174
 30
0.0
  0
SPLINE
  5
18d
100
AcDbEntity
  8
0
 62
2
100
AcDbSpline
 70
8
 71
3
 72
8
 73
4
 74
0
 40
0
 40
0
 40
0
 40
0
 40
1
 40
1
 40
1
 40
1
 10
279.775561
 20
-23.221174
 30
0.0
 10
279.172228
 20
-23.569508
 30
0.0
 10
278.428892
 20
-23.569508
 30
0.0
 10
277.825559
 20
-23.221174
 30
0.0
  0
SPLINE
  5
18e
100
AcDbEntity
  8
0
 62
2
100
AcDbSpline
 70
8
 71
3
 72
8
 73
4
 74
0
 40
0
 40
0
 40
0
 40
0
 40
1
 40
1
 40
1
 40
1
 10
277.825559
 20
-23.221174
 30
0.0
 10
277.222227
 20
-22.872840
 30
0.0
 10
276.850559
 20
-22.229092
 30
0.0
 10
276.850559
 20
-21.532424
 30
0.0
  0
SPLINE
  5
18f
100
AcDbEntity
  8
0
 62
2
100
AcDbSpline
 70
8
 71
3
 72
8
 73
4
 74
0
 40
0
 40
0
 40
0
 40
0
 40
1
 40
1
 40
1
 40
1
 10
276.850559
 20
-21.532424
 30
0.0
 10
276.850559
 20
-20.835755
 30
0.0
 10
277.222227
 20
-20.192007
 30
0.0
 10
277.825559
 20
-19.843673
 30
0.0
  0
SPLINE
  5
190
100
AcDbEntity
  8
0
 62
2
100
AcDbSpline
 70
8
 71
3
 72
8
 73
4
 74
0
 40
0
 40
0
 40
0
 40
0
 40
1
 40
1
 40
1
 40
1
 10
277.825559
 20
-19.843673
 30
0.0
 10
278.428892
 20
-19.495339
 30
0.0
 10
279.172228
 20
-19.495339
 30
0.0
 10
279.775561
 20
-19.843673
 30
0.0
  0
SPLINE
  5
191
100
AcDbEntity
  8
0
 62
2
100
AcDbSpline
 70
8
 71
3
 72
8
 73
4
 74
0
 40
0
 40
0
 40
0
 40
0
 40
1
 40
1
 40
1
 40
1
 10
279.775561
 20
-19.843673
 30
0.0
 10
280.378893
 20
-20.192007
 30
0.0
 10
280.750561
 20
-20.835755
 30
0.0
 10
280.750561
 20
-21.532424
 30
0.0
  0
LINE
  5
192
100
AcDbEntity
  8
0
 62
2
100
AcDbLine
 10
280.750561
 20
-21.532424
 30
0.0
 11
280.750561
 21
-21.532424
 31
0.0
  0
SPLINE
  5
193
100
AcDbEntity
  8
0
 62
2
100
AcDbSpline
 70
8
 71
3
 72
8
 73
4
 74
0
 40
0
 40
0
 40
0
 40
0
 40
1
 40
1
 40
1
 40
1
 10
302.000201
 20
-89.583395
 30
0.0
 10
302.000201
 20
-90.660350
 30
0.0
 10
301.127156
 20
-91.533395
 30
0.0
 10
300.050200
 20
-91.533395
 30
0.0
  0
SPLINE
  5
194
100
AcDbEntity
  8
0
 62
2
100
AcDbSpline
 70
8
 71
3
 72
8
 73
4
 74
0
 40
0
 40
0
 40
0
 40
0
 40
1
 40
1
 40
1
 40
1
 10
300.050200
 20
-91.533395
 30
0.0
 10
298.973244
 20
-91.533395
 30
0.0
 10
298.100199
 20
-90.660350
 30
0.0
 10
298.100199
 20
-89.583395
 30
0.0
  0
SPLINE
  5
195
100
AcDbEntity
  8
0
 62
2
100
AcDbSpline
 70
8
 71
3
 72
8
 73
4
 74
0
 40
0
 40
0
 40
0
 40
0
 40
1
 40
1
 40
1
 40
1
 10
298.100199
 20
-89.583395
 30
0.0
 10
298.100199
 20
-88.886726
 30
0.0
 10
298.471867
 20
-88.242978
 30
0.0
 10
299.075199
 20
-87.894644
 30
0.0
  0
SPLINE
  5
196
100
AcDbEntity
  8
0
 62
2
100
AcDbSpline
 70
8
 71
3
 72
8
 73
4
 74
0
 40
0
 40
0
 40
0
 40
0
 40
1
 40
1
 40
1
 40
1
 10
299.075199
 20
-87.894644
 30
0.0
 10
299.678532
 20
-87.546310
 30
0.0
 10
300.421868
 20
-87.546310
 30
0.0
 10
301.025201
 20
-87.894644
 30
0.0
  0
SPLINE
  5
197
100
AcDbEntity
  8
0
 62
2
100
AcDbSpline
 70
8
 71
3
 72
8
 73
4
 74
0
 40
0
 40
0
 40
0
 40
0
 40
1
 40
1
 40
1
 40
1
 10
301.025201
 20
-87.894644
 30
0.0
 10
301.628533
 20
-88.242978
 30
0.0
 10
302.000201
 20
-88.886726
 30
0.0
 10
302.000201
 20
-89.583395
 30
0.0
  0
LINE
  5
198
100
AcDbEntity
  8
0
 62
2
100
AcDbLine
 10
302.000201
 20
-89.583395
 30
0.0
 11
302.000201
 21
-89.583395
 31
0.0
  0
SPLINE
  5
199
100
AcDbEntity
  8
0
 62
2
100
AcDbSpline
 70
8
 71
3
 72
8
 73
4
 74
0
 40
0
 40
0
 40
0
 40
0
 40
1
 40
1
 40
1
 40
1
 10
7.050448
 20
-89.583395
 30
0.0
 10
7.050448
 20
-90.280063
 30
0.0
 10
6.678780
 20
-90.923811
 30
0.0
 10
6.075448
 20
-91.272145
 30
0.0
  0
SPLINE
  5
19a
100
AcDbEntity
  8
0
 62
2
100
AcDbSpline
 70
8
 71
3
 72
8
 73
4
 74
0
 40
0
 40
0
 40
0
 40
0
 40
1
 40
1
 40
1
 40
1
 10
6.075448
 20
-91.272145
 30
0.0
 10
5.472115
 20
-91.620479
 30
0.0
 10
4.728779
 20
-91.620479
 30
0.0
 10
4.125446
 20
-91.272145
 30
0.0
  0
SPLINE
  5
19b
100
AcDbEntity
  8
0
 62
2
100
AcDbSpline
 70
8
 71
3
 72
8
 73
4
 74
0
 40
0
 40
0
 40
0
 40
0
 40
1
 40
1
 40
1
 40
1
 10
4.125446
 20
-91.272145
 30
0.0
 10
3.522114
 20
-90.923811
 30
0.0
 10
3.150446
 20
-90.280063
 30
0.0
 10
3.150446
 20
-89.583395
 30
0.0
  0
SPLINE
  5
19c
100
AcDbEntity
  8
0
 62
2
100
AcDbSpline
 70
8
 71
3
 72
8
 73
4
 74
0
 40
0
 40
0
 40
0
 40
0
 40
1
 40
1
 40
1
 40
1
 10
3.150446
 20
-89.583395
 30
0.0
 10
3.150446
 20
-88.886726
 30
0.0
 10
3.522114
 20
-88.242978
 30
0.0
 10
4.125446
 20
-87.894644
 30
0.0
  0
SPLINE
  5
19d
100
AcDbEntity
  8
0
 62
2
100
AcDbSpline
 70
8
 71
3
 72
8
 73
4
 74
0
 40
0
 40
0
 40
0
 40
0
 40
1
 40
1
 40
1
 40
1
 10
4.125446
 20
-87.894644
 30
0.0
 10
4.728779
 20
-87.546310
 30
0.0
 10
5.472115
 20
-87.546310
 30
0.0
 10
6.075448
 20
-87.894644
 30
0.0
  0
SPLINE
  5
19e
100
AcDbEntity
  8
0
 62
2
100
AcDbSpline
 70
8
 71
3
 72
8
 73
4
 74
0
 40
0
 40
0
 40
0
 40
0
 40
1
 40
1
 40
1
 40
1
 10
6.075448
 20
-87.894644
 30
0.0
 10
6.678780
 20
-88.242978
 30
0.0
 10
7.050448
 20
-88.886726
 30
0.0
 10
7.050448
 20
-89.583395
 30
0.0
  0
LINE
  5
19f
100
AcDbEntity
  8
0
 62
2
100
AcDbLine
 10
7.050448
 20
-89.583395
 30
0.0
 11
7.050448
 21
-89.583395
 31
0.0
  0
LINE
  5
1a0
100
AcDbEntity
  8
0
 62
2
100
AcDbLine
 10
152.552400
 20
-17.235810
 30
0.0
 11
152.552400
 21
0.818510
 31
0.0
  0
LINE
  5
1a1
100
AcDbEntity
  8
0
 62
2
100
AcDbLine
 10
143.027400
 20
-36.283270
 30
0.0
 11
143.027400
 21
-19.234790
 31
0.0
  0
LINE
  5
1a2
100
AcDbEntity
  8
0
 62
2
100
AcDbLine
 10
147.789900
 20
-55.335810
 30
0.0
 11
147.789900
 21
-38.282250
 31
0.0
  0
LINE
  5
1a3
100
AcDbEntity
  8
0
 62
2
100
AcDbLine
 10
146.789140
 20
-37.281490
 30
0.0
 11
144.028160
 21
-37.281490
 31
0.0
  0
LINE
  5
1a4
100
AcDbEntity
  8
0
 62
2
100
AcDbLine
 10
139.263120
 20
-56.336570
 30
0.0
 11
146.789140
 21
-56.336570
 31
0.0
  0
LINE
  5
1a5
100
AcDbEntity
  8
0
 62
2
100
AcDbLine
 10
138.264900
 20
-74.385810
 30
0.0
 11
138.264900
 21
-57.334790
 31
0.0
  0
LINE
  5
1a6
100
AcDbEntity
  8
0
 62
2
100
AcDbLine
 10
133.502400
 20
-94.434030
 30
0.0
 11
133.502400
 21
-76.384790
 31
0.0
  0
LINE
  5
1a7
100
AcDbEntity
  8
0
 62
2
100
AcDbLine
 10
144.028160
 20
-18.236570
 30
0.0
 11
151.554180
 21
-18.236570
 31
0.0
  0
LINE
  5
1a8
100
AcDbEntity
  8
0
 62
2
100
AcDbLine
 10
134.503160
 20
-75.386570
 30
0.0
 11
137.264140
 21
-75.386570
 31
0.0
  0
LINE
  5
1a9
100
AcDbEntity
  8
0
 62
2
100
AcDbLine
 10
52.341780
 20
-78.056110
 30
0.0
 11
52.341780
 21
-91.904190
 31
0.0
  0
LINE
  5
1aa
100
AcDbEntity
  8
0
 62
2
100
AcDbLine
 10
62.306200
 20
-91.904190
 30
0.0
 11
62.306200
 21
-78.056110
 31
0.0
  0
LINE
  5
1ab
100
AcDbEntity
  8
0
 62
2
100
AcDbLine
 10
214.706200
 20
-91.904190
 30
0.0
 11
214.706200
 21
-78.056110
 31
0.0
  0
LINE
  5
1ac
100
AcDbEntity
  8
0
 62
2
100
AcDbLine
 10
27.178000
 20
-72.625590
 30
0.0
 11
27.178000
 21
-73.606030
 31
0.0
  0
LINE
  5
1ad
100
AcDbEntity
  8
0
 62
2
100
AcDbLine
 10
32.054800
 20
-60.474230
 30
0.0
 11
30.330140
 21
-60.474230
 31
0.0
  0
LINE
  5
1ae
100
AcDbEntity
  8
0
 62
2
100
AcDbLine
 10
33.731200
 20
-63.705110
 30
0.0
 11
32.054800
 21
-63.705110
 31
0.0
  0
LINE
  5
1af
100
AcDbEntity
  8
0
 62
2
100
AcDbLine
 10
52.341780
 20
-91.904190
 30
0.0
 11
38.491160
 21
-91.904190
 31
0.0
  0
LINE
  5
1b0
100
AcDbEntity
  8
0
 62
2
100
AcDbLine
 10
76.154280
 20
-91.904190
 30
0.0
 11
62.306200
 21
-91.904190
 31
0.0
  0
LINE
  5
1b1
100
AcDbEntity
  8
0
 62
2
100
AcDbLine
 10
25.455880
 20
-63.705110
 30
0.0
 11
24.630380
 21
-63.705110
 31
0.0
  0
LINE
  5
1b2
100
AcDbEntity
  8
0
 62
2
100
AcDbLine
 10
190.891160
 20
-91.904190
 30
0.0
 11
190.891160
 21
-78.056110
 31
0.0
  0
LINE
  5
1b3
100
AcDbEntity
  8
0
 62
2
100
AcDbLine
 10
30.330140
 20
-60.474230
 30
0.0
 11
30.330140
 21
-59.554750
 31
0.0
  0
LINE
  5
1b4
100
AcDbEntity
  8
0
 62
2
100
AcDbLine
 10
30.911800
 20
-91.904190
 30
0.0
 11
17.061180
 21
-91.904190
 31
0.0
  0
LINE
  5
1b5
100
AcDbEntity
  8
0
 62
2
100
AcDbLine
 10
17.061180
 20
-91.904190
 30
0.0
 11
17.061180
 21
-78.056110
 31
0.0
  0
LINE
  5
1b6
100
AcDbEntity
  8
0
 62
2
100
AcDbLine
 10
228.554280
 20
-91.904190
 30
0.0
 11
214.706200
 21
-91.904190
 31
0.0
  0
LINE
  5
1b7
100
AcDbEntity
  8
0
 62
2
100
AcDbLine
 10
54.129940
 20
-73.606030
 30
0.0
 11
54.129940
 21
-72.625590
 31
0.0
  0
LINE
  5
1b8
100
AcDbEntity
  8
0
 62
2
100
AcDbLine
 10
50.980340
 20
-73.606030
 30
0.0
 11
54.129940
 21
-73.606030
 31
0.0
  0
LINE
  5
1b9
100
AcDbEntity
  8
0
 62
2
100
AcDbLine
 10
30.330140
 20
-59.554750
 30
0.0
 11
27.178000
 21
-59.554750
 31
0.0
  0
LINE
  5
1ba
100
AcDbEntity
  8
0
 62
2
100
AcDbLine
 10
27.178000
 20
-59.554750
 30
0.0
 11
27.178000
 21
-60.474230
 31
0.0
  0
LINE
  5
1bb
100
AcDbEntity
  8
0
 62
2
100
AcDbLine
 10
50.980340
 20
-72.625590
 30
0.0
 11
50.980340
 21
-73.606030
 31
0.0
  0
LINE
  5
1bc
100
AcDbEntity
  8
0
 62
2
100
AcDbLine
 10
62.306200
 20
-78.056110
 30
0.0
 11
76.154280
 21
-78.056110
 31
0.0
  0
LINE
  5
1bd
100
AcDbEntity
  8
0
 62
2
100
AcDbLine
 10
32.054800
 20
-68.155190
 30
0.0
 11
33.731200
 21
-68.155190
 31
0.0
  0
LINE
  5
1be
100
AcDbEntity
  8
0
 62
2
100
AcDbLine
 10
49.255680
 20
-72.625590
 30
0.0
 11
50.980340
 21
-72.625590
 31
0.0
  0
LINE
  5
1bf
100
AcDbEntity
  8
0
 62
2
100
AcDbLine
 10
204.741780
 20
-91.904190
 30
0.0
 11
190.891160
 21
-91.904190
 31
0.0
  0
LINE
  5
1c0
100
AcDbEntity
  8
0
 62
2
100
AcDbLine
 10
49.255680
 20
-68.155190
 30
0.0
 11
49.255680
 21
-72.625590
 31
0.0
  0
LINE
  5
1c1
100
AcDbEntity
  8
0
 62
2
100
AcDbLine
 10
32.054800
 20
-72.625590
 30
0.0
 11
32.054800
 21
-68.155190
 31
0.0
  0
LINE
  5
1c2
100
AcDbEntity
  8
0
 62
2
100
AcDbLine
 10
30.330140
 20
-72.625590
 30
0.0
 11
32.054800
 21
-72.625590
 31
0.0
  0
LINE
  5
1c3
100
AcDbEntity
  8
0
 62
2
100
AcDbLine
 10
27.178000
 20
-73.606030
 30
0.0
 11
30.330140
 21
-73.606030
 31
0.0
  0
LINE
  5
1c4
100
AcDbEntity
  8
0
 62
2
100
AcDbLine
 10
38.491160
 20
-78.056110
 30
0.0
 11
52.341780
 21
-78.056110
 31
0.0
  0
LINE
  5
1c5
100
AcDbEntity
  8
0
 62
2
100
AcDbLine
 10
190.891160
 20
-78.056110
 30
0.0
 11
204.741780
 21
-78.056110
 31
0.0
  0
LINE
  5
1c6
100
AcDbEntity
  8
0
 62
2
100
AcDbLine
 10
25.455880
 20
-72.625590
 30
0.0
 11
27.178000
 21
-72.625590
 31
0.0
  0
LINE
  5
1c7
100
AcDbEntity
  8
0
 62
2
100
AcDbLine
 10
228.554280
 20
-78.056110
 30
0.0
 11
228.554280
 21
-91.904190
 31
0.0
  0
LINE
  5
1c8
100
AcDbEntity
  8
0
 62
2
100
AcDbLine
 10
27.178000
 20
-60.474230
 30
0.0
 11
25.455880
 21
-60.474230
 31
0.0
  0
LINE
  5
1c9
100
AcDbEntity
  8
0
 62
2
100
AcDbLine
 10
25.455880
 20
-66.354330
 30
0.0
 11
25.455880
 21
-72.625590
 31
0.0
  0
LINE
  5
1ca
100
AcDbEntity
  8
0
 62
2
100
AcDbLine
 10
47.579280
 20
-68.155190
 30
0.0
 11
49.255680
 21
-68.155190
 31
0.0
  0
LINE
  5
1cb
100
AcDbEntity
  8
0
 62
2
100
AcDbLine
 10
33.731200
 20
-72.854190
 30
0.0
 11
47.579280
 21
-72.854190
 31
0.0
  0
LINE
  5
1cc
100
AcDbEntity
  8
0
 62
2
100
AcDbLine
 10
24.630380
 20
-66.354330
 30
0.0
 11
25.455880
 21
-66.354330
 31
0.0
  0
LINE
  5
1cd
100
AcDbEntity
  8
0
 62
2
100
AcDbLine
 10
47.579280
 20
-72.854190
 30
0.0
 11
47.579280
 21
-68.155190
 31
0.0
  0
LINE
  5
1ce
100
AcDbEntity
  8
0
 62
2
100
AcDbLine
 10
33.731200
 20
-68.155190
 30
0.0
 11
33.731200
 21
-72.854190
 31
0.0
  0
LINE
  5
1cf
100
AcDbEntity
  8
0
 62
2
100
AcDbLine
 10
30.330140
 20
-73.606030
 30
0.0
 11
30.330140
 21
-72.625590
 31
0.0
  0
LINE
  5
1d0
100
AcDbEntity
  8
0
 62
2
100
AcDbLine
 10
24.630380
 20
-63.705110
 30
0.0
 11
24.630380
 21
-66.354330
 31
0.0
  0
LINE
  5
1d1
100
AcDbEntity
  8
0
 62
2
100
AcDbLine
 10
30.911800
 20
-78.056110
 30
0.0
 11
30.911800
 21
-91.904190
 31
0.0
  0
LINE
  5
1d2
100
AcDbEntity
  8
0
 62
2
100
AcDbLine
 10
249.986800
 20
-91.904190
 30
0.0
 11
236.136180
 21
-91.904190
 31
0.0
  0
LINE
  5
1d3
100
AcDbEntity
  8
0
 62
2
100
AcDbLine
 10
204.741780
 20
-78.056110
 30
0.0
 11
204.741780
 21
-91.904190
 31
0.0
  0
LINE
  5
1d4
100
AcDbEntity
  8
0
 62
2
100
AcDbLine
 10
25.455880
 20
-60.474230
 30
0.0
 11
25.455880
 21
-63.705110
 31
0.0
  0
LINE
  5
1d5
100
AcDbEntity
  8
0
 62
2
100
AcDbLine
 10
32.054800
 20
-63.705110
 30
0.0
 11
32.054800
 21
-60.474230
 31
0.0
  0
LINE
  5
1d6
100
AcDbEntity
  8
0
 62
2
100
AcDbLine
 10
76.154280
 20
-78.056110
 30
0.0
 11
76.154280
 21
-91.904190
 31
0.0
  0
LINE
  5
1d7
100
AcDbEntity
  8
0
 62
2
100
AcDbLine
 10
33.731200
 20
-59.006110
 30
0.0
 11
33.731200
 21
-63.705110
 31
0.0
  0
LINE
  5
1d8
100
AcDbEntity
  8
0
 62
2
100
AcDbLine
 10
236.136180
 20
-91.904190
 30
0.0
 11
236.136180
 21
-78.056110
 31
0.0
  0
LINE
  5
1d9
100
AcDbEntity
  8
0
 62
2
100
AcDbLine
 10
17.061180
 20
-78.056110
 30
0.0
 11
30.911800
 21
-78.056110
 31
0.0
  0
LINE
  5
1da
100
AcDbEntity
  8
0
 62
2
100
AcDbLine
 10
214.706200
 20
-78.056110
 30
0.0
 11
228.554280
 21
-78.056110
 31
0.0
  0
LINE
  5
1db
100
AcDbEntity
  8
0
 62
2
100
AcDbLine
 10
38.491160
 20
-91.904190
 30
0.0
 11
38.491160
 21
-78.056110
 31
0.0
  0
LINE
  5
1dc
100
AcDbEntity
  8
0
 62
2
100
AcDbLine
 10
98.729800
 20
-82.755110
 30
0.0
 11
98.729800
 21
-79.524230
 31
0.0
  0
LINE
  5
1dd
100
AcDbEntity
  8
0
 62
2
100
AcDbLine
 10
274.236180
 20
-91.904190
 30
0.0
 11
274.236180
 21
-78.056110
 31
0.0
  0
LINE
  5
1de
100
AcDbEntity
  8
0
 62
2
100
AcDbLine
 10
255.186180
 20
-78.056110
 30
0.0
 11
269.036800
 21
-78.056110
 31
0.0
  0
LINE
  5
1df
100
AcDbEntity
  8
0
 62
2
100
AcDbLine
 10
91.305380
 20
-85.404330
 30
0.0
 11
92.130880
 21
-85.404330
 31
0.0
  0
LINE
  5
1e0
100
AcDbEntity
  8
0
 62
2
100
AcDbLine
 10
123.355100
 20
-85.404330
 30
0.0
 11
123.355100
 21
-82.755110
 31
0.0
  0
LINE
  5
1e1
100
AcDbEntity
  8
0
 62
2
100
AcDbLine
 10
174.917100
 20
-79.524230
 30
0.0
 11
173.192440
 21
-79.524230
 31
0.0
  0
LINE
  5
1e2
100
AcDbEntity
  8
0
 62
2
100
AcDbLine
 10
100.406200
 20
-87.205190
 30
0.0
 11
100.406200
 21
-91.904190
 31
0.0
  0
LINE
  5
1e3
100
AcDbEntity
  8
0
 62
2
100
AcDbLine
 10
92.130880
 20
-82.755110
 30
0.0
 11
91.305380
 21
-82.755110
 31
0.0
  0
LINE
  5
1e4
100
AcDbEntity
  8
0
 62
2
100
AcDbLine
 10
288.086800
 20
-91.904190
 30
0.0
 11
274.236180
 21
-91.904190
 31
0.0
  0
LINE
  5
1e5
100
AcDbEntity
  8
0
 62
2
100
AcDbLine
 10
288.086800
 20
-78.056110
 30
0.0
 11
288.086800
 21
-91.904190
 31
0.0
  0
LINE
  5
1e6
100
AcDbEntity
  8
0
 62
2
100
AcDbLine
 10
274.236180
 20
-78.056110
 30
0.0
 11
288.086800
 21
-78.056110
 31
0.0
  0
LINE
  5
1e7
100
AcDbEntity
  8
0
 62
2
100
AcDbLine
 10
122.529600
 20
-79.524230
 30
0.0
 11
120.804940
 21
-79.524230
 31
0.0
  0
LINE
  5
1e8
100
AcDbEntity
  8
0
 62
2
100
AcDbLine
 10
98.729800
 20
-91.675590
 30
0.0
 11
98.729800
 21
-87.205190
 31
0.0
  0
LINE
  5
1e9
100
AcDbEntity
  8
0
 62
2
100
AcDbLine
 10
97.005140
 20
-78.604750
 30
0.0
 11
93.853000
 21
-78.604750
 31
0.0
  0
LINE
  5
1ea
100
AcDbEntity
  8
0
 62
2
100
AcDbLine
 10
170.040300
 20
-78.604750
 30
0.0
 11
170.040300
 21
-79.524230
 31
0.0
  0
LINE
  5
1eb
100
AcDbEntity
  8
0
 62
2
100
AcDbLine
 10
114.254280
 20
-82.755110
 30
0.0
 11
114.254280
 21
-78.056110
 31
0.0
  0
LINE
  5
1ec
100
AcDbEntity
  8
0
 62
2
100
AcDbLine
 10
114.254280
 20
-91.904190
 30
0.0
 11
114.254280
 21
-87.205190
 31
0.0
  0
LINE
  5
1ed
100
AcDbEntity
  8
0
 62
2
100
AcDbLine
 10
98.729800
 20
-79.524230
 30
0.0
 11
97.005140
 21
-79.524230
 31
0.0
  0
LINE
  5
1ee
100
AcDbEntity
  8
0
 62
2
100
AcDbLine
 10
117.655340
 20
-91.675590
 30
0.0
 11
117.655340
 21
-92.656030
 31
0.0
  0
LINE
  5
1ef
100
AcDbEntity
  8
0
 62
2
100
AcDbLine
 10
122.529600
 20
-82.755110
 30
0.0
 11
122.529600
 21
-79.524230
 31
0.0
  0
LINE
  5
1f0
100
AcDbEntity
  8
0
 62
2
100
AcDbLine
 10
173.192440
 20
-78.604750
 30
0.0
 11
170.040300
 21
-78.604750
 31
0.0
  0
LINE
  5
1f1
100
AcDbEntity
  8
0
 62
2
100
AcDbLine
 10
122.529600
 20
-91.675590
 30
0.0
 11
122.529600
 21
-85.404330
 31
0.0
  0
LINE
  5
1f2
100
AcDbEntity
  8
0
 62
2
100
AcDbLine
 10
115.930680
 20
-91.675590
 30
0.0
 11
117.655340
 21
-91.675590
 31
0.0
  0
LINE
  5
1f3
100
AcDbEntity
  8
0
 62
2
100
AcDbLine
 10
93.853000
 20
-78.604750
 30
0.0
 11
93.853000
 21
-79.524230
 31
0.0
  0
LINE
  5
1f4
100
AcDbEntity
  8
0
 62
2
100
AcDbLine
 10
114.254280
 20
-87.205190
 30
0.0
 11
115.930680
 21
-87.205190
 31
0.0
  0
LINE
  5
1f5
100
AcDbEntity
  8
0
 62
2
100
AcDbLine
 10
120.804940
 20
-92.656030
 30
0.0
 11
120.804940
 21
-91.675590
 31
0.0
  0
LINE
  5
1f6
100
AcDbEntity
  8
0
 62
2
100
AcDbLine
 10
117.655340
 20
-92.656030
 30
0.0
 11
120.804940
 21
-92.656030
 31
0.0
  0
LINE
  5
1f7
100
AcDbEntity
  8
0
 62
2
100
AcDbLine
 10
114.254280
 20
-78.056110
 30
0.0
 11
100.406200
 21
-78.056110
 31
0.0
  0
LINE
  5
1f8
100
AcDbEntity
  8
0
 62
2
100
AcDbLine
 10
115.930680
 20
-82.755110
 30
0.0
 11
114.254280
 21
-82.755110
 31
0.0
  0
LINE
  5
1f9
100
AcDbEntity
  8
0
 62
2
100
AcDbLine
 10
117.655340
 20
-78.604750
 30
0.0
 11
117.655340
 21
-79.524230
 31
0.0
  0
LINE
  5
1fa
100
AcDbEntity
  8
0
 62
2
100
AcDbLine
 10
97.005140
 20
-79.524230
 30
0.0
 11
97.005140
 21
-78.604750
 31
0.0
  0
LINE
  5
1fb
100
AcDbEntity
  8
0
 62
2
100
AcDbLine
 10
120.804940
 20
-78.604750
 30
0.0
 11
117.655340
 21
-78.604750
 31
0.0
  0
LINE
  5
1fc
100
AcDbEntity
  8
0
 62
2
100
AcDbLine
 10
92.130880
 20
-91.675590
 30
0.0
 11
93.853000
 21
-91.675590
 31
0.0
  0
LINE
  5
1fd
100
AcDbEntity
  8
0
 62
2
100
AcDbLine
 10
120.804940
 20
-79.524230
 30
0.0
 11
120.804940
 21
-78.604750
 31
0.0
  0
LINE
  5
1fe
100
AcDbEntity
  8
0
 62
2
100
AcDbLine
 10
120.804940
 20
-91.675590
 30
0.0
 11
122.529600
 21
-91.675590
 31
0.0
  0
LINE
  5
1ff
100
AcDbEntity
  8
0
 62
2
100
AcDbLine
 10
91.305380
 20
-82.755110
 30
0.0
 11
91.305380
 21
-85.404330
 31
0.0
  0
LINE
  5
200
100
AcDbEntity
  8
0
 62
2
100
AcDbLine
 10
168.315640
 20
-82.755110
 30
0.0
 11
166.641780
 21
-82.755110
 31
0.0
  0
LINE
  5
201
100
AcDbEntity
  8
0
 62
2
100
AcDbLine
 10
97.005140
 20
-92.656030
 30
0.0
 11
97.005140
 21
-91.675590
 31
0.0
  0
LINE
  5
202
100
AcDbEntity
  8
0
 62
2
100
AcDbLine
 10
115.930680
 20
-87.205190
 30
0.0
 11
115.930680
 21
-91.675590
 31
0.0
  0
LINE
  5
203
100
AcDbEntity
  8
0
 62
2
100
AcDbLine
 10
92.130880
 20
-79.524230
 30
0.0
 11
92.130880
 21
-82.755110
 31
0.0
  0
LINE
  5
204
100
AcDbEntity
  8
0
 62
2
100
AcDbLine
 10
98.729800
 20
-87.205190
 30
0.0
 11
100.406200
 21
-87.205190
 31
0.0
  0
LINE
  5
205
100
AcDbEntity
  8
0
 62
2
100
AcDbLine
 10
93.853000
 20
-91.675590
 30
0.0
 11
93.853000
 21
-92.656030
 31
0.0
  0
LINE
  5
206
100
AcDbEntity
  8
0
 62
2
100
AcDbLine
 10
170.040300
 20
-79.524230
 30
0.0
 11
168.315640
 21
-79.524230
 31
0.0
  0
LINE
  5
207
100
AcDbEntity
  8
0
 62
2
100
AcDbLine
 10
168.315640
 20
-79.524230
 30
0.0
 11
168.315640
 21
-82.755110
 31
0.0
  0
LINE
  5
208
100
AcDbEntity
  8
0
 62
2
100
AcDbLine
 10
97.005140
 20
-91.675590
 30
0.0
 11
98.729800
 21
-91.675590
 31
0.0
  0
LINE
  5
209
100
AcDbEntity
  8
0
 62
2
100
AcDbLine
 10
93.853000
 20
-79.524230
 30
0.0
 11
92.130880
 21
-79.524230
 31
0.0
  0
LINE
  5
20a
100
AcDbEntity
  8
0
 62
2
100
AcDbLine
 10
166.641780
 20
-78.056110
 30
0.0
 11
152.791160
 21
-78.056110
 31
0.0
  0
LINE
  5
20b
100
AcDbEntity
  8
0
 62
2
100
AcDbLine
 10
115.930680
 20
-79.524230
 30
0.0
 11
115.930680
 21
-82.755110
 31
0.0
  0
LINE
  5
20c
100
AcDbEntity
  8
0
 62
2
100
AcDbLine
 10
117.655340
 20
-79.524230
 30
0.0
 11
115.930680
 21
-79.524230
 31
0.0
  0
LINE
  5
20d
100
AcDbEntity
  8
0
 62
2
100
AcDbLine
 10
123.355100
 20
-82.755110
 30
0.0
 11
122.529600
 21
-82.755110
 31
0.0
  0
LINE
  5
20e
100
AcDbEntity
  8
0
 62
2
100
AcDbLine
 10
166.641780
 20
-82.755110
 30
0.0
 11
166.641780
 21
-78.056110
 31
0.0
  0
LINE
  5
20f
100
AcDbEntity
  8
0
 62
2
100
AcDbLine
 10
173.192440
 20
-79.524230
 30
0.0
 11
173.192440
 21
-78.604750
 31
0.0
  0
LINE
  5
210
100
AcDbEntity
  8
0
 62
2
100
AcDbLine
 10
249.986800
 20
-78.056110
 30
0.0
 11
249.986800
 21
-91.904190
 31
0.0
  0
LINE
  5
211
100
AcDbEntity
  8
0
 62
2
100
AcDbLine
 10
100.406200
 20
-91.904190
 30
0.0
 11
114.254280
 21
-91.904190
 31
0.0
  0
LINE
  5
212
100
AcDbEntity
  8
0
 62
2
100
AcDbLine
 10
122.529600
 20
-85.404330
 30
0.0
 11
123.355100
 21
-85.404330
 31
0.0
  0
LINE
  5
213
100
AcDbEntity
  8
0
 62
2
100
AcDbLine
 10
174.917100
 20
-82.755110
 30
0.0
 11
174.917100
 21
-79.524230
 31
0.0
  0
LINE
  5
214
100
AcDbEntity
  8
0
 62
2
100
AcDbLine
 10
236.136180
 20
-78.056110
 30
0.0
 11
249.986800
 21
-78.056110
 31
0.0
  0
LINE
  5
215
100
AcDbEntity
  8
0
 62
2
100
AcDbLine
 10
255.186180
 20
-91.904190
 30
0.0
 11
255.186180
 21
-78.056110
 31
0.0
  0
LINE
  5
216
100
AcDbEntity
  8
0
 62
2
100
AcDbLine
 10
93.853000
 20
-92.656030
 30
0.0
 11
97.005140
 21
-92.656030
 31
0.0
  0
LINE
  5
217
100
AcDbEntity
  8
0
 62
2
100
AcDbLine
 10
100.406200
 20
-78.056110
 30
0.0
 11
100.406200
 21
-82.755110
 31
0.0
  0
LINE
  5
218
100
AcDbEntity
  8
0
 62
2
100
AcDbLine
 10
269.036800
 20
-91.904190
 30
0.0
 11
255.186180
 21
-91.904190
 31
0.0
  0
LINE
  5
219
100
AcDbEntity
  8
0
 62
2
100
AcDbLine
 10
269.036800
 20
-78.056110
 30
0.0
 11
269.036800
 21
-91.904190
 31
0.0
  0
LINE
  5
21a
100
AcDbEntity
  8
0
 62
2
100
AcDbLine
 10
100.406200
 20
-82.755110
 30
0.0
 11
98.729800
 21
-82.755110
 31
0.0
  0
LINE
  5
21b
100
AcDbEntity
  8
0
 62
2
100
AcDbLine
 10
92.130880
 20
-85.404330
 30
0.0
 11
92.130880
 21
-91.675590
 31
0.0
  0
LINE
  5
21c
100
AcDbEntity
  8
0
 62
2
100
AcDbLine
 10
166.641780
 20
-87.205190
 30
0.0
 11
168.315640
 21
-87.205190
 31
0.0
  0
LINE
  5
21d
100
AcDbEntity
  8
0
 62
2
100
AcDbLine
 10
144.515840
 20
-85.404330
 30
0.0
 11
144.515840
 21
-91.675590
 31
0.0
  0
LINE
  5
21e
100
AcDbEntity
  8
0
 62
2
100
AcDbLine
 10
175.740060
 20
-82.755110
 30
0.0
 11
174.917100
 21
-82.755110
 31
0.0
  0
LINE
  5
21f
100
AcDbEntity
  8
0
 62
2
100
AcDbLine
 10
173.192440
 20
-91.675590
 30
0.0
 11
174.917100
 21
-91.675590
 31
0.0
  0
LINE
  5
220
100
AcDbEntity
  8
0
 62
2
100
AcDbLine
 10
152.791160
 20
-91.904190
 30
0.0
 11
166.641780
 21
-91.904190
 31
0.0
  0
LINE
  5
221
100
AcDbEntity
  8
0
 62
2
100
AcDbLine
 10
144.515840
 20
-79.524230
 30
0.0
 11
144.515840
 21
-82.755110
 31
0.0
  0
LINE
  5
222
100
AcDbEntity
  8
0
 62
2
100
AcDbLine
 10
168.315640
 20
-91.675590
 30
0.0
 11
170.040300
 21
-91.675590
 31
0.0
  0
LINE
  5
223
100
AcDbEntity
  8
0
 62
2
100
AcDbLine
 10
146.240500
 20
-78.604750
 30
0.0
 11
146.240500
 21
-79.524230
 31
0.0
  0
LINE
  5
224
100
AcDbEntity
  8
0
 62
2
100
AcDbLine
 10
175.740060
 20
-85.404330
 30
0.0
 11
175.740060
 21
-82.755110
 31
0.0
  0
LINE
  5
225
100
AcDbEntity
  8
0
 62
2
100
AcDbLine
 10
173.192440
 20
-92.656030
 30
0.0
 11
173.192440
 21
-91.675590
 31
0.0
  0
LINE
  5
226
100
AcDbEntity
  8
0
 62
2
100
AcDbLine
 10
170.040300
 20
-91.675590
 30
0.0
 11
170.040300
 21
-92.656030
 31
0.0
  0
LINE
  5
227
100
AcDbEntity
  8
0
 62
2
100
AcDbLine
 10
144.515840
 20
-82.755110
 30
0.0
 11
143.692880
 21
-82.755110
 31
0.0
  0
LINE
  5
228
100
AcDbEntity
  8
0
 62
2
100
AcDbLine
 10
174.917100
 20
-85.404330
 30
0.0
 11
175.740060
 21
-85.404330
 31
0.0
  0
LINE
  5
229
100
AcDbEntity
  8
0
 62
2
100
AcDbLine
 10
174.917100
 20
-91.675590
 30
0.0
 11
174.917100
 21
-85.404330
 31
0.0
  0
LINE
  5
22a
100
AcDbEntity
  8
0
 62
2
100
AcDbLine
 10
146.240500
 20
-79.524230
 30
0.0
 11
144.515840
 21
-79.524230
 31
0.0
  0
LINE
  5
22b
100
AcDbEntity
  8
0
 62
2
100
AcDbLine
 10
149.392640
 20
-92.656030
 30
0.0
 11
149.392640
 21
-91.675590
 31
0.0
  0
LINE
  5
22c
100
AcDbEntity
  8
0
 62
2
100
AcDbLine
 10
152.791160
 20
-82.755110
 30
0.0
 11
151.117300
 21
-82.755110
 31
0.0
  0
LINE
  5
22d
100
AcDbEntity
  8
0
 62
2
100
AcDbLine
 10
170.040300
 20
-92.656030
 30
0.0
 11
173.192440
 21
-92.656030
 31
0.0
  0
LINE
  5
22e
100
AcDbEntity
  8
0
 62
2
100
AcDbLine
 10
166.641780
 20
-91.904190
 30
0.0
 11
166.641780
 21
-87.205190
 31
0.0
  0
LINE
  5
22f
100
AcDbEntity
  8
0
 62
2
100
AcDbLine
 10
144.515840
 20
-91.675590
 30
0.0
 11
146.240500
 21
-91.675590
 31
0.0
  0
LINE
  5
230
100
AcDbEntity
  8
0
 62
2
100
AcDbLine
 10
151.117300
 20
-87.205190
 30
0.0
 11
152.791160
 21
-87.205190
 31
0.0
  0
LINE
  5
231
100
AcDbEntity
  8
0
 62
2
100
AcDbLine
 10
152.791160
 20
-87.205190
 30
0.0
 11
152.791160
 21
-91.904190
 31
0.0
  0
LINE
  5
232
100
AcDbEntity
  8
0
 62
2
100
AcDbLine
 10
143.692880
 20
-85.404330
 30
0.0
 11
144.515840
 21
-85.404330
 31
0.0
  0
LINE
  5
233
100
AcDbEntity
  8
0
 62
2
100
AcDbLine
 10
149.392640
 20
-91.675590
 30
0.0
 11
151.117300
 21
-91.675590
 31
0.0
  0
LINE
  5
234
100
AcDbEntity
  8
0
 62
2
100
AcDbLine
 10
143.692880
 20
-82.755110
 30
0.0
 11
143.692880
 21
-85.404330
 31
0.0
  0
LINE
  5
235
100
AcDbEntity
  8
0
 62
2
100
AcDbLine
 10
151.117300
 20
-82.755110
 30
0.0
 11
151.117300
 21
-79.524230
 31
0.0
  0
LINE
  5
236
100
AcDbEntity
  8
0
 62
2
100
AcDbLine
 10
168.315640
 20
-87.205190
 30
0.0
 11
168.315640
 21
-91.675590
 31
0.0
  0
LINE
  5
237
100
AcDbEntity
  8
0
 62
2
100
AcDbLine
 10
151.117300
 20
-91.675590
 30
0.0
 11
151.117300
 21
-87.205190
 31
0.0
  0
LINE
  5
238
100
AcDbEntity
  8
0
 62
2
100
AcDbLine
 10
146.240500
 20
-92.656030
 30
0.0
 11
149.392640
 21
-92.656030
 31
0.0
  0
LINE
  5
239
100
AcDbEntity
  8
0
 62
2
100
AcDbLine
 10
146.240500
 20
-91.675590
 30
0.0
 11
146.240500
 21
-92.656030
 31
0.0
  0
LINE
  5
23a
100
AcDbEntity
  8
0
 62
2
100
AcDbLine
 10
149.392640
 20
-78.604750
 30
0.0
 11
146.240500
 21
-78.604750
 31
0.0
  0
LINE
  5
23b
100
AcDbEntity
  8
0
 62
2
100
AcDbLine
 10
149.392640
 20
-79.524230
 30
0.0
 11
149.392640
 21
-78.604750
 31
0.0
  0
LINE
  5
23c
100
AcDbEntity
  8
0
 62
2
100
AcDbLine
 10
151.117300
 20
-79.524230
 30
0.0
 11
149.392640
 21
-79.524230
 31
0.0
  0
LINE
  5
23d
100
AcDbEntity
  8
0
 62
2
100
AcDbLine
 10
152.791160
 20
-78.056110
 30
0.0
 11
152.791160
 21
-82.755110
 31
0.0
  0
LINE
  5
23e
100
AcDbEntity
  8
0
 62
2
100
AcDbLine
 10
21.823680
 20
-15.704190
 30
0.0
 11
21.823680
 21
-1.856110
 31
0.0
  0
LINE
  5
23f
100
AcDbEntity
  8
0
 62
2
100
AcDbLine
 10
59.923680
 20
-1.856110
 30
0.0
 11
73.774300
 21
-1.856110
 31
0.0
  0
LINE
  5
240
100
AcDbEntity
  8
0
 62
2
100
AcDbLine
 10
130.924300
 20
-1.856110
 30
0.0
 11
130.924300
 21
-15.704190
 31
0.0
  0
LINE
  5
241
100
AcDbEntity
  8
0
 62
2
100
AcDbLine
 10
92.824300
 20
-15.704190
 30
0.0
 11
78.973680
 21
-15.704190
 31
0.0
  0
LINE
  5
242
100
AcDbEntity
  8
0
 62
2
100
AcDbLine
 10
130.924300
 20
-15.704190
 30
0.0
 11
117.073680
 21
-15.704190
 31
0.0
  0
LINE
  5
243
100
AcDbEntity
  8
0
 62
2
100
AcDbLine
 10
111.874300
 20
-1.856110
 30
0.0
 11
111.874300
 21
-15.704190
 31
0.0
  0
LINE
  5
244
100
AcDbEntity
  8
0
 62
2
100
AcDbLine
 10
117.073680
 20
-1.856110
 30
0.0
 11
130.924300
 21
-1.856110
 31
0.0
  0
LINE
  5
245
100
AcDbEntity
  8
0
 62
2
100
AcDbLine
 10
78.973680
 20
-1.856110
 30
0.0
 11
92.824300
 21
-1.856110
 31
0.0
  0
LINE
  5
246
100
AcDbEntity
  8
0
 62
2
100
AcDbLine
 10
21.823680
 20
-1.856110
 30
0.0
 11
35.674300
 21
-1.856110
 31
0.0
  0
LINE
  5
247
100
AcDbEntity
  8
0
 62
2
100
AcDbLine
 10
16.624300
 20
-1.856110
 30
0.0
 11
16.624300
 21
-15.704190
 31
0.0
  0
LINE
  5
248
100
AcDbEntity
  8
0
 62
2
100
AcDbLine
 10
35.674300
 20
-15.704190
 30
0.0
 11
21.823680
 21
-15.704190
 31
0.0
  0
LINE
  5
249
100
AcDbEntity
  8
0
 62
2
100
AcDbLine
 10
98.023680
 20
-15.704190
 30
0.0
 11
98.023680
 21
-1.856110
 31
0.0
  0
LINE
  5
24a
100
AcDbEntity
  8
0
 62
2
100
AcDbLine
 10
111.874300
 20
-15.704190
 30
0.0
 11
98.023680
 21
-15.704190
 31
0.0
  0
LINE
  5
24b
100
AcDbEntity
  8
0
 62
2
100
AcDbLine
 10
73.774300
 20
-15.704190
 30
0.0
 11
59.923680
 21
-15.704190
 31
0.0
  0
LINE
  5
24c
100
AcDbEntity
  8
0
 62
2
100
AcDbLine
 10
2.773680
 20
-15.704190
 30
0.0
 11
2.773680
 21
-1.856110
 31
0.0
  0
LINE
  5
24d
100
AcDbEntity
  8
0
 62
2
100
AcDbLine
 10
59.923680
 20
-15.704190
 30
0.0
 11
59.923680
 21
-1.856110
 31
0.0
  0
LINE
  5
24e
100
AcDbEntity
  8
0
 62
2
100
AcDbLine
 10
92.824300
 20
-1.856110
 30
0.0
 11
92.824300
 21
-15.704190
 31
0.0
  0
LINE
  5
24f
100
AcDbEntity
  8
0
 62
2
100
AcDbLine
 10
40.873680
 20
-15.704190
 30
0.0
 11
40.873680
 21
-1.856110
 31
0.0
  0
LINE
  5
250
100
AcDbEntity
  8
0
 62
2
100
AcDbLine
 10
40.873680
 20
-1.856110
 30
0.0
 11
54.724300
 21
-1.856110
 31
0.0
  0
LINE
  5
251
100
AcDbEntity
  8
0
 62
2
100
AcDbLine
 10
73.774300
 20
-1.856110
 30
0.0
 11
73.774300
 21
-15.704190
 31
0.0
  0
LINE
  5
252
100
AcDbEntity
  8
0
 62
2
100
AcDbLine
 10
35.674300
 20
-1.856110
 30
0.0
 11
35.674300
 21
-15.704190
 31
0.0
  0
LINE
  5
253
100
AcDbEntity
  8
0
 62
2
100
AcDbLine
 10
136.123680
 20
-15.704190
 30
0.0
 11
136.123680
 21
-1.856110
 31
0.0
  0
LINE
  5
254
100
AcDbEntity
  8
0
 62
2
100
AcDbLine
 10
54.724300
 20
-1.856110
 30
0.0
 11
54.724300
 21
-15.704190
 31
0.0
  0
LINE
  5
255
100
AcDbEntity
  8
0
 62
2
100
AcDbLine
 10
98.023680
 20
-1.856110
 30
0.0
 11
111.874300
 21
-1.856110
 31
0.0
  0
LINE
  5
256
100
AcDbEntity
  8
0
 62
2
100
AcDbLine
 10
54.724300
 20
-15.704190
 30
0.0
 11
40.873680
 21
-15.704190
 31
0.0
  0
LINE
  5
257
100
AcDbEntity
  8
0
 62
2
100
AcDbLine
 10
16.624300
 20
-15.704190
 30
0.0
 11
2.773680
 21
-15.704190
 31
0.0
  0
LINE
  5
258
100
AcDbEntity
  8
0
 62
2
100
AcDbLine
 10
117.073680
 20
-15.704190
 30
0.0
 11
117.073680
 21
-1.856110
 31
0.0
  0
LINE
  5
259
100
AcDbEntity
  8
0
 62
2
100
AcDbLine
 10
2.773680
 20
-1.856110
 30
0.0
 11
16.624300
 21
-1.856110
 31
0.0
  0
LINE
  5
25a
100
AcDbEntity
  8
0
 62
2
100
AcDbLine
 10
78.973680
 20
-15.704190
 30
0.0
 11
78.973680
 21
-1.856110
 31
0.0
  0
LINE
  5
25b
100
AcDbEntity
  8
0
 62
2
100
AcDbLine
 10
275.597620
 20
-15.475590
 30
0.0
 11
277.322280
 21
-15.475590
 31
0.0
  0
LINE
  5
25c
100
AcDbEntity
  8
0
 62
2
100
AcDbLine
 10
272.448020
 20
-16.456030
 30
0.0
 11
275.597620
 21
-16.456030
 31
0.0
  0
LINE
  5
25d
100
AcDbEntity
  8
0
 62
2
100
AcDbLine
 10
272.448020
 20
-3.324230
 30
0.0
 11
270.723360
 21
-3.324230
 31
0.0
  0
LINE
  5
25e
100
AcDbEntity
  8
0
 62
2
100
AcDbLine
 10
226.174300
 20
-1.856110
 30
0.0
 11
226.174300
 21
-15.704190
 31
0.0
  0
LINE
  5
25f
100
AcDbEntity
  8
0
 62
2
100
AcDbLine
 10
301.950120
 20
-9.204330
 30
0.0
 11
301.950120
 21
-6.555110
 31
0.0
  0
LINE
  5
260
100
AcDbEntity
  8
0
 62
2
100
AcDbLine
 10
278.998680
 20
-11.005190
 30
0.0
 11
278.998680
 21
-15.704190
 31
0.0
  0
LINE
  5
261
100
AcDbEntity
  8
0
 62
2
100
AcDbLine
 10
294.523160
 20
-11.005190
 30
0.0
 11
294.523160
 21
-15.475590
 31
0.0
  0
LINE
  5
262
100
AcDbEntity
  8
0
 62
2
100
AcDbLine
 10
250.423680
 20
-15.704190
 30
0.0
 11
250.423680
 21
-1.856110
 31
0.0
  0
LINE
  5
263
100
AcDbEntity
  8
0
 62
2
100
AcDbLine
 10
277.322280
 20
-15.475590
 30
0.0
 11
277.322280
 21
-11.005190
 31
0.0
  0
LINE
  5
264
100
AcDbEntity
  8
0
 62
2
100
AcDbLine
 10
272.448020
 20
-15.475590
 30
0.0
 11
272.448020
 21
-16.456030
 31
0.0
  0
LINE
  5
265
100
AcDbEntity
  8
0
 62
2
100
AcDbLine
 10
149.974300
 20
-15.704190
 30
0.0
 11
136.123680
 21
-15.704190
 31
0.0
  0
LINE
  5
266
100
AcDbEntity
  8
0
 62
2
100
AcDbLine
 10
269.897860
 20
-9.204330
 30
0.0
 11
270.723360
 21
-9.204330
 31
0.0
  0
LINE
  5
267
100
AcDbEntity
  8
0
 62
2
100
AcDbLine
 10
169.024300
 20
-15.704190
 30
0.0
 11
155.173680
 21
-15.704190
 31
0.0
  0
LINE
  5
268
100
AcDbEntity
  8
0
 62
2
100
AcDbLine
 10
301.122080
 20
-6.555110
 30
0.0
 11
301.122080
 21
-3.324230
 31
0.0
  0
LINE
  5
269
100
AcDbEntity
  8
0
 62
2
100
AcDbLine
 10
294.523160
 20
-15.475590
 30
0.0
 11
296.250360
 21
-15.475590
 31
0.0
  0
LINE
  5
26a
100
AcDbEntity
  8
0
 62
2
100
AcDbLine
 10
136.123680
 20
-1.856110
 30
0.0
 11
149.974300
 21
-1.856110
 31
0.0
  0
LINE
  5
26b
100
AcDbEntity
  8
0
 62
2
100
AcDbLine
 10
212.323680
 20
-1.856110
 30
0.0
 11
226.174300
 21
-1.856110
 31
0.0
  0
LINE
  5
26c
100
AcDbEntity
  8
0
 62
2
100
AcDbLine
 10
296.250360
 20
-16.456030
 30
0.0
 11
299.397420
 21
-16.456030
 31
0.0
  0
LINE
  5
26d
100
AcDbEntity
  8
0
 62
2
100
AcDbLine
 10
264.274300
 20
-15.704190
 30
0.0
 11
250.423680
 21
-15.704190
 31
0.0
  0
LINE
  5
26e
100
AcDbEntity
  8
0
 62
2
100
AcDbLine
 10
292.849300
 20
-15.704190
 30
0.0
 11
292.849300
 21
-11.005190
 31
0.0
  0
LINE
  5
26f
100
AcDbEntity
  8
0
 62
2
100
AcDbLine
 10
292.849300
 20
-11.005190
 30
0.0
 11
294.523160
 21
-11.005190
 31
0.0
  0
LINE
  5
270
100
AcDbEntity
  8
0
 62
2
100
AcDbLine
 10
296.250360
 20
-2.404750
 30
0.0
 11
296.250360
 21
-3.324230
 31
0.0
  0
LINE
  5
271
100
AcDbEntity
  8
0
 62
2
100
AcDbLine
 10
299.397420
 20
-16.456030
 30
0.0
 11
299.397420
 21
-15.475590
 31
0.0
  0
LINE
  5
272
100
AcDbEntity
  8
0
 62
2
100
AcDbLine
 10
270.723360
 20
-9.204330
 30
0.0
 11
270.723360
 21
-15.475590
 31
0.0
  0
LINE
  5
273
100
AcDbEntity
  8
0
 62
2
100
AcDbLine
 10
250.423680
 20
-1.856110
 30
0.0
 11
264.274300
 21
-1.856110
 31
0.0
  0
LINE
  5
274
100
AcDbEntity
  8
0
 62
2
100
AcDbLine
 10
188.074300
 20
-1.856110
 30
0.0
 11
188.074300
 21
-15.704190
 31
0.0
  0
LINE
  5
275
100
AcDbEntity
  8
0
 62
2
100
AcDbLine
 10
294.523160
 20
-3.324230
 30
0.0
 11
294.523160
 21
-6.555110
 31
0.0
  0
LINE
  5
276
100
AcDbEntity
  8
0
 62
2
100
AcDbLine
 10
301.950120
 20
-6.555110
 30
0.0
 11
301.122080
 21
-6.555110
 31
0.0
  0
LINE
  5
277
100
AcDbEntity
  8
0
 62
2
100
AcDbLine
 10
269.897860
 20
-6.555110
 30
0.0
 11
269.897860
 21
-9.204330
 31
0.0
  0
LINE
  5
278
100
AcDbEntity
  8
0
 62
2
100
AcDbLine
 10
299.397420
 20
-15.475590
 30
0.0
 11
301.122080
 21
-15.475590
 31
0.0
  0
LINE
  5
279
100
AcDbEntity
  8
0
 62
2
100
AcDbLine
 10
301.122080
 20
-15.475590
 30
0.0
 11
301.122080
 21
-9.204330
 31
0.0
  0
LINE
  5
27a
100
AcDbEntity
  8
0
 62
2
100
AcDbLine
 10
174.223680
 20
-1.856110
 30
0.0
 11
188.074300
 21
-1.856110
 31
0.0
  0
LINE
  5
27b
100
AcDbEntity
  8
0
 62
2
100
AcDbLine
 10
207.124300
 20
-15.704190
 30
0.0
 11
193.273680
 21
-15.704190
 31
0.0
  0
LINE
  5
27c
100
AcDbEntity
  8
0
 62
2
100
AcDbLine
 10
193.273680
 20
-1.856110
 30
0.0
 11
207.124300
 21
-1.856110
 31
0.0
  0
LINE
  5
27d
100
AcDbEntity
  8
0
 62
2
100
AcDbLine
 10
275.597620
 20
-16.456030
 30
0.0
 11
275.597620
 21
-15.475590
 31
0.0
  0
LINE
  5
27e
100
AcDbEntity
  8
0
 62
2
100
AcDbLine
 10
270.723360
 20
-3.324230
 30
0.0
 11
270.723360
 21
-6.555110
 31
0.0
  0
LINE
  5
27f
100
AcDbEntity
  8
0
 62
2
100
AcDbLine
 10
212.323680
 20
-15.704190
 30
0.0
 11
212.323680
 21
-1.856110
 31
0.0
  0
LINE
  5
280
100
AcDbEntity
  8
0
 62
2
100
AcDbLine
 10
155.173680
 20
-1.856110
 30
0.0
 11
169.024300
 21
-1.856110
 31
0.0
  0
LINE
  5
281
100
AcDbEntity
  8
0
 62
2
100
AcDbLine
 10
226.174300
 20
-15.704190
 30
0.0
 11
212.323680
 21
-15.704190
 31
0.0
  0
LINE
  5
282
100
AcDbEntity
  8
0
 62
2
100
AcDbLine
 10
245.224300
 20
-1.856110
 30
0.0
 11
245.224300
 21
-15.704190
 31
0.0
  0
LINE
  5
283
100
AcDbEntity
  8
0
 62
2
100
AcDbLine
 10
231.373680
 20
-15.704190
 30
0.0
 11
231.373680
 21
-1.856110
 31
0.0
  0
LINE
  5
284
100
AcDbEntity
  8
0
 62
2
100
AcDbLine
 10
292.849300
 20
-1.856110
 30
0.0
 11
278.998680
 21
-1.856110
 31
0.0
  0
LINE
  5
285
100
AcDbEntity
  8
0
 62
2
100
AcDbLine
 10
169.024300
 20
-1.856110
 30
0.0
 11
169.024300
 21
-15.704190
 31
0.0
  0
LINE
  5
286
100
AcDbEntity
  8
0
 62
2
100
AcDbLine
 10
149.974300
 20
-1.856110
 30
0.0
 11
149.974300
 21
-15.704190
 31
0.0
  0
LINE
  5
287
100
AcDbEntity
  8
0
 62
2
100
AcDbLine
 10
155.173680
 20
-15.704190
 30
0.0
 11
155.173680
 21
-1.856110
 31
0.0
  0
LINE
  5
288
100
AcDbEntity
  8
0
 62
2
100
AcDbLine
 10
193.273680
 20
-15.704190
 30
0.0
 11
193.273680
 21
-1.856110
 31
0.0
  0
LINE
  5
289
100
AcDbEntity
  8
0
 62
2
100
AcDbLine
 10
294.523160
 20
-6.555110
 30
0.0
 11
292.849300
 21
-6.555110
 31
0.0
  0
LINE
  5
28a
100
AcDbEntity
  8
0
 62
2
100
AcDbLine
 10
301.122080
 20
-9.204330
 30
0.0
 11
301.950120
 21
-9.204330
 31
0.0
  0
LINE
  5
28b
100
AcDbEntity
  8
0
 62
2
100
AcDbLine
 10
174.223680
 20
-15.704190
 30
0.0
 11
174.223680
 21
-1.856110
 31
0.0
  0
LINE
  5
28c
100
AcDbEntity
  8
0
 62
2
100
AcDbLine
 10
231.373680
 20
-1.856110
 30
0.0
 11
245.224300
 21
-1.856110
 31
0.0
  0
LINE
  5
28d
100
AcDbEntity
  8
0
 62
2
100
AcDbLine
 10
296.250360
 20
-3.324230
 30
0.0
 11
294.523160
 21
-3.324230
 31
0.0
  0
LINE
  5
28e
100
AcDbEntity
  8
0
 62
2
100
AcDbLine
 10
299.397420
 20
-2.404750
 30
0.0
 11
296.250360
 21
-2.404750
 31
0.0
  0
LINE
  5
28f
100
AcDbEntity
  8
0
 62
2
100
AcDbLine
 10
270.723360
 20
-6.555110
 30
0.0
 11
269.897860
 21
-6.555110
 31
0.0
  0
LINE
  5
290
100
AcDbEntity
  8
0
 62
2
100
AcDbLine
 10
188.074300
 20
-15.704190
 30
0.0
 11
174.223680
 21
-15.704190
 31
0.0
  0
LINE
  5
291
100
AcDbEntity
  8
0
 62
2
100
AcDbLine
 10
207.124300
 20
-1.856110
 30
0.0
 11
207.124300
 21
-15.704190
 31
0.0
  0
LINE
  5
292
100
AcDbEntity
  8
0
 62
2
100
AcDbLine
 10
299.397420
 20
-3.324230
 30
0.0
 11
299.397420
 21
-2.404750
 31
0.0
  0
LINE
  5
293
100
AcDbEntity
  8
0
 62
2
100
AcDbLine
 10
292.849300
 20
-6.555110
 30
0.0
 11
292.849300
 21
-1.856110
 31
0.0
  0
LINE
  5
294
100
AcDbEntity
  8
0
 62
2
100
AcDbLine
 10
270.723360
 20
-15.475590
 30
0.0
 11
272.448020
 21
-15.475590
 31
0.0
  0
LINE
  5
295
100
AcDbEntity
  8
0
 62
2
100
AcDbLine
 10
278.998680
 20
-15.704190
 30
0.0
 11
292.849300
 21
-15.704190
 31
0.0
  0
LINE
  5
296
100
AcDbEntity
  8
0
 62
2
100
AcDbLine
 10
301.122080
 20
-3.324230
 30
0.0
 11
299.397420
 21
-3.324230
 31
0.0
  0
LINE
  5
297
100
AcDbEntity
  8
0
 62
2
100
AcDbLine
 10
245.224300
 20
-15.704190
 30
0.0
 11
231.373680
 21
-15.704190
 31
0.0
  0
LINE
  5
298
100
AcDbEntity
  8
0
 62
2
100
AcDbLine
 10
264.274300
 20
-1.856110
 30
0.0
 11
264.274300
 21
-15.704190
 31
0.0
  0
LINE
  5
299
100
AcDbEntity
  8
0
 62
2
100
AcDbLine
 10
296.250360
 20
-15.475590
 30
0.0
 11
296.250360
 21
-16.456030
 31
0.0
  0
LINE
  5
29a
100
AcDbEntity
  8
0
 62
2
100
AcDbLine
 10
277.322280
 20
-11.005190
 30
0.0
 11
278.998680
 21
-11.005190
 31
0.0
  0
LINE
  5
29b
100
AcDbEntity
  8
0
 62
2
100
AcDbLine
 10
254.749300
 20
-34.754190
 30
0.0
 11
240.898680
 21
-34.754190
 31
0.0
  0
LINE
  5
29c
100
AcDbEntity
  8
0
 62
2
100
AcDbLine
 10
26.586180
 20
-34.754190
 30
0.0
 11
26.586180
 21
-20.906110
 31
0.0
  0
LINE
  5
29d
100
AcDbEntity
  8
0
 62
2
100
AcDbLine
 10
273.799300
 20
-20.906110
 30
0.0
 11
273.799300
 21
-34.754190
 31
0.0
  0
LINE
  5
29e
100
AcDbEntity
  8
0
 62
2
100
AcDbLine
 10
202.798680
 20
-34.754190
 30
0.0
 11
202.798680
 21
-20.906110
 31
0.0
  0
LINE
  5
29f
100
AcDbEntity
  8
0
 62
2
100
AcDbLine
 10
2.773680
 20
-20.906110
 30
0.0
 11
16.624300
 21
-20.906110
 31
0.0
  0
LINE
  5
2a0
100
AcDbEntity
  8
0
 62
2
100
AcDbLine
 10
88.498680
 20
-20.906110
 30
0.0
 11
102.349300
 21
-20.906110
 31
0.0
  0
LINE
  5
2a1
100
AcDbEntity
  8
0
 62
2
100
AcDbLine
 10
145.648680
 20
-20.906110
 30
0.0
 11
159.499300
 21
-20.906110
 31
0.0
  0
LINE
  5
2a2
100
AcDbEntity
  8
0
 62
2
100
AcDbLine
 10
216.649300
 20
-20.906110
 30
0.0
 11
216.649300
 21
-34.754190
 31
0.0
  0
LINE
  5
2a3
100
AcDbEntity
  8
0
 62
2
100
AcDbLine
 10
277.322280
 20
-6.555110
 30
0.0
 11
277.322280
 21
-3.324230
 31
0.0
  0
LINE
  5
2a4
100
AcDbEntity
  8
0
 62
2
100
AcDbLine
 10
16.624300
 20
-34.754190
 30
0.0
 11
2.773680
 21
-34.754190
 31
0.0
  0
LINE
  5
2a5
100
AcDbEntity
  8
0
 62
2
100
AcDbLine
 10
278.998680
 20
-6.555110
 30
0.0
 11
277.322280
 21
-6.555110
 31
0.0
  0
LINE
  5
2a6
100
AcDbEntity
  8
0
 62
2
100
AcDbLine
 10
2.773680
 20
-34.754190
 30
0.0
 11
2.773680
 21
-20.906110
 31
0.0
  0
LINE
  5
2a7
100
AcDbEntity
  8
0
 62
2
100
AcDbLine
 10
88.498680
 20
-34.754190
 30
0.0
 11
88.498680
 21
-20.906110
 31
0.0
  0
LINE
  5
2a8
100
AcDbEntity
  8
0
 62
2
100
AcDbLine
 10
235.699300
 20
-20.906110
 30
0.0
 11
235.699300
 21
-34.754190
 31
0.0
  0
LINE
  5
2a9
100
AcDbEntity
  8
0
 62
2
100
AcDbLine
 10
178.549300
 20
-34.754190
 30
0.0
 11
164.698680
 21
-34.754190
 31
0.0
  0
LINE
  5
2aa
100
AcDbEntity
  8
0
 62
2
100
AcDbLine
 10
64.249300
 20
-34.754190
 30
0.0
 11
50.398680
 21
-34.754190
 31
0.0
  0
LINE
  5
2ab
100
AcDbEntity
  8
0
 62
2
100
AcDbLine
 10
159.499300
 20
-34.754190
 30
0.0
 11
145.648680
 21
-34.754190
 31
0.0
  0
LINE
  5
2ac
100
AcDbEntity
  8
0
 62
2
100
AcDbLine
 10
240.898680
 20
-34.754190
 30
0.0
 11
240.898680
 21
-20.906110
 31
0.0
  0
LINE
  5
2ad
100
AcDbEntity
  8
0
 62
2
100
AcDbLine
 10
140.449300
 20
-34.754190
 30
0.0
 11
126.598680
 21
-34.754190
 31
0.0
  0
LINE
  5
2ae
100
AcDbEntity
  8
0
 62
2
100
AcDbLine
 10
16.624300
 20
-20.906110
 30
0.0
 11
16.624300
 21
-34.754190
 31
0.0
  0
LINE
  5
2af
100
AcDbEntity
  8
0
 62
2
100
AcDbLine
 10
102.349300
 20
-34.754190
 30
0.0
 11
88.498680
 21
-34.754190
 31
0.0
  0
LINE
  5
2b0
100
AcDbEntity
  8
0
 62
2
100
AcDbLine
 10
121.399300
 20
-34.754190
 30
0.0
 11
107.548680
 21
-34.754190
 31
0.0
  0
LINE
  5
2b1
100
AcDbEntity
  8
0
 62
2
100
AcDbLine
 10
140.449300
 20
-20.906110
 30
0.0
 11
140.449300
 21
-34.754190
 31
0.0
  0
LINE
  5
2b2
100
AcDbEntity
  8
0
 62
2
100
AcDbLine
 10
235.699300
 20
-34.754190
 30
0.0
 11
221.848680
 21
-34.754190
 31
0.0
  0
LINE
  5
2b3
100
AcDbEntity
  8
0
 62
2
100
AcDbLine
 10
145.648680
 20
-34.754190
 30
0.0
 11
145.648680
 21
-20.906110
 31
0.0
  0
LINE
  5
2b4
100
AcDbEntity
  8
0
 62
2
100
AcDbLine
 10
107.548680
 20
-20.906110
 30
0.0
 11
121.399300
 21
-20.906110
 31
0.0
  0
LINE
  5
2b5
100
AcDbEntity
  8
0
 62
2
100
AcDbLine
 10
126.598680
 20
-34.754190
 30
0.0
 11
126.598680
 21
-20.906110
 31
0.0
  0
LINE
  5
2b6
100
AcDbEntity
  8
0
 62
2
100
AcDbLine
 10
40.436800
 20
-34.754190
 30
0.0
 11
26.586180
 21
-34.754190
 31
0.0
  0
LINE
  5
2b7
100
AcDbEntity
  8
0
 62
2
100
AcDbLine
 10
259.948680
 20
-20.906110
 30
0.0
 11
273.799300
 21
-20.906110
 31
0.0
  0
LINE
  5
2b8
100
AcDbEntity
  8
0
 62
2
100
AcDbLine
 10
40.436800
 20
-20.906110
 30
0.0
 11
40.436800
 21
-34.754190
 31
0.0
  0
LINE
  5
2b9
100
AcDbEntity
  8
0
 62
2
100
AcDbLine
 10
221.848680
 20
-20.906110
 30
0.0
 11
235.699300
 21
-20.906110
 31
0.0
  0
LINE
  5
2ba
100
AcDbEntity
  8
0
 62
2
100
AcDbLine
 10
26.586180
 20
-20.906110
 30
0.0
 11
40.436800
 21
-20.906110
 31
0.0
  0
LINE
  5
2bb
100
AcDbEntity
  8
0
 62
2
100
AcDbLine
 10
197.599300
 20
-20.906110
 30
0.0
 11
197.599300
 21
-34.754190
 31
0.0
  0
LINE
  5
2bc
100
AcDbEntity
  8
0
 62
2
100
AcDbLine
 10
273.799300
 20
-34.754190
 30
0.0
 11
259.948680
 21
-34.754190
 31
0.0
  0
LINE
  5
2bd
100
AcDbEntity
  8
0
 62
2
100
AcDbLine
 10
83.299300
 20
-34.754190
 30
0.0
 11
69.448680
 21
-34.754190
 31
0.0
  0
LINE
  5
2be
100
AcDbEntity
  8
0
 62
2
100
AcDbLine
 10
83.299300
 20
-20.906110
 30
0.0
 11
83.299300
 21
-34.754190
 31
0.0
  0
LINE
  5
2bf
100
AcDbEntity
  8
0
 62
2
100
AcDbLine
 10
216.649300
 20
-34.754190
 30
0.0
 11
202.798680
 21
-34.754190
 31
0.0
  0
LINE
  5
2c0
100
AcDbEntity
  8
0
 62
2
100
AcDbLine
 10
164.698680
 20
-20.906110
 30
0.0
 11
178.549300
 21
-20.906110
 31
0.0
  0
LINE
  5
2c1
100
AcDbEntity
  8
0
 62
2
100
AcDbLine
 10
121.399300
 20
-20.906110
 30
0.0
 11
121.399300
 21
-34.754190
 31
0.0
  0
LINE
  5
2c2
100
AcDbEntity
  8
0
 62
2
100
AcDbLine
 10
202.798680
 20
-20.906110
 30
0.0
 11
216.649300
 21
-20.906110
 31
0.0
  0
LINE
  5
2c3
100
AcDbEntity
  8
0
 62
2
100
AcDbLine
 10
69.448680
 20
-20.906110
 30
0.0
 11
83.299300
 21
-20.906110
 31
0.0
  0
LINE
  5
2c4
100
AcDbEntity
  8
0
 62
2
100
AcDbLine
 10
164.698680
 20
-34.754190
 30
0.0
 11
164.698680
 21
-20.906110
 31
0.0
  0
LINE
  5
2c5
100
AcDbEntity
  8
0
 62
2
100
AcDbLine
 10
197.599300
 20
-34.754190
 30
0.0
 11
183.748680
 21
-34.754190
 31
0.0
  0
LINE
  5
2c6
100
AcDbEntity
  8
0
 62
2
100
AcDbLine
 10
126.598680
 20
-20.906110
 30
0.0
 11
140.449300
 21
-20.906110
 31
0.0
  0
LINE
  5
2c7
100
AcDbEntity
  8
0
 62
2
100
AcDbLine
 10
178.549300
 20
-20.906110
 30
0.0
 11
178.549300
 21
-34.754190
 31
0.0
  0
LINE
  5
2c8
100
AcDbEntity
  8
0
 62
2
100
AcDbLine
 10
221.848680
 20
-34.754190
 30
0.0
 11
221.848680
 21
-20.906110
 31
0.0
  0
LINE
  5
2c9
100
AcDbEntity
  8
0
 62
2
100
AcDbLine
 10
259.948680
 20
-34.754190
 30
0.0
 11
259.948680
 21
-20.906110
 31
0.0
  0
LINE
  5
2ca
100
AcDbEntity
  8
0
 62
2
100
AcDbLine
 10
50.398680
 20
-34.754190
 30
0.0
 11
50.398680
 21
-20.906110
 31
0.0
  0
LINE
  5
2cb
100
AcDbEntity
  8
0
 62
2
100
AcDbLine
 10
64.249300
 20
-20.906110
 30
0.0
 11
64.249300
 21
-34.754190
 31
0.0
  0
LINE
  5
2cc
100
AcDbEntity
  8
0
 62
2
100
AcDbLine
 10
50.398680
 20
-20.906110
 30
0.0
 11
64.249300
 21
-20.906110
 31
0.0
  0
LINE
  5
2cd
100
AcDbEntity
  8
0
 62
2
100
AcDbLine
 10
69.448680
 20
-34.754190
 30
0.0
 11
69.448680
 21
-20.906110
 31
0.0
  0
LINE
  5
2ce
100
AcDbEntity
  8
0
 62
2
100
AcDbLine
 10
102.349300
 20
-20.906110
 30
0.0
 11
102.349300
 21
-34.754190
 31
0.0
  0
LINE
  5
2cf
100
AcDbEntity
  8
0
 62
2
100
AcDbLine
 10
272.448020
 20
-2.404750
 30
0.0
 11
272.448020
 21
-3.324230
 31
0.0
  0
LINE
  5
2d0
100
AcDbEntity
  8
0
 62
2
100
AcDbLine
 10
159.499300
 20
-20.906110
 30
0.0
 11
159.499300
 21
-34.754190
 31
0.0
  0
LINE
  5
2d1
100
AcDbEntity
  8
0
 62
2
100
AcDbLine
 10
275.597620
 20
-2.404750
 30
0.0
 11
272.448020
 21
-2.404750
 31
0.0
  0
LINE
  5
2d2
100
AcDbEntity
  8
0
 62
2
100
AcDbLine
 10
107.548680
 20
-34.754190
 30
0.0
 11
107.548680
 21
-20.906110
 31
0.0
  0
LINE
  5
2d3
100
AcDbEntity
  8
0
 62
2
100
AcDbLine
 10
275.597620
 20
-3.324230
 30
0.0
 11
275.597620
 21
-2.404750
 31
0.0
  0
LINE
  5
2d4
100
AcDbEntity
  8
0
 62
2
100
AcDbLine
 10
277.322280
 20
-3.324230
 30
0.0
 11
275.597620
 21
-3.324230
 31
0.0
  0
LINE
  5
2d5
100
AcDbEntity
  8
0
 62
2
100
AcDbLine
 10
183.748680
 20
-34.754190
 30
0.0
 11
183.748680
 21
-20.906110
 31
0.0
  0
LINE
  5
2d6
100
AcDbEntity
  8
0
 62
2
100
AcDbLine
 10
240.898680
 20
-20.906110
 30
0.0
 11
254.749300
 21
-20.906110
 31
0.0
  0
LINE
  5
2d7
100
AcDbEntity
  8
0
 62
2
100
AcDbLine
 10
278.998680
 20
-1.856110
 30
0.0
 11
278.998680
 21
-6.555110
 31
0.0
  0
LINE
  5
2d8
100
AcDbEntity
  8
0
 62
2
100
AcDbLine
 10
183.748680
 20
-20.906110
 30
0.0
 11
197.599300
 21
-20.906110
 31
0.0
  0
LINE
  5
2d9
100
AcDbEntity
  8
0
 62
2
100
AcDbLine
 10
254.749300
 20
-20.906110
 30
0.0
 11
254.749300
 21
-34.754190
 31
0.0
  0
LINE
  5
2da
100
AcDbEntity
  8
0
 62
2
100
AcDbLine
 10
283.761180
 20
-34.754190
 30
0.0
 11
283.761180
 21
-20.906110
 31
0.0
  0
LINE
  5
2db
100
AcDbEntity
  8
0
 62
2
100
AcDbLine
 10
297.611800
 20
-34.754190
 30
0.0
 11
283.761180
 21
-34.754190
 31
0.0
  0
LINE
  5
2dc
100
AcDbEntity
  8
0
 62
2
100
AcDbLine
 10
2.773680
 20
-53.804190
 30
0.0
 11
2.773680
 21
-39.956110
 31
0.0
  0
LINE
  5
2dd
100
AcDbEntity
  8
0
 62
2
100
AcDbLine
 10
28.966160
 20
-39.956110
 30
0.0
 11
42.816780
 21
-39.956110
 31
0.0
  0
LINE
  5
2de
100
AcDbEntity
  8
0
 62
2
100
AcDbLine
 10
74.211180
 20
-39.956110
 30
0.0
 11
88.061800
 21
-39.956110
 31
0.0
  0
LINE
  5
2df
100
AcDbEntity
  8
0
 62
2
100
AcDbLine
 10
226.611180
 20
-39.956110
 30
0.0
 11
240.461800
 21
-39.956110
 31
0.0
  0
LINE
  5
2e0
100
AcDbEntity
  8
0
 62
2
100
AcDbLine
 10
290.466780
 20
-44.655110
 30
0.0
 11
290.466780
 21
-39.956110
 31
0.0
  0
LINE
  5
2e1
100
AcDbEntity
  8
0
 62
2
100
AcDbLine
 10
16.624300
 20
-53.804190
 30
0.0
 11
2.773680
 21
-53.804190
 31
0.0
  0
LINE
  5
2e2
100
AcDbEntity
  8
0
 62
2
100
AcDbLine
 10
183.311800
 20
-53.804190
 30
0.0
 11
169.461180
 21
-53.804190
 31
0.0
  0
LINE
  5
2e3
100
AcDbEntity
  8
0
 62
2
100
AcDbLine
 10
88.061800
 20
-53.804190
 30
0.0
 11
74.211180
 21
-53.804190
 31
0.0
  0
LINE
  5
2e4
100
AcDbEntity
  8
0
 62
2
100
AcDbLine
 10
16.624300
 20
-39.956110
 30
0.0
 11
16.624300
 21
-53.804190
 31
0.0
  0
LINE
  5
2e5
100
AcDbEntity
  8
0
 62
2
100
AcDbLine
 10
28.966160
 20
-53.804190
 30
0.0
 11
28.966160
 21
-39.956110
 31
0.0
  0
LINE
  5
2e6
100
AcDbEntity
  8
0
 62
2
100
AcDbLine
 10
221.411800
 20
-39.956110
 30
0.0
 11
221.411800
 21
-53.804190
 31
0.0
  0
LINE
  5
2e7
100
AcDbEntity
  8
0
 62
2
100
AcDbLine
 10
292.140640
 20
-44.655110
 30
0.0
 11
290.466780
 21
-44.655110
 31
0.0
  0
LINE
  5
2e8
100
AcDbEntity
  8
0
 62
2
100
AcDbLine
 10
55.161180
 20
-39.956110
 30
0.0
 11
69.011800
 21
-39.956110
 31
0.0
  0
LINE
  5
2e9
100
AcDbEntity
  8
0
 62
2
100
AcDbLine
 10
74.211180
 20
-53.804190
 30
0.0
 11
74.211180
 21
-39.956110
 31
0.0
  0
LINE
  5
2ea
100
AcDbEntity
  8
0
 62
2
100
AcDbLine
 10
293.865300
 20
-41.424230
 30
0.0
 11
292.140640
 21
-41.424230
 31
0.0
  0
LINE
  5
2eb
100
AcDbEntity
  8
0
 62
2
100
AcDbLine
 10
107.111800
 20
-39.956110
 30
0.0
 11
107.111800
 21
-53.804190
 31
0.0
  0
LINE
  5
2ec
100
AcDbEntity
  8
0
 62
2
100
AcDbLine
 10
188.511180
 20
-39.956110
 30
0.0
 11
202.361800
 21
-39.956110
 31
0.0
  0
LINE
  5
2ed
100
AcDbEntity
  8
0
 62
2
100
AcDbLine
 10
226.611180
 20
-53.804190
 30
0.0
 11
226.611180
 21
-39.956110
 31
0.0
  0
LINE
  5
2ee
100
AcDbEntity
  8
0
 62
2
100
AcDbLine
 10
298.742100
 20
-41.424230
 30
0.0
 11
297.017440
 21
-41.424230
 31
0.0
  0
LINE
  5
2ef
100
AcDbEntity
  8
0
 62
2
100
AcDbLine
 10
2.773680
 20
-39.956110
 30
0.0
 11
16.624300
 21
-39.956110
 31
0.0
  0
LINE
  5
2f0
100
AcDbEntity
  8
0
 62
2
100
AcDbLine
 10
126.161800
 20
-53.804190
 30
0.0
 11
112.311180
 21
-53.804190
 31
0.0
  0
LINE
  5
2f1
100
AcDbEntity
  8
0
 62
2
100
AcDbLine
 10
42.816780
 20
-39.956110
 30
0.0
 11
42.816780
 21
-53.804190
 31
0.0
  0
LINE
  5
2f2
100
AcDbEntity
  8
0
 62
2
100
AcDbLine
 10
93.261180
 20
-53.804190
 30
0.0
 11
93.261180
 21
-39.956110
 31
0.0
  0
LINE
  5
2f3
100
AcDbEntity
  8
0
 62
2
100
AcDbLine
 10
169.461180
 20
-39.956110
 30
0.0
 11
183.311800
 21
-39.956110
 31
0.0
  0
LINE
  5
2f4
100
AcDbEntity
  8
0
 62
2
100
AcDbLine
 10
240.461800
 20
-53.804190
 30
0.0
 11
226.611180
 21
-53.804190
 31
0.0
  0
LINE
  5
2f5
100
AcDbEntity
  8
0
 62
2
100
AcDbLine
 10
292.140640
 20
-41.424230
 30
0.0
 11
292.140640
 21
-44.655110
 31
0.0
  0
LINE
  5
2f6
100
AcDbEntity
  8
0
 62
2
100
AcDbLine
 10
107.111800
 20
-53.804190
 30
0.0
 11
93.261180
 21
-53.804190
 31
0.0
  0
LINE
  5
2f7
100
AcDbEntity
  8
0
 62
2
100
AcDbLine
 10
112.311180
 20
-53.804190
 30
0.0
 11
112.311180
 21
-39.956110
 31
0.0
  0
LINE
  5
2f8
100
AcDbEntity
  8
0
 62
2
100
AcDbLine
 10
290.466780
 20
-39.956110
 30
0.0
 11
276.616160
 21
-39.956110
 31
0.0
  0
LINE
  5
2f9
100
AcDbEntity
  8
0
 62
2
100
AcDbLine
 10
150.411180
 20
-39.956110
 30
0.0
 11
164.261800
 21
-39.956110
 31
0.0
  0
LINE
  5
2fa
100
AcDbEntity
  8
0
 62
2
100
AcDbLine
 10
126.161800
 20
-39.956110
 30
0.0
 11
126.161800
 21
-53.804190
 31
0.0
  0
LINE
  5
2fb
100
AcDbEntity
  8
0
 62
2
100
AcDbLine
 10
131.361180
 20
-53.804190
 30
0.0
 11
131.361180
 21
-39.956110
 31
0.0
  0
LINE
  5
2fc
100
AcDbEntity
  8
0
 62
2
100
AcDbLine
 10
183.311800
 20
-39.956110
 30
0.0
 11
183.311800
 21
-53.804190
 31
0.0
  0
LINE
  5
2fd
100
AcDbEntity
  8
0
 62
2
100
AcDbLine
 10
221.411800
 20
-53.804190
 30
0.0
 11
207.561180
 21
-53.804190
 31
0.0
  0
LINE
  5
2fe
100
AcDbEntity
  8
0
 62
2
100
AcDbLine
 10
207.561180
 20
-53.804190
 30
0.0
 11
207.561180
 21
-39.956110
 31
0.0
  0
LINE
  5
2ff
100
AcDbEntity
  8
0
 62
2
100
AcDbLine
 10
245.661180
 20
-53.804190
 30
0.0
 11
245.661180
 21
-39.956110
 31
0.0
  0
LINE
  5
300
100
AcDbEntity
  8
0
 62
2
100
AcDbLine
 10
259.511800
 20
-53.804190
 30
0.0
 11
245.661180
 21
-53.804190
 31
0.0
  0
LINE
  5
301
100
AcDbEntity
  8
0
 62
2
100
AcDbLine
 10
245.661180
 20
-39.956110
 30
0.0
 11
259.511800
 21
-39.956110
 31
0.0
  0
LINE
  5
302
100
AcDbEntity
  8
0
 62
2
100
AcDbLine
 10
297.017440
 20
-40.504750
 30
0.0
 11
293.865300
 21
-40.504750
 31
0.0
  0
LINE
  5
303
100
AcDbEntity
  8
0
 62
2
100
AcDbLine
 10
93.261180
 20
-39.956110
 30
0.0
 11
107.111800
 21
-39.956110
 31
0.0
  0
LINE
  5
304
100
AcDbEntity
  8
0
 62
2
100
AcDbLine
 10
188.511180
 20
-53.804190
 30
0.0
 11
188.511180
 21
-39.956110
 31
0.0
  0
LINE
  5
305
100
AcDbEntity
  8
0
 62
2
100
AcDbLine
 10
297.017440
 20
-41.424230
 30
0.0
 11
297.017440
 21
-40.504750
 31
0.0
  0
LINE
  5
306
100
AcDbEntity
  8
0
 62
2
100
AcDbLine
 10
202.361800
 20
-39.956110
 30
0.0
 11
202.361800
 21
-53.804190
 31
0.0
  0
LINE
  5
307
100
AcDbEntity
  8
0
 62
2
100
AcDbLine
 10
240.461800
 20
-39.956110
 30
0.0
 11
240.461800
 21
-53.804190
 31
0.0
  0
LINE
  5
308
100
AcDbEntity
  8
0
 62
2
100
AcDbLine
 10
259.511800
 20
-39.956110
 30
0.0
 11
259.511800
 21
-53.804190
 31
0.0
  0
LINE
  5
309
100
AcDbEntity
  8
0
 62
2
100
AcDbLine
 10
164.261800
 20
-53.804190
 30
0.0
 11
150.411180
 21
-53.804190
 31
0.0
  0
LINE
  5
30a
100
AcDbEntity
  8
0
 62
2
100
AcDbLine
 10
297.611800
 20
-20.906110
 30
0.0
 11
297.611800
 21
-34.754190
 31
0.0
  0
LINE
  5
30b
100
AcDbEntity
  8
0
 62
2
100
AcDbLine
 10
88.061800
 20
-39.956110
 30
0.0
 11
88.061800
 21
-53.804190
 31
0.0
  0
LINE
  5
30c
100
AcDbEntity
  8
0
 62
2
100
AcDbLine
 10
293.865300
 20
-40.504750
 30
0.0
 11
293.865300
 21
-41.424230
 31
0.0
  0
LINE
  5
30d
100
AcDbEntity
  8
0
 62
2
100
AcDbLine
 10
69.011800
 20
-39.956110
 30
0.0
 11
69.011800
 21
-53.804190
 31
0.0
  0
LINE
  5
30e
100
AcDbEntity
  8
0
 62
2
100
AcDbLine
 10
112.311180
 20
-39.956110
 30
0.0
 11
126.161800
 21
-39.956110
 31
0.0
  0
LINE
  5
30f
100
AcDbEntity
  8
0
 62
2
100
AcDbLine
 10
169.461180
 20
-53.804190
 30
0.0
 11
169.461180
 21
-39.956110
 31
0.0
  0
LINE
  5
310
100
AcDbEntity
  8
0
 62
2
100
AcDbLine
 10
42.816780
 20
-53.804190
 30
0.0
 11
28.966160
 21
-53.804190
 31
0.0
  0
LINE
  5
311
100
AcDbEntity
  8
0
 62
2
100
AcDbLine
 10
283.761180
 20
-20.906110
 30
0.0
 11
297.611800
 21
-20.906110
 31
0.0
  0
LINE
  5
312
100
AcDbEntity
  8
0
 62
2
100
AcDbLine
 10
55.161180
 20
-53.804190
 30
0.0
 11
55.161180
 21
-39.956110
 31
0.0
  0
LINE
  5
313
100
AcDbEntity
  8
0
 62
2
100
AcDbLine
 10
69.011800
 20
-53.804190
 30
0.0
 11
55.161180
 21
-53.804190
 31
0.0
  0
LINE
  5
314
100
AcDbEntity
  8
0
 62
2
100
AcDbLine
 10
207.561180
 20
-39.956110
 30
0.0
 11
221.411800
 21
-39.956110
 31
0.0
  0
LINE
  5
315
100
AcDbEntity
  8
0
 62
2
100
AcDbLine
 10
145.211800
 20
-53.804190
 30
0.0
 11
131.361180
 21
-53.804190
 31
0.0
  0
LINE
  5
316
100
AcDbEntity
  8
0
 62
2
100
AcDbLine
 10
145.211800
 20
-39.956110
 30
0.0
 11
145.211800
 21
-53.804190
 31
0.0
  0
LINE
  5
317
100
AcDbEntity
  8
0
 62
2
100
AcDbLine
 10
131.361180
 20
-39.956110
 30
0.0
 11
145.211800
 21
-39.956110
 31
0.0
  0
LINE
  5
318
100
AcDbEntity
  8
0
 62
2
100
AcDbLine
 10
150.411180
 20
-53.804190
 30
0.0
 11
150.411180
 21
-39.956110
 31
0.0
  0
LINE
  5
319
100
AcDbEntity
  8
0
 62
2
100
AcDbLine
 10
202.361800
 20
-53.804190
 30
0.0
 11
188.511180
 21
-53.804190
 31
0.0
  0
LINE
  5
31a
100
AcDbEntity
  8
0
 62
2
100
AcDbLine
 10
164.261800
 20
-39.956110
 30
0.0
 11
164.261800
 21
-53.804190
 31
0.0
  0
LINE
  5
31b
100
AcDbEntity
  8
0
 62
2
100
AcDbLine
 10
273.217640
 20
-40.504750
 30
0.0
 11
270.065500
 21
-40.504750
 31
0.0
  0
LINE
  5
31c
100
AcDbEntity
  8
0
 62
2
100
AcDbLine
 10
290.466780
 20
-53.804190
 30
0.0
 11
290.466780
 21
-49.105190
 31
0.0
  0
LINE
  5
31d
100
AcDbEntity
  8
0
 62
2
100
AcDbLine
 10
299.565060
 20
-47.304330
 30
0.0
 11
299.565060
 21
-44.655110
 31
0.0
  0
LINE
  5
31e
100
AcDbEntity
  8
0
 62
2
100
AcDbLine
 10
298.742100
 20
-47.304330
 30
0.0
 11
299.565060
 21
-47.304330
 31
0.0
  0
LINE
  5
31f
100
AcDbEntity
  8
0
 62
2
100
AcDbLine
 10
297.017440
 20
-54.556030
 30
0.0
 11
297.017440
 21
-53.575590
 31
0.0
  0
LINE
  5
320
100
AcDbEntity
  8
0
 62
2
100
AcDbLine
 10
268.340840
 20
-53.575590
 30
0.0
 11
270.065500
 21
-53.575590
 31
0.0
  0
LINE
  5
321
100
AcDbEntity
  8
0
 62
2
100
AcDbLine
 10
293.865300
 20
-54.556030
 30
0.0
 11
297.017440
 21
-54.556030
 31
0.0
  0
LINE
  5
322
100
AcDbEntity
  8
0
 62
2
100
AcDbLine
 10
273.217640
 20
-54.556030
 30
0.0
 11
273.217640
 21
-53.575590
 31
0.0
  0
LINE
  5
323
100
AcDbEntity
  8
0
 62
2
100
AcDbLine
 10
274.942300
 20
-44.655110
 30
0.0
 11
274.942300
 21
-41.424230
 31
0.0
  0
LINE
  5
324
100
AcDbEntity
  8
0
 62
2
100
AcDbLine
 10
270.065500
 20
-41.424230
 30
0.0
 11
268.340840
 21
-41.424230
 31
0.0
  0
LINE
  5
325
100
AcDbEntity
  8
0
 62
2
100
AcDbLine
 10
273.217640
 20
-41.424230
 30
0.0
 11
273.217640
 21
-40.504750
 31
0.0
  0
LINE
  5
326
100
AcDbEntity
  8
0
 62
2
100
AcDbLine
 10
298.742100
 20
-53.575590
 30
0.0
 11
298.742100
 21
-47.304330
 31
0.0
  0
LINE
  5
327
100
AcDbEntity
  8
0
 62
2
100
AcDbLine
 10
292.140640
 20
-53.575590
 30
0.0
 11
293.865300
 21
-53.575590
 31
0.0
  0
LINE
  5
328
100
AcDbEntity
  8
0
 62
2
100
AcDbLine
 10
290.466780
 20
-49.105190
 30
0.0
 11
292.140640
 21
-49.105190
 31
0.0
  0
LINE
  5
329
100
AcDbEntity
  8
0
 62
2
100
AcDbLine
 10
292.140640
 20
-49.105190
 30
0.0
 11
292.140640
 21
-53.575590
 31
0.0
  0
LINE
  5
32a
100
AcDbEntity
  8
0
 62
2
100
AcDbLine
 10
273.217640
 20
-53.575590
 30
0.0
 11
274.942300
 21
-53.575590
 31
0.0
  0
LINE
  5
32b
100
AcDbEntity
  8
0
 62
2
100
AcDbLine
 10
274.942300
 20
-49.105190
 30
0.0
 11
276.616160
 21
-49.105190
 31
0.0
  0
LINE
  5
32c
100
AcDbEntity
  8
0
 62
2
100
AcDbLine
 10
270.065500
 20
-54.556030
 30
0.0
 11
273.217640
 21
-54.556030
 31
0.0
  0
LINE
  5
32d
100
AcDbEntity
  8
0
 62
2
100
AcDbLine
 10
268.340840
 20
-44.655110
 30
0.0
 11
267.517880
 21
-44.655110
 31
0.0
  0
LINE
  5
32e
100
AcDbEntity
  8
0
 62
2
100
AcDbLine
 10
16.624300
 20
-59.006110
 30
0.0
 11
16.624300
 21
-72.854190
 31
0.0
  0
LINE
  5
32f
100
AcDbEntity
  8
0
 62
2
100
AcDbLine
 10
276.616160
 20
-53.804190
 30
0.0
 11
290.466780
 21
-53.804190
 31
0.0
  0
LINE
  5
330
100
AcDbEntity
  8
0
 62
2
100
AcDbLine
 10
276.616160
 20
-44.655110
 30
0.0
 11
274.942300
 21
-44.655110
 31
0.0
  0
LINE
  5
331
100
AcDbEntity
  8
0
 62
2
100
AcDbLine
 10
274.942300
 20
-53.575590
 30
0.0
 11
274.942300
 21
-49.105190
 31
0.0
  0
LINE
  5
332
100
AcDbEntity
  8
0
 62
2
100
AcDbLine
 10
268.340840
 20
-47.304330
 30
0.0
 11
268.340840
 21
-53.575590
 31
0.0
  0
LINE
  5
333
100
AcDbEntity
  8
0
 62
2
100
AcDbLine
 10
267.517880
 20
-44.655110
 30
0.0
 11
267.517880
 21
-47.304330
 31
0.0
  0
LINE
  5
334
100
AcDbEntity
  8
0
 62
2
100
AcDbLine
 10
274.942300
 20
-41.424230
 30
0.0
 11
273.217640
 21
-41.424230
 31
0.0
  0
LINE
  5
335
100
AcDbEntity
  8
0
 62
2
100
AcDbLine
 10
16.624300
 20
-72.854190
 30
0.0
 11
2.773680
 21
-72.854190
 31
0.0
  0
LINE
  5
336
100
AcDbEntity
  8
0
 62
2
100
AcDbLine
 10
298.742100
 20
-44.655110
 30
0.0
 11
298.742100
 21
-41.424230
 31
0.0
  0
LINE
  5
337
100
AcDbEntity
  8
0
 62
2
100
AcDbLine
 10
2.773680
 20
-72.854190
 30
0.0
 11
2.773680
 21
-59.006110
 31
0.0
  0
LINE
  5
338
100
AcDbEntity
  8
0
 62
2
100
AcDbLine
 10
299.565060
 20
-44.655110
 30
0.0
 11
298.742100
 21
-44.655110
 31
0.0
  0
LINE
  5
339
100
AcDbEntity
  8
0
 62
2
100
AcDbLine
 10
297.017440
 20
-53.575590
 30
0.0
 11
298.742100
 21
-53.575590
 31
0.0
  0
LINE
  5
33a
100
AcDbEntity
  8
0
 62
2
100
AcDbLine
 10
293.865300
 20
-53.575590
 30
0.0
 11
293.865300
 21
-54.556030
 31
0.0
  0
LINE
  5
33b
100
AcDbEntity
  8
0
 62
2
100
AcDbLine
 10
267.517880
 20
-47.304330
 30
0.0
 11
268.340840
 21
-47.304330
 31
0.0
  0
LINE
  5
33c
100
AcDbEntity
  8
0
 62
2
100
AcDbLine
 10
270.065500
 20
-53.575590
 30
0.0
 11
270.065500
 21
-54.556030
 31
0.0
  0
LINE
  5
33d
100
AcDbEntity
  8
0
 62
2
100
AcDbLine
 10
276.616160
 20
-39.956110
 30
0.0
 11
276.616160
 21
-44.655110
 31
0.0
  0
LINE
  5
33e
100
AcDbEntity
  8
0
 62
2
100
AcDbLine
 10
268.340840
 20
-41.424230
 30
0.0
 11
268.340840
 21
-44.655110
 31
0.0
  0
LINE
  5
33f
100
AcDbEntity
  8
0
 62
2
100
AcDbLine
 10
276.616160
 20
-49.105190
 30
0.0
 11
276.616160
 21
-53.804190
 31
0.0
  0
LINE
  5
340
100
AcDbEntity
  8
0
 62
2
100
AcDbLine
 10
270.065500
 20
-40.504750
 30
0.0
 11
270.065500
 21
-41.424230
 31
0.0
  0
LINE
  5
341
100
AcDbEntity
  8
0
 62
2
100
AcDbLine
 10
121.836180
 20
-72.854190
 30
0.0
 11
121.836180
 21
-59.006110
 31
0.0
  0
LINE
  5
342
100
AcDbEntity
  8
0
 62
2
100
AcDbLine
 10
135.686800
 20
-72.854190
 30
0.0
 11
121.836180
 21
-72.854190
 31
0.0
  0
LINE
  5
343
100
AcDbEntity
  8
0
 62
2
100
AcDbLine
 10
269.036800
 20
-59.006110
 30
0.0
 11
269.036800
 21
-72.854190
 31
0.0
  0
LINE
  5
344
100
AcDbEntity
  8
0
 62
2
100
AcDbLine
 10
121.836180
 20
-59.006110
 30
0.0
 11
135.686800
 21
-59.006110
 31
0.0
  0
LINE
  5
345
100
AcDbEntity
  8
0
 62
2
100
AcDbLine
 10
159.936180
 20
-59.006110
 30
0.0
 11
173.786800
 21
-59.006110
 31
0.0
  0
LINE
  5
346
100
AcDbEntity
  8
0
 62
2
100
AcDbLine
 10
54.129940
 20
-60.474230
 30
0.0
 11
54.129940
 21
-59.554750
 31
0.0
  0
LINE
  5
347
100
AcDbEntity
  8
0
 62
2
100
AcDbLine
 10
140.886180
 20
-59.006110
 30
0.0
 11
154.736800
 21
-59.006110
 31
0.0
  0
LINE
  5
348
100
AcDbEntity
  8
0
 62
2
100
AcDbLine
 10
198.036180
 20
-72.854190
 30
0.0
 11
198.036180
 21
-59.006110
 31
0.0
  0
LINE
  5
349
100
AcDbEntity
  8
0
 62
2
100
AcDbLine
 10
54.129940
 20
-72.625590
 30
0.0
 11
55.854600
 21
-72.625590
 31
0.0
  0
LINE
  5
34a
100
AcDbEntity
  8
0
 62
2
100
AcDbLine
 10
217.086180
 20
-59.006110
 30
0.0
 11
230.936800
 21
-59.006110
 31
0.0
  0
LINE
  5
34b
100
AcDbEntity
  8
0
 62
2
100
AcDbLine
 10
236.136180
 20
-72.854190
 30
0.0
 11
236.136180
 21
-59.006110
 31
0.0
  0
LINE
  5
34c
100
AcDbEntity
  8
0
 62
2
100
AcDbLine
 10
295.229280
 20
-72.854190
 30
0.0
 11
281.381200
 21
-72.854190
 31
0.0
  0
LINE
  5
34d
100
AcDbEntity
  8
0
 62
2
100
AcDbLine
 10
50.980340
 20
-60.474230
 30
0.0
 11
49.255680
 21
-60.474230
 31
0.0
  0
LINE
  5
34e
100
AcDbEntity
  8
0
 62
2
100
AcDbLine
 10
249.986800
 20
-59.006110
 30
0.0
 11
249.986800
 21
-72.854190
 31
0.0
  0
LINE
  5
34f
100
AcDbEntity
  8
0
 62
2
100
AcDbLine
 10
56.680100
 20
-66.354330
 30
0.0
 11
56.680100
 21
-63.705110
 31
0.0
  0
LINE
  5
350
100
AcDbEntity
  8
0
 62
2
100
AcDbLine
 10
236.136180
 20
-59.006110
 30
0.0
 11
249.986800
 21
-59.006110
 31
0.0
  0
LINE
  5
351
100
AcDbEntity
  8
0
 62
2
100
AcDbLine
 10
47.579280
 20
-59.006110
 30
0.0
 11
33.731200
 21
-59.006110
 31
0.0
  0
LINE
  5
352
100
AcDbEntity
  8
0
 62
2
100
AcDbLine
 10
49.255680
 20
-63.705110
 30
0.0
 11
47.579280
 21
-63.705110
 31
0.0
  0
LINE
  5
353
100
AcDbEntity
  8
0
 62
2
100
AcDbLine
 10
97.586800
 20
-59.006110
 30
0.0
 11
97.586800
 21
-72.854190
 31
0.0
  0
LINE
  5
354
100
AcDbEntity
  8
0
 62
2
100
AcDbLine
 10
55.854600
 20
-66.354330
 30
0.0
 11
56.680100
 21
-66.354330
 31
0.0
  0
LINE
  5
355
100
AcDbEntity
  8
0
 62
2
100
AcDbLine
 10
2.773680
 20
-59.006110
 30
0.0
 11
16.624300
 21
-59.006110
 31
0.0
  0
LINE
  5
356
100
AcDbEntity
  8
0
 62
2
100
AcDbLine
 10
83.736180
 20
-59.006110
 30
0.0
 11
97.586800
 21
-59.006110
 31
0.0
  0
LINE
  5
357
100
AcDbEntity
  8
0
 62
2
100
AcDbLine
 10
64.686180
 20
-72.854190
 30
0.0
 11
64.686180
 21
-59.006110
 31
0.0
  0
LINE
  5
358
100
AcDbEntity
  8
0
 62
2
100
AcDbLine
 10
78.536800
 20
-72.854190
 30
0.0
 11
64.686180
 21
-72.854190
 31
0.0
  0
LINE
  5
359
100
AcDbEntity
  8
0
 62
2
100
AcDbLine
 10
78.536800
 20
-59.006110
 30
0.0
 11
78.536800
 21
-72.854190
 31
0.0
  0
LINE
  5
35a
100
AcDbEntity
  8
0
 62
2
100
AcDbLine
 10
64.686180
 20
-59.006110
 30
0.0
 11
78.536800
 21
-59.006110
 31
0.0
  0
LINE
  5
35b
100
AcDbEntity
  8
0
 62
2
100
AcDbLine
 10
83.736180
 20
-72.854190
 30
0.0
 11
83.736180
 21
-59.006110
 31
0.0
  0
LINE
  5
35c
100
AcDbEntity
  8
0
 62
2
100
AcDbLine
 10
230.936800
 20
-72.854190
 30
0.0
 11
217.086180
 21
-72.854190
 31
0.0
  0
LINE
  5
35d
100
AcDbEntity
  8
0
 62
2
100
AcDbLine
 10
255.186180
 20
-59.006110
 30
0.0
 11
269.036800
 21
-59.006110
 31
0.0
  0
LINE
  5
35e
100
AcDbEntity
  8
0
 62
2
100
AcDbLine
 10
178.986180
 20
-72.854190
 30
0.0
 11
178.986180
 21
-59.006110
 31
0.0
  0
LINE
  5
35f
100
AcDbEntity
  8
0
 62
2
100
AcDbLine
 10
54.129940
 20
-59.554750
 30
0.0
 11
50.980340
 21
-59.554750
 31
0.0
  0
LINE
  5
360
100
AcDbEntity
  8
0
 62
2
100
AcDbLine
 10
192.836800
 20
-72.854190
 30
0.0
 11
178.986180
 21
-72.854190
 31
0.0
  0
LINE
  5
361
100
AcDbEntity
  8
0
 62
2
100
AcDbLine
 10
211.886800
 20
-72.854190
 30
0.0
 11
198.036180
 21
-72.854190
 31
0.0
  0
LINE
  5
362
100
AcDbEntity
  8
0
 62
2
100
AcDbLine
 10
269.036800
 20
-72.854190
 30
0.0
 11
255.186180
 21
-72.854190
 31
0.0
  0
LINE
  5
363
100
AcDbEntity
  8
0
 62
2
100
AcDbLine
 10
178.986180
 20
-59.006110
 30
0.0
 11
192.836800
 21
-59.006110
 31
0.0
  0
LINE
  5
364
100
AcDbEntity
  8
0
 62
2
100
AcDbLine
 10
154.736800
 20
-72.854190
 30
0.0
 11
140.886180
 21
-72.854190
 31
0.0
  0
LINE
  5
365
100
AcDbEntity
  8
0
 62
2
100
AcDbLine
 10
211.886800
 20
-59.006110
 30
0.0
 11
211.886800
 21
-72.854190
 31
0.0
  0
LINE
  5
366
100
AcDbEntity
  8
0
 62
2
100
AcDbLine
 10
173.786800
 20
-72.854190
 30
0.0
 11
159.936180
 21
-72.854190
 31
0.0
  0
LINE
  5
367
100
AcDbEntity
  8
0
 62
2
100
AcDbLine
 10
55.854600
 20
-72.625590
 30
0.0
 11
55.854600
 21
-66.354330
 31
0.0
  0
LINE
  5
368
100
AcDbEntity
  8
0
 62
2
100
AcDbLine
 10
49.255680
 20
-60.474230
 30
0.0
 11
49.255680
 21
-63.705110
 31
0.0
  0
LINE
  5
369
100
AcDbEntity
  8
0
 62
2
100
AcDbLine
 10
97.586800
 20
-72.854190
 30
0.0
 11
83.736180
 21
-72.854190
 31
0.0
  0
LINE
  5
36a
100
AcDbEntity
  8
0
 62
2
100
AcDbLine
 10
135.686800
 20
-59.006110
 30
0.0
 11
135.686800
 21
-72.854190
 31
0.0
  0
LINE
  5
36b
100
AcDbEntity
  8
0
 62
2
100
AcDbLine
 10
159.936180
 20
-72.854190
 30
0.0
 11
159.936180
 21
-59.006110
 31
0.0
  0
LINE
  5
36c
100
AcDbEntity
  8
0
 62
2
100
AcDbLine
 10
230.936800
 20
-59.006110
 30
0.0
 11
230.936800
 21
-72.854190
 31
0.0
  0
LINE
  5
36d
100
AcDbEntity
  8
0
 62
2
100
AcDbLine
 10
192.836800
 20
-59.006110
 30
0.0
 11
192.836800
 21
-72.854190
 31
0.0
  0
LINE
  5
36e
100
AcDbEntity
  8
0
 62
2
100
AcDbLine
 10
217.086180
 20
-72.854190
 30
0.0
 11
217.086180
 21
-59.006110
 31
0.0
  0
LINE
  5
36f
100
AcDbEntity
  8
0
 62
2
100
AcDbLine
 10
47.579280
 20
-63.705110
 30
0.0
 11
47.579280
 21
-59.006110
 31
0.0
  0
LINE
  5
370
100
AcDbEntity
  8
0
 62
2
100
AcDbLine
 10
102.786180
 20
-72.854190
 30
0.0
 11
102.786180
 21
-59.006110
 31
0.0
  0
LINE
  5
371
100
AcDbEntity
  8
0
 62
2
100
AcDbLine
 10
116.636800
 20
-72.854190
 30
0.0
 11
102.786180
 21
-72.854190
 31
0.0
  0
LINE
  5
372
100
AcDbEntity
  8
0
 62
2
100
AcDbLine
 10
116.636800
 20
-59.006110
 30
0.0
 11
116.636800
 21
-72.854190
 31
0.0
  0
LINE
  5
373
100
AcDbEntity
  8
0
 62
2
100
AcDbLine
 10
140.886180
 20
-72.854190
 30
0.0
 11
140.886180
 21
-59.006110
 31
0.0
  0
LINE
  5
374
100
AcDbEntity
  8
0
 62
2
100
AcDbLine
 10
249.986800
 20
-72.854190
 30
0.0
 11
236.136180
 21
-72.854190
 31
0.0
  0
LINE
  5
375
100
AcDbEntity
  8
0
 62
2
100
AcDbLine
 10
56.680100
 20
-63.705110
 30
0.0
 11
55.854600
 21
-63.705110
 31
0.0
  0
LINE
  5
376
100
AcDbEntity
  8
0
 62
2
100
AcDbLine
 10
50.980340
 20
-59.554750
 30
0.0
 11
50.980340
 21
-60.474230
 31
0.0
  0
LINE
  5
377
100
AcDbEntity
  8
0
 62
2
100
AcDbLine
 10
255.186180
 20
-72.854190
 30
0.0
 11
255.186180
 21
-59.006110
 31
0.0
  0
LINE
  5
378
100
AcDbEntity
  8
0
 62
2
100
AcDbLine
 10
55.854600
 20
-60.474230
 30
0.0
 11
54.129940
 21
-60.474230
 31
0.0
  0
LINE
  5
379
100
AcDbEntity
  8
0
 62
2
100
AcDbLine
 10
173.786800
 20
-59.006110
 30
0.0
 11
173.786800
 21
-72.854190
 31
0.0
  0
LINE
  5
37a
100
AcDbEntity
  8
0
 62
2
100
AcDbLine
 10
102.786180
 20
-59.006110
 30
0.0
 11
116.636800
 21
-59.006110
 31
0.0
  0
LINE
  5
37b
100
AcDbEntity
  8
0
 62
2
100
AcDbLine
 10
281.381200
 20
-59.006110
 30
0.0
 11
295.229280
 21
-59.006110
 31
0.0
  0
LINE
  5
37c
100
AcDbEntity
  8
0
 62
2
100
AcDbLine
 10
154.736800
 20
-59.006110
 30
0.0
 11
154.736800
 21
-72.854190
 31
0.0
  0
LINE
  5
37d
100
AcDbEntity
  8
0
 62
2
100
AcDbLine
 10
198.036180
 20
-59.006110
 30
0.0
 11
211.886800
 21
-59.006110
 31
0.0
  0
LINE
  5
37e
100
AcDbEntity
  8
0
 62
2
100
AcDbLine
 10
281.381200
 20
-72.854190
 30
0.0
 11
281.381200
 21
-59.006110
 31
0.0
  0
LINE
  5
37f
100
AcDbEntity
  8
0
 62
2
100
AcDbLine
 10
295.229280
 20
-59.006110
 30
0.0
 11
295.229280
 21
-72.854190
 31
0.0
  0
LINE
  5
380
100
AcDbEntity
  8
0
 62
2
100
AcDbLine
 10
55.854600
 20
-63.705110
 30
0.0
 11
55.854600
 21
-60.474230
 31
0.0
  0
ENDSEC
  0
SECTION
  2
OBJECTS
  0
DICTIONARY
  5
C
330
0
100
AcDbDictionary
  3
ACAD_GROUP
350
D
  3
ACAD_MLINESTYLE
350
17
  0
DICTIONARY
  5
D
330
C
100
AcDbDictionary
  0
DICTIONARY
  5
1A
330
C
100
AcDbDictionary
  0
DICTIONARY
  5
17
330
C
100
AcDbDictionary
  3
STANDARD
350
18
  0
DICTIONARY
  5
19
330
C
100
AcDbDictionary
  0
ENDSEC
  0
EOF
