<?xml version="1.0" standalone="no"?>
 <!DOCTYPE svg PUBLIC "-//W3C//DTD SVG 1.1//EN" 
 "http://www.w3.org/Graphics/SVG/1.1/DTD/svg11.dtd"> 
<svg xmlns="http://www.w3.org/2000/svg" version="1.1" 
    width="59.4004cm" height="41.9989cm" viewBox="0 0 233860 165350 ">
<title>SVG Picture created as layer1-Edge_Cuts.svg date 2020/03/05 18:40:58 </title>
  <desc>Picture generated by PCBNEW </desc>
<g style="fill:#000000; fill-opacity:1;stroke:#000000; stroke-opacity:1;
stroke-linecap:round; stroke-linejoin:round; "
 transform="translate(0 0) scale(1 1)">
</g>
<g style="fill:#000000; fill-opacity:0.0; 
stroke:#000000; stroke-width:-0.000393701; stroke-opacity:1; 
stroke-linecap:round; stroke-linejoin:round;">
</g>
<g style="fill:#C2C200; fill-opacity:0.0; 
stroke:#C2C200; stroke-width:-0.000393701; stroke-opacity:1; 
stroke-linecap:round; stroke-linejoin:round;">
</g>
<g style="fill:#C2C200; fill-opacity:0.0; 
stroke:#C2C200; stroke-width:78.7402; stroke-opacity:1; 
stroke-linecap:round; stroke-linejoin:round;">
<path d="M68951 33645
L70038 33645
" />
<path d="M68557 41144
L68557 34038
" />
<path d="M70432 33251
L70432 26538
" />
<path d="M70825 26145
L73788 26145
" />
<path d="M72701 11145
L75664 11145
" />
<path d="M76057 10751
L76057 3643
" />
<path d="M72307 18250
L72307 11538
" />
<path d="M73788 18643
L72701 18643
" />
<path d="M74182 25751
L74182 19037
" />
<path d="M84183 40444
L84183 40058
" />
<path d="M72893 37589
L72893 40058
" />
<path d="M73572 40444
L74813 40444
" />
<path d="M72569 37589
L72893 37589
" />
<path d="M74813 40444
L74813 40058
" />
<path d="M84183 40058
L84862 40058
" />
<path d="M72893 36546
L72569 36546
" />
<path d="M73572 40058
L73572 40444
" />
<path d="M72893 35274
L72893 36546
" />
<path d="M82942 40444
L84183 40444
" />
<path d="M82263 40058
L82942 40058
" />
<path d="M76151 40148
L81604 40148
" />
<path d="M82942 40058
L82942 40444
" />
<path d="M121917 40148
L116464 40148
" />
<path d="M72569 36546
L72569 37589
" />
<path d="M74813 40058
L75492 40058
" />
<path d="M72893 40058
L73572 40058
" />
<path d="M134520 3643
L134644 3648
" />
<path d="M136052 39995
L136019 40114
" />
<path d="M70826 26145
L70754 26152
" />
<path d="M70754 26152
L70691 26169
" />
<path d="M70691 26169
L70636 26194
" />
<path d="M70636 26194
L70588 26225
" />
<path d="M70588 26225
L70546 26262
" />
<path d="M70546 26262
L70509 26305
" />
<path d="M70509 26305
L70478 26355
" />
<path d="M70478 26355
L70454 26410
" />
<path d="M70454 26410
L70438 26473
" />
<path d="M70438 26473
L70432 26539
" />
<path d="M135924 40342
L135863 40450
" />
<path d="M135343 3875
L135446 3943
" />
<path d="M135543 40825
L135446 40901
" />
<path d="M135976 4615
L136019 4731
" />
<path d="M134644 41197
L134520 41202
" />
<path d="M68952 33645
L68879 33652
" />
<path d="M68879 33652
L68817 33669
" />
<path d="M68817 33669
L68762 33694
" />
<path d="M68762 33694
L68714 33725
" />
<path d="M68714 33725
L68672 33762
" />
<path d="M68672 33762
L68635 33805
" />
<path d="M68635 33805
L68604 33855
" />
<path d="M68604 33855
L68580 33910
" />
<path d="M68580 33910
L68563 33973
" />
<path d="M68563 33973
L68558 34039
" />
<path d="M136096 5218
L136096 39627
" />
<path d="M135343 40970
L135235 41030
" />
<path d="M70039 33645
L70111 33639
" />
<path d="M70111 33639
L70173 33622
" />
<path d="M70173 33622
L70230 33596
" />
<path d="M70230 33596
L70278 33564
" />
<path d="M70278 33564
L70320 33527
" />
<path d="M70320 33527
L70358 33482
" />
<path d="M70358 33482
L70388 33433
" />
<path d="M70388 33433
L70412 33378
" />
<path d="M70412 33378
L70427 33314
" />
<path d="M70427 33314
L70432 33252
" />
<path d="M135235 3814
L135343 3875
" />
<path d="M135718 40650
L135634 40741
" />
<path d="M135446 40901
L135343 40970
" />
<path d="M136052 4850
L136076 4971
" />
<path d="M136019 4731
L136052 4850
" />
<path d="M135007 3720
L135123 3763
" />
<path d="M135634 4104
L135718 4195
" />
<path d="M136090 5094
L136096 5218
" />
<path d="M135924 4503
L135976 4615
" />
<path d="M135794 4292
L135863 4395
" />
<path d="M76057 3643
L134520 3643
" />
<path d="M135634 40741
L135543 40825
" />
<path d="M134767 3662
L134888 3686
" />
<path d="M135235 41030
L135123 41083
" />
<path d="M71464 32648
L71464 27196
" />
<path d="M132229 27196
L132229 32648
" />
<path d="M132933 20274
L132933 19912
" />
<path d="M133167 12196
L133167 17648
" />
<path d="M132933 25444
L132933 25058
" />
<path d="M132933 25058
L133612 25058
" />
<path d="M133612 22589
L133936 22589
" />
<path d="M133612 25058
L133612 22589
" />
<path d="M133936 22589
L133936 21546
" />
<path d="M75214 25148
L75214 19696
" />
<path d="M133612 21546
L133612 20274
" />
<path d="M133936 21546
L133612 21546
" />
<path d="M75664 11145
L75737 11139
" />
<path d="M75737 11139
L75799 11122
" />
<path d="M75799 11122
L75855 11096
" />
<path d="M75855 11096
L75904 11064
" />
<path d="M75904 11064
L75946 11027
" />
<path d="M75946 11027
L75983 10982
" />
<path d="M75983 10982
L76014 10933
" />
<path d="M76014 10933
L76037 10878
" />
<path d="M76037 10878
L76053 10814
" />
<path d="M76053 10814
L76058 10752
" />
<path d="M73789 26145
L73861 26139
" />
<path d="M73861 26139
L73923 26122
" />
<path d="M73923 26122
L73980 26096
" />
<path d="M73980 26096
L74028 26064
" />
<path d="M74028 26064
L74070 26027
" />
<path d="M74070 26027
L74108 25982
" />
<path d="M74108 25982
L74138 25933
" />
<path d="M74138 25933
L74162 25878
" />
<path d="M74162 25878
L74177 25814
" />
<path d="M74177 25814
L74182 25752
" />
<path d="M74182 19038
L74176 18966
" />
<path d="M74176 18966
L74159 18904
" />
<path d="M74159 18904
L74134 18849
" />
<path d="M74134 18849
L74103 18801
" />
<path d="M74103 18801
L74066 18759
" />
<path d="M74066 18759
L74024 18722
" />
<path d="M74024 18722
L73973 18690
" />
<path d="M73973 18690
L73918 18666
" />
<path d="M73918 18666
L73856 18650
" />
<path d="M73856 18650
L73789 18644
" />
<path d="M72308 18251
L72315 18323
" />
<path d="M72315 18323
L72332 18386
" />
<path d="M72332 18386
L72357 18441
" />
<path d="M72357 18441
L72388 18489
" />
<path d="M72388 18489
L72425 18531
" />
<path d="M72425 18531
L72468 18567
" />
<path d="M72468 18567
L72516 18598
" />
<path d="M72516 18598
L72571 18622
" />
<path d="M72571 18622
L72634 18639
" />
<path d="M72634 18639
L72702 18644
" />
<path d="M72702 11145
L72629 11152
" />
<path d="M72629 11152
L72567 11169
" />
<path d="M72567 11169
L72512 11194
" />
<path d="M72512 11194
L72464 11225
" />
<path d="M72464 11225
L72422 11262
" />
<path d="M72422 11262
L72385 11305
" />
<path d="M72385 11305
L72354 11355
" />
<path d="M72354 11355
L72330 11410
" />
<path d="M72330 11410
L72313 11473
" />
<path d="M72313 11473
L72308 11539
" />
<path d="M77089 10148
L77089 4696
" />
<path d="M77089 4696
L82542 4696
" />
<path d="M132631 5274
L131951 5274
" />
<path d="M134549 7589
L134875 7589
" />
<path d="M131292 4696
L125839 4696
" />
<path d="M133870 4912
L132631 4912
" />
<path d="M133870 5274
L133870 4912
" />
<path d="M134549 5274
L133870 5274
" />
<path d="M107089 4696
L112542 4696
" />
<path d="M132631 4912
L132631 5274
" />
<path d="M99589 4696
L105042 4696
" />
<path d="M133870 10444
L133870 10058
" />
<path d="M134875 7589
L134875 6546
" />
<path d="M123260 5274
L122581 5274
" />
<path d="M134549 6546
L134549 5274
" />
<path d="M92089 4696
L97542 4696
" />
<path d="M84589 4696
L90042 4696
" />
<path d="M134549 10058
L134549 7589
" />
<path d="M133870 10058
L134549 10058
" />
<path d="M114589 4696
L120042 4696
" />
<path d="M134875 6546
L134549 6546
" />
<path d="M133612 20274
L132933 20274
" />
<path d="M123260 4912
L123260 5274
" />
<path d="M73339 17648
L73339 12196
" />
<path d="M124500 5274
L124500 4912
" />
<path d="M124500 4912
L123260 4912
" />
<path d="M125179 5274
L124500 5274
" />
<path d="M136076 39874
L136052 39995
" />
<path d="M135863 4395
L135924 4503
" />
<path d="M135007 41125
L134888 41159
" />
<path d="M135543 4020
L135634 4104
" />
<path d="M134888 41159
L134767 41183
" />
<path d="M134888 3686
L135007 3720
" />
<path d="M135446 3943
L135543 4020
" />
<path d="M134644 3648
L134767 3662
" />
<path d="M135718 4195
L135794 4292
" />
<path d="M135863 40450
L135794 40553
" />
<path d="M135123 41083
L135007 41125
" />
<path d="M136019 40114
L135976 40230
" />
<path d="M136090 39751
L136076 39874
" />
<path d="M134520 41202
L68557 41202
" />
<path d="M136076 4971
L136090 5094
" />
<path d="M135976 40230
L135924 40342
" />
<path d="M135794 40553
L135718 40650
" />
<path d="M135123 3763
L135235 3814
" />
<path d="M134767 41183
L134644 41197
" />
<path d="M136096 39627
L136090 39751
" />
<path d="M129417 40148
L123964 40148
" />
<path d="M129417 34696
L129417 40148
" />
<path d="M96604 40148
L91151 40148
" />
<path d="M105979 40148
L100527 40148
" />
<path d="M114417 40148
L108964 40148
" />
<path d="M63483 33449
L64570 33449
" />
<path d="M63089 40948
L63089 33842
" />
<path d="M64964 33055
L64964 26342
" />
<path d="M65357 25949
L68320 25949
" />
<path d="M67233 10949
L70196 10949
" />
<path d="M70589 10555
L70589 3447
" />
<path d="M66839 18054
L66839 11342
" />
<path d="M40511 39952
L35059 39952
" />
<path d="M68320 18447
L67233 18447
" />
<path d="M31136 39952
L25683 39952
" />
<path d="M68714 25555
L68714 18841
" />
<path d="M50059 39952
L55511 39952
" />
<path d="M47479 40248
L48720 40248
" />
<path d="M58769 37393
L59094 37393
" />
<path d="M11120 3824
L11217 3747
" />
<path d="M10573 39555
L10568 39431
" />
<path d="M10568 5022
L10573 4898
" />
<path d="M10739 4307
L10800 4199
" />
<path d="M10573 4898
L10587 4775
" />
<path d="M11897 3466
L12019 3452
" />
<path d="M11656 3524
L11775 3490
" />
<path d="M10945 3999
L11029 3908
" />
<path d="M11320 3679
L11428 3618
" />
<path d="M10611 39799
L10587 39678
" />
<path d="M11217 3747
L11320 3679
" />
<path d="M10611 4654
L10645 4535
" />
<path d="M11428 3618
L11540 3567
" />
<path d="M10868 4096
L10945 3999
" />
<path d="M10587 4775
L10611 4654
" />
<path d="M10587 39678
L10573 39555
" />
<path d="M11775 3490
L11897 3466
" />
<path d="M11029 3908
L11120 3824
" />
<path d="M11540 40887
L11428 40834
" />
<path d="M65358 25949
L65285 25955
" />
<path d="M65285 25955
L65223 25972
" />
<path d="M65223 25972
L65168 25997
" />
<path d="M65168 25997
L65120 26028
" />
<path d="M65120 26028
L65078 26065
" />
<path d="M65078 26065
L65041 26108
" />
<path d="M65041 26108
L65010 26158
" />
<path d="M65010 26158
L64985 26213
" />
<path d="M64985 26213
L64969 26276
" />
<path d="M64969 26276
L64964 26342
" />
<path d="M12019 41001
L11897 40987
" />
<path d="M11320 40774
L11217 40705
" />
<path d="M11029 40545
L10945 40454
" />
<path d="M10945 40454
L10868 40357
" />
<path d="M63483 33449
L63411 33455
" />
<path d="M63411 33455
L63348 33472
" />
<path d="M63348 33472
L63293 33497
" />
<path d="M63293 33497
L63245 33528
" />
<path d="M63245 33528
L63203 33565
" />
<path d="M63203 33565
L63166 33608
" />
<path d="M63166 33608
L63135 33658
" />
<path d="M63135 33658
L63111 33713
" />
<path d="M63111 33713
L63095 33776
" />
<path d="M63095 33776
L63089 33842
" />
<path d="M64570 33449
L64642 33442
" />
<path d="M64642 33442
L64705 33425
" />
<path d="M64705 33425
L64761 33399
" />
<path d="M64761 33399
L64810 33367
" />
<path d="M64810 33367
L64852 33330
" />
<path d="M64852 33330
L64889 33285
" />
<path d="M64889 33285
L64920 33237
" />
<path d="M64920 33237
L64943 33181
" />
<path d="M64943 33181
L64959 33118
" />
<path d="M64959 33118
L64964 33055
" />
<path d="M11775 40963
L11656 40929
" />
<path d="M11428 40834
L11320 40774
" />
<path d="M10688 4419
L10739 4307
" />
<path d="M11540 3567
L11656 3524
" />
<path d="M12019 3452
L12143 3447
" />
<path d="M11217 40705
L11120 40629
" />
<path d="M11120 40629
L11029 40545
" />
<path d="M10645 4535
L10688 4419
" />
<path d="M10688 40034
L10645 39918
" />
<path d="M10800 4199
L10868 4096
" />
<path d="M10568 39431
L10568 5022
" />
<path d="M10739 40146
L10688 40034
" />
<path d="M12143 3447
L70589 3447
" />
<path d="M10800 40254
L10739 40146
" />
<path d="M10645 39918
L10611 39799
" />
<path d="M10868 40357
L10800 40254
" />
<path d="M63949 27000
L63949 32452
" />
<path d="M17074 32452
L11621 32452
" />
<path d="M11621 32452
L11621 27000
" />
<path d="M67699 19500
L67699 24952
" />
<path d="M70196 10949
L70268 10942
" />
<path d="M70268 10942
L70330 10925
" />
<path d="M70330 10925
L70387 10899
" />
<path d="M70387 10899
L70435 10867
" />
<path d="M70435 10867
L70478 10830
" />
<path d="M70478 10830
L70515 10785
" />
<path d="M70515 10785
L70545 10736
" />
<path d="M70545 10736
L70569 10681
" />
<path d="M70569 10681
L70584 10618
" />
<path d="M70584 10618
L70589 10555
" />
<path d="M68320 25949
L68392 25942
" />
<path d="M68392 25942
L68455 25925
" />
<path d="M68455 25925
L68511 25899
" />
<path d="M68511 25899
L68560 25867
" />
<path d="M68560 25867
L68602 25830
" />
<path d="M68602 25830
L68639 25785
" />
<path d="M68639 25785
L68670 25737
" />
<path d="M68670 25737
L68693 25681
" />
<path d="M68693 25681
L68709 25618
" />
<path d="M68709 25618
L68714 25555
" />
<path d="M68714 18841
L68707 18769
" />
<path d="M68707 18769
L68690 18707
" />
<path d="M68690 18707
L68666 18652
" />
<path d="M68666 18652
L68634 18604
" />
<path d="M68634 18604
L68597 18562
" />
<path d="M68597 18562
L68555 18525
" />
<path d="M68555 18525
L68505 18493
" />
<path d="M68505 18493
L68450 18469
" />
<path d="M68450 18469
L68387 18453
" />
<path d="M68387 18453
L68320 18448
" />
<path d="M66839 18054
L66846 18126
" />
<path d="M66846 18126
L66863 18189
" />
<path d="M66863 18189
L66888 18244
" />
<path d="M66888 18244
L66920 18292
" />
<path d="M66920 18292
L66957 18334
" />
<path d="M66957 18334
L66999 18371
" />
<path d="M66999 18371
L67048 18401
" />
<path d="M67048 18401
L67102 18425
" />
<path d="M67102 18425
L67166 18442
" />
<path d="M67166 18442
L67233 18448
" />
<path d="M67233 10949
L67161 10955
" />
<path d="M67161 10955
L67098 10972
" />
<path d="M67098 10972
L67043 10997
" />
<path d="M67043 10997
L66995 11028
" />
<path d="M66995 11028
L66953 11065
" />
<path d="M66953 11065
L66916 11108
" />
<path d="M66916 11108
L66885 11158
" />
<path d="M66885 11158
L66861 11213
" />
<path d="M66861 11213
L66845 11276
" />
<path d="M66845 11276
L66839 11342
" />
<path d="M69574 4500
L69574 9952
" />
<path d="M19121 4500
L24574 4500
" />
<path d="M26621 4500
L32074 4500
" />
<path d="M64121 4500
L69574 4500
" />
<path d="M56621 4500
L62074 4500
" />
<path d="M11621 4500
L17074 4500
" />
<path d="M41621 4500
L47074 4500
" />
<path d="M11621 9952
L11621 4500
" />
<path d="M34121 4500
L39574 4500
" />
<path d="M49121 4500
L54574 4500
" />
<path d="M11621 24952
L11621 19500
" />
<path d="M11621 17452
L11621 12000
" />
<path d="M65824 12000
L65824 17452
" />
<path d="M11656 40929
L11540 40887
" />
<path d="M11897 40987
L11775 40963
" />
<path d="M63089 41006
L12143 41006
" />
<path d="M12143 41006
L12019 41001
" />
<path d="M58090 39862
L58769 39862
" />
<path d="M58090 40248
L58090 39862
" />
<path d="M56171 39862
L56850 39862
" />
<path d="M48720 39862
L49399 39862
" />
<path d="M47479 39862
L47479 40248
" />
<path d="M56850 39862
L56850 40248
" />
<path d="M46801 39862
L47479 39862
" />
<path d="M58769 39862
L58769 37393
" />
<path d="M56850 40248
L58090 40248
" />
<path d="M48720 40248
L48720 39862
" />
<path d="M59094 36350
L58769 36350
" />
<path d="M59094 37393
L59094 36350
" />
<path d="M17246 39952
L17246 34500
" />
<path d="M22699 39952
L17246 39952
" />
<g >
</g>
</g> 
</svg>
