  0
SECTION
  2
HEADER
  9
$ANGBASE
  50
0.0
  9
$ANGDIR
  70
1
  9
$MEASUREMENT
  70
1
  0
ENDSEC
  0
SECTION
  2
TABLES
  0
TABLE
  2
LTYPE
  70
4
  0
LTYPE
  5
40F
  2
CONTINUOUS
  70
0
  3
Solid line
  72
65
  73
0
  40
0.0
  0
LTYPE
  5
410
  2
DASHDOT
 70
0
  3
Dash Dot ____ _ ____ _
 72
65
 73
4
 40
2.0
 49
1.25
 49
-0.25
 49
0.25
 49
-0.25
  0
LTYPE
  5
411
  2
DASHED
 70
0
  3
Dashed __ __ __ __ __
 72
65
 73
2
 40
0.75
 49
0.5
 49
-0.25
  0
LTYPE
  5
43B
  2
DOTTED
 70
0
  3
Dotted .  .  .  .
 72
65
 73
2
 40
0.2
 49
0.0
 49
-0.2
  0
ENDTAB
  0
TABLE
  2
STYLE
  70
4
  0
STYLE
  2
KICAD
  70
0
  40
0
  41
1
  42
1
  50
0
  71
0
  3
isocp.shx
  0
STYLE
  2
KICADB
  70
0
  40
0
  41
1
  42
1
  50
0
  71
0
  3
isocp.shx
  0
STYLE
  2
KICADI
  70
0
  40
0
  41
1
  42
1
  50
15
  71
0
  3
isocp.shx
  0
STYLE
  2
KICADBI
  70
0
  40
0
  41
1
  42
1
  50
15
  71
0
  3
isocp.shx
  0
ENDTAB
  0
TABLE
  2
LAYER
  70
1
  0
LAYER
  2
BLACK
  70
0
  62
7
  6
CONTINUOUS
  0
ENDTAB
  0
ENDSEC
  0
SECTION
  2
ENTITIES
0
LINE
8
BLACK
6
CONTINUOUS
10
175.137
20
-85.4605
11
177.898
21
-85.4605
0
LINE
8
BLACK
6
CONTINUOUS
10
174.136
20
-104.508
11
174.136
21
-86.4587
0
LINE
8
BLACK
6
CONTINUOUS
10
178.899
20
-84.4597
11
178.899
21
-67.4087
0
LINE
8
BLACK
6
CONTINUOUS
10
179.897
20
-66.4105
11
187.423
21
-66.4105
0
LINE
8
BLACK
6
CONTINUOUS
10
184.662
20
-28.3105
11
192.188
21
-28.3105
0
LINE
8
BLACK
6
CONTINUOUS
10
193.186
20
-27.3097
11
193.186
21
-9.25538
0
LINE
8
BLACK
6
CONTINUOUS
10
183.661
20
-46.3572
11
183.661
21
-29.3087
0
LINE
8
BLACK
6
CONTINUOUS
10
187.423
20
-47.3554
11
184.662
21
-47.3554
0
LINE
8
BLACK
6
CONTINUOUS
10
188.424
20
-65.4097
11
188.424
21
-48.3561
0
LINE
8
BLACK
6
CONTINUOUS
10
213.826
20
-102.73
11
213.826
21
-101.749
0
LINE
8
BLACK
6
CONTINUOUS
10
185.15
20
-95.4782
11
185.15
21
-101.749
0
LINE
8
BLACK
6
CONTINUOUS
10
186.874
20
-102.73
11
190.026
21
-102.73
0
LINE
8
BLACK
6
CONTINUOUS
10
184.327
20
-95.4782
11
185.15
21
-95.4782
0
LINE
8
BLACK
6
CONTINUOUS
10
190.026
20
-102.73
11
190.026
21
-101.749
0
LINE
8
BLACK
6
CONTINUOUS
10
213.826
20
-101.749
11
215.551
21
-101.749
0
LINE
8
BLACK
6
CONTINUOUS
10
185.15
20
-92.829
11
184.327
21
-92.829
0
LINE
8
BLACK
6
CONTINUOUS
10
186.874
20
-101.749
11
186.874
21
-102.73
0
LINE
8
BLACK
6
CONTINUOUS
10
185.15
20
-89.5981
11
185.15
21
-92.829
0
LINE
8
BLACK
6
CONTINUOUS
10
210.674
20
-102.73
11
213.826
21
-102.73
0
LINE
8
BLACK
6
CONTINUOUS
10
208.949
20
-101.749
11
210.674
21
-101.749
0
LINE
8
BLACK
6
CONTINUOUS
10
193.425
20
-101.978
11
207.276
21
-101.978
0
LINE
8
BLACK
6
CONTINUOUS
10
210.674
20
-101.749
11
210.674
21
-102.73
0
LINE
8
BLACK
6
CONTINUOUS
10
309.671
20
-101.978
11
295.82
21
-101.978
0
LINE
8
BLACK
6
CONTINUOUS
10
184.327
20
-92.829
11
184.327
21
-95.4782
0
LINE
8
BLACK
6
CONTINUOUS
10
190.026
20
-101.749
11
191.751
21
-101.749
0
LINE
8
BLACK
6
CONTINUOUS
10
185.15
20
-101.749
11
186.874
21
-101.749
0
LINE
8
BLACK
6
CONTINUOUS
10
341.682
20
-9.25538
11
341.997
21
-9.26808
0
LINE
8
BLACK
6
CONTINUOUS
10
345.573
20
-101.589
11
345.49
21
-101.892
0
LINE
8
BLACK
6
CONTINUOUS
10
179.899
20
-66.4107
11
179.716
21
-66.4276
0
LINE
8
BLACK
6
CONTINUOUS
10
179.716
20
-66.4276
11
179.557
21
-66.4709
0
LINE
8
BLACK
6
CONTINUOUS
10
179.557
20
-66.4709
11
179.417
21
-66.5347
0
LINE
8
BLACK
6
CONTINUOUS
10
179.417
20
-66.5347
11
179.296
21
-66.6136
0
LINE
8
BLACK
6
CONTINUOUS
10
179.296
20
-66.6136
11
179.189
21
-66.7071
0
LINE
8
BLACK
6
CONTINUOUS
10
179.189
20
-66.7071
11
179.095
21
-66.8166
0
LINE
8
BLACK
6
CONTINUOUS
10
179.095
20
-66.8166
11
179.016
21
-66.9422
0
LINE
8
BLACK
6
CONTINUOUS
10
179.016
20
-66.9422
11
178.954
21
-67.0835
0
LINE
8
BLACK
6
CONTINUOUS
10
178.954
20
-67.0835
11
178.914
21
-67.2427
0
LINE
8
BLACK
6
CONTINUOUS
10
178.914
20
-67.2427
11
178.899
21
-67.4107
0
LINE
8
BLACK
6
CONTINUOUS
10
345.248
20
-102.471
11
345.093
21
-102.745
0
LINE
8
BLACK
6
CONTINUOUS
10
343.773
20
-9.84466
11
344.034
21
-10.0174
0
LINE
8
BLACK
6
CONTINUOUS
10
344.281
20
-103.698
11
344.034
21
-103.891
0
LINE
8
BLACK
6
CONTINUOUS
10
345.38
20
-11.7243
11
345.49
21
-12.0189
0
LINE
8
BLACK
6
CONTINUOUS
10
341.997
20
-104.643
11
341.682
21
-104.655
0
LINE
8
BLACK
6
CONTINUOUS
10
175.138
20
-85.4607
11
174.955
21
-85.4776
0
LINE
8
BLACK
6
CONTINUOUS
10
174.955
20
-85.4776
11
174.796
21
-85.5209
0
LINE
8
BLACK
6
CONTINUOUS
10
174.796
20
-85.5209
11
174.656
21
-85.5847
0
LINE
8
BLACK
6
CONTINUOUS
10
174.656
20
-85.5847
11
174.535
21
-85.6636
0
LINE
8
BLACK
6
CONTINUOUS
10
174.535
20
-85.6636
11
174.428
21
-85.7571
0
LINE
8
BLACK
6
CONTINUOUS
10
174.428
20
-85.7571
11
174.334
21
-85.8666
0
LINE
8
BLACK
6
CONTINUOUS
10
174.334
20
-85.8666
11
174.255
21
-85.9922
0
LINE
8
BLACK
6
CONTINUOUS
10
174.255
20
-85.9922
11
174.193
21
-86.1335
0
LINE
8
BLACK
6
CONTINUOUS
10
174.193
20
-86.1335
11
174.153
21
-86.2927
0
LINE
8
BLACK
6
CONTINUOUS
10
174.153
20
-86.2927
11
174.138
21
-86.4607
0
LINE
8
BLACK
6
CONTINUOUS
10
345.685
20
-13.2559
11
345.685
21
-100.655
0
LINE
8
BLACK
6
CONTINUOUS
10
343.773
20
-104.066
11
343.498
21
-104.218
0
LINE
8
BLACK
6
CONTINUOUS
10
177.899
20
-85.4607
11
178.083
21
-85.4439
0
LINE
8
BLACK
6
CONTINUOUS
10
178.083
20
-85.4439
11
178.241
21
-85.4008
0
LINE
8
BLACK
6
CONTINUOUS
10
178.241
20
-85.4008
11
178.385
21
-85.3353
0
LINE
8
BLACK
6
CONTINUOUS
10
178.385
20
-85.3353
11
178.508
21
-85.2542
0
LINE
8
BLACK
6
CONTINUOUS
10
178.508
20
-85.2542
11
178.615
21
-85.159
0
LINE
8
BLACK
6
CONTINUOUS
10
178.615
20
-85.159
11
178.71
21
-85.0463
0
LINE
8
BLACK
6
CONTINUOUS
10
178.71
20
-85.0463
11
178.787
21
-84.922
0
LINE
8
BLACK
6
CONTINUOUS
10
178.787
20
-84.922
11
178.847
21
-84.7807
0
LINE
8
BLACK
6
CONTINUOUS
10
178.847
20
-84.7807
11
178.887
21
-84.62
0
LINE
8
BLACK
6
CONTINUOUS
10
178.887
20
-84.62
11
178.899
21
-84.4607
0
LINE
8
BLACK
6
CONTINUOUS
10
343.498
20
-9.68972
11
343.773
21
-9.84466
0
LINE
8
BLACK
6
CONTINUOUS
10
344.725
20
-103.253
11
344.512
21
-103.484
0
LINE
8
BLACK
6
CONTINUOUS
10
344.034
20
-103.891
11
343.773
21
-104.066
0
LINE
8
BLACK
6
CONTINUOUS
10
345.573
20
-12.3212
11
345.634
21
-12.6285
0
LINE
8
BLACK
6
CONTINUOUS
10
345.49
20
-12.0189
11
345.573
21
-12.3212
0
LINE
8
BLACK
6
CONTINUOUS
10
342.919
20
-9.45096
11
343.214
21
-9.56018
0
LINE
8
BLACK
6
CONTINUOUS
10
344.512
20
-10.4263
11
344.725
21
-10.6575
0
LINE
8
BLACK
6
CONTINUOUS
10
345.67
20
-12.9409
11
345.685
21
-13.2559
0
LINE
8
BLACK
6
CONTINUOUS
10
345.248
20
-11.4398
11
345.38
21
-11.7243
0
LINE
8
BLACK
6
CONTINUOUS
10
344.918
20
-10.9038
11
345.093
21
-11.1655
0
LINE
8
BLACK
6
CONTINUOUS
10
193.186
20
-9.25538
11
341.682
21
-9.25538
0
LINE
8
BLACK
6
CONTINUOUS
10
344.512
20
-103.484
11
344.281
21
-103.698
0
LINE
8
BLACK
6
CONTINUOUS
10
342.31
20
-9.30364
11
342.617
21
-9.3646
0
LINE
8
BLACK
6
CONTINUOUS
10
343.498
20
-104.218
11
343.214
21
-104.353
0
LINE
8
BLACK
6
CONTINUOUS
10
181.52
20
-82.9281
11
181.52
21
-69.08
0
LINE
8
BLACK
6
CONTINUOUS
10
335.863
20
-69.08
11
335.863
21
-82.9281
0
LINE
8
BLACK
6
CONTINUOUS
10
337.651
20
-51.4981
11
337.651
21
-50.5786
0
LINE
8
BLACK
6
CONTINUOUS
10
338.246
20
-30.98
11
338.246
21
-44.8281
0
LINE
8
BLACK
6
CONTINUOUS
10
337.651
20
-64.6299
11
337.651
21
-63.6495
0
LINE
8
BLACK
6
CONTINUOUS
10
337.651
20
-63.6495
11
339.376
21
-63.6495
0
LINE
8
BLACK
6
CONTINUOUS
10
339.376
20
-57.3782
11
340.199
21
-57.3782
0
LINE
8
BLACK
6
CONTINUOUS
10
339.376
20
-63.6495
11
339.376
21
-57.3782
0
LINE
8
BLACK
6
CONTINUOUS
10
340.199
20
-57.3782
11
340.199
21
-54.729
0
LINE
8
BLACK
6
CONTINUOUS
10
191.045
20
-63.8781
11
191.045
21
-50.03
0
LINE
8
BLACK
6
CONTINUOUS
10
339.376
20
-54.729
11
339.376
21
-51.4981
0
LINE
8
BLACK
6
CONTINUOUS
10
340.199
20
-54.729
11
339.376
21
-54.729
0
LINE
8
BLACK
6
CONTINUOUS
10
192.188
20
-28.3106
11
192.372
21
-28.2938
0
LINE
8
BLACK
6
CONTINUOUS
10
192.372
20
-28.2938
11
192.53
21
-28.2507
0
LINE
8
BLACK
6
CONTINUOUS
10
192.53
20
-28.2507
11
192.674
21
-28.1852
0
LINE
8
BLACK
6
CONTINUOUS
10
192.674
20
-28.1852
11
192.797
21
-28.1041
0
LINE
8
BLACK
6
CONTINUOUS
10
192.797
20
-28.1041
11
192.904
21
-28.0089
0
LINE
8
BLACK
6
CONTINUOUS
10
192.904
20
-28.0089
11
192.999
21
-27.8962
0
LINE
8
BLACK
6
CONTINUOUS
10
192.999
20
-27.8962
11
193.076
21
-27.7719
0
LINE
8
BLACK
6
CONTINUOUS
10
193.076
20
-27.7719
11
193.136
21
-27.6306
0
LINE
8
BLACK
6
CONTINUOUS
10
193.136
20
-27.6306
11
193.176
21
-27.4699
0
LINE
8
BLACK
6
CONTINUOUS
10
193.176
20
-27.4699
11
193.188
21
-27.3106
0
LINE
8
BLACK
6
CONTINUOUS
10
187.424
20
-66.4107
11
187.608
21
-66.3939
0
LINE
8
BLACK
6
CONTINUOUS
10
187.608
20
-66.3939
11
187.766
21
-66.3508
0
LINE
8
BLACK
6
CONTINUOUS
10
187.766
20
-66.3508
11
187.91
21
-66.2853
0
LINE
8
BLACK
6
CONTINUOUS
10
187.91
20
-66.2853
11
188.033
21
-66.2042
0
LINE
8
BLACK
6
CONTINUOUS
10
188.033
20
-66.2042
11
188.14
21
-66.109
0
LINE
8
BLACK
6
CONTINUOUS
10
188.14
20
-66.109
11
188.235
21
-65.9963
0
LINE
8
BLACK
6
CONTINUOUS
10
188.235
20
-65.9963
11
188.312
21
-65.872
0
LINE
8
BLACK
6
CONTINUOUS
10
188.312
20
-65.872
11
188.372
21
-65.7307
0
LINE
8
BLACK
6
CONTINUOUS
10
188.372
20
-65.7307
11
188.412
21
-65.57
0
LINE
8
BLACK
6
CONTINUOUS
10
188.412
20
-65.57
11
188.424
21
-65.4107
0
LINE
8
BLACK
6
CONTINUOUS
10
188.424
20
-48.3579
11
188.408
21
-48.174
0
LINE
8
BLACK
6
CONTINUOUS
10
188.408
20
-48.174
11
188.365
21
-48.0162
0
LINE
8
BLACK
6
CONTINUOUS
10
188.365
20
-48.0162
11
188.302
21
-47.8779
0
LINE
8
BLACK
6
CONTINUOUS
10
188.302
20
-47.8779
11
188.223
21
-47.7554
0
LINE
8
BLACK
6
CONTINUOUS
10
188.223
20
-47.7554
11
188.129
21
-47.6482
0
LINE
8
BLACK
6
CONTINUOUS
10
188.129
20
-47.6482
11
188.021
21
-47.5552
0
LINE
8
BLACK
6
CONTINUOUS
10
188.021
20
-47.5552
11
187.894
21
-47.4747
0
LINE
8
BLACK
6
CONTINUOUS
10
187.894
20
-47.4747
11
187.754
21
-47.4136
0
LINE
8
BLACK
6
CONTINUOUS
10
187.754
20
-47.4136
11
187.595
21
-47.3724
0
LINE
8
BLACK
6
CONTINUOUS
10
187.595
20
-47.3724
11
187.424
21
-47.3579
0
LINE
8
BLACK
6
CONTINUOUS
10
183.663
20
-46.3579
11
183.68
21
-46.5415
0
LINE
8
BLACK
6
CONTINUOUS
10
183.68
20
-46.5415
11
183.724
21
-46.7025
0
LINE
8
BLACK
6
CONTINUOUS
10
183.724
20
-46.7025
11
183.787
21
-46.8405
0
LINE
8
BLACK
6
CONTINUOUS
10
183.787
20
-46.8405
11
183.867
21
-46.9625
0
LINE
8
BLACK
6
CONTINUOUS
10
183.867
20
-46.9625
11
183.961
21
-47.0695
0
LINE
8
BLACK
6
CONTINUOUS
10
183.961
20
-47.0695
11
184.069
21
-47.1624
0
LINE
8
BLACK
6
CONTINUOUS
10
184.069
20
-47.1624
11
184.192
21
-47.24
0
LINE
8
BLACK
6
CONTINUOUS
10
184.192
20
-47.24
11
184.331
21
-47.3012
0
LINE
8
BLACK
6
CONTINUOUS
10
184.331
20
-47.3012
11
184.492
21
-47.3432
0
LINE
8
BLACK
6
CONTINUOUS
10
184.492
20
-47.3432
11
184.663
21
-47.3579
0
LINE
8
BLACK
6
CONTINUOUS
10
184.663
20
-28.3106
11
184.48
21
-28.3275
0
LINE
8
BLACK
6
CONTINUOUS
10
184.48
20
-28.3275
11
184.321
21
-28.3708
0
LINE
8
BLACK
6
CONTINUOUS
10
184.321
20
-28.3708
11
184.181
21
-28.4346
0
LINE
8
BLACK
6
CONTINUOUS
10
184.181
20
-28.4346
11
184.06
21
-28.5135
0
LINE
8
BLACK
6
CONTINUOUS
10
184.06
20
-28.5135
11
183.953
21
-28.607
0
LINE
8
BLACK
6
CONTINUOUS
10
183.953
20
-28.607
11
183.859
21
-28.7165
0
LINE
8
BLACK
6
CONTINUOUS
10
183.859
20
-28.7165
11
183.78
21
-28.8421
0
LINE
8
BLACK
6
CONTINUOUS
10
183.78
20
-28.8421
11
183.718
21
-28.9834
0
LINE
8
BLACK
6
CONTINUOUS
10
183.718
20
-28.9834
11
183.678
21
-29.1426
0
LINE
8
BLACK
6
CONTINUOUS
10
183.678
20
-29.1426
11
183.663
21
-29.3106
0
LINE
8
BLACK
6
CONTINUOUS
10
195.807
20
-25.7781
11
195.807
21
-11.93
0
LINE
8
BLACK
6
CONTINUOUS
10
195.807
20
-11.93
11
209.658
21
-11.93
0
LINE
8
BLACK
6
CONTINUOUS
10
336.884
20
-13.3981
11
335.157
21
-13.3981
0
LINE
8
BLACK
6
CONTINUOUS
10
341.756
20
-19.2782
11
342.584
21
-19.2782
0
LINE
8
BLACK
6
CONTINUOUS
10
333.483
20
-11.93
11
319.632
21
-11.93
0
LINE
8
BLACK
6
CONTINUOUS
10
340.031
20
-12.4786
11
336.884
21
-12.4786
0
LINE
8
BLACK
6
CONTINUOUS
10
340.031
20
-13.3981
11
340.031
21
-12.4786
0
LINE
8
BLACK
6
CONTINUOUS
10
341.756
20
-13.3981
11
340.031
21
-13.3981
0
LINE
8
BLACK
6
CONTINUOUS
10
272.007
20
-11.93
11
285.858
21
-11.93
0
LINE
8
BLACK
6
CONTINUOUS
10
336.884
20
-12.4786
11
336.884
21
-13.3981
0
LINE
8
BLACK
6
CONTINUOUS
10
252.957
20
-11.93
11
266.808
21
-11.93
0
LINE
8
BLACK
6
CONTINUOUS
10
340.031
20
-26.5299
11
340.031
21
-25.5495
0
LINE
8
BLACK
6
CONTINUOUS
10
342.584
20
-19.2782
11
342.584
21
-16.629
0
LINE
8
BLACK
6
CONTINUOUS
10
313.082
20
-13.3981
11
311.357
21
-13.3981
0
LINE
8
BLACK
6
CONTINUOUS
10
341.756
20
-16.629
11
341.756
21
-13.3981
0
LINE
8
BLACK
6
CONTINUOUS
10
233.907
20
-11.93
11
247.758
21
-11.93
0
LINE
8
BLACK
6
CONTINUOUS
10
214.857
20
-11.93
11
228.708
21
-11.93
0
LINE
8
BLACK
6
CONTINUOUS
10
341.756
20
-25.5495
11
341.756
21
-19.2782
0
LINE
8
BLACK
6
CONTINUOUS
10
340.031
20
-25.5495
11
341.756
21
-25.5495
0
LINE
8
BLACK
6
CONTINUOUS
10
291.057
20
-11.93
11
304.908
21
-11.93
0
LINE
8
BLACK
6
CONTINUOUS
10
342.584
20
-16.629
11
341.756
21
-16.629
0
LINE
8
BLACK
6
CONTINUOUS
10
339.376
20
-51.4981
11
337.651
21
-51.4981
0
LINE
8
BLACK
6
CONTINUOUS
10
313.082
20
-12.4786
11
313.082
21
-13.3981
0
LINE
8
BLACK
6
CONTINUOUS
10
186.282
20
-44.8281
11
186.282
21
-30.98
0
LINE
8
BLACK
6
CONTINUOUS
10
316.231
20
-13.3981
11
316.231
21
-12.4786
0
LINE
8
BLACK
6
CONTINUOUS
10
316.231
20
-12.4786
11
313.082
21
-12.4786
0
LINE
8
BLACK
6
CONTINUOUS
10
317.956
20
-13.3981
11
316.231
21
-13.3981
0
LINE
8
BLACK
6
CONTINUOUS
10
345.634
20
-101.282
11
345.573
21
-101.589
0
LINE
8
BLACK
6
CONTINUOUS
10
345.093
20
-11.1655
11
345.248
21
-11.4398
0
LINE
8
BLACK
6
CONTINUOUS
10
342.919
20
-104.46
11
342.617
21
-104.546
0
LINE
8
BLACK
6
CONTINUOUS
10
344.281
20
-10.213
11
344.512
21
-10.4263
0
LINE
8
BLACK
6
CONTINUOUS
10
342.617
20
-104.546
11
342.31
21
-104.607
0
LINE
8
BLACK
6
CONTINUOUS
10
342.617
20
-9.3646
11
342.919
21
-9.45096
0
LINE
8
BLACK
6
CONTINUOUS
10
344.034
20
-10.0174
11
344.281
21
-10.213
0
LINE
8
BLACK
6
CONTINUOUS
10
341.997
20
-9.26808
11
342.31
21
-9.30364
0
LINE
8
BLACK
6
CONTINUOUS
10
344.725
20
-10.6575
11
344.918
21
-10.9038
0
LINE
8
BLACK
6
CONTINUOUS
10
345.093
20
-102.745
11
344.918
21
-103.007
0
LINE
8
BLACK
6
CONTINUOUS
10
343.214
20
-104.353
11
342.919
21
-104.46
0
LINE
8
BLACK
6
CONTINUOUS
10
345.49
20
-101.892
11
345.38
21
-102.186
0
LINE
8
BLACK
6
CONTINUOUS
10
345.67
20
-100.97
11
345.634
21
-101.282
0
LINE
8
BLACK
6
CONTINUOUS
10
341.682
20
-104.655
11
174.136
21
-104.655
0
LINE
8
BLACK
6
CONTINUOUS
10
345.634
20
-12.6285
11
345.67
21
-12.9409
0
LINE
8
BLACK
6
CONTINUOUS
10
345.38
20
-102.186
11
345.248
21
-102.471
0
LINE
8
BLACK
6
CONTINUOUS
10
344.918
20
-103.007
11
344.725
21
-103.253
0
LINE
8
BLACK
6
CONTINUOUS
10
343.214
20
-9.56018
11
343.498
21
-9.68972
0
LINE
8
BLACK
6
CONTINUOUS
10
342.31
20
-104.607
11
341.997
21
-104.643
0
LINE
8
BLACK
6
CONTINUOUS
10
345.685
20
-100.655
11
345.67
21
-100.97
0
LINE
8
BLACK
6
CONTINUOUS
10
328.721
20
-101.978
11
314.87
21
-101.978
0
LINE
8
BLACK
6
CONTINUOUS
10
328.721
20
-88.13
11
328.721
21
-101.978
0
LINE
8
BLACK
6
CONTINUOUS
10
245.376
20
-101.978
11
231.525
21
-101.978
0
LINE
8
BLACK
6
CONTINUOUS
10
269.188
20
-101.978
11
255.34
21
-101.978
0
LINE
8
BLACK
6
CONTINUOUS
10
290.621
20
-101.978
11
276.77
21
-101.978
0
LINE
8
BLACK
6
CONTINUOUS
10
161.247
20
-84.9605
11
164.008
21
-84.9605
0
LINE
8
BLACK
6
CONTINUOUS
10
160.246
20
-104.008
11
160.246
21
-85.9587
0
LINE
8
BLACK
6
CONTINUOUS
10
165.009
20
-83.9597
11
165.009
21
-66.9087
0
LINE
8
BLACK
6
CONTINUOUS
10
166.007
20
-65.9105
11
173.533
21
-65.9105
0
LINE
8
BLACK
6
CONTINUOUS
10
170.772
20
-27.8105
11
178.298
21
-27.8105
0
LINE
8
BLACK
6
CONTINUOUS
10
179.296
20
-26.8097
11
179.296
21
-8.75538
0
LINE
8
BLACK
6
CONTINUOUS
10
169.771
20
-45.8572
11
169.771
21
-28.8087
0
LINE
8
BLACK
6
CONTINUOUS
10
102.898
20
-101.478
11
89.05
21
-101.478
0
LINE
8
BLACK
6
CONTINUOUS
10
173.533
20
-46.8554
11
170.772
21
-46.8554
0
LINE
8
BLACK
6
CONTINUOUS
10
79.0856
20
-101.478
11
65.235
21
-101.478
0
LINE
8
BLACK
6
CONTINUOUS
10
174.534
20
-64.9097
11
174.534
21
-47.8561
0
LINE
8
BLACK
6
CONTINUOUS
10
127.15
20
-101.478
11
140.998
21
-101.478
0
LINE
8
BLACK
6
CONTINUOUS
10
120.597
20
-102.23
11
123.749
21
-102.23
0
LINE
8
BLACK
6
CONTINUOUS
10
149.273
20
-94.9782
11
150.099
21
-94.9782
0
LINE
8
BLACK
6
CONTINUOUS
10
28.2449
20
-9.71296
11
28.4913
21
-9.51738
0
LINE
8
BLACK
6
CONTINUOUS
10
26.8556
20
-100.47
11
26.8429
21
-100.155
0
LINE
8
BLACK
6
CONTINUOUS
10
26.8429
20
-12.7559
11
26.8556
21
-12.4409
0
LINE
8
BLACK
6
CONTINUOUS
10
27.2772
20
-10.9398
11
27.4321
21
-10.6655
0
LINE
8
BLACK
6
CONTINUOUS
10
26.8556
20
-12.4409
11
26.8911
21
-12.1285
0
LINE
8
BLACK
6
CONTINUOUS
10
30.2185
20
-8.80364
11
30.5284
21
-8.76808
0
LINE
8
BLACK
6
CONTINUOUS
10
29.6064
20
-8.95096
11
29.9086
21
-8.8646
0
LINE
8
BLACK
6
CONTINUOUS
10
27.8004
20
-10.1575
11
28.0138
21
-9.92632
0
LINE
8
BLACK
6
CONTINUOUS
10
28.7529
20
-9.34466
11
29.0273
21
-9.18972
0
LINE
8
BLACK
6
CONTINUOUS
10
26.9521
20
-101.089
11
26.8911
21
-100.782
0
LINE
8
BLACK
6
CONTINUOUS
10
28.4913
20
-9.51738
11
28.7529
21
-9.34466
0
LINE
8
BLACK
6
CONTINUOUS
10
26.9521
20
-11.8212
11
27.0384
21
-11.5189
0
LINE
8
BLACK
6
CONTINUOUS
10
29.0273
20
-9.18972
11
29.3117
21
-9.06018
0
LINE
8
BLACK
6
CONTINUOUS
10
27.6049
20
-10.4038
11
27.8004
21
-10.1575
0
LINE
8
BLACK
6
CONTINUOUS
10
26.8911
20
-12.1285
11
26.9521
21
-11.8212
0
LINE
8
BLACK
6
CONTINUOUS
10
26.8911
20
-100.782
11
26.8556
21
-100.47
0
LINE
8
BLACK
6
CONTINUOUS
10
29.9086
20
-8.8646
11
30.2185
21
-8.80364
0
LINE
8
BLACK
6
CONTINUOUS
10
28.0138
20
-9.92632
11
28.2449
21
-9.71296
0
LINE
8
BLACK
6
CONTINUOUS
10
29.3117
20
-103.853
11
29.0273
21
-103.718
0
LINE
8
BLACK
6
CONTINUOUS
10
166.009
20
-65.9107
11
165.826
21
-65.9276
0
LINE
8
BLACK
6
CONTINUOUS
10
165.826
20
-65.9276
11
165.667
21
-65.9709
0
LINE
8
BLACK
6
CONTINUOUS
10
165.667
20
-65.9709
11
165.527
21
-66.0347
0
LINE
8
BLACK
6
CONTINUOUS
10
165.527
20
-66.0347
11
165.406
21
-66.1136
0
LINE
8
BLACK
6
CONTINUOUS
10
165.406
20
-66.1136
11
165.299
21
-66.2071
0
LINE
8
BLACK
6
CONTINUOUS
10
165.299
20
-66.2071
11
165.205
21
-66.3166
0
LINE
8
BLACK
6
CONTINUOUS
10
165.205
20
-66.3166
11
165.126
21
-66.4422
0
LINE
8
BLACK
6
CONTINUOUS
10
165.126
20
-66.4422
11
165.064
21
-66.5835
0
LINE
8
BLACK
6
CONTINUOUS
10
165.064
20
-66.5835
11
165.024
21
-66.7427
0
LINE
8
BLACK
6
CONTINUOUS
10
165.024
20
-66.7427
11
165.009
21
-66.9107
0
LINE
8
BLACK
6
CONTINUOUS
10
30.5284
20
-104.143
11
30.2185
21
-104.107
0
LINE
8
BLACK
6
CONTINUOUS
10
28.7529
20
-103.566
11
28.4913
21
-103.391
0
LINE
8
BLACK
6
CONTINUOUS
10
28.0138
20
-102.984
11
27.8004
21
-102.753
0
LINE
8
BLACK
6
CONTINUOUS
10
27.8004
20
-102.753
11
27.6049
21
-102.507
0
LINE
8
BLACK
6
CONTINUOUS
10
161.248
20
-84.9607
11
161.065
21
-84.9776
0
LINE
8
BLACK
6
CONTINUOUS
10
161.065
20
-84.9776
11
160.906
21
-85.0209
0
LINE
8
BLACK
6
CONTINUOUS
10
160.906
20
-85.0209
11
160.766
21
-85.0847
0
LINE
8
BLACK
6
CONTINUOUS
10
160.766
20
-85.0847
11
160.645
21
-85.1636
0
LINE
8
BLACK
6
CONTINUOUS
10
160.645
20
-85.1636
11
160.538
21
-85.2571
0
LINE
8
BLACK
6
CONTINUOUS
10
160.538
20
-85.2571
11
160.444
21
-85.3666
0
LINE
8
BLACK
6
CONTINUOUS
10
160.444
20
-85.3666
11
160.365
21
-85.4922
0
LINE
8
BLACK
6
CONTINUOUS
10
160.365
20
-85.4922
11
160.303
21
-85.6335
0
LINE
8
BLACK
6
CONTINUOUS
10
160.303
20
-85.6335
11
160.263
21
-85.7927
0
LINE
8
BLACK
6
CONTINUOUS
10
160.263
20
-85.7927
11
160.248
21
-85.9607
0
LINE
8
BLACK
6
CONTINUOUS
10
164.009
20
-84.9607
11
164.193
21
-84.9439
0
LINE
8
BLACK
6
CONTINUOUS
10
164.193
20
-84.9439
11
164.351
21
-84.9008
0
LINE
8
BLACK
6
CONTINUOUS
10
164.351
20
-84.9008
11
164.495
21
-84.8353
0
LINE
8
BLACK
6
CONTINUOUS
10
164.495
20
-84.8353
11
164.618
21
-84.7542
0
LINE
8
BLACK
6
CONTINUOUS
10
164.618
20
-84.7542
11
164.725
21
-84.659
0
LINE
8
BLACK
6
CONTINUOUS
10
164.725
20
-84.659
11
164.82
21
-84.5463
0
LINE
8
BLACK
6
CONTINUOUS
10
164.82
20
-84.5463
11
164.897
21
-84.422
0
LINE
8
BLACK
6
CONTINUOUS
10
164.897
20
-84.422
11
164.957
21
-84.2807
0
LINE
8
BLACK
6
CONTINUOUS
10
164.957
20
-84.2807
11
164.997
21
-84.12
0
LINE
8
BLACK
6
CONTINUOUS
10
164.997
20
-84.12
11
165.009
21
-83.9607
0
LINE
8
BLACK
6
CONTINUOUS
10
29.9086
20
-104.046
11
29.6064
21
-103.96
0
LINE
8
BLACK
6
CONTINUOUS
10
29.0273
20
-103.718
11
28.7529
21
-103.566
0
LINE
8
BLACK
6
CONTINUOUS
10
27.1477
20
-11.2243
11
27.2772
21
-10.9398
0
LINE
8
BLACK
6
CONTINUOUS
10
29.3117
20
-9.06018
11
29.6064
21
-8.95096
0
LINE
8
BLACK
6
CONTINUOUS
10
30.5284
20
-8.76808
11
30.8434
21
-8.75538
0
LINE
8
BLACK
6
CONTINUOUS
10
28.4913
20
-103.391
11
28.2449
21
-103.198
0
LINE
8
BLACK
6
CONTINUOUS
10
28.2449
20
-103.198
11
28.0138
21
-102.984
0
LINE
8
BLACK
6
CONTINUOUS
10
27.0384
20
-11.5189
11
27.1477
21
-11.2243
0
LINE
8
BLACK
6
CONTINUOUS
10
27.1477
20
-101.686
11
27.0384
21
-101.392
0
LINE
8
BLACK
6
CONTINUOUS
10
27.4321
20
-10.6655
11
27.6049
21
-10.4038
0
LINE
8
BLACK
6
CONTINUOUS
10
26.8429
20
-100.155
11
26.8429
21
-12.7559
0
LINE
8
BLACK
6
CONTINUOUS
10
27.2772
20
-101.971
11
27.1477
21
-101.686
0
LINE
8
BLACK
6
CONTINUOUS
10
30.8434
20
-8.75538
11
179.296
21
-8.75538
0
LINE
8
BLACK
6
CONTINUOUS
10
27.4321
20
-102.245
11
27.2772
21
-101.971
0
LINE
8
BLACK
6
CONTINUOUS
10
27.0384
20
-101.392
11
26.9521
21
-101.089
0
LINE
8
BLACK
6
CONTINUOUS
10
27.6049
20
-102.507
11
27.4321
21
-102.245
0
LINE
8
BLACK
6
CONTINUOUS
10
162.431
20
-68.58
11
162.431
21
-82.4281
0
LINE
8
BLACK
6
CONTINUOUS
10
43.3681
20
-82.4281
11
29.5175
21
-82.4281
0
LINE
8
BLACK
6
CONTINUOUS
10
29.5175
20
-82.4281
11
29.5175
21
-68.58
0
LINE
8
BLACK
6
CONTINUOUS
10
171.956
20
-49.53
11
171.956
21
-63.3781
0
LINE
8
BLACK
6
CONTINUOUS
10
178.298
20
-27.8106
11
178.482
21
-27.7938
0
LINE
8
BLACK
6
CONTINUOUS
10
178.482
20
-27.7938
11
178.64
21
-27.7507
0
LINE
8
BLACK
6
CONTINUOUS
10
178.64
20
-27.7507
11
178.784
21
-27.6852
0
LINE
8
BLACK
6
CONTINUOUS
10
178.784
20
-27.6852
11
178.907
21
-27.6041
0
LINE
8
BLACK
6
CONTINUOUS
10
178.907
20
-27.6041
11
179.014
21
-27.5089
0
LINE
8
BLACK
6
CONTINUOUS
10
179.014
20
-27.5089
11
179.109
21
-27.3962
0
LINE
8
BLACK
6
CONTINUOUS
10
179.109
20
-27.3962
11
179.186
21
-27.2719
0
LINE
8
BLACK
6
CONTINUOUS
10
179.186
20
-27.2719
11
179.246
21
-27.1306
0
LINE
8
BLACK
6
CONTINUOUS
10
179.246
20
-27.1306
11
179.286
21
-26.9699
0
LINE
8
BLACK
6
CONTINUOUS
10
179.286
20
-26.9699
11
179.298
21
-26.8106
0
LINE
8
BLACK
6
CONTINUOUS
10
173.534
20
-65.9107
11
173.718
21
-65.8939
0
LINE
8
BLACK
6
CONTINUOUS
10
173.718
20
-65.8939
11
173.876
21
-65.8508
0
LINE
8
BLACK
6
CONTINUOUS
10
173.876
20
-65.8508
11
174.02
21
-65.7853
0
LINE
8
BLACK
6
CONTINUOUS
10
174.02
20
-65.7853
11
174.143
21
-65.7042
0
LINE
8
BLACK
6
CONTINUOUS
10
174.143
20
-65.7042
11
174.25
21
-65.609
0
LINE
8
BLACK
6
CONTINUOUS
10
174.25
20
-65.609
11
174.345
21
-65.4963
0
LINE
8
BLACK
6
CONTINUOUS
10
174.345
20
-65.4963
11
174.422
21
-65.372
0
LINE
8
BLACK
6
CONTINUOUS
10
174.422
20
-65.372
11
174.482
21
-65.2307
0
LINE
8
BLACK
6
CONTINUOUS
10
174.482
20
-65.2307
11
174.522
21
-65.07
0
LINE
8
BLACK
6
CONTINUOUS
10
174.522
20
-65.07
11
174.534
21
-64.9107
0
LINE
8
BLACK
6
CONTINUOUS
10
174.534
20
-47.8579
11
174.518
21
-47.674
0
LINE
8
BLACK
6
CONTINUOUS
10
174.518
20
-47.674
11
174.475
21
-47.5162
0
LINE
8
BLACK
6
CONTINUOUS
10
174.475
20
-47.5162
11
174.412
21
-47.3779
0
LINE
8
BLACK
6
CONTINUOUS
10
174.412
20
-47.3779
11
174.333
21
-47.2554
0
LINE
8
BLACK
6
CONTINUOUS
10
174.333
20
-47.2554
11
174.239
21
-47.1482
0
LINE
8
BLACK
6
CONTINUOUS
10
174.239
20
-47.1482
11
174.131
21
-47.0552
0
LINE
8
BLACK
6
CONTINUOUS
10
174.131
20
-47.0552
11
174.004
21
-46.9747
0
LINE
8
BLACK
6
CONTINUOUS
10
174.004
20
-46.9747
11
173.864
21
-46.9136
0
LINE
8
BLACK
6
CONTINUOUS
10
173.864
20
-46.9136
11
173.705
21
-46.8724
0
LINE
8
BLACK
6
CONTINUOUS
10
173.705
20
-46.8724
11
173.534
21
-46.8579
0
LINE
8
BLACK
6
CONTINUOUS
10
169.773
20
-45.8579
11
169.79
21
-46.0415
0
LINE
8
BLACK
6
CONTINUOUS
10
169.79
20
-46.0415
11
169.834
21
-46.2025
0
LINE
8
BLACK
6
CONTINUOUS
10
169.834
20
-46.2025
11
169.897
21
-46.3405
0
LINE
8
BLACK
6
CONTINUOUS
10
169.897
20
-46.3405
11
169.977
21
-46.4625
0
LINE
8
BLACK
6
CONTINUOUS
10
169.977
20
-46.4625
11
170.071
21
-46.5695
0
LINE
8
BLACK
6
CONTINUOUS
10
170.071
20
-46.5695
11
170.179
21
-46.6624
0
LINE
8
BLACK
6
CONTINUOUS
10
170.179
20
-46.6624
11
170.302
21
-46.74
0
LINE
8
BLACK
6
CONTINUOUS
10
170.302
20
-46.74
11
170.441
21
-46.8012
0
LINE
8
BLACK
6
CONTINUOUS
10
170.441
20
-46.8012
11
170.602
21
-46.8432
0
LINE
8
BLACK
6
CONTINUOUS
10
170.602
20
-46.8432
11
170.773
21
-46.8579
0
LINE
8
BLACK
6
CONTINUOUS
10
170.773
20
-27.8106
11
170.59
21
-27.8275
0
LINE
8
BLACK
6
CONTINUOUS
10
170.59
20
-27.8275
11
170.431
21
-27.8708
0
LINE
8
BLACK
6
CONTINUOUS
10
170.431
20
-27.8708
11
170.291
21
-27.9346
0
LINE
8
BLACK
6
CONTINUOUS
10
170.291
20
-27.9346
11
170.17
21
-28.0135
0
LINE
8
BLACK
6
CONTINUOUS
10
170.17
20
-28.0135
11
170.063
21
-28.107
0
LINE
8
BLACK
6
CONTINUOUS
10
170.063
20
-28.107
11
169.969
21
-28.2165
0
LINE
8
BLACK
6
CONTINUOUS
10
169.969
20
-28.2165
11
169.89
21
-28.3421
0
LINE
8
BLACK
6
CONTINUOUS
10
169.89
20
-28.3421
11
169.828
21
-28.4834
0
LINE
8
BLACK
6
CONTINUOUS
10
169.828
20
-28.4834
11
169.788
21
-28.6426
0
LINE
8
BLACK
6
CONTINUOUS
10
169.788
20
-28.6426
11
169.773
21
-28.8106
0
LINE
8
BLACK
6
CONTINUOUS
10
176.718
20
-11.43
11
176.718
21
-25.2781
0
LINE
8
BLACK
6
CONTINUOUS
10
48.5675
20
-11.43
11
62.4181
21
-11.43
0
LINE
8
BLACK
6
CONTINUOUS
10
67.6175
20
-11.43
11
81.4681
21
-11.43
0
LINE
8
BLACK
6
CONTINUOUS
10
162.867
20
-11.43
11
176.718
21
-11.43
0
LINE
8
BLACK
6
CONTINUOUS
10
143.817
20
-11.43
11
157.668
21
-11.43
0
LINE
8
BLACK
6
CONTINUOUS
10
29.5175
20
-11.43
11
43.3681
21
-11.43
0
LINE
8
BLACK
6
CONTINUOUS
10
105.717
20
-11.43
11
119.568
21
-11.43
0
LINE
8
BLACK
6
CONTINUOUS
10
29.5175
20
-25.2781
11
29.5175
21
-11.43
0
LINE
8
BLACK
6
CONTINUOUS
10
86.6675
20
-11.43
11
100.518
21
-11.43
0
LINE
8
BLACK
6
CONTINUOUS
10
124.767
20
-11.43
11
138.618
21
-11.43
0
LINE
8
BLACK
6
CONTINUOUS
10
29.5175
20
-63.3781
11
29.5175
21
-49.53
0
LINE
8
BLACK
6
CONTINUOUS
10
29.5175
20
-44.3281
11
29.5175
21
-30.48
0
LINE
8
BLACK
6
CONTINUOUS
10
167.193
20
-30.48
11
167.193
21
-44.3281
0
LINE
8
BLACK
6
CONTINUOUS
10
29.6064
20
-103.96
11
29.3117
21
-103.853
0
LINE
8
BLACK
6
CONTINUOUS
10
30.2185
20
-104.107
11
29.9086
21
-104.046
0
LINE
8
BLACK
6
CONTINUOUS
10
160.246
20
-104.155
11
30.8434
21
-104.155
0
LINE
8
BLACK
6
CONTINUOUS
10
30.8434
20
-104.155
11
30.5284
21
-104.143
0
LINE
8
BLACK
6
CONTINUOUS
10
147.549
20
-101.249
11
149.273
21
-101.249
0
LINE
8
BLACK
6
CONTINUOUS
10
147.549
20
-102.23
11
147.549
21
-101.249
0
LINE
8
BLACK
6
CONTINUOUS
10
142.674
20
-101.249
11
144.399
21
-101.249
0
LINE
8
BLACK
6
CONTINUOUS
10
123.749
20
-101.249
11
125.474
21
-101.249
0
LINE
8
BLACK
6
CONTINUOUS
10
120.597
20
-101.249
11
120.597
21
-102.23
0
LINE
8
BLACK
6
CONTINUOUS
10
144.399
20
-101.249
11
144.399
21
-102.23
0
LINE
8
BLACK
6
CONTINUOUS
10
118.875
20
-101.249
11
120.597
21
-101.249
0
LINE
8
BLACK
6
CONTINUOUS
10
149.273
20
-101.249
11
149.273
21
-94.9782
0
LINE
8
BLACK
6
CONTINUOUS
10
144.399
20
-102.23
11
147.549
21
-102.23
0
LINE
8
BLACK
6
CONTINUOUS
10
123.749
20
-102.23
11
123.749
21
-101.249
0
LINE
8
BLACK
6
CONTINUOUS
10
150.099
20
-92.329
11
149.273
21
-92.329
0
LINE
8
BLACK
6
CONTINUOUS
10
150.099
20
-94.9782
11
150.099
21
-92.329
0
LINE
8
BLACK
6
CONTINUOUS
10
43.805
20
-101.478
11
43.805
21
-87.63
0
LINE
8
BLACK
6
CONTINUOUS
10
57.6556
20
-101.478
11
43.805
21
-101.478
  0
ENDSEC
  0
EOF
