<?xml version="1.0" standalone="no"?>
 <!DOCTYPE svg PUBLIC "-//W3C//DTD SVG 1.1//EN" 
 "http://www.w3.org/Graphics/SVG/1.1/DTD/svg11.dtd"> 
<svg xmlns="http://www.w3.org/2000/svg" version="1.1" 
    width="30.513cm" height="9.55802cm" viewBox="0 0 120130 37630 ">
<title>SVG Picture created as Plate-Edge_Cuts.svg date 2020/01/07 22:58:34 </title>
  <desc>Picture generated by PCBNEW </desc>
<g style="fill:#000000; fill-opacity:1;stroke:#000000; stroke-opacity:1;
stroke-linecap:round; stroke-linejoin:round; "
 transform="translate(0 0) scale(1 1)">
</g>
<g style="fill:#000000; fill-opacity:0.0; 
stroke:#000000; stroke-width:-0.000393701; stroke-opacity:1; 
stroke-linecap:round; stroke-linejoin:round;">
</g>
<g style="fill:#C2C200; fill-opacity:0.0; 
stroke:#C2C200; stroke-width:-0.000393701; stroke-opacity:1; 
stroke-linecap:round; stroke-linejoin:round;">
</g>
<g style="fill:#C2C200; fill-opacity:0.0; 
stroke:#C2C200; stroke-width:78.7402; stroke-opacity:1; 
stroke-linecap:round; stroke-linejoin:round;">
<circle cx="8394.23" cy="8453.23" r="767.717" /> 
<circle cx="52646.2" cy="7263.78" r="629.921" /> 
<path d="M59667.2 7541.06 A393.701 393.701 0.0 0 0 60060.9 7147.36 " />
<path d="M56704.6 7541.06 A393.701 393.701 0.0 0 0 56310.9 7934.76 " />
<path d="M56310.9 14646.3 A393.701 393.701 0.0 0 0 56704.6 15040 " />
<path d="M58185.3 15433.7 A393.701 393.701 0.0 0 0 57791.6 15040 " />
<path d="M57791.6 22541.1 A393.701 393.701 0.0 0 0 58185.3 22147.4 " />
<path d="M54829 22541.1 A393.701 393.701 0.0 0 0 54435.3 22934.8 " />
<path d="M54041.6 30041.1 A393.701 393.701 0.0 0 0 54435.3 29647.4 " />
<path d="M52954.6 30041.1 A393.701 393.701 0.0 0 0 52560.9 30434.8 " />
<path d="M119346 37366
L119238 37426
" />
<path d="M119449 37297
L119346 37366
" />
<path d="M119238 210
L119346 271
" />
<path d="M416 37046
L339 36949
" />
<path d="M899 37426
L791 37366
" />
<path d="M500 37137
L416 37046
" />
<path d="M791 37366
L688 37297
" />
<path d="M1490 37593
L1368 37579
" />
<path d="M120099 1614
L120099 36023
" />
<path d="M1011 37479
L899 37426
" />
<path d="M119546 37221
L119449 37297
" />
<path d="M119979 1011
L120022 1127
" />
<path d="M119721 37046
L119637 37137
" />
<path d="M120055 1246
L120079 1367
" />
<path d="M1246 37555
L1127 37521
" />
<path d="M119346 271
L119449 339
" />
<path d="M120055 36391
L120022 36510
" />
<path d="M118647 37593
L118523 37598
" />
<path d="M119927 36738
L119866 36846
" />
<path d="M118523 39
L118647 44
" />
<path d="M119449 339
L119546 416
" />
<path d="M118647 44
L118770 58
" />
<path d="M1368 37579
L1246 37555
" />
<path d="M118770 37579
L118647 37593
" />
<path d="M118891 82
L119010 116
" />
<path d="M118523 37598
L1614 37598
" />
<path d="M119126 37479
L119010 37521
" />
<path d="M119866 791
L119927 899
" />
<path d="M120079 36270
L120055 36391
" />
<path d="M1614 37598
L1490 37593
" />
<path d="M120093 36147
L120079 36270
" />
<path d="M119866 36846
L119797 36949
" />
<path d="M120079 1367
L120093 1490
" />
<path d="M1127 37521
L1011 37479
" />
<path d="M119126 159
L119238 210
" />
<path d="M119797 36949
L119721 37046
" />
<path d="M118891 37555
L118770 37579
" />
<path d="M119010 37521
L118891 37555
" />
<path d="M120022 36510
L119979 36626
" />
<path d="M119721 591
L119797 688
" />
<path d="M119546 416
L119637 500
" />
<path d="M119979 36626
L119927 36738
" />
<path d="M120099 36023
L120093 36147
" />
<path d="M119927 899
L119979 1011
" />
<path d="M119797 688
L119866 791
" />
<path d="M119637 500
L119721 591
" />
<path d="M591 37221
L500 37137
" />
<path d="M119238 37426
L119126 37479
" />
<path d="M120022 1127
L120055 1246
" />
<path d="M118770 58
L118891 82
" />
<path d="M120093 1490
L120099 1614
" />
<path d="M271 36846
L210 36738
" />
<path d="M119637 37137
L119546 37221
" />
<path d="M119010 116
L119126 159
" />
<path d="M339 36949
L271 36846
" />
<path d="M688 37297
L591 37221
" />
<path d="M1490 44
L1614 39
" />
<path d="M1011 159
L1127 116
" />
<path d="M159 36626
L116 36510
" />
<path d="M159 1011
L210 899
" />
<path d="M116 1127
L159 1011
" />
<path d="M210 36738
L159 36626
" />
<path d="M116 36510
L82 36391
" />
<path d="M1614 39
L118523 39
" />
<path d="M39 36023
L39 1614
" />
<path d="M271 791
L339 688
" />
<path d="M791 271
L899 210
" />
<path d="M688 339
L791 271
" />
<path d="M58 1367
L82 1246
" />
<path d="M591 416
L688 339
" />
<path d="M899 210
L1011 159
" />
<path d="M1246 82
L1368 58
" />
<path d="M82 36391
L58 36270
" />
<path d="M339 688
L416 591
" />
<path d="M210 899
L271 791
" />
<path d="M39 1614
L44 1490
" />
<path d="M1368 58
L1490 44
" />
<path d="M1127 116
L1246 82
" />
<path d="M416 591
L500 500
" />
<path d="M500 500
L591 416
" />
<path d="M44 36147
L39 36023
" />
<path d="M82 1246
L116 1127
" />
<path d="M58 36270
L44 36147
" />
<path d="M44 1490
L58 1367
" />
<circle cx="80708.8" cy="15315" r="629.921" /> 
<circle cx="35728.5" cy="15315" r="629.921" /> 
<circle cx="54429.3" cy="35630.3" r="767.717" /> 
<circle cx="50452.9" cy="35630.3" r="767.717" /> 
<circle cx="67598.6" cy="7263.78" r="629.921" /> 
<circle cx="109764" cy="8838.58" r="767.717" /> 
<circle cx="118130" cy="35630.3" r="767.717" /> 
<circle cx="2008.05" cy="35630.3" r="767.717" /> 
<path d="M60060 7147
L60060 39
" />
<path d="M56310 14646
L56310 7934
" />
<path d="M58185 22147
L58185 15433
" />
<path d="M57791 15039
L56704 15039
" />
<path d="M54828 22541
L57791 22541
" />
<path d="M54435 29647
L54435 22934
" />
<path d="M52560 37540
L52560 30434
" />
<path d="M56704 7541
L59667 7541
" />
<path d="M52954 30041
L54041 30041
" />
<path d="M20607 31092
L20607 36544
" />
<path d="M24530 36544
L24530 31092
" />
<path d="M84530 36544
L84530 31092
" />
<path d="M10700 28954
L10700 29340
" />
<path d="M12620 24170
L11941 24170
" />
<path d="M13280 25442
L12620 25442
" />
<path d="M20607 36544
L15154 36544
" />
<path d="M29982 36544
L24530 36544
" />
<path d="M10022 25442
L9697 25442
" />
<path d="M75154 36544
L75154 31092
" />
<path d="M11941 24170
L11941 23808
" />
<path d="M12170 36544
L6717 36544
" />
<path d="M6717 36544
L6717 31092
" />
<path d="M89982 36544
L84530 36544
" />
<path d="M21311 29340
L21311 28954
" />
<path d="M20071 29340
L21311 29340
" />
<path d="M11941 23808
L10700 23808
" />
<path d="M10700 23808
L10700 24170
" />
<path d="M20071 28954
L20071 29340
" />
<path d="M24530 31092
L29982 31092
" />
<path d="M12620 27194
L13280 27194
" />
<path d="M19392 28954
L20071 28954
" />
<path d="M80607 36544
L75154 36544
" />
<path d="M19392 27194
L19392 28954
" />
<path d="M12620 28954
L12620 27194
" />
<path d="M11941 28954
L12620 28954
" />
<path d="M10700 29340
L11941 29340
" />
<path d="M15154 31092
L20607 31092
" />
<path d="M75154 31092
L80607 31092
" />
<path d="M10022 28954
L10700 28954
" />
<path d="M89982 31092
L89982 36544
" />
<path d="M10700 24170
L10022 24170
" />
<path d="M10022 26485
L10022 28954
" />
<path d="M18732 27194
L19392 27194
" />
<path d="M13280 29044
L18732 29044
" />
<path d="M9697 26485
L10022 26485
" />
<path d="M18732 29044
L18732 27194
" />
<path d="M13280 27194
L13280 29044
" />
<path d="M11941 29340
L11941 28954
" />
<path d="M9697 25442
L9697 26485
" />
<path d="M12170 31092
L12170 36544
" />
<path d="M98420 36544
L92967 36544
" />
<path d="M80607 31092
L80607 36544
" />
<path d="M10022 24170
L10022 25442
" />
<path d="M12620 25442
L12620 24170
" />
<path d="M29982 31092
L29982 36544
" />
<path d="M13280 23592
L13280 25442
" />
<path d="M92967 36544
L92967 31092
" />
<path d="M6717 31092
L12170 31092
" />
<path d="M84530 31092
L89982 31092
" />
<path d="M15154 36544
L15154 31092
" />
<path d="M38870 32942
L38870 31670
" />
<path d="M107967 36544
L107967 31092
" />
<path d="M100467 31092
L105920 31092
" />
<path d="M35947 33985
L36272 33985
" />
<path d="M48565 33985
L48565 32942
" />
<path d="M68865 31670
L68186 31670
" />
<path d="M39530 34694
L39530 36544
" />
<path d="M36272 32942
L35947 32942
" />
<path d="M113420 36544
L107967 36544
" />
<path d="M113420 31092
L113420 36544
" />
<path d="M107967 31092
L113420 31092
" />
<path d="M48240 31670
L47561 31670
" />
<path d="M38870 36454
L38870 34694
" />
<path d="M38191 31308
L36950 31308
" />
<path d="M66945 31308
L66945 31670
" />
<path d="M44982 32942
L44982 31092
" />
<path d="M44982 36544
L44982 34694
" />
<path d="M38870 31670
L38191 31670
" />
<path d="M46321 36454
L46321 36840
" />
<path d="M48240 32942
L48240 31670
" />
<path d="M68186 31308
L66945 31308
" />
<path d="M48240 36454
L48240 33985
" />
<path d="M45642 36454
L46321 36454
" />
<path d="M36950 31308
L36950 31670
" />
<path d="M44982 34694
L45642 34694
" />
<path d="M47561 36840
L47561 36454
" />
<path d="M46321 36840
L47561 36840
" />
<path d="M44982 31092
L39530 31092
" />
<path d="M45642 32942
L44982 32942
" />
<path d="M46321 31308
L46321 31670
" />
<path d="M38191 31670
L38191 31308
" />
<path d="M47561 31308
L46321 31308
" />
<path d="M36272 36454
L36950 36454
" />
<path d="M47561 31670
L47561 31308
" />
<path d="M47561 36454
L48240 36454
" />
<path d="M35947 32942
L35947 33985
" />
<path d="M66266 32942
L65607 32942
" />
<path d="M38191 36840
L38191 36454
" />
<path d="M45642 34694
L45642 36454
" />
<path d="M36272 31670
L36272 32942
" />
<path d="M38870 34694
L39530 34694
" />
<path d="M36950 36454
L36950 36840
" />
<path d="M66945 31670
L66266 31670
" />
<path d="M66266 31670
L66266 32942
" />
<path d="M38191 36454
L38870 36454
" />
<path d="M36950 31670
L36272 31670
" />
<path d="M65607 31092
L60154 31092
" />
<path d="M45642 31670
L45642 32942
" />
<path d="M46321 31670
L45642 31670
" />
<path d="M48565 32942
L48240 32942
" />
<path d="M65607 32942
L65607 31092
" />
<path d="M68186 31670
L68186 31308
" />
<path d="M98420 31092
L98420 36544
" />
<path d="M39530 36544
L44982 36544
" />
<path d="M48240 33985
L48565 33985
" />
<path d="M68865 32942
L68865 31670
" />
<path d="M92967 31092
L98420 31092
" />
<path d="M100467 36544
L100467 31092
" />
<path d="M36950 36840
L38191 36840
" />
<path d="M39530 31092
L39530 32942
" />
<path d="M105920 36544
L100467 36544
" />
<path d="M105920 31092
L105920 36544
" />
<path d="M39530 32942
L38870 32942
" />
<path d="M36272 33985
L36272 36454
" />
<path d="M65607 34694
L66266 34694
" />
<path d="M56896 33985
L56896 36454
" />
<path d="M69189 32942
L68865 32942
" />
<path d="M68186 36454
L68865 36454
" />
<path d="M60154 36544
L65607 36544
" />
<path d="M56896 31670
L56896 32942
" />
<path d="M66266 36454
L66945 36454
" />
<path d="M57575 31308
L57575 31670
" />
<path d="M69189 33985
L69189 32942
" />
<path d="M68186 36840
L68186 36454
" />
<path d="M66945 36454
L66945 36840
" />
<path d="M56896 32942
L56572 32942
" />
<path d="M68865 33985
L69189 33985
" />
<path d="M68865 36454
L68865 33985
" />
<path d="M57575 31670
L56896 31670
" />
<path d="M58816 36840
L58816 36454
" />
<path d="M60154 32942
L59495 32942
" />
<path d="M66945 36840
L68186 36840
" />
<path d="M65607 36544
L65607 34694
" />
<path d="M56896 36454
L57575 36454
" />
<path d="M59495 34694
L60154 34694
" />
<path d="M60154 34694
L60154 36544
" />
<path d="M56572 33985
L56896 33985
" />
<path d="M58816 36454
L59495 36454
" />
<path d="M56572 32942
L56572 33985
" />
<path d="M59495 32942
L59495 31670
" />
<path d="M66266 34694
L66266 36454
" />
<path d="M59495 36454
L59495 34694
" />
<path d="M57575 36840
L58816 36840
" />
<path d="M57575 36454
L57575 36840
" />
<path d="M58816 31308
L57575 31308
" />
<path d="M58816 31670
L58816 31308
" />
<path d="M59495 31670
L58816 31670
" />
<path d="M60154 31092
L60154 32942
" />
<path d="M8592 6544
L8592 1092
" />
<path d="M23592 1092
L29045 1092
" />
<path d="M51545 1092
L51545 6544
" />
<path d="M36545 6544
L31092 6544
" />
<path d="M51545 6544
L46092 6544
" />
<path d="M44045 1092
L44045 6544
" />
<path d="M46092 1092
L51545 1092
" />
<path d="M31092 1092
L36545 1092
" />
<path d="M8592 1092
L14045 1092
" />
<path d="M6545 1092
L6545 6544
" />
<path d="M14045 6544
L8592 6544
" />
<path d="M38592 6544
L38592 1092
" />
<path d="M44045 6544
L38592 6544
" />
<path d="M29045 6544
L23592 6544
" />
<path d="M1092 6544
L1092 1092
" />
<path d="M23592 6544
L23592 1092
" />
<path d="M36545 1092
L36545 6544
" />
<path d="M16092 6544
L16092 1092
" />
<path d="M16092 1092
L21545 1092
" />
<path d="M29045 1092
L29045 6544
" />
<path d="M14045 1092
L14045 6544
" />
<path d="M53592 6544
L53592 1092
" />
<path d="M21545 1092
L21545 6544
" />
<path d="M38592 1092
L44045 1092
" />
<path d="M21545 6544
L16092 6544
" />
<path d="M6545 6544
L1092 6544
" />
<path d="M46092 6544
L46092 1092
" />
<path d="M1092 1092
L6545 1092
" />
<path d="M31092 6544
L31092 1092
" />
<path d="M108503 6454
L109182 6454
" />
<path d="M107263 6840
L108503 6840
" />
<path d="M107263 1670
L106584 1670
" />
<path d="M89045 1092
L89045 6544
" />
<path d="M118878 3985
L118878 2942
" />
<path d="M109842 4694
L109842 6544
" />
<path d="M115954 4694
L115954 6454
" />
<path d="M98592 6544
L98592 1092
" />
<path d="M109182 6454
L109182 4694
" />
<path d="M107263 6454
L107263 6840
" />
<path d="M59045 6544
L53592 6544
" />
<path d="M106259 3985
L106584 3985
" />
<path d="M66545 6544
L61092 6544
" />
<path d="M118552 2942
L118552 1670
" />
<path d="M115954 6454
L116634 6454
" />
<path d="M53592 1092
L59045 1092
" />
<path d="M83592 1092
L89045 1092
" />
<path d="M116634 6840
L117873 6840
" />
<path d="M104045 6544
L98592 6544
" />
<path d="M115295 6544
L115295 4694
" />
<path d="M115295 4694
L115954 4694
" />
<path d="M116634 1308
L116634 1670
" />
<path d="M117873 6840
L117873 6454
" />
<path d="M106584 3985
L106584 6454
" />
<path d="M98592 1092
L104045 1092
" />
<path d="M74045 1092
L74045 6544
" />
<path d="M115954 1670
L115954 2942
" />
<path d="M118878 2942
L118552 2942
" />
<path d="M106259 2942
L106259 3985
" />
<path d="M117873 6454
L118552 6454
" />
<path d="M118552 6454
L118552 3985
" />
<path d="M68592 1092
L74045 1092
" />
<path d="M81545 6544
L76092 6544
" />
<path d="M76092 1092
L81545 1092
" />
<path d="M108503 6840
L108503 6454
" />
<path d="M106584 1670
L106584 2942
" />
<path d="M83592 6544
L83592 1092
" />
<path d="M61092 1092
L66545 1092
" />
<path d="M89045 6544
L83592 6544
" />
<path d="M96545 1092
L96545 6544
" />
<path d="M91092 6544
L91092 1092
" />
<path d="M115295 1092
L109842 1092
" />
<path d="M66545 1092
L66545 6544
" />
<path d="M59045 1092
L59045 6544
" />
<path d="M61092 6544
L61092 1092
" />
<path d="M76092 6544
L76092 1092
" />
<path d="M115954 2942
L115295 2942
" />
<path d="M118552 3985
L118878 3985
" />
<path d="M68592 6544
L68592 1092
" />
<path d="M91092 1092
L96545 1092
" />
<path d="M116634 1670
L115954 1670
" />
<path d="M117873 1308
L116634 1308
" />
<path d="M106584 2942
L106259 2942
" />
<path d="M74045 6544
L68592 6544
" />
<path d="M81545 1092
L81545 6544
" />
<path d="M117873 1670
L117873 1308
" />
<path d="M115295 2942
L115295 1092
" />
<path d="M106584 6454
L107263 6454
" />
<path d="M109842 6544
L115295 6544
" />
<path d="M118552 1670
L117873 1670
" />
<path d="M96545 6544
L91092 6544
" />
<path d="M104045 1092
L104045 6544
" />
<path d="M116634 6454
L116634 6840
" />
<path d="M109182 4694
L109842 4694
" />
<path d="M100295 14044
L94842 14044
" />
<path d="M10467 14044
L10467 8592
" />
<path d="M107795 8592
L107795 14044
" />
<path d="M79842 14044
L79842 8592
" />
<path d="M1092 8592
L6545 8592
" />
<path d="M34842 8592
L40295 8592
" />
<path d="M57342 8592
L62795 8592
" />
<path d="M85295 8592
L85295 14044
" />
<path d="M109182 2942
L109182 1670
" />
<path d="M6545 14044
L1092 14044
" />
<path d="M109842 2942
L109182 2942
" />
<path d="M1092 14044
L1092 8592
" />
<path d="M34842 14044
L34842 8592
" />
<path d="M92795 8592
L92795 14044
" />
<path d="M70295 14044
L64842 14044
" />
<path d="M25295 14044
L19842 14044
" />
<path d="M62795 14044
L57342 14044
" />
<path d="M94842 14044
L94842 8592
" />
<path d="M55295 14044
L49842 14044
" />
<path d="M6545 8592
L6545 14044
" />
<path d="M40295 14044
L34842 14044
" />
<path d="M47795 14044
L42342 14044
" />
<path d="M55295 8592
L55295 14044
" />
<path d="M92795 14044
L87342 14044
" />
<path d="M57342 14044
L57342 8592
" />
<path d="M42342 8592
L47795 8592
" />
<path d="M49842 14044
L49842 8592
" />
<path d="M15920 14044
L10467 14044
" />
<path d="M102342 8592
L107795 8592
" />
<path d="M15920 8592
L15920 14044
" />
<path d="M87342 8592
L92795 8592
" />
<path d="M10467 8592
L15920 8592
" />
<path d="M77795 8592
L77795 14044
" />
<path d="M107795 14044
L102342 14044
" />
<path d="M32795 14044
L27342 14044
" />
<path d="M32795 8592
L32795 14044
" />
<path d="M85295 14044
L79842 14044
" />
<path d="M64842 8592
L70295 8592
" />
<path d="M47795 8592
L47795 14044
" />
<path d="M79842 8592
L85295 8592
" />
<path d="M27342 8592
L32795 8592
" />
<path d="M64842 14044
L64842 8592
" />
<path d="M77795 14044
L72342 14044
" />
<path d="M49842 8592
L55295 8592
" />
<path d="M70295 8592
L70295 14044
" />
<path d="M87342 14044
L87342 8592
" />
<path d="M102342 14044
L102342 8592
" />
<path d="M19842 14044
L19842 8592
" />
<path d="M25295 8592
L25295 14044
" />
<path d="M19842 8592
L25295 8592
" />
<path d="M27342 14044
L27342 8592
" />
<path d="M40295 8592
L40295 14044
" />
<path d="M107263 1308
L107263 1670
" />
<path d="M62795 8592
L62795 14044
" />
<path d="M108503 1308
L107263 1308
" />
<path d="M42342 14044
L42342 8592
" />
<path d="M108503 1670
L108503 1308
" />
<path d="M109182 1670
L108503 1670
" />
<path d="M72342 14044
L72342 8592
" />
<path d="M94842 8592
L100295 8592
" />
<path d="M109842 1092
L109842 2942
" />
<path d="M72342 8592
L77795 8592
" />
<path d="M100295 8592
L100295 14044
" />
<path d="M111717 14044
L111717 8592
" />
<path d="M117170 14044
L111717 14044
" />
<path d="M1092 21544
L1092 16092
" />
<path d="M11404 16092
L16857 16092
" />
<path d="M29217 16092
L34670 16092
" />
<path d="M89217 16092
L94670 16092
" />
<path d="M114357 17942
L114357 16092
" />
<path d="M6545 21544
L1092 21544
" />
<path d="M72170 21544
L66717 21544
" />
<path d="M34670 21544
L29217 21544
" />
<path d="M6545 16092
L6545 21544
" />
<path d="M11404 21544
L11404 16092
" />
<path d="M87170 16092
L87170 21544
" />
<path d="M115016 17942
L114357 17942
" />
<path d="M21717 16092
L27170 16092
" />
<path d="M29217 21544
L29217 16092
" />
<path d="M115695 16670
L115016 16670
" />
<path d="M42170 16092
L42170 21544
" />
<path d="M74217 16092
L79670 16092
" />
<path d="M89217 21544
L89217 16092
" />
<path d="M117615 16670
L116936 16670
" />
<path d="M1092 16092
L6545 16092
" />
<path d="M49670 21544
L44217 21544
" />
<path d="M16857 16092
L16857 21544
" />
<path d="M36717 21544
L36717 16092
" />
<path d="M66717 16092
L72170 16092
" />
<path d="M94670 21544
L89217 21544
" />
<path d="M115016 16670
L115016 17942
" />
<path d="M42170 21544
L36717 21544
" />
<path d="M44217 21544
L44217 16092
" />
<path d="M114357 16092
L108904 16092
" />
<path d="M59217 16092
L64670 16092
" />
<path d="M49670 16092
L49670 21544
" />
<path d="M51717 21544
L51717 16092
" />
<path d="M72170 16092
L72170 21544
" />
<path d="M87170 21544
L81717 21544
" />
<path d="M81717 21544
L81717 16092
" />
<path d="M96717 21544
L96717 16092
" />
<path d="M102170 21544
L96717 21544
" />
<path d="M96717 16092
L102170 16092
" />
<path d="M116936 16308
L115695 16308
" />
<path d="M36717 16092
L42170 16092
" />
<path d="M74217 21544
L74217 16092
" />
<path d="M116936 16670
L116936 16308
" />
<path d="M79670 16092
L79670 21544
" />
<path d="M94670 16092
L94670 21544
" />
<path d="M102170 16092
L102170 21544
" />
<path d="M64670 21544
L59217 21544
" />
<path d="M117170 8592
L117170 14044
" />
<path d="M34670 16092
L34670 21544
" />
<path d="M115695 16308
L115695 16670
" />
<path d="M27170 16092
L27170 21544
" />
<path d="M44217 16092
L49670 16092
" />
<path d="M66717 21544
L66717 16092
" />
<path d="M16857 21544
L11404 21544
" />
<path d="M111717 8592
L117170 8592
" />
<path d="M21717 21544
L21717 16092
" />
<path d="M27170 21544
L21717 21544
" />
<path d="M81717 16092
L87170 16092
" />
<path d="M57170 21544
L51717 21544
" />
<path d="M57170 16092
L57170 21544
" />
<path d="M51717 16092
L57170 16092
" />
<path d="M59217 21544
L59217 16092
" />
<path d="M79670 21544
L74217 21544
" />
<path d="M64670 16092
L64670 21544
" />
<path d="M107566 16308
L106325 16308
" />
<path d="M114357 21544
L114357 19694
" />
<path d="M117939 18985
L117939 17942
" />
<path d="M117615 18985
L117939 18985
" />
<path d="M116936 21840
L116936 21454
" />
<path d="M105646 21454
L106325 21454
" />
<path d="M115695 21840
L116936 21840
" />
<path d="M107566 21840
L107566 21454
" />
<path d="M108245 17942
L108245 16670
" />
<path d="M106325 16670
L105646 16670
" />
<path d="M107566 16670
L107566 16308
" />
<path d="M117615 21454
L117615 18985
" />
<path d="M115016 21454
L115695 21454
" />
<path d="M114357 19694
L115016 19694
" />
<path d="M115016 19694
L115016 21454
" />
<path d="M107566 21454
L108245 21454
" />
<path d="M108245 19694
L108904 19694
" />
<path d="M106325 21840
L107566 21840
" />
<path d="M105646 17942
L105322 17942
" />
<path d="M6545 23592
L6545 29044
" />
<path d="M108904 21544
L114357 21544
" />
<path d="M108904 17942
L108245 17942
" />
<path d="M108245 21454
L108245 19694
" />
<path d="M105646 18985
L105646 21454
" />
<path d="M105322 17942
L105322 18985
" />
<path d="M108245 16670
L107566 16670
" />
<path d="M6545 29044
L1092 29044
" />
<path d="M117615 17942
L117615 16670
" />
<path d="M1092 29044
L1092 23592
" />
<path d="M117939 17942
L117615 17942
" />
<path d="M116936 21454
L117615 21454
" />
<path d="M115695 21454
L115695 21840
" />
<path d="M105322 18985
L105646 18985
" />
<path d="M106325 21454
L106325 21840
" />
<path d="M108904 16092
L108904 17942
" />
<path d="M105646 16670
L105646 17942
" />
<path d="M108904 19694
L108904 21544
" />
<path d="M106325 16308
L106325 16670
" />
<path d="M47967 29044
L47967 23592
" />
<path d="M53420 29044
L47967 29044
" />
<path d="M105920 23592
L105920 29044
" />
<path d="M47967 23592
L53420 23592
" />
<path d="M62967 23592
L68420 23592
" />
<path d="M21311 24170
L21311 23808
" />
<path d="M55467 23592
L60920 23592
" />
<path d="M77967 29044
L77967 23592
" />
<path d="M21311 28954
L21990 28954
" />
<path d="M85467 23592
L90920 23592
" />
<path d="M92967 29044
L92967 23592
" />
<path d="M116232 29044
L110780 29044
" />
<path d="M20071 24170
L19392 24170
" />
<path d="M98420 23592
L98420 29044
" />
<path d="M22315 26485
L22315 25442
" />
<path d="M92967 23592
L98420 23592
" />
<path d="M18732 23592
L13280 23592
" />
<path d="M19392 25442
L18732 25442
" />
<path d="M38420 23592
L38420 29044
" />
<path d="M21990 26485
L22315 26485
" />
<path d="M1092 23592
L6545 23592
" />
<path d="M32967 23592
L38420 23592
" />
<path d="M25467 29044
L25467 23592
" />
<path d="M30920 29044
L25467 29044
" />
<path d="M30920 23592
L30920 29044
" />
<path d="M25467 23592
L30920 23592
" />
<path d="M32967 29044
L32967 23592
" />
<path d="M90920 29044
L85467 29044
" />
<path d="M100467 23592
L105920 23592
" />
<path d="M70467 29044
L70467 23592
" />
<path d="M21311 23808
L20071 23808
" />
<path d="M75920 29044
L70467 29044
" />
<path d="M83420 29044
L77967 29044
" />
<path d="M105920 29044
L100467 29044
" />
<path d="M70467 23592
L75920 23592
" />
<path d="M60920 29044
L55467 29044
" />
<path d="M83420 23592
L83420 29044
" />
<path d="M68420 29044
L62967 29044
" />
<path d="M21990 28954
L21990 26485
" />
<path d="M19392 24170
L19392 25442
" />
<path d="M38420 29044
L32967 29044
" />
<path d="M53420 23592
L53420 29044
" />
<path d="M62967 29044
L62967 23592
" />
<path d="M90920 23592
L90920 29044
" />
<path d="M75920 23592
L75920 29044
" />
<path d="M85467 29044
L85467 23592
" />
<path d="M18732 25442
L18732 23592
" />
<path d="M40467 29044
L40467 23592
" />
<path d="M45920 29044
L40467 29044
" />
<path d="M45920 23592
L45920 29044
" />
<path d="M55467 29044
L55467 23592
" />
<path d="M98420 29044
L92967 29044
" />
<path d="M22315 25442
L21990 25442
" />
<path d="M20071 23808
L20071 24170
" />
<path d="M100467 29044
L100467 23592
" />
<path d="M21990 24170
L21311 24170
" />
<path d="M68420 23592
L68420 29044
" />
<path d="M40467 23592
L45920 23592
" />
<path d="M110780 23592
L116232 23592
" />
<path d="M60920 23592
L60920 29044
" />
<path d="M77967 23592
L83420 23592
" />
<path d="M110780 29044
L110780 23592
" />
<path d="M116232 23592
L116232 29044
" />
<path d="M21990 25442
L21990 24170
" />
<g >
</g>
</g> 
</svg>
