  0
SECTION
  2
HEADER
  9
$ANGBASE
  50
0.0
  9
$ANGDIR
  70
1
  9
$MEASUREMENT
  70
1
  0
ENDSEC
  0
SECTION
  2
TABLES
  0
TABLE
  2
LTYPE
  70
4
  0
LTYPE
  5
40F
  2
CONTINUOUS
  70
0
  3
Solid line
  72
65
  73
0
  40
0.0
  0
LTYPE
  5
410
  2
DASHDOT
 70
0
  3
Dash Dot ____ _ ____ _
 72
65
 73
4
 40
2.0
 49
1.25
 49
-0.25
 49
0.25
 49
-0.25
  0
LTYPE
  5
411
  2
DASHED
 70
0
  3
Dashed __ __ __ __ __
 72
65
 73
2
 40
0.75
 49
0.5
 49
-0.25
  0
LTYPE
  5
43B
  2
DOTTED
 70
0
  3
Dotted .  .  .  .
 72
65
 73
2
 40
0.2
 49
0.0
 49
-0.2
  0
ENDTAB
  0
TABLE
  2
STYLE
  70
4
  0
STYLE
  2
KICAD
  70
0
  40
0
  41
1
  42
1
  50
0
  71
0
  3
isocp.shx
  0
STYLE
  2
KICADB
  70
0
  40
0
  41
1
  42
1
  50
0
  71
0
  3
isocp.shx
  0
STYLE
  2
KICADI
  70
0
  40
0
  41
1
  42
1
  50
15
  71
0
  3
isocp.shx
  0
STYLE
  2
KICADBI
  70
0
  40
0
  41
1
  42
1
  50
15
  71
0
  3
isocp.shx
  0
ENDTAB
  0
TABLE
  2
LAYER
  70
1
  0
LAYER
  2
BLACK
  70
0
  62
7
  6
CONTINUOUS
  0
ENDTAB
  0
ENDSEC
  0
SECTION
  2
ENTITIES
0
LINE
8
BLACK
6
CONTINUOUS
10
13.0335
20
-22.8011
11
165.487
21
-22.8011
0
LINE
8
BLACK
6
CONTINUOUS
10
165.487
20
-22.8011
11
165.494
21
-22.8018
0
LINE
8
BLACK
6
CONTINUOUS
10
165.494
20
-22.8018
11
165.504
21
-22.8047
0
LINE
8
BLACK
6
CONTINUOUS
10
165.504
20
-22.8047
11
165.512
21
-22.8093
0
LINE
8
BLACK
6
CONTINUOUS
10
165.512
20
-22.8093
11
165.52
21
-22.8156
0
LINE
8
BLACK
6
CONTINUOUS
10
165.52
20
-22.8156
11
165.526
21
-22.8232
0
LINE
8
BLACK
6
CONTINUOUS
10
165.526
20
-22.8232
11
165.531
21
-22.8319
0
LINE
8
BLACK
6
CONTINUOUS
10
165.531
20
-22.8319
11
165.534
21
-22.8413
0
LINE
8
BLACK
6
CONTINUOUS
10
165.534
20
-22.8413
11
165.535
21
-22.8511
0
LINE
8
BLACK
6
CONTINUOUS
10
165.535
20
-22.8511
11
165.534
21
-22.8609
0
LINE
8
BLACK
6
CONTINUOUS
10
165.534
20
-22.8609
11
165.531
21
-22.8703
0
LINE
8
BLACK
6
CONTINUOUS
10
165.531
20
-22.8703
11
165.526
21
-22.879
0
LINE
8
BLACK
6
CONTINUOUS
10
165.526
20
-22.879
11
165.52
21
-22.8866
0
LINE
8
BLACK
6
CONTINUOUS
10
165.52
20
-22.8866
11
165.512
21
-22.8929
0
LINE
8
BLACK
6
CONTINUOUS
10
165.512
20
-22.8929
11
165.504
21
-22.8975
0
LINE
8
BLACK
6
CONTINUOUS
10
165.504
20
-22.8975
11
165.494
21
-22.9004
0
LINE
8
BLACK
6
CONTINUOUS
10
165.494
20
-22.9004
11
165.487
21
-22.9011
0
LINE
8
BLACK
6
CONTINUOUS
10
165.487
20
-22.9011
11
13.0811
21
-22.9011
0
LINE
8
BLACK
6
CONTINUOUS
10
13.0811
20
-22.9011
11
13.0811
21
-114.253
0
LINE
8
BLACK
6
CONTINUOUS
10
13.0811
20
-114.253
11
13.0804
21
-114.26
0
LINE
8
BLACK
6
CONTINUOUS
10
13.0804
20
-114.26
11
13.0775
21
-114.27
0
LINE
8
BLACK
6
CONTINUOUS
10
13.0775
20
-114.27
11
13.0729
21
-114.278
0
LINE
8
BLACK
6
CONTINUOUS
10
13.0729
20
-114.278
11
13.0666
21
-114.286
0
LINE
8
BLACK
6
CONTINUOUS
10
13.0666
20
-114.286
11
13.059
21
-114.292
0
LINE
8
BLACK
6
CONTINUOUS
10
13.059
20
-114.292
11
13.0503
21
-114.297
0
LINE
8
BLACK
6
CONTINUOUS
10
13.0503
20
-114.297
11
13.0409
21
-114.3
0
LINE
8
BLACK
6
CONTINUOUS
10
13.0409
20
-114.3
11
13.0311
21
-114.301
0
LINE
8
BLACK
6
CONTINUOUS
10
13.0311
20
-114.301
11
13.0213
21
-114.3
0
LINE
8
BLACK
6
CONTINUOUS
10
13.0213
20
-114.3
11
13.0119
21
-114.297
0
LINE
8
BLACK
6
CONTINUOUS
10
13.0119
20
-114.297
11
13.0032
21
-114.292
0
LINE
8
BLACK
6
CONTINUOUS
10
13.0032
20
-114.292
11
12.9956
21
-114.286
0
LINE
8
BLACK
6
CONTINUOUS
10
12.9956
20
-114.286
11
12.9893
21
-114.278
0
LINE
8
BLACK
6
CONTINUOUS
10
12.9893
20
-114.278
11
12.9847
21
-114.27
0
LINE
8
BLACK
6
CONTINUOUS
10
12.9847
20
-114.27
11
12.9818
21
-114.26
0
LINE
8
BLACK
6
CONTINUOUS
10
12.9818
20
-114.26
11
12.9811
21
-114.253
0
LINE
8
BLACK
6
CONTINUOUS
10
12.9811
20
-114.253
11
12.9811
21
-22.8535
0
LINE
8
BLACK
6
CONTINUOUS
10
12.9811
20
-22.8535
11
12.9808
21
-22.8511
0
LINE
8
BLACK
6
CONTINUOUS
10
12.9808
20
-22.8511
11
12.9818
21
-22.8413
0
LINE
8
BLACK
6
CONTINUOUS
10
12.9818
20
-22.8413
11
12.9847
21
-22.8319
0
LINE
8
BLACK
6
CONTINUOUS
10
12.9847
20
-22.8319
11
12.9893
21
-22.8232
0
LINE
8
BLACK
6
CONTINUOUS
10
12.9893
20
-22.8232
11
12.9956
21
-22.8156
0
LINE
8
BLACK
6
CONTINUOUS
10
12.9956
20
-22.8156
11
13.0032
21
-22.8093
0
LINE
8
BLACK
6
CONTINUOUS
10
13.0032
20
-22.8093
11
13.0119
21
-22.8047
0
LINE
8
BLACK
6
CONTINUOUS
10
13.0119
20
-22.8047
11
13.0213
21
-22.8018
0
LINE
8
BLACK
6
CONTINUOUS
10
13.0213
20
-22.8018
11
13.0286
21
-22.8011
0
LINE
8
BLACK
6
CONTINUOUS
10
13.0286
20
-22.8011
11
13.0311
21
-22.8008
0
LINE
8
BLACK
6
CONTINUOUS
10
13.0311
20
-22.8008
11
13.0335
21
-22.8011
  0
ENDSEC
  0
EOF
