<?xml version="1.0" standalone="no"?>
 <!DOCTYPE svg PUBLIC "-//W3C//DTD SVG 1.1//EN" 
 "http://www.w3.org/Graphics/SVG/1.1/DTD/svg11.dtd"> 
<svg xmlns="http://www.w3.org/2000/svg" version="1.1" 
    width="59.4004cm" height="41.9989cm" viewBox="0 0 233860 165350 ">
<title>SVG Picture created as CASE_Cutting-Eco2_User.svg date 2020/03/12 15:16:08 </title>
  <desc>Picture generated by PCBNEW </desc>
<g style="fill:#000000; fill-opacity:1;stroke:#000000; stroke-opacity:1;
stroke-linecap:round; stroke-linejoin:round; "
 transform="translate(0 0) scale(1 1)">
</g>
<g style="fill:#000000; fill-opacity:0.0; 
stroke:#000000; stroke-width:-0.000393701; stroke-opacity:1; 
stroke-linecap:round; stroke-linejoin:round;">
</g>
<g style="fill:#000000; fill-opacity:0.0; 
stroke:#000000; stroke-width:39.3701; stroke-opacity:1; 
stroke-linecap:round; stroke-linejoin:round;">
</g>
<g style="fill:#000000; fill-opacity:0.0; 
stroke:#000000; stroke-width:59.0551; stroke-opacity:1; 
stroke-linecap:round; stroke-linejoin:round;">
<rect x="186616" y="148027" width="42519.7" height="12598.4" rx="0" />
</g>
<g style="fill:#000000; fill-opacity:0.0; 
stroke:#000000; stroke-width:39.3701; stroke-opacity:1; 
stroke-linecap:round; stroke-linejoin:round;">
</g>
<g style="fill:#000000; fill-opacity:0.0; 
stroke:#000000; stroke-width:59.0551; stroke-opacity:1; 
stroke-linecap:round; stroke-linejoin:round;">
<rect x="3937.01" y="3937.01" width="225986" height="157476" rx="0" />
</g>
<g style="fill:#000000; fill-opacity:0.0; 
stroke:#000000; stroke-width:39.3701; stroke-opacity:1; 
stroke-linecap:round; stroke-linejoin:round;">
</g>
<g style="fill:#000000; fill-opacity:0.0; 
stroke:#000000; stroke-width:59.0551; stroke-opacity:1; 
stroke-linecap:round; stroke-linejoin:round;">
<rect x="4724.41" y="4724.41" width="224411" height="155901" rx="0" />
</g>
<g style="fill:#000000; fill-opacity:0.0; 
stroke:#000000; stroke-width:39.3701; stroke-opacity:1; 
stroke-linecap:round; stroke-linejoin:round;">
</g>
<g style="fill:#000000; fill-opacity:0.0; 
stroke:#000000; stroke-width:59.0551; stroke-opacity:1; 
stroke-linecap:round; stroke-linejoin:round;">
<path d="M23622 4724
L23622 3937
" />
</g>
<g style="fill:#000000; fill-opacity:0.0; 
stroke:#000000; stroke-width:39.3701; stroke-opacity:1; 
stroke-linecap:round; stroke-linejoin:round;">
</g>
<g style="fill:#000000; fill-opacity:0.0; 
stroke:#000000; stroke-width:59.0551; stroke-opacity:1; 
stroke-linecap:round; stroke-linejoin:round;">
<path d="M43307 4724
L43307 3937
" />
</g>
<g style="fill:#000000; fill-opacity:0.0; 
stroke:#000000; stroke-width:39.3701; stroke-opacity:1; 
stroke-linecap:round; stroke-linejoin:round;">
</g>
<g style="fill:#000000; fill-opacity:0.0; 
stroke:#000000; stroke-width:59.0551; stroke-opacity:1; 
stroke-linecap:round; stroke-linejoin:round;">
<path d="M62992 4724
L62992 3937
" />
</g>
<g style="fill:#000000; fill-opacity:0.0; 
stroke:#000000; stroke-width:39.3701; stroke-opacity:1; 
stroke-linecap:round; stroke-linejoin:round;">
</g>
<g style="fill:#000000; fill-opacity:0.0; 
stroke:#000000; stroke-width:59.0551; stroke-opacity:1; 
stroke-linecap:round; stroke-linejoin:round;">
<path d="M82677 4724
L82677 3937
" />
</g>
<g style="fill:#000000; fill-opacity:0.0; 
stroke:#000000; stroke-width:39.3701; stroke-opacity:1; 
stroke-linecap:round; stroke-linejoin:round;">
</g>
<g style="fill:#000000; fill-opacity:0.0; 
stroke:#000000; stroke-width:59.0551; stroke-opacity:1; 
stroke-linecap:round; stroke-linejoin:round;">
<path d="M102362 4724
L102362 3937
" />
</g>
<g style="fill:#000000; fill-opacity:0.0; 
stroke:#000000; stroke-width:39.3701; stroke-opacity:1; 
stroke-linecap:round; stroke-linejoin:round;">
</g>
<g style="fill:#000000; fill-opacity:0.0; 
stroke:#000000; stroke-width:59.0551; stroke-opacity:1; 
stroke-linecap:round; stroke-linejoin:round;">
<path d="M122047 4724
L122047 3937
" />
</g>
<g style="fill:#000000; fill-opacity:0.0; 
stroke:#000000; stroke-width:39.3701; stroke-opacity:1; 
stroke-linecap:round; stroke-linejoin:round;">
</g>
<g style="fill:#000000; fill-opacity:0.0; 
stroke:#000000; stroke-width:59.0551; stroke-opacity:1; 
stroke-linecap:round; stroke-linejoin:round;">
<path d="M141732 4724
L141732 3937
" />
</g>
<g style="fill:#000000; fill-opacity:0.0; 
stroke:#000000; stroke-width:39.3701; stroke-opacity:1; 
stroke-linecap:round; stroke-linejoin:round;">
</g>
<g style="fill:#000000; fill-opacity:0.0; 
stroke:#000000; stroke-width:59.0551; stroke-opacity:1; 
stroke-linecap:round; stroke-linejoin:round;">
<path d="M161417 4724
L161417 3937
" />
</g>
<g style="fill:#000000; fill-opacity:0.0; 
stroke:#000000; stroke-width:39.3701; stroke-opacity:1; 
stroke-linecap:round; stroke-linejoin:round;">
</g>
<g style="fill:#000000; fill-opacity:0.0; 
stroke:#000000; stroke-width:59.0551; stroke-opacity:1; 
stroke-linecap:round; stroke-linejoin:round;">
<path d="M181102 4724
L181102 3937
" />
</g>
<g style="fill:#000000; fill-opacity:0.0; 
stroke:#000000; stroke-width:39.3701; stroke-opacity:1; 
stroke-linecap:round; stroke-linejoin:round;">
</g>
<g style="fill:#000000; fill-opacity:0.0; 
stroke:#000000; stroke-width:59.0551; stroke-opacity:1; 
stroke-linecap:round; stroke-linejoin:round;">
<path d="M200787 4724
L200787 3937
" />
</g>
<g style="fill:#000000; fill-opacity:0.0; 
stroke:#000000; stroke-width:39.3701; stroke-opacity:1; 
stroke-linecap:round; stroke-linejoin:round;">
</g>
<g style="fill:#000000; fill-opacity:0.0; 
stroke:#000000; stroke-width:59.0551; stroke-opacity:1; 
stroke-linecap:round; stroke-linejoin:round;">
<path d="M220472 4724
L220472 3937
" />
</g>
<g style="fill:#000000; fill-opacity:0.0; 
stroke:#000000; stroke-width:39.3701; stroke-opacity:1; 
stroke-linecap:round; stroke-linejoin:round;">
</g>
<g style="fill:#000000; fill-opacity:0.0; 
stroke:#000000; stroke-width:59.0551; stroke-opacity:1; 
stroke-linecap:round; stroke-linejoin:round;">
<path d="M14199 4562
L13906 4562
" />
<path d="M14052 4562
L14052 4050
L14004 4123
L13955 4172
L13906 4196
" />
</g>
<g style="fill:#000000; fill-opacity:0.0; 
stroke:#000000; stroke-width:39.3701; stroke-opacity:1; 
stroke-linecap:round; stroke-linejoin:round;">
</g>
<g style="fill:#000000; fill-opacity:0.0; 
stroke:#000000; stroke-width:59.0551; stroke-opacity:1; 
stroke-linecap:round; stroke-linejoin:round;">
<path d="M33591 4099
L33615 4074
L33664 4050
L33786 4050
L33835 4074
L33859 4099
L33884 4147
L33884 4196
L33859 4269
L33567 4562
L33884 4562
" />
</g>
<g style="fill:#000000; fill-opacity:0.0; 
stroke:#000000; stroke-width:39.3701; stroke-opacity:1; 
stroke-linecap:round; stroke-linejoin:round;">
</g>
<g style="fill:#000000; fill-opacity:0.0; 
stroke:#000000; stroke-width:59.0551; stroke-opacity:1; 
stroke-linecap:round; stroke-linejoin:round;">
<path d="M53252 4050
L53569 4050
L53398 4245
L53471 4245
L53520 4269
L53544 4294
L53569 4342
L53569 4464
L53544 4513
L53520 4537
L53471 4562
L53325 4562
L53276 4537
L53252 4513
" />
</g>
<g style="fill:#000000; fill-opacity:0.0; 
stroke:#000000; stroke-width:39.3701; stroke-opacity:1; 
stroke-linecap:round; stroke-linejoin:round;">
</g>
<g style="fill:#000000; fill-opacity:0.0; 
stroke:#000000; stroke-width:59.0551; stroke-opacity:1; 
stroke-linecap:round; stroke-linejoin:round;">
<path d="M73205 4221
L73205 4562
" />
<path d="M73083 4026
L72961 4391
L73278 4391
" />
</g>
<g style="fill:#000000; fill-opacity:0.0; 
stroke:#000000; stroke-width:39.3701; stroke-opacity:1; 
stroke-linecap:round; stroke-linejoin:round;">
</g>
<g style="fill:#000000; fill-opacity:0.0; 
stroke:#000000; stroke-width:59.0551; stroke-opacity:1; 
stroke-linecap:round; stroke-linejoin:round;">
<path d="M92914 4050
L92671 4050
L92646 4294
L92671 4269
L92719 4245
L92841 4245
L92890 4269
L92914 4294
L92939 4342
L92939 4464
L92914 4513
L92890 4537
L92841 4562
L92719 4562
L92671 4537
L92646 4513
" />
</g>
<g style="fill:#000000; fill-opacity:0.0; 
stroke:#000000; stroke-width:39.3701; stroke-opacity:1; 
stroke-linecap:round; stroke-linejoin:round;">
</g>
<g style="fill:#000000; fill-opacity:0.0; 
stroke:#000000; stroke-width:59.0551; stroke-opacity:1; 
stroke-linecap:round; stroke-linejoin:round;">
<path d="M112575 4050
L112477 4050
L112429 4074
L112404 4099
L112356 4172
L112331 4269
L112331 4464
L112356 4513
L112380 4537
L112429 4562
L112526 4562
L112575 4537
L112599 4513
L112624 4464
L112624 4342
L112599 4294
L112575 4269
L112526 4245
L112429 4245
L112380 4269
L112356 4294
L112331 4342
" />
</g>
<g style="fill:#000000; fill-opacity:0.0; 
stroke:#000000; stroke-width:39.3701; stroke-opacity:1; 
stroke-linecap:round; stroke-linejoin:round;">
</g>
<g style="fill:#000000; fill-opacity:0.0; 
stroke:#000000; stroke-width:59.0551; stroke-opacity:1; 
stroke-linecap:round; stroke-linejoin:round;">
<path d="M131992 4050
L132333 4050
L132114 4562
" />
</g>
<g style="fill:#000000; fill-opacity:0.0; 
stroke:#000000; stroke-width:39.3701; stroke-opacity:1; 
stroke-linecap:round; stroke-linejoin:round;">
</g>
<g style="fill:#000000; fill-opacity:0.0; 
stroke:#000000; stroke-width:59.0551; stroke-opacity:1; 
stroke-linecap:round; stroke-linejoin:round;">
<path d="M151799 4269
L151750 4245
L151726 4221
L151701 4172
L151701 4147
L151726 4099
L151750 4074
L151799 4050
L151896 4050
L151945 4074
L151969 4099
L151994 4147
L151994 4172
L151969 4221
L151945 4245
L151896 4269
L151799 4269
L151750 4294
L151726 4318
L151701 4367
L151701 4464
L151726 4513
L151750 4537
L151799 4562
L151896 4562
L151945 4537
L151969 4513
L151994 4464
L151994 4367
L151969 4318
L151945 4294
L151896 4269
" />
</g>
<g style="fill:#000000; fill-opacity:0.0; 
stroke:#000000; stroke-width:39.3701; stroke-opacity:1; 
stroke-linecap:round; stroke-linejoin:round;">
</g>
<g style="fill:#000000; fill-opacity:0.0; 
stroke:#000000; stroke-width:59.0551; stroke-opacity:1; 
stroke-linecap:round; stroke-linejoin:round;">
<path d="M171435 4562
L171533 4562
L171581 4537
L171606 4513
L171654 4440
L171679 4342
L171679 4147
L171654 4099
L171630 4074
L171581 4050
L171484 4050
L171435 4074
L171411 4099
L171386 4147
L171386 4269
L171411 4318
L171435 4342
L171484 4367
L171581 4367
L171630 4342
L171654 4318
L171679 4269
" />
</g>
<g style="fill:#000000; fill-opacity:0.0; 
stroke:#000000; stroke-width:39.3701; stroke-opacity:1; 
stroke-linecap:round; stroke-linejoin:round;">
</g>
<g style="fill:#000000; fill-opacity:0.0; 
stroke:#000000; stroke-width:59.0551; stroke-opacity:1; 
stroke-linecap:round; stroke-linejoin:round;">
<path d="M191364 4562
L191071 4562
" />
<path d="M191218 4562
L191218 4050
L191169 4123
L191120 4172
L191071 4196
" />
<path d="M191681 4050
L191729 4050
L191778 4074
L191803 4099
L191827 4147
L191851 4245
L191851 4367
L191827 4464
L191803 4513
L191778 4537
L191729 4562
L191681 4562
L191632 4537
L191608 4513
L191583 4464
L191559 4367
L191559 4245
L191583 4147
L191608 4099
L191632 4074
L191681 4050
" />
</g>
<g style="fill:#000000; fill-opacity:0.0; 
stroke:#000000; stroke-width:39.3701; stroke-opacity:1; 
stroke-linecap:round; stroke-linejoin:round;">
</g>
<g style="fill:#000000; fill-opacity:0.0; 
stroke:#000000; stroke-width:59.0551; stroke-opacity:1; 
stroke-linecap:round; stroke-linejoin:round;">
<path d="M211049 4562
L210756 4562
" />
<path d="M210903 4562
L210903 4050
L210854 4123
L210805 4172
L210756 4196
" />
<path d="M211536 4562
L211244 4562
" />
<path d="M211390 4562
L211390 4050
L211341 4123
L211293 4172
L211244 4196
" />
</g>
<g style="fill:#000000; fill-opacity:0.0; 
stroke:#000000; stroke-width:39.3701; stroke-opacity:1; 
stroke-linecap:round; stroke-linejoin:round;">
</g>
<g style="fill:#000000; fill-opacity:0.0; 
stroke:#000000; stroke-width:59.0551; stroke-opacity:1; 
stroke-linecap:round; stroke-linejoin:round;">
<path d="M23622 160625
L23622 161412
" />
</g>
<g style="fill:#000000; fill-opacity:0.0; 
stroke:#000000; stroke-width:39.3701; stroke-opacity:1; 
stroke-linecap:round; stroke-linejoin:round;">
</g>
<g style="fill:#000000; fill-opacity:0.0; 
stroke:#000000; stroke-width:59.0551; stroke-opacity:1; 
stroke-linecap:round; stroke-linejoin:round;">
<path d="M43307 160625
L43307 161412
" />
</g>
<g style="fill:#000000; fill-opacity:0.0; 
stroke:#000000; stroke-width:39.3701; stroke-opacity:1; 
stroke-linecap:round; stroke-linejoin:round;">
</g>
<g style="fill:#000000; fill-opacity:0.0; 
stroke:#000000; stroke-width:59.0551; stroke-opacity:1; 
stroke-linecap:round; stroke-linejoin:round;">
<path d="M62992 160625
L62992 161412
" />
</g>
<g style="fill:#000000; fill-opacity:0.0; 
stroke:#000000; stroke-width:39.3701; stroke-opacity:1; 
stroke-linecap:round; stroke-linejoin:round;">
</g>
<g style="fill:#000000; fill-opacity:0.0; 
stroke:#000000; stroke-width:59.0551; stroke-opacity:1; 
stroke-linecap:round; stroke-linejoin:round;">
<path d="M82677 160625
L82677 161412
" />
</g>
<g style="fill:#000000; fill-opacity:0.0; 
stroke:#000000; stroke-width:39.3701; stroke-opacity:1; 
stroke-linecap:round; stroke-linejoin:round;">
</g>
<g style="fill:#000000; fill-opacity:0.0; 
stroke:#000000; stroke-width:59.0551; stroke-opacity:1; 
stroke-linecap:round; stroke-linejoin:round;">
<path d="M102362 160625
L102362 161412
" />
</g>
<g style="fill:#000000; fill-opacity:0.0; 
stroke:#000000; stroke-width:39.3701; stroke-opacity:1; 
stroke-linecap:round; stroke-linejoin:round;">
</g>
<g style="fill:#000000; fill-opacity:0.0; 
stroke:#000000; stroke-width:59.0551; stroke-opacity:1; 
stroke-linecap:round; stroke-linejoin:round;">
<path d="M122047 160625
L122047 161412
" />
</g>
<g style="fill:#000000; fill-opacity:0.0; 
stroke:#000000; stroke-width:39.3701; stroke-opacity:1; 
stroke-linecap:round; stroke-linejoin:round;">
</g>
<g style="fill:#000000; fill-opacity:0.0; 
stroke:#000000; stroke-width:59.0551; stroke-opacity:1; 
stroke-linecap:round; stroke-linejoin:round;">
<path d="M141732 160625
L141732 161412
" />
</g>
<g style="fill:#000000; fill-opacity:0.0; 
stroke:#000000; stroke-width:39.3701; stroke-opacity:1; 
stroke-linecap:round; stroke-linejoin:round;">
</g>
<g style="fill:#000000; fill-opacity:0.0; 
stroke:#000000; stroke-width:59.0551; stroke-opacity:1; 
stroke-linecap:round; stroke-linejoin:round;">
<path d="M161417 160625
L161417 161412
" />
</g>
<g style="fill:#000000; fill-opacity:0.0; 
stroke:#000000; stroke-width:39.3701; stroke-opacity:1; 
stroke-linecap:round; stroke-linejoin:round;">
</g>
<g style="fill:#000000; fill-opacity:0.0; 
stroke:#000000; stroke-width:59.0551; stroke-opacity:1; 
stroke-linecap:round; stroke-linejoin:round;">
<path d="M181102 160625
L181102 161412
" />
</g>
<g style="fill:#000000; fill-opacity:0.0; 
stroke:#000000; stroke-width:39.3701; stroke-opacity:1; 
stroke-linecap:round; stroke-linejoin:round;">
</g>
<g style="fill:#000000; fill-opacity:0.0; 
stroke:#000000; stroke-width:59.0551; stroke-opacity:1; 
stroke-linecap:round; stroke-linejoin:round;">
<path d="M200787 160625
L200787 161412
" />
</g>
<g style="fill:#000000; fill-opacity:0.0; 
stroke:#000000; stroke-width:39.3701; stroke-opacity:1; 
stroke-linecap:round; stroke-linejoin:round;">
</g>
<g style="fill:#000000; fill-opacity:0.0; 
stroke:#000000; stroke-width:59.0551; stroke-opacity:1; 
stroke-linecap:round; stroke-linejoin:round;">
<path d="M220472 160625
L220472 161412
" />
</g>
<g style="fill:#000000; fill-opacity:0.0; 
stroke:#000000; stroke-width:39.3701; stroke-opacity:1; 
stroke-linecap:round; stroke-linejoin:round;">
</g>
<g style="fill:#000000; fill-opacity:0.0; 
stroke:#000000; stroke-width:59.0551; stroke-opacity:1; 
stroke-linecap:round; stroke-linejoin:round;">
<path d="M14199 161250
L13906 161250
" />
<path d="M14052 161250
L14052 160739
L14004 160812
L13955 160860
L13906 160885
" />
</g>
<g style="fill:#000000; fill-opacity:0.0; 
stroke:#000000; stroke-width:39.3701; stroke-opacity:1; 
stroke-linecap:round; stroke-linejoin:round;">
</g>
<g style="fill:#000000; fill-opacity:0.0; 
stroke:#000000; stroke-width:59.0551; stroke-opacity:1; 
stroke-linecap:round; stroke-linejoin:round;">
<path d="M33591 160787
L33615 160763
L33664 160739
L33786 160739
L33835 160763
L33859 160787
L33884 160836
L33884 160885
L33859 160958
L33567 161250
L33884 161250
" />
</g>
<g style="fill:#000000; fill-opacity:0.0; 
stroke:#000000; stroke-width:39.3701; stroke-opacity:1; 
stroke-linecap:round; stroke-linejoin:round;">
</g>
<g style="fill:#000000; fill-opacity:0.0; 
stroke:#000000; stroke-width:59.0551; stroke-opacity:1; 
stroke-linecap:round; stroke-linejoin:round;">
<path d="M53252 160739
L53569 160739
L53398 160933
L53471 160933
L53520 160958
L53544 160982
L53569 161031
L53569 161153
L53544 161202
L53520 161226
L53471 161250
L53325 161250
L53276 161226
L53252 161202
" />
</g>
<g style="fill:#000000; fill-opacity:0.0; 
stroke:#000000; stroke-width:39.3701; stroke-opacity:1; 
stroke-linecap:round; stroke-linejoin:round;">
</g>
<g style="fill:#000000; fill-opacity:0.0; 
stroke:#000000; stroke-width:59.0551; stroke-opacity:1; 
stroke-linecap:round; stroke-linejoin:round;">
<path d="M73205 160909
L73205 161250
" />
<path d="M73083 160714
L72961 161080
L73278 161080
" />
</g>
<g style="fill:#000000; fill-opacity:0.0; 
stroke:#000000; stroke-width:39.3701; stroke-opacity:1; 
stroke-linecap:round; stroke-linejoin:round;">
</g>
<g style="fill:#000000; fill-opacity:0.0; 
stroke:#000000; stroke-width:59.0551; stroke-opacity:1; 
stroke-linecap:round; stroke-linejoin:round;">
<path d="M92914 160739
L92671 160739
L92646 160982
L92671 160958
L92719 160933
L92841 160933
L92890 160958
L92914 160982
L92939 161031
L92939 161153
L92914 161202
L92890 161226
L92841 161250
L92719 161250
L92671 161226
L92646 161202
" />
</g>
<g style="fill:#000000; fill-opacity:0.0; 
stroke:#000000; stroke-width:39.3701; stroke-opacity:1; 
stroke-linecap:round; stroke-linejoin:round;">
</g>
<g style="fill:#000000; fill-opacity:0.0; 
stroke:#000000; stroke-width:59.0551; stroke-opacity:1; 
stroke-linecap:round; stroke-linejoin:round;">
<path d="M112575 160739
L112477 160739
L112429 160763
L112404 160787
L112356 160860
L112331 160958
L112331 161153
L112356 161202
L112380 161226
L112429 161250
L112526 161250
L112575 161226
L112599 161202
L112624 161153
L112624 161031
L112599 160982
L112575 160958
L112526 160933
L112429 160933
L112380 160958
L112356 160982
L112331 161031
" />
</g>
<g style="fill:#000000; fill-opacity:0.0; 
stroke:#000000; stroke-width:39.3701; stroke-opacity:1; 
stroke-linecap:round; stroke-linejoin:round;">
</g>
<g style="fill:#000000; fill-opacity:0.0; 
stroke:#000000; stroke-width:59.0551; stroke-opacity:1; 
stroke-linecap:round; stroke-linejoin:round;">
<path d="M131992 160739
L132333 160739
L132114 161250
" />
</g>
<g style="fill:#000000; fill-opacity:0.0; 
stroke:#000000; stroke-width:39.3701; stroke-opacity:1; 
stroke-linecap:round; stroke-linejoin:round;">
</g>
<g style="fill:#000000; fill-opacity:0.0; 
stroke:#000000; stroke-width:59.0551; stroke-opacity:1; 
stroke-linecap:round; stroke-linejoin:round;">
<path d="M151799 160958
L151750 160933
L151726 160909
L151701 160860
L151701 160836
L151726 160787
L151750 160763
L151799 160739
L151896 160739
L151945 160763
L151969 160787
L151994 160836
L151994 160860
L151969 160909
L151945 160933
L151896 160958
L151799 160958
L151750 160982
L151726 161007
L151701 161055
L151701 161153
L151726 161202
L151750 161226
L151799 161250
L151896 161250
L151945 161226
L151969 161202
L151994 161153
L151994 161055
L151969 161007
L151945 160982
L151896 160958
" />
</g>
<g style="fill:#000000; fill-opacity:0.0; 
stroke:#000000; stroke-width:39.3701; stroke-opacity:1; 
stroke-linecap:round; stroke-linejoin:round;">
</g>
<g style="fill:#000000; fill-opacity:0.0; 
stroke:#000000; stroke-width:59.0551; stroke-opacity:1; 
stroke-linecap:round; stroke-linejoin:round;">
<path d="M171435 161250
L171533 161250
L171581 161226
L171606 161202
L171654 161128
L171679 161031
L171679 160836
L171654 160787
L171630 160763
L171581 160739
L171484 160739
L171435 160763
L171411 160787
L171386 160836
L171386 160958
L171411 161007
L171435 161031
L171484 161055
L171581 161055
L171630 161031
L171654 161007
L171679 160958
" />
</g>
<g style="fill:#000000; fill-opacity:0.0; 
stroke:#000000; stroke-width:39.3701; stroke-opacity:1; 
stroke-linecap:round; stroke-linejoin:round;">
</g>
<g style="fill:#000000; fill-opacity:0.0; 
stroke:#000000; stroke-width:59.0551; stroke-opacity:1; 
stroke-linecap:round; stroke-linejoin:round;">
<path d="M191364 161250
L191071 161250
" />
<path d="M191218 161250
L191218 160739
L191169 160812
L191120 160860
L191071 160885
" />
<path d="M191681 160739
L191729 160739
L191778 160763
L191803 160787
L191827 160836
L191851 160933
L191851 161055
L191827 161153
L191803 161202
L191778 161226
L191729 161250
L191681 161250
L191632 161226
L191608 161202
L191583 161153
L191559 161055
L191559 160933
L191583 160836
L191608 160787
L191632 160763
L191681 160739
" />
</g>
<g style="fill:#000000; fill-opacity:0.0; 
stroke:#000000; stroke-width:39.3701; stroke-opacity:1; 
stroke-linecap:round; stroke-linejoin:round;">
</g>
<g style="fill:#000000; fill-opacity:0.0; 
stroke:#000000; stroke-width:59.0551; stroke-opacity:1; 
stroke-linecap:round; stroke-linejoin:round;">
<path d="M211049 161250
L210756 161250
" />
<path d="M210903 161250
L210903 160739
L210854 160812
L210805 160860
L210756 160885
" />
<path d="M211536 161250
L211244 161250
" />
<path d="M211390 161250
L211390 160739
L211341 160812
L211293 160860
L211244 160885
" />
</g>
<g style="fill:#000000; fill-opacity:0.0; 
stroke:#000000; stroke-width:39.3701; stroke-opacity:1; 
stroke-linecap:round; stroke-linejoin:round;">
</g>
<g style="fill:#000000; fill-opacity:0.0; 
stroke:#000000; stroke-width:59.0551; stroke-opacity:1; 
stroke-linecap:round; stroke-linejoin:round;">
<path d="M3937 23622
L4724 23622
" />
</g>
<g style="fill:#000000; fill-opacity:0.0; 
stroke:#000000; stroke-width:39.3701; stroke-opacity:1; 
stroke-linecap:round; stroke-linejoin:round;">
</g>
<g style="fill:#000000; fill-opacity:0.0; 
stroke:#000000; stroke-width:59.0551; stroke-opacity:1; 
stroke-linecap:round; stroke-linejoin:round;">
<path d="M3937 43307
L4724 43307
" />
</g>
<g style="fill:#000000; fill-opacity:0.0; 
stroke:#000000; stroke-width:39.3701; stroke-opacity:1; 
stroke-linecap:round; stroke-linejoin:round;">
</g>
<g style="fill:#000000; fill-opacity:0.0; 
stroke:#000000; stroke-width:59.0551; stroke-opacity:1; 
stroke-linecap:round; stroke-linejoin:round;">
<path d="M3937 62992
L4724 62992
" />
</g>
<g style="fill:#000000; fill-opacity:0.0; 
stroke:#000000; stroke-width:39.3701; stroke-opacity:1; 
stroke-linecap:round; stroke-linejoin:round;">
</g>
<g style="fill:#000000; fill-opacity:0.0; 
stroke:#000000; stroke-width:59.0551; stroke-opacity:1; 
stroke-linecap:round; stroke-linejoin:round;">
<path d="M3937 82677
L4724 82677
" />
</g>
<g style="fill:#000000; fill-opacity:0.0; 
stroke:#000000; stroke-width:39.3701; stroke-opacity:1; 
stroke-linecap:round; stroke-linejoin:round;">
</g>
<g style="fill:#000000; fill-opacity:0.0; 
stroke:#000000; stroke-width:59.0551; stroke-opacity:1; 
stroke-linecap:round; stroke-linejoin:round;">
<path d="M3937 102362
L4724 102362
" />
</g>
<g style="fill:#000000; fill-opacity:0.0; 
stroke:#000000; stroke-width:39.3701; stroke-opacity:1; 
stroke-linecap:round; stroke-linejoin:round;">
</g>
<g style="fill:#000000; fill-opacity:0.0; 
stroke:#000000; stroke-width:59.0551; stroke-opacity:1; 
stroke-linecap:round; stroke-linejoin:round;">
<path d="M3937 122047
L4724 122047
" />
</g>
<g style="fill:#000000; fill-opacity:0.0; 
stroke:#000000; stroke-width:39.3701; stroke-opacity:1; 
stroke-linecap:round; stroke-linejoin:round;">
</g>
<g style="fill:#000000; fill-opacity:0.0; 
stroke:#000000; stroke-width:59.0551; stroke-opacity:1; 
stroke-linecap:round; stroke-linejoin:round;">
<path d="M3937 141732
L4724 141732
" />
</g>
<g style="fill:#000000; fill-opacity:0.0; 
stroke:#000000; stroke-width:39.3701; stroke-opacity:1; 
stroke-linecap:round; stroke-linejoin:round;">
</g>
<g style="fill:#000000; fill-opacity:0.0; 
stroke:#000000; stroke-width:59.0551; stroke-opacity:1; 
stroke-linecap:round; stroke-linejoin:round;">
<path d="M4208 13864
L4452 13864
" />
<path d="M4160 14011
L4330 13499
L4501 14011
" />
</g>
<g style="fill:#000000; fill-opacity:0.0; 
stroke:#000000; stroke-width:39.3701; stroke-opacity:1; 
stroke-linecap:round; stroke-linejoin:round;">
</g>
<g style="fill:#000000; fill-opacity:0.0; 
stroke:#000000; stroke-width:59.0551; stroke-opacity:1; 
stroke-linecap:round; stroke-linejoin:round;">
<path d="M4367 33428
L4440 33452
L4464 33476
L4489 33525
L4489 33598
L4464 33647
L4440 33671
L4391 33696
L4196 33696
L4196 33184
L4367 33184
L4416 33208
L4440 33233
L4464 33281
L4464 33330
L4440 33379
L4416 33403
L4367 33428
L4196 33428
" />
</g>
<g style="fill:#000000; fill-opacity:0.0; 
stroke:#000000; stroke-width:39.3701; stroke-opacity:1; 
stroke-linecap:round; stroke-linejoin:round;">
</g>
<g style="fill:#000000; fill-opacity:0.0; 
stroke:#000000; stroke-width:59.0551; stroke-opacity:1; 
stroke-linecap:round; stroke-linejoin:round;">
<path d="M4489 53332
L4464 53356
L4391 53381
L4342 53381
L4269 53356
L4221 53308
L4196 53259
L4172 53161
L4172 53088
L4196 52991
L4221 52942
L4269 52893
L4342 52869
L4391 52869
L4464 52893
L4489 52918
" />
</g>
<g style="fill:#000000; fill-opacity:0.0; 
stroke:#000000; stroke-width:39.3701; stroke-opacity:1; 
stroke-linecap:round; stroke-linejoin:round;">
</g>
<g style="fill:#000000; fill-opacity:0.0; 
stroke:#000000; stroke-width:59.0551; stroke-opacity:1; 
stroke-linecap:round; stroke-linejoin:round;">
<path d="M4196 73066
L4196 72554
L4318 72554
L4391 72578
L4440 72627
L4464 72676
L4489 72773
L4489 72846
L4464 72944
L4440 72993
L4391 73041
L4318 73066
L4196 73066
" />
</g>
<g style="fill:#000000; fill-opacity:0.0; 
stroke:#000000; stroke-width:39.3701; stroke-opacity:1; 
stroke-linecap:round; stroke-linejoin:round;">
</g>
<g style="fill:#000000; fill-opacity:0.0; 
stroke:#000000; stroke-width:59.0551; stroke-opacity:1; 
stroke-linecap:round; stroke-linejoin:round;">
<path d="M4221 92483
L4391 92483
" />
<path d="M4464 92751
L4221 92751
L4221 92239
L4464 92239
" />
</g>
<g style="fill:#000000; fill-opacity:0.0; 
stroke:#000000; stroke-width:39.3701; stroke-opacity:1; 
stroke-linecap:round; stroke-linejoin:round;">
</g>
<g style="fill:#000000; fill-opacity:0.0; 
stroke:#000000; stroke-width:59.0551; stroke-opacity:1; 
stroke-linecap:round; stroke-linejoin:round;">
<path d="M4403 112168
L4233 112168
" />
<path d="M4233 112436
L4233 111924
L4476 111924
" />
</g>
<g style="fill:#000000; fill-opacity:0.0; 
stroke:#000000; stroke-width:39.3701; stroke-opacity:1; 
stroke-linecap:round; stroke-linejoin:round;">
</g>
<g style="fill:#000000; fill-opacity:0.0; 
stroke:#000000; stroke-width:59.0551; stroke-opacity:1; 
stroke-linecap:round; stroke-linejoin:round;">
<path d="M4464 131633
L4416 131609
L4342 131609
L4269 131633
L4221 131682
L4196 131731
L4172 131828
L4172 131901
L4196 131999
L4221 132048
L4269 132096
L4342 132121
L4391 132121
L4464 132096
L4489 132072
L4489 131901
L4391 131901
" />
</g>
<g style="fill:#000000; fill-opacity:0.0; 
stroke:#000000; stroke-width:39.3701; stroke-opacity:1; 
stroke-linecap:round; stroke-linejoin:round;">
</g>
<g style="fill:#000000; fill-opacity:0.0; 
stroke:#000000; stroke-width:59.0551; stroke-opacity:1; 
stroke-linecap:round; stroke-linejoin:round;">
<path d="M4184 151806
L4184 151294
" />
<path d="M4184 151538
L4476 151538
" />
<path d="M4476 151806
L4476 151294
" />
</g>
<g style="fill:#000000; fill-opacity:0.0; 
stroke:#000000; stroke-width:39.3701; stroke-opacity:1; 
stroke-linecap:round; stroke-linejoin:round;">
</g>
<g style="fill:#000000; fill-opacity:0.0; 
stroke:#000000; stroke-width:59.0551; stroke-opacity:1; 
stroke-linecap:round; stroke-linejoin:round;">
<path d="M229922 23622
L229135 23622
" />
</g>
<g style="fill:#000000; fill-opacity:0.0; 
stroke:#000000; stroke-width:39.3701; stroke-opacity:1; 
stroke-linecap:round; stroke-linejoin:round;">
</g>
<g style="fill:#000000; fill-opacity:0.0; 
stroke:#000000; stroke-width:59.0551; stroke-opacity:1; 
stroke-linecap:round; stroke-linejoin:round;">
<path d="M229922 43307
L229135 43307
" />
</g>
<g style="fill:#000000; fill-opacity:0.0; 
stroke:#000000; stroke-width:39.3701; stroke-opacity:1; 
stroke-linecap:round; stroke-linejoin:round;">
</g>
<g style="fill:#000000; fill-opacity:0.0; 
stroke:#000000; stroke-width:59.0551; stroke-opacity:1; 
stroke-linecap:round; stroke-linejoin:round;">
<path d="M229922 62992
L229135 62992
" />
</g>
<g style="fill:#000000; fill-opacity:0.0; 
stroke:#000000; stroke-width:39.3701; stroke-opacity:1; 
stroke-linecap:round; stroke-linejoin:round;">
</g>
<g style="fill:#000000; fill-opacity:0.0; 
stroke:#000000; stroke-width:59.0551; stroke-opacity:1; 
stroke-linecap:round; stroke-linejoin:round;">
<path d="M229922 82677
L229135 82677
" />
</g>
<g style="fill:#000000; fill-opacity:0.0; 
stroke:#000000; stroke-width:39.3701; stroke-opacity:1; 
stroke-linecap:round; stroke-linejoin:round;">
</g>
<g style="fill:#000000; fill-opacity:0.0; 
stroke:#000000; stroke-width:59.0551; stroke-opacity:1; 
stroke-linecap:round; stroke-linejoin:round;">
<path d="M229922 102362
L229135 102362
" />
</g>
<g style="fill:#000000; fill-opacity:0.0; 
stroke:#000000; stroke-width:39.3701; stroke-opacity:1; 
stroke-linecap:round; stroke-linejoin:round;">
</g>
<g style="fill:#000000; fill-opacity:0.0; 
stroke:#000000; stroke-width:59.0551; stroke-opacity:1; 
stroke-linecap:round; stroke-linejoin:round;">
<path d="M229922 122047
L229135 122047
" />
</g>
<g style="fill:#000000; fill-opacity:0.0; 
stroke:#000000; stroke-width:39.3701; stroke-opacity:1; 
stroke-linecap:round; stroke-linejoin:round;">
</g>
<g style="fill:#000000; fill-opacity:0.0; 
stroke:#000000; stroke-width:59.0551; stroke-opacity:1; 
stroke-linecap:round; stroke-linejoin:round;">
<path d="M229922 141732
L229135 141732
" />
</g>
<g style="fill:#000000; fill-opacity:0.0; 
stroke:#000000; stroke-width:39.3701; stroke-opacity:1; 
stroke-linecap:round; stroke-linejoin:round;">
</g>
<g style="fill:#000000; fill-opacity:0.0; 
stroke:#000000; stroke-width:59.0551; stroke-opacity:1; 
stroke-linecap:round; stroke-linejoin:round;">
<path d="M229407 13864
L229651 13864
" />
<path d="M229358 14011
L229529 13499
L229699 14011
" />
</g>
<g style="fill:#000000; fill-opacity:0.0; 
stroke:#000000; stroke-width:39.3701; stroke-opacity:1; 
stroke-linecap:round; stroke-linejoin:round;">
</g>
<g style="fill:#000000; fill-opacity:0.0; 
stroke:#000000; stroke-width:59.0551; stroke-opacity:1; 
stroke-linecap:round; stroke-linejoin:round;">
<path d="M229565 33428
L229638 33452
L229663 33476
L229687 33525
L229687 33598
L229663 33647
L229638 33671
L229590 33696
L229395 33696
L229395 33184
L229565 33184
L229614 33208
L229638 33233
L229663 33281
L229663 33330
L229638 33379
L229614 33403
L229565 33428
L229395 33428
" />
</g>
<g style="fill:#000000; fill-opacity:0.0; 
stroke:#000000; stroke-width:39.3701; stroke-opacity:1; 
stroke-linecap:round; stroke-linejoin:round;">
</g>
<g style="fill:#000000; fill-opacity:0.0; 
stroke:#000000; stroke-width:59.0551; stroke-opacity:1; 
stroke-linecap:round; stroke-linejoin:round;">
<path d="M229687 53332
L229663 53356
L229590 53381
L229541 53381
L229468 53356
L229419 53308
L229395 53259
L229370 53161
L229370 53088
L229395 52991
L229419 52942
L229468 52893
L229541 52869
L229590 52869
L229663 52893
L229687 52918
" />
</g>
<g style="fill:#000000; fill-opacity:0.0; 
stroke:#000000; stroke-width:39.3701; stroke-opacity:1; 
stroke-linecap:round; stroke-linejoin:round;">
</g>
<g style="fill:#000000; fill-opacity:0.0; 
stroke:#000000; stroke-width:59.0551; stroke-opacity:1; 
stroke-linecap:round; stroke-linejoin:round;">
<path d="M229395 73066
L229395 72554
L229517 72554
L229590 72578
L229638 72627
L229663 72676
L229687 72773
L229687 72846
L229663 72944
L229638 72993
L229590 73041
L229517 73066
L229395 73066
" />
</g>
<g style="fill:#000000; fill-opacity:0.0; 
stroke:#000000; stroke-width:39.3701; stroke-opacity:1; 
stroke-linecap:round; stroke-linejoin:round;">
</g>
<g style="fill:#000000; fill-opacity:0.0; 
stroke:#000000; stroke-width:59.0551; stroke-opacity:1; 
stroke-linecap:round; stroke-linejoin:round;">
<path d="M229419 92483
L229590 92483
" />
<path d="M229663 92751
L229419 92751
L229419 92239
L229663 92239
" />
</g>
<g style="fill:#000000; fill-opacity:0.0; 
stroke:#000000; stroke-width:39.3701; stroke-opacity:1; 
stroke-linecap:round; stroke-linejoin:round;">
</g>
<g style="fill:#000000; fill-opacity:0.0; 
stroke:#000000; stroke-width:59.0551; stroke-opacity:1; 
stroke-linecap:round; stroke-linejoin:round;">
<path d="M229602 112168
L229431 112168
" />
<path d="M229431 112436
L229431 111924
L229675 111924
" />
</g>
<g style="fill:#000000; fill-opacity:0.0; 
stroke:#000000; stroke-width:39.3701; stroke-opacity:1; 
stroke-linecap:round; stroke-linejoin:round;">
</g>
<g style="fill:#000000; fill-opacity:0.0; 
stroke:#000000; stroke-width:59.0551; stroke-opacity:1; 
stroke-linecap:round; stroke-linejoin:round;">
<path d="M229663 131633
L229614 131609
L229541 131609
L229468 131633
L229419 131682
L229395 131731
L229370 131828
L229370 131901
L229395 131999
L229419 132048
L229468 132096
L229541 132121
L229590 132121
L229663 132096
L229687 132072
L229687 131901
L229590 131901
" />
</g>
<g style="fill:#000000; fill-opacity:0.0; 
stroke:#000000; stroke-width:39.3701; stroke-opacity:1; 
stroke-linecap:round; stroke-linejoin:round;">
</g>
<g style="fill:#000000; fill-opacity:0.0; 
stroke:#000000; stroke-width:59.0551; stroke-opacity:1; 
stroke-linecap:round; stroke-linejoin:round;">
<path d="M229383 151806
L229383 151294
" />
<path d="M229383 151538
L229675 151538
" />
<path d="M229675 151806
L229675 151294
" />
</g>
<g style="fill:#000000; fill-opacity:0.0; 
stroke:#000000; stroke-width:39.3701; stroke-opacity:1; 
stroke-linecap:round; stroke-linejoin:round;">
</g>
<g style="fill:#000000; fill-opacity:0.0; 
stroke:#000000; stroke-width:59.0551; stroke-opacity:1; 
stroke-linecap:round; stroke-linejoin:round;">
<path d="M195841 158963
L195841 158373
L195981 158373
L196066 158401
L196122 158457
L196150 158513
L196178 158626
L196178 158710
L196150 158823
L196122 158879
L196066 158935
L195981 158963
L195841 158963
" />
<path d="M196684 158963
L196684 158654
L196656 158598
L196600 158569
L196487 158569
L196431 158598
" />
<path d="M196684 158935
L196628 158963
L196487 158963
L196431 158935
L196403 158879
L196403 158823
L196431 158766
L196487 158738
L196628 158738
L196684 158710
" />
<path d="M196881 158569
L197106 158569
" />
<path d="M196966 158373
L196966 158879
L196994 158935
L197050 158963
L197106 158963
" />
<path d="M197528 158935
L197472 158963
L197359 158963
L197303 158935
L197275 158879
L197275 158654
L197303 158598
L197359 158569
L197472 158569
L197528 158598
L197556 158654
L197556 158710
L197275 158766
" />
<path d="M197809 158907
L197837 158935
L197809 158963
L197781 158935
L197809 158907
L197809 158963
" />
<path d="M197809 158598
L197837 158626
L197809 158654
L197781 158626
L197809 158598
L197809 158654
" />
</g>
<g style="fill:#000000; fill-opacity:0.0; 
stroke:#000000; stroke-width:39.3701; stroke-opacity:1; 
stroke-linecap:round; stroke-linejoin:round;">
</g>
<g style="fill:#000000; fill-opacity:0.0; 
stroke:#000000; stroke-width:59.0551; stroke-opacity:1; 
stroke-linecap:round; stroke-linejoin:round;">
<path d="M186615 159247
L229135 159247
" />
</g>
<g style="fill:#000000; fill-opacity:0.0; 
stroke:#000000; stroke-width:39.3701; stroke-opacity:1; 
stroke-linecap:round; stroke-linejoin:round;">
</g>
<g style="fill:#000000; fill-opacity:0.0; 
stroke:#000000; stroke-width:59.0551; stroke-opacity:1; 
stroke-linecap:round; stroke-linejoin:round;">
<path d="M187179 160065
L187179 159475
" />
<path d="M187517 160065
L187264 159728
" />
<path d="M187517 159475
L187179 159812
" />
<path d="M187770 160065
L187770 159672
" />
<path d="M187770 159475
L187742 159503
L187770 159531
L187798 159503
L187770 159475
L187770 159531
" />
<path d="M188388 160009
L188360 160037
L188276 160065
L188220 160065
L188135 160037
L188079 159981
L188051 159925
L188023 159812
L188023 159728
L188051 159616
L188079 159559
L188135 159503
L188220 159475
L188276 159475
L188360 159503
L188388 159531
" />
<path d="M188895 160065
L188895 159756
L188867 159700
L188810 159672
L188698 159672
L188642 159700
" />
<path d="M188895 160037
L188838 160065
L188698 160065
L188642 160037
L188613 159981
L188613 159925
L188642 159869
L188698 159841
L188838 159841
L188895 159812
" />
<path d="M189429 160065
L189429 159475
" />
<path d="M189429 160037
L189373 160065
L189260 160065
L189204 160037
L189176 160009
L189148 159953
L189148 159784
L189176 159728
L189204 159700
L189260 159672
L189373 159672
L189429 159700
" />
<path d="M190160 159756
L190357 159756
" />
<path d="M190441 160065
L190160 160065
L190160 159475
L190441 159475
" />
<path d="M190694 160009
L190723 160037
L190694 160065
L190666 160037
L190694 160009
L190694 160065
" />
<path d="M190976 160065
L190976 159475
L191116 159475
L191201 159503
L191257 159559
L191285 159616
L191313 159728
L191313 159812
L191285 159925
L191257 159981
L191201 160037
L191116 160065
L190976 160065
" />
<path d="M191566 160009
L191594 160037
L191566 160065
L191538 160037
L191566 160009
L191566 160065
" />
<path d="M191819 159897
L192101 159897
" />
<path d="M191763 160065
L191960 159475
L192157 160065
" />
<path d="M192354 160009
L192382 160037
L192354 160065
L192325 160037
L192354 160009
L192354 160065
" />
<path d="M193535 159672
L193535 160262
" />
<path d="M193535 159700
L193591 159672
L193703 159672
L193760 159700
L193788 159728
L193816 159784
L193816 159953
L193788 160009
L193760 160037
L193703 160065
L193591 160065
L193535 160037
" />
<path d="M194322 160037
L194266 160065
L194153 160065
L194097 160037
L194069 160009
L194041 159953
L194041 159784
L194069 159728
L194097 159700
L194153 159672
L194266 159672
L194322 159700
" />
<path d="M194575 160065
L194575 159475
" />
<path d="M194575 159700
L194631 159672
L194744 159672
L194800 159700
L194828 159728
L194856 159784
L194856 159953
L194828 160009
L194800 160037
L194744 160065
L194631 160065
L194575 160037
" />
<path d="M195110 159672
L195110 160065
" />
<path d="M195110 159728
L195138 159700
L195194 159672
L195278 159672
L195334 159700
L195363 159756
L195363 160065
" />
<path d="M195869 160037
L195813 160065
L195700 160065
L195644 160037
L195616 159981
L195616 159756
L195644 159700
L195700 159672
L195813 159672
L195869 159700
L195897 159756
L195897 159812
L195616 159869
" />
<path d="M196094 159672
L196206 160065
L196319 159784
L196431 160065
L196544 159672
" />
<path d="M197387 160290
L197359 160262
L197303 160178
L197275 160122
L197247 160037
L197219 159897
L197219 159784
L197247 159644
L197275 159559
L197303 159503
L197359 159419
L197387 159391
" />
<path d="M197894 159475
L197612 159475
L197584 159756
L197612 159728
L197669 159700
L197809 159700
L197865 159728
L197894 159756
L197922 159812
L197922 159953
L197894 160009
L197865 160037
L197809 160065
L197669 160065
L197612 160037
L197584 160009
" />
<path d="M198175 160009
L198203 160037
L198175 160065
L198147 160037
L198175 160009
L198175 160065
" />
<path d="M198765 160065
L198428 160065
" />
<path d="M198597 160065
L198597 159475
L198540 159559
L198484 159616
L198428 159644
" />
<path d="M199018 160009
L199047 160037
L199018 160065
L198990 160037
L199018 160009
L199018 160065
" />
<path d="M199553 159672
L199553 160065
" />
<path d="M199412 159447
L199271 159869
L199637 159869
" />
<path d="M199806 160290
L199834 160262
L199890 160178
L199918 160122
L199946 160037
L199975 159897
L199975 159784
L199946 159644
L199918 159559
L199890 159503
L199834 159419
L199806 159391
" />
<path d="M200256 159841
L200706 159841
" />
<path d="M201296 160065
L200959 160065
" />
<path d="M201127 160065
L201127 159475
L201071 159559
L201015 159616
L200959 159644
" />
</g>
<g style="fill:#000000; fill-opacity:0.0; 
stroke:#000000; stroke-width:39.3701; stroke-opacity:1; 
stroke-linecap:round; stroke-linejoin:round;">
</g>
<g style="fill:#000000; fill-opacity:0.0; 
stroke:#000000; stroke-width:59.0551; stroke-opacity:1; 
stroke-linecap:round; stroke-linejoin:round;">
<path d="M186615 158066
L229135 158066
" />
</g>
<g style="fill:#000000; fill-opacity:0.0; 
stroke:#000000; stroke-width:39.3701; stroke-opacity:1; 
stroke-linecap:round; stroke-linejoin:round;">
</g>
<g style="fill:#000000; fill-opacity:0.0; 
stroke:#000000; stroke-width:118.11; stroke-opacity:1; 
stroke-linecap:round; stroke-linejoin:round;">
<path d="M221029 158963
L220832 158682
" />
<path d="M220691 158963
L220691 158373
L220916 158373
L220972 158401
L221000 158429
L221029 158485
L221029 158569
L221000 158626
L220972 158654
L220916 158682
L220691 158682
" />
<path d="M221507 158935
L221450 158963
L221338 158963
L221282 158935
L221253 158879
L221253 158654
L221282 158598
L221338 158569
L221450 158569
L221507 158598
L221535 158654
L221535 158710
L221253 158766
" />
<path d="M221732 158569
L221872 158963
L222013 158569
" />
<path d="M222238 158907
L222266 158935
L222238 158963
L222210 158935
L222238 158907
L222238 158963
" />
<path d="M222238 158598
L222266 158626
L222238 158654
L222210 158626
L222238 158598
L222238 158654
" />
</g>
<g style="fill:#000000; fill-opacity:0.0; 
stroke:#000000; stroke-width:39.3701; stroke-opacity:1; 
stroke-linecap:round; stroke-linejoin:round;">
</g>
<g style="fill:#000000; fill-opacity:0.0; 
stroke:#000000; stroke-width:59.0551; stroke-opacity:1; 
stroke-linecap:round; stroke-linejoin:round;">
<path d="M187151 158935
L187235 158963
L187376 158963
L187432 158935
L187460 158907
L187489 158851
L187489 158794
L187460 158738
L187432 158710
L187376 158682
L187264 158654
L187207 158626
L187179 158598
L187151 158541
L187151 158485
L187179 158429
L187207 158401
L187264 158373
L187404 158373
L187489 158401
" />
<path d="M187742 158963
L187742 158569
" />
<path d="M187742 158373
L187714 158401
L187742 158429
L187770 158401
L187742 158373
L187742 158429
" />
<path d="M187967 158569
L188276 158569
L187967 158963
L188276 158963
" />
<path d="M188726 158935
L188670 158963
L188557 158963
L188501 158935
L188473 158879
L188473 158654
L188501 158598
L188557 158569
L188670 158569
L188726 158598
L188754 158654
L188754 158710
L188473 158766
" />
<path d="M189007 158907
L189035 158935
L189007 158963
L188979 158935
L189007 158907
L189007 158963
" />
<path d="M189007 158598
L189035 158626
L189007 158654
L188979 158626
L189007 158598
L189007 158654
" />
<path d="M189710 158794
L189991 158794
" />
<path d="M189654 158963
L189851 158373
L190048 158963
" />
<path d="M190216 158429
L190244 158401
L190301 158373
L190441 158373
L190498 158401
L190526 158429
L190554 158485
L190554 158541
L190526 158626
L190188 158963
L190554 158963
" />
</g>
<g style="fill:#000000; fill-opacity:0.0; 
stroke:#000000; stroke-width:39.3701; stroke-opacity:1; 
stroke-linecap:round; stroke-linejoin:round;">
</g>
<g style="fill:#000000; fill-opacity:0.0; 
stroke:#000000; stroke-width:59.0551; stroke-opacity:1; 
stroke-linecap:round; stroke-linejoin:round;">
<path d="M220644 160065
L220644 159475
" />
<path d="M221178 160065
L221178 159475
" />
<path d="M221178 160037
L221122 160065
L221009 160065
L220953 160037
L220925 160009
L220897 159953
L220897 159784
L220925 159728
L220953 159700
L221009 159672
L221122 159672
L221178 159700
" />
<path d="M221459 160009
L221487 160037
L221459 160065
L221431 160037
L221459 160009
L221459 160065
" />
<path d="M221459 159700
L221487 159728
L221459 159756
L221431 159728
L221459 159700
L221459 159756
" />
<path d="M222500 160065
L222162 160065
" />
<path d="M222331 160065
L222331 159475
L222275 159559
L222219 159616
L222162 159644
" />
<path d="M223175 159447
L222669 160206
" />
<path d="M223681 160065
L223343 160065
" />
<path d="M223512 160065
L223512 159475
L223456 159559
L223400 159616
L223343 159644
" />
</g>
<g style="fill:#000000; fill-opacity:0.0; 
stroke:#000000; stroke-width:39.3701; stroke-opacity:1; 
stroke-linecap:round; stroke-linejoin:round;">
</g>
<g style="fill:#000000; fill-opacity:0.0; 
stroke:#000000; stroke-width:59.0551; stroke-opacity:1; 
stroke-linecap:round; stroke-linejoin:round;">
<path d="M186615 156491
L229135 156491
" />
</g>
<g style="fill:#000000; fill-opacity:0.0; 
stroke:#000000; stroke-width:39.3701; stroke-opacity:1; 
stroke-linecap:round; stroke-linejoin:round;">
</g>
<g style="fill:#000000; fill-opacity:0.0; 
stroke:#000000; stroke-width:157.48; stroke-opacity:1; 
stroke-linecap:round; stroke-linejoin:round;">
<path d="M187290 156769
L187740 156769
" />
<path d="M187416 157556
L187515 156769
" />
<path d="M187904 157556
L187969 157031
" />
<path d="M188002 156769
L187960 156806
L187993 156844
L188035 156806
L188002 156769
L187993 156844
" />
<path d="M188232 157031
L188532 157031
" />
<path d="M188377 156769
L188293 157444
L188321 157519
L188391 157556
L188466 157556
" />
<path d="M188841 157556
L188771 157519
L188743 157444
L188827 156769
" />
<path d="M189446 157519
L189366 157556
L189216 157556
L189146 157519
L189117 157444
L189155 157144
L189202 157069
L189282 157031
L189431 157031
L189502 157069
L189530 157144
L189521 157219
L189136 157294
" />
<path d="M189825 157481
L189858 157519
L189816 157556
L189783 157519
L189825 157481
L189816 157556
" />
<path d="M189877 157069
L189910 157106
L189867 157144
L189835 157106
L189877 157069
L189867 157144
" />
</g>
<g style="fill:#000000; fill-opacity:0.0; 
stroke:#000000; stroke-width:39.3701; stroke-opacity:1; 
stroke-linecap:round; stroke-linejoin:round;">
</g>
<g style="fill:#000000; fill-opacity:0.0; 
stroke:#000000; stroke-width:59.0551; stroke-opacity:1; 
stroke-linecap:round; stroke-linejoin:round;">
<path d="M187376 155740
L187179 155740
" />
<path d="M187179 156050
L187179 155459
L187460 155459
" />
<path d="M187685 156050
L187685 155656
" />
<path d="M187685 155459
L187657 155487
L187685 155515
L187714 155487
L187685 155459
L187685 155515
" />
<path d="M188051 156050
L187995 156022
L187967 155965
L187967 155459
" />
<path d="M188501 156022
L188445 156050
L188332 156050
L188276 156022
L188248 155965
L188248 155740
L188276 155684
L188332 155656
L188445 155656
L188501 155684
L188529 155740
L188529 155797
L188248 155853
" />
<path d="M188782 155993
L188810 156022
L188782 156050
L188754 156022
L188782 155993
L188782 156050
" />
<path d="M188782 155684
L188810 155712
L188782 155740
L188754 155712
L188782 155684
L188782 155740
" />
<path d="M189851 155993
L189823 156022
L189738 156050
L189682 156050
L189598 156022
L189541 155965
L189513 155909
L189485 155797
L189485 155712
L189513 155600
L189541 155544
L189598 155487
L189682 155459
L189738 155459
L189823 155487
L189851 155515
" />
<path d="M190076 155881
L190357 155881
" />
<path d="M190020 156050
L190216 155459
L190413 156050
" />
<path d="M190582 156022
L190666 156050
L190807 156050
L190863 156022
L190891 155993
L190919 155937
L190919 155881
L190891 155825
L190863 155797
L190807 155769
L190694 155740
L190638 155712
L190610 155684
L190582 155628
L190582 155572
L190610 155515
L190638 155487
L190694 155459
L190835 155459
L190919 155487
" />
<path d="M191172 155740
L191369 155740
" />
<path d="M191454 156050
L191172 156050
L191172 155459
L191454 155459
" />
<path d="M191566 156106
L192016 156106
" />
<path d="M192494 155993
L192466 156022
L192382 156050
L192325 156050
L192241 156022
L192185 155965
L192157 155909
L192129 155797
L192129 155712
L192157 155600
L192185 155544
L192241 155487
L192325 155459
L192382 155459
L192466 155487
L192494 155515
" />
<path d="M193000 155656
L193000 156050
" />
<path d="M192747 155656
L192747 155965
L192775 156022
L192832 156050
L192916 156050
L192972 156022
L193000 155993
" />
<path d="M193197 155656
L193422 155656
" />
<path d="M193282 155459
L193282 155965
L193310 156022
L193366 156050
L193422 156050
" />
<path d="M193535 155656
L193760 155656
" />
<path d="M193619 155459
L193619 155965
L193647 156022
L193703 156050
L193760 156050
" />
<path d="M193957 156050
L193957 155656
" />
<path d="M193957 155459
L193928 155487
L193957 155515
L193985 155487
L193957 155459
L193957 155515
" />
<path d="M194238 155656
L194238 156050
" />
<path d="M194238 155712
L194266 155684
L194322 155656
L194406 155656
L194463 155684
L194491 155740
L194491 156050
" />
<path d="M195025 155656
L195025 156134
L194997 156190
L194969 156218
L194913 156247
L194828 156247
L194772 156218
" />
<path d="M195025 156022
L194969 156050
L194856 156050
L194800 156022
L194772 155993
L194744 155937
L194744 155769
L194772 155712
L194800 155684
L194856 155656
L194969 155656
L195025 155684
" />
<path d="M195306 155993
L195334 156022
L195306 156050
L195278 156022
L195306 155993
L195306 156050
" />
<path d="M195588 156050
L195588 155459
" />
<path d="M195644 155825
L195813 156050
" />
<path d="M195813 155656
L195588 155881
" />
<path d="M196066 156050
L196066 155656
" />
<path d="M196066 155459
L196038 155487
L196066 155515
L196094 155487
L196066 155459
L196066 155515
" />
<path d="M196600 156022
L196544 156050
L196431 156050
L196375 156022
L196347 155993
L196319 155937
L196319 155769
L196347 155712
L196375 155684
L196431 155656
L196544 155656
L196600 155684
" />
<path d="M197106 156050
L197106 155740
L197078 155684
L197022 155656
L196909 155656
L196853 155684
" />
<path d="M197106 156022
L197050 156050
L196909 156050
L196853 156022
L196825 155965
L196825 155909
L196853 155853
L196909 155825
L197050 155825
L197106 155797
" />
<path d="M197640 156050
L197640 155459
" />
<path d="M197640 156022
L197584 156050
L197472 156050
L197415 156022
L197387 155993
L197359 155937
L197359 155769
L197387 155712
L197415 155684
L197472 155656
L197584 155656
L197640 155684
" />
<path d="M197781 156106
L198231 156106
" />
<path d="M198372 155656
L198372 156247
" />
<path d="M198372 155684
L198428 155656
L198540 155656
L198597 155684
L198625 155712
L198653 155769
L198653 155937
L198625 155993
L198597 156022
L198540 156050
L198428 156050
L198372 156022
" />
<path d="M199159 156022
L199103 156050
L198990 156050
L198934 156022
L198906 155993
L198878 155937
L198878 155769
L198906 155712
L198934 155684
L198990 155656
L199103 155656
L199159 155684
" />
<path d="M199412 156050
L199412 155459
" />
<path d="M199412 155684
L199468 155656
L199581 155656
L199637 155684
L199665 155712
L199693 155769
L199693 155937
L199665 155993
L199637 156022
L199581 156050
L199468 156050
L199412 156022
" />
</g>
<g style="fill:#000000; fill-opacity:0.0; 
stroke:#000000; stroke-width:39.3701; stroke-opacity:1; 
stroke-linecap:round; stroke-linejoin:round;">
</g>
<g style="fill:#000000; fill-opacity:0.0; 
stroke:#000000; stroke-width:59.0551; stroke-opacity:1; 
stroke-linecap:round; stroke-linejoin:round;">
<path d="M186615 154129
L229135 154129
" />
</g>
<g style="fill:#000000; fill-opacity:0.0; 
stroke:#000000; stroke-width:39.3701; stroke-opacity:1; 
stroke-linecap:round; stroke-linejoin:round;">
</g>
<g style="fill:#000000; fill-opacity:0.0; 
stroke:#000000; stroke-width:59.0551; stroke-opacity:1; 
stroke-linecap:round; stroke-linejoin:round;">
<path d="M187151 154959
L187235 154987
L187376 154987
L187432 154959
L187460 154930
L187489 154874
L187489 154818
L187460 154762
L187432 154734
L187376 154706
L187264 154677
L187207 154649
L187179 154621
L187151 154565
L187151 154509
L187179 154452
L187207 154424
L187264 154396
L187404 154396
L187489 154424
" />
<path d="M187742 154987
L187742 154396
" />
<path d="M187995 154987
L187995 154677
L187967 154621
L187910 154593
L187826 154593
L187770 154621
L187742 154649
" />
<path d="M188501 154959
L188445 154987
L188332 154987
L188276 154959
L188248 154902
L188248 154677
L188276 154621
L188332 154593
L188445 154593
L188501 154621
L188529 154677
L188529 154734
L188248 154790
" />
<path d="M189007 154959
L188951 154987
L188838 154987
L188782 154959
L188754 154902
L188754 154677
L188782 154621
L188838 154593
L188951 154593
L189007 154621
L189035 154677
L189035 154734
L188754 154790
" />
<path d="M189204 154593
L189429 154593
" />
<path d="M189288 154396
L189288 154902
L189316 154959
L189373 154987
L189429 154987
" />
<path d="M189626 154930
L189654 154959
L189626 154987
L189598 154959
L189626 154930
L189626 154987
" />
<path d="M189626 154621
L189654 154649
L189626 154677
L189598 154649
L189626 154621
L189626 154677
" />
</g>
<g style="fill:#000000; fill-opacity:0.0; 
stroke:#000000; stroke-width:39.3701; stroke-opacity:1; 
stroke-linecap:round; stroke-linejoin:round;">
</g>
<g style="fill:#000000; fill-opacity:0.0; 
stroke:#000000; stroke-width:59.0551; stroke-opacity:1; 
stroke-linecap:round; stroke-linejoin:round;">
<path d="M194489 158066
L194489 159247
" />
</g>
<g style="fill:#000000; fill-opacity:0.0; 
stroke:#000000; stroke-width:39.3701; stroke-opacity:1; 
stroke-linecap:round; stroke-linejoin:round;">
</g>
<g style="fill:#000000; fill-opacity:0.0; 
stroke:#000000; stroke-width:59.0551; stroke-opacity:1; 
stroke-linecap:round; stroke-linejoin:round;">
<path d="M219686 158066
L219686 160625
" />
</g>
<g style="fill:#C2C200; fill-opacity:0.0; 
stroke:#C2C200; stroke-width:59.0551; stroke-opacity:1; 
stroke-linecap:round; stroke-linejoin:round;">
</g>
<g style="fill:#C2C200; fill-opacity:0.0; 
stroke:#C2C200; stroke-width:39.3701; stroke-opacity:1; 
stroke-linecap:round; stroke-linejoin:round;">
<path d="M0 39566.9 A1929.13 1929.13 0.0 0 0 1929.13 41496 " />
<path d="M123977 1929.13 A1929.13 1929.13 0.0 0 0 122048 0 " />
<path d="M122048 41496 A1929.13 1929.13 0.0 0 0 123977 39566.9 " />
<path d="M1929 0
L61989 0
" />
<path d="M123977 39566
L123977 1929
" />
<path d="M61989 0
L122048 0
" />
<path d="M0 1929
L0 39566
" />
<path d="M1929 41496
L54489 41496
" />
<path d="M54489 41496
L122048 41496
" />
<path d="M1929.13 0 A1929.13 1929.13 0.0 0 0 0 1929.13 " />
<path d="M60114 24076
L60114 17362
" />
<path d="M54883 31970
L55970 31970
" />
<path d="M54489 41496
L54489 32363
" />
<path d="M58239 16575
L58239 9863
" />
<path d="M61989 9076
L61989 0
" />
<path d="M58633 9470
L61596 9470
" />
<path d="M56757 24470
L59720 24470
" />
<path d="M59720 16968
L58633 16968
" />
<path d="M61596 9470
L61635 9468
" />
<path d="M61635 9468
L61670 9463
" />
<path d="M61670 9463
L61702 9456
" />
<path d="M61702 9456
L61732 9446
" />
<path d="M61732 9446
L61760 9434
" />
<path d="M61760 9434
L61787 9421
" />
<path d="M61787 9421
L61813 9405
" />
<path d="M61813 9405
L61836 9389
" />
<path d="M61836 9389
L61857 9371
" />
<path d="M61857 9371
L61878 9351
" />
<path d="M61878 9351
L61897 9331
" />
<path d="M61897 9331
L61915 9307
" />
<path d="M61915 9307
L61932 9282
" />
<path d="M61932 9282
L61946 9256
" />
<path d="M61946 9256
L61959 9229
" />
<path d="M61959 9229
L61970 9201
" />
<path d="M61970 9201
L61979 9169
" />
<path d="M61979 9169
L61985 9136
" />
<path d="M61985 9136
L61989 9100
" />
<path d="M61989 9100
L61990 9076
" />
<path d="M60114 17363
L60112 17324
" />
<path d="M60112 17324
L60107 17289
" />
<path d="M60107 17289
L60100 17257
" />
<path d="M60100 17257
L60090 17227
" />
<path d="M60090 17227
L60079 17199
" />
<path d="M60079 17199
L60065 17172
" />
<path d="M60065 17172
L60050 17148
" />
<path d="M60050 17148
L60034 17124
" />
<path d="M60034 17124
L60016 17102
" />
<path d="M60016 17102
L59996 17081
" />
<path d="M59996 17081
L59975 17062
" />
<path d="M59975 17062
L59952 17044
" />
<path d="M59952 17044
L59929 17028
" />
<path d="M59929 17028
L59903 17014
" />
<path d="M59903 17014
L59876 17001
" />
<path d="M59876 17001
L59848 16990
" />
<path d="M59848 16990
L59817 16980
" />
<path d="M59817 16980
L59784 16973
" />
<path d="M59784 16973
L59749 16969
" />
<path d="M59749 16969
L59721 16968
" />
<path d="M58634 9470
L58596 9472
" />
<path d="M58596 9472
L58561 9477
" />
<path d="M58561 9477
L58529 9484
" />
<path d="M58529 9484
L58499 9494
" />
<path d="M58499 9494
L58471 9505
" />
<path d="M58471 9505
L58444 9519
" />
<path d="M58444 9519
L58419 9534
" />
<path d="M58419 9534
L58396 9550
" />
<path d="M58396 9550
L58374 9568
" />
<path d="M58374 9568
L58353 9587
" />
<path d="M58353 9587
L58334 9608
" />
<path d="M58334 9608
L58317 9630
" />
<path d="M58317 9630
L58300 9654
" />
<path d="M58300 9654
L58286 9679
" />
<path d="M58286 9679
L58272 9707
" />
<path d="M58272 9707
L58261 9736
" />
<path d="M58261 9736
L58252 9766
" />
<path d="M58252 9766
L58245 9799
" />
<path d="M58245 9799
L58241 9837
" />
<path d="M58241 9837
L58240 9864
" />
<path d="M58240 16575
L58242 16613
" />
<path d="M58242 16613
L58247 16648
" />
<path d="M58247 16648
L58254 16680
" />
<path d="M58254 16680
L58264 16710
" />
<path d="M58264 16710
L58275 16739
" />
<path d="M58275 16739
L58289 16765
" />
<path d="M58289 16765
L58304 16790
" />
<path d="M58304 16790
L58320 16814
" />
<path d="M58320 16814
L58338 16835
" />
<path d="M58338 16835
L58358 16856
" />
<path d="M58358 16856
L58378 16875
" />
<path d="M58378 16875
L58401 16893
" />
<path d="M58401 16893
L58424 16908
" />
<path d="M58424 16908
L58449 16923
" />
<path d="M58449 16923
L58476 16936
" />
<path d="M58476 16936
L58505 16947
" />
<path d="M58505 16947
L58536 16956
" />
<path d="M58536 16956
L58568 16963
" />
<path d="M58568 16963
L58604 16967
" />
<path d="M58604 16967
L58634 16968
" />
<path d="M54884 31970
L54846 31972
" />
<path d="M54846 31972
L54811 31977
" />
<path d="M54811 31977
L54779 31984
" />
<path d="M54779 31984
L54749 31994
" />
<path d="M54749 31994
L54721 32005
" />
<path d="M54721 32005
L54694 32019
" />
<path d="M54694 32019
L54669 32034
" />
<path d="M54669 32034
L54646 32050
" />
<path d="M54646 32050
L54624 32068
" />
<path d="M54624 32068
L54603 32087
" />
<path d="M54603 32087
L54584 32108
" />
<path d="M54584 32108
L54567 32130
" />
<path d="M54567 32130
L54550 32154
" />
<path d="M54550 32154
L54536 32179
" />
<path d="M54536 32179
L54522 32207
" />
<path d="M54522 32207
L54511 32236
" />
<path d="M54511 32236
L54502 32266
" />
<path d="M54502 32266
L54495 32299
" />
<path d="M54495 32299
L54491 32337
" />
<path d="M54491 32337
L54490 32364
" />
<path d="M55971 31970
L56010 31968
" />
<path d="M56010 31968
L56044 31963
" />
<path d="M56044 31963
L56077 31956
" />
<path d="M56077 31956
L56107 31946
" />
<path d="M56107 31946
L56135 31934
" />
<path d="M56135 31934
L56162 31921
" />
<path d="M56162 31921
L56187 31905
" />
<path d="M56187 31905
L56210 31889
" />
<path d="M56210 31889
L56232 31871
" />
<path d="M56232 31871
L56252 31851
" />
<path d="M56252 31851
L56271 31831
" />
<path d="M56271 31831
L56290 31807
" />
<path d="M56290 31807
L56306 31782
" />
<path d="M56306 31782
L56321 31756
" />
<path d="M56321 31756
L56333 31729
" />
<path d="M56333 31729
L56344 31701
" />
<path d="M56344 31701
L56353 31669
" />
<path d="M56353 31669
L56360 31636
" />
<path d="M56360 31636
L56364 31600
" />
<path d="M56364 31600
L56364 31576
" />
<path d="M56364 31576
L56364 24863
" />
<path d="M56758 24470
L56720 24472
" />
<path d="M56720 24472
L56685 24477
" />
<path d="M56685 24477
L56653 24484
" />
<path d="M56653 24484
L56623 24494
" />
<path d="M56623 24494
L56595 24505
" />
<path d="M56595 24505
L56568 24519
" />
<path d="M56568 24519
L56543 24534
" />
<path d="M56543 24534
L56520 24550
" />
<path d="M56520 24550
L56498 24568
" />
<path d="M56498 24568
L56478 24587
" />
<path d="M56478 24587
L56459 24608
" />
<path d="M56459 24608
L56441 24630
" />
<path d="M56441 24630
L56425 24654
" />
<path d="M56425 24654
L56410 24679
" />
<path d="M56410 24679
L56397 24707
" />
<path d="M56397 24707
L56386 24736
" />
<path d="M56386 24736
L56376 24766
" />
<path d="M56376 24766
L56370 24799
" />
<path d="M56370 24799
L56365 24837
" />
<path d="M56365 24837
L56364 24864
" />
<path d="M116507 68060
L116507 75264
" />
<path d="M54955 69025
L58705 69025
" />
<path d="M119153 46525
L119153 68060
" />
<path d="M113695 75264
L113695 82764
" />
<path d="M119153 68060
L116507 68060
" />
<path d="M59942 53368
L59942 43897
" />
<path d="M51919 52607
L51919 46370
" />
<path d="M48169 61367
L48169 52607
" />
<path d="M58067 60866
L56192 60866
" />
<path d="M69464 82764
L69464 83102
" />
<path d="M121949 85393
L121949 43897
" />
<path d="M69464 82764
L113695 82764
" />
<path d="M60580 46525
L119153 46525
" />
<path d="M56830 60264
L56830 54025
" />
<path d="M52442 85393
L121949 85393
" />
<path d="M54317 68368
L58067 68368
" />
<path d="M60580 54025
L60580 46525
" />
<path d="M58705 69025
L58705 60264
" />
<path d="M116507 75264
L113695 75264
" />
<path d="M54955 75264
L55846 75264
" />
<path d="M54955 69025
L54955 75264
" />
<path d="M56831 54025
L60580 54025
" />
<path d="M55863 75264
L55863 83102
" />
<path d="M58705 60264
L56831 60264
" />
<path d="M59942 43897
L121949 43897
" />
<path d="M50665 68210
L50665 60708
" />
<path d="M52442 75868
L54317 75868
" />
<path d="M54317 75868
L54317 68368
" />
<path d="M48169 52607
L51919 52607
" />
<path d="M58067 68368
L58067 60866
" />
<path d="M50044 61367
L48169 61367
" />
<path d="M50665 60708
L48790 60708
" />
<path d="M-1196 82607
L28169 82607
" />
<path d="M-9448 43740
L-9448 85236
" />
<path d="M56192 53368
L59942 53368
" />
<path d="M-6821 75107
L-6821 46367
" />
<path d="M46294 75107
L46294 67607
" />
<path d="M41516 75107
L46279 75107
" />
<path d="M28169 82607
L28169 82945
" />
<path d="M45040 75710
L46915 75710
" />
<path d="M46294 67607
L50044 67607
" />
<path d="M41516 82945
L41516 75107
" />
<path d="M48790 53210
L52540 53210
" />
<path d="M-6821 46367
L51919 46367
" />
<path d="M46915 75710
L46915 68210
" />
<path d="M-1196 82607
L-1196 75107
" />
<path d="M52540 53210
L52540 43740
" />
<path d="M56192 60866
L56192 53368
" />
<path d="M-1200 75107
L-6821 75107
" />
<path d="M50044 67607
L50044 61367
" />
<path d="M28169 82945
L41516 82945
" />
<path d="M46915 68210
L50665 68210
" />
<path d="M-9449 85236
L45040 85236
" />
<path d="M52442 85393
L52442 75868
" />
<path d="M-9448 43740
L52540 43740
" />
<path d="M45040 85236
L45040 75710
" />
<path d="M48790 60708
L48790 53210
" />
<path d="M55863 83102
L69464 83102
" />
<path d="M71512 38867
L71512 39205
" />
<path d="M71512 38867
L115743 38867
" />
<path d="M115743 31367
L115743 38867
" />
<path d="M118555 31367
L115743 31367
" />
<path d="M118555 24163
L118555 31367
" />
<path d="M121201 24163
L118555 24163
" />
<path d="M121201 2627
L121201 24163
" />
<path d="M57910 31367
L57910 39205
" />
<path d="M57002 31367
L57894 31367
" />
<path d="M62627 2627
L121201 2627
" />
<path d="M62627 10127
L62627 2627
" />
<path d="M58878 10127
L62627 10127
" />
<path d="M58877 16367
L58877 10127
" />
<path d="M60752 16367
L58878 16367
" />
<path d="M60752 25127
L60752 16367
" />
<path d="M57002 25127
L60752 25127
" />
<path d="M57910 39205
L71512 39205
" />
<path d="M57002 25127
L57002 31367
" />
<path d="M61368 8867
L61368 2630
" />
<path d="M57618 8867
L61368 8867
" />
<path d="M57618 17627
L57618 8867
" />
<path d="M59493 17627
L57618 17627
" />
<path d="M59493 23867
L59493 17627
" />
<path d="M55743 23867
L59493 23867
" />
<path d="M55743 31367
L55743 23867
" />
<path d="M50964 31367
L55728 31367
" />
<path d="M50964 39205
L50964 31367
" />
<path d="M37618 39205
L50964 39205
" />
<path d="M37618 38867
L37618 39205
" />
<path d="M2627 2627
L61368 2627
" />
<path d="M2627 31367
L2627 2627
" />
<path d="M8248 31367
L2627 31367
" />
<path d="M8252 38867
L8252 31367
" />
<path d="M8252 38867
L37618 38867
" />
<path d="M59721 24470
L59760 24468
" />
<path d="M59760 24468
L59794 24463
" />
<path d="M59794 24463
L59827 24456
" />
<path d="M59827 24456
L59857 24446
" />
<path d="M59857 24446
L59885 24434
" />
<path d="M59885 24434
L59912 24421
" />
<path d="M59912 24421
L59937 24405
" />
<path d="M59937 24405
L59960 24389
" />
<path d="M59960 24389
L59982 24371
" />
<path d="M59982 24371
L60002 24351
" />
<path d="M60002 24351
L60021 24331
" />
<path d="M60021 24331
L60040 24307
" />
<path d="M60040 24307
L60056 24282
" />
<path d="M60056 24282
L60071 24256
" />
<path d="M60071 24256
L60083 24229
" />
<path d="M60083 24229
L60094 24201
" />
<path d="M60094 24201
L60103 24169
" />
<path d="M60103 24169
L60110 24136
" />
<path d="M60110 24136
L60114 24100
" />
<path d="M60114 24100
L60114 24076
" />
<g >
</g>
</g>
<g style="fill:#000000; fill-opacity:0.0; 
stroke:#000000; stroke-width:39.3701; stroke-opacity:1; 
stroke-linecap:round; stroke-linejoin:round;">
</g>
<g style="fill:#C2C200; fill-opacity:0.0; 
stroke:#C2C200; stroke-width:39.3701; stroke-opacity:1; 
stroke-linecap:round; stroke-linejoin:round;">
<path d="M57910 31367
L57910 39205
" />
<path d="M58877 16367
L58877 10127
" />
<path d="M57910 39205
L71512 39205
" />
<path d="M57002 25127
L60752 25127
" />
<path d="M60752 16367
L58877 16367
" />
<path d="M62627 10127
L62627 2627
" />
<path d="M115743 31367
L115743 38867
" />
<path d="M57002 31367
L57910 31367
" />
<path d="M118555 31367
L115743 31367
" />
<path d="M55963 38237
L55938 38221
" />
<path d="M55938 38221
L55914 38205
" />
<path d="M55914 38205
L55890 38189
" />
<path d="M55890 38189
L55865 38169
" />
<path d="M55865 38169
L55843 38151
" />
<path d="M55843 38151
L55823 38132
" />
<path d="M55823 38132
L55802 38113
" />
<path d="M55802 38113
L55782 38091
" />
<path d="M55782 38091
L55763 38070
" />
<path d="M55763 38070
L55745 38049
" />
<path d="M55745 38049
L55728 38026
" />
<path d="M55728 38026
L55712 38003
" />
<path d="M55712 38003
L55696 37979
" />
<path d="M55696 37979
L55681 37954
" />
<path d="M55681 37954
L55667 37928
" />
<path d="M55667 37928
L55654 37902
" />
<path d="M55654 37902
L55641 37872
" />
<path d="M55641 37872
L55629 37844
" />
<path d="M55629 37844
L55619 37814
" />
<path d="M55619 37814
L55609 37784
" />
<path d="M55609 37784
L55601 37752
" />
<path d="M55601 37752
L55594 37719
" />
<path d="M55594 37719
L55588 37685
" />
<path d="M55588 37685
L55584 37650
" />
<path d="M55584 37650
L55581 37613
" />
<path d="M55581 37613
L55580 37574
" />
<path d="M55580 37574
L55580 37572
" />
<path d="M71512 38867
L71512 39205
" />
<path d="M58877 10127
L62627 10127
" />
<path d="M55963 36907
L55989 36893
" />
<path d="M55989 36893
L56015 36880
" />
<path d="M56015 36880
L56043 36867
" />
<path d="M56043 36867
L56072 36855
" />
<path d="M56072 36855
L56102 36844
" />
<path d="M56102 36844
L56132 36835
" />
<path d="M56132 36835
L56163 36827
" />
<path d="M56163 36827
L56196 36819
" />
<path d="M56196 36819
L56231 36813
" />
<path d="M56231 36813
L56267 36808
" />
<path d="M56267 36808
L56304 36805
" />
<path d="M56304 36805
L56344 36804
" />
<path d="M56344 36804
L56383 36805
" />
<path d="M56383 36805
L56420 36808
" />
<path d="M56420 36808
L56457 36812
" />
<path d="M56457 36812
L56491 36818
" />
<path d="M56491 36818
L56524 36825
" />
<path d="M56524 36825
L56556 36833
" />
<path d="M56556 36833
L56588 36843
" />
<path d="M56588 36843
L56617 36853
" />
<path d="M56617 36853
L56645 36864
" />
<path d="M56645 36864
L56673 36877
" />
<path d="M56673 36877
L56699 36890
" />
<path d="M56699 36890
L56727 36905
" />
<path d="M56727 36905
L56731 36907
" />
<path d="M121201 24163
L118555 24163
" />
<path d="M55580 37572
L55581 37533
" />
<path d="M55581 37533
L55583 37495
" />
<path d="M55583 37495
L55588 37460
" />
<path d="M55588 37460
L55594 37425
" />
<path d="M55594 37425
L55601 37391
" />
<path d="M55601 37391
L55610 37359
" />
<path d="M55610 37359
L55619 37328
" />
<path d="M55619 37328
L55630 37299
" />
<path d="M55630 37299
L55641 37270
" />
<path d="M55641 37270
L55654 37243
" />
<path d="M55654 37243
L55667 37216
" />
<path d="M55667 37216
L55681 37190
" />
<path d="M55681 37190
L55697 37164
" />
<path d="M55697 37164
L55712 37141
" />
<path d="M55712 37141
L55728 37117
" />
<path d="M55728 37117
L55746 37095
" />
<path d="M55746 37095
L55764 37073
" />
<path d="M55764 37073
L55782 37052
" />
<path d="M55782 37052
L55802 37032
" />
<path d="M55802 37032
L55822 37012
" />
<path d="M55822 37012
L55844 36992
" />
<path d="M55844 36992
L55865 36974
" />
<path d="M55865 36974
L55888 36957
" />
<path d="M55888 36957
L55911 36940
" />
<path d="M55911 36940
L55935 36924
" />
<path d="M55935 36924
L55960 36909
" />
<path d="M55960 36909
L55963 36907
" />
<path d="M57115 37572
L57114 37611
" />
<path d="M57114 37611
L57111 37649
" />
<path d="M57111 37649
L57107 37684
" />
<path d="M57107 37684
L57101 37719
" />
<path d="M57101 37719
L57094 37752
" />
<path d="M57094 37752
L57085 37783
" />
<path d="M57085 37783
L57076 37814
" />
<path d="M57076 37814
L57066 37843
" />
<path d="M57066 37843
L57054 37871
" />
<path d="M57054 37871
L57041 37900
" />
<path d="M57041 37900
L57028 37927
" />
<path d="M57028 37927
L57014 37953
" />
<path d="M57014 37953
L56999 37978
" />
<path d="M56999 37978
L56983 38003
" />
<path d="M56983 38003
L56966 38026
" />
<path d="M56966 38026
L56949 38049
" />
<path d="M56949 38049
L56931 38071
" />
<path d="M56931 38071
L56912 38092
" />
<path d="M56912 38092
L56892 38113
" />
<path d="M56892 38113
L56872 38132
" />
<path d="M56872 38132
L56851 38151
" />
<path d="M56851 38151
L56829 38170
" />
<path d="M56829 38170
L56807 38187
" />
<path d="M56807 38187
L56784 38204
" />
<path d="M56784 38204
L56759 38220
" />
<path d="M56759 38220
L56733 38236
" />
<path d="M56733 38236
L56731 38237
" />
<path d="M71512 38867
L115743 38867
" />
<path d="M118555 24163
L118555 31367
" />
<path d="M62627 2627
L121201 2627
" />
<path d="M60752 25127
L60752 16367
" />
<path d="M121201 2627
L121201 24163
" />
<path d="M57002 25127
L57002 31367
" />
<path d="M123977 39566
L123977 1929
" />
<path d="M119668 36907
L119693 36893
" />
<path d="M119693 36893
L119720 36880
" />
<path d="M119720 36880
L119747 36867
" />
<path d="M119747 36867
L119777 36855
" />
<path d="M119777 36855
L119806 36844
" />
<path d="M119806 36844
L119836 36835
" />
<path d="M119836 36835
L119868 36827
" />
<path d="M119868 36827
L119901 36819
" />
<path d="M119901 36819
L119936 36813
" />
<path d="M119936 36813
L119972 36808
" />
<path d="M119972 36808
L120009 36805
" />
<path d="M120009 36805
L120048 36804
" />
<path d="M120048 36804
L120087 36805
" />
<path d="M120087 36805
L120124 36808
" />
<path d="M120124 36808
L120162 36812
" />
<path d="M120162 36812
L120196 36818
" />
<path d="M120196 36818
L120229 36825
" />
<path d="M120229 36825
L120261 36833
" />
<path d="M120261 36833
L120292 36843
" />
<path d="M120292 36843
L120321 36853
" />
<path d="M120321 36853
L120350 36864
" />
<path d="M120350 36864
L120377 36877
" />
<path d="M120377 36877
L120404 36890
" />
<path d="M120404 36890
L120432 36905
" />
<path d="M120432 36905
L120436 36907
" />
<path d="M123977 1929.13 A1929.13 1929.13 0.0 0 0 122048 0 " />
<path d="M56731 38237
L56706 38251
" />
<path d="M56706 38251
L56679 38264
" />
<path d="M56679 38264
L56652 38277
" />
<path d="M56652 38277
L56623 38288
" />
<path d="M56623 38288
L56593 38299
" />
<path d="M56593 38299
L56563 38309
" />
<path d="M56563 38309
L56531 38317
" />
<path d="M56531 38317
L56498 38325
" />
<path d="M56498 38325
L56465 38331
" />
<path d="M56465 38331
L56428 38335
" />
<path d="M56428 38335
L56390 38338
" />
<path d="M56390 38338
L56352 38340
" />
<path d="M56352 38340
L56310 38339
" />
<path d="M56310 38339
L56273 38336
" />
<path d="M56273 38336
L56237 38332
" />
<path d="M56237 38332
L56203 38326
" />
<path d="M56203 38326
L56170 38319
" />
<path d="M56170 38319
L56138 38311
" />
<path d="M56138 38311
L56108 38301
" />
<path d="M56108 38301
L56078 38291
" />
<path d="M56078 38291
L56049 38279
" />
<path d="M56049 38279
L56022 38267
" />
<path d="M56022 38267
L55995 38254
" />
<path d="M55995 38254
L55968 38239
" />
<path d="M55968 38239
L55963 38237
" />
<path d="M54489 41496
L122048 41496
" />
<path d="M56731 36907
L56756 36922
" />
<path d="M56756 36922
L56780 36938
" />
<path d="M56780 36938
L56803 36954
" />
<path d="M56803 36954
L56826 36972
" />
<path d="M56826 36972
L56848 36990
" />
<path d="M56848 36990
L56870 37010
" />
<path d="M56870 37010
L56891 37029
" />
<path d="M56891 37029
L56910 37050
" />
<path d="M56910 37050
L56930 37072
" />
<path d="M56930 37072
L56948 37093
" />
<path d="M56948 37093
L56965 37116
" />
<path d="M56965 37116
L56981 37139
" />
<path d="M56981 37139
L56997 37163
" />
<path d="M56997 37163
L57014 37191
" />
<path d="M57014 37191
L57028 37218
" />
<path d="M57028 37218
L57042 37245
" />
<path d="M57042 37245
L57054 37273
" />
<path d="M57054 37273
L57066 37301
" />
<path d="M57066 37301
L57076 37331
" />
<path d="M57076 37331
L57086 37361
" />
<path d="M57086 37361
L57094 37392
" />
<path d="M57094 37392
L57101 37426
" />
<path d="M57101 37426
L57107 37460
" />
<path d="M57107 37460
L57111 37498
" />
<path d="M57111 37498
L57114 37535
" />
<path d="M57114 37535
L57115 37572
" />
<path d="M122048 41496 A1929.13 1929.13 0.0 0 0 123977 39566.9 " />
<path d="M119284 37572
L119285 37533
" />
<path d="M119285 37533
L119288 37495
" />
<path d="M119288 37495
L119292 37460
" />
<path d="M119292 37460
L119298 37425
" />
<path d="M119298 37425
L119306 37391
" />
<path d="M119306 37391
L119314 37359
" />
<path d="M119314 37359
L119324 37328
" />
<path d="M119324 37328
L119335 37299
" />
<path d="M119335 37299
L119346 37270
" />
<path d="M119346 37270
L119358 37243
" />
<path d="M119358 37243
L119372 37216
" />
<path d="M119372 37216
L119386 37190
" />
<path d="M119386 37190
L119401 37164
" />
<path d="M119401 37164
L119417 37141
" />
<path d="M119417 37141
L119433 37117
" />
<path d="M119433 37117
L119451 37095
" />
<path d="M119451 37095
L119468 37073
" />
<path d="M119468 37073
L119487 37052
" />
<path d="M119487 37052
L119506 37032
" />
<path d="M119506 37032
L119527 37012
" />
<path d="M119527 37012
L119548 36992
" />
<path d="M119548 36992
L119570 36974
" />
<path d="M119570 36974
L119592 36957
" />
<path d="M119592 36957
L119616 36940
" />
<path d="M119616 36940
L119640 36924
" />
<path d="M119640 36924
L119664 36909
" />
<path d="M119664 36909
L119668 36907
" />
<path d="M120820 37572
L120819 37610
" />
<path d="M120819 37610
L120816 37649
" />
<path d="M120816 37649
L120812 37684
" />
<path d="M120812 37684
L120806 37718
" />
<path d="M120806 37718
L120799 37751
" />
<path d="M120799 37751
L120790 37783
" />
<path d="M120790 37783
L120781 37813
" />
<path d="M120781 37813
L120771 37843
" />
<path d="M120771 37843
L120759 37871
" />
<path d="M120759 37871
L120747 37899
" />
<path d="M120747 37899
L120733 37926
" />
<path d="M120733 37926
L120719 37952
" />
<path d="M120719 37952
L120704 37977
" />
<path d="M120704 37977
L120688 38001
" />
<path d="M120688 38001
L120672 38025
" />
<path d="M120672 38025
L120655 38047
" />
<path d="M120655 38047
L120637 38069
" />
<path d="M120637 38069
L120618 38090
" />
<path d="M120618 38090
L120599 38110
" />
<path d="M120599 38110
L120579 38130
" />
<path d="M120579 38130
L120558 38150
" />
<path d="M120558 38150
L120534 38170
" />
<path d="M120534 38170
L120511 38187
" />
<path d="M120511 38187
L120489 38203
" />
<path d="M120489 38203
L120462 38221
" />
<path d="M120462 38221
L120438 38236
" />
<path d="M120438 38236
L120412 38250
" />
<path d="M120412 38250
L120386 38264
" />
<path d="M120386 38264
L120358 38276
" />
<path d="M120358 38276
L120329 38288
" />
<path d="M120329 38288
L120299 38299
" />
<path d="M120299 38299
L120269 38309
" />
<path d="M120269 38309
L120238 38317
" />
<path d="M120238 38317
L120205 38324
" />
<path d="M120205 38324
L120171 38331
" />
<path d="M120171 38331
L120136 38335
" />
<path d="M120136 38335
L120099 38338
" />
<path d="M120099 38338
L120060 38340
" />
<path d="M120060 38340
L120052 38340
" />
<path d="M120436 36907
L120461 36922
" />
<path d="M120461 36922
L120485 36938
" />
<path d="M120485 36938
L120508 36954
" />
<path d="M120508 36954
L120531 36972
" />
<path d="M120531 36972
L120553 36990
" />
<path d="M120553 36990
L120575 37010
" />
<path d="M120575 37010
L120595 37029
" />
<path d="M120595 37029
L120615 37050
" />
<path d="M120615 37050
L120634 37072
" />
<path d="M120634 37072
L120652 37093
" />
<path d="M120652 37093
L120669 37116
" />
<path d="M120669 37116
L120686 37139
" />
<path d="M120686 37139
L120702 37163
" />
<path d="M120702 37163
L120718 37191
" />
<path d="M120718 37191
L120733 37218
" />
<path d="M120733 37218
L120746 37245
" />
<path d="M120746 37245
L120759 37273
" />
<path d="M120759 37273
L120770 37301
" />
<path d="M120770 37301
L120781 37331
" />
<path d="M120781 37331
L120790 37361
" />
<path d="M120790 37361
L120798 37392
" />
<path d="M120798 37392
L120806 37426
" />
<path d="M120806 37426
L120812 37460
" />
<path d="M120812 37460
L120816 37498
" />
<path d="M120816 37498
L120819 37535
" />
<path d="M120819 37535
L120820 37572
" />
<path d="M120052 38340
L120013 38339
" />
<path d="M120013 38339
L119976 38336
" />
<path d="M119976 38336
L119940 38332
" />
<path d="M119940 38332
L119905 38326
" />
<path d="M119905 38326
L119872 38319
" />
<path d="M119872 38319
L119841 38310
" />
<path d="M119841 38310
L119808 38300
" />
<path d="M119808 38300
L119779 38290
" />
<path d="M119779 38290
L119750 38278
" />
<path d="M119750 38278
L119722 38265
" />
<path d="M119722 38265
L119695 38252
" />
<path d="M119695 38252
L119669 38237
" />
<path d="M119669 38237
L119644 38222
" />
<path d="M119644 38222
L119618 38206
" />
<path d="M119618 38206
L119595 38189
" />
<path d="M119595 38189
L119573 38172
" />
<path d="M119573 38172
L119551 38154
" />
<path d="M119551 38154
L119530 38135
" />
<path d="M119530 38135
L119510 38115
" />
<path d="M119510 38115
L119490 38095
" />
<path d="M119490 38095
L119471 38074
" />
<path d="M119471 38074
L119453 38052
" />
<path d="M119453 38052
L119435 38029
" />
<path d="M119435 38029
L119419 38006
" />
<path d="M119419 38006
L119403 37982
" />
<path d="M119403 37982
L119388 37957
" />
<path d="M119388 37957
L119374 37932
" />
<path d="M119374 37932
L119360 37906
" />
<path d="M119360 37906
L119348 37879
" />
<path d="M119348 37879
L119336 37850
" />
<path d="M119336 37850
L119325 37820
" />
<path d="M119325 37820
L119315 37789
" />
<path d="M119315 37789
L119307 37758
" />
<path d="M119307 37758
L119299 37724
" />
<path d="M119299 37724
L119293 37689
" />
<path d="M119293 37689
L119289 37654
" />
<path d="M119289 37654
L119286 37618
" />
<path d="M119286 37618
L119284 37579
" />
<path d="M119284 37579
L119284 37572
" />
<path d="M61989 0
L122048 0
" />
<path d="M51771 5118
L51771 6692
" />
<path d="M47834 7086
L47834 8661
" />
<path d="M51771 6692
L54330 6692
" />
<path d="M46850 7086
L47834 7086
" />
<path d="M51771 5118
L52755 5118
" />
<path d="M54330 6692
L54330 2627
" />
<path d="M45275 8661
L47834 8661
" />
<path d="M45275 2627
L45275 8661
" />
<path d="M54330.7 0 A1574.8 1574.8 0.0 0 0 52755.9 1574.8 " />
<path d="M46850.4 1574.8 A1574.8 1574.8 0.0 0 0 45275.6 0 " />
<path d="M45275 0
L1929 0
" />
<path d="M52755 5118
L52755 1574
" />
<path d="M46850 1574
L46850 7086
" />
<path d="M2627 2627
L45275 2627
" />
<path d="M58239.5 16575.5 A393.701 393.701 0.0 0 0 58633.2 16969.2 " />
<path d="M59721 24470
L59760 24468
" />
<path d="M59760 24468
L59794 24463
" />
<path d="M59794 24463
L59827 24456
" />
<path d="M59827 24456
L59857 24446
" />
<path d="M59857 24446
L59885 24434
" />
<path d="M59885 24434
L59912 24421
" />
<path d="M59912 24421
L59937 24405
" />
<path d="M59937 24405
L59960 24389
" />
<path d="M59960 24389
L59982 24371
" />
<path d="M59982 24371
L60002 24351
" />
<path d="M60002 24351
L60021 24331
" />
<path d="M60021 24331
L60040 24307
" />
<path d="M60040 24307
L60056 24282
" />
<path d="M60056 24282
L60071 24256
" />
<path d="M60071 24256
L60083 24229
" />
<path d="M60083 24229
L60094 24201
" />
<path d="M60094 24201
L60103 24169
" />
<path d="M60103 24169
L60110 24136
" />
<path d="M60110 24136
L60114 24100
" />
<path d="M60114 24100
L60114 24076
" />
<path d="M58633 9470
L61596 9470
" />
<path d="M60114 24076
L60114 17362
" />
<path d="M55971 31970
L56010 31968
" />
<path d="M56010 31968
L56044 31963
" />
<path d="M56044 31963
L56077 31956
" />
<path d="M56077 31956
L56107 31946
" />
<path d="M56107 31946
L56135 31934
" />
<path d="M56135 31934
L56162 31921
" />
<path d="M56162 31921
L56187 31905
" />
<path d="M56187 31905
L56210 31889
" />
<path d="M56210 31889
L56232 31871
" />
<path d="M56232 31871
L56252 31851
" />
<path d="M56252 31851
L56271 31831
" />
<path d="M56271 31831
L56290 31807
" />
<path d="M56290 31807
L56306 31782
" />
<path d="M56306 31782
L56321 31756
" />
<path d="M56321 31756
L56333 31729
" />
<path d="M56333 31729
L56344 31701
" />
<path d="M56344 31701
L56353 31669
" />
<path d="M56353 31669
L56360 31636
" />
<path d="M56360 31636
L56364 31600
" />
<path d="M56364 31600
L56364 31576
" />
<path d="M61989 9076
L61989 0
" />
<path d="M54883 31970
L55970 31970
" />
<path d="M56757 24470
L59720 24470
" />
<path d="M56758 24470
L56720 24472
" />
<path d="M56720 24472
L56685 24477
" />
<path d="M56685 24477
L56653 24484
" />
<path d="M56653 24484
L56623 24494
" />
<path d="M56623 24494
L56595 24505
" />
<path d="M56595 24505
L56568 24519
" />
<path d="M56568 24519
L56543 24534
" />
<path d="M56543 24534
L56520 24550
" />
<path d="M56520 24550
L56498 24568
" />
<path d="M56498 24568
L56478 24587
" />
<path d="M56478 24587
L56459 24608
" />
<path d="M56459 24608
L56441 24630
" />
<path d="M56441 24630
L56425 24654
" />
<path d="M56425 24654
L56410 24679
" />
<path d="M56410 24679
L56397 24707
" />
<path d="M56397 24707
L56386 24736
" />
<path d="M56386 24736
L56376 24766
" />
<path d="M56376 24766
L56370 24799
" />
<path d="M56370 24799
L56365 24837
" />
<path d="M56365 24837
L56364 24864
" />
<path d="M58239 16575
L58239 9863
" />
<path d="M54884 31970
L54846 31972
" />
<path d="M54846 31972
L54811 31977
" />
<path d="M54811 31977
L54779 31984
" />
<path d="M54779 31984
L54749 31994
" />
<path d="M54749 31994
L54721 32005
" />
<path d="M54721 32005
L54694 32019
" />
<path d="M54694 32019
L54669 32034
" />
<path d="M54669 32034
L54646 32050
" />
<path d="M54646 32050
L54624 32068
" />
<path d="M54624 32068
L54603 32087
" />
<path d="M54603 32087
L54584 32108
" />
<path d="M54584 32108
L54567 32130
" />
<path d="M54567 32130
L54550 32154
" />
<path d="M54550 32154
L54536 32179
" />
<path d="M54536 32179
L54522 32207
" />
<path d="M54522 32207
L54511 32236
" />
<path d="M54511 32236
L54502 32266
" />
<path d="M54502 32266
L54495 32299
" />
<path d="M54495 32299
L54491 32337
" />
<path d="M54491 32337
L54490 32364
" />
<path d="M58634 9470
L58596 9472
" />
<path d="M58596 9472
L58561 9477
" />
<path d="M58561 9477
L58529 9484
" />
<path d="M58529 9484
L58499 9494
" />
<path d="M58499 9494
L58471 9505
" />
<path d="M58471 9505
L58444 9519
" />
<path d="M58444 9519
L58419 9534
" />
<path d="M58419 9534
L58396 9550
" />
<path d="M58396 9550
L58374 9568
" />
<path d="M58374 9568
L58353 9587
" />
<path d="M58353 9587
L58334 9608
" />
<path d="M58334 9608
L58317 9630
" />
<path d="M58317 9630
L58300 9654
" />
<path d="M58300 9654
L58286 9679
" />
<path d="M58286 9679
L58272 9707
" />
<path d="M58272 9707
L58261 9736
" />
<path d="M58261 9736
L58252 9766
" />
<path d="M58252 9766
L58245 9799
" />
<path d="M58245 9799
L58241 9837
" />
<path d="M58241 9837
L58240 9864
" />
<path d="M56364 31576
L56364 24863
" />
<path d="M54489 41496
L54489 32363
" />
<path d="M61596 9470
L61635 9468
" />
<path d="M61635 9468
L61670 9463
" />
<path d="M61670 9463
L61702 9456
" />
<path d="M61702 9456
L61732 9446
" />
<path d="M61732 9446
L61760 9434
" />
<path d="M61760 9434
L61787 9421
" />
<path d="M61787 9421
L61813 9405
" />
<path d="M61813 9405
L61836 9389
" />
<path d="M61836 9389
L61857 9371
" />
<path d="M61857 9371
L61878 9351
" />
<path d="M61878 9351
L61897 9331
" />
<path d="M61897 9331
L61915 9307
" />
<path d="M61915 9307
L61932 9282
" />
<path d="M61932 9282
L61946 9256
" />
<path d="M61946 9256
L61959 9229
" />
<path d="M61959 9229
L61970 9201
" />
<path d="M61970 9201
L61979 9169
" />
<path d="M61979 9169
L61985 9136
" />
<path d="M61985 9136
L61989 9100
" />
<path d="M61989 9100
L61990 9076
" />
<path d="M59720 16969
L58633 16969
" />
<path d="M60114 17363
L60112 17325
" />
<path d="M60112 17325
L60107 17289
" />
<path d="M60107 17289
L60100 17257
" />
<path d="M60100 17257
L60090 17226
" />
<path d="M60090 17226
L60078 17198
" />
<path d="M60078 17198
L60065 17172
" />
<path d="M60065 17172
L60050 17146
" />
<path d="M60050 17146
L60033 17123
" />
<path d="M60033 17123
L60015 17101
" />
<path d="M60015 17101
L59995 17081
" />
<path d="M59995 17081
L59974 17062
" />
<path d="M59974 17062
L59952 17044
" />
<path d="M59952 17044
L59928 17028
" />
<path d="M59928 17028
L59903 17014
" />
<path d="M59903 17014
L59876 17001
" />
<path d="M59876 17001
L59847 16990
" />
<path d="M59847 16990
L59815 16980
" />
<path d="M59815 16980
L59782 16974
" />
<path d="M59782 16974
L59746 16970
" />
<path d="M59746 16970
L59721 16969
" />
<path d="M1929.13 0 A1929.13 1929.13 0.0 0 0 0 1929.13 " />
<path d="M0 39566.9 A1929.13 1929.13 0.0 0 0 1929.13 41496 " />
<path d="M54330 0
L61989 0
" />
<path d="M0 1929
L0 39566
" />
<path d="M1929 41496
L54489 41496
" />
<path d="M3546 36907
L3572 36893
" />
<path d="M3572 36893
L3598 36880
" />
<path d="M3598 36880
L3626 36867
" />
<path d="M3626 36867
L3655 36855
" />
<path d="M3655 36855
L3684 36844
" />
<path d="M3684 36844
L3714 36835
" />
<path d="M3714 36835
L3746 36827
" />
<path d="M3746 36827
L3779 36819
" />
<path d="M3779 36819
L3814 36813
" />
<path d="M3814 36813
L3850 36808
" />
<path d="M3850 36808
L3887 36805
" />
<path d="M3887 36805
L3926 36804
" />
<path d="M3926 36804
L3965 36805
" />
<path d="M3965 36805
L4002 36808
" />
<path d="M4002 36808
L4040 36812
" />
<path d="M4040 36812
L4074 36818
" />
<path d="M4074 36818
L4107 36825
" />
<path d="M4107 36825
L4139 36833
" />
<path d="M4139 36833
L4170 36843
" />
<path d="M4170 36843
L4199 36853
" />
<path d="M4199 36853
L4228 36864
" />
<path d="M4228 36864
L4255 36877
" />
<path d="M4255 36877
L4282 36890
" />
<path d="M4282 36890
L4310 36905
" />
<path d="M4310 36905
L4314 36907
" />
<path d="M4698 37572
L4697 37611
" />
<path d="M4697 37611
L4694 37649
" />
<path d="M4694 37649
L4689 37684
" />
<path d="M4689 37684
L4683 37719
" />
<path d="M4683 37719
L4676 37752
" />
<path d="M4676 37752
L4668 37783
" />
<path d="M4668 37783
L4659 37814
" />
<path d="M4659 37814
L4648 37843
" />
<path d="M4648 37843
L4637 37871
" />
<path d="M4637 37871
L4624 37900
" />
<path d="M4624 37900
L4611 37927
" />
<path d="M4611 37927
L4597 37953
" />
<path d="M4597 37953
L4581 37978
" />
<path d="M4581 37978
L4565 38003
" />
<path d="M4565 38003
L4549 38026
" />
<path d="M4549 38026
L4531 38049
" />
<path d="M4531 38049
L4513 38071
" />
<path d="M4513 38071
L4495 38092
" />
<path d="M4495 38092
L4475 38113
" />
<path d="M4475 38113
L4455 38132
" />
<path d="M4455 38132
L4434 38151
" />
<path d="M4434 38151
L4412 38170
" />
<path d="M4412 38170
L4390 38187
" />
<path d="M4390 38187
L4366 38204
" />
<path d="M4366 38204
L4342 38220
" />
<path d="M4342 38220
L4316 38236
" />
<path d="M4316 38236
L4314 38237
" />
<path d="M4314 36907
L4339 36922
" />
<path d="M4339 36922
L4363 36938
" />
<path d="M4363 36938
L4386 36954
" />
<path d="M4386 36954
L4409 36972
" />
<path d="M4409 36972
L4431 36990
" />
<path d="M4431 36990
L4453 37010
" />
<path d="M4453 37010
L4473 37029
" />
<path d="M4473 37029
L4493 37050
" />
<path d="M4493 37050
L4512 37072
" />
<path d="M4512 37072
L4530 37093
" />
<path d="M4530 37093
L4547 37116
" />
<path d="M4547 37116
L4564 37139
" />
<path d="M4564 37139
L4580 37163
" />
<path d="M4580 37163
L4596 37191
" />
<path d="M4596 37191
L4611 37218
" />
<path d="M4611 37218
L4624 37245
" />
<path d="M4624 37245
L4637 37273
" />
<path d="M4637 37273
L4648 37301
" />
<path d="M4648 37301
L4659 37331
" />
<path d="M4659 37331
L4668 37361
" />
<path d="M4668 37361
L4676 37392
" />
<path d="M4676 37392
L4684 37426
" />
<path d="M4684 37426
L4690 37460
" />
<path d="M4690 37460
L4694 37498
" />
<path d="M4694 37498
L4697 37535
" />
<path d="M4697 37535
L4698 37572
" />
<path d="M3546 38237
L3520 38221
" />
<path d="M3520 38221
L3496 38205
" />
<path d="M3496 38205
L3473 38189
" />
<path d="M3473 38189
L3447 38169
" />
<path d="M3447 38169
L3426 38151
" />
<path d="M3426 38151
L3405 38132
" />
<path d="M3405 38132
L3385 38113
" />
<path d="M3385 38113
L3365 38091
" />
<path d="M3365 38091
L3346 38070
" />
<path d="M3346 38070
L3328 38049
" />
<path d="M3328 38049
L3311 38026
" />
<path d="M3311 38026
L3295 38003
" />
<path d="M3295 38003
L3279 37979
" />
<path d="M3279 37979
L3264 37954
" />
<path d="M3264 37954
L3250 37928
" />
<path d="M3250 37928
L3237 37902
" />
<path d="M3237 37902
L3223 37872
" />
<path d="M3223 37872
L3212 37844
" />
<path d="M3212 37844
L3202 37814
" />
<path d="M3202 37814
L3192 37784
" />
<path d="M3192 37784
L3184 37752
" />
<path d="M3184 37752
L3176 37719
" />
<path d="M3176 37719
L3171 37685
" />
<path d="M3171 37685
L3166 37650
" />
<path d="M3166 37650
L3163 37613
" />
<path d="M3163 37613
L3162 37574
" />
<path d="M3162 37574
L3162 37572
" />
<path d="M3162 37572
L3163 37533
" />
<path d="M3163 37533
L3166 37495
" />
<path d="M3166 37495
L3170 37460
" />
<path d="M3170 37460
L3176 37425
" />
<path d="M3176 37425
L3184 37391
" />
<path d="M3184 37391
L3192 37359
" />
<path d="M3192 37359
L3202 37328
" />
<path d="M3202 37328
L3213 37299
" />
<path d="M3213 37299
L3224 37270
" />
<path d="M3224 37270
L3236 37243
" />
<path d="M3236 37243
L3250 37216
" />
<path d="M3250 37216
L3264 37190
" />
<path d="M3264 37190
L3279 37164
" />
<path d="M3279 37164
L3295 37141
" />
<path d="M3295 37141
L3311 37117
" />
<path d="M3311 37117
L3329 37095
" />
<path d="M3329 37095
L3346 37073
" />
<path d="M3346 37073
L3365 37052
" />
<path d="M3365 37052
L3384 37032
" />
<path d="M3384 37032
L3405 37012
" />
<path d="M3405 37012
L3426 36992
" />
<path d="M3426 36992
L3448 36974
" />
<path d="M3448 36974
L3470 36957
" />
<path d="M3470 36957
L3494 36940
" />
<path d="M3494 36940
L3518 36924
" />
<path d="M3518 36924
L3542 36909
" />
<path d="M3542 36909
L3546 36907
" />
<path d="M4314 38237
L4288 38251
" />
<path d="M4288 38251
L4262 38264
" />
<path d="M4262 38264
L4234 38277
" />
<path d="M4234 38277
L4206 38288
" />
<path d="M4206 38288
L4176 38299
" />
<path d="M4176 38299
L4145 38309
" />
<path d="M4145 38309
L4114 38317
" />
<path d="M4114 38317
L4081 38325
" />
<path d="M4081 38325
L4047 38331
" />
<path d="M4047 38331
L4010 38335
" />
<path d="M4010 38335
L3973 38338
" />
<path d="M3973 38338
L3934 38340
" />
<path d="M3934 38340
L3893 38339
" />
<path d="M3893 38339
L3855 38336
" />
<path d="M3855 38336
L3820 38332
" />
<path d="M3820 38332
L3786 38326
" />
<path d="M3786 38326
L3753 38319
" />
<path d="M3753 38319
L3721 38311
" />
<path d="M3721 38311
L3690 38301
" />
<path d="M3690 38301
L3661 38291
" />
<path d="M3661 38291
L3632 38279
" />
<path d="M3632 38279
L3605 38267
" />
<path d="M3605 38267
L3578 38254
" />
<path d="M3578 38254
L3551 38239
" />
<path d="M3551 38239
L3546 38237
" />
<path d="M52759 36907
L52784 36922
" />
<path d="M52784 36922
L52808 36938
" />
<path d="M52808 36938
L52831 36954
" />
<path d="M52831 36954
L52854 36972
" />
<path d="M52854 36972
L52875 36990
" />
<path d="M52875 36990
L52898 37010
" />
<path d="M52898 37010
L52918 37029
" />
<path d="M52918 37029
L52937 37050
" />
<path d="M52937 37050
L52957 37072
" />
<path d="M52957 37072
L52975 37093
" />
<path d="M52975 37093
L52992 37116
" />
<path d="M52992 37116
L53009 37139
" />
<path d="M53009 37139
L53025 37163
" />
<path d="M53025 37163
L53041 37191
" />
<path d="M53041 37191
L53056 37218
" />
<path d="M53056 37218
L53069 37245
" />
<path d="M53069 37245
L53082 37273
" />
<path d="M53082 37273
L53093 37301
" />
<path d="M53093 37301
L53104 37331
" />
<path d="M53104 37331
L53113 37361
" />
<path d="M53113 37361
L53121 37392
" />
<path d="M53121 37392
L53129 37426
" />
<path d="M53129 37426
L53134 37460
" />
<path d="M53134 37460
L53139 37498
" />
<path d="M53139 37498
L53142 37535
" />
<path d="M53142 37535
L53143 37572
" />
<path d="M52759 38237
L52733 38251
" />
<path d="M52733 38251
L52707 38264
" />
<path d="M52707 38264
L52679 38277
" />
<path d="M52679 38277
L52651 38288
" />
<path d="M52651 38288
L52620 38299
" />
<path d="M52620 38299
L52590 38309
" />
<path d="M52590 38309
L52559 38317
" />
<path d="M52559 38317
L52526 38325
" />
<path d="M52526 38325
L52492 38331
" />
<path d="M52492 38331
L52455 38335
" />
<path d="M52455 38335
L52418 38338
" />
<path d="M52418 38338
L52379 38340
" />
<path d="M52379 38340
L52338 38339
" />
<path d="M52338 38339
L52300 38336
" />
<path d="M52300 38336
L52264 38332
" />
<path d="M52264 38332
L52231 38326
" />
<path d="M52231 38326
L52198 38319
" />
<path d="M52198 38319
L52165 38311
" />
<path d="M52165 38311
L52135 38301
" />
<path d="M52135 38301
L52106 38291
" />
<path d="M52106 38291
L52077 38279
" />
<path d="M52077 38279
L52049 38267
" />
<path d="M52049 38267
L52022 38254
" />
<path d="M52022 38254
L51995 38239
" />
<path d="M51995 38239
L51991 38237
" />
<path d="M53143 37572
L53142 37611
" />
<path d="M53142 37611
L53139 37649
" />
<path d="M53139 37649
L53134 37684
" />
<path d="M53134 37684
L53128 37719
" />
<path d="M53128 37719
L53121 37752
" />
<path d="M53121 37752
L53113 37783
" />
<path d="M53113 37783
L53104 37814
" />
<path d="M53104 37814
L53093 37843
" />
<path d="M53093 37843
L53082 37871
" />
<path d="M53082 37871
L53069 37900
" />
<path d="M53069 37900
L53056 37927
" />
<path d="M53056 37927
L53042 37953
" />
<path d="M53042 37953
L53026 37978
" />
<path d="M53026 37978
L53010 38003
" />
<path d="M53010 38003
L52994 38026
" />
<path d="M52994 38026
L52976 38049
" />
<path d="M52976 38049
L52958 38071
" />
<path d="M52958 38071
L52940 38092
" />
<path d="M52940 38092
L52920 38113
" />
<path d="M52920 38113
L52899 38132
" />
<path d="M52899 38132
L52878 38151
" />
<path d="M52878 38151
L52857 38170
" />
<path d="M52857 38170
L52834 38187
" />
<path d="M52834 38187
L52811 38204
" />
<path d="M52811 38204
L52786 38220
" />
<path d="M52786 38220
L52761 38236
" />
<path d="M52761 38236
L52759 38237
" />
<path d="M51991 38237
L51965 38221
" />
<path d="M51965 38221
L51941 38205
" />
<path d="M51941 38205
L51917 38189
" />
<path d="M51917 38189
L51892 38169
" />
<path d="M51892 38169
L51871 38151
" />
<path d="M51871 38151
L51850 38132
" />
<path d="M51850 38132
L51830 38113
" />
<path d="M51830 38113
L51809 38091
" />
<path d="M51809 38091
L51791 38070
" />
<path d="M51791 38070
L51773 38049
" />
<path d="M51773 38049
L51756 38026
" />
<path d="M51756 38026
L51739 38003
" />
<path d="M51739 38003
L51724 37979
" />
<path d="M51724 37979
L51709 37954
" />
<path d="M51709 37954
L51695 37928
" />
<path d="M51695 37928
L51682 37902
" />
<path d="M51682 37902
L51668 37872
" />
<path d="M51668 37872
L51657 37844
" />
<path d="M51657 37844
L51646 37814
" />
<path d="M51646 37814
L51637 37784
" />
<path d="M51637 37784
L51629 37752
" />
<path d="M51629 37752
L51621 37719
" />
<path d="M51621 37719
L51615 37685
" />
<path d="M51615 37685
L51611 37650
" />
<path d="M51611 37650
L51608 37613
" />
<path d="M51608 37613
L51607 37574
" />
<path d="M51607 37574
L51607 37572
" />
<path d="M51607 37572
L51608 37533
" />
<path d="M51608 37533
L51611 37495
" />
<path d="M51611 37495
L51615 37460
" />
<path d="M51615 37460
L51621 37425
" />
<path d="M51621 37425
L51629 37391
" />
<path d="M51629 37391
L51637 37359
" />
<path d="M51637 37359
L51647 37328
" />
<path d="M51647 37328
L51657 37299
" />
<path d="M51657 37299
L51669 37270
" />
<path d="M51669 37270
L51681 37243
" />
<path d="M51681 37243
L51694 37216
" />
<path d="M51694 37216
L51709 37190
" />
<path d="M51709 37190
L51724 37164
" />
<path d="M51724 37164
L51740 37141
" />
<path d="M51740 37141
L51756 37117
" />
<path d="M51756 37117
L51773 37095
" />
<path d="M51773 37095
L51791 37073
" />
<path d="M51791 37073
L51810 37052
" />
<path d="M51810 37052
L51829 37032
" />
<path d="M51829 37032
L51849 37012
" />
<path d="M51849 37012
L51871 36992
" />
<path d="M51871 36992
L51893 36974
" />
<path d="M51893 36974
L51915 36957
" />
<path d="M51915 36957
L51939 36940
" />
<path d="M51939 36940
L51963 36924
" />
<path d="M51963 36924
L51987 36909
" />
<path d="M51987 36909
L51991 36907
" />
<path d="M51991 36907
L52016 36893
" />
<path d="M52016 36893
L52043 36880
" />
<path d="M52043 36880
L52070 36867
" />
<path d="M52070 36867
L52100 36855
" />
<path d="M52100 36855
L52129 36844
" />
<path d="M52129 36844
L52159 36835
" />
<path d="M52159 36835
L52191 36827
" />
<path d="M52191 36827
L52223 36819
" />
<path d="M52223 36819
L52259 36813
" />
<path d="M52259 36813
L52295 36808
" />
<path d="M52295 36808
L52332 36805
" />
<path d="M52332 36805
L52371 36804
" />
<path d="M52371 36804
L52410 36805
" />
<path d="M52410 36805
L52447 36808
" />
<path d="M52447 36808
L52485 36812
" />
<path d="M52485 36812
L52519 36818
" />
<path d="M52519 36818
L52552 36825
" />
<path d="M52552 36825
L52584 36833
" />
<path d="M52584 36833
L52615 36843
" />
<path d="M52615 36843
L52644 36853
" />
<path d="M52644 36853
L52673 36864
" />
<path d="M52673 36864
L52700 36877
" />
<path d="M52700 36877
L52727 36890
" />
<path d="M52727 36890
L52755 36905
" />
<path d="M52755 36905
L52759 36907
" />
<path d="M54330 2627
L61368 2627
" />
<path d="M8252 38867
L8252 31367
" />
<path d="M59493 17627
L57618 17627
" />
<path d="M50964 39205
L50964 31367
" />
<path d="M59493 23867
L59493 17627
" />
<path d="M37618 38867
L37618 39205
" />
<path d="M37618 39205
L50964 39205
" />
<path d="M57618 17627
L57618 8867
" />
<path d="M50964 31367
L55743 31367
" />
<path d="M2627 31367
L2627 2627
" />
<path d="M57618 8867
L61368 8867
" />
<path d="M61368 8867
L61368 2627
" />
<path d="M8252 31367
L2627 31367
" />
<path d="M55743 23867
L59493 23867
" />
<path d="M55743 31367
L55743 23867
" />
<path d="M8252 38867
L37618 38867
" />
<g >
</g>
</g> 
</svg>
