  0
SECTION
  2
HEADER
  9
$ANGBASE
  50
0.0
  9
$ANGDIR
  70
1
  9
$MEASUREMENT
  70
1
  0
ENDSEC
  0
SECTION
  2
TABLES
  0
TABLE
  2
LTYPE
  70
4
  0
LTYPE
  5
40F
  2
CONTINUOUS
  70
0
  3
Solid line
  72
65
  73
0
  40
0.0
  0
LTYPE
  5
410
  2
DASHDOT
 70
0
  3
Dash Dot ____ _ ____ _
 72
65
 73
4
 40
2.0
 49
1.25
 49
-0.25
 49
0.25
 49
-0.25
  0
LTYPE
  5
411
  2
DASHED
 70
0
  3
Dashed __ __ __ __ __
 72
65
 73
2
 40
0.75
 49
0.5
 49
-0.25
  0
LTYPE
  5
43B
  2
DOTTED
 70
0
  3
Dotted .  .  .  .
 72
65
 73
2
 40
0.2
 49
0.0
 49
-0.2
  0
ENDTAB
  0
TABLE
  2
STYLE
  70
4
  0
STYLE
  2
KICAD
  70
0
  40
0
  41
1
  42
1
  50
0
  71
0
  3
isocp.shx
  0
STYLE
  2
KICADB
  70
0
  40
0
  41
1
  42
1
  50
0
  71
0
  3
isocp.shx
  0
STYLE
  2
KICADI
  70
0
  40
0
  41
1
  42
1
  50
15
  71
0
  3
isocp.shx
  0
STYLE
  2
KICADBI
  70
0
  40
0
  41
1
  42
1
  50
15
  71
0
  3
isocp.shx
  0
ENDTAB
  0
TABLE
  2
LAYER
  70
1
  0
LAYER
  2
BLACK
  70
0
  62
7
  6
CONTINUOUS
  0
ENDTAB
  0
ENDSEC
  0
SECTION
  2
ENTITIES
0
LINE
8
BLACK
6
CONTINUOUS
10
647.743
20
-197.61
11
647.671
21
-197.581
0
LINE
8
BLACK
6
CONTINUOUS
10
648.063
20
-197.702
11
647.978
21
-197.683
0
LINE
8
BLACK
6
CONTINUOUS
10
646.875
20
-196.955
11
646.833
21
-196.896
0
LINE
8
BLACK
6
CONTINUOUS
10
647.468
20
-197.48
11
647.402
21
-197.44
0
LINE
8
BLACK
6
CONTINUOUS
10
647.817
20
-197.637
11
647.743
21
-197.61
0
LINE
8
BLACK
6
CONTINUOUS
10
647.225
20
-197.315
11
647.17
21
-197.27
0
LINE
8
BLACK
6
CONTINUOUS
10
648.152
20
-197.717
11
648.063
21
-197.702
0
LINE
8
BLACK
6
CONTINUOUS
10
648.339
20
-197.735
11
648.242
21
-197.728
0
LINE
8
BLACK
6
CONTINUOUS
10
646.919
20
-197.012
11
646.875
21
-196.955
0
LINE
8
BLACK
6
CONTINUOUS
10
648.242
20
-197.728
11
648.152
21
-197.717
0
LINE
8
BLACK
6
CONTINUOUS
10
647.17
20
-197.27
11
647.117
21
-197.222
0
LINE
8
BLACK
6
CONTINUOUS
10
647.402
20
-197.44
11
647.342
21
-197.401
0
LINE
8
BLACK
6
CONTINUOUS
10
647.342
20
-197.401
11
647.283
21
-197.359
0
LINE
8
BLACK
6
CONTINUOUS
10
647.534
20
-197.516
11
647.468
21
-197.48
0
LINE
8
BLACK
6
CONTINUOUS
10
646.507
20
-195.509
11
646.522
21
-195.421
0
LINE
8
BLACK
6
CONTINUOUS
10
646.647
20
-196.561
11
646.617
21
-196.487
0
LINE
8
BLACK
6
CONTINUOUS
10
649.757
20
-197.224
11
649.703
21
-197.271
0
LINE
8
BLACK
6
CONTINUOUS
10
646.833
20
-196.896
11
646.792
21
-196.835
0
LINE
8
BLACK
6
CONTINUOUS
10
647.897
20
-197.661
11
647.817
21
-197.637
0
LINE
8
BLACK
6
CONTINUOUS
10
647.671
20
-197.581
11
647.601
21
-197.549
0
LINE
8
BLACK
6
CONTINUOUS
10
646.966
20
-197.067
11
646.919
21
-197.012
0
LINE
8
BLACK
6
CONTINUOUS
10
649.128
20
-197.611
11
649.054
21
-197.638
0
LINE
8
BLACK
6
CONTINUOUS
10
648.437
20
-197.738
11
648.339
21
-197.735
0
LINE
8
BLACK
6
CONTINUOUS
10
648.895
20
-197.683
11
648.811
21
-197.702
0
LINE
8
BLACK
6
CONTINUOUS
10
649.861
20
-197.121
11
649.811
21
-197.172
0
LINE
8
BLACK
6
CONTINUOUS
10
647.015
20
-197.122
11
646.966
21
-197.067
0
LINE
8
BLACK
6
CONTINUOUS
10
648.541
20
-197.735
11
648.442
21
-197.738
0
LINE
8
BLACK
6
CONTINUOUS
10
649.703
20
-197.271
11
649.648
21
-197.316
0
LINE
8
BLACK
6
CONTINUOUS
10
649.054
20
-197.638
11
648.976
21
-197.662
0
LINE
8
BLACK
6
CONTINUOUS
10
648.442
20
-197.738
11
648.437
21
-197.738
0
LINE
8
BLACK
6
CONTINUOUS
10
646.64
20
-195.031
11
646.671
21
-194.961
0
LINE
8
BLACK
6
CONTINUOUS
10
647.283
20
-197.359
11
647.225
21
-197.315
0
LINE
8
BLACK
6
CONTINUOUS
10
646.51
20
-196.082
11
646.498
21
-195.992
0
LINE
8
BLACK
6
CONTINUOUS
10
646.522
20
-195.421
11
646.54
21
-195.338
0
LINE
8
BLACK
6
CONTINUOUS
10
646.617
20
-196.487
11
646.59
21
-196.411
0
LINE
8
BLACK
6
CONTINUOUS
10
649.275
20
-197.548
11
649.2
21
-197.583
0
LINE
8
BLACK
6
CONTINUOUS
10
646.54
20
-195.338
11
646.561
21
-195.257
0
LINE
8
BLACK
6
CONTINUOUS
10
646.544
20
-196.255
11
646.526
21
-196.172
0
LINE
8
BLACK
6
CONTINUOUS
10
646.59
20
-196.411
11
646.566
21
-196.335
0
LINE
8
BLACK
6
CONTINUOUS
10
646.526
20
-196.172
11
646.51
21
-196.082
0
LINE
8
BLACK
6
CONTINUOUS
10
646.679
20
-196.631
11
646.647
21
-196.561
0
LINE
8
BLACK
6
CONTINUOUS
10
649.811
20
-197.172
11
649.757
21
-197.224
0
LINE
8
BLACK
6
CONTINUOUS
10
648.635
20
-197.728
11
648.541
21
-197.735
0
LINE
8
BLACK
6
CONTINUOUS
10
647.117
20
-197.222
11
647.065
21
-197.173
0
LINE
8
BLACK
6
CONTINUOUS
10
646.749
20
-196.763
11
646.713
21
-196.698
0
LINE
8
BLACK
6
CONTINUOUS
10
646.498
20
-195.992
11
646.49
21
-195.897
0
LINE
8
BLACK
6
CONTINUOUS
10
646.496
20
-195.604
11
646.507
21
-195.509
0
LINE
8
BLACK
6
CONTINUOUS
10
649.408
20
-197.479
11
649.342
21
-197.515
0
LINE
8
BLACK
6
CONTINUOUS
10
649.342
20
-197.515
11
649.275
21
-197.548
0
LINE
8
BLACK
6
CONTINUOUS
10
648.976
20
-197.662
11
648.895
21
-197.683
0
LINE
8
BLACK
6
CONTINUOUS
10
649.2
20
-197.583
11
649.128
21
-197.611
0
LINE
8
BLACK
6
CONTINUOUS
10
647.978
20
-197.683
11
647.897
21
-197.661
0
LINE
8
BLACK
6
CONTINUOUS
10
646.671
20
-194.961
11
646.704
21
-194.893
0
LINE
8
BLACK
6
CONTINUOUS
10
646.611
20
-195.103
11
646.64
21
-195.031
0
LINE
8
BLACK
6
CONTINUOUS
10
648.724
20
-197.716
11
648.635
21
-197.728
0
LINE
8
BLACK
6
CONTINUOUS
10
648.811
20
-197.702
11
648.724
21
-197.716
0
LINE
8
BLACK
6
CONTINUOUS
10
647.065
20
-197.173
11
647.015
21
-197.122
0
LINE
8
BLACK
6
CONTINUOUS
10
646.743
20
-194.822
11
646.749
21
-194.813
0
LINE
8
BLACK
6
CONTINUOUS
10
649.908
20
-197.068
11
649.861
21
-197.121
0
LINE
8
BLACK
6
CONTINUOUS
10
647.601
20
-197.549
11
647.534
21
-197.516
0
LINE
8
BLACK
6
CONTINUOUS
10
649.591
20
-197.36
11
649.532
21
-197.402
0
LINE
8
BLACK
6
CONTINUOUS
10
646.566
20
-196.335
11
646.544
21
-196.255
0
LINE
8
BLACK
6
CONTINUOUS
10
646.585
20
-195.177
11
646.611
21
-195.103
0
LINE
8
BLACK
6
CONTINUOUS
10
649.648
20
-197.316
11
649.591
21
-197.36
0
LINE
8
BLACK
6
CONTINUOUS
10
646.792
20
-196.835
11
646.754
21
-196.772
0
LINE
8
BLACK
6
CONTINUOUS
10
646.489
20
-195.698
11
646.496
21
-195.604
0
LINE
8
BLACK
6
CONTINUOUS
10
649.471
20
-197.441
11
649.408
21
-197.479
0
LINE
8
BLACK
6
CONTINUOUS
10
646.704
20
-194.893
11
646.743
21
-194.822
0
LINE
8
BLACK
6
CONTINUOUS
10
649.532
20
-197.402
11
649.471
21
-197.441
0
LINE
8
BLACK
6
CONTINUOUS
10
649.532
20
-194.174
11
649.592
21
-194.216
0
LINE
8
BLACK
6
CONTINUOUS
10
649.861
20
-194.455
11
649.909
21
-194.508
0
LINE
8
BLACK
6
CONTINUOUS
10
647.399
20
-194.137
11
647.47
21
-194.095
0
LINE
8
BLACK
6
CONTINUOUS
10
647.902
20
-193.912
11
647.982
21
-193.892
0
LINE
8
BLACK
6
CONTINUOUS
10
650.29
20
-196.396
11
650.264
21
-196.471
0
LINE
8
BLACK
6
CONTINUOUS
10
650.17
20
-196.683
11
650.133
21
-196.751
0
LINE
8
BLACK
6
CONTINUOUS
10
646.561
20
-195.257
11
646.585
21
-195.177
0
LINE
8
BLACK
6
CONTINUOUS
10
650.353
20
-196.154
11
650.335
21
-196.237
0
LINE
8
BLACK
6
CONTINUOUS
10
649.999
20
-194.62
11
650.042
21
-194.679
0
LINE
8
BLACK
6
CONTINUOUS
10
649.404
20
-194.094
11
649.47
21
-194.134
0
LINE
8
BLACK
6
CONTINUOUS
10
648.974
20
-193.913
11
649.051
21
-193.937
0
LINE
8
BLACK
6
CONTINUOUS
10
648.723
20
-193.859
11
648.811
21
-193.874
0
LINE
8
BLACK
6
CONTINUOUS
10
648.633
20
-193.847
11
648.723
21
-193.859
0
LINE
8
BLACK
6
CONTINUOUS
10
649.909
20
-194.508
11
649.955
21
-194.564
0
LINE
8
BLACK
6
CONTINUOUS
10
649.65
20
-194.26
11
649.705
21
-194.306
0
LINE
8
BLACK
6
CONTINUOUS
10
650.314
20
-196.319
11
650.29
21
-196.396
0
LINE
8
BLACK
6
CONTINUOUS
10
650.087
20
-196.828
11
650.047
21
-196.889
0
LINE
8
BLACK
6
CONTINUOUS
10
648.535
20
-193.84
11
648.633
21
-193.847
0
LINE
8
BLACK
6
CONTINUOUS
10
650.378
20
-195.977
11
650.367
21
-196.068
0
LINE
8
BLACK
6
CONTINUOUS
10
649.272
20
-194.025
11
649.339
21
-194.059
0
LINE
8
BLACK
6
CONTINUOUS
10
650.047
20
-196.889
11
650.004
21
-196.949
0
LINE
8
BLACK
6
CONTINUOUS
10
650.004
20
-196.949
11
649.954
21
-197.013
0
LINE
8
BLACK
6
CONTINUOUS
10
649.955
20
-194.564
11
649.999
21
-194.62
0
LINE
8
BLACK
6
CONTINUOUS
10
650.387
20
-195.777
11
650.385
21
-195.881
0
LINE
8
BLACK
6
CONTINUOUS
10
648.437
20
-193.838
11
648.535
21
-193.84
0
LINE
8
BLACK
6
CONTINUOUS
10
649.811
20
-194.404
11
649.861
21
-194.455
0
LINE
8
BLACK
6
CONTINUOUS
10
649.47
20
-194.134
11
649.532
21
-194.174
0
LINE
8
BLACK
6
CONTINUOUS
10
649.198
20
-193.992
11
649.272
21
-194.025
0
LINE
8
BLACK
6
CONTINUOUS
10
649.126
20
-193.963
11
649.198
21
-193.992
0
LINE
8
BLACK
6
CONTINUOUS
10
650.228
20
-195.014
11
650.257
21
-195.087
0
LINE
8
BLACK
6
CONTINUOUS
10
646.487
20
-195.797
11
646.489
21
-195.698
0
LINE
8
BLACK
6
CONTINUOUS
10
648.25
20
-193.847
11
648.345
21
-193.84
0
LINE
8
BLACK
6
CONTINUOUS
10
650.377
20
-195.584
11
650.384
21
-195.678
0
LINE
8
BLACK
6
CONTINUOUS
10
649.339
20
-194.059
11
649.404
21
-194.094
0
LINE
8
BLACK
6
CONTINUOUS
10
650.083
20
-194.742
11
650.123
21
-194.808
0
LINE
8
BLACK
6
CONTINUOUS
10
650.384
20
-195.678
11
650.387
21
-195.777
0
LINE
8
BLACK
6
CONTINUOUS
10
649.051
20
-193.937
11
649.126
21
-193.963
0
LINE
8
BLACK
6
CONTINUOUS
10
646.49
20
-195.897
11
646.487
21
-195.797
0
LINE
8
BLACK
6
CONTINUOUS
10
648.895
20
-193.892
11
648.974
21
-193.913
0
LINE
8
BLACK
6
CONTINUOUS
10
649.592
20
-194.216
11
649.65
21
-194.26
0
LINE
8
BLACK
6
CONTINUOUS
10
648.811
20
-193.874
11
648.895
21
-193.892
0
LINE
8
BLACK
6
CONTINUOUS
10
650.385
20
-195.881
11
650.378
21
-195.977
0
LINE
8
BLACK
6
CONTINUOUS
10
647.059
20
-194.408
11
647.111
21
-194.359
0
LINE
8
BLACK
6
CONTINUOUS
10
650.126
20
-196.763
11
650.087
21
-196.828
0
LINE
8
BLACK
6
CONTINUOUS
10
649.954
20
-197.013
11
649.908
21
-197.068
0
LINE
8
BLACK
6
CONTINUOUS
10
650.367
20
-196.068
11
650.353
21
-196.154
0
LINE
8
BLACK
6
CONTINUOUS
10
650.204
20
-196.614
11
650.17
21
-196.683
0
LINE
8
BLACK
6
CONTINUOUS
10
647.01
20
-194.459
11
647.059
21
-194.408
0
LINE
8
BLACK
6
CONTINUOUS
10
650.042
20
-194.679
11
650.083
21
-194.742
0
LINE
8
BLACK
6
CONTINUOUS
10
650.264
20
-196.471
11
650.235
21
-196.544
0
LINE
8
BLACK
6
CONTINUOUS
10
646.749
20
-194.813
11
646.787
21
-194.749
0
LINE
8
BLACK
6
CONTINUOUS
10
647.47
20
-194.095
11
647.538
21
-194.058
0
LINE
8
BLACK
6
CONTINUOUS
10
646.754
20
-196.772
11
646.749
21
-196.763
0
LINE
8
BLACK
6
CONTINUOUS
10
650.133
20
-196.751
11
650.126
21
-196.763
0
LINE
8
BLACK
6
CONTINUOUS
10
649.758
20
-194.353
11
649.811
21
-194.404
0
LINE
8
BLACK
6
CONTINUOUS
10
650.235
20
-196.544
11
650.204
21
-196.614
0
LINE
8
BLACK
6
CONTINUOUS
10
650.123
20
-194.808
11
650.126
21
-194.813
0
LINE
8
BLACK
6
CONTINUOUS
10
646.913
20
-194.572
11
646.959
21
-194.516
0
LINE
8
BLACK
6
CONTINUOUS
10
647.825
20
-193.936
11
647.902
21
-193.912
0
LINE
8
BLACK
6
CONTINUOUS
10
649.705
20
-194.306
11
649.758
21
-194.353
0
LINE
8
BLACK
6
CONTINUOUS
10
646.713
20
-196.698
11
646.679
21
-196.631
0
LINE
8
BLACK
6
CONTINUOUS
10
650.335
20
-196.237
11
650.314
21
-196.319
0
LINE
8
BLACK
6
CONTINUOUS
10
646.869
20
-194.629
11
646.913
21
-194.572
0
LINE
8
BLACK
6
CONTINUOUS
10
647.538
20
-194.058
11
647.606
21
-194.024
0
LINE
8
BLACK
6
CONTINUOUS
10
648.345
20
-193.84
11
648.437
21
-193.838
0
LINE
8
BLACK
6
CONTINUOUS
10
650.309
20
-195.241
11
650.331
21
-195.32
0
LINE
8
BLACK
6
CONTINUOUS
10
647.982
20
-193.892
11
648.067
21
-193.873
0
LINE
8
BLACK
6
CONTINUOUS
10
650.349
20
-195.404
11
650.364
21
-195.49
0
LINE
8
BLACK
6
CONTINUOUS
10
650.162
20
-194.878
11
650.196
21
-194.945
0
LINE
8
BLACK
6
CONTINUOUS
10
647.606
20
-194.024
11
647.677
21
-193.992
0
LINE
8
BLACK
6
CONTINUOUS
10
650.257
20
-195.087
11
650.285
21
-195.164
0
LINE
8
BLACK
6
CONTINUOUS
10
648.067
20
-193.873
11
648.154
21
-193.858
0
LINE
8
BLACK
6
CONTINUOUS
10
646.827
20
-194.688
11
646.869
21
-194.629
0
LINE
8
BLACK
6
CONTINUOUS
10
647.111
20
-194.359
11
647.167
21
-194.309
0
LINE
8
BLACK
6
CONTINUOUS
10
647.278
20
-194.219
11
647.338
21
-194.177
0
LINE
8
BLACK
6
CONTINUOUS
10
647.222
20
-194.263
11
647.278
21
-194.219
0
LINE
8
BLACK
6
CONTINUOUS
10
650.126
20
-194.813
11
650.162
21
-194.878
0
LINE
8
BLACK
6
CONTINUOUS
10
650.285
20
-195.164
11
650.309
21
-195.241
0
LINE
8
BLACK
6
CONTINUOUS
10
650.331
20
-195.32
11
650.349
21
-195.404
0
LINE
8
BLACK
6
CONTINUOUS
10
650.364
20
-195.49
11
650.377
21
-195.584
0
LINE
8
BLACK
6
CONTINUOUS
10
648.154
20
-193.858
11
648.25
21
-193.847
0
LINE
8
BLACK
6
CONTINUOUS
10
650.196
20
-194.945
11
650.228
21
-195.014
0
LINE
8
BLACK
6
CONTINUOUS
10
647.167
20
-194.309
11
647.222
21
-194.263
0
LINE
8
BLACK
6
CONTINUOUS
10
647.338
20
-194.177
11
647.399
21
-194.137
0
LINE
8
BLACK
6
CONTINUOUS
10
646.959
20
-194.516
11
647.01
21
-194.459
0
LINE
8
BLACK
6
CONTINUOUS
10
647.75
20
-193.963
11
647.825
21
-193.936
0
LINE
8
BLACK
6
CONTINUOUS
10
647.677
20
-193.992
11
647.75
21
-193.963
0
LINE
8
BLACK
6
CONTINUOUS
10
646.787
20
-194.749
11
646.827
21
-194.688
0
LINE
8
BLACK
6
CONTINUOUS
10
647.677
20
-183.902
11
647.75
21
-183.873
0
LINE
8
BLACK
6
CONTINUOUS
10
648.067
20
-183.783
11
648.154
21
-183.768
0
LINE
8
BLACK
6
CONTINUOUS
10
647.278
20
-184.129
11
647.338
21
-184.087
0
LINE
8
BLACK
6
CONTINUOUS
10
646.869
20
-184.539
11
646.913
21
-184.481
0
LINE
8
BLACK
6
CONTINUOUS
10
646.787
20
-184.659
11
646.827
21
-184.598
0
LINE
8
BLACK
6
CONTINUOUS
10
647.825
20
-183.846
11
647.902
21
-183.822
0
LINE
8
BLACK
6
CONTINUOUS
10
647.338
20
-184.087
11
647.399
21
-184.047
0
LINE
8
BLACK
6
CONTINUOUS
10
647.606
20
-183.934
11
647.677
21
-183.902
0
LINE
8
BLACK
6
CONTINUOUS
10
647.399
20
-184.047
11
647.47
21
-184.005
0
LINE
8
BLACK
6
CONTINUOUS
10
646.827
20
-184.598
11
646.869
21
-184.539
0
LINE
8
BLACK
6
CONTINUOUS
10
648.154
20
-183.768
11
648.25
21
-183.757
0
LINE
8
BLACK
6
CONTINUOUS
10
647.538
20
-183.968
11
647.606
21
-183.934
0
LINE
8
BLACK
6
CONTINUOUS
10
646.959
20
-184.426
11
647.01
21
-184.369
0
LINE
8
BLACK
6
CONTINUOUS
10
647.47
20
-184.005
11
647.538
21
-183.968
0
LINE
8
BLACK
6
CONTINUOUS
10
647.75
20
-183.873
11
647.825
21
-183.846
0
LINE
8
BLACK
6
CONTINUOUS
10
648.345
20
-183.75
11
648.437
21
-183.748
0
LINE
8
BLACK
6
CONTINUOUS
10
648.25
20
-183.757
11
648.345
21
-183.75
0
LINE
8
BLACK
6
CONTINUOUS
10
647.111
20
-184.269
11
647.167
21
-184.218
0
LINE
8
BLACK
6
CONTINUOUS
10
647.222
20
-184.173
11
647.278
21
-184.129
0
LINE
8
BLACK
6
CONTINUOUS
10
647.982
20
-183.802
11
648.067
21
-183.783
0
LINE
8
BLACK
6
CONTINUOUS
10
647.902
20
-183.822
11
647.982
21
-183.802
0
LINE
8
BLACK
6
CONTINUOUS
10
647.01
20
-184.369
11
647.059
21
-184.318
0
LINE
8
BLACK
6
CONTINUOUS
10
650.349
20
-185.314
11
650.364
21
-185.4
0
LINE
8
BLACK
6
CONTINUOUS
10
650.133
20
-186.661
11
650.126
21
-186.673
0
LINE
8
BLACK
6
CONTINUOUS
10
646.749
20
-184.723
11
646.787
21
-184.659
0
LINE
8
BLACK
6
CONTINUOUS
10
647.167
20
-184.218
11
647.222
21
-184.173
0
LINE
8
BLACK
6
CONTINUOUS
10
646.913
20
-184.481
11
646.959
21
-184.426
0
LINE
8
BLACK
6
CONTINUOUS
10
650.335
20
-186.147
11
650.314
21
-186.229
0
LINE
8
BLACK
6
CONTINUOUS
10
647.059
20
-184.318
11
647.111
21
-184.269
0
LINE
8
BLACK
6
CONTINUOUS
10
650.364
20
-185.4
11
650.377
21
-185.494
0
LINE
8
BLACK
6
CONTINUOUS
10
650.385
20
-185.791
11
650.378
21
-185.887
0
LINE
8
BLACK
6
CONTINUOUS
10
650.309
20
-185.151
11
650.331
21
-185.23
0
LINE
8
BLACK
6
CONTINUOUS
10
650.126
20
-184.723
11
650.162
21
-184.788
0
LINE
8
BLACK
6
CONTINUOUS
10
650.123
20
-184.718
11
650.126
21
-184.723
0
LINE
8
BLACK
6
CONTINUOUS
10
650.378
20
-185.887
11
650.367
21
-185.978
0
LINE
8
BLACK
6
CONTINUOUS
10
650.331
20
-185.23
11
650.349
21
-185.314
0
LINE
8
BLACK
6
CONTINUOUS
10
650.387
20
-185.687
11
650.385
21
-185.791
0
LINE
8
BLACK
6
CONTINUOUS
10
650.285
20
-185.074
11
650.309
21
-185.151
0
LINE
8
BLACK
6
CONTINUOUS
10
650.083
20
-184.652
11
650.123
21
-184.718
0
LINE
8
BLACK
6
CONTINUOUS
10
650.264
20
-186.381
11
650.235
21
-186.454
0
LINE
8
BLACK
6
CONTINUOUS
10
647.065
20
-187.083
11
647.015
21
-187.032
0
LINE
8
BLACK
6
CONTINUOUS
10
649.861
20
-184.365
11
649.909
21
-184.418
0
LINE
8
BLACK
6
CONTINUOUS
10
646.966
20
-186.977
11
646.919
21
-186.922
0
LINE
8
BLACK
6
CONTINUOUS
10
646.611
20
-185.013
11
646.64
21
-184.941
0
LINE
8
BLACK
6
CONTINUOUS
10
648.974
20
-183.823
11
649.051
21
-183.847
0
LINE
8
BLACK
6
CONTINUOUS
10
648.895
20
-183.802
11
648.974
21
-183.823
0
LINE
8
BLACK
6
CONTINUOUS
10
650.196
20
-184.855
11
650.228
21
-184.924
0
LINE
8
BLACK
6
CONTINUOUS
10
650.29
20
-186.306
11
650.264
21
-186.381
0
LINE
8
BLACK
6
CONTINUOUS
10
649.955
20
-184.474
11
649.999
21
-184.53
0
LINE
8
BLACK
6
CONTINUOUS
10
650.228
20
-184.924
11
650.257
21
-184.997
0
LINE
8
BLACK
6
CONTINUOUS
10
650.17
20
-186.593
11
650.133
21
-186.661
0
LINE
8
BLACK
6
CONTINUOUS
10
650.042
20
-184.589
11
650.083
21
-184.652
0
LINE
8
BLACK
6
CONTINUOUS
10
650.377
20
-185.494
11
650.384
21
-185.588
0
LINE
8
BLACK
6
CONTINUOUS
10
650.367
20
-185.978
11
650.353
21
-186.064
0
LINE
8
BLACK
6
CONTINUOUS
10
650.314
20
-186.229
11
650.29
21
-186.306
0
LINE
8
BLACK
6
CONTINUOUS
10
650.204
20
-186.524
11
650.17
21
-186.593
0
LINE
8
BLACK
6
CONTINUOUS
10
650.235
20
-186.454
11
650.204
21
-186.524
0
LINE
8
BLACK
6
CONTINUOUS
10
650.384
20
-185.588
11
650.387
21
-185.687
0
LINE
8
BLACK
6
CONTINUOUS
10
650.353
20
-186.064
11
650.335
21
-186.147
0
LINE
8
BLACK
6
CONTINUOUS
10
650.162
20
-184.788
11
650.196
21
-184.855
0
LINE
8
BLACK
6
CONTINUOUS
10
646.496
20
-185.514
11
646.507
21
-185.419
0
LINE
8
BLACK
6
CONTINUOUS
10
646.792
20
-186.745
11
646.754
21
-186.682
0
LINE
8
BLACK
6
CONTINUOUS
10
647.671
20
-187.491
11
647.601
21
-187.459
0
LINE
8
BLACK
6
CONTINUOUS
10
646.743
20
-184.732
11
646.749
21
-184.723
0
LINE
8
BLACK
6
CONTINUOUS
10
650.257
20
-184.997
11
650.285
21
-185.074
0
LINE
8
BLACK
6
CONTINUOUS
10
649.999
20
-184.53
11
650.042
21
-184.589
0
LINE
8
BLACK
6
CONTINUOUS
10
646.671
20
-184.871
11
646.704
21
-184.803
0
LINE
8
BLACK
6
CONTINUOUS
10
646.487
20
-185.706
11
646.489
21
-185.608
0
LINE
8
BLACK
6
CONTINUOUS
10
648.152
20
-187.627
11
648.063
21
-187.611
0
LINE
8
BLACK
6
CONTINUOUS
10
646.875
20
-186.865
11
646.833
21
-186.806
0
LINE
8
BLACK
6
CONTINUOUS
10
647.743
20
-187.52
11
647.671
21
-187.491
0
LINE
8
BLACK
6
CONTINUOUS
10
648.437
20
-187.648
11
648.339
21
-187.645
0
LINE
8
BLACK
6
CONTINUOUS
10
649.339
20
-183.969
11
649.404
21
-184.004
0
LINE
8
BLACK
6
CONTINUOUS
10
646.54
20
-185.248
11
646.561
21
-185.167
0
LINE
8
BLACK
6
CONTINUOUS
10
648.437
20
-183.748
11
648.535
21
-183.75
0
LINE
8
BLACK
6
CONTINUOUS
10
646.507
20
-185.419
11
646.522
21
-185.331
0
LINE
8
BLACK
6
CONTINUOUS
10
647.283
20
-187.269
11
647.225
21
-187.225
0
LINE
8
BLACK
6
CONTINUOUS
10
647.17
20
-187.18
11
647.117
21
-187.132
0
LINE
8
BLACK
6
CONTINUOUS
10
646.64
20
-184.941
11
646.671
21
-184.871
0
LINE
8
BLACK
6
CONTINUOUS
10
646.754
20
-186.682
11
646.749
21
-186.673
0
LINE
8
BLACK
6
CONTINUOUS
10
646.585
20
-185.087
11
646.611
21
-185.013
0
LINE
8
BLACK
6
CONTINUOUS
10
646.489
20
-185.608
11
646.496
21
-185.514
0
LINE
8
BLACK
6
CONTINUOUS
10
649.592
20
-184.126
11
649.65
21
-184.17
0
LINE
8
BLACK
6
CONTINUOUS
10
649.126
20
-183.873
11
649.198
21
-183.902
0
LINE
8
BLACK
6
CONTINUOUS
10
646.522
20
-185.331
11
646.54
21
-185.248
0
LINE
8
BLACK
6
CONTINUOUS
10
649.47
20
-184.044
11
649.532
21
-184.084
0
LINE
8
BLACK
6
CONTINUOUS
10
648.811
20
-183.784
11
648.895
21
-183.802
0
LINE
8
BLACK
6
CONTINUOUS
10
646.919
20
-186.922
11
646.875
21
-186.865
0
LINE
8
BLACK
6
CONTINUOUS
10
648.063
20
-187.611
11
647.978
21
-187.593
0
LINE
8
BLACK
6
CONTINUOUS
10
649.591
20
-187.27
11
649.532
21
-187.311
0
LINE
8
BLACK
6
CONTINUOUS
10
646.704
20
-184.803
11
646.743
21
-184.732
0
LINE
8
BLACK
6
CONTINUOUS
10
649.861
20
-187.031
11
649.811
21
-187.082
0
LINE
8
BLACK
6
CONTINUOUS
10
650.004
20
-186.859
11
649.954
21
-186.923
0
LINE
8
BLACK
6
CONTINUOUS
10
650.047
20
-186.799
11
650.004
21
-186.859
0
LINE
8
BLACK
6
CONTINUOUS
10
648.723
20
-183.769
11
648.811
21
-183.784
0
LINE
8
BLACK
6
CONTINUOUS
10
649.272
20
-183.935
11
649.339
21
-183.969
0
LINE
8
BLACK
6
CONTINUOUS
10
647.015
20
-187.032
11
646.966
21
-186.977
0
LINE
8
BLACK
6
CONTINUOUS
10
646.49
20
-185.807
11
646.487
21
-185.706
0
LINE
8
BLACK
6
CONTINUOUS
10
648.633
20
-183.757
11
648.723
21
-183.769
0
LINE
8
BLACK
6
CONTINUOUS
10
649.758
20
-184.263
11
649.811
21
-184.314
0
LINE
8
BLACK
6
CONTINUOUS
10
646.561
20
-185.167
11
646.585
21
-185.087
0
LINE
8
BLACK
6
CONTINUOUS
10
647.225
20
-187.225
11
647.17
21
-187.18
0
LINE
8
BLACK
6
CONTINUOUS
10
648.242
20
-187.638
11
648.152
21
-187.627
0
LINE
8
BLACK
6
CONTINUOUS
10
649.051
20
-183.847
11
649.126
21
-183.873
0
LINE
8
BLACK
6
CONTINUOUS
10
647.601
20
-187.459
11
647.534
21
-187.426
0
LINE
8
BLACK
6
CONTINUOUS
10
649.198
20
-183.902
11
649.272
21
-183.935
0
LINE
8
BLACK
6
CONTINUOUS
10
648.339
20
-187.645
11
648.242
21
-187.638
0
LINE
8
BLACK
6
CONTINUOUS
10
647.342
20
-187.311
11
647.283
21
-187.269
0
LINE
8
BLACK
6
CONTINUOUS
10
648.535
20
-183.75
11
648.633
21
-183.757
0
LINE
8
BLACK
6
CONTINUOUS
10
647.534
20
-187.426
11
647.468
21
-187.39
0
LINE
8
BLACK
6
CONTINUOUS
10
649.532
20
-184.084
11
649.592
21
-184.126
0
LINE
8
BLACK
6
CONTINUOUS
10
648.895
20
-187.593
11
648.811
21
-187.612
0
LINE
8
BLACK
6
CONTINUOUS
10
646.526
20
-186.082
11
646.51
21
-185.992
0
LINE
8
BLACK
6
CONTINUOUS
10
649.65
20
-184.17
11
649.705
21
-184.216
0
LINE
8
BLACK
6
CONTINUOUS
10
647.468
20
-187.39
11
647.402
21
-187.35
0
LINE
8
BLACK
6
CONTINUOUS
10
647.897
20
-187.571
11
647.817
21
-187.547
0
LINE
8
BLACK
6
CONTINUOUS
10
647.817
20
-187.547
11
647.743
21
-187.52
0
LINE
8
BLACK
6
CONTINUOUS
10
646.617
20
-186.397
11
646.59
21
-186.321
0
LINE
8
BLACK
6
CONTINUOUS
10
646.566
20
-186.245
11
646.544
21
-186.165
0
LINE
8
BLACK
6
CONTINUOUS
10
649.909
20
-184.418
11
649.955
21
-184.474
0
LINE
8
BLACK
6
CONTINUOUS
10
648.442
20
-187.648
11
648.437
21
-187.648
0
LINE
8
BLACK
6
CONTINUOUS
10
648.724
20
-187.626
11
648.635
21
-187.638
0
LINE
8
BLACK
6
CONTINUOUS
10
649.404
20
-184.004
11
649.47
21
-184.044
0
LINE
8
BLACK
6
CONTINUOUS
10
646.833
20
-186.806
11
646.792
21
-186.745
0
LINE
8
BLACK
6
CONTINUOUS
10
649.811
20
-184.314
11
649.861
21
-184.365
0
LINE
8
BLACK
6
CONTINUOUS
10
647.402
20
-187.35
11
647.342
21
-187.311
0
LINE
8
BLACK
6
CONTINUOUS
10
647.978
20
-187.593
11
647.897
21
-187.571
0
LINE
8
BLACK
6
CONTINUOUS
10
647.117
20
-187.132
11
647.065
21
-187.083
0
LINE
8
BLACK
6
CONTINUOUS
10
649.705
20
-184.216
11
649.758
21
-184.263
0
LINE
8
BLACK
6
CONTINUOUS
10
649.128
20
-187.521
11
649.054
21
-187.548
0
LINE
8
BLACK
6
CONTINUOUS
10
650.126
20
-186.673
11
650.087
21
-186.738
0
LINE
8
BLACK
6
CONTINUOUS
10
646.713
20
-186.608
11
646.679
21
-186.541
0
LINE
8
BLACK
6
CONTINUOUS
10
649.2
20
-187.492
11
649.128
21
-187.521
0
LINE
8
BLACK
6
CONTINUOUS
10
650.087
20
-186.738
11
650.047
21
-186.799
0
LINE
8
BLACK
6
CONTINUOUS
10
649.532
20
-187.311
11
649.471
21
-187.351
0
LINE
8
BLACK
6
CONTINUOUS
10
649.275
20
-187.458
11
649.2
21
-187.492
0
LINE
8
BLACK
6
CONTINUOUS
10
649.703
20
-187.181
11
649.648
21
-187.226
0
LINE
8
BLACK
6
CONTINUOUS
10
649.342
20
-187.425
11
649.275
21
-187.458
0
LINE
8
BLACK
6
CONTINUOUS
10
648.541
20
-187.645
11
648.442
21
-187.648
0
LINE
8
BLACK
6
CONTINUOUS
10
646.679
20
-186.541
11
646.647
21
-186.471
0
LINE
8
BLACK
6
CONTINUOUS
10
648.811
20
-187.612
11
648.724
21
-187.626
0
LINE
8
BLACK
6
CONTINUOUS
10
649.757
20
-187.134
11
649.703
21
-187.181
0
LINE
8
BLACK
6
CONTINUOUS
10
649.954
20
-186.923
11
649.908
21
-186.978
0
LINE
8
BLACK
6
CONTINUOUS
10
649.648
20
-187.226
11
649.591
21
-187.27
0
LINE
8
BLACK
6
CONTINUOUS
10
646.544
20
-186.165
11
646.526
21
-186.082
0
LINE
8
BLACK
6
CONTINUOUS
10
646.647
20
-186.471
11
646.617
21
-186.397
0
LINE
8
BLACK
6
CONTINUOUS
10
646.59
20
-186.321
11
646.566
21
-186.245
0
LINE
8
BLACK
6
CONTINUOUS
10
648.976
20
-187.572
11
648.895
21
-187.593
0
LINE
8
BLACK
6
CONTINUOUS
10
649.471
20
-187.351
11
649.408
21
-187.389
0
LINE
8
BLACK
6
CONTINUOUS
10
649.408
20
-187.389
11
649.342
21
-187.425
0
LINE
8
BLACK
6
CONTINUOUS
10
649.908
20
-186.978
11
649.861
21
-187.031
0
LINE
8
BLACK
6
CONTINUOUS
10
646.749
20
-186.673
11
646.713
21
-186.608
0
LINE
8
BLACK
6
CONTINUOUS
10
646.51
20
-185.992
11
646.498
21
-185.902
0
LINE
8
BLACK
6
CONTINUOUS
10
649.054
20
-187.548
11
648.976
21
-187.572
0
LINE
8
BLACK
6
CONTINUOUS
10
646.498
20
-185.902
11
646.49
21
-185.807
0
LINE
8
BLACK
6
CONTINUOUS
10
649.811
20
-187.082
11
649.757
21
-187.134
0
LINE
8
BLACK
6
CONTINUOUS
10
648.635
20
-187.638
11
648.541
21
-187.645
0
LINE
8
BLACK
6
CONTINUOUS
10
18.949
20
-392.754
11
18.949
21
-397.754
0
LINE
8
BLACK
6
CONTINUOUS
10
37.999
20
-292.354
11
190.548
21
-292.354
0
LINE
8
BLACK
6
CONTINUOUS
10
195.448
20
-392.854
11
195.448
21
-297.254
0
ARC
8
BLACK
10
190.548
20
-297.254
40
4.9
50
-0
51
90
0
ARC
8
BLACK
10
190.548
20
-392.854
40
4.9
50
-90
51
-0
0
LINE
8
BLACK
6
CONTINUOUS
10
190.498
20
-301.354
11
190.498
21
-388.753
0
LINE
8
BLACK
6
CONTINUOUS
10
37.999
20
-297.354
11
186.495
21
-297.354
0
ARC
8
BLACK
10
186.495
20
-388.753
40
4.00304
50
-90
51
-0
0
LINE
8
BLACK
6
CONTINUOUS
10
186.495
20
-392.754
11
18.949
21
-392.754
0
LINE
8
BLACK
6
CONTINUOUS
10
37.999
20
-297.354
11
37.999
21
-292.354
0
LINE
8
BLACK
6
CONTINUOUS
10
18.949
20
-397.754
11
190.548
21
-397.754
0
ARC
8
BLACK
10
186.495
20
-301.354
40
4.00304
50
-0
51
90
0
LINE
8
BLACK
6
CONTINUOUS
10
19.558
20
-13.462
11
30.658
21
-13.462
0
ARC
8
BLACK
10
48.658
20
-15.462
40
2
50
90
51
180
0
LINE
8
BLACK
6
CONTINUOUS
10
188.658
20
-15.462
11
188.658
21
-27.462
0
LINE
8
BLACK
6
CONTINUOUS
10
310.658
20
-27.462
11
310.658
21
-15.462
0
ARC
8
BLACK
10
186.658
20
-15.462
40
2
50
-0
51
90
0
ARC
8
BLACK
10
297.658
20
-27.462
40
1
50
180
51
270
0
ARC
8
BLACK
10
309.658
20
-27.462
40
1
50
-90
51
-0
0
LINE
8
BLACK
6
CONTINUOUS
10
153.061
20
-118.862
11
324.66
21
-118.862
0
LINE
8
BLACK
6
CONTINUOUS
10
154.658
20
-27.462
11
154.658
21
-15.462
0
LINE
8
BLACK
6
CONTINUOUS
10
48.658
20
-13.462
11
138.658
21
-13.462
0
LINE
8
BLACK
6
CONTINUOUS
10
163.587
20
-37.5171
11
171.113
21
-37.5171
0
ARC
8
BLACK
10
19.558
20
-113.962
40
4.9
50
180
51
270
0
LINE
8
BLACK
6
CONTINUOUS
10
166.619
20
-75.5806
11
166.695
21
-75.556
0
LINE
8
BLACK
6
CONTINUOUS
10
166.766
20
-75.5266
11
166.835
21
-75.4919
0
ARC
8
BLACK
10
156.658
20
-15.462
40
2
50
90
51
180
0
ARC
8
BLACK
10
312.658
20
-15.462
40
2
50
90
51
180
0
LINE
8
BLACK
6
CONTINUOUS
10
167.338
20
-74.7688
11
167.348
21
-74.678
0
ARC
8
BLACK
10
33.658
20
-27.462
40
1
50
180
51
270
0
LINE
8
BLACK
6
CONTINUOUS
10
166.449
20
-75.6125
11
166.537
21
-75.5999
0
ARC
8
BLACK
10
189.658
20
-27.462
40
1
50
180
51
270
0
LINE
8
BLACK
6
CONTINUOUS
10
140.658
20
-15.462
11
140.658
21
-27.462
0
ARC
8
BLACK
10
141.658
20
-27.462
40
1
50
180
51
270
0
LINE
8
BLACK
6
CONTINUOUS
10
167.065
20
-75.3156
11
167.113
21
-75.2629
0
LINE
8
BLACK
6
CONTINUOUS
10
166.695
20
-75.556
11
166.766
21
-75.5266
0
LINE
8
BLACK
6
CONTINUOUS
10
167.16
20
-75.2029
11
167.202
21
-75.1407
0
LINE
8
BLACK
6
CONTINUOUS
10
166.35
20
-75.6173
11
166.449
21
-75.6125
0
LINE
8
BLACK
6
CONTINUOUS
10
172.111
20
-13.462
11
186.658
21
-13.462
0
LINE
8
BLACK
6
CONTINUOUS
10
204.658
20
-13.462
11
294.658
21
-13.462
0
LINE
8
BLACK
6
CONTINUOUS
10
167.271
20
-75.0059
11
167.299
21
-74.933
0
LINE
8
BLACK
6
CONTINUOUS
10
167.113
20
-75.2629
11
167.16
21
-75.2029
0
LINE
8
BLACK
6
CONTINUOUS
10
167.348
20
-74.678
11
167.35
21
-74.6173
0
ARC
8
BLACK
10
45.658
20
-27.462
40
1
50
-90
51
-0
0
LINE
8
BLACK
6
CONTINUOUS
10
167.239
20
-75.0746
11
167.271
21
-75.0059
0
LINE
8
BLACK
6
CONTINUOUS
10
46.658
20
-27.462
11
46.658
21
-15.462
0
ARC
8
BLACK
10
30.658
20
-15.462
40
2
50
-0
51
90
0
LINE
8
BLACK
6
CONTINUOUS
10
32.658
20
-15.462
11
32.658
21
-27.462
0
LINE
8
BLACK
6
CONTINUOUS
10
35.658
20
-32.462
11
43.658
21
-32.462
0
ARC
8
BLACK
10
204.658
20
-15.462
40
2
50
90
51
180
0
LINE
8
BLACK
6
CONTINUOUS
10
312.658
20
-13.462
11
324.66
21
-13.462
0
LINE
8
BLACK
6
CONTINUOUS
10
167.322
20
-74.853
11
167.338
21
-74.7688
0
LINE
8
BLACK
6
CONTINUOUS
10
166.537
20
-75.5999
11
166.619
21
-75.5806
0
LINE
8
BLACK
6
CONTINUOUS
10
167.013
20
-75.3654
11
167.065
21
-75.3156
0
LINE
8
BLACK
6
CONTINUOUS
10
166.958
20
-75.4108
11
167.013
21
-75.3654
0
LINE
8
BLACK
6
CONTINUOUS
10
14.658
20
-18.362
11
14.658
21
-113.962
0
LINE
8
BLACK
6
CONTINUOUS
10
166.835
20
-75.4919
11
166.899
21
-75.453
0
LINE
8
BLACK
6
CONTINUOUS
10
156.658
20
-13.462
11
172.111
21
-13.462
0
LINE
8
BLACK
6
CONTINUOUS
10
19.558
20
-118.862
11
153.061
21
-118.862
0
ARC
8
BLACK
10
324.66
20
-18.362
40
4.9
50
-0
51
90
0
ARC
8
BLACK
10
153.658
20
-27.462
40
1
50
-90
51
-0
0
ARC
8
BLACK
10
201.658
20
-27.462
40
1
50
-90
51
-0
0
LINE
8
BLACK
6
CONTINUOUS
10
167.299
20
-74.933
11
167.322
21
-74.853
0
LINE
8
BLACK
6
CONTINUOUS
10
202.658
20
-27.462
11
202.658
21
-15.462
0
LINE
8
BLACK
6
CONTINUOUS
10
296.658
20
-15.462
11
296.658
21
-27.462
0
ARC
8
BLACK
10
19.558
20
-18.362
40
4.9
50
90
51
180
0
LINE
8
BLACK
6
CONTINUOUS
10
167.202
20
-75.1407
11
167.239
21
-75.0746
0
LINE
8
BLACK
6
CONTINUOUS
10
166.899
20
-75.453
11
166.958
21
-75.4108
0
LINE
8
BLACK
6
CONTINUOUS
10
329.56
20
-113.962
11
329.56
21
-18.362
0
ARC
8
BLACK
10
294.658
20
-15.462
40
2
50
-0
51
90
0
LINE
8
BLACK
6
CONTINUOUS
10
157.797
20
-93.903
11
157.813
21
-93.8188
0
LINE
8
BLACK
6
CONTINUOUS
10
157.774
20
-93.983
11
157.797
21
-93.903
0
LINE
8
BLACK
6
CONTINUOUS
10
171.53
20
-37.4265
11
171.599
21
-37.3918
0
LINE
8
BLACK
6
CONTINUOUS
10
158.112
20
-75.9153
11
158.064
21
-75.968
0
LINE
8
BLACK
6
CONTINUOUS
10
157.635
20
-94.2529
11
157.677
21
-94.1907
0
LINE
8
BLACK
6
CONTINUOUS
10
157.54
20
-94.3656
11
157.588
21
-94.3129
0
LINE
8
BLACK
6
CONTINUOUS
10
157.433
20
-94.4608
11
157.488
21
-94.4154
0
LINE
8
BLACK
6
CONTINUOUS
10
157.241
20
-94.5766
11
157.31
21
-94.5419
0
LINE
8
BLACK
6
CONTINUOUS
10
172.112
20
-36.5779
11
172.114
21
-36.5172
0
LINE
8
BLACK
6
CONTINUOUS
10
172.003
20
-36.9745
11
172.035
21
-36.9058
0
LINE
8
BLACK
6
CONTINUOUS
10
171.924
20
-37.1028
11
171.966
21
-37.0406
0
LINE
8
BLACK
6
CONTINUOUS
10
171.777
20
-37.2653
11
171.829
21
-37.2155
0
LINE
8
BLACK
6
CONTINUOUS
10
158.411
20
-75.7066
11
158.342
21
-75.7413
0
LINE
8
BLACK
6
CONTINUOUS
10
171.966
20
-37.0406
11
172.003
21
-36.9745
0
LINE
8
BLACK
6
CONTINUOUS
10
158.064
20
-75.968
11
158.019
21
-76.0244
0
LINE
8
BLACK
6
CONTINUOUS
10
158.22
20
-75.8209
11
158.164
21
-75.8666
0
LINE
8
BLACK
6
CONTINUOUS
10
172.111
20
-36.5163
11
172.111
21
-13.462
0
LINE
8
BLACK
6
CONTINUOUS
10
171.829
20
-37.2155
11
171.877
21
-37.1628
0
LINE
8
BLACK
6
CONTINUOUS
10
157.838
20
-76.4534
11
157.827
21
-76.5493
0
LINE
8
BLACK
6
CONTINUOUS
10
171.663
20
-37.3529
11
171.722
21
-37.3107
0
LINE
8
BLACK
6
CONTINUOUS
10
171.383
20
-37.4805
11
171.459
21
-37.4559
0
LINE
8
BLACK
6
CONTINUOUS
10
158.639
20
-75.6345
11
158.558
21
-75.6533
0
LINE
8
BLACK
6
CONTINUOUS
10
157.978
20
-76.0844
11
157.941
21
-76.1488
0
LINE
8
BLACK
6
CONTINUOUS
10
157.941
20
-76.1488
11
157.907
21
-76.22
0
LINE
8
BLACK
6
CONTINUOUS
10
157.746
20
-94.0559
11
157.774
21
-93.983
0
LINE
8
BLACK
6
CONTINUOUS
10
157.677
20
-94.1907
11
157.714
21
-94.1246
0
LINE
8
BLACK
6
CONTINUOUS
10
154.062
20
-94.6671
11
156.823
21
-94.6671
0
LINE
8
BLACK
6
CONTINUOUS
10
157.012
20
-94.6499
11
157.094
21
-94.6306
0
LINE
8
BLACK
6
CONTINUOUS
10
171.114
20
-37.5172
11
171.213
21
-37.5124
0
LINE
8
BLACK
6
CONTINUOUS
10
158.822
20
-75.6171
11
166.348
21
-75.6171
0
LINE
8
BLACK
6
CONTINUOUS
10
157.31
20
-94.5419
11
157.374
21
-94.503
0
LINE
8
BLACK
6
CONTINUOUS
10
171.599
20
-37.3918
11
171.663
21
-37.3529
0
LINE
8
BLACK
6
CONTINUOUS
10
156.924
20
-94.6625
11
157.012
21
-94.6499
0
LINE
8
BLACK
6
CONTINUOUS
10
157.488
20
-94.4154
11
157.54
21
-94.3656
0
LINE
8
BLACK
6
CONTINUOUS
10
158.279
20
-75.7794
11
158.22
21
-75.8209
0
LINE
8
BLACK
6
CONTINUOUS
10
157.17
20
-94.606
11
157.241
21
-94.5766
0
LINE
8
BLACK
6
CONTINUOUS
10
172.102
20
-36.6687
11
172.112
21
-36.5779
0
LINE
8
BLACK
6
CONTINUOUS
10
172.086
20
-36.7529
11
172.102
21
-36.6687
0
LINE
8
BLACK
6
CONTINUOUS
10
171.877
20
-37.1628
11
171.924
21
-37.1028
0
LINE
8
BLACK
6
CONTINUOUS
10
171.722
20
-37.3107
11
171.777
21
-37.2653
0
LINE
8
BLACK
6
CONTINUOUS
10
171.459
20
-37.4559
11
171.53
21
-37.4265
0
LINE
8
BLACK
6
CONTINUOUS
10
157.855
20
-76.37
11
157.838
21
-76.4534
0
LINE
8
BLACK
6
CONTINUOUS
10
158.558
20
-75.6533
11
158.482
21
-75.6776
0
LINE
8
BLACK
6
CONTINUOUS
10
172.035
20
-36.9058
11
172.063
21
-36.8329
0
LINE
8
BLACK
6
CONTINUOUS
10
157.878
20
-76.2926
11
157.855
21
-76.37
0
ARC
8
BLACK
10
324.66
20
-113.962
40
4.9
50
-90
51
-0
0
LINE
8
BLACK
6
CONTINUOUS
10
157.823
20
-93.728
11
157.825
21
-93.6673
0
LINE
8
BLACK
6
CONTINUOUS
10
158.482
20
-75.6776
11
158.411
21
-75.7066
0
LINE
8
BLACK
6
CONTINUOUS
10
167.349
20
-74.6163
11
167.349
21
-57.5628
0
LINE
8
BLACK
6
CONTINUOUS
10
157.374
20
-94.503
11
157.433
21
-94.4608
0
LINE
8
BLACK
6
CONTINUOUS
10
171.213
20
-37.5124
11
171.301
21
-37.4998
0
LINE
8
BLACK
6
CONTINUOUS
10
166.348
20
-56.5638
11
163.586
21
-56.5638
0
LINE
8
BLACK
6
CONTINUOUS
10
157.714
20
-94.1246
11
157.746
21
-94.0559
0
LINE
8
BLACK
6
CONTINUOUS
10
157.588
20
-94.3129
11
157.635
21
-94.2529
0
LINE
8
BLACK
6
CONTINUOUS
10
157.094
20
-94.6306
11
157.17
21
-94.606
0
LINE
8
BLACK
6
CONTINUOUS
10
157.827
20
-76.5493
11
157.825
21
-76.6173
0
LINE
8
BLACK
6
CONTINUOUS
10
157.907
20
-76.22
11
157.878
21
-76.2926
0
LINE
8
BLACK
6
CONTINUOUS
10
158.342
20
-75.7413
11
158.279
21
-75.7794
0
LINE
8
BLACK
6
CONTINUOUS
10
158.164
20
-75.8666
11
158.112
21
-75.9153
0
LINE
8
BLACK
6
CONTINUOUS
10
157.813
20
-93.8188
11
157.823
21
-93.728
0
LINE
8
BLACK
6
CONTINUOUS
10
156.825
20
-94.6673
11
156.924
21
-94.6625
0
LINE
8
BLACK
6
CONTINUOUS
10
171.301
20
-37.4998
11
171.383
21
-37.4805
0
LINE
8
BLACK
6
CONTINUOUS
10
172.063
20
-36.8329
11
172.086
21
-36.7529
0
LINE
8
BLACK
6
CONTINUOUS
10
158.019
20
-76.0244
11
157.978
21
-76.0844
0
LINE
8
BLACK
6
CONTINUOUS
10
167.185
20
-57.0151
11
167.143
21
-56.9551
0
LINE
8
BLACK
6
CONTINUOUS
10
158.825
20
-75.6173
11
158.728
21
-75.6219
0
LINE
8
BLACK
6
CONTINUOUS
10
162.586
20
-55.5638
11
162.586
21
-38.5153
0
LINE
8
BLACK
6
CONTINUOUS
10
153.518
20
-94.8294
11
153.459
21
-94.8709
0
LINE
8
BLACK
6
CONTINUOUS
10
162.591
20
-38.4492
11
162.589
21
-38.5172
0
LINE
8
BLACK
6
CONTINUOUS
10
162.984
20
-37.7208
11
162.928
21
-37.7665
0
LINE
8
BLACK
6
CONTINUOUS
10
153.066
20
-95.5993
11
153.064
21
-95.6673
0
LINE
8
BLACK
6
CONTINUOUS
10
153.094
20
-95.42
11
153.077
21
-95.5034
0
LINE
8
BLACK
6
CONTINUOUS
10
153.18
20
-95.1988
11
153.146
21
-95.27
0
LINE
8
BLACK
6
CONTINUOUS
10
163.403
20
-37.5344
11
163.322
21
-37.5532
0
LINE
8
BLACK
6
CONTINUOUS
10
163.106
20
-37.6412
11
163.043
21
-37.6793
0
LINE
8
BLACK
6
CONTINUOUS
10
163.589
20
-37.5172
11
163.492
21
-37.5218
0
LINE
8
BLACK
6
CONTINUOUS
10
166.506
20
-56.5767
11
166.415
21
-56.5666
0
LINE
8
BLACK
6
CONTINUOUS
10
153.217
20
-95.1344
11
153.18
21
-95.1988
0
LINE
8
BLACK
6
CONTINUOUS
10
153.258
20
-95.0744
11
153.217
21
-95.1344
0
LINE
8
BLACK
6
CONTINUOUS
10
153.878
20
-94.6845
11
153.797
21
-94.7033
0
LINE
8
BLACK
6
CONTINUOUS
10
153.65
20
-94.7566
11
153.581
21
-94.7913
0
LINE
8
BLACK
6
CONTINUOUS
10
163.246
20
-37.5774
11
163.175
21
-37.6065
0
LINE
8
BLACK
6
CONTINUOUS
10
153.351
20
-94.9653
11
153.303
21
-95.018
0
LINE
8
BLACK
6
CONTINUOUS
10
167.047
20
-56.8482
11
166.994
21
-56.8001
0
LINE
8
BLACK
6
CONTINUOUS
10
153.403
20
-94.9166
11
153.351
21
-94.9653
0
LINE
8
BLACK
6
CONTINUOUS
10
163.043
20
-37.6793
11
162.984
21
-37.7208
0
LINE
8
BLACK
6
CONTINUOUS
10
162.619
20
-38.2699
11
162.602
21
-38.3533
0
LINE
8
BLACK
6
CONTINUOUS
10
166.812
20
-56.6778
11
166.744
21
-56.6454
0
LINE
8
BLACK
6
CONTINUOUS
10
166.59
20
-56.5935
11
166.506
21
-56.5767
0
LINE
8
BLACK
6
CONTINUOUS
10
153.967
20
-94.6719
11
153.878
21
-94.6845
0
LINE
8
BLACK
6
CONTINUOUS
10
162.742
20
-37.9843
11
162.705
21
-38.0487
0
LINE
8
BLACK
6
CONTINUOUS
10
157.824
20
-93.6663
11
157.824
21
-76.6153
0
LINE
8
BLACK
6
CONTINUOUS
10
166.67
20
-56.6168
11
166.59
21
-56.5935
0
LINE
8
BLACK
6
CONTINUOUS
10
167.332
20
-57.3775
11
167.313
21
-57.296
0
LINE
8
BLACK
6
CONTINUOUS
10
153.303
20
-95.018
11
153.258
21
-95.0744
0
LINE
8
BLACK
6
CONTINUOUS
10
167.258
20
-57.1457
11
167.224
21
-57.0793
0
LINE
8
BLACK
6
CONTINUOUS
10
167.288
20
-57.2185
11
167.258
21
-57.1457
0
LINE
8
BLACK
6
CONTINUOUS
10
153.721
20
-94.7275
11
153.65
21
-94.7566
0
LINE
8
BLACK
6
CONTINUOUS
10
167.143
20
-56.9551
11
167.096
21
-56.8994
0
LINE
8
BLACK
6
CONTINUOUS
10
162.876
20
-37.8152
11
162.828
21
-37.8679
0
LINE
8
BLACK
6
CONTINUOUS
10
166.937
20
-56.7555
11
166.876
21
-56.7144
0
LINE
8
BLACK
6
CONTINUOUS
10
166.994
20
-56.8001
11
166.937
21
-56.7555
0
LINE
8
BLACK
6
CONTINUOUS
10
162.643
20
-38.1925
11
162.619
21
-38.2699
0
LINE
8
BLACK
6
CONTINUOUS
10
153.459
20
-94.8709
11
153.403
21
-94.9166
0
LINE
8
BLACK
6
CONTINUOUS
10
166.744
20
-56.6454
11
166.67
21
-56.6168
0
LINE
8
BLACK
6
CONTINUOUS
10
163.322
20
-37.5532
11
163.246
21
-37.5774
0
LINE
8
BLACK
6
CONTINUOUS
10
162.783
20
-37.9243
11
162.742
21
-37.9843
0
LINE
8
BLACK
6
CONTINUOUS
10
163.175
20
-37.6065
11
163.106
21
-37.6412
0
LINE
8
BLACK
6
CONTINUOUS
10
162.671
20
-38.1199
11
162.643
21
-38.1925
0
LINE
8
BLACK
6
CONTINUOUS
10
167.096
20
-56.8994
11
167.047
21
-56.8482
0
LINE
8
BLACK
6
CONTINUOUS
10
153.077
20
-95.5034
11
153.066
21
-95.5993
0
LINE
8
BLACK
6
CONTINUOUS
10
153.581
20
-94.7913
11
153.518
21
-94.8294
0
LINE
8
BLACK
6
CONTINUOUS
10
162.602
20
-38.3533
11
162.591
21
-38.4492
0
LINE
8
BLACK
6
CONTINUOUS
10
162.828
20
-37.8679
11
162.783
21
-37.9243
0
LINE
8
BLACK
6
CONTINUOUS
10
162.928
20
-37.7665
11
162.876
21
-37.8152
0
LINE
8
BLACK
6
CONTINUOUS
10
153.061
20
-118.862
11
153.061
21
-95.6653
0
LINE
8
BLACK
6
CONTINUOUS
10
153.797
20
-94.7033
11
153.721
21
-94.7275
0
LINE
8
BLACK
6
CONTINUOUS
10
154.064
20
-94.6673
11
153.967
21
-94.6719
0
LINE
8
BLACK
6
CONTINUOUS
10
167.224
20
-57.0793
11
167.185
21
-57.0151
0
LINE
8
BLACK
6
CONTINUOUS
10
158.728
20
-75.6219
11
158.639
21
-75.6345
0
LINE
8
BLACK
6
CONTINUOUS
10
153.118
20
-95.3426
11
153.094
21
-95.42
0
LINE
8
BLACK
6
CONTINUOUS
10
153.146
20
-95.27
11
153.118
21
-95.3426
0
LINE
8
BLACK
6
CONTINUOUS
10
162.705
20
-38.0487
11
162.671
21
-38.1199
0
LINE
8
BLACK
6
CONTINUOUS
10
163.492
20
-37.5218
11
163.403
21
-37.5344
0
LINE
8
BLACK
6
CONTINUOUS
10
167.345
20
-57.4678
11
167.332
21
-57.3775
0
LINE
8
BLACK
6
CONTINUOUS
10
166.415
20
-56.5666
11
166.35
21
-56.5645
0
LINE
8
BLACK
6
CONTINUOUS
10
166.876
20
-56.7144
11
166.812
21
-56.6778
0
LINE
8
BLACK
6
CONTINUOUS
10
167.313
20
-57.296
11
167.288
21
-57.2185
0
LINE
8
BLACK
6
CONTINUOUS
10
294.663
20
-123.391
11
294.663
21
-135.391
0
ARC
8
BLACK
10
199.663
20
-135.391
40
1
50
-90
51
-0
0
LINE
8
BLACK
6
CONTINUOUS
10
170.116
20
-121.391
11
184.663
21
-121.391
0
ARC
8
BLACK
10
322.665
20
-143.593
40
4.9
50
-90
51
-0
0
ARC
8
BLACK
10
292.663
20
-123.391
40
2
50
-0
51
90
0
ARC
8
BLACK
10
310.663
20
-123.391
40
2
50
90
51
180
0
LINE
8
BLACK
6
CONTINUOUS
10
30.663
20
-123.391
11
30.663
21
-135.391
0
LINE
8
BLACK
6
CONTINUOUS
10
327.565
20
-143.593
11
327.565
21
-126.291
0
LINE
8
BLACK
6
CONTINUOUS
10
160.591
20
-148.493
11
322.665
21
-148.493
0
ARC
8
BLACK
10
184.663
20
-123.391
40
2
50
-0
51
90
0
ARC
8
BLACK
10
151.663
20
-135.391
40
1
50
-90
51
-0
0
LINE
8
BLACK
6
CONTINUOUS
10
202.663
20
-121.391
11
292.663
21
-121.391
0
LINE
8
BLACK
6
CONTINUOUS
10
187.663
20
-136.391
11
199.663
21
-136.391
0
LINE
8
BLACK
6
CONTINUOUS
10
200.663
20
-135.391
11
200.663
21
-123.391
0
LINE
8
BLACK
6
CONTINUOUS
10
169.388
20
-145.41
11
169.464
21
-145.385
0
ARC
8
BLACK
10
322.665
20
-126.291
40
4.9
50
-0
51
90
0
ARC
8
BLACK
10
295.663
20
-135.391
40
1
50
180
51
270
0
ARC
8
BLACK
10
43.663
20
-135.391
40
1
50
-90
51
-0
0
LINE
8
BLACK
6
CONTINUOUS
10
167.35
20
-57.5645
11
167.345
21
-57.4678
0
ARC
8
BLACK
10
163.586
20
-55.5638
40
1
50
180
51
270
0
LINE
8
BLACK
6
CONTINUOUS
10
169.971
20
-144.97
11
170.008
21
-144.904
0
ARC
8
BLACK
10
138.658
20
-15.462
40
2
50
-0
51
90
0
ARC
8
BLACK
10
187.663
20
-135.391
40
1
50
180
51
270
0
LINE
8
BLACK
6
CONTINUOUS
10
186.663
20
-123.391
11
186.663
21
-135.391
0
LINE
8
BLACK
6
CONTINUOUS
10
169.727
20
-145.24
11
169.782
21
-145.194
0
LINE
8
BLACK
6
CONTINUOUS
10
161.408
20
-145.463
11
161.327
21
-145.482
0
LINE
8
BLACK
6
CONTINUOUS
10
169.535
20
-145.355
11
169.604
21
-145.321
0
LINE
8
BLACK
6
CONTINUOUS
10
160.596
20
-146.378
11
160.594
21
-146.446
0
LINE
8
BLACK
6
CONTINUOUS
10
17.563
20
-148.493
11
160.591
21
-148.493
0
ARC
8
BLACK
10
139.663
20
-135.391
40
1
50
180
51
270
0
LINE
8
BLACK
6
CONTINUOUS
10
161.111
20
-145.57
11
161.048
21
-145.608
0
LINE
8
BLACK
6
CONTINUOUS
10
160.788
20
-145.853
11
160.747
21
-145.913
0
LINE
8
BLACK
6
CONTINUOUS
10
161.251
20
-145.506
11
161.18
21
-145.535
0
LINE
8
BLACK
6
CONTINUOUS
10
139.663
20
-136.391
11
151.663
21
-136.391
0
LINE
8
BLACK
6
CONTINUOUS
10
169.782
20
-145.194
11
169.834
21
-145.144
0
LINE
8
BLACK
6
CONTINUOUS
10
170.008
20
-144.904
11
170.04
21
-144.835
0
LINE
8
BLACK
6
CONTINUOUS
10
160.648
20
-146.121
11
160.624
21
-146.199
0
LINE
8
BLACK
6
CONTINUOUS
10
44.663
20
-135.391
11
44.663
21
-123.391
0
LINE
8
BLACK
6
CONTINUOUS
10
46.908
20
-149.101
11
136.908
21
-149.101
0
LINE
8
BLACK
6
CONTINUOUS
10
170.107
20
-144.598
11
170.117
21
-144.507
0
LINE
8
BLACK
6
CONTINUOUS
10
169.604
20
-145.321
11
169.668
21
-145.282
0
ARC
8
BLACK
10
17.563
20
-143.593
40
4.9
50
180
51
270
0
LINE
8
BLACK
6
CONTINUOUS
10
12.663
20
-126.291
11
12.663
21
-143.593
0
ARC
8
BLACK
10
28.663
20
-123.391
40
2
50
-0
51
90
0
LINE
8
BLACK
6
CONTINUOUS
10
161.327
20
-145.482
11
161.251
21
-145.506
0
LINE
8
BLACK
6
CONTINUOUS
10
161.18
20
-145.535
11
161.111
21
-145.57
0
ARC
8
BLACK
10
31.908
20
-163.101
40
1
50
180
51
270
0
ARC
8
BLACK
10
154.908
20
-151.101
40
2
50
90
51
180
0
LINE
8
BLACK
6
CONTINUOUS
10
138.663
20
-123.391
11
138.663
21
-135.391
0
LINE
8
BLACK
6
CONTINUOUS
10
170.04
20
-144.835
11
170.068
21
-144.762
0
ARC
8
BLACK
10
154.663
20
-123.391
40
2
50
90
51
180
0
LINE
8
BLACK
6
CONTINUOUS
10
161.592
20
-145.446
11
169.118
21
-145.446
0
LINE
8
BLACK
6
CONTINUOUS
10
17.563
20
-121.391
11
28.663
21
-121.391
0
LINE
8
BLACK
6
CONTINUOUS
10
154.663
20
-121.391
11
170.116
21
-121.391
0
ARC
8
BLACK
10
46.663
20
-123.391
40
2
50
90
51
180
0
LINE
8
BLACK
6
CONTINUOUS
10
160.933
20
-145.696
11
160.881
21
-145.744
0
LINE
8
BLACK
6
CONTINUOUS
10
170.117
20
-144.507
11
170.119
21
-144.446
0
LINE
8
BLACK
6
CONTINUOUS
10
46.663
20
-121.391
11
136.663
21
-121.391
0
ARC
8
BLACK
10
17.563
20
-126.291
40
4.9
50
90
51
180
0
LINE
8
BLACK
6
CONTINUOUS
10
169.668
20
-145.282
11
169.727
21
-145.24
0
LINE
8
BLACK
6
CONTINUOUS
10
31.663
20
-136.391
11
43.663
21
-136.391
0
LINE
8
BLACK
6
CONTINUOUS
10
160.676
20
-146.049
11
160.648
21
-146.121
0
LINE
8
BLACK
6
CONTINUOUS
10
169.929
20
-145.032
11
169.971
21
-144.97
0
LINE
8
BLACK
6
CONTINUOUS
10
170.068
20
-144.762
11
170.091
21
-144.682
0
ARC
8
BLACK
10
307.663
20
-135.391
40
1
50
-90
51
-0
0
LINE
8
BLACK
6
CONTINUOUS
10
138.908
20
-151.101
11
138.908
21
-163.101
0
LINE
8
BLACK
6
CONTINUOUS
10
308.663
20
-135.391
11
308.663
21
-123.391
0
ARC
8
BLACK
10
43.908
20
-163.101
40
1
50
-90
51
-0
0
LINE
8
BLACK
6
CONTINUOUS
10
161.594
20
-145.446
11
161.497
21
-145.451
0
LINE
8
BLACK
6
CONTINUOUS
10
169.882
20
-145.092
11
169.929
21
-145.032
0
LINE
8
BLACK
6
CONTINUOUS
10
161.497
20
-145.451
11
161.408
21
-145.463
0
LINE
8
BLACK
6
CONTINUOUS
10
161.048
20
-145.608
11
160.989
21
-145.65
0
LINE
8
BLACK
6
CONTINUOUS
10
170.091
20
-144.682
11
170.107
21
-144.598
0
LINE
8
BLACK
6
CONTINUOUS
10
160.833
20
-145.797
11
160.788
21
-145.853
0
LINE
8
BLACK
6
CONTINUOUS
10
160.881
20
-145.744
11
160.833
21
-145.797
0
LINE
8
BLACK
6
CONTINUOUS
10
160.989
20
-145.65
11
160.933
21
-145.696
0
LINE
8
BLACK
6
CONTINUOUS
10
169.218
20
-145.441
11
169.306
21
-145.429
0
LINE
8
BLACK
6
CONTINUOUS
10
169.306
20
-145.429
11
169.388
21
-145.41
0
ARC
8
BLACK
10
136.663
20
-123.391
40
2
50
-0
51
90
0
LINE
8
BLACK
6
CONTINUOUS
10
169.464
20
-145.385
11
169.535
21
-145.355
0
LINE
8
BLACK
6
CONTINUOUS
10
160.624
20
-146.199
11
160.607
21
-146.282
0
LINE
8
BLACK
6
CONTINUOUS
10
169.834
20
-145.144
11
169.882
21
-145.092
0
LINE
8
BLACK
6
CONTINUOUS
10
160.591
20
-148.493
11
160.591
21
-146.444
0
LINE
8
BLACK
6
CONTINUOUS
10
160.607
20
-146.282
11
160.596
21
-146.378
0
LINE
8
BLACK
6
CONTINUOUS
10
152.663
20
-135.391
11
152.663
21
-123.391
0
LINE
8
BLACK
6
CONTINUOUS
10
160.71
20
-145.978
11
160.676
21
-146.049
0
LINE
8
BLACK
6
CONTINUOUS
10
160.747
20
-145.913
11
160.71
21
-145.978
0
LINE
8
BLACK
6
CONTINUOUS
10
170.362
20
-172.217
11
170.364
21
-172.156
0
ARC
8
BLACK
10
31.663
20
-135.391
40
1
50
180
51
270
0
LINE
8
BLACK
6
CONTINUOUS
10
169.119
20
-145.446
11
169.218
21
-145.441
0
LINE
8
BLACK
6
CONTINUOUS
10
170.116
20
-144.445
11
170.116
21
-121.391
0
LINE
8
BLACK
6
CONTINUOUS
10
31.908
20
-164.101
11
43.908
21
-164.101
0
ARC
8
BLACK
10
17.808
20
-167.255
40
4.9
50
180
51
270
0
LINE
8
BLACK
6
CONTINUOUS
10
43.658
20
-28.462
11
43.658
21
-32.462
0
LINE
8
BLACK
6
CONTINUOUS
10
17.808
20
-172.155
11
170.361
21
-172.155
0
ARC
8
BLACK
10
151.908
20
-163.101
40
1
50
-90
51
-0
0
LINE
8
BLACK
6
CONTINUOUS
10
17.808
20
-149.101
11
28.908
21
-149.101
0
LINE
8
BLACK
6
CONTINUOUS
10
187.908
20
-164.101
11
199.908
21
-164.101
0
LINE
8
BLACK
6
CONTINUOUS
10
202.908
20
-149.101
11
292.908
21
-149.101
0
LINE
8
BLACK
6
CONTINUOUS
10
44.908
20
-163.101
11
44.908
21
-151.101
0
LINE
8
BLACK
6
CONTINUOUS
10
139.908
20
-164.101
11
151.908
21
-164.101
0
LINE
8
BLACK
6
CONTINUOUS
10
151.658
20
-28.462
11
151.658
21
-32.462
0
LINE
8
BLACK
6
CONTINUOUS
10
152.908
20
-163.101
11
152.908
21
-151.101
0
ARC
8
BLACK
10
184.908
20
-151.101
40
2
50
-0
51
90
0
LINE
8
BLACK
6
CONTINUOUS
10
191.658
20
-32.462
11
199.658
21
-32.462
0
ARC
8
BLACK
10
202.908
20
-151.101
40
2
50
90
51
180
0
LINE
8
BLACK
6
CONTINUOUS
10
143.658
20
-32.462
11
151.658
21
-32.462
0
LINE
8
BLACK
6
CONTINUOUS
10
12.908
20
-154.001
11
12.908
21
-167.255
0
ARC
8
BLACK
10
295.908
20
-163.101
40
1
50
180
51
270
0
ARC
8
BLACK
10
139.908
20
-163.101
40
1
50
180
51
270
0
LINE
8
BLACK
6
CONTINUOUS
10
170.361
20
-172.155
11
322.91
21
-172.155
0
ARC
8
BLACK
10
310.908
20
-151.101
40
2
50
90
51
180
0
LINE
8
BLACK
6
CONTINUOUS
10
186.908
20
-151.101
11
186.908
21
-163.101
0
LINE
8
BLACK
6
CONTINUOUS
10
170.361
20
-149.101
11
184.908
21
-149.101
0
ARC
8
BLACK
10
292.908
20
-151.101
40
2
50
-0
51
90
0
ARC
8
BLACK
10
199.908
20
-163.101
40
1
50
-90
51
-0
0
ARC
8
BLACK
10
202.663
20
-123.391
40
2
50
90
51
180
0
LINE
8
BLACK
6
CONTINUOUS
10
308.908
20
-163.101
11
308.908
21
-151.101
0
LINE
8
BLACK
6
CONTINUOUS
10
33.658
20
-28.462
11
35.658
21
-28.462
0
LINE
8
BLACK
6
CONTINUOUS
10
154.908
20
-149.101
11
170.361
21
-149.101
0
LINE
8
BLACK
6
CONTINUOUS
10
200.908
20
-163.101
11
200.908
21
-151.101
0
LINE
8
BLACK
6
CONTINUOUS
10
170.361
20
-172.155
11
170.361
21
-149.101
0
LINE
8
BLACK
6
CONTINUOUS
10
199.658
20
-28.462
11
199.658
21
-32.462
0
LINE
8
BLACK
6
CONTINUOUS
10
191.658
20
-28.462
11
191.658
21
-32.462
0
LINE
8
BLACK
6
CONTINUOUS
10
295.908
20
-164.101
11
307.908
21
-164.101
0
LINE
8
BLACK
6
CONTINUOUS
10
310.663
20
-121.391
11
322.665
21
-121.391
0
ARC
8
BLACK
10
136.908
20
-151.101
40
2
50
-0
51
90
0
LINE
8
BLACK
6
CONTINUOUS
10
295.663
20
-136.391
11
307.663
21
-136.391
0
ARC
8
BLACK
10
46.908
20
-151.101
40
2
50
90
51
180
0
ARC
8
BLACK
10
322.91
20
-154.001
40
4.9
50
-0
51
90
0
LINE
8
BLACK
6
CONTINUOUS
10
35.658
20
-28.462
11
35.658
21
-32.462
0
LINE
8
BLACK
6
CONTINUOUS
10
151.658
20
-28.462
11
153.658
21
-28.462
0
LINE
8
BLACK
6
CONTINUOUS
10
141.658
20
-28.462
11
143.658
21
-28.462
0
LINE
8
BLACK
6
CONTINUOUS
10
307.658
20
-28.462
11
309.658
21
-28.462
0
ARC
8
BLACK
10
28.908
20
-151.101
40
2
50
-0
51
90
0
LINE
8
BLACK
6
CONTINUOUS
10
189.658
20
-28.462
11
191.658
21
-28.462
0
ARC
8
BLACK
10
307.908
20
-163.101
40
1
50
-90
51
-0
0
LINE
8
BLACK
6
CONTINUOUS
10
294.908
20
-151.101
11
294.908
21
-163.101
0
ARC
8
BLACK
10
322.91
20
-167.255
40
4.9
50
-90
51
-0
0
LINE
8
BLACK
6
CONTINUOUS
10
30.908
20
-151.101
11
30.908
21
-163.101
0
LINE
8
BLACK
6
CONTINUOUS
10
143.658
20
-28.462
11
143.658
21
-32.462
0
ARC
8
BLACK
10
17.808
20
-154.001
40
4.9
50
90
51
180
0
LINE
8
BLACK
6
CONTINUOUS
10
170.362
20
-172.217
11
170.364
21
-172.156
0
LINE
8
BLACK
6
CONTINUOUS
10
327.81
20
-167.255
11
327.81
21
-154.001
0
LINE
8
BLACK
6
CONTINUOUS
10
310.908
20
-149.101
11
322.91
21
-149.101
0
ARC
8
BLACK
10
187.908
20
-163.101
40
1
50
180
51
270
0
LINE
8
BLACK
6
CONTINUOUS
10
43.658
20
-28.462
11
45.658
21
-28.462
0
LINE
8
BLACK
6
CONTINUOUS
10
199.658
20
-28.462
11
201.658
21
-28.462
0
LINE
8
BLACK
6
CONTINUOUS
10
299.658
20
-32.462
11
307.658
21
-32.462
0
LINE
8
BLACK
6
CONTINUOUS
10
297.658
20
-28.462
11
299.658
21
-28.462
0
LINE
8
BLACK
6
CONTINUOUS
10
307.658
20
-28.462
11
307.658
21
-32.462
0
LINE
8
BLACK
6
CONTINUOUS
10
299.658
20
-28.462
11
299.658
21
-32.462
0
LINE
8
BLACK
6
CONTINUOUS
10
397.971
20
-183.025
11
412.019
21
-183.025
0
LINE
8
BLACK
6
CONTINUOUS
10
412.919
20
-322.037
11
339.921
21
-322.037
0
LINE
8
BLACK
6
CONTINUOUS
10
378.921
20
-178.499
11
378.921
21
-183.262
0
LINE
8
BLACK
6
CONTINUOUS
10
373.919
20
-173.5
11
373.919
21
-178.262
0
LINE
8
BLACK
6
CONTINUOUS
10
397.971
20
-183.025
11
397.971
21
-173.5
0
LINE
8
BLACK
6
CONTINUOUS
10
433.746
20
-199.261
11
412.019
21
-199.261
0
LINE
8
BLACK
6
CONTINUOUS
10
392.969
20
-188.024
11
392.969
21
-178.499
0
LINE
8
BLACK
6
CONTINUOUS
10
412.019
20
-183.025
11
412.019
21
-181.618
0
LINE
8
BLACK
6
CONTINUOUS
10
397.971
20
-173.5
11
373.919
21
-173.5
0
LINE
8
BLACK
6
CONTINUOUS
10
373.919
20
-178.262
11
359.871
21
-178.262
0
LINE
8
BLACK
6
CONTINUOUS
10
412.019
20
-188.024
11
392.969
21
-188.024
0
LINE
8
BLACK
6
CONTINUOUS
10
412.019
20
-181.618
11
433.746
21
-181.618
0
LINE
8
BLACK
6
CONTINUOUS
10
412.019
20
-199.261
11
412.019
21
-188.024
0
LINE
8
BLACK
6
CONTINUOUS
10
392.969
20
-178.499
11
378.921
21
-178.499
0
LINE
8
BLACK
6
CONTINUOUS
10
378.921
20
-183.262
11
354.869
21
-183.262
0
LINE
8
BLACK
6
CONTINUOUS
10
431.969
20
-233.161
11
433.746
21
-233.161
0
LINE
8
BLACK
6
CONTINUOUS
10
431.969
20
-307.75
11
431.969
21
-233.161
0
LINE
8
BLACK
6
CONTINUOUS
10
412.919
20
-307.75
11
412.919
21
-322.037
0
LINE
8
BLACK
6
CONTINUOUS
10
354.869
20
-183.262
11
354.869
21
-173.737
0
LINE
8
BLACK
6
CONTINUOUS
10
431.969
20
-307.75
11
412.919
21
-307.75
0
LINE
8
BLACK
6
CONTINUOUS
10
354.869
20
-173.737
11
339.921
21
-173.737
0
LINE
8
BLACK
6
CONTINUOUS
10
433.746
20
-233.161
11
433.746
21
-199.261
0
LINE
8
BLACK
6
CONTINUOUS
10
428.581
20
-25.726
11
428.485
21
-25.719
0
LINE
8
BLACK
6
CONTINUOUS
10
428.68
20
-25.729
11
428.581
21
-25.726
0
ARC
8
BLACK
10
433.746
20
-18.71
40
4.9
50
-0
51
90
0
LINE
8
BLACK
6
CONTINUOUS
10
428.485
20
-25.719
11
428.395
21
-25.708
0
LINE
8
BLACK
6
CONTINUOUS
10
339.921
20
-20.861
11
396.066
21
-20.861
0
LINE
8
BLACK
6
CONTINUOUS
10
396.066
20
-27.582
11
412.919
21
-27.582
0
ARC
8
BLACK
10
338.146
20
-18.71
40
4.9
50
90
51
180
0
LINE
8
BLACK
6
CONTINUOUS
10
438.646
20
-190.309
11
438.646
21
-18.71
0
LINE
8
BLACK
6
CONTINUOUS
10
431.969
20
-147.071
11
431.969
21
-34.724
0
LINE
8
BLACK
6
CONTINUOUS
10
433.746
20
-13.81
11
338.146
21
-13.81
0
LINE
8
BLACK
6
CONTINUOUS
10
333.246
20
-171.259
11
333.246
21
-18.71
0
LINE
8
BLACK
6
CONTINUOUS
10
359.871
20
-178.262
11
359.871
21
-168.737
0
LINE
8
BLACK
6
CONTINUOUS
10
412.919
20
-27.582
11
412.919
21
-34.724
0
LINE
8
BLACK
6
CONTINUOUS
10
412.919
20
-34.724
11
431.969
21
-34.724
0
LINE
8
BLACK
6
CONTINUOUS
10
433.746
20
-181.618
11
433.746
21
-147.071
0
LINE
8
BLACK
6
CONTINUOUS
10
339.921
20
-188.712
11
339.921
21
-173.737
0
LINE
8
BLACK
6
CONTINUOUS
10
339.921
20
-140.712
11
339.921
21
-46.712
0
LINE
8
BLACK
6
CONTINUOUS
10
431.969
20
-147.071
11
433.746
21
-147.071
0
LINE
8
BLACK
6
CONTINUOUS
10
359.871
20
-168.737
11
339.921
21
-168.737
0
LINE
8
BLACK
6
CONTINUOUS
10
396.066
20
-20.861
11
396.066
21
-27.582
0
LINE
8
BLACK
6
CONTINUOUS
10
438.646
20
-323.812
11
438.646
21
-190.309
0
LINE
8
BLACK
6
CONTINUOUS
10
357.049
20
-171.593
11
357
21
-171.541
0
LINE
8
BLACK
6
CONTINUOUS
10
376.683
20
-176.274
11
376.632
21
-176.323
0
LINE
8
BLACK
6
CONTINUOUS
10
376.377
20
-176.78
11
376.361
21
-176.864
0
LINE
8
BLACK
6
CONTINUOUS
10
376.498
20
-176.494
11
376.462
21
-176.558
0
LINE
8
BLACK
6
CONTINUOUS
10
338.146
20
-328.712
11
433.746
21
-328.712
0
ARC
8
BLACK
10
433.746
20
-323.812
40
4.9
50
-90
51
-0
0
LINE
8
BLACK
6
CONTINUOUS
10
376.361
20
-176.864
11
376.351
21
-176.955
0
LINE
8
BLACK
6
CONTINUOUS
10
376.632
20
-176.323
11
376.584
21
-176.376
0
LINE
8
BLACK
6
CONTINUOUS
10
356.825
20
-171.404
11
356.758
21
-171.367
0
ARC
8
BLACK
10
338.146
20
-323.812
40
4.9
50
180
51
270
0
LINE
8
BLACK
6
CONTINUOUS
10
356.947
20
-171.493
11
356.887
21
-171.446
0
LINE
8
BLACK
6
CONTINUOUS
10
376.401
20
-176.7
11
376.377
21
-176.78
0
LINE
8
BLACK
6
CONTINUOUS
10
357
20
-171.541
11
356.947
21
-171.493
0
LINE
8
BLACK
6
CONTINUOUS
10
356.758
20
-171.367
11
356.69
21
-171.335
0
LINE
8
BLACK
6
CONTINUOUS
10
376.93
20
-176.112
11
376.863
21
-176.146
0
LINE
8
BLACK
6
CONTINUOUS
10
356.617
20
-171.307
11
356.537
21
-171.284
0
LINE
8
BLACK
6
CONTINUOUS
10
376.351
20
-176.955
11
376.349
21
-177.02
0
LINE
8
BLACK
6
CONTINUOUS
10
377.349
20
-176.02
11
377.252
21
-176.025
0
LINE
8
BLACK
6
CONTINUOUS
10
356.887
20
-171.446
11
356.825
21
-171.404
0
LINE
8
BLACK
6
CONTINUOUS
10
376.539
20
-176.433
11
376.498
21
-176.494
0
LINE
8
BLACK
6
CONTINUOUS
10
376.429
20
-176.626
11
376.401
21
-176.7
0
LINE
8
BLACK
6
CONTINUOUS
10
356.69
20
-171.335
11
356.617
21
-171.307
0
LINE
8
BLACK
6
CONTINUOUS
10
376.584
20
-176.376
11
376.539
21
-176.433
0
LINE
8
BLACK
6
CONTINUOUS
10
376.462
20
-176.558
11
376.429
21
-176.626
0
LINE
8
BLACK
6
CONTINUOUS
10
377.002
20
-176.082
11
376.93
21
-176.112
0
LINE
8
BLACK
6
CONTINUOUS
10
396.333
20
-185.543
11
396.401
21
-185.545
0
LINE
8
BLACK
6
CONTINUOUS
10
357.318
20
-179.967
11
357.337
21
-180.048
0
LINE
8
BLACK
6
CONTINUOUS
10
376.799
20
-176.185
11
376.739
21
-176.227
0
LINE
8
BLACK
6
CONTINUOUS
10
376.863
20
-176.146
11
376.799
21
-176.185
0
LINE
8
BLACK
6
CONTINUOUS
10
376.348
20
-177.022
11
376.348
21
-179.784
0
LINE
8
BLACK
6
CONTINUOUS
10
414.701
20
-189.967
11
414.749
21
-190.019
0
LINE
8
BLACK
6
CONTINUOUS
10
356.537
20
-171.284
11
356.453
21
-171.268
0
LINE
8
BLACK
6
CONTINUOUS
10
377.161
20
-176.038
11
377.08
21
-176.057
0
LINE
8
BLACK
6
CONTINUOUS
10
356.453
20
-171.268
11
356.362
21
-171.258
0
LINE
8
BLACK
6
CONTINUOUS
10
396.237
20
-185.532
11
396.333
21
-185.543
0
LINE
8
BLACK
6
CONTINUOUS
10
395.605
20
-185.15
11
395.651
21
-185.206
0
LINE
8
BLACK
6
CONTINUOUS
10
413.909
20
-185.656
11
413.84
21
-185.624
0
LINE
8
BLACK
6
CONTINUOUS
10
415.204
20
-190.276
11
415.287
21
-190.293
0
LINE
8
BLACK
6
CONTINUOUS
10
413.975
20
-185.693
11
413.909
21
-185.656
0
LINE
8
BLACK
6
CONTINUOUS
10
414.415
20
-186.276
11
414.39
21
-186.2
0
LINE
8
BLACK
6
CONTINUOUS
10
375.348
20
-180.784
11
358.299
21
-180.784
0
LINE
8
BLACK
6
CONTINUOUS
10
414.037
20
-185.735
11
413.975
21
-185.693
0
LINE
8
BLACK
6
CONTINUOUS
10
414.39
20
-186.2
11
414.361
21
-186.129
0
LINE
8
BLACK
6
CONTINUOUS
10
414.802
20
-190.067
11
414.858
21
-190.112
0
LINE
8
BLACK
6
CONTINUOUS
10
413.512
20
-185.547
11
413.451
21
-185.545
0
LINE
8
BLACK
6
CONTINUOUS
10
414.361
20
-186.129
11
414.326
21
-186.06
0
LINE
8
BLACK
6
CONTINUOUS
10
356.3
20
-171.259
11
333.246
21
-171.259
0
LINE
8
BLACK
6
CONTINUOUS
10
414.199
20
-185.882
11
414.15
21
-185.83
0
LINE
8
BLACK
6
CONTINUOUS
10
396.154
20
-185.515
11
396.237
21
-185.532
0
LINE
8
BLACK
6
CONTINUOUS
10
395.752
20
-185.306
11
395.808
21
-185.351
0
LINE
8
BLACK
6
CONTINUOUS
10
414.858
20
-190.112
11
414.918
21
-190.153
0
LINE
8
BLACK
6
CONTINUOUS
10
415.287
20
-190.293
11
415.383
21
-190.304
0
LINE
8
BLACK
6
CONTINUOUS
10
414.613
20
-189.852
11
414.655
21
-189.911
0
LINE
8
BLACK
6
CONTINUOUS
10
395.401
20
-184.545
11
395.406
21
-184.642
0
LINE
8
BLACK
6
CONTINUOUS
10
414.245
20
-185.937
11
414.199
21
-185.882
0
LINE
8
BLACK
6
CONTINUOUS
10
414.456
20
-189.403
11
414.469
21
-189.492
0
LINE
8
BLACK
6
CONTINUOUS
10
377.08
20
-176.057
11
377.002
21
-176.082
0
LINE
8
BLACK
6
CONTINUOUS
10
414.469
20
-189.492
11
414.487
21
-189.573
0
LINE
8
BLACK
6
CONTINUOUS
10
413.84
20
-185.624
11
413.767
21
-185.596
0
LINE
8
BLACK
6
CONTINUOUS
10
395.401
20
-184.548
11
395.401
21
-177.022
0
LINE
8
BLACK
6
CONTINUOUS
10
415.054
20
-190.224
11
415.127
21
-190.252
0
LINE
8
BLACK
6
CONTINUOUS
10
414.511
20
-189.649
11
414.541
21
-189.72
0
LINE
8
BLACK
6
CONTINUOUS
10
376.739
20
-176.227
11
376.683
21
-176.274
0
LINE
8
BLACK
6
CONTINUOUS
10
357.306
20
-179.878
11
357.318
21
-179.967
0
LINE
8
BLACK
6
CONTINUOUS
10
395.868
20
-185.392
11
395.933
21
-185.429
0
LINE
8
BLACK
6
CONTINUOUS
10
415.127
20
-190.252
11
415.204
21
-190.276
0
LINE
8
BLACK
6
CONTINUOUS
10
395.808
20
-185.351
11
395.868
21
-185.392
0
LINE
8
BLACK
6
CONTINUOUS
10
415.383
20
-190.304
11
415.451
21
-190.306
0
LINE
8
BLACK
6
CONTINUOUS
10
414.097
20
-185.782
11
414.037
21
-185.735
0
LINE
8
BLACK
6
CONTINUOUS
10
414.655
20
-189.911
11
414.701
21
-189.967
0
LINE
8
BLACK
6
CONTINUOUS
10
414.983
20
-190.19
11
415.054
21
-190.224
0
LINE
8
BLACK
6
CONTINUOUS
10
414.575
20
-189.789
11
414.613
21
-189.852
0
LINE
8
BLACK
6
CONTINUOUS
10
396.004
20
-185.463
11
396.077
21
-185.492
0
LINE
8
BLACK
6
CONTINUOUS
10
413.687
20
-185.573
11
413.603
21
-185.557
0
LINE
8
BLACK
6
CONTINUOUS
10
414.15
20
-185.83
11
414.097
21
-185.782
0
LINE
8
BLACK
6
CONTINUOUS
10
395.933
20
-185.429
11
396.004
21
-185.463
0
LINE
8
BLACK
6
CONTINUOUS
10
414.749
20
-190.019
11
414.802
21
-190.067
0
LINE
8
BLACK
6
CONTINUOUS
10
396.077
20
-185.492
11
396.154
21
-185.515
0
LINE
8
BLACK
6
CONTINUOUS
10
413.767
20
-185.596
11
413.687
21
-185.573
0
LINE
8
BLACK
6
CONTINUOUS
10
414.451
20
-189.308
11
414.451
21
-186.547
0
LINE
8
BLACK
6
CONTINUOUS
10
395.437
20
-184.812
11
395.462
21
-184.888
0
LINE
8
BLACK
6
CONTINUOUS
10
395.563
20
-185.091
11
395.605
21
-185.15
0
LINE
8
BLACK
6
CONTINUOUS
10
377.252
20
-176.025
11
377.161
21
-176.038
0
LINE
8
BLACK
6
CONTINUOUS
10
356.362
20
-171.258
11
356.301
21
-171.256
0
LINE
8
BLACK
6
CONTINUOUS
10
357.301
20
-179.781
11
357.306
21
-179.878
0
LINE
8
BLACK
6
CONTINUOUS
10
395.418
20
-184.731
11
395.437
21
-184.812
0
LINE
8
BLACK
6
CONTINUOUS
10
395.699
20
-185.258
11
395.752
21
-185.306
0
LINE
8
BLACK
6
CONTINUOUS
10
357.768
20
-180.628
11
357.833
21
-180.665
0
LINE
8
BLACK
6
CONTINUOUS
10
395.491
20
-184.959
11
395.525
21
-185.028
0
LINE
8
BLACK
6
CONTINUOUS
10
414.918
20
-190.153
11
414.983
21
-190.19
0
LINE
8
BLACK
6
CONTINUOUS
10
414.326
20
-186.06
11
414.287
21
-185.996
0
LINE
8
BLACK
6
CONTINUOUS
10
357.976
20
-180.727
11
358.054
21
-180.751
0
LINE
8
BLACK
6
CONTINUOUS
10
395.406
20
-184.642
11
395.418
21
-184.731
0
LINE
8
BLACK
6
CONTINUOUS
10
357.24
20
-171.911
11
357.21
21
-171.84
0
LINE
8
BLACK
6
CONTINUOUS
10
414.451
20
-189.306
11
414.456
21
-189.403
0
LINE
8
BLACK
6
CONTINUOUS
10
438.646
20
-190.309
11
415.449
21
-190.309
0
LINE
8
BLACK
6
CONTINUOUS
10
357.463
20
-180.327
11
357.505
21
-180.386
0
LINE
8
BLACK
6
CONTINUOUS
10
357.337
20
-180.048
11
357.361
21
-180.124
0
LINE
8
BLACK
6
CONTINUOUS
10
357.904
20
-180.699
11
357.976
21
-180.727
0
LINE
8
BLACK
6
CONTINUOUS
10
414.541
20
-189.72
11
414.575
21
-189.789
0
LINE
8
BLACK
6
CONTINUOUS
10
357.425
20
-180.264
11
357.463
21
-180.327
0
LINE
8
BLACK
6
CONTINUOUS
10
357.39
20
-180.195
11
357.425
21
-180.264
0
LINE
8
BLACK
6
CONTINUOUS
10
357.296
20
-172.157
11
357.284
21
-172.069
0
LINE
8
BLACK
6
CONTINUOUS
10
357.652
20
-180.542
11
357.708
21
-180.587
0
LINE
8
BLACK
6
CONTINUOUS
10
358.054
20
-180.751
11
358.137
21
-180.768
0
LINE
8
BLACK
6
CONTINUOUS
10
357.361
20
-180.124
11
357.39
21
-180.195
0
LINE
8
BLACK
6
CONTINUOUS
10
357.284
20
-172.069
11
357.264
21
-171.987
0
LINE
8
BLACK
6
CONTINUOUS
10
414.487
20
-189.573
11
414.511
21
-189.649
0
LINE
8
BLACK
6
CONTINUOUS
10
395.462
20
-184.888
11
395.491
21
-184.959
0
LINE
8
BLACK
6
CONTINUOUS
10
395.525
20
-185.028
11
395.563
21
-185.091
0
LINE
8
BLACK
6
CONTINUOUS
10
357.137
20
-171.707
11
357.095
21
-171.648
0
LINE
8
BLACK
6
CONTINUOUS
10
413.603
20
-185.557
11
413.512
21
-185.547
0
LINE
8
BLACK
6
CONTINUOUS
10
357.21
20
-171.84
11
357.176
21
-171.771
0
LINE
8
BLACK
6
CONTINUOUS
10
413.45
20
-185.546
11
396.399
21
-185.546
0
LINE
8
BLACK
6
CONTINUOUS
10
414.287
20
-185.996
11
414.245
21
-185.937
0
LINE
8
BLACK
6
CONTINUOUS
10
357.095
20
-171.648
11
357.049
21
-171.593
0
LINE
8
BLACK
6
CONTINUOUS
10
357.833
20
-180.665
11
357.904
21
-180.699
0
LINE
8
BLACK
6
CONTINUOUS
10
357.708
20
-180.587
11
357.768
21
-180.628
0
LINE
8
BLACK
6
CONTINUOUS
10
395.651
20
-185.206
11
395.699
21
-185.258
0
LINE
8
BLACK
6
CONTINUOUS
10
358.137
20
-180.768
11
358.233
21
-180.779
0
LINE
8
BLACK
6
CONTINUOUS
10
357.599
20
-180.494
11
357.652
21
-180.542
0
LINE
8
BLACK
6
CONTINUOUS
10
357.505
20
-180.386
11
357.55
21
-180.442
0
LINE
8
BLACK
6
CONTINUOUS
10
357.55
20
-180.442
11
357.599
21
-180.494
0
LINE
8
BLACK
6
CONTINUOUS
10
357.301
20
-172.256
11
357.296
21
-172.157
0
LINE
8
BLACK
6
CONTINUOUS
10
358.233
20
-180.779
11
358.301
21
-180.781
0
LINE
8
BLACK
6
CONTINUOUS
10
357.264
20
-171.987
11
357.24
21
-171.911
0
LINE
8
BLACK
6
CONTINUOUS
10
357.176
20
-171.771
11
357.137
21
-171.707
0
LINE
8
BLACK
6
CONTINUOUS
10
428.797
20
-25.725
11
428.697
21
-25.729
0
LINE
8
BLACK
6
CONTINUOUS
10
395.311
20
-176.604
11
395.276
21
-176.535
0
LINE
8
BLACK
6
CONTINUOUS
10
394.79
20
-176.099
11
394.717
21
-176.071
0
LINE
8
BLACK
6
CONTINUOUS
10
395.276
20
-176.535
11
395.237
21
-176.471
0
LINE
8
BLACK
6
CONTINUOUS
10
428.889
20
-25.718
11
428.797
21
-25.725
0
ARC
8
BLACK
10
375.348
20
-179.784
40
1
50
-90
51
-0
0
LINE
8
BLACK
6
CONTINUOUS
10
428.697
20
-25.729
11
428.68
21
-25.729
0
LINE
8
BLACK
6
CONTINUOUS
10
414.446
20
-186.446
11
414.434
21
-186.358
0
LINE
8
BLACK
6
CONTINUOUS
10
428.978
20
-25.706
11
428.889
21
-25.718
0
LINE
8
BLACK
6
CONTINUOUS
10
395.365
20
-176.751
11
395.34
21
-176.675
0
LINE
8
BLACK
6
CONTINUOUS
10
394.925
20
-176.168
11
394.859
21
-176.131
0
LINE
8
BLACK
6
CONTINUOUS
10
357.301
20
-179.783
11
357.301
21
-172.257
0
LINE
8
BLACK
6
CONTINUOUS
10
395.1
20
-176.305
11
395.047
21
-176.257
0
LINE
8
BLACK
6
CONTINUOUS
10
414.434
20
-186.358
11
414.415
21
-186.276
0
LINE
8
BLACK
6
CONTINUOUS
10
333.246
20
-323.812
11
333.246
21
-171.259
0
LINE
8
BLACK
6
CONTINUOUS
10
394.637
20
-176.048
11
394.553
21
-176.032
0
LINE
8
BLACK
6
CONTINUOUS
10
394.987
20
-176.21
11
394.925
21
-176.168
0
LINE
8
BLACK
6
CONTINUOUS
10
394.553
20
-176.032
11
394.462
21
-176.022
0
LINE
8
BLACK
6
CONTINUOUS
10
395.047
20
-176.257
11
394.987
21
-176.21
0
LINE
8
BLACK
6
CONTINUOUS
10
395.397
20
-176.921
11
395.384
21
-176.833
0
LINE
8
BLACK
6
CONTINUOUS
10
395.34
20
-176.675
11
395.311
21
-176.604
0
LINE
8
BLACK
6
CONTINUOUS
10
395.401
20
-177.02
11
395.397
21
-176.921
0
LINE
8
BLACK
6
CONTINUOUS
10
395.149
20
-176.357
11
395.1
21
-176.305
0
LINE
8
BLACK
6
CONTINUOUS
10
414.451
20
-186.545
11
414.446
21
-186.446
0
LINE
8
BLACK
6
CONTINUOUS
10
394.717
20
-176.071
11
394.637
21
-176.048
0
LINE
8
BLACK
6
CONTINUOUS
10
348.246
20
-45.712
11
348.246
21
-43.712
0
ARC
8
BLACK
10
347.246
20
-141.712
40
1
50
-0
51
90
0
LINE
8
BLACK
6
CONTINUOUS
10
339.921
20
-310.712
11
347.246
21
-310.712
0
LINE
8
BLACK
6
CONTINUOUS
10
348.246
20
-299.712
11
348.246
21
-297.712
0
LINE
8
BLACK
6
CONTINUOUS
10
347.246
20
-43.712
11
348.246
21
-43.712
0
LINE
8
BLACK
6
CONTINUOUS
10
339.921
20
-322.037
11
339.921
21
-310.712
0
LINE
8
BLACK
6
CONTINUOUS
10
339.921
20
-202.712
11
347.246
21
-202.712
0
LINE
8
BLACK
6
CONTINUOUS
10
395.237
20
-176.471
11
395.195
21
-176.412
0
LINE
8
BLACK
6
CONTINUOUS
10
395.384
20
-176.833
11
395.365
21
-176.751
0
LINE
8
BLACK
6
CONTINUOUS
10
395.195
20
-176.412
11
395.149
21
-176.357
0
LINE
8
BLACK
6
CONTINUOUS
10
339.921
20
-296.712
11
339.921
21
-202.712
0
ARC
8
BLACK
10
347.246
20
-297.712
40
1
50
-0
51
90
0
LINE
8
BLACK
6
CONTINUOUS
10
348.246
20
-35.712
11
347.246
21
-35.712
0
LINE
8
BLACK
6
CONTINUOUS
10
347.246
20
-299.712
11
347.246
21
-307.712
0
ARC
8
BLACK
10
347.246
20
-201.712
40
1
50
-90
51
-0
0
LINE
8
BLACK
6
CONTINUOUS
10
348.246
20
-191.712
11
347.246
21
-191.712
0
LINE
8
BLACK
6
CONTINUOUS
10
339.921
20
-46.712
11
347.246
21
-46.712
0
LINE
8
BLACK
6
CONTINUOUS
10
339.921
20
-154.712
11
347.246
21
-154.712
0
LINE
8
BLACK
6
CONTINUOUS
10
347.246
20
-191.712
11
347.246
21
-199.712
0
ARC
8
BLACK
10
347.246
20
-153.712
40
1
50
-90
51
-0
0
ARC
8
BLACK
10
347.246
20
-309.712
40
1
50
-90
51
-0
0
ARC
8
BLACK
10
347.246
20
-33.712
40
1
50
-0
51
90
0
ARC
8
BLACK
10
347.246
20
-45.712
40
1
50
-90
51
-0
0
LINE
8
BLACK
6
CONTINUOUS
10
347.246
20
-32.712
11
339.921
21
-32.712
0
LINE
8
BLACK
6
CONTINUOUS
10
339.921
20
-32.712
11
339.921
21
-20.861
0
LINE
8
BLACK
6
CONTINUOUS
10
347.246
20
-188.712
11
339.921
21
-188.712
0
LINE
8
BLACK
6
CONTINUOUS
10
348.246
20
-153.712
11
348.246
21
-151.712
0
ARC
8
BLACK
10
347.246
20
-189.712
40
1
50
-0
51
90
0
LINE
8
BLACK
6
CONTINUOUS
10
348.246
20
-143.712
11
347.246
21
-143.712
0
LINE
8
BLACK
6
CONTINUOUS
10
347.246
20
-296.712
11
339.921
21
-296.712
0
LINE
8
BLACK
6
CONTINUOUS
10
348.246
20
-299.712
11
347.246
21
-299.712
0
LINE
8
BLACK
6
CONTINUOUS
10
347.246
20
-35.712
11
347.246
21
-43.712
0
LINE
8
BLACK
6
CONTINUOUS
10
347.246
20
-307.712
11
348.246
21
-307.712
0
LINE
8
BLACK
6
CONTINUOUS
10
348.246
20
-35.712
11
348.246
21
-33.712
0
LINE
8
BLACK
6
CONTINUOUS
10
347.246
20
-199.712
11
348.246
21
-199.712
0
LINE
8
BLACK
6
CONTINUOUS
10
394.859
20
-176.131
11
394.79
21
-176.099
0
LINE
8
BLACK
6
CONTINUOUS
10
347.246
20
-151.712
11
348.246
21
-151.712
0
LINE
8
BLACK
6
CONTINUOUS
10
348.246
20
-309.712
11
348.246
21
-307.712
0
LINE
8
BLACK
6
CONTINUOUS
10
348.246
20
-191.712
11
348.246
21
-189.712
0
LINE
8
BLACK
6
CONTINUOUS
10
348.246
20
-143.712
11
348.246
21
-141.712
0
LINE
8
BLACK
6
CONTINUOUS
10
348.246
20
-201.712
11
348.246
21
-199.712
0
LINE
8
BLACK
6
CONTINUOUS
10
347.246
20
-143.712
11
347.246
21
-151.712
0
LINE
8
BLACK
6
CONTINUOUS
10
339.921
20
-168.737
11
339.921
21
-154.712
0
LINE
8
BLACK
6
CONTINUOUS
10
394.4
20
-176.021
11
377.347
21
-176.021
0
LINE
8
BLACK
6
CONTINUOUS
10
347.246
20
-140.712
11
339.921
21
-140.712
0
LINE
8
BLACK
6
CONTINUOUS
10
394.462
20
-176.022
11
394.401
21
-176.02
0
LINE
8
BLACK
6
CONTINUOUS
10
161.961
20
-199.044
11
161.92
21
-199.104
0
LINE
8
BLACK
6
CONTINUOUS
10
162.5
20
-198.672
11
162.424
21
-198.697
0
LINE
8
BLACK
6
CONTINUOUS
10
162.106
20
-198.886
11
162.054
21
-198.934
0
LINE
8
BLACK
6
CONTINUOUS
10
162.353
20
-198.726
11
162.284
21
-198.76
0
LINE
8
BLACK
6
CONTINUOUS
10
170.777
20
-198.511
11
170.841
21
-198.472
0
LINE
8
BLACK
6
CONTINUOUS
10
161.821
20
-199.312
11
161.797
21
-199.389
0
LINE
8
BLACK
6
CONTINUOUS
10
162.424
20
-198.697
11
162.353
21
-198.726
0
LINE
8
BLACK
6
CONTINUOUS
10
161.769
20
-199.569
11
161.767
21
-199.636
0
LINE
8
BLACK
6
CONTINUOUS
10
161.883
20
-199.168
11
161.849
21
-199.239
0
LINE
8
BLACK
6
CONTINUOUS
10
170.637
20
-198.575
11
170.708
21
-198.546
0
LINE
8
BLACK
6
CONTINUOUS
10
161.849
20
-199.239
11
161.821
21
-199.312
0
LINE
8
BLACK
6
CONTINUOUS
10
170.292
20
-198.636
11
170.391
21
-198.632
0
LINE
8
BLACK
6
CONTINUOUS
10
170.9
20
-198.43
11
170.955
21
-198.385
0
LINE
8
BLACK
6
CONTINUOUS
10
170.561
20
-198.6
11
170.637
21
-198.575
0
LINE
8
BLACK
6
CONTINUOUS
10
170.391
20
-198.632
11
170.479
21
-198.619
0
LINE
8
BLACK
6
CONTINUOUS
10
162.284
20
-198.76
11
162.221
21
-198.799
0
LINE
8
BLACK
6
CONTINUOUS
10
161.797
20
-199.389
11
161.78
21
-199.473
0
LINE
8
BLACK
6
CONTINUOUS
10
152.296
20
-256.462
11
152.272
21
-256.539
0
LINE
8
BLACK
6
CONTINUOUS
10
152.529
20
-256.085
11
152.481
21
-256.137
0
LINE
8
BLACK
6
CONTINUOUS
10
157.457
20
-236.899
11
157.398
21
-236.94
0
LINE
8
BLACK
6
CONTINUOUS
10
156.272
20
-255.75
11
156.348
21
-255.725
0
LINE
8
BLACK
6
CONTINUOUS
10
157.056
20
-237.412
11
157.033
21
-237.489
0
LINE
8
BLACK
6
CONTINUOUS
10
171.289
20
-197.636
11
171.289
21
-174.581
0
LINE
8
BLACK
6
CONTINUOUS
10
157.033
20
-237.489
11
157.016
21
-237.573
0
LINE
8
BLACK
6
CONTINUOUS
10
170.841
20
-198.472
11
170.9
21
-198.43
0
LINE
8
BLACK
6
CONTINUOUS
10
156.419
20
-255.696
11
156.488
21
-255.661
0
LINE
8
BLACK
6
CONTINUOUS
10
170.479
20
-198.619
11
170.561
21
-198.6
0
LINE
8
BLACK
6
CONTINUOUS
10
157.66
20
-236.797
11
157.589
21
-236.826
0
LINE
8
BLACK
6
CONTINUOUS
10
157.001
20
-254.847
11
157.003
21
-254.787
0
LINE
8
BLACK
6
CONTINUOUS
10
156.666
20
-255.535
11
156.718
21
-255.485
0
LINE
8
BLACK
6
CONTINUOUS
10
157.085
20
-237.339
11
157.056
21
-237.412
0
LINE
8
BLACK
6
CONTINUOUS
10
156.766
20
-255.432
11
156.813
21
-255.372
0
LINE
8
BLACK
6
CONTINUOUS
10
157.005
20
-237.669
11
157.003
21
-237.737
0
LINE
8
BLACK
6
CONTINUOUS
10
162.221
20
-198.799
11
162.162
21
-198.84
0
LINE
8
BLACK
6
CONTINUOUS
10
170.708
20
-198.546
11
170.777
21
-198.511
0
LINE
8
BLACK
6
CONTINUOUS
10
156.991
20
-254.938
11
157.001
21
-254.847
0
LINE
8
BLACK
6
CONTINUOUS
10
158
20
-236.736
11
165.526
21
-236.736
0
LINE
8
BLACK
6
CONTINUOUS
10
156.611
20
-255.58
11
156.666
21
-255.535
0
LINE
8
BLACK
6
CONTINUOUS
10
152.272
20
-256.539
11
152.255
21
-256.623
0
LINE
8
BLACK
6
CONTINUOUS
10
157.197
20
-237.144
11
157.156
21
-237.204
0
LINE
8
BLACK
6
CONTINUOUS
10
156.952
20
-255.102
11
156.975
21
-255.022
0
LINE
8
BLACK
6
CONTINUOUS
10
157.002
20
-254.786
11
157.002
21
-237.735
0
LINE
8
BLACK
6
CONTINUOUS
10
156.855
20
-255.31
11
156.892
21
-255.244
0
LINE
8
BLACK
6
CONTINUOUS
10
162.162
20
-198.84
11
162.106
21
-198.886
0
LINE
8
BLACK
6
CONTINUOUS
10
162.054
20
-198.934
11
162.006
21
-198.987
0
LINE
8
BLACK
6
CONTINUOUS
10
161.92
20
-199.104
11
161.883
21
-199.168
0
LINE
8
BLACK
6
CONTINUOUS
10
153.145
20
-255.791
11
153.056
21
-255.804
0
LINE
8
BLACK
6
CONTINUOUS
10
162.006
20
-198.987
11
161.961
21
-199.044
0
LINE
8
BLACK
6
CONTINUOUS
10
157.736
20
-236.773
11
157.66
21
-236.797
0
LINE
8
BLACK
6
CONTINUOUS
10
156.718
20
-255.485
11
156.766
21
-255.432
0
LINE
8
BLACK
6
CONTINUOUS
10
161.78
20
-199.473
11
161.769
21
-199.569
0
LINE
8
BLACK
6
CONTINUOUS
10
157.589
20
-236.826
11
157.52
21
-236.861
0
LINE
8
BLACK
6
CONTINUOUS
10
152.358
20
-256.318
11
152.324
21
-256.389
0
LINE
8
BLACK
6
CONTINUOUS
10
157.119
20
-237.268
11
157.085
21
-237.339
0
LINE
8
BLACK
6
CONTINUOUS
10
161.764
20
-216.683
11
161.764
21
-199.635
0
LINE
8
BLACK
6
CONTINUOUS
10
156.975
20
-255.022
11
156.991
21
-254.938
0
LINE
8
BLACK
6
CONTINUOUS
10
152.324
20
-256.389
11
152.296
21
-256.462
0
LINE
8
BLACK
6
CONTINUOUS
10
156.348
20
-255.725
11
156.419
21
-255.696
0
LINE
8
BLACK
6
CONTINUOUS
10
152.828
20
-255.876
11
152.759
21
-255.911
0
LINE
8
BLACK
6
CONTINUOUS
10
156.488
20
-255.661
11
156.552
21
-255.622
0
LINE
8
BLACK
6
CONTINUOUS
10
162.581
20
-198.654
11
162.5
21
-198.672
0
LINE
8
BLACK
6
CONTINUOUS
10
157.342
20
-236.986
11
157.29
21
-237.035
0
LINE
8
BLACK
6
CONTINUOUS
10
153.242
20
-255.787
11
153.145
21
-255.791
0
LINE
8
BLACK
6
CONTINUOUS
10
152.759
20
-255.911
11
152.696
21
-255.949
0
LINE
8
BLACK
6
CONTINUOUS
10
152.436
20
-256.194
11
152.395
21
-256.254
0
LINE
8
BLACK
6
CONTINUOUS
10
152.899
20
-255.847
11
152.828
21
-255.876
0
LINE
8
BLACK
6
CONTINUOUS
10
152.581
20
-256.036
11
152.529
21
-256.085
0
LINE
8
BLACK
6
CONTINUOUS
10
157.29
20
-237.035
11
157.242
21
-237.087
0
LINE
8
BLACK
6
CONTINUOUS
10
152.637
20
-255.99
11
152.581
21
-256.036
0
LINE
8
BLACK
6
CONTINUOUS
10
156.813
20
-255.372
11
156.855
21
-255.31
0
LINE
8
BLACK
6
CONTINUOUS
10
152.239
20
-279.981
11
152.239
21
-256.785
0
LINE
8
BLACK
6
CONTINUOUS
10
156.552
20
-255.622
11
156.611
21
-255.58
0
LINE
8
BLACK
6
CONTINUOUS
10
157.52
20
-236.861
11
157.457
21
-236.899
0
LINE
8
BLACK
6
CONTINUOUS
10
157.906
20
-236.741
11
157.817
21
-236.754
0
LINE
8
BLACK
6
CONTINUOUS
10
158.003
20
-236.737
11
157.906
21
-236.741
0
LINE
8
BLACK
6
CONTINUOUS
10
157.817
20
-236.754
11
157.736
21
-236.773
0
LINE
8
BLACK
6
CONTINUOUS
10
152.975
20
-255.823
11
152.899
21
-255.847
0
LINE
8
BLACK
6
CONTINUOUS
10
152.395
20
-256.254
11
152.358
21
-256.318
0
LINE
8
BLACK
6
CONTINUOUS
10
162.767
20
-198.636
11
162.67
21
-198.641
0
LINE
8
BLACK
6
CONTINUOUS
10
162.67
20
-198.641
11
162.581
21
-198.654
0
LINE
8
BLACK
6
CONTINUOUS
10
152.481
20
-256.137
11
152.436
21
-256.194
0
LINE
8
BLACK
6
CONTINUOUS
10
157.156
20
-237.204
11
157.119
21
-237.268
0
LINE
8
BLACK
6
CONTINUOUS
10
171.264
20
-197.872
11
171.28
21
-197.788
0
LINE
8
BLACK
6
CONTINUOUS
10
171.28
20
-197.788
11
171.29
21
-197.697
0
LINE
8
BLACK
6
CONTINUOUS
10
166.466
20
-218.338
11
166.436
21
-218.265
0
LINE
8
BLACK
6
CONTINUOUS
10
166.402
20
-218.199
11
166.363
21
-218.134
0
LINE
8
BLACK
6
CONTINUOUS
10
153.056
20
-255.804
11
152.975
21
-255.823
0
LINE
8
BLACK
6
CONTINUOUS
10
166.321
20
-218.074
11
166.274
21
-218.019
0
LINE
8
BLACK
6
CONTINUOUS
10
166.51
20
-218.497
11
166.491
21
-218.415
0
LINE
8
BLACK
6
CONTINUOUS
10
165.99
20
-217.797
11
165.922
21
-217.765
0
LINE
8
BLACK
6
CONTINUOUS
10
171.213
20
-198.025
11
171.241
21
-197.952
0
LINE
8
BLACK
6
CONTINUOUS
10
171.102
20
-198.222
11
171.144
21
-198.16
0
LINE
8
BLACK
6
CONTINUOUS
10
171.055
20
-198.282
11
171.102
21
-198.222
0
LINE
8
BLACK
6
CONTINUOUS
10
166.523
20
-218.587
11
166.51
21
-218.497
0
LINE
8
BLACK
6
CONTINUOUS
10
166.274
20
-218.019
11
166.225
21
-217.968
0
LINE
8
BLACK
6
CONTINUOUS
10
171.181
20
-198.094
11
171.213
21
-198.025
0
LINE
8
BLACK
6
CONTINUOUS
10
166.054
20
-217.834
11
165.99
21
-217.797
0
LINE
8
BLACK
6
CONTINUOUS
10
171.144
20
-198.16
11
171.181
21
-198.094
0
LINE
8
BLACK
6
CONTINUOUS
10
166.225
20
-217.968
11
166.172
21
-217.919
0
LINE
8
BLACK
6
CONTINUOUS
10
171.241
20
-197.952
11
171.264
21
-197.872
0
LINE
8
BLACK
6
CONTINUOUS
10
166.528
20
-218.684
11
166.523
21
-218.587
0
LINE
8
BLACK
6
CONTINUOUS
10
157.242
20
-237.087
11
157.197
21
-237.144
0
LINE
8
BLACK
6
CONTINUOUS
10
165.526
20
-217.683
11
162.764
21
-217.683
0
LINE
8
BLACK
6
CONTINUOUS
10
166.172
20
-217.919
11
166.115
21
-217.875
0
LINE
8
BLACK
6
CONTINUOUS
10
156.892
20
-255.244
11
156.924
21
-255.175
0
LINE
8
BLACK
6
CONTINUOUS
10
157.016
20
-237.573
11
157.005
21
-237.669
0
LINE
8
BLACK
6
CONTINUOUS
10
153.24
20
-255.786
11
156.001
21
-255.786
0
LINE
8
BLACK
6
CONTINUOUS
10
166.363
20
-218.134
11
166.321
21
-218.074
0
LINE
8
BLACK
6
CONTINUOUS
10
171.007
20
-198.335
11
171.055
21
-198.282
0
LINE
8
BLACK
6
CONTINUOUS
10
166.115
20
-217.875
11
166.054
21
-217.834
0
LINE
8
BLACK
6
CONTINUOUS
10
156.924
20
-255.175
11
156.952
21
-255.102
0
LINE
8
BLACK
6
CONTINUOUS
10
157.398
20
-236.94
11
157.342
21
-236.986
0
LINE
8
BLACK
6
CONTINUOUS
10
152.244
20
-256.719
11
152.242
21
-256.787
0
LINE
8
BLACK
6
CONTINUOUS
10
152.696
20
-255.949
11
152.637
21
-255.99
0
LINE
8
BLACK
6
CONTINUOUS
10
171.29
20
-197.697
11
171.292
21
-197.636
0
LINE
8
BLACK
6
CONTINUOUS
10
170.955
20
-198.385
11
171.007
21
-198.335
0
LINE
8
BLACK
6
CONTINUOUS
10
165.922
20
-217.765
11
165.848
21
-217.736
0
LINE
8
BLACK
6
CONTINUOUS
10
166.436
20
-218.265
11
166.402
21
-218.199
0
LINE
8
BLACK
6
CONTINUOUS
10
152.255
20
-256.623
11
152.244
21
-256.719
0
LINE
8
BLACK
6
CONTINUOUS
10
166.491
20
-218.415
11
166.466
21
-218.338
0
LINE
8
BLACK
6
CONTINUOUS
10
13.8359
20
-179.481
11
13.8359
21
-275.081
0
LINE
8
BLACK
6
CONTINUOUS
10
165.848
20
-217.736
11
165.768
21
-217.713
0
LINE
8
BLACK
6
CONTINUOUS
10
165.593
20
-217.686
11
165.528
21
-217.684
0
LINE
8
BLACK
6
CONTINUOUS
10
165.768
20
-217.713
11
165.684
21
-217.696
0
LINE
8
BLACK
6
CONTINUOUS
10
165.684
20
-217.696
11
165.593
21
-217.686
0
ARC
8
BLACK
10
18.7359
20
-179.481
40
4.9
50
90
51
180
0
ARC
8
BLACK
10
18.7359
20
-275.081
40
4.9
50
180
51
270
0
LINE
8
BLACK
6
CONTINUOUS
10
18.7359
20
-279.981
11
152.239
21
-279.981
0
LINE
8
BLACK
6
CONTINUOUS
10
20.5105
20
-181.256
11
168.811
21
-181.256
0
LINE
8
BLACK
6
CONTINUOUS
10
164.286
20
-201.206
11
173.811
21
-201.206
0
LINE
8
BLACK
6
CONTINUOUS
10
160.93
20
-275.081
11
195.477
21
-275.081
0
LINE
8
BLACK
6
CONTINUOUS
10
173.811
20
-201.206
11
173.811
21
-181.256
0
LINE
8
BLACK
6
CONTINUOUS
10
314.966
20
-254.254
11
307.824
21
-254.254
0
LINE
8
BLACK
6
CONTINUOUS
10
171.289
20
-174.581
11
323.838
21
-174.581
0
LINE
8
BLACK
6
CONTINUOUS
10
195.477
20
-273.304
11
195.477
21
-275.081
0
LINE
8
BLACK
6
CONTINUOUS
10
307.824
20
-254.254
11
307.824
21
-273.304
0
LINE
8
BLACK
6
CONTINUOUS
10
173.811
20
-181.256
11
321.687
21
-181.256
0
LINE
8
BLACK
6
CONTINUOUS
10
321.687
20
-237.401
11
314.966
21
-237.401
0
LINE
8
BLACK
6
CONTINUOUS
10
328.738
20
-275.081
11
328.738
21
-179.481
0
LINE
8
BLACK
6
CONTINUOUS
10
314.966
20
-237.401
11
314.966
21
-254.254
0
ARC
8
BLACK
10
323.838
20
-179.481
40
4.9
50
-0
51
90
0
LINE
8
BLACK
6
CONTINUOUS
10
195.477
20
-273.304
11
307.824
21
-273.304
0
LINE
8
BLACK
6
CONTINUOUS
10
321.687
20
-181.256
11
321.687
21
-237.401
0
LINE
8
BLACK
6
CONTINUOUS
10
152.239
20
-279.981
11
323.838
21
-279.981
0
ARC
8
BLACK
10
323.838
20
-275.081
40
4.9
50
-90
51
-0
0
LINE
8
BLACK
6
CONTINUOUS
10
34.798
20
-273.304
11
34.798
21
-254.254
0
LINE
8
BLACK
6
CONTINUOUS
10
166.191
20
-236.485
11
166.243
21
-236.435
0
LINE
8
BLACK
6
CONTINUOUS
10
156.102
20
-255.782
11
156.19
21
-255.769
0
LINE
8
BLACK
6
CONTINUOUS
10
166.526
20
-235.797
11
166.528
21
-235.737
0
LINE
8
BLACK
6
CONTINUOUS
10
156.003
20
-255.787
11
156.102
21
-255.782
0
LINE
8
BLACK
6
CONTINUOUS
10
156.19
20
-255.769
11
156.272
21
-255.75
0
LINE
8
BLACK
6
CONTINUOUS
10
165.627
20
-236.732
11
165.715
21
-236.719
0
ARC
8
BLACK
10
162.764
20
-216.683
40
1
50
180
51
270
0
LINE
8
BLACK
6
CONTINUOUS
10
165.528
20
-236.737
11
165.627
21
-236.732
0
LINE
8
BLACK
6
CONTINUOUS
10
166.338
20
-236.322
11
166.38
21
-236.26
0
LINE
8
BLACK
6
CONTINUOUS
10
166.38
20
-236.26
11
166.417
21
-236.194
0
LINE
8
BLACK
6
CONTINUOUS
10
18.7359
20
-174.581
11
171.289
21
-174.581
0
LINE
8
BLACK
6
CONTINUOUS
10
165.944
20
-236.646
11
166.013
21
-236.611
0
LINE
8
BLACK
6
CONTINUOUS
10
166.136
20
-236.53
11
166.191
21
-236.485
0
LINE
8
BLACK
6
CONTINUOUS
10
166.417
20
-236.194
11
166.449
21
-236.125
0
LINE
8
BLACK
6
CONTINUOUS
10
162.765
20
-198.636
11
170.291
21
-198.636
0
LINE
8
BLACK
6
CONTINUOUS
10
165.715
20
-236.719
11
165.797
21
-236.7
0
LINE
8
BLACK
6
CONTINUOUS
10
166.077
20
-236.572
11
166.136
21
-236.53
0
LINE
8
BLACK
6
CONTINUOUS
10
166.516
20
-235.888
11
166.526
21
-235.797
0
LINE
8
BLACK
6
CONTINUOUS
10
166.5
20
-235.972
11
166.516
21
-235.888
0
LINE
8
BLACK
6
CONTINUOUS
10
166.449
20
-236.125
11
166.477
21
-236.052
0
LINE
8
BLACK
6
CONTINUOUS
10
166.477
20
-236.052
11
166.5
21
-235.972
0
LINE
8
BLACK
6
CONTINUOUS
10
166.527
20
-235.736
11
166.527
21
-218.682
0
LINE
8
BLACK
6
CONTINUOUS
10
165.873
20
-236.675
11
165.944
21
-236.646
0
LINE
8
BLACK
6
CONTINUOUS
10
166.013
20
-236.611
11
166.077
21
-236.572
0
LINE
8
BLACK
6
CONTINUOUS
10
165.797
20
-236.7
11
165.873
21
-236.675
0
LINE
8
BLACK
6
CONTINUOUS
10
166.243
20
-236.435
11
166.291
21
-236.382
0
LINE
8
BLACK
6
CONTINUOUS
10
166.291
20
-236.382
11
166.338
21
-236.322
0
LINE
8
BLACK
6
CONTINUOUS
10
143.287
20
-253.354
11
154.524
21
-253.354
0
LINE
8
BLACK
6
CONTINUOUS
10
143.287
20
-275.081
11
143.287
21
-253.354
0
LINE
8
BLACK
6
CONTINUOUS
10
160.93
20
-253.354
11
160.93
21
-275.081
0
LINE
8
BLACK
6
CONTINUOUS
10
169.048
20
-239.306
11
169.048
21
-215.254
0
LINE
8
BLACK
6
CONTINUOUS
10
164.286
20
-215.254
11
164.286
21
-201.206
0
LINE
8
BLACK
6
CONTINUOUS
10
159.523
20
-239.306
11
169.048
21
-239.306
0
LINE
8
BLACK
6
CONTINUOUS
10
159.523
20
-253.354
11
160.93
21
-253.354
0
LINE
8
BLACK
6
CONTINUOUS
10
159.523
20
-239.306
11
159.523
21
-253.354
0
LINE
8
BLACK
6
CONTINUOUS
10
164.049
20
-220.256
11
159.286
21
-220.256
0
LINE
8
BLACK
6
CONTINUOUS
10
159.286
20
-220.256
11
159.286
21
-196.204
0
LINE
8
BLACK
6
CONTINUOUS
10
20.5105
20
-254.254
11
20.5105
21
-181.256
0
LINE
8
BLACK
6
CONTINUOUS
10
154.524
20
-234.304
11
164.049
21
-234.304
0
LINE
8
BLACK
6
CONTINUOUS
10
34.798
20
-273.304
11
109.387
21
-273.304
0
LINE
8
BLACK
6
CONTINUOUS
10
169.048
20
-215.254
11
164.286
21
-215.254
0
LINE
8
BLACK
6
CONTINUOUS
10
164.049
20
-234.304
11
164.049
21
-220.256
0
LINE
8
BLACK
6
CONTINUOUS
10
109.387
20
-273.304
11
109.387
21
-275.081
0
LINE
8
BLACK
6
CONTINUOUS
10
109.387
20
-275.081
11
143.287
21
-275.081
0
LINE
8
BLACK
6
CONTINUOUS
10
168.811
20
-196.204
11
168.811
21
-181.256
0
LINE
8
BLACK
6
CONTINUOUS
10
159.286
20
-196.204
11
168.811
21
-196.204
0
LINE
8
BLACK
6
CONTINUOUS
10
154.524
20
-253.354
11
154.524
21
-234.304
0
LINE
8
BLACK
6
CONTINUOUS
10
34.798
20
-254.254
11
20.5105
21
-254.254
0
LINE
8
BLACK
6
CONTINUOUS
10
505.096
20
-176.792
11
505.012
21
-176.776
0
ARC
8
BLACK
10
485.807
20
-180.528
40
1
50
-90
51
-0
0
LINE
8
BLACK
6
CONTINUOUS
10
505.249
20
-176.843
11
505.176
21
-176.815
0
LINE
8
BLACK
6
CONTINUOUS
10
505.77
20
-177.348
11
505.735
21
-177.279
0
LINE
8
BLACK
6
CONTINUOUS
10
505.559
20
-177.049
11
505.506
21
-177.001
0
LINE
8
BLACK
6
CONTINUOUS
10
505.609
20
-177.101
11
505.559
21
-177.049
0
LINE
8
BLACK
6
CONTINUOUS
10
524.906
20
-187.19
11
524.893
21
-187.102
0
LINE
8
BLACK
6
CONTINUOUS
10
505.446
20
-176.954
11
505.384
21
-176.912
0
LINE
8
BLACK
6
CONTINUOUS
10
505.384
20
-176.912
11
505.318
21
-176.875
0
LINE
8
BLACK
6
CONTINUOUS
10
505.176
20
-176.815
11
505.096
21
-176.792
0
LINE
8
BLACK
6
CONTINUOUS
10
505.506
20
-177.001
11
505.446
21
-176.954
0
LINE
8
BLACK
6
CONTINUOUS
10
443.705
20
-324.556
11
443.705
21
-172.003
0
LINE
8
BLACK
6
CONTINUOUS
10
505.799
20
-177.419
11
505.77
21
-177.348
0
LINE
8
BLACK
6
CONTINUOUS
10
505.824
20
-177.495
11
505.799
21
-177.419
0
LINE
8
BLACK
6
CONTINUOUS
10
467.76
20
-180.527
11
467.76
21
-173.001
0
LINE
8
BLACK
6
CONTINUOUS
10
505.735
20
-177.279
11
505.696
21
-177.215
0
LINE
8
BLACK
6
CONTINUOUS
10
524.911
20
-187.289
11
524.906
21
-187.19
0
LINE
8
BLACK
6
CONTINUOUS
10
505.318
20
-176.875
11
505.249
21
-176.843
0
LINE
8
BLACK
6
CONTINUOUS
10
505.856
20
-177.665
11
505.843
21
-177.577
0
LINE
8
BLACK
6
CONTINUOUS
10
524.893
20
-187.102
11
524.874
21
-187.02
0
LINE
8
BLACK
6
CONTINUOUS
10
505.861
20
-177.764
11
505.856
21
-177.665
0
LINE
8
BLACK
6
CONTINUOUS
10
505.654
20
-177.156
11
505.609
21
-177.101
0
LINE
8
BLACK
6
CONTINUOUS
10
505.843
20
-177.577
11
505.824
21
-177.495
0
LINE
8
BLACK
6
CONTINUOUS
10
505.696
20
-177.215
11
505.654
21
-177.156
0
LINE
8
BLACK
6
CONTINUOUS
10
504.86
20
-176.765
11
487.806
21
-176.765
0
LINE
8
BLACK
6
CONTINUOUS
10
504.921
20
-176.766
11
504.861
21
-176.764
0
LINE
8
BLACK
6
CONTINUOUS
10
505.012
20
-176.776
11
504.921
21
-176.766
0
LINE
8
BLACK
6
CONTINUOUS
10
467.635
20
-172.515
11
467.596
21
-172.451
0
LINE
8
BLACK
6
CONTINUOUS
10
467.724
20
-172.731
11
467.699
21
-172.655
0
LINE
8
BLACK
6
CONTINUOUS
10
468.436
20
-181.471
11
468.513
21
-181.495
0
LINE
8
BLACK
6
CONTINUOUS
10
468.513
20
-181.495
11
468.597
21
-181.512
0
LINE
8
BLACK
6
CONTINUOUS
10
467.756
20
-172.901
11
467.743
21
-172.813
0
LINE
8
BLACK
6
CONTINUOUS
10
468.363
20
-181.443
11
468.436
21
-181.471
0
LINE
8
BLACK
6
CONTINUOUS
10
467.554
20
-172.392
11
467.509
21
-172.337
0
LINE
8
BLACK
6
CONTINUOUS
10
467.76
20
-173
11
467.756
21
-172.901
0
LINE
8
BLACK
6
CONTINUOUS
10
467.796
20
-180.792
11
467.821
21
-180.868
0
LINE
8
BLACK
6
CONTINUOUS
10
468.168
20
-181.331
11
468.228
21
-181.372
0
LINE
8
BLACK
6
CONTINUOUS
10
468.692
20
-181.523
11
468.76
21
-181.525
0
LINE
8
BLACK
6
CONTINUOUS
10
467.699
20
-172.655
11
467.67
21
-172.584
0
LINE
8
BLACK
6
CONTINUOUS
10
467.821
20
-180.868
11
467.85
21
-180.939
0
LINE
8
BLACK
6
CONTINUOUS
10
505.86
20
-185.292
11
505.86
21
-177.766
0
LINE
8
BLACK
6
CONTINUOUS
10
524.226
20
-186.34
11
524.146
21
-186.317
0
LINE
8
BLACK
6
CONTINUOUS
10
468.292
20
-181.409
11
468.363
21
-181.443
0
LINE
8
BLACK
6
CONTINUOUS
10
525
20
-190.464
11
525.035
21
-190.533
0
LINE
8
BLACK
6
CONTINUOUS
10
524.146
20
-186.317
11
524.062
21
-186.301
0
LINE
8
BLACK
6
CONTINUOUS
10
467.85
20
-180.939
11
467.885
21
-181.008
0
LINE
8
BLACK
6
CONTINUOUS
10
505.95
20
-185.703
11
505.985
21
-185.772
0
LINE
8
BLACK
6
CONTINUOUS
10
467.885
20
-181.008
11
467.923
21
-181.071
0
LINE
8
BLACK
6
CONTINUOUS
10
468.01
20
-181.186
11
468.058
21
-181.238
0
LINE
8
BLACK
6
CONTINUOUS
10
467.596
20
-172.451
11
467.554
21
-172.392
0
LINE
8
BLACK
6
CONTINUOUS
10
467.923
20
-181.071
11
467.964
21
-181.13
0
LINE
8
BLACK
6
CONTINUOUS
10
467.743
20
-172.813
11
467.724
21
-172.731
0
LINE
8
BLACK
6
CONTINUOUS
10
506.392
20
-186.173
11
506.463
21
-186.207
0
LINE
8
BLACK
6
CONTINUOUS
10
524.062
20
-186.301
11
523.971
21
-186.291
0
LINE
8
BLACK
6
CONTINUOUS
10
506.268
20
-186.095
11
506.328
21
-186.136
0
LINE
8
BLACK
6
CONTINUOUS
10
505.878
20
-185.475
11
505.897
21
-185.556
0
LINE
8
BLACK
6
CONTINUOUS
10
467.765
20
-180.622
11
467.778
21
-180.711
0
LINE
8
BLACK
6
CONTINUOUS
10
524.915
20
-190.147
11
524.928
21
-190.236
0
LINE
8
BLACK
6
CONTINUOUS
10
525.663
20
-191.02
11
525.747
21
-191.037
0
LINE
8
BLACK
6
CONTINUOUS
10
524.971
20
-190.393
11
525
21
-190.464
0
LINE
8
BLACK
6
CONTINUOUS
10
525.16
20
-190.711
11
525.209
21
-190.763
0
LINE
8
BLACK
6
CONTINUOUS
10
506.463
20
-186.207
11
506.536
21
-186.236
0
LINE
8
BLACK
6
CONTINUOUS
10
468.058
20
-181.238
11
468.111
21
-181.286
0
LINE
8
BLACK
6
CONTINUOUS
10
549.105
20
-191.053
11
525.909
21
-191.053
0
LINE
8
BLACK
6
CONTINUOUS
10
524.947
20
-190.317
11
524.971
21
-190.393
0
LINE
8
BLACK
6
CONTINUOUS
10
506.536
20
-186.236
11
506.613
21
-186.259
0
LINE
8
BLACK
6
CONTINUOUS
10
525.442
20
-190.934
11
525.513
21
-190.968
0
LINE
8
BLACK
6
CONTINUOUS
10
524.704
20
-186.681
11
524.659
21
-186.626
0
LINE
8
BLACK
6
CONTINUOUS
10
467.76
20
-180.525
11
467.765
21
-180.622
0
LINE
8
BLACK
6
CONTINUOUS
10
524.911
20
-190.05
11
524.915
21
-190.147
0
LINE
8
BLACK
6
CONTINUOUS
10
467.964
20
-181.13
11
468.01
21
-181.186
0
LINE
8
BLACK
6
CONTINUOUS
10
468.597
20
-181.512
11
468.692
21
-181.523
0
LINE
8
BLACK
6
CONTINUOUS
10
506.11
20
-185.95
11
506.159
21
-186.002
0
LINE
8
BLACK
6
CONTINUOUS
10
524.746
20
-186.74
11
524.704
21
-186.681
0
LINE
8
BLACK
6
CONTINUOUS
10
506.159
20
-186.002
11
506.211
21
-186.05
0
LINE
8
BLACK
6
CONTINUOUS
10
505.985
20
-185.772
11
506.023
21
-185.835
0
LINE
8
BLACK
6
CONTINUOUS
10
525.261
20
-190.811
11
525.318
21
-190.856
0
LINE
8
BLACK
6
CONTINUOUS
10
525.114
20
-190.655
11
525.16
21
-190.711
0
LINE
8
BLACK
6
CONTINUOUS
10
524.874
20
-187.02
11
524.849
21
-186.944
0
LINE
8
BLACK
6
CONTINUOUS
10
525.209
20
-190.763
11
525.261
21
-190.811
0
LINE
8
BLACK
6
CONTINUOUS
10
505.865
20
-185.386
11
505.878
21
-185.475
0
LINE
8
BLACK
6
CONTINUOUS
10
505.921
20
-185.632
11
505.95
21
-185.703
0
LINE
8
BLACK
6
CONTINUOUS
10
525.586
20
-190.996
11
525.663
21
-191.02
0
LINE
8
BLACK
6
CONTINUOUS
10
525.035
20
-190.533
11
525.073
21
-190.596
0
LINE
8
BLACK
6
CONTINUOUS
10
524.556
20
-186.526
11
524.496
21
-186.479
0
LINE
8
BLACK
6
CONTINUOUS
10
524.849
20
-186.944
11
524.82
21
-186.873
0
LINE
8
BLACK
6
CONTINUOUS
10
525.378
20
-190.897
11
525.442
21
-190.934
0
LINE
8
BLACK
6
CONTINUOUS
10
525.513
20
-190.968
11
525.586
21
-190.996
0
LINE
8
BLACK
6
CONTINUOUS
10
466.76
20
-172.003
11
443.705
21
-172.003
0
LINE
8
BLACK
6
CONTINUOUS
10
468.228
20
-181.372
11
468.292
21
-181.409
0
LINE
8
BLACK
6
CONTINUOUS
10
525.318
20
-190.856
11
525.378
21
-190.897
0
LINE
8
BLACK
6
CONTINUOUS
10
523.91
20
-186.29
11
506.859
21
-186.29
0
LINE
8
BLACK
6
CONTINUOUS
10
468.111
20
-181.286
11
468.168
21
-181.331
0
LINE
8
BLACK
6
CONTINUOUS
10
506.613
20
-186.259
11
506.697
21
-186.276
0
LINE
8
BLACK
6
CONTINUOUS
10
506.023
20
-185.835
11
506.064
21
-185.894
0
LINE
8
BLACK
6
CONTINUOUS
10
524.496
20
-186.479
11
524.434
21
-186.437
0
LINE
8
BLACK
6
CONTINUOUS
10
506.793
20
-186.287
11
506.861
21
-186.289
0
LINE
8
BLACK
6
CONTINUOUS
10
467.67
20
-172.584
11
467.635
21
-172.515
0
LINE
8
BLACK
6
CONTINUOUS
10
524.609
20
-186.574
11
524.556
21
-186.526
0
LINE
8
BLACK
6
CONTINUOUS
10
505.897
20
-185.556
11
505.921
21
-185.632
0
LINE
8
BLACK
6
CONTINUOUS
10
524.785
20
-186.804
11
524.746
21
-186.74
0
LINE
8
BLACK
6
CONTINUOUS
10
485.807
20
-181.528
11
468.759
21
-181.528
0
LINE
8
BLACK
6
CONTINUOUS
10
524.82
20
-186.873
11
524.785
21
-186.804
0
LINE
8
BLACK
6
CONTINUOUS
10
523.971
20
-186.291
11
523.911
21
-186.289
0
LINE
8
BLACK
6
CONTINUOUS
10
467.459
20
-172.285
11
467.406
21
-172.237
0
LINE
8
BLACK
6
CONTINUOUS
10
486.889
20
-177.37
11
486.86
21
-177.444
0
LINE
8
BLACK
6
CONTINUOUS
10
525.073
20
-190.596
11
525.114
21
-190.655
0
LINE
8
BLACK
6
CONTINUOUS
10
524.659
20
-186.626
11
524.609
21
-186.574
0
LINE
8
BLACK
6
CONTINUOUS
10
487.539
20
-176.801
11
487.462
21
-176.826
0
LINE
8
BLACK
6
CONTINUOUS
10
466.912
20
-172.012
11
466.821
21
-172.002
0
LINE
8
BLACK
6
CONTINUOUS
10
486.807
20
-177.766
11
486.807
21
-180.528
0
LINE
8
BLACK
6
CONTINUOUS
10
487.621
20
-176.782
11
487.539
21
-176.801
0
LINE
8
BLACK
6
CONTINUOUS
10
486.921
20
-177.302
11
486.889
21
-177.37
0
LINE
8
BLACK
6
CONTINUOUS
10
467.149
20
-172.079
11
467.076
21
-172.051
0
LINE
8
BLACK
6
CONTINUOUS
10
487.711
20
-176.769
11
487.621
21
-176.782
0
LINE
8
BLACK
6
CONTINUOUS
10
467.218
20
-172.111
11
467.149
21
-172.079
0
LINE
8
BLACK
6
CONTINUOUS
10
487.808
20
-176.764
11
487.711
21
-176.769
0
LINE
8
BLACK
6
CONTINUOUS
10
486.958
20
-177.238
11
486.921
21
-177.302
0
LINE
8
BLACK
6
CONTINUOUS
10
487.143
20
-177.018
11
487.091
21
-177.067
0
LINE
8
BLACK
6
CONTINUOUS
10
467.076
20
-172.051
11
466.996
21
-172.028
0
LINE
8
BLACK
6
CONTINUOUS
10
487.091
20
-177.067
11
487.043
21
-177.12
0
LINE
8
BLACK
6
CONTINUOUS
10
467.778
20
-180.711
11
467.796
21
-180.792
0
LINE
8
BLACK
6
CONTINUOUS
10
467.284
20
-172.148
11
467.218
21
-172.111
0
LINE
8
BLACK
6
CONTINUOUS
10
524.928
20
-190.236
11
524.947
21
-190.317
0
LINE
8
BLACK
6
CONTINUOUS
10
467.346
20
-172.19
11
467.284
21
-172.148
0
LINE
8
BLACK
6
CONTINUOUS
10
487.198
20
-176.971
11
487.143
21
-177.018
0
LINE
8
BLACK
6
CONTINUOUS
10
466.821
20
-172.002
11
466.76
21
-172
0
LINE
8
BLACK
6
CONTINUOUS
10
505.861
20
-185.289
11
505.865
21
-185.386
0
LINE
8
BLACK
6
CONTINUOUS
10
524.434
20
-186.437
11
524.368
21
-186.4
0
LINE
8
BLACK
6
CONTINUOUS
10
525.747
20
-191.037
11
525.843
21
-191.048
0
LINE
8
BLACK
6
CONTINUOUS
10
466.996
20
-172.028
11
466.912
21
-172.012
0
LINE
8
BLACK
6
CONTINUOUS
10
524.368
20
-186.4
11
524.299
21
-186.368
0
LINE
8
BLACK
6
CONTINUOUS
10
524.299
20
-186.368
11
524.226
21
-186.34
0
LINE
8
BLACK
6
CONTINUOUS
10
506.064
20
-185.894
11
506.11
21
-185.95
0
LINE
8
BLACK
6
CONTINUOUS
10
487.462
20
-176.826
11
487.389
21
-176.856
0
LINE
8
BLACK
6
CONTINUOUS
10
467.406
20
-172.237
11
467.346
21
-172.19
0
LINE
8
BLACK
6
CONTINUOUS
10
524.91
20
-190.052
11
524.91
21
-187.291
0
LINE
8
BLACK
6
CONTINUOUS
10
486.999
20
-177.177
11
486.958
21
-177.238
0
LINE
8
BLACK
6
CONTINUOUS
10
525.843
20
-191.048
11
525.911
21
-191.05
0
LINE
8
BLACK
6
CONTINUOUS
10
506.211
20
-186.05
11
506.268
21
-186.095
0
LINE
8
BLACK
6
CONTINUOUS
10
506.328
20
-186.136
11
506.392
21
-186.173
0
LINE
8
BLACK
6
CONTINUOUS
10
506.697
20
-186.276
11
506.793
21
-186.287
0
LINE
8
BLACK
6
CONTINUOUS
10
487.323
20
-176.89
11
487.258
21
-176.929
0
LINE
8
BLACK
6
CONTINUOUS
10
487.389
20
-176.856
11
487.323
21
-176.89
0
LINE
8
BLACK
6
CONTINUOUS
10
487.258
20
-176.929
11
487.198
21
-176.971
0
LINE
8
BLACK
6
CONTINUOUS
10
487.043
20
-177.12
11
486.999
21
-177.177
0
LINE
8
BLACK
6
CONTINUOUS
10
467.509
20
-172.337
11
467.459
21
-172.285
0
LINE
8
BLACK
6
CONTINUOUS
10
486.86
20
-177.444
11
486.837
21
-177.524
0
LINE
8
BLACK
6
CONTINUOUS
10
448.605
20
-329.456
11
544.205
21
-329.456
0
LINE
8
BLACK
6
CONTINUOUS
10
486.82
20
-177.608
11
486.81
21
-177.699
0
ARC
8
BLACK
10
448.605
20
-324.556
40
4.9
50
180
51
270
0
LINE
8
BLACK
6
CONTINUOUS
10
549.105
20
-324.556
11
549.105
21
-191.053
0
LINE
8
BLACK
6
CONTINUOUS
10
486.81
20
-177.699
11
486.808
21
-177.764
0
LINE
8
BLACK
6
CONTINUOUS
10
486.837
20
-177.524
11
486.82
21
-177.608
0
ARC
8
BLACK
10
544.205
20
-324.556
40
4.9
50
-90
51
-0
0
LINE
8
BLACK
6
CONTINUOUS
10
523.378
20
-35.468
11
542.428
21
-35.468
0
LINE
8
BLACK
6
CONTINUOUS
10
523.378
20
-28.326
11
523.378
21
-35.468
0
LINE
8
BLACK
6
CONTINUOUS
10
443.705
20
-172.003
11
443.705
21
-19.454
0
LINE
8
BLACK
6
CONTINUOUS
10
542.428
20
-147.815
11
544.205
21
-147.815
0
LINE
8
BLACK
6
CONTINUOUS
10
470.33
20
-179.006
11
470.33
21
-169.481
0
LINE
8
BLACK
6
CONTINUOUS
10
544.205
20
-182.362
11
544.205
21
-147.815
0
LINE
8
BLACK
6
CONTINUOUS
10
450.38
20
-322.781
11
450.38
21
-174.481
0
LINE
8
BLACK
6
CONTINUOUS
10
470.33
20
-169.481
11
450.38
21
-169.481
0
LINE
8
BLACK
6
CONTINUOUS
10
450.38
20
-169.481
11
450.38
21
-21.605
0
LINE
8
BLACK
6
CONTINUOUS
10
506.525
20
-21.605
11
506.525
21
-28.326
0
LINE
8
BLACK
6
CONTINUOUS
10
506.525
20
-28.326
11
523.378
21
-28.326
0
LINE
8
BLACK
6
CONTINUOUS
10
549.105
20
-191.053
11
549.105
21
-19.454
0
LINE
8
BLACK
6
CONTINUOUS
10
544.205
20
-14.554
11
448.605
21
-14.554
0
LINE
8
BLACK
6
CONTINUOUS
10
542.428
20
-147.815
11
542.428
21
-35.468
0
LINE
8
BLACK
6
CONTINUOUS
10
450.38
20
-21.605
11
506.525
21
-21.605
0
ARC
8
BLACK
10
448.605
20
-19.454
40
4.9
50
90
51
180
0
ARC
8
BLACK
10
544.205
20
-19.454
40
4.9
50
-0
51
90
0
LINE
8
BLACK
6
CONTINUOUS
10
465.328
20
-184.006
11
465.328
21
-174.481
0
LINE
8
BLACK
6
CONTINUOUS
10
489.38
20
-184.006
11
465.328
21
-184.006
0
LINE
8
BLACK
6
CONTINUOUS
10
542.428
20
-233.905
11
544.205
21
-233.905
0
LINE
8
BLACK
6
CONTINUOUS
10
465.328
20
-174.481
11
450.38
21
-174.481
0
LINE
8
BLACK
6
CONTINUOUS
10
542.428
20
-308.494
11
523.378
21
-308.494
0
LINE
8
BLACK
6
CONTINUOUS
10
523.378
20
-322.781
11
450.38
21
-322.781
0
LINE
8
BLACK
6
CONTINUOUS
10
544.205
20
-233.905
11
544.205
21
-200.005
0
LINE
8
BLACK
6
CONTINUOUS
10
542.428
20
-308.494
11
542.428
21
-233.905
0
LINE
8
BLACK
6
CONTINUOUS
10
523.378
20
-308.494
11
523.378
21
-322.781
0
LINE
8
BLACK
6
CONTINUOUS
10
484.378
20
-179.006
11
470.33
21
-179.006
0
LINE
8
BLACK
6
CONTINUOUS
10
503.428
20
-179.243
11
489.38
21
-179.243
0
LINE
8
BLACK
6
CONTINUOUS
10
508.43
20
-183.769
11
508.43
21
-174.244
0
LINE
8
BLACK
6
CONTINUOUS
10
508.43
20
-174.244
11
484.378
21
-174.244
0
LINE
8
BLACK
6
CONTINUOUS
10
522.478
20
-188.768
11
503.428
21
-188.768
0
LINE
8
BLACK
6
CONTINUOUS
10
489.38
20
-179.243
11
489.38
21
-184.006
0
LINE
8
BLACK
6
CONTINUOUS
10
522.478
20
-183.769
11
522.478
21
-182.362
0
LINE
8
BLACK
6
CONTINUOUS
10
522.478
20
-200.005
11
522.478
21
-188.768
0
LINE
8
BLACK
6
CONTINUOUS
10
522.478
20
-182.362
11
544.205
21
-182.362
0
LINE
8
BLACK
6
CONTINUOUS
10
544.205
20
-200.005
11
522.478
21
-200.005
0
LINE
8
BLACK
6
CONTINUOUS
10
503.428
20
-188.768
11
503.428
21
-179.243
0
LINE
8
BLACK
6
CONTINUOUS
10
508.43
20
-183.769
11
522.478
21
-183.769
0
LINE
8
BLACK
6
CONTINUOUS
10
484.378
20
-174.244
11
484.378
21
-179.006
0
LINE
8
BLACK
6
CONTINUOUS
10
614.907
20
-176.466
11
614.857
21
-176.414
0
LINE
8
BLACK
6
CONTINUOUS
10
634.209
20
-186.654
11
634.204
21
-186.555
0
LINE
8
BLACK
6
CONTINUOUS
10
577.059
20
-179.892
11
577.059
21
-172.366
0
LINE
8
BLACK
6
CONTINUOUS
10
553.003
20
-323.921
11
553.003
21
-171.368
0
LINE
8
BLACK
6
CONTINUOUS
10
615.159
20
-177.129
11
615.154
21
-177.03
0
LINE
8
BLACK
6
CONTINUOUS
10
614.682
20
-176.277
11
614.616
21
-176.24
0
LINE
8
BLACK
6
CONTINUOUS
10
614.158
20
-176.13
11
597.104
21
-176.13
0
LINE
8
BLACK
6
CONTINUOUS
10
614.994
20
-176.58
11
614.952
21
-176.521
0
LINE
8
BLACK
6
CONTINUOUS
10
615.068
20
-176.713
11
615.033
21
-176.644
0
LINE
8
BLACK
6
CONTINUOUS
10
615.122
20
-176.86
11
615.097
21
-176.784
0
LINE
8
BLACK
6
CONTINUOUS
10
614.744
20
-176.319
11
614.682
21
-176.277
0
LINE
8
BLACK
6
CONTINUOUS
10
614.952
20
-176.521
11
614.907
21
-176.466
0
LINE
8
BLACK
6
CONTINUOUS
10
614.219
20
-176.131
11
614.159
21
-176.129
0
LINE
8
BLACK
6
CONTINUOUS
10
615.141
20
-176.942
11
615.122
21
-176.86
0
LINE
8
BLACK
6
CONTINUOUS
10
614.474
20
-176.18
11
614.394
21
-176.157
0
LINE
8
BLACK
6
CONTINUOUS
10
615.154
20
-177.03
11
615.141
21
-176.942
0
LINE
8
BLACK
6
CONTINUOUS
10
614.804
20
-176.366
11
614.744
21
-176.319
0
LINE
8
BLACK
6
CONTINUOUS
10
634.191
20
-186.467
11
634.172
21
-186.385
0
LINE
8
BLACK
6
CONTINUOUS
10
634.204
20
-186.555
11
634.191
21
-186.467
0
ARC
8
BLACK
10
595.105
20
-179.893
40
1
50
-90
51
-0
0
LINE
8
BLACK
6
CONTINUOUS
10
614.616
20
-176.24
11
614.547
21
-176.208
0
LINE
8
BLACK
6
CONTINUOUS
10
614.857
20
-176.414
11
614.804
21
-176.366
0
LINE
8
BLACK
6
CONTINUOUS
10
614.394
20
-176.157
11
614.31
21
-176.141
0
LINE
8
BLACK
6
CONTINUOUS
10
615.033
20
-176.644
11
614.994
21
-176.58
0
LINE
8
BLACK
6
CONTINUOUS
10
614.31
20
-176.141
11
614.219
21
-176.131
0
LINE
8
BLACK
6
CONTINUOUS
10
615.097
20
-176.784
11
615.068
21
-176.713
0
LINE
8
BLACK
6
CONTINUOUS
10
614.547
20
-176.208
11
614.474
21
-176.18
0
LINE
8
BLACK
6
CONTINUOUS
10
577.991
20
-180.888
11
578.059
21
-180.89
0
LINE
8
BLACK
6
CONTINUOUS
10
577.022
20
-172.096
11
576.997
21
-172.02
0
LINE
8
BLACK
6
CONTINUOUS
10
577.059
20
-172.365
11
577.054
21
-172.266
0
LINE
8
BLACK
6
CONTINUOUS
10
576.852
20
-171.757
11
576.807
21
-171.702
0
LINE
8
BLACK
6
CONTINUOUS
10
577.734
20
-180.836
11
577.811
21
-180.86
0
LINE
8
BLACK
6
CONTINUOUS
10
576.933
20
-171.88
11
576.894
21
-171.816
0
LINE
8
BLACK
6
CONTINUOUS
10
577.466
20
-180.696
11
577.526
21
-180.737
0
LINE
8
BLACK
6
CONTINUOUS
10
577.119
20
-180.233
11
577.148
21
-180.304
0
LINE
8
BLACK
6
CONTINUOUS
10
577.054
20
-172.266
11
577.041
21
-172.178
0
LINE
8
BLACK
6
CONTINUOUS
10
576.997
20
-172.02
11
576.968
21
-171.949
0
LINE
8
BLACK
6
CONTINUOUS
10
577.661
20
-180.808
11
577.734
21
-180.836
0
LINE
8
BLACK
6
CONTINUOUS
10
634.811
20
-190.333
11
634.884
21
-190.361
0
LINE
8
BLACK
6
CONTINUOUS
10
577.221
20
-180.436
11
577.262
21
-180.495
0
LINE
8
BLACK
6
CONTINUOUS
10
615.195
20
-184.921
11
615.219
21
-184.997
0
LINE
8
BLACK
6
CONTINUOUS
10
615.457
20
-185.367
11
615.509
21
-185.415
0
LINE
8
BLACK
6
CONTINUOUS
10
634.559
20
-190.176
11
634.616
21
-190.221
0
LINE
8
BLACK
6
CONTINUOUS
10
615.176
20
-184.84
11
615.195
21
-184.921
0
LINE
8
BLACK
6
CONTINUOUS
10
634.172
20
-186.385
11
634.147
21
-186.309
0
LINE
8
BLACK
6
CONTINUOUS
10
634.412
20
-190.02
11
634.458
21
-190.076
0
LINE
8
BLACK
6
CONTINUOUS
10
634.147
20
-186.309
11
634.118
21
-186.238
0
LINE
8
BLACK
6
CONTINUOUS
10
634.961
20
-190.385
11
635.045
21
-190.402
0
LINE
8
BLACK
6
CONTINUOUS
10
577.811
20
-180.86
11
577.895
21
-180.877
0
LINE
8
BLACK
6
CONTINUOUS
10
577.095
20
-180.157
11
577.119
21
-180.233
0
LINE
8
BLACK
6
CONTINUOUS
10
615.566
20
-185.46
11
615.626
21
-185.501
0
LINE
8
BLACK
6
CONTINUOUS
10
577.148
20
-180.304
11
577.183
21
-180.373
0
LINE
8
BLACK
6
CONTINUOUS
10
577.262
20
-180.495
11
577.308
21
-180.551
0
LINE
8
BLACK
6
CONTINUOUS
10
658.403
20
-190.418
11
635.207
21
-190.418
0
LINE
8
BLACK
6
CONTINUOUS
10
615.248
20
-185.068
11
615.283
21
-185.137
0
LINE
8
BLACK
6
CONTINUOUS
10
634.002
20
-186.046
11
633.957
21
-185.991
0
LINE
8
BLACK
6
CONTINUOUS
10
633.269
20
-185.656
11
633.209
21
-185.654
0
LINE
8
BLACK
6
CONTINUOUS
10
577.526
20
-180.737
11
577.59
21
-180.774
0
LINE
8
BLACK
6
CONTINUOUS
10
576.968
20
-171.949
11
576.933
21
-171.88
0
LINE
8
BLACK
6
CONTINUOUS
10
615.219
20
-184.997
11
615.248
21
-185.068
0
LINE
8
BLACK
6
CONTINUOUS
10
633.854
20
-185.891
11
633.794
21
-185.844
0
LINE
8
BLACK
6
CONTINUOUS
10
577.059
20
-179.89
11
577.063
21
-179.987
0
LINE
8
BLACK
6
CONTINUOUS
10
577.357
20
-180.603
11
577.409
21
-180.651
0
LINE
8
BLACK
6
CONTINUOUS
10
634.458
20
-190.076
11
634.507
21
-190.128
0
LINE
8
BLACK
6
CONTINUOUS
10
634.616
20
-190.221
11
634.676
21
-190.262
0
LINE
8
BLACK
6
CONTINUOUS
10
577.183
20
-180.373
11
577.221
21
-180.436
0
LINE
8
BLACK
6
CONTINUOUS
10
577.308
20
-180.551
11
577.357
21
-180.603
0
LINE
8
BLACK
6
CONTINUOUS
10
634.245
20
-189.682
11
634.269
21
-189.758
0
LINE
8
BLACK
6
CONTINUOUS
10
634.083
20
-186.169
11
634.044
21
-186.105
0
LINE
8
BLACK
6
CONTINUOUS
10
577.895
20
-180.877
11
577.991
21
-180.888
0
LINE
8
BLACK
6
CONTINUOUS
10
577.59
20
-180.774
11
577.661
21
-180.808
0
LINE
8
BLACK
6
CONTINUOUS
10
633.208
20
-185.655
11
616.157
21
-185.655
0
LINE
8
BLACK
6
CONTINUOUS
10
634.74
20
-190.299
11
634.811
21
-190.333
0
LINE
8
BLACK
6
CONTINUOUS
10
615.911
20
-185.624
11
615.995
21
-185.641
0
LINE
8
BLACK
6
CONTINUOUS
10
615.163
20
-184.751
11
615.176
21
-184.84
0
LINE
8
BLACK
6
CONTINUOUS
10
634.884
20
-190.361
11
634.961
21
-190.385
0
LINE
8
BLACK
6
CONTINUOUS
10
577.409
20
-180.651
11
577.466
21
-180.696
0
LINE
8
BLACK
6
CONTINUOUS
10
633.907
20
-185.939
11
633.854
21
-185.891
0
LINE
8
BLACK
6
CONTINUOUS
10
615.69
20
-185.538
11
615.761
21
-185.572
0
LINE
8
BLACK
6
CONTINUOUS
10
634.298
20
-189.829
11
634.333
21
-189.898
0
LINE
8
BLACK
6
CONTINUOUS
10
576.058
20
-171.368
11
553.003
21
-171.368
0
LINE
8
BLACK
6
CONTINUOUS
10
634.213
20
-189.512
11
634.226
21
-189.601
0
LINE
8
BLACK
6
CONTINUOUS
10
615.408
20
-185.315
11
615.457
21
-185.367
0
LINE
8
BLACK
6
CONTINUOUS
10
577.063
20
-179.987
11
577.076
21
-180.076
0
LINE
8
BLACK
6
CONTINUOUS
10
633.36
20
-185.666
11
633.269
21
-185.656
0
LINE
8
BLACK
6
CONTINUOUS
10
615.834
20
-185.601
11
615.911
21
-185.624
0
LINE
8
BLACK
6
CONTINUOUS
10
634.209
20
-189.415
11
634.213
21
-189.512
0
LINE
8
BLACK
6
CONTINUOUS
10
633.444
20
-185.682
11
633.36
21
-185.666
0
LINE
8
BLACK
6
CONTINUOUS
10
615.321
20
-185.2
11
615.362
21
-185.259
0
LINE
8
BLACK
6
CONTINUOUS
10
633.524
20
-185.705
11
633.444
21
-185.682
0
LINE
8
BLACK
6
CONTINUOUS
10
616.091
20
-185.652
11
616.159
21
-185.654
0
LINE
8
BLACK
6
CONTINUOUS
10
634.676
20
-190.262
11
634.74
21
-190.299
0
LINE
8
BLACK
6
CONTINUOUS
10
595.105
20
-180.893
11
578.057
21
-180.893
0
LINE
8
BLACK
6
CONTINUOUS
10
634.333
20
-189.898
11
634.371
21
-189.961
0
LINE
8
BLACK
6
CONTINUOUS
10
615.761
20
-185.572
11
615.834
21
-185.601
0
LINE
8
BLACK
6
CONTINUOUS
10
634.044
20
-186.105
11
634.002
21
-186.046
0
LINE
8
BLACK
6
CONTINUOUS
10
576.894
20
-171.816
11
576.852
21
-171.757
0
LINE
8
BLACK
6
CONTINUOUS
10
634.507
20
-190.128
11
634.559
21
-190.176
0
LINE
8
BLACK
6
CONTINUOUS
10
615.283
20
-185.137
11
615.321
21
-185.2
0
LINE
8
BLACK
6
CONTINUOUS
10
634.269
20
-189.758
11
634.298
21
-189.829
0
LINE
8
BLACK
6
CONTINUOUS
10
577.041
20
-172.178
11
577.022
21
-172.096
0
LINE
8
BLACK
6
CONTINUOUS
10
615.159
20
-184.657
11
615.159
21
-177.131
0
LINE
8
BLACK
6
CONTINUOUS
10
596.256
20
-176.603
11
596.219
21
-176.667
0
LINE
8
BLACK
6
CONTINUOUS
10
596.342
20
-176.485
11
596.297
21
-176.542
0
LINE
8
BLACK
6
CONTINUOUS
10
576.582
20
-171.513
11
576.516
21
-171.476
0
LINE
8
BLACK
6
CONTINUOUS
10
596.76
20
-176.191
11
596.687
21
-176.221
0
LINE
8
BLACK
6
CONTINUOUS
10
633.732
20
-185.802
11
633.666
21
-185.765
0
LINE
8
BLACK
6
CONTINUOUS
10
597.009
20
-176.134
11
596.919
21
-176.147
0
LINE
8
BLACK
6
CONTINUOUS
10
596.187
20
-176.735
11
596.158
21
-176.809
0
LINE
8
BLACK
6
CONTINUOUS
10
576.644
20
-171.555
11
576.582
21
-171.513
0
LINE
8
BLACK
6
CONTINUOUS
10
596.39
20
-176.432
11
596.342
21
-176.485
0
LINE
8
BLACK
6
CONTINUOUS
10
576.119
20
-171.367
11
576.059
21
-171.365
0
LINE
8
BLACK
6
CONTINUOUS
10
596.621
20
-176.255
11
596.557
21
-176.294
0
LINE
8
BLACK
6
CONTINUOUS
10
615.626
20
-185.501
11
615.69
21
-185.538
0
LINE
8
BLACK
6
CONTINUOUS
10
576.807
20
-171.702
11
576.757
21
-171.65
0
LINE
8
BLACK
6
CONTINUOUS
10
633.794
20
-185.844
11
633.732
21
-185.802
0
LINE
8
BLACK
6
CONTINUOUS
10
634.118
20
-186.238
11
634.083
21
-186.169
0
LINE
8
BLACK
6
CONTINUOUS
10
577.076
20
-180.076
11
577.095
21
-180.157
0
LINE
8
BLACK
6
CONTINUOUS
10
615.362
20
-185.259
11
615.408
21
-185.315
0
LINE
8
BLACK
6
CONTINUOUS
10
576.447
20
-171.444
11
576.374
21
-171.416
0
LINE
8
BLACK
6
CONTINUOUS
10
576.757
20
-171.65
11
576.704
21
-171.602
0
LINE
8
BLACK
6
CONTINUOUS
10
615.159
20
-184.654
11
615.163
21
-184.751
0
LINE
8
BLACK
6
CONTINUOUS
10
634.209
20
-189.417
11
634.209
21
-186.656
0
LINE
8
BLACK
6
CONTINUOUS
10
596.497
20
-176.336
11
596.441
21
-176.383
0
LINE
8
BLACK
6
CONTINUOUS
10
635.141
20
-190.413
11
635.209
21
-190.415
0
LINE
8
BLACK
6
CONTINUOUS
10
634.226
20
-189.601
11
634.245
21
-189.682
0
LINE
8
BLACK
6
CONTINUOUS
10
596.441
20
-176.383
11
596.39
21
-176.432
0
LINE
8
BLACK
6
CONTINUOUS
10
597.106
20
-176.129
11
597.009
21
-176.134
0
LINE
8
BLACK
6
CONTINUOUS
10
634.371
20
-189.961
11
634.412
21
-190.02
0
LINE
8
BLACK
6
CONTINUOUS
10
576.294
20
-171.393
11
576.21
21
-171.377
0
LINE
8
BLACK
6
CONTINUOUS
10
596.105
20
-177.131
11
596.105
21
-179.893
0
LINE
8
BLACK
6
CONTINUOUS
10
596.219
20
-176.667
11
596.187
21
-176.735
0
LINE
8
BLACK
6
CONTINUOUS
10
576.516
20
-171.476
11
576.447
21
-171.444
0
LINE
8
BLACK
6
CONTINUOUS
10
596.687
20
-176.221
11
596.621
21
-176.255
0
LINE
8
BLACK
6
CONTINUOUS
10
596.297
20
-176.542
11
596.256
21
-176.603
0
LINE
8
BLACK
6
CONTINUOUS
10
576.704
20
-171.602
11
576.644
21
-171.555
0
LINE
8
BLACK
6
CONTINUOUS
10
633.666
20
-185.765
11
633.597
21
-185.733
0
LINE
8
BLACK
6
CONTINUOUS
10
615.509
20
-185.415
11
615.566
21
-185.46
0
LINE
8
BLACK
6
CONTINUOUS
10
615.995
20
-185.641
11
616.091
21
-185.652
0
LINE
8
BLACK
6
CONTINUOUS
10
596.919
20
-176.147
11
596.837
21
-176.166
0
LINE
8
BLACK
6
CONTINUOUS
10
576.374
20
-171.416
11
576.294
21
-171.393
0
LINE
8
BLACK
6
CONTINUOUS
10
633.957
20
-185.991
11
633.907
21
-185.939
0
LINE
8
BLACK
6
CONTINUOUS
10
633.597
20
-185.733
11
633.524
21
-185.705
0
LINE
8
BLACK
6
CONTINUOUS
10
635.045
20
-190.402
11
635.141
21
-190.413
0
LINE
8
BLACK
6
CONTINUOUS
10
596.837
20
-176.166
11
596.76
21
-176.191
0
LINE
8
BLACK
6
CONTINUOUS
10
576.21
20
-171.377
11
576.119
21
-171.367
0
LINE
8
BLACK
6
CONTINUOUS
10
596.557
20
-176.294
11
596.497
21
-176.336
0
LINE
8
BLACK
6
CONTINUOUS
10
596.158
20
-176.809
11
596.135
21
-176.889
0
ARC
8
BLACK
10
557.903
20
-323.921
40
4.9
50
180
51
270
0
LINE
8
BLACK
6
CONTINUOUS
10
596.108
20
-177.064
11
596.106
21
-177.129
0
LINE
8
BLACK
6
CONTINUOUS
10
596.118
20
-176.973
11
596.108
21
-177.064
0
ARC
8
BLACK
10
653.503
20
-323.921
40
4.9
50
-90
51
-0
0
LINE
8
BLACK
6
CONTINUOUS
10
557.903
20
-328.821
11
653.503
21
-328.821
0
LINE
8
BLACK
6
CONTINUOUS
10
596.135
20
-176.889
11
596.118
21
-176.973
0
LINE
8
BLACK
6
CONTINUOUS
10
658.403
20
-323.921
11
658.403
21
-190.418
0
LINE
8
BLACK
6
CONTINUOUS
10
559.678
20
-322.146
11
559.678
21
-173.846
0
LINE
8
BLACK
6
CONTINUOUS
10
651.726
20
-147.18
11
653.503
21
-147.18
0
LINE
8
BLACK
6
CONTINUOUS
10
579.628
20
-178.371
11
579.628
21
-168.846
0
LINE
8
BLACK
6
CONTINUOUS
10
653.503
20
-181.727
11
653.503
21
-147.18
0
LINE
8
BLACK
6
CONTINUOUS
10
632.676
20
-27.691
11
632.676
21
-34.833
0
LINE
8
BLACK
6
CONTINUOUS
10
559.678
20
-168.846
11
559.678
21
-20.97
0
LINE
8
BLACK
6
CONTINUOUS
10
579.628
20
-168.846
11
559.678
21
-168.846
0
LINE
8
BLACK
6
CONTINUOUS
10
632.676
20
-34.833
11
651.726
21
-34.833
0
LINE
8
BLACK
6
CONTINUOUS
10
553.003
20
-171.368
11
553.003
21
-18.819
0
LINE
8
BLACK
6
CONTINUOUS
10
615.823
20
-20.97
11
615.823
21
-27.691
0
ARC
8
BLACK
10
557.903
20
-18.819
40
4.9
50
90
51
180
0
LINE
8
BLACK
6
CONTINUOUS
10
653.503
20
-13.919
11
557.903
21
-13.919
0
LINE
8
BLACK
6
CONTINUOUS
10
658.403
20
-190.418
11
658.403
21
-18.819
0
LINE
8
BLACK
6
CONTINUOUS
10
559.678
20
-20.97
11
615.823
21
-20.97
0
LINE
8
BLACK
6
CONTINUOUS
10
651.726
20
-147.18
11
651.726
21
-34.833
0
LINE
8
BLACK
6
CONTINUOUS
10
615.823
20
-27.691
11
632.676
21
-27.691
0
ARC
8
BLACK
10
653.503
20
-18.819
40
4.9
50
-0
51
90
0
LINE
8
BLACK
6
CONTINUOUS
10
598.678
20
-183.371
11
574.626
21
-183.371
0
LINE
8
BLACK
6
CONTINUOUS
10
651.726
20
-307.859
11
632.676
21
-307.859
0
LINE
8
BLACK
6
CONTINUOUS
10
651.726
20
-233.27
11
653.503
21
-233.27
0
LINE
8
BLACK
6
CONTINUOUS
10
651.726
20
-307.859
11
651.726
21
-233.27
0
LINE
8
BLACK
6
CONTINUOUS
10
632.676
20
-307.859
11
632.676
21
-322.146
0
LINE
8
BLACK
6
CONTINUOUS
10
574.626
20
-173.846
11
559.678
21
-173.846
0
LINE
8
BLACK
6
CONTINUOUS
10
632.676
20
-322.146
11
559.678
21
-322.146
0
LINE
8
BLACK
6
CONTINUOUS
10
574.626
20
-183.371
11
574.626
21
-173.846
0
LINE
8
BLACK
6
CONTINUOUS
10
653.503
20
-233.27
11
653.503
21
-199.37
0
LINE
8
BLACK
6
CONTINUOUS
10
653.503
20
-199.37
11
631.776
21
-199.37
0
LINE
8
BLACK
6
CONTINUOUS
10
612.726
20
-188.133
11
612.726
21
-178.608
0
LINE
8
BLACK
6
CONTINUOUS
10
593.676
20
-178.371
11
579.628
21
-178.371
0
LINE
8
BLACK
6
CONTINUOUS
10
617.728
20
-173.609
11
593.676
21
-173.609
0
LINE
8
BLACK
6
CONTINUOUS
10
631.776
20
-183.134
11
631.776
21
-181.727
0
LINE
8
BLACK
6
CONTINUOUS
10
593.676
20
-173.609
11
593.676
21
-178.371
0
LINE
8
BLACK
6
CONTINUOUS
10
631.776
20
-199.37
11
631.776
21
-188.133
0
LINE
8
BLACK
6
CONTINUOUS
10
631.776
20
-181.727
11
653.503
21
-181.727
0
LINE
8
BLACK
6
CONTINUOUS
10
617.728
20
-183.134
11
617.728
21
-173.609
0
LINE
8
BLACK
6
CONTINUOUS
10
631.776
20
-188.133
11
612.726
21
-188.133
0
LINE
8
BLACK
6
CONTINUOUS
10
598.678
20
-178.608
11
598.678
21
-183.371
0
LINE
8
BLACK
6
CONTINUOUS
10
612.726
20
-178.608
11
598.678
21
-178.608
0
LINE
8
BLACK
6
CONTINUOUS
10
617.728
20
-183.134
11
631.776
21
-183.134
0
LINE
8
BLACK
6
CONTINUOUS
10
158.903
20
-383.356
11
158.903
21
-388.356
0
LINE
8
BLACK
6
CONTINUOUS
10
20.5
20
-287.856
11
20.5
21
-383.456
0
LINE
8
BLACK
6
CONTINUOUS
10
158.903
20
-383.356
11
29.5005
21
-383.356
0
ARC
8
BLACK
10
29.5005
20
-379.355
40
4.0005
50
180
51
270
0
ARC
8
BLACK
10
29.5005
20
-291.957
40
4.0005
50
90
51
180
0
LINE
8
BLACK
6
CONTINUOUS
10
29.5005
20
-287.956
11
177.953
21
-287.956
0
LINE
8
BLACK
6
CONTINUOUS
10
25.5
20
-379.355
11
25.5
21
-291.957
0
ARC
8
BLACK
10
25.4
20
-383.456
40
4.9
50
180
51
270
0
ARC
8
BLACK
10
25.4
20
-287.856
40
4.9
50
90
51
180
0
LINE
8
BLACK
6
CONTINUOUS
10
177.953
20
-287.956
11
177.953
21
-282.956
0
LINE
8
BLACK
6
CONTINUOUS
10
25.4
20
-388.356
11
158.903
21
-388.356
0
LINE
8
BLACK
6
CONTINUOUS
10
25.4
20
-282.956
11
177.953
21
-282.956
  0
ENDSEC
  0
EOF
